<svg xmlns="http://www.w3.org/2000/svg" width="70" height="70" viewBox="0 0 70 70">
  <g id="Group_5634" data-name="Group 5634" transform="translate(-6136 2530)">
    <rect id="Rectangle_198" data-name="Rectangle 198" width="70" height="70" rx="35" transform="translate(6206 -2530) rotate(90)" fill="#f5c143" opacity="0.1"/>
    <path id="receipt_long_FILL0_wght300_GRAD0_opsz24" d="M145.883-808.053a5.678,5.678,0,0,1-4.174-1.708A5.666,5.666,0,0,1,140-813.924v-5.893h7.059v-32.489l3.258,2.805,3.3-2.805,3.3,2.805,3.3-2.805,3.3,2.805,3.3-2.805,3.3,2.805,3.3-2.805,3.3,2.805L180-852.306v38.371a5.678,5.678,0,0,1-1.708,4.174,5.678,5.678,0,0,1-4.174,1.708Zm28.235-3.529a2.277,2.277,0,0,0,1.676-.677,2.277,2.277,0,0,0,.676-1.676v-32.941H150.589v27.059h21.177v5.882a2.276,2.276,0,0,0,.676,1.676A2.277,2.277,0,0,0,174.119-811.582Zm-20.724-26.471v-3.529h13.348v3.529Zm0,7.059v-3.529h13.348v3.529Zm18.235-6.742a2.006,2.006,0,0,1-1.473-.609,2.006,2.006,0,0,1-.609-1.473,2.006,2.006,0,0,1,.609-1.473,2.006,2.006,0,0,1,1.473-.609,2.006,2.006,0,0,1,1.473.609,2.006,2.006,0,0,1,.609,1.473,2.006,2.006,0,0,1-.609,1.473,2.006,2.006,0,0,1-1.473.609Zm0,7.059a2.006,2.006,0,0,1-1.473-.609,2.006,2.006,0,0,1-.609-1.473,2.006,2.006,0,0,1,.609-1.473,2.006,2.006,0,0,1,1.473-.609,2.006,2.006,0,0,1,1.473.609,2.006,2.006,0,0,1,.609,1.473,2.006,2.006,0,0,1-.609,1.473,2.006,2.006,0,0,1-1.473.609Zm-25.747,19.1h22.353v-4.706H143.53v2.353a2.277,2.277,0,0,0,.676,1.676A2.277,2.277,0,0,0,145.883-811.582Zm-2.353,0v0Z" transform="translate(6010.999 -1664.694)" fill="#f5c143"/>
  </g>
</svg>
