<svg xmlns="http://www.w3.org/2000/svg" xmlns:xlink="http://www.w3.org/1999/xlink" width="539.736" height="710.086" viewBox="0 0 539.736 710.086">
  <defs>
    <clipPath id="clip-path">
      <path id="Path_16283" data-name="Path 16283" d="M352.363,219.919s-21.777,3.72-48.89-2.492l1.242,5.418s32.7,5.818,47.49.708Z" transform="translate(-303.473 -217.427)" fill="none"/>
    </clipPath>
    <clipPath id="clip-path-2">
      <path id="Path_16318" data-name="Path 16318" d="M346.79,228.216S322.24,229.448,293.108,219l.654,6.143s35.351,10.757,52.374,7.071Z" transform="translate(-293.108 -218.999)" fill="none"/>
    </clipPath>
  </defs>
  <g id="Group_5968" data-name="Group 5968" transform="translate(-266.495 -18.416)">
    <g id="Group_5947" data-name="Group 5947" transform="translate(551.295 18.416)">
      <path id="Path_16243" data-name="Path 16243" d="M570.472,232.418c0,8.669-48.836,15.7-109.078,15.7s-109.078-7.03-109.078-15.7,48.835-15.7,109.078-15.7S570.472,223.745,570.472,232.418Z" transform="translate(-343.394 461.97)" fill="#07111e" opacity="0.15"/>
      <g id="Group_5944" data-name="Group 5944" transform="translate(18.779 513.043)">
        <path id="Path_16244" data-name="Path 16244" d="M388.627,214.608l7.715,117.006L355.2,350.9l63-3.858L434.915,168.32Z" transform="translate(-355.196 -168.32)" fill="#f4caba"/>
        <path id="Path_16245" data-name="Path 16245" d="M400.325,285.17l10.928-116.85-46.289,46.286,4.329,65.647Q384.792,282.8,400.325,285.17Z" transform="translate(-331.534 -168.319)" fill="#e5b6a8"/>
        <path id="Path_16246" data-name="Path 16246" d="M355.2,224.4l63-3.858-.428,3.429-62.146,3Z" transform="translate(-355.196 -41.816)" fill="#8cca85"/>
        <path id="Path_16247" data-name="Path 16247" d="M360.08,226.015l3,9.858L388.8,233.3l-7.715-17.144Z" transform="translate(-343.365 -52.434)" fill="#8cca85"/>
      </g>
      <g id="Group_5945" data-name="Group 5945" transform="translate(134.927 513.043)">
        <path id="Path_16248" data-name="Path 16248" d="M435.422,214.608l-7.715,117.006L468.852,350.9l-63-3.858L389.133,168.32Z" transform="translate(-389.132 -168.32)" fill="#f4caba"/>
        <path id="Path_16249" data-name="Path 16249" d="M400.064,285.17,389.133,168.32l46.289,46.286-4.329,65.647Q415.594,282.8,400.064,285.17Z" transform="translate(-389.133 -168.319)" fill="#e5b6a8"/>
        <path id="Path_16250" data-name="Path 16250" d="M457.021,224.4l-63-3.858.428,3.429,62.146,3Z" transform="translate(-377.301 -41.816)" fill="#8cca85"/>
        <path id="Path_16251" data-name="Path 16251" d="M427.867,226.015l-3,9.858L399.152,233.3l7.715-17.144Z" transform="translate(-364.863 -52.434)" fill="#8cca85"/>
      </g>
      <path id="Path_16252" data-name="Path 16252" d="M404.649,56.516s21.8,3.34,34.656,20.484,45.433,60.859,45.433,71.147-67.721,56.574-73.72,48.859,36.86-54.859,36.86-54.859-30-44.574-42.86-43.719S404.649,56.516,404.649,56.516Z" transform="translate(-229.802 73.881)" fill="#f4caba"/>
      <path id="Path_16253" data-name="Path 16253" d="M424.845,77.4s-57.86,56.574-62.991,122.087c-4.34,55.417,8.262,287.632,8.262,287.632s10.018,10.962,47.422,4.069l21.545-243.239,16.38,246.169s12.714,13.286,52.343-.291c0,0,33.551-308.708-25.107-379.485Z" transform="translate(-322.49 124.479)" fill="#f5c143"/>
      <path id="Path_16254" data-name="Path 16254" d="M464.625,118.1c-.928-1.311-1.879-2.57-2.858-3.751L403.913,77.4a263.922,263.922,0,0,0-34.327,43.784C385.911,125.3,437.023,131.406,464.625,118.1Z" transform="translate(-301.558 124.479)" fill="#f5c143"/>
      <path id="Path_16255" data-name="Path 16255" d="M449.35,33.916S418.2-2.564,387.359,36.983c-13.382,17.157-15.986,48.473-15.925,92.722.034,24.991,43.342,14.333,43.342,14.333S427.977,65.221,449.35,33.916Z" transform="translate(-297.085 -18.032)" fill="#ce7c5b"/>
      <path id="Path_16256" data-name="Path 16256" d="M395.874,45.015a20.863,20.863,0,0,1-18.091-.75c-2.06,14.652-2.645,32.325-2.618,52.949.034,24.06,41.73,13.8,41.73,13.8s7.646-45.622,20.675-80.168A368.452,368.452,0,0,0,395.874,45.015Z" transform="translate(-288.046 11.689)" fill="#bc6d51"/>
      <path id="Path_16257" data-name="Path 16257" d="M432.216,96.491l3.159-57.563L405.613,62.663,403.2,93.034,377.172,97.1s-9.323,37.288,34.492,39.153,57.8-28.9,57.8-28.9Z" transform="translate(-285.194 31.274)" fill="#f4caba"/>
      <path id="Path_16258" data-name="Path 16258" d="M386.8,89.55Q400.14,88.3,413.51,87.462l2.663-48.534L386.411,62.663l-2.142,26.928Z" transform="translate(-265.991 31.274)" fill="#e5b6a8"/>
      <path id="Path_16259" data-name="Path 16259" d="M440.382,33.654S393.405,3.036,379.147,51.218c-14.381,48.606,24.139,87.407,65,46.248C457.406,84.108,469.135,37.114,440.382,33.654Z" transform="translate(-285.841 -4.733)" fill="#ffd5c2"/>
      <path id="Path_16260" data-name="Path 16260" d="M387.917,37.609s-6.547,9.884-8.9,9.922a8.811,8.811,0,0,0,8.1,6.366" transform="translate(-278.717 28.079)" fill="none" stroke="#d8b0a0" stroke-width="0.751"/>
      <path id="Path_16261" data-name="Path 16261" d="M381.267,44.249l27.818.726S388.441,56.881,381.267,44.249Z" transform="translate(-273.261 44.164)" fill="#fff"/>
      <path id="Path_16262" data-name="Path 16262" d="M384.622,36.387s11.893-9.864,18.875,1.951" transform="translate(-265.134 15.772)" fill="none" stroke="#bc6040" stroke-width="0.675"/>
      <path id="Path_16263" data-name="Path 16263" d="M377.089,35.943s10.35-10.507,16.028.7" transform="translate(-283.382 13.215)" fill="none" stroke="#bc6040" stroke-width="0.751"/>
      <path id="Path_16264" data-name="Path 16264" d="M386.176,40.222c-.483,2.635.349,4.993,1.855,5.267s3.115-1.636,3.6-4.271-.349-4.99-1.852-5.267S386.659,37.586,386.176,40.222Z" transform="translate(-261.701 23.998)" fill="#3f3838"/>
      <path id="Path_16265" data-name="Path 16265" d="M379.012,39.429c-.483,2.635.346,4.993,1.852,5.271s3.118-1.639,3.6-4.271-.349-4.993-1.855-5.271S379.495,36.8,379.012,39.429Z" transform="translate(-279.056 22.077)" fill="#3f3838"/>
      <path id="Path_16266" data-name="Path 16266" d="M436.1,113.012c-6.109,3.535-11.335,6.328-17.681,2.249s-6.2-3.905-6.2-3.905-21.3,22.657-2.717-4.987c0,0-33.989,13.594-1.359-4.08,0,0-29.005,1.814.452-4.08,0,0-24.019-16.767,4.531-2.266l16.541,9.354S426.3,105.373,436.1,113.012Z" transform="translate(-242.452 155.088)" fill="#f4caba"/>
      <path id="Path_16267" data-name="Path 16267" d="M451.048,57.273s-19.06-5.11-36.48,7.372-61.629,44.383-64.723,54.192,47.569,74.323,55.612,68.768S386.8,124.2,386.8,124.2s42.018-33.489,54.024-28.8S451.048,57.273,451.048,57.273Z" transform="translate(-349.709 73.206)" fill="#f4caba"/>
      <path id="Path_16268" data-name="Path 16268" d="M362.616,106c9.645,10.288,15.422,14.275,21.079,9.289s5.538-4.8,5.538-4.8,24.474,19.186,1.934-5.336c0,0,35.652,8.306.729-4.24,0,0,28.944-2.584-1.064-3.963,0,0,21.213-20.2-4.822-1.554l-10.856,7.071S371.152,96.972,362.616,106Z" transform="translate(-318.443 148.92)" fill="#f4caba"/>
      <path id="Path_16269" data-name="Path 16269" d="M383.229,22.272s-5.212,25.747,32.421,36.915C443.783,67.531,410.092,25.013,383.229,22.272Z" transform="translate(-269.103 -9.075)" fill="#ce7c5b"/>
      <path id="Path_16270" data-name="Path 16270" d="M405.4,56.406s-3.833,24.416,20.62,24.854,37.219-26.439,37.219-26.439l18.92,6.845s-5.343,7.68-6.013,16.989a61.523,61.523,0,0,0,2.96,24.8c-2.187,28.485-4.976,61.55-6.342,64.377-2.433,5.041-59.449,13.231-103.934-14.282,0,0,1.513-38.719,23.762-95.135Z" transform="translate(-303.39 69.775)" fill="#8cca85"/>
      <path id="Path_16271" data-name="Path 16271" d="M476.145,63.578c.062-.866.2-1.7.335-2.533-21.538,38.274-59.657,59.917-106.179,63.508-1.259,8.909-1.472,13.919-1.472,13.919,44.486,27.513,101.5,19.323,103.934,14.282,1.365-2.827,4.155-35.892,6.342-64.377A61.523,61.523,0,0,1,476.145,63.578Z" transform="translate(-303.39 84.852)" fill="#8cca85"/>
      <path id="Path_16272" data-name="Path 16272" d="M383.452,35.2s39.057,12.136,31.316,56.187c-6.181,35.159-10.329,46.337-5.141,63.022,0,0,32.863-1.171,34.759-11.318,3.717-19.871-.243-27.164,2.734-64.774,2.574-32.517-6.684-48.5-18.865-55.776S386.217,16.527,383.452,35.2Z" transform="translate(-267.968 -18.416)" fill="#ce7c5b"/>
      <g id="Group_5946" data-name="Group 5946" transform="translate(65.067 311.176)">
        <path id="Path_16273" data-name="Path 16273" d="M418.867,135.05l-50.146-25.713.493,306.422c7.092.678,16.644.441,29.488-1.927l20.867-235.6Z" transform="translate(-368.721 -109.337)" fill="#f5c143"/>
      </g>
    </g>
    <g id="Group_5953" data-name="Group 5953" transform="translate(266.495 34.166)">
      <path id="Path_16274" data-name="Path 16274" d="M276.821,232.418c0,8.669,40.933,15.7,91.425,15.7s91.428-7.03,91.428-15.7-40.933-15.7-91.428-15.7S276.821,223.749,276.821,232.418Z" transform="translate(-241.48 446.22)" fill="#07111e" opacity="0.15"/>
      <path id="Path_16275" data-name="Path 16275" d="M364.6,161.147s-10.285,37.716-14.57,67.717,7.714,52.289-6.859,88.29a348.629,348.629,0,0,0-19.717,70.291l-15.856,6s-6.431-61.718-5.572-141.438,7.714-111.433,7.714-111.433Z" transform="translate(-180.618 261.76)" fill="#f4caba"/>
      <path id="Path_16276" data-name="Path 16276" d="M302.367,205.163c2.255-45.492,6.349-64.589,6.349-64.589l54.859,20.573s-3.268,11.986-6.886,27.818C338.32,193.643,320.626,200.306,302.367,205.163Z" transform="translate(-179.595 261.76)" fill="#f4caba"/>
      <g id="Group_5950" data-name="Group 5950" transform="translate(125.345 641.24)">
        <path id="Path_16277" data-name="Path 16277" d="M323.555,210.379s-6.783,8.957-20.436,9.138c0,0,.168,15.983,3.494,17.041s39.595,7.478,45.608,1.811S323.555,210.379,323.555,210.379Z" transform="translate(-303.119 -210.379)" fill="#3d3939"/>
        <path id="Path_16278" data-name="Path 16278" d="M318.186,212.96c9.518,6.965,20.131,15.976,16.5,19.327-3.049,2.813-13.574,2.717-23.94,1.763C310.332,226.759,314.391,218.237,318.186,212.96Z" transform="translate(-284.721 -204.127)" fill="#f2f2f2"/>
        <path id="Path_16279" data-name="Path 16279" d="M352.363,219.919s-21.777,3.72-48.89-2.492l1.242,5.418s32.7,5.818,47.49.708Z" transform="translate(-302.261 -193.305)" fill="#f2f2f2"/>
        <path id="Path_16280" data-name="Path 16280" d="M315.12,212.065s-5.394,3.556-5.349,8.789" transform="translate(-287.007 -206.295)" fill="none" stroke="#f2f2f2" stroke-linecap="round" stroke-linejoin="round" stroke-width="0.675"/>
        <path id="Path_16281" data-name="Path 16281" d="M313.806,211.033s-5.394,3.552-5.349,8.786" transform="translate(-290.19 -208.795)" fill="none" stroke="#f2f2f2" stroke-linecap="round" stroke-linejoin="round" stroke-width="0.675"/>
        <g id="Group_5949" data-name="Group 5949" transform="translate(1.212 24.122)">
          <g id="Group_5948" data-name="Group 5948" clip-path="url(#clip-path)">
            <path id="Path_16282" data-name="Path 16282" d="M302.948,218.085s38.684,8.32,52.511,1.465" transform="translate(-304.745 -215.833)" fill="none" stroke="#3d3939" stroke-width="0.37"/>
          </g>
        </g>
        <path id="Path_16284" data-name="Path 16284" d="M311.691,217.759a3.661,3.661,0,1,1-4.069-3.2A3.665,3.665,0,0,1,311.691,217.759Z" transform="translate(-300.027 -200.318)" fill="#f2f2f2"/>
      </g>
      <path id="Path_16285" data-name="Path 16285" d="M350.376,104.758l22.184-27.72L359.2,62.08l-5-2.429L319.871,104.98l16.492,14.7Z" transform="translate(-137.193 65.726)" fill="#4c4848"/>
      <path id="Path_16286" data-name="Path 16286" d="M351.373,106.195l22.675-29.061L356.5,60.253l-35.632,46.163,16.493,14.7Z" transform="translate(-134.779 67.185)" fill="#6b6363"/>
      <path id="Path_16287" data-name="Path 16287" d="M334.892,71.2s12.43,50.574-1.283,75.431-24,0-24,0Z" transform="translate(-162.056 93.695)" fill="#ed5c18"/>
      <path id="Path_16288" data-name="Path 16288" d="M318.734,62.618s16.072,3.861,12.215,41.145-3,51.649-3,51.649,29.57-41.361,40.5-49.075,6.427,4.5,6.427,4.5-35.573,93.218-55.5,82.934S318.734,62.618,318.734,62.618Z" transform="translate(-160.256 72.913)" fill="#f4caba"/>
      <path id="Path_16289" data-name="Path 16289" d="M318.734,62.618s16.072,3.861,12.215,41.145c-3.45,33.362-3.128,48.329-3.022,51.122-2.868,3.7-7.738,14.6-7.738,19.607l3.138,6.64a18.875,18.875,0,0,0,4.254,11.753l-.007.164c-2.909,1.612-5.681,2.019-8.2.722C299.449,183.483,318.734,62.618,318.734,62.618Z" transform="translate(-160.256 72.913)" fill="#f4caba"/>
      <path id="Path_16290" data-name="Path 16290" d="M353.6,204.785s-.859,43.719-2.574,58.292-25.713,88.29-15.429,150.863l-20.573,22.287s-3.429-10.285-8.57-44.574-34.29-57.429-2.574-128.576c0,0-22.287-53.148-17.143-115.721S353.6,204.785,353.6,204.785Z" transform="translate(-219.332 234.406)" fill="#f4caba"/>
      <path id="Path_16291" data-name="Path 16291" d="M291.837,221.668c-4.22-20.3-7.4-46.354-5.1-74.312,5.144-62.577,66.862,57.429,66.862,57.429s-.192,9.655-.568,21.377Q322.446,223.246,291.837,221.668Z" transform="translate(-219.331 234.406)" fill="#f4caba"/>
      <path id="Path_16292" data-name="Path 16292" d="M314.614,79.921s-15.322-2.006-23.037-.4c-10.158,2.108,1.91-31.042,1.91-31.042l31.3,2.834Z" transform="translate(-215.587 38.652)" fill="#111010"/>
      <path id="Path_16293" data-name="Path 16293" d="M336.015,82.171S315.9,67.855,305.856,30.235c0,0,39.951-24.122,55.68,24.909A28.033,28.033,0,0,1,359.6,76.808c-.845,2.409-1.742,7.485,3.412,11.938,7.037,6.078,10.62,16.579,1.513,25.008s7.3,21,1.6,29.769c-8.591,13.211-51.8,9.918-65.291-5.3-6.414-7.228,8.974-22.315,23.772-35.426Z" transform="translate(-186.931 -19.908)" fill="#111010"/>
      <path id="Path_16294" data-name="Path 16294" d="M314.929,101.1l1.639-57.628L344.253,69.6l-.12,30.47,25.6,6.215s9.032,51-34.786,49.219-48-47.145-48-47.145Z" transform="translate(-216.967 26.532)" fill="#f4caba"/>
      <path id="Path_16295" data-name="Path 16295" d="M295.155,96.674l1.513-53.2L324.352,69.6l-.113,28.937C314.547,97.725,304.851,97.123,295.155,96.674Z" transform="translate(-197.066 26.532)" fill="#f4caba"/>
      <path id="Path_16296" data-name="Path 16296" d="M318.375,32.575s51.488-16.75,55.91,36.025c2.848,34-13.033,55.273-32.715,57.895-15.309,2.04-31.4-7.625-40.666-31.391C280.848,43.688,288.665,27.5,318.375,32.575Z" transform="translate(-210.077 -5.982)" fill="#f4caba"/>
      <path id="Path_16297" data-name="Path 16297" d="M322.407,54.921l-20.189-4.9S311.845,68.4,322.407,54.921Z" transform="translate(-179.956 42.394)" fill="#fff"/>
      <path id="Path_16298" data-name="Path 16298" d="M384.662,47.777s2.088,28.037-22.972,30.847-19.231,23.423-19.231,23.423,4.155,10.377-12.465,19.9c-7.663,4.394-1.342,16.726-12.119,20.4-10.716,3.652-40.057-16.582-40.584-34.67s22.133-17.971,22-24.211-3.406-21.9,13.026-29.276c14.8-6.643,10.021-21.213,24.655-26.767C343.312,25.017,373.635,11.628,384.662,47.777Z" transform="translate(-240.36 -23.018)" fill="#262424"/>
      <path id="Path_16299" data-name="Path 16299" d="M323.077,46.111s-10.469-12.81-22.753-3.436" transform="translate(-184.544 16.291)" fill="none" stroke="#111010" stroke-width="1.705"/>
      <path id="Path_16300" data-name="Path 16300" d="M323.5,47.471s-5.986-13-13.457-3.847" transform="translate(-161 18.994)" fill="none" stroke="#111010" stroke-width="1.677"/>
      <path id="Path_16301" data-name="Path 16301" d="M313.921,44.9s2.31,10.9-.007,13.953-6.886.667-6.886.667" transform="translate(-168.304 29.991)" fill="none" stroke="#684949" stroke-width="0.751"/>
      <path id="Path_16302" data-name="Path 16302" d="M313.594,44.212s-3.895,17.256-11.667-.561" transform="translate(-180.661 26.966)" fill="none" stroke="#1e1b1b" stroke-width="0.751"/>
      <path id="Path_16303" data-name="Path 16303" d="M321.311,45.373s-3.9,17.256-11.671-.558" transform="translate(-161.976 29.785)" fill="none" stroke="#1e1b1b" stroke-width="0.751"/>
      <path id="Path_16304" data-name="Path 16304" d="M372.326,61.679s5.784,35.361-27,37.288-46.717-37.288-46.717-37.288-8.57.643-14.357,6.753c0,0,14.357,11.678,16.5,41.251,0,0,7.286,45,18.43,58.288,13.337,15.9,28.43-41.21,60.431-28.715,1.01.394,7.143.2,13.289-6.431,16.284-17.571-9.645-42.216-9.645-42.216l-1.287-25.717Z" transform="translate(-223.488 70.638)" fill="#9cb2ff"/>
      <path id="Path_16305" data-name="Path 16305" d="M407.89,93.889,402.746,125.6S458.464,163.32,463.6,325.33c0,0-87.431,31.716-189.438-1.715,0,0,13.286-152.15,66.434-198.439L329.026,78.46Z" transform="translate(-247.909 111.29)" fill="#9cb2ff"/>
      <path id="Path_16306" data-name="Path 16306" d="M340.905,163.116c29.211,14.864,82.927,40.847,120.981,31.292.777,9.84,1.373,20.176,1.718,31.124,0,0-87.431,31.716-189.438-1.715,0,0,4.542-51.81,18.872-104.16C304.928,137.68,320.863,152.917,340.905,163.116Z" transform="translate(-247.909 211.089)" fill="#9cb2ff"/>
      <path id="Path_16307" data-name="Path 16307" d="M292.952,63.839s18.642,16.394,17.037,45.967c-2.036,37.432,7.5,46.933,7.5,46.933s7.93-31.716,18.858-39.43,9.429,12.858,9.429,12.858-6.643,59.144-26.572,48.859c-13.4-6.917-38.578-52.665-38.144-86.575C281.381,67.378,292.952,63.839,292.952,63.839Z" transform="translate(-231.227 75.871)" fill="#f4caba"/>
      <path id="Path_16308" data-name="Path 16308" d="M361.579,59.926s37.712,59.585-31.216,168.975l-33.8,1.739,7.831-74.583S295,278.7,299.7,315.168c0,0-20.49,6.978-21.945-.657-16.448-86.233-14.867-152.889,4.716-199.295S309.879,66.555,361.579,59.926Z" transform="translate(-266.495 66.392)" fill="#ed5c18"/>
      <path id="Path_16309" data-name="Path 16309" d="M308.1,60.7s15,41.145,33,50.574c0,0,.849-36.254-12-43.715C315.818,59.841,308.1,60.7,308.1,60.7Z" transform="translate(-165.697 68.191)" fill="#ed5c18"/>
      <path id="Path_16310" data-name="Path 16310" d="M313.093,111.913a47.669,47.669,0,0,0-6.619-33.225c-10.391-16.223-.226,6.106-.226,6.106s-8.111-14.2-10.137-13.943,7.352,15.969,7.352,15.969-8.111-12.167-8.875-10.391,6.845,14.446,6.845,14.446-4.815-6.592-5.829-3.549,7.095,12.927,4.562,27.123S313.093,111.913,313.093,111.913Z" transform="translate(-198.57 92.848)" fill="#f4caba"/>
      <path id="Path_16311" data-name="Path 16311" d="M333.475,138.246s16.226-10.918,16.6-11.558c3.145-5.4,27.948-54.157,25.555-55.352C372.953,70,368.6,80.369,368.6,80.369s5.688-14.385,3.012-14.053-9.032,15.055-9.032,15.055,4.35-13.717,2.341-12.379-6.356,11.041-6.356,11.041,3.012-8.365.335-7.358-9.237,17.547-9.237,17.547-2.43,4.459-1.215,7.7c0,0-24.31,30.385-31.2,44.568S333.475,138.246,333.475,138.246Z" transform="translate(-146.634 81.857)" fill="#f4caba"/>
      <path id="Path_16312" data-name="Path 16312" d="M317.454,211.954s-8.679,9-23.786,7.4c0,0-1.93,17.677,1.605,19.286s42.753,13.5,50.146,8.036S317.454,211.954,317.454,211.954Z" transform="translate(-201.942 434.677)" fill="#3d3939"/>
      <path id="Path_16313" data-name="Path 16313" d="M311.905,215.309c9.593,8.953,20.128,20.316,15.668,23.536-3.741,2.707-15.353,1.2-26.682-1.218C301.4,229.516,307.015,220.641,311.905,215.309Z" transform="translate(-183.168 442.804)" fill="#f2f2f2"/>
      <path id="Path_16314" data-name="Path 16314" d="M346.79,228.216S322.24,229.448,293.108,219l.654,6.143s35.351,10.757,52.374,7.071Z" transform="translate(-202.025 451.743)" fill="#f2f2f2"/>
      <path id="Path_16315" data-name="Path 16315" d="M307.5,214.115s-6.427,3.214-7.071,9" transform="translate(-184.278 439.912)" fill="none" stroke="#f2f2f2" stroke-linecap="round" stroke-linejoin="round" stroke-width="0.751"/>
      <path id="Path_16316" data-name="Path 16316" d="M306.19,212.8s-6.427,3.214-7.071,9" transform="translate(-187.463 436.726)" fill="none" stroke="#f2f2f2" stroke-linecap="round" stroke-linejoin="round" stroke-width="0.751"/>
      <g id="Group_5952" data-name="Group 5952" transform="translate(91.083 670.742)">
        <g id="Group_5951" data-name="Group 5951" clip-path="url(#clip-path-2)">
          <path id="Path_16317" data-name="Path 16317" d="M292.441,219.656s41.634,14.309,57.819,8.563" transform="translate(-294.724 -217.407)" fill="none" stroke="#3d3939" stroke-width="0.411"/>
        </g>
      </g>
      <path id="Path_16319" data-name="Path 16319" d="M302.506,220.125a4.073,4.073,0,1,1-4.073-4.069A4.074,4.074,0,0,1,302.506,220.125Z" transform="translate(-198.992 444.614)" fill="#f2f2f2"/>
      <path id="Path_16320" data-name="Path 16320" d="M276.3,184.091s5.144-72.43,21.428-105.005c0,0,12.858,45,37.719,44.574,0,0-14.361,40.929-28.824,58.826Z" transform="translate(-242.752 112.806)" fill="#ed5c18"/>
    </g>
  </g>
</svg>
