<svg xmlns="http://www.w3.org/2000/svg" xmlns:xlink="http://www.w3.org/1999/xlink" width="861.581" height="641.099" viewBox="0 0 861.581 641.099">
  <defs>
    <filter id="Path_16321" x="0" y="3" width="388.06" height="354.549" filterUnits="userSpaceOnUse">
      <feOffset input="SourceAlpha"/>
      <feGaussianBlur stdDeviation="3" result="blur"/>
      <feFlood flood-opacity="0.161"/>
      <feComposite operator="in" in2="blur"/>
      <feComposite in="SourceGraphic"/>
    </filter>
    <filter id="Path_16431" x="716.159" y="442.351" width="145.422" height="147.649" filterUnits="userSpaceOnUse">
      <feOffset input="SourceAlpha"/>
      <feGaussianBlur stdDeviation="3" result="blur-2"/>
      <feFlood flood-opacity="0.161"/>
      <feComposite operator="in" in2="blur-2"/>
      <feComposite in="SourceGraphic"/>
    </filter>
    <clipPath id="clip-path">
      <path id="Path_16283" data-name="Path 16283" d="M347.29,219.66a123.427,123.427,0,0,1-43.817-2.233l1.113,4.856s29.3,5.214,42.562.635Z" transform="translate(-303.473 -217.427)" fill="none"/>
    </clipPath>
    <clipPath id="clip-path-2">
      <path id="Path_16318" data-name="Path 16318" d="M341.219,227.259s-22,1.1-48.111-8.26l.586,5.506s31.682,9.641,46.939,6.337Z" transform="translate(-293.108 -218.999)" fill="none"/>
    </clipPath>
  </defs>
  <g id="Group_5991" data-name="Group 5991" transform="translate(-896.277 -177)">
    <g transform="matrix(1, 0, 0, 1, 896.28, 177)" filter="url(#Path_16321)">
      <path id="Path_16321-2" data-name="Path 16321" d="M490.179,281a107.463,107.463,0,0,1-50.408,91.128,414.614,414.614,0,0,0-58.977,45.436A87.35,87.35,0,0,1,279.5,429.445a184.832,184.832,0,0,0-65.339-21.411c-39.65-5.336-94.046-27.1-94.046-104.138,0-27.231,8.959-52.231,24.964-71.63,13.547-16.418,24.768-34.588,34.333-53.6a135.73,135.73,0,0,1,227.732-23.279,218.723,218.723,0,0,0,39.947,39.52A107.381,107.381,0,0,1,490.179,281Z" transform="translate(-111.12 -91.87)" fill="#fff"/>
    </g>
    <g transform="matrix(1, 0, 0, 1, 896.28, 177)" filter="url(#Path_16431)">
      <path id="Path_16431-2" data-name="Path 16431" d="M1267.782,576.352a48.994,48.994,0,0,0-36.969-16.657c-27.016.058-49.3,22.653-49,49.667a49.417,49.417,0,0,0,.688,7.7,45.74,45.74,0,0,1-1.483,22.027,38.251,38.251,0,0,0,49.749,47.818,70.773,70.773,0,0,1,25.633-4.5l.5,0a49.609,49.609,0,0,0,28.71-90.065A104.069,104.069,0,0,1,1267.782,576.352Z" transform="translate(-453.93 -108.34)" fill="#fff"/>
    </g>
    <g id="Group_5954" data-name="Group 5954" transform="translate(731.505 158.584)">
      <g id="Group_5943" data-name="Group 5943" transform="translate(772.226 22.124)">
        <path id="Path_16202" data-name="Path 16202" d="M483.444,42.155s-.54-22.091,19.125-22.526,22.333,44-7.677,42.777S483.444,42.155,483.444,42.155Z" transform="translate(-335.46 -19.625)" fill="#492423"/>
        <path id="Path_16203" data-name="Path 16203" d="M440,86.894s-.647-4.92-1.607-14.907l-1.54-14.174s-12.315-31.253,4.021-3.043a1.112,1.112,0,0,0,1.451-1.163c.08-1.543-2.236-22.7-.377-22.753s4.693,20.036,5.757,20.4.88-23.152,3.322-22.563,1.469,22.655,3.166,22.741,6.665-18.37,8.825-18.26-2.862,21.2-2.233,25.4c.61,4.07,2.481,4.432,2.481,4.432s2.448,1.224,4.61-3.6c2.135-4.77,3.865-6.306,6.552-4.466a67.6,67.6,0,0,1-2.3,6.84c-.524,1.132-6.389,14.834-14.073,16.913l-2.583,11.156Z" transform="translate(-429.251 -0.904)" fill="#ffa69c"/>
        <path id="Path_16204" data-name="Path 16204" d="M434.384,43.131c.9,9.269,1.506,13.889,1.506,13.889l15.469,2.957,1.945-8.4C446.9,49.036,440.58,46.244,434.384,43.131Z" transform="translate(-425.145 28.97)" fill="#ff9786"/>
        <g id="Group_5940" data-name="Group 5940" transform="translate(36.391 609.251)">
          <path id="Path_16205" data-name="Path 16205" d="M607.117,232.321c0,7.77-36.685,14.07-81.94,14.07s-81.941-6.3-81.941-14.07,36.688-14.07,81.941-14.07S607.117,224.548,607.117,232.321Z" transform="translate(-443.236 -218.251)" fill="#07111e" opacity="0.15"/>
        </g>
        <path id="Path_16206" data-name="Path 16206" d="M493.134,171.072,505.484,298.6l-14.038.472L463.539,176.5Z" transform="translate(-364.871 293.465)" fill="#ff9786"/>
        <path id="Path_16207" data-name="Path 16207" d="M517.012,212.984l1.152,26.216-59.48,1.319,42.5-28.184Z" transform="translate(-374.908 378.771)" fill="#ddd"/>
        <line id="Line_377" data-name="Line 377" y1="1.535" x2="59.282" transform="translate(83.973 617.971)" fill="none" stroke="#cc859d" stroke-width="1.069"/>
        <path id="Path_16208" data-name="Path 16208" d="M464.393,67.737l6.105,34.208,26.627-1.145L484.812,40.406Z" transform="translate(-363.107 23.337)" fill="#ff9786"/>
        <path id="Path_16209" data-name="Path 16209" d="M512.79,29.8S482.059.558,459.422,42.074c-14.683,26.928-.031,69.456-.031,69.456l17.573-40.246S497.2,62.027,512.79,29.8Z" transform="translate(-386.891 -19.268)" fill="#572e2b"/>
        <path id="Path_16210" data-name="Path 16210" d="M513.076,32.251s-45.936-25.723-55.786,23c-9.938,49.154,28.032,83.115,63.831,39.412C553.552,55.072,540.1,32.965,513.076,32.251Z" transform="translate(-381.112 -7.549)" fill="#ffa69c"/>
        <path id="Path_16211" data-name="Path 16211" d="M464.323,37.669S462.277,72.072,499,85.6c0,0,12.116-10.558,12.518-.074s-12.659,13.944-12.659,13.944l-1.6,14.331s31-20.033,31.146-51.267C528.528,36.332,482.788-3.823,464.323,37.669Z" transform="translate(-363.294 -19.32)" fill="#572e2b"/>
        <path id="Path_16212" data-name="Path 16212" d="M486.951,59.165l-28.33,8.5-1.288.561s5.187,36.2,43.6,27.873,43.556-38.17,43.556-38.17l-37.259-1.04Z" transform="translate(-377.701 57.412)" fill="#ff9786"/>
        <path id="Path_16213" data-name="Path 16213" d="M467.144,37.357s-6.518,16.008-8.616,16.223c0,0,1.666,4.316,7.512,4.043" transform="translate(-375.231 17.033)" fill="none" stroke="#d1766d" stroke-width="1.079"/>
        <path id="Path_16214" data-name="Path 16214" d="M463.787,37.289s12.561-9.138,22.944,1.58" transform="translate(-364.359 9.387)" fill="none" stroke="#3f1e1d" stroke-width="1.079"/>
        <path id="Path_16215" data-name="Path 16215" d="M455.951,38.034s8.435-10.177,14.367-.607" transform="translate(-380.559 8.697)" fill="none" stroke="#3f1e1d" stroke-width="0.846"/>
        <path id="Path_16216" data-name="Path 16216" d="M465.964,216.523c5.122,2.666,7.515,8.509,7.739,14.061" transform="translate(-359.858 387.427)" fill="none" stroke="#e2869f" stroke-linecap="round" stroke-width="0.54"/>
        <path id="Path_16217" data-name="Path 16217" d="M467.367,215.371s8.834,1.641,9.38,7.88" transform="translate(-356.958 385.046)" fill="none" stroke="#e2869f" stroke-linecap="round" stroke-width="0.54"/>
        <path id="Path_16218" data-name="Path 16218" d="M468.975,214.16s8.834,1.644,9.38,7.883" transform="translate(-353.634 382.542)" fill="none" stroke="#e2869f" stroke-linecap="round" stroke-width="0.54"/>
        <path id="Path_16219" data-name="Path 16219" d="M516.383,90.9s9.217,31.5,39.946,26.118,33.035-33.8,33.035-33.8,16.119-.788,27.649,11.131c11.233,11.607,41.486,49.933,41.486,61.457s-36.875,63-36.875,63l-14.6-8.45L624.7,159.647l-21.5-14.969s-6.914,62.994-22.278,73.751-49.936,0-49.936,0l-29.962-77.591s-42.252,13.828-58.383,5.377-11.524-98.335-6.917-100.639,27.658,6.144,27.658,6.144-3.84,56.083,2.3,56.083S495.639,93.975,516.383,90.9Z" transform="translate(-431.372 33.199)" fill="#ffb3c5"/>
        <path id="Path_16220" data-name="Path 16220" d="M527.087,77.62c-17.422,1.859-34.845,2.813-52.276,3.208a28.076,28.076,0,0,1-17.852,15.827l21.122,54.7s34.572,10.754,49.936,0c10.475-7.331,17.017-38.924,20.125-58.3A25.507,25.507,0,0,1,527.087,77.62Z" transform="translate(-378.475 100.27)" fill="#e897ae"/>
        <path id="Path_16221" data-name="Path 16221" d="M479.719,83.361,552.7,72.607s-7.684,52.24,15.364,86.041c0,0,50.7,123.678,10.564,209.152-16.65,35.461-34.379,55.89-34.379,55.89l-28.425-18.438L535.8,338.789l-16.128-77.2,8.45,126.757-36.875,9.987S454.619,259,450.527,233.936c-6.147-37.642,31.5-91.422,31.5-91.422S482.026,109.482,479.719,83.361Z" transform="translate(-393.174 89.906)" fill="#6e7a94"/>
        <path id="Path_16222" data-name="Path 16222" d="M460.84,180.474l41.862-9.543L497.278,187.7l-31.061,10.449Z" transform="translate(-370.452 293.174)" fill="#939caa"/>
        <path id="Path_16223" data-name="Path 16223" d="M502.975,179.424l-44.237,93.614,14.1,6.132,51.119-76.88Z" transform="translate(-374.796 310.731)" fill="#ffa69c"/>
        <path id="Path_16224" data-name="Path 16224" d="M468,207.2l-11.963,21.219,50.1,23.939-21.377-39.692Z" transform="translate(-380.388 368.145)" fill="#e8eeef"/>
        <line id="Line_378" data-name="Line 378" x2="49.147" y2="23.526" transform="translate(75.645 596.56)" fill="none" stroke="#e897ae" stroke-width="1.069"/>
        <path id="Path_16225" data-name="Path 16225" d="M477.511,214.032s-8.555-.561-13.969,10.849" transform="translate(-364.863 382.268)" fill="none" stroke="#e897ae" stroke-linecap="round" stroke-linejoin="round" stroke-width="0.54"/>
        <path id="Path_16226" data-name="Path 16226" d="M475.357,212.742s-8.653-2.411-11.889,2.951" transform="translate(-365.018 378.494)" fill="none" stroke="#e897ae" stroke-linecap="round" stroke-linejoin="round" stroke-width="0.54"/>
        <path id="Path_16227" data-name="Path 16227" d="M474.446,210.946s-8.656-2.408-11.889,2.954" transform="translate(-366.902 374.784)" fill="none" stroke="#e897ae" stroke-linecap="round" stroke-linejoin="round" stroke-width="0.54"/>
        <path id="Path_16228" data-name="Path 16228" d="M476.253,177.048l33.8,26.888-9.219,13.828-30.73-26.889Z" transform="translate(-351.294 305.819)" fill="#9fa8b7"/>
        <g id="Group_5941" data-name="Group 5941" transform="translate(75.164 119.853)">
          <path id="Path_16229" data-name="Path 16229" d="M461.1,76.7s3.362,7.993,5.61,7.724,5.448-5.576,5.448-5.576L469.709,73.5" transform="translate(-445.086 -28.101)" fill="none" stroke="#9fa8b7" stroke-width="0.466"/>
          <path id="Path_16230" data-name="Path 16230" d="M455.877,64.669l9.053-5.97,17.311,45.294-11.028,5.791Z" transform="translate(-455.877 -58.699)" fill="#6e7a94"/>
          <path id="Path_16231" data-name="Path 16231" d="M462.439,77.02a2.431,2.431,0,1,0,2.414-2.141A2.292,2.292,0,0,0,462.439,77.02Z" transform="translate(-442.31 -25.25)" fill="#9fa8b7"/>
        </g>
        <g id="Group_5942" data-name="Group 5942" transform="translate(146.994 112.256)">
          <path id="Path_16232" data-name="Path 16232" d="M480.113,71.025s-1.159,8.6.914,9.5,7.524-2.04,7.524-2.04l.607-5.846" transform="translate(-478.271 -25.62)" fill="none" stroke="#9fa8b7" stroke-width="0.466"/>
          <path id="Path_16233" data-name="Path 16233" d="M488.97,56.773l10.831-.551-8.065,47.813-12.441-.606Z" transform="translate(-479.294 -56.222)" fill="#6e7a94"/>
          <path id="Path_16234" data-name="Path 16234" d="M480.707,73.264a2.432,2.432,0,1,0,3.165-.617A2.288,2.288,0,0,0,480.707,73.264Z" transform="translate(-476.923 -23.034)" fill="#9fa8b7"/>
        </g>
        <path id="Path_16235" data-name="Path 16235" d="M510.879,78.51l-46.915,5.3s-.037,28.164,13.337,32.06C490.751,119.787,522.041,122.928,510.879,78.51Z" transform="translate(-363.993 102.11)" fill="#9fa8b7" opacity="0.4"/>
        <path id="Path_16236" data-name="Path 16236" d="M503.086,101.923l-.577,1.153s-8.641-8.067-12.386-4.322c-2.018,2.015-18.726,18.726,2.592,3.457,0,0-21.318,27.943,4.9,5.187,0,0-16.131,26.213,2.595,4.607,0,0-4.389,25.066,3.524,3.923,0,0,3.6,6.975,6.484,4.668s6.122-10.607,6.122-10.607A97.7,97.7,0,0,0,503.086,101.923Z" transform="translate(-326.72 141.911)" fill="#ffa69c"/>
        <path id="Path_16237" data-name="Path 16237" d="M500.319,139.187l-41.485-15.365,33.06,147.786,14.956-3.287,1.644-4.438Z" transform="translate(-374.599 195.784)" fill="#5e6c84"/>
        <path id="Path_16238" data-name="Path 16238" d="M457.351,43.97s2.61-15.634,8.481-.291" transform="translate(-377.664 16.159)" fill="none" stroke="#3f3838" stroke-width="0.675"/>
        <path id="Path_16239" data-name="Path 16239" d="M465.741,44.846s2.61-15.634,8.481-.291" transform="translate(-360.319 17.97)" fill="none" stroke="#3f3838" stroke-width="0.675"/>
        <path id="Path_16240" data-name="Path 16240" d="M460.01,46.438l23.431-.383s-5.377,9.987-13.827,9.217C458.458,54.26,460.01,46.438,460.01,46.438Z" transform="translate(-372.318 35.015)" fill="#d37f7a"/>
        <path id="Path_16241" data-name="Path 16241" d="M465.594,54.453a17.6,17.6,0,0,1,13.5-5.7,19.5,19.5,0,0,1,2.34.233,23.463,23.463,0,0,0,2.009-2.932l-23.431.383S458.891,52.174,465.594,54.453Z" transform="translate(-372.316 35.015)" fill="#9b5c57"/>
        <path id="Path_16242" data-name="Path 16242" d="M473.611,149.542l25.352-30.729L478.22,151.847Z" transform="translate(-344.05 185.429)" fill="#5e6c84"/>
      </g>
      <g id="Group_5947" data-name="Group 5947" transform="translate(521.74 18.416)">
        <path id="Path_16243" data-name="Path 16243" d="M547.833,230.789c0,7.77-43.768,14.07-97.759,14.07s-97.759-6.3-97.759-14.07,43.768-14.07,97.759-14.07S547.833,223.016,547.833,230.789Z" transform="translate(-344.32 391.541)" fill="#07111e" opacity="0.15"/>
        <g id="Group_5944" data-name="Group 5944" transform="translate(16.83 459.803)">
          <path id="Path_16244" data-name="Path 16244" d="M385.158,209.8l6.914,104.864L355.2,331.954l56.465-3.457L426.642,168.32Z" transform="translate(-355.196 -168.32)" fill="#f4caba"/>
          <path id="Path_16245" data-name="Path 16245" d="M396.656,273.045,406.45,168.32,364.964,209.8l3.88,58.834Q382.734,270.923,396.656,273.045Z" transform="translate(-335.003 -168.319)" fill="#e5b6a8"/>
          <path id="Path_16246" data-name="Path 16246" d="M355.2,224l56.465-3.457-.384,3.073-55.7,2.689Z" transform="translate(-355.196 -60.363)" fill="#8cca85"/>
          <path id="Path_16247" data-name="Path 16247" d="M360.08,224.992l2.689,8.835,23.047-2.3L378.9,216.157Z" transform="translate(-345.1 -69.424)" fill="#8cca85"/>
        </g>
        <g id="Group_5945" data-name="Group 5945" transform="translate(120.925 459.803)">
          <path id="Path_16248" data-name="Path 16248" d="M430.618,209.8,423.7,314.669l36.875,17.285L404.114,328.5,389.133,168.32Z" transform="translate(-389.132 -168.32)" fill="#f4caba"/>
          <path id="Path_16249" data-name="Path 16249" d="M398.93,273.045l-9.8-104.725L430.619,209.8l-3.88,58.834Q412.848,270.923,398.93,273.045Z" transform="translate(-389.133 -168.319)" fill="#e5b6a8"/>
          <path id="Path_16250" data-name="Path 16250" d="M450.483,224l-56.465-3.457.384,3.073,55.7,2.689Z" transform="translate(-379.035 -60.363)" fill="#8cca85"/>
          <path id="Path_16251" data-name="Path 16251" d="M424.887,224.992l-2.689,8.835-23.047-2.3,6.914-15.365Z" transform="translate(-368.421 -69.424)" fill="#8cca85"/>
        </g>
        <path id="Path_16252" data-name="Path 16252" d="M404.085,56.516s19.536,2.994,31.06,18.358,40.719,54.543,40.719,63.764-60.693,50.7-66.07,43.789,33.035-49.166,33.035-49.166S415.94,93.312,404.416,94.078,404.085,56.516,404.085,56.516Z" transform="translate(-247.382 60.349)" fill="#f4caba"/>
        <path id="Path_16253" data-name="Path 16253" d="M418.214,77.4s-51.856,50.7-56.454,109.418c-3.889,49.666,7.4,257.784,7.4,257.784s8.978,9.825,42.5,3.647l19.309-218,14.68,220.623s11.4,11.907,46.912-.261c0,0,30.069-276.673-22.5-340.1Z" transform="translate(-326.481 103.53)" fill="#f5c143"/>
        <path id="Path_16254" data-name="Path 16254" d="M454.763,113.873c-.831-1.175-1.684-2.3-2.561-3.362L400.351,77.4a236.534,236.534,0,0,0-30.765,39.24C384.217,120.327,430.025,125.8,454.763,113.873Z" transform="translate(-308.618 103.53)" fill="#f5c143"/>
        <path id="Path_16255" data-name="Path 16255" d="M441.264,32.324S413.349-.371,385.706,35.072c-11.993,15.376-14.328,43.443-14.272,83.1.031,22.4,38.845,12.846,38.845,12.846S422.109,60.381,441.264,32.324Z" transform="translate(-304.8 -18.088)" fill="#ce7c5b"/>
        <path id="Path_16256" data-name="Path 16256" d="M393.725,43.545a18.7,18.7,0,0,1-16.214-.672C375.664,56,375.14,71.844,375.165,90.328c.031,21.563,37.4,12.364,37.4,12.364s6.852-40.887,18.53-71.849A330.219,330.219,0,0,0,393.725,43.545Z" transform="translate(-297.087 7.275)" fill="#bc6d51"/>
        <path id="Path_16257" data-name="Path 16257" d="M426.417,90.517l2.831-51.589L402.575,60.2,400.41,87.419l-23.324,3.647S368.73,124.485,408,126.157s51.8-25.9,51.8-25.9Z" transform="translate(-294.652 23.989)" fill="#f4caba"/>
        <path id="Path_16258" data-name="Path 16258" d="M386.535,84.3q11.958-1.123,23.94-1.871l2.386-43.5L386.188,60.2l-1.92,24.134Z" transform="translate(-278.265 23.989)" fill="#e5b6a8"/>
        <path id="Path_16259" data-name="Path 16259" d="M433.709,32.659s-42.1-27.44-54.881,15.742c-12.889,43.562,21.634,78.336,58.255,41.449C448.966,77.877,459.478,35.76,433.709,32.659Z" transform="translate(-295.205 -6.739)" fill="#ffd5c2"/>
        <path id="Path_16260" data-name="Path 16260" d="M386.993,37.609s-5.868,8.858-7.978,8.892a7.9,7.9,0,0,0,7.26,5.705" transform="translate(-289.125 21.262)" fill="none" stroke="#d8b0a0" stroke-width="0.751"/>
        <path id="Path_16261" data-name="Path 16261" d="M381.267,44.249l24.931.65S387.7,55.57,381.267,44.249Z" transform="translate(-284.469 34.99)" fill="#fff"/>
        <path id="Path_16262" data-name="Path 16262" d="M384.622,35.987s10.659-8.84,16.916,1.748" transform="translate(-277.533 10.76)" fill="none" stroke="#bc6040" stroke-width="0.675"/>
        <path id="Path_16263" data-name="Path 16263" d="M377.089,35.479s9.276-9.417,14.364.626" transform="translate(-293.106 8.577)" fill="none" stroke="#bc6040" stroke-width="0.751"/>
        <path id="Path_16264" data-name="Path 16264" d="M386.162,39.776c-.433,2.362.313,4.475,1.662,4.721s2.791-1.466,3.224-3.828-.313-4.472-1.659-4.721S386.594,37.414,386.162,39.776Z" transform="translate(-274.604 17.78)" fill="#3f3838"/>
        <path id="Path_16265" data-name="Path 16265" d="M379,38.983c-.433,2.362.31,4.475,1.659,4.724s2.794-1.469,3.227-3.828-.313-4.475-1.662-4.724S379.431,36.624,379,38.983Z" transform="translate(-289.415 16.14)" fill="#3f3838"/>
        <path id="Path_16266" data-name="Path 16266" d="M431.728,110.628c-5.475,3.169-10.159,5.671-15.846,2.015s-5.555-3.5-5.555-3.5-19.088,20.306-2.435-4.469c0,0-30.462,12.183-1.218-3.656,0,0-26,1.626.4-3.656,0,0-21.526-15.027,4.061-2.031l14.824,8.383S422.943,103.782,431.728,110.628Z" transform="translate(-258.177 129.651)" fill="#f4caba"/>
        <path id="Path_16267" data-name="Path 16267" d="M440.532,57.165s-17.082-4.58-32.695,6.607S352.6,103.55,349.831,112.341s42.633,66.61,49.841,61.632-16.72-56.825-16.72-56.825S420.61,87.133,431.37,91.332,440.532,57.165,440.532,57.165Z" transform="translate(-349.709 59.773)" fill="#f4caba"/>
        <path id="Path_16268" data-name="Path 16268" d="M362.616,104.08c8.644,9.22,13.821,12.794,18.892,8.325s4.963-4.3,4.963-4.3,21.934,17.2,1.733-4.782c0,0,31.952,7.444.653-3.8,0,0,25.94-2.316-.954-3.552,0,0,19.011-18.1-4.322-1.393l-9.729,6.337S370.266,95.988,362.616,104.08Z" transform="translate(-323.027 124.387)" fill="#f4caba"/>
        <path id="Path_16269" data-name="Path 16269" d="M383.2,22.272s-4.671,23.075,29.057,33.084C437.473,62.834,407.279,24.729,383.2,22.272Z" transform="translate(-280.921 -10.444)" fill="#ce7c5b"/>
        <path id="Path_16270" data-name="Path 16270" d="M401.6,56.241s-3.435,21.882,18.481,22.275,33.357-23.7,33.357-23.7L470.4,60.956a34.271,34.271,0,0,0-5.389,15.226,55.139,55.139,0,0,0,2.653,22.226c-1.96,25.529-4.46,55.163-5.684,57.7-2.181,4.518-53.279,11.858-93.149-12.8,0,0,1.356-34.7,21.3-85.262Z" transform="translate(-310.18 56.845)" fill="#8cca85"/>
        <path id="Path_16271" data-name="Path 16271" d="M465.009,63.315c.055-.776.181-1.524.3-2.27-19.3,34.3-53.466,53.7-95.161,56.917-1.129,7.984-1.319,12.475-1.319,12.475,39.869,24.658,90.968,17.318,93.149,12.8,1.224-2.534,3.724-32.167,5.684-57.7A55.139,55.139,0,0,1,465.009,63.315Z" transform="translate(-310.18 69.712)" fill="#8cca85"/>
        <path id="Path_16272" data-name="Path 16272" d="M383.452,33.458s35,10.877,28.066,50.356c-5.54,31.511-9.257,41.529-4.607,56.482,0,0,29.452-1.049,31.152-10.144,3.331-17.809-.218-24.345,2.451-58.052,2.307-29.143-5.99-43.47-16.907-49.988S385.93,16.723,383.452,33.458Z" transform="translate(-279.952 -18.416)" fill="#ce7c5b"/>
        <g id="Group_5946" data-name="Group 5946" transform="translate(58.315 278.884)">
          <path id="Path_16273" data-name="Path 16273" d="M413.663,132.382l-44.942-23.045.442,274.624c6.356.607,14.916.4,26.428-1.727l18.7-211.155Z" transform="translate(-368.721 -109.337)" fill="#f5c143"/>
        </g>
      </g>
      <g id="Group_5953" data-name="Group 5953" transform="translate(266.495 32.532)">
        <path id="Path_16274" data-name="Path 16274" d="M276.821,230.789c0,7.77,36.685,14.07,81.937,14.07s81.94-6.3,81.94-14.07-36.685-14.07-81.94-14.07S276.821,223.019,276.821,230.789Z" transform="translate(-245.147 377.425)" fill="#07111e" opacity="0.15"/>
        <path id="Path_16275" data-name="Path 16275" d="M358.1,159.012s-9.217,33.8-13.058,60.69,6.914,46.863-6.147,79.128a312.453,312.453,0,0,0-17.671,63L307.009,367.2a1232.1,1232.1,0,0,1-4.994-126.76c.767-71.444,6.914-99.869,6.914-99.869Z" transform="translate(-193.208 220.009)" fill="#f4caba"/>
        <path id="Path_16276" data-name="Path 16276" d="M302.367,198.461c2.021-40.771,5.69-57.887,5.69-57.887l49.166,18.438s-2.929,10.742-6.171,24.931C334.589,188.136,318.731,194.108,302.367,198.461Z" transform="translate(-192.335 220.009)" fill="#f4caba"/>
        <g id="Group_5950" data-name="Group 5950" transform="translate(112.338 574.697)">
          <path id="Path_16277" data-name="Path 16277" d="M321.434,210.379s-6.079,8.027-18.315,8.19c0,0,.15,14.324,3.132,15.272s35.486,6.7,40.875,1.623S321.434,210.379,321.434,210.379Z" transform="translate(-303.119 -210.379)" fill="#3d3939"/>
          <path id="Path_16278" data-name="Path 16278" d="M317.411,212.96c8.53,6.242,18.042,14.318,14.784,17.321-2.733,2.521-12.165,2.435-21.456,1.58C310.371,225.327,314.009,217.69,317.411,212.96Z" transform="translate(-287.419 -205.043)" fill="#f2f2f2"/>
          <path id="Path_16279" data-name="Path 16279" d="M347.29,219.66a123.427,123.427,0,0,1-43.817-2.233l1.113,4.856s29.3,5.214,42.562.635Z" transform="translate(-302.387 -195.808)" fill="#f2f2f2"/>
          <path id="Path_16280" data-name="Path 16280" d="M314.564,212.065s-4.834,3.187-4.794,7.877" transform="translate(-289.369 -206.893)" fill="none" stroke="#f2f2f2" stroke-linecap="round" stroke-linejoin="round" stroke-width="0.675"/>
          <path id="Path_16281" data-name="Path 16281" d="M313.25,211.033s-4.834,3.184-4.794,7.874" transform="translate(-292.086 -209.027)" fill="none" stroke="#f2f2f2" stroke-linecap="round" stroke-linejoin="round" stroke-width="0.675"/>
          <g id="Group_5949" data-name="Group 5949" transform="translate(1.086 21.619)">
            <g id="Group_5948" data-name="Group 5948" clip-path="url(#clip-path)">
              <path id="Path_16282" data-name="Path 16282" d="M302.948,218.085s34.67,7.457,47.062,1.313" transform="translate(-304.558 -216.067)" fill="none" stroke="#3d3939" stroke-width="0.37"/>
            </g>
          </g>
          <path id="Path_16284" data-name="Path 16284" d="M310.934,217.424a3.281,3.281,0,1,1-3.647-2.868A3.285,3.285,0,0,1,310.934,217.424Z" transform="translate(-300.48 -201.793)" fill="#f2f2f2"/>
        </g>
        <path id="Path_16285" data-name="Path 16285" d="M347.21,100.077l19.882-24.844L355.119,61.828l-4.48-2.177-30.769,40.625,14.781,13.174Z" transform="translate(-156.15 52.715)" fill="#4c4848"/>
        <path id="Path_16286" data-name="Path 16286" d="M348.207,101.427l20.322-26.045L352.8,60.253l-31.935,41.373L335.648,114.8Z" transform="translate(-154.089 53.96)" fill="#6b6363"/>
        <path id="Path_16287" data-name="Path 16287" d="M332.268,71.2s11.141,45.326-1.15,67.6-21.511,0-21.511,0Z" transform="translate(-177.368 76.584)" fill="#ffb3c5"/>
        <path id="Path_16288" data-name="Path 16288" d="M317.864,62.618s14.4,3.46,10.947,36.875-2.687,46.289-2.687,46.289,26.5-37.069,36.3-43.982,5.76,4.034,5.76,4.034-31.882,83.545-49.743,74.327S317.864,62.618,317.864,62.618Z" transform="translate(-175.831 58.849)" fill="#f4caba"/>
        <path id="Path_16289" data-name="Path 16289" d="M317.864,62.618s14.4,3.46,10.947,36.875c-3.092,29.9-2.8,43.314-2.708,45.817-2.57,3.319-6.935,13.082-6.935,17.573l2.813,5.951a16.916,16.916,0,0,0,3.813,10.533l-.006.147c-2.607,1.445-5.092,1.81-7.346.647C300.58,170.941,317.864,62.618,317.864,62.618Z" transform="translate(-175.831 58.849)" fill="#f4caba"/>
        <path id="Path_16290" data-name="Path 16290" d="M346.578,196.95s-.77,39.182-2.307,52.243S321.226,328.32,330.444,384.4l-18.438,19.974s-3.074-9.217-7.681-39.949-30.732-51.47-2.307-115.233c0,0-19.974-47.633-15.364-103.712S346.578,196.95,346.578,196.95Z" transform="translate(-226.246 196.665)" fill="#f4caba"/>
        <path id="Path_16291" data-name="Path 16291" d="M291.227,212.081c-3.782-18.189-6.632-41.544-4.573-66.6,4.61-56.083,59.923,51.47,59.923,51.47s-.172,8.653-.509,19.159Q318.66,213.5,291.227,212.081Z" transform="translate(-226.245 196.665)" fill="#f4caba"/>
        <path id="Path_16292" data-name="Path 16292" d="M311.8,76.658s-13.732-1.8-20.646-.362c-9.1,1.889,1.712-27.821,1.712-27.821l28.054,2.54Z" transform="translate(-223.051 29.61)" fill="#111010"/>
        <path id="Path_16293" data-name="Path 16293" d="M332.209,76.166s-18.03-12.831-27.029-46.547c0,0,35.8-21.619,49.9,22.324a25.124,25.124,0,0,1-1.736,19.416,9.377,9.377,0,0,0,3.058,10.7c6.306,5.448,9.518,14.858,1.356,22.413s6.546,18.818,1.435,26.68c-7.7,11.84-46.424,8.889-58.515-4.748-5.748-6.478,8.042-20,21.306-31.75Z" transform="translate(-198.596 -20.364)" fill="#111010"/>
        <path id="Path_16294" data-name="Path 16294" d="M312.025,95.12l1.469-51.648,24.812,23.416L338.2,94.2l22.94,5.57s8.095,45.709-31.176,44.111-43.022-42.252-43.022-42.252Z" transform="translate(-224.228 19.268)" fill="#f4caba"/>
        <path id="Path_16295" data-name="Path 16295" d="M295.155,91.154l1.356-47.682,24.812,23.416-.1,25.934C312.534,92.1,303.845,91.555,295.155,91.154Z" transform="translate(-207.245 19.268)" fill="#f4caba"/>
        <path id="Path_16296" data-name="Path 16296" d="M315.408,32.313S361.553,17.3,365.516,64.6c2.552,30.468-11.68,49.537-29.32,51.887-13.72,1.828-28.14-6.834-36.446-28.133C281.775,42.273,288.781,27.761,315.408,32.313Z" transform="translate(-218.348 -8.48)" fill="#f4caba"/>
        <path id="Path_16297" data-name="Path 16297" d="M320.312,54.412,302.218,50.02S310.846,66.495,320.312,54.412Z" transform="translate(-192.643 32.804)" fill="#fff"/>
        <path id="Path_16298" data-name="Path 16298" d="M373.519,45.207s1.871,25.128-20.588,27.646S335.7,93.846,335.7,93.846s3.724,9.3-11.171,17.833c-6.868,3.938-1.2,14.99-10.861,18.284-9.6,3.273-35.9-14.861-36.372-31.072s19.836-16.107,19.714-21.7-3.052-19.628,11.674-26.238c13.26-5.954,8.981-19.011,22.1-23.99C336.46,24.81,363.637,12.81,373.519,45.207Z" transform="translate(-244.191 -23.018)" fill="#262424"/>
        <path id="Path_16299" data-name="Path 16299" d="M320.716,45.4s-9.383-11.481-20.392-3.08" transform="translate(-196.559 10.528)" fill="none" stroke="#111010" stroke-width="1.705"/>
        <path id="Path_16300" data-name="Path 16300" d="M322.1,46.733s-5.365-11.65-12.061-3.448" transform="translate(-176.467 12.835)" fill="none" stroke="#111010" stroke-width="1.677"/>
        <path id="Path_16301" data-name="Path 16301" d="M313.206,44.9s2.07,9.769-.006,12.505-6.171.6-6.171.6" transform="translate(-182.7 22.22)" fill="none" stroke="#684949" stroke-width="0.751"/>
        <path id="Path_16302" data-name="Path 16302" d="M312.383,44.154s-3.491,15.465-10.457-.5" transform="translate(-193.245 19.638)" fill="none" stroke="#1e1b1b" stroke-width="0.751"/>
        <path id="Path_16303" data-name="Path 16303" d="M320.1,45.315s-3.494,15.465-10.459-.5" transform="translate(-177.3 22.044)" fill="none" stroke="#1e1b1b" stroke-width="0.751"/>
        <path id="Path_16304" data-name="Path 16304" d="M363.186,61.679s5.184,31.692-24.2,33.418-41.869-33.418-41.869-33.418-7.681.577-12.867,6.052c0,0,12.867,10.466,14.788,36.97,0,0,6.53,40.332,16.518,52.24,11.953,14.251,25.48-36.934,54.16-25.735.9.353,6.4.181,11.91-5.764,14.594-15.748-8.644-37.835-8.644-37.835l-1.153-23.048Z" transform="translate(-229.793 56.907)" fill="#88afb6"/>
        <path id="Path_16305" data-name="Path 16305" d="M394.014,92.287l-4.61,28.425s49.936,33.8,54.543,179c0,0-78.358,28.425-169.779-1.537,0,0,11.907-136.361,59.54-177.847L323.333,78.46Z" transform="translate(-250.634 91.599)" fill="#88afb6"/>
        <path id="Path_16306" data-name="Path 16306" d="M333.98,158.606c26.18,13.321,74.321,36.609,108.427,28.045.7,8.819,1.23,18.082,1.54,27.894,0,0-78.358,28.425-169.779-1.537,0,0,4.07-46.433,16.913-93.351C301.736,135.81,316.018,149.465,333.98,158.606Z" transform="translate(-250.634 176.767)" fill="#77a0a5"/>
        <path id="Path_16307" data-name="Path 16307" d="M291.717,63.839s16.708,14.692,15.269,41.2c-1.825,33.547,6.721,42.062,6.721,42.062s7.107-28.425,16.9-35.339,8.45,11.524,8.45,11.524-5.954,53.006-23.815,43.789c-12.009-6.2-34.575-47.2-34.185-77.591C281.347,67.011,291.717,63.839,291.717,63.839Z" transform="translate(-236.398 61.373)" fill="#f4caba"/>
        <path id="Path_16308" data-name="Path 16308" d="M351.712,59.926s33.8,53.4-27.977,151.44l-30.29,1.558,7.018-66.843S292.04,256,296.251,288.681c0,0-18.364,6.254-19.668-.589-14.742-77.284-13.324-137.023,4.227-178.613S305.377,65.867,351.712,59.926Z" transform="translate(-266.495 53.283)" fill="#ffb3c5"/>
        <path id="Path_16309" data-name="Path 16309" d="M308.1,60.694s13.444,36.875,29.578,45.326c0,0,.761-32.492-10.757-39.179C315.018,59.927,308.1,60.694,308.1,60.694Z" transform="translate(-180.475 54.819)" fill="#ffb3c5"/>
        <path id="Path_16310" data-name="Path 16310" d="M311.167,107.652a42.722,42.722,0,0,0-5.932-29.778c-9.312-14.539-.2,5.472-.2,5.472s-7.27-12.723-9.085-12.5,6.589,14.312,6.589,14.312-7.27-10.9-7.954-9.312S300.717,88.8,300.717,88.8s-4.316-5.908-5.224-3.181,6.359,11.585,4.089,24.309S311.167,107.652,311.167,107.652Z" transform="translate(-208.528 75.861)" fill="#f4caba"/>
        <path id="Path_16311" data-name="Path 16311" d="M331.659,130.781S346.2,121,346.535,120.423c2.819-4.837,25.048-48.537,22.9-49.608-2.4-1.2-6.3,8.095-6.3,8.095s5.1-12.892,2.7-12.594-8.095,13.493-8.095,13.493,3.9-12.294,2.1-11.094-5.7,9.9-5.7,9.9,2.7-7.5.3-6.595-8.279,15.726-8.279,15.726-2.178,4-1.089,6.9c0,0-21.787,27.232-27.959,39.943S331.659,130.781,331.659,130.781Z" transform="translate(-164.207 66.482)" fill="#f4caba"/>
        <path id="Path_16312" data-name="Path 16312" d="M314.932,211.954s-7.779,8.067-21.318,6.628c0,0-1.73,15.843,1.439,17.284s38.317,12.1,44.942,7.2S314.932,211.954,314.932,211.954Z" transform="translate(-211.406 367.574)" fill="#3d3939"/>
        <path id="Path_16313" data-name="Path 16313" d="M310.763,215.309c8.6,8.024,18.039,18.208,14.042,21.094-3.353,2.426-13.76,1.08-23.913-1.092C301.349,228.041,306.379,220.088,310.763,215.309Z" transform="translate(-195.385 374.51)" fill="#f2f2f2"/>
        <path id="Path_16314" data-name="Path 16314" d="M341.219,227.259s-22,1.1-48.111-8.26l.586,5.506s31.682,9.641,46.939,6.337Z" transform="translate(-211.477 382.139)" fill="#f2f2f2"/>
        <path id="Path_16315" data-name="Path 16315" d="M306.771,214.115s-5.76,2.88-6.337,8.064" transform="translate(-196.332 372.042)" fill="none" stroke="#f2f2f2" stroke-linecap="round" stroke-linejoin="round" stroke-width="0.751"/>
        <path id="Path_16316" data-name="Path 16316" d="M305.456,212.8s-5.76,2.88-6.337,8.067" transform="translate(-199.05 369.323)" fill="none" stroke="#f2f2f2" stroke-linecap="round" stroke-linejoin="round" stroke-width="0.751"/>
        <g id="Group_5952" data-name="Group 5952" transform="translate(81.631 601.138)">
          <g id="Group_5951" data-name="Group 5951" clip-path="url(#clip-path-2)">
            <path id="Path_16317" data-name="Path 16317" d="M292.441,219.656s37.314,12.824,51.819,7.674" transform="translate(-294.487 -217.641)" fill="none" stroke="#3d3939" stroke-width="0.411"/>
          </g>
        </g>
        <path id="Path_16319" data-name="Path 16319" d="M301.66,219.7a3.65,3.65,0,1,1-3.65-3.647A3.651,3.651,0,0,1,301.66,219.7Z" transform="translate(-208.889 376.055)" fill="#f2f2f2"/>
        <path id="Path_16320" data-name="Path 16320" d="M276.3,173.195s4.61-64.914,19.2-94.109c0,0,11.524,40.332,33.8,39.949,0,0-12.871,36.682-25.833,52.721Z" transform="translate(-246.233 92.893)" fill="#ffb3c5"/>
      </g>
    </g>
  </g>
</svg>
