<svg xmlns="http://www.w3.org/2000/svg" width="1523.732" height="541.699" viewBox="0 0 1523.732 541.699">
  <g id="Group_5995" data-name="Group 5995" transform="translate(-188.75 -3877.808)">
    <g id="Group_5994" data-name="Group 5994" transform="translate(121.787 3840.642)">
      <path id="Path_16322" data-name="Path 16322" d="M96.509,424.135v56.177H125.8l-10.083-31.85.16-23.207Z" transform="translate(7.044 92.263)" fill="#ff9e83"/>
      <path id="Path_16323" data-name="Path 16323" d="M136.34,420.339l-3.19,20.149-2.855,16.623,22,6.716,27.034,4.534s-1.511-6.045-3.861-8.564-23-14.272-23-14.272l2.351-20.486Z" transform="translate(15.1 91.358)" fill="#ff9e83"/>
      <path id="Path_16324" data-name="Path 16324" d="M89.788,222.221s-3.708,25.186-2.317,63.47S93.4,479.668,93.4,479.668h34.255l8.13-194.834,11.351,74.78-6.155,112.667s20.508,5.205,30.242,4.7c0,0,14.8-90.046,15.722-114.225s-22.435-151.115-22.435-151.115Z" transform="translate(4.815 41.599)" fill="#293149"/>
      <path id="Path_16325" data-name="Path 16325" d="M143.381,109.894s38.662,46.753,45.336,58.507l-11.3,21.244s-26.479-14.951-36.973-39.331C133.554,134.307,143.381,109.894,143.381,109.894Z" transform="translate(16.935 17.34)" fill="#ff6a73"/>
      <path id="Path_16326" data-name="Path 16326" d="M103.969,104.395S77.1,118.5,74.081,122.529s13.433,68.34,21.156,87.145l-9.067,49.2s74.4,24.683,87.742,2.519c0,0,2.836-114.017-4.841-130.3a48.773,48.773,0,0,0-22.454-22.616Z" transform="translate(1.61 16.029)" fill="#ffe5b2"/>
      <path id="Path_16327" data-name="Path 16327" d="M126.913,116.916s10.548,17.373,16.173,58.234,6.483,99.486,6.483,99.486c13.79,5.047,19.863-4.556,19.863-4.556s-.045-92.118-7.691-121.7-15.718-37.726-15.718-37.726-13.828-3.638-18.08-3.965Z" transform="translate(14.293 16.577)" fill="#ff6a73"/>
      <path id="Path_16328" data-name="Path 16328" d="M179.427,98.8s-.939-6.819-2.069-9.246-2.178-3.2-3.051-3.2.524,8.645,1.8,10.719A3.4,3.4,0,0,0,179.427,98.8Z" transform="translate(25.528 11.728)" fill="#ff9e83"/>
      <path id="Path_16329" data-name="Path 16329" d="M183.717,119.826s1.048-9.832,1.048-12.793-10.01-11.784-10.01-11.784-4.146,16.277-3.8,20.9,5.161,9.085,7.954,8.019S183.486,122.063,183.717,119.826Z" transform="translate(24.79 13.848)" fill="#ff9e83"/>
      <path id="Path_16330" data-name="Path 16330" d="M157.916,84.144l2.108,35.579a1.918,1.918,0,0,0,2.5,1.736l17.35-5.717a1.948,1.948,0,0,0,1.319-2.014l-2.784-34.5A1.918,1.918,0,0,0,176,77.506l-16.674,4.64A1.946,1.946,0,0,0,157.916,84.144Z" transform="translate(21.684 9.601)" fill="#293149"/>
      <path id="Path_16331" data-name="Path 16331" d="M125.885,97.54s-1.679,8.061,0,12.594c0,0,4.534,2.687,4.869,5.205s-13.6,3.694-24.179,0-8.4-6.548-8.4-6.548,3.3-14.834,1.175-22.837Z" transform="translate(7.398 11.632)" fill="#ff9e83"/>
      <path id="Path_16332" data-name="Path 16332" d="M142.734,67.823s3.357,18.638,1.846,31.065-22.164,12.929-34.589,6.212S89.673,78.905,94.039,63.29s24.012-17.127,35.6-14.1S142.734,67.823,142.734,67.823Z" transform="translate(6.166 2.563)" fill="#ff9e83"/>
      <path id="Path_16333" data-name="Path 16333" d="M96.859,75.483s-5.709-6.549-9.235-1.342,3,14.925,9.235,16.455,7.724-.671,7.724-.671Z" transform="translate(4.689 8.336)" fill="#ff9e83"/>
      <path id="Path_16334" data-name="Path 16334" d="M120.029,55.4s1.889,5.414,0,10.075-6.3,3.022-6.675,5.667,2.519,5.414,0,7.556-4.91.126-4.408,3.526-1.889,6.926-6.17,5.918c0,0-7.334-7.9-10.593-7.665s-5.969,9.493.739,15S103.783,98.6,103.783,98.6s1.508,5.541.25,9.948c0,0-5.658-2.77-8.306-6.926S86.278,96.581,83.382,88.9,84.767,78.824,82,74.29s-.882-11.334,2.268-12.467c0,0,.5-6.7,5.037-11.345s10.668-2.759,12.826-8.049,11.226-6.675,15.382-3.778,4.534.126,11.083,1.133,8.564,5.038,9.7,7.935,5.944-.63,9.584,5.792-1.524,12.845,1.372,15.994,4.533,5.289,2.9,8.689.63,4.408,1.764,4.408-2.5,4.325-6.538,1.155-3.033-9.593-4.166-13.5-3.4-2.268-4.912-7.178C138.289,63.082,121.036,58.674,120.029,55.4Z" transform="translate(3.264)" fill="#442919"/>
      <path id="Path_16335" data-name="Path 16335" d="M99.33,86.769s6.228,14.239,25.216,13.332" transform="translate(7.717 11.826)" fill="none" stroke="#c16857" stroke-width="1"/>
      <path id="Path_16336" data-name="Path 16336" d="M89.2,75.244s6.3,3.023,8.4,9.571" transform="translate(5.301 9.079)" fill="none" stroke="#c16857" stroke-width="1"/>
      <path id="Path_16337" data-name="Path 16337" d="M92.061,82.775s-.608-3.5,1.248-4.606" transform="translate(5.961 9.776)" fill="none" stroke="#c16857" stroke-width="1"/>
      <path id="Path_16338" data-name="Path 16338" d="M121.913,68.557s6.38,11.166,7.473,13.433-3.274,3.946-3.274,3.946" transform="translate(13.101 7.484)" fill="none" stroke="#c16857" stroke-width="1"/>
      <path id="Path_16339" data-name="Path 16339" d="M109.194,68.378a5.778,5.778,0,0,1,3.694-3.274,4.419,4.419,0,0,1,4.281,1.126Z" transform="translate(10.069 6.625)" fill="#442919"/>
      <path id="Path_16340" data-name="Path 16340" d="M124.176,66.616a5.779,5.779,0,0,1,3.694-3.274,4.416,4.416,0,0,1,4.281,1.124Z" transform="translate(13.641 6.205)" fill="#442919"/>
      <path id="Path_16341" data-name="Path 16341" d="M118.079,74.856c0,1.506-.715,2.726-1.6,2.726s-1.6-1.22-1.6-2.726.715-2.726,1.6-2.726S118.079,73.35,118.079,74.856Z" transform="translate(11.426 8.336)" fill="#442919"/>
      <path id="Path_16342" data-name="Path 16342" d="M130.586,73.262c0,1.506-.713,2.727-1.6,2.727s-1.6-1.221-1.6-2.727.715-2.726,1.6-2.726S130.586,71.756,130.586,73.262Z" transform="translate(14.409 7.956)" fill="#442919"/>
      <path id="Path_16343" data-name="Path 16343" d="M118.346,87.476a11.142,11.142,0,0,0,9.066.384" transform="translate(12.251 11.995)" fill="none" stroke="#c16857" stroke-width="1"/>
      <path id="Path_16344" data-name="Path 16344" d="M91.742,231.473S88.657,299.1,93.372,330l-1.31,2.619,1.31,2.1-1.31,5.239s1.048,6.809,1.31,13.619,2.1,108.69,2.1,122.57" transform="translate(5.671 46.327)" fill="none" stroke="#404a63" stroke-width="1"/>
      <path id="Path_16345" data-name="Path 16345" d="M184.356,105.221a32.249,32.249,0,0,0-1.513-4.679c-.815-1.776-8.73-3.73-10.01-2.546s4.6,3.968,4.6,3.968S184.414,110.787,184.356,105.221Z" transform="translate(25.198 14.417)" fill="#ff9e83"/>
      <path id="Path_16346" data-name="Path 16346" d="M142.344,109.894s20.212,35.123,20.195,69.825" transform="translate(17.973 17.34)" fill="none" stroke="#8e434c" stroke-width="1"/>
      <path id="Path_16347" data-name="Path 16347" d="M182.537,101.478s-1.572-4.975-2.91-6.692-8.379-2.369-8.845-1.3,5.878,3.739,5.878,3.739l.931,2.835Z" transform="translate(24.747 13.304)" fill="#ff9e83"/>
      <path id="Path_16348" data-name="Path 16348" d="M182.376,104.106s-5.878-2.073-7.8-1.422.342,2.9,3.634,4.087c0,0,.149,6.81,2.36,7.58S183.482,106.89,182.376,104.106Z" transform="translate(25.49 15.591)" fill="#ff9e83"/>
      <path id="Path_16349" data-name="Path 16349" d="M129.077,114.344s5.541,15.815,9.738,46.374-5.526,115.432-5.526,115.432c-20.637,12.97-52.73-4.539-52.73-4.539l4.357-82.685s-16.791-54.249-14.1-63.728c0,0,18.931-14.851,29.735-19C100.547,106.2,117.856,115.809,129.077,114.344Z" transform="translate(0.848 16.459)" fill="#ff6a73"/>
      <path id="Path_16350" data-name="Path 16350" d="M100.244,98.17s10.963,13.692,23.053,18.088c0,0-3.359.367-7.053,4.228s-4.386,6.627-4.386,6.627l-17.091-19Z" transform="translate(6.629 14.545)" fill="#c64e59"/>
      <path id="Path_16351" data-name="Path 16351" d="M71.66,121.541s8.761,1.937,19.66,10.669,54.472,49.365,54.472,49.365l-13.53,18.807S97.4,184.735,80.67,167.875,64.607,129.677,71.66,121.541Z" transform="translate(0 20.117)" fill="#ff6a73"/>
      <path id="Path_16352" data-name="Path 16352" d="M119.939,100.42s12.818,8.28,15.672,10.632,3.694,7.36,3.694,7.36-4.7-2.888-7.388-2.69a3.756,3.756,0,0,0-3.326,2.69s-2.878-7.837-8.083-11.7C120.507,106.712,119.646,102.392,119.939,100.42Z" transform="translate(12.616 15.081)" fill="#c64e59"/>
      <path id="Path_16353" data-name="Path 16353" d="M174.317,113.614s-8.986,47.52-8.65,58.769,3.022,15.784,6.549,17.463,11.671-4.03,12.636-14.44,0-59.311,0-59.311Z" transform="translate(23.531 18.227)" fill="#ff9e83"/>
      <path id="Path_16354" data-name="Path 16354" d="M126.959,479.6a23.029,23.029,0,0,1-11.283,2.926c-5.383.094-13.822-1.7-17.373-2.528a2.2,2.2,0,0,1-1.715-2.092l-.165-6.923-.435-17.631.6-9.367a4.863,4.863,0,0,1,4.924,2.892l1.329-5.642H113.4l1.081,4.679a10.23,10.23,0,0,1,1.445-2.881l1.657,6.841s6.465,15.727,8.346,21a21.944,21.944,0,0,1,.811,2.868A14.231,14.231,0,0,1,126.959,479.6Z" transform="translate(6.92 96.339)" fill="#293149"/>
      <path id="Path_16355" data-name="Path 16355" d="M133.105,438.282a24.563,24.563,0,0,1,6.964,1.266,44.741,44.741,0,0,1,4.664,1.827l2.268-4.6,9.319,1.259v5.288s16.371,8.69,19.9,11.712,4.155,11.083,3.9,12.971c0,0-3.4.5-14.735-1.385s-22.542-4.912-22.542-4.912l-13.6-3.9.755-4.03S131.048,440.92,133.105,438.282Z" transform="translate(14.849 95.277)" fill="#293149"/>
      <path id="Path_16356" data-name="Path 16356" d="M126.875,473.869a23.029,23.029,0,0,1-11.283,2.926c-5.383.094-13.822-1.7-17.373-2.528a2.2,2.2,0,0,1-1.715-2.092l-.165-6.923a8.616,8.616,0,0,0,4.607,3.655c6.276,2.375,20.311,2.057,25.706-.893A14.231,14.231,0,0,1,126.875,473.869Z" transform="translate(7.004 102.066)" fill="#9aa7c1"/>
      <path id="Path_16357" data-name="Path 16357" d="M96.666,467.279a20.184,20.184,0,0,1,13.017-7.545c8.753-1.321,13.89,1.081,13.89,1.081s2.588,4.695,3,8.609c0,0-1.652,2.021-11.161,2.525S98.382,470.541,96.666,467.279Z" transform="translate(7.082 100.656)" fill="#b4bed6"/>
      <path id="Path_16358" data-name="Path 16358" d="M103.008,448.708a20.76,20.76,0,0,1,9.886-.567" transform="translate(8.594 97.893)" fill="none" stroke="#b4bed6" stroke-width="1"/>
      <path id="Path_16359" data-name="Path 16359" d="M103.618,451.612a20.763,20.763,0,0,1,9.886-.567" transform="translate(8.739 98.586)" fill="none" stroke="#b4bed6" stroke-width="1"/>
      <path id="Path_16360" data-name="Path 16360" d="M104.343,454.1a20.765,20.765,0,0,1,9.885-.566" transform="translate(8.912 99.18)" fill="none" stroke="#b4bed6" stroke-width="1"/>
      <path id="Path_16361" data-name="Path 16361" d="M104.753,456.846a20.761,20.761,0,0,1,9.886-.567" transform="translate(9.01 99.834)" fill="none" stroke="#b4bed6" stroke-width="1"/>
      <path id="Path_16362" data-name="Path 16362" d="M130.656,450.032a165.4,165.4,0,0,0,23,6.633,170.327,170.327,0,0,0,26.318,3.672s.982,3.884.3,6.15-27.125-3.022-38.586-6.17-12.341-3.274-12.845-4.03S130.656,450.032,130.656,450.032Z" transform="translate(14.738 98.437)" fill="#9aa7c1"/>
      <path id="Path_16363" data-name="Path 16363" d="M152.4,458.014s6.289-9.068,11.917-9.864c0,0,5.817,1.848,8.273,5.248a10.651,10.651,0,0,1,1.761,7.387S158.213,460.3,152.4,458.014Z" transform="translate(20.369 97.988)" fill="#b4bed6"/>
      <path id="Path_16364" data-name="Path 16364" d="M152.44,442.066a12.651,12.651,0,0,0-6.926,2.645" transform="translate(18.728 96.538)" fill="none" stroke="#b4bed6" stroke-width="1"/>
      <path id="Path_16365" data-name="Path 16365" d="M155.237,443.459a12.647,12.647,0,0,0-6.927,2.644" transform="translate(19.395 96.87)" fill="none" stroke="#b4bed6" stroke-width="1"/>
      <path id="Path_16366" data-name="Path 16366" d="M157.281,444.817a12.653,12.653,0,0,0-6.925,2.644" transform="translate(19.883 97.194)" fill="none" stroke="#b4bed6" stroke-width="1"/>
      <path id="Path_16367" data-name="Path 16367" d="M160.078,446.015a12.646,12.646,0,0,0-6.926,2.644" transform="translate(20.549 97.479)" fill="none" stroke="#b4bed6" stroke-width="1"/>
      <path id="Path_16368" data-name="Path 16368" d="M126.42,274.6s1.4-12.434,3.495-15.053,7.333-4.976,7.333-4.976" transform="translate(14.176 51.834)" fill="none" stroke="#404a63" stroke-width="1"/>
      <path id="Path_16369" data-name="Path 16369" d="M130.792,270.743l11.176,70.24v3.465l1.745,3.17s-9.131,95.528-8.236,113.089" transform="translate(15.218 55.69)" fill="none" stroke="#404a63" stroke-width="1"/>
      <path id="Path_16370" data-name="Path 16370" d="M92.1,423.221l-.245,7.209s10.752,4.452,20.407,4.06,14.644-3.143,14.644-3.143v-7.6a47.988,47.988,0,0,1-17.431,2.488A65.223,65.223,0,0,1,92.1,423.221Z" transform="translate(5.935 92.045)" fill="#404a63"/>
      <path id="Path_16371" data-name="Path 16371" d="M129.921,419.843s3.274,2.409,14.732,4.183,17.613.334,17.613.334v6.548s-7.857,1.7-19.577-.394-13.553-3.207-13.553-3.207Z" transform="translate(14.823 91.239)" fill="#404a63"/>
      <path id="Path_16372" data-name="Path 16372" d="M132.846,171.072s-38.139-43.321-57.058-47.689" transform="translate(2.104 20.556)" fill="none" stroke="#8e434c" stroke-width="1"/>
      <path id="Path_16373" data-name="Path 16373" d="M78.031,158.955s31.733,26.918,51.593,32.506" transform="translate(2.639 29.037)" fill="none" stroke="#8e434c" stroke-width="1"/>
      <path id="Path_16374" data-name="Path 16374" d="M121.222,159.884s-11.9,10.482-6.583,28.951" transform="translate(11.041 29.259)" fill="none" stroke="#8e434c" stroke-width="1"/>
      <line id="Line_379" data-name="Line 379" x2="9.952" y2="4.974" transform="translate(88.828 210.026)" fill="none" stroke="#8e434c" stroke-width="1"/>
      <circle id="Ellipse_542" data-name="Ellipse 542" cx="1.334" cy="1.334" r="1.334" transform="translate(128.9 141.657)" fill="#8e434c"/>
      <path id="Path_16375" data-name="Path 16375" d="M157.916,84.149l2.114,35.579a1.91,1.91,0,0,0,2.126,1.809L160.213,83.88l18.04-5.268a1.885,1.885,0,0,0-2.249-1.1l-16.683,4.632A1.962,1.962,0,0,0,157.916,84.149Z" transform="translate(21.685 9.602)" fill="#424c66"/>
      <path id="Path_16376" data-name="Path 16376" d="M173.39,81.4l.634,10.132-3.15,1.266-.6-10.345Z" transform="translate(24.632 10.546)" fill="#424c66"/>
      <path id="Path_16377" data-name="Path 16377" d="M170.866,83.486c-.051.78.342,1.442.877,1.476s1.011-.57,1.061-1.351-.343-1.442-.878-1.476S170.917,82.7,170.866,83.486Z" transform="translate(24.772 10.721)" fill="#293149"/>
      <path id="Path_16378" data-name="Path 16378" d="M170.979,86.11c-.051.78.343,1.442.878,1.476s1.009-.57,1.06-1.351-.342-1.442-.878-1.476S171.03,85.329,170.979,86.11Z" transform="translate(24.799 11.347)" fill="#293149"/>
      <path id="Path_16379" data-name="Path 16379" d="M171.2,88.7c-.051.78.342,1.442.877,1.476s1.011-.57,1.061-1.351-.343-1.442-.878-1.476S171.25,87.918,171.2,88.7Z" transform="translate(24.851 11.964)" fill="#293149"/>
      <path id="Path_16380" data-name="Path 16380" d="M123.451,141.273a1.333,1.333,0,1,1-1.334-1.334A1.333,1.333,0,0,1,123.451,141.273Z" transform="translate(12.832 24.503)" fill="#8e434c"/>
      <circle id="Ellipse_543" data-name="Ellipse 543" cx="1.334" cy="1.334" r="1.334" transform="translate(136.284 186.476)" fill="#8e434c"/>
      <path id="Path_16381" data-name="Path 16381" d="M124.529,193.042a1.334,1.334,0,1,1-1.334-1.333A1.333,1.333,0,0,1,124.529,193.042Z" transform="translate(13.089 36.847)" fill="#8e434c"/>
      <path id="Path_16382" data-name="Path 16382" d="M123.361,206.718a1.333,1.333,0,1,1-1.333-1.333A1.333,1.333,0,0,1,123.361,206.718Z" transform="translate(12.811 40.107)" fill="#8e434c"/>
      <circle id="Ellipse_544" data-name="Ellipse 544" cx="1.334" cy="1.334" r="1.334" transform="translate(131.323 263.912)" fill="#8e434c"/>
      <path id="Path_16383" data-name="Path 16383" d="M119.838,236.467a1.334,1.334,0,1,1-1.334-1.334A1.334,1.334,0,0,1,119.838,236.467Z" transform="translate(11.97 47.2)" fill="#8e434c"/>
      <path id="Path_16384" data-name="Path 16384" d="M151.627,115.082s4.323-14.831,5.62-16.878,11.457-5.38,13.293-4.071-9.457,6.19-9.457,6.19l.1,1.548s9.68-6.19,12.165-4.524-9.619,8.451-9.619,8.451l.649,1.548s8.43-5.833,11.023-4.642-8,7.5-8,7.5l.649,1.309s6.439-5,7.759-3.69-6.245,7.857-6.245,7.857-3.013,10.977-5.771,13.926c-4.521,4.835-11.058,6.384-12.894,4S150.095,120.194,151.627,115.082Z" transform="translate(19.779 13.512)" fill="#ff9e83"/>
      <path id="Path_16385" data-name="Path 16385" d="M158.737,114.948s-36.992,58.461-40.182,66.185,1.666,20.82,1.666,20.82,14.118-.336,25.116-17.127,23.8-58.7,23.8-58.7Z" transform="translate(12.042 18.545)" fill="#ff9e83"/>
      <line id="Line_380" data-name="Line 380" x2="5.62" y2="6.694" transform="translate(170.414 136.297)" fill="none" stroke="#c16857" stroke-width="1"/>
      <path id="Path_16386" data-name="Path 16386" d="M176.854,106.2s-2.038,11.178.815,15.355" transform="translate(26.032 16.459)" fill="none" stroke="#c16857" stroke-width="1"/>
      <path id="Path_16387" data-name="Path 16387" d="M176.762,102.726a15.867,15.867,0,0,1,4.343,1.144" transform="translate(26.179 15.631)" fill="none" stroke="#c16857" stroke-width="1"/>
      <path id="Path_16388" data-name="Path 16388" d="M181.688,100.078a11.85,11.85,0,0,0-5.476-2.194" transform="translate(26.048 14.477)" fill="none" stroke="#c16857" stroke-width="1"/>
      <path id="Path_16389" data-name="Path 16389" d="M178.059,94.275a9.927,9.927,0,0,0-2.829-1.02" transform="translate(25.813 13.373)" fill="none" stroke="#c16857" stroke-width="1"/>
    </g>
    <g id="Group_5993" data-name="Group 5993" transform="translate(1343.596 3825.01)">
      <path id="Path_16390" data-name="Path 16390" d="M259.339,100.814s.376,10.815-1.6,16.726a14.856,14.856,0,0,0,5.3,2.345l1.646-2.345v3.716s5.505-.034,8.1.189,1.735-10.877,1.735-10.877Z" transform="translate(8.638 14.284)" fill="#293149"/>
      <path id="Path_16391" data-name="Path 16391" d="M306.021,415.287l3.567,24.147-1.784,29.36h23.186l-6.037-30.183.274-21.128Z" transform="translate(23.001 107.834)" fill="#ff9e83"/>
      <path id="Path_16392" data-name="Path 16392" d="M264.934,412.749l1.1,30.046L248.59,461.317l11.4,6.585,24.7-9.6-2.47-15.5,2.47-30.046Z" transform="translate(5.916 107.079)" fill="#ff9e83"/>
      <path id="Path_16393" data-name="Path 16393" d="M254.921,449.193s-16.725,11.461-18.645,15.029,11,5.213,21.036,3.841,22.318-6.219,22.318-6.219,7.682-.824,8.78-3.293-.759-14.366-.759-14.366-13.921,7.643-22.565,8.466S254.921,449.193,254.921,449.193Z" transform="translate(2.196 116.431)" fill="#293149"/>
      <path id="Path_16394" data-name="Path 16394" d="M308.575,445.215s-1.714,4.661,3.5,8.365,11.113,3.156,13.857,1.234,2-9.6,2-9.6,3.484,10.834,4.994,18.243-5.077,13.857-8.37,14.268-11.936-3.018-15.229-6.311S305.215,456.743,308.575,445.215Z" transform="translate(23.121 116.737)" fill="#293149"/>
      <path id="Path_16395" data-name="Path 16395" d="M335.651,469.659H312.422L296.314,367.551c-4.367-18.618-9.272-57.481-12.512-85.73-2.164-18.977-3.585-33.152-3.585-33.152s40.976-19.745,46.764,0c1.294,4.4,2.114,12.318,2.612,21.986,1.767,33.69-.345,88.509-.345,88.509C339.491,389.883,335.651,469.659,335.651,469.659Z" transform="translate(15.325 55.658)" fill="#6372b4"/>
      <path id="Path_16396" data-name="Path 16396" d="M284.7,463.5h-24l-8.388-105.372c-1.191-15.405-2.6-63-3.29-88.418-.269-9.874-.436-16.4-.436-16.4s40.491-2.189,41.041,16.468c.064,2.088.039,4.827-.039,8.042-.679,25.431-5.442,80.581-5.442,80.581a204.057,204.057,0,0,1,5.481,33.2C290.728,408.07,284.7,463.5,284.7,463.5Z" transform="translate(5.915 59.624)" fill="#6372b4"/>
      <path id="Path_16397" data-name="Path 16397" d="M252.818,127.452,276.3,113.529l26.5-1.107s25.793,4.489,32.379,10.582-15.915,81.552-15.915,81.552,10.975,23.872,12.622,41.8c0,0-31.849,9.147-54.981,6.952s-28.132-6.952-28.132-6.952l7.2-46.852s-5.98-34.734-7.2-49S252.818,127.452,252.818,127.452Z" transform="translate(5.916 17.737)" fill="#ff9e83"/>
      <path id="Path_16398" data-name="Path 16398" d="M289.627,269.775c.064,2.088.039,4.827-.039,8.042-22-.859-37.787-6.966-40.566-8.105-.269-9.874-.436-16.4-.436-16.4S289.077,251.118,289.627,269.775Z" transform="translate(5.915 59.624)" fill="#5263a0"/>
      <path id="Path_16399" data-name="Path 16399" d="M329.593,270.655c-9.245,3.8-28.542,10.846-45.791,11.166-2.164-18.977-3.585-33.152-3.585-33.152s40.976-19.745,46.764,0C328.275,253.074,329.095,260.987,329.593,270.655Z" transform="translate(15.325 55.658)" fill="#5263a0"/>
      <path id="Path_16400" data-name="Path 16400" d="M269.961,107.481s2.478,3.444-1.157,18.477c-.564,2.338,5.66,2.932,15.668-.562s10.519-6.542,10.519-6.542-8.7-15.2-6.7-22.77Z" transform="translate(11.919 12.877)" fill="#ff9e83"/>
      <path id="Path_16401" data-name="Path 16401" d="M252.033,87.045s2.527,19.39,7.724,30.033c6.317,12.937,20.787,5.875,30.71-3.078s12.827-28.624,5.324-42.006-25.9-10.381-35.881-5.013S252.033,87.045,252.033,87.045Z" transform="translate(6.886 2.867)" fill="#ff9e83"/>
      <path id="Path_16402" data-name="Path 16402" d="M286.537,83.387s3.661-7.8,8.165-3.4.859,15.553-4.5,18.471-7.265,1.056-7.265,1.056Z" transform="translate(16.133 7.687)" fill="#ff9e83"/>
      <path id="Path_16403" data-name="Path 16403" d="M252.961,89.912a16.187,16.187,0,0,0,10.734-3.588c4.326-3.637,4.213-6.345,4.213-6.345s2.107,5.422-2.6,9.046c0,0,3.769.494,6.567-4.09s1.116-7.187,1.116-7.187A25.063,25.063,0,0,0,283.025,87.91c5.987,3.255,9.045,1.983,9.045,1.983s.743,9.665-.991,12.514c0,0,3.019-.123,4.545-4.088s1.031-8.491,3.014-9.913,5.2-2.355,7.187,3.222-4.09,14.126-7.93,14.992-4.283,7.934-4.283,7.934a78.1,78.1,0,0,0,3.044,8.144c1.964,4.5,4.3,9.033,4.3,9.033s6.484.662,10.2-1.569c0,0-2.107-3.955-2.107-5.634,0,0,2.107,4.518,4.337,5.509s6.2,1.364,7.682.125l6.757-1.591s-9.681-24.059-10.8-35.334-4.457-21.251-8.918-24.1c0,0-5.352-12.8-23.186-15.777S259.2,59.8,252.777,68.724s-3.454,23.205-2.71,26.71,4.936,6.11,4.936,6.11Z" transform="translate(5.958)" fill="#293149"/>
      <path id="Path_16404" data-name="Path 16404" d="M366.039,186.449a69.439,69.439,0,0,0-.066-18.492c-1.464-8.963-10.975-16.1-12.8-25.427s-2.012-16.464-10.866-21.4-20.477-6.509-20.477-6.509-10,16.57-30.67,16.753-17.112-13.65-17.112-13.65c-5.771.62-11.8,6.6-16.42,7.7s-10.371,13.447-12.566,27.35-4.1,27.622-4.1,27.622c-3.842,6.952-16.378,28.77-10.891,36.819s27.495-2.149,27.495-2.149l-3.058,23.3s-8.1,19.685-6.432,59.2c0,0,9.055,9.552,37.044,12.779s67.227-13.19,67.227-13.19-2.531-36.359-14.288-59.5a27.4,27.4,0,0,0-2.01-8.749c.323.406,1.735,1.277,7.9,1.521,4.208.166,11.432-3.1,14.161-6.3,3.082-3.624,8.77-11.62,10.061-16.647C370.61,197.958,366.039,186.449,366.039,186.449Z" transform="translate(0 18.391)" fill="#9cb2ff"/>
      <path id="Path_16405" data-name="Path 16405" d="M271.034,112.325s12.357-5.1,14.777-11.93" transform="translate(12.593 14.159)" fill="none" stroke="#c16857" stroke-width="1"/>
      <path id="Path_16406" data-name="Path 16406" d="M309.155,198.195s-2.743-3.383,0-10.594-3.192-30.535-2.556-44.53,9.684-20.692,12.431-20.086" transform="translate(23.159 20.868)" fill="none" stroke="#7491e2" stroke-width="1"/>
      <path id="Path_16407" data-name="Path 16407" d="M254.746,128.518s-6.529,26.615-6.009,34.573,2.934,20.306,2.934,20.306l.056,16.758" transform="translate(5.952 22.525)" fill="none" stroke="#7491e2" stroke-width="1"/>
      <path id="Path_16408" data-name="Path 16408" d="M265.7,130.594s3,3.841,17.1,2.743,29.187-11.8,29.187-11.8" transform="translate(11.005 20.449)" fill="none" stroke="#7491e2" stroke-width="1"/>
      <path id="Path_16409" data-name="Path 16409" d="M275.523,192.683h-.039l-21.333-.051a2.3,2.3,0,0,1-2.2-1.755l-9.45-39.362c0-.026-.013-.039-.013-.065a2.24,2.24,0,0,1,2.075-2.727l20.219-.908a2.28,2.28,0,0,1,2.293,1.7l10.59,40.323A2.244,2.244,0,0,1,275.523,192.683Z" transform="translate(4.085 28.265)" fill="#293149"/>
      <path id="Path_16410" data-name="Path 16410" d="M275.523,192.683h-.039L264.51,150.132l-22.025,1.318a2.24,2.24,0,0,1,2.075-2.727l20.219-.908a2.28,2.28,0,0,1,2.293,1.7l10.59,40.323A2.244,2.244,0,0,1,275.523,192.683Z" transform="translate(4.085 28.265)" fill="#424d68"/>
      <path id="Path_16411" data-name="Path 16411" d="M312.413,204.312s-11.8-.823-18.658,0" transform="translate(19.352 44.964)" fill="none" stroke="#7491e2" stroke-width="1"/>
      <path id="Path_16412" data-name="Path 16412" d="M265.373,172.78c-.82-1.034-3.361-.388-5.321.326s-6.516,2.537-6.516,2.537l3-2.59s7.781-3.329,6.858-4.492-3.218-.606-6.765.628a15.774,15.774,0,0,0-5.4,3.018l-.807-1.15c2.167-.455,9.769-7.328,7.8-7.555s-10.42,2.791-11.31,6.446a35.845,35.845,0,0,0-.463,9.1A18.63,18.63,0,0,0,247.8,182.8l-.025-.022-11.2,11.034s0,.095,0,.259c-2.182,2.076-5.4,4.907-6.773,4.972,0,0-1.781,10.957,8.645,16.171,3.624,1.813,6.285.343,8.2-2.5,5.545-6.1,11.946-20.875,11.946-20.875,1.961-.714.44-9.93.44-9.93s7.433-3.371,5.17-4.1-6.664.759-6.664.759S266.193,173.814,265.373,172.78Z" transform="translate(0.293 32.929)" fill="#ff9e83"/>
      <path id="Path_16413" data-name="Path 16413" d="M328.406,190.675c-3.9-3.094-33.9-7.846-40.82-8.909-1.427-2.088-4.5-6.5-5.689-7.532a64.631,64.631,0,0,0-6.966-4.6c-1.815-1.1-1.134,2.882.858,4.117s2.747,1.707,2.747,1.707l.766,1.8c-.453-.175-.913-.343-1.387-.493a44.721,44.721,0,0,0-6.151-1.549h0s-9.828-4.143-10.926-3.018,2.607,3.333,4.939,4.775a30.424,30.424,0,0,0,4.3,2.038l.21.788-3.955-.563s-3.673-3.567-5.182-3.773.823,3.773.823,3.773a9.273,9.273,0,0,0,3.979,3.493,22.074,22.074,0,0,0,5.368.947l.091.341-4.7-.075s-4.09-3.08-5.613-3.1,1.288,3.641,1.288,3.641a10.16,10.16,0,0,0,1.349,1.336c.027.876,1.561,2.875,1.561,2.875a8.357,8.357,0,0,0,3.951,2.675,20.753,20.753,0,0,0,5.12.234l13,1.949c8.144,4.315,37.334,16.888,42.951,16.988C337.275,210.674,334.625,195.614,328.406,190.675Zm-59.218-2.463s-.274-.205-.694-.5a33.722,33.722,0,0,0,3.9.01l.144.545Z" transform="translate(9.5 34.701)" fill="#ff9e83"/>
      <path id="Path_16414" data-name="Path 16414" d="M264.376,86.908s-2.9,8.61-3.517,10.983,3.876,3.154,3.876,3.154" transform="translate(9.549 10.147)" fill="none" stroke="#c16857" stroke-width="1"/>
      <path id="Path_16415" data-name="Path 16415" d="M276.841,83.31a5.631,5.631,0,0,0-4.149-2.433,4.3,4.3,0,0,0-3.881,1.884Z" transform="translate(11.932 8.351)" fill="#00404a"/>
      <path id="Path_16416" data-name="Path 16416" d="M263.136,82.165a5.626,5.626,0,0,0-4.668-1.159,4.307,4.307,0,0,0-3.188,2.906Z" transform="translate(7.907 8.351)" fill="#00404a"/>
      <path id="Path_16417" data-name="Path 16417" d="M269.516,89.527c.284,1.439,1.2,2.472,2.038,2.306s1.295-1.469,1.011-2.908-1.2-2.472-2.04-2.306S269.232,88.088,269.516,89.527Z" transform="translate(12.116 10.056)" fill="#00404a"/>
      <path id="Path_16418" data-name="Path 16418" d="M257.815,90.326c.284,1.439,1.2,2.47,2.04,2.3s1.295-1.467,1.011-2.906-1.2-2.472-2.04-2.306S257.531,88.885,257.815,90.326Z" transform="translate(8.636 10.294)" fill="#00404a"/>
      <path id="Path_16419" data-name="Path 16419" d="M271.6,101.229a9.061,9.061,0,0,1-7.173,1.732" transform="translate(10.627 14.407)" fill="none" stroke="#c16857" stroke-width="1"/>
      <path id="Path_16420" data-name="Path 16420" d="M256.04,86.908a12.5,12.5,0,0,0,4.409,1.1,2.507,2.507,0,0,1-2.123.8A3.08,3.08,0,0,1,256.04,86.908Z" transform="translate(8.133 10.147)" fill="#00404a"/>
      <path id="Path_16421" data-name="Path 16421" d="M267.637,85.921a12.489,12.489,0,0,0,4.408,1.1,2.505,2.505,0,0,1-2.123.8A3.078,3.078,0,0,1,267.637,85.921Z" transform="translate(11.583 9.853)" fill="#00404a"/>
      <path id="Path_16422" data-name="Path 16422" d="M252.823,68.7s1.99-4.389,18.179-2.607,26.273,15.779,26.273,15.779S294.5,68.242,278.753,61.839,253.167,62.663,252.823,68.7Z" transform="translate(7.176 1.946)" fill="#9cb2ff"/>
      <path id="Path_16423" data-name="Path 16423" d="M248.586,254.83s12.226,9.6,41.041,7.957S337.1,251.812,337.1,251.812" transform="translate(5.915 59.203)" fill="none" stroke="#7491e2" stroke-width="1"/>
      <path id="Path_16424" data-name="Path 16424" d="M294.389,334.435s3.174,4.081,9.682,3.481a19.047,19.047,0,0,0,10.075-3.656" transform="translate(19.541 83.73)" fill="none" stroke="#5263a0" stroke-width="1"/>
      <path id="Path_16425" data-name="Path 16425" d="M252.727,337.078a13.4,13.4,0,0,0,13.171,0" transform="translate(7.147 84.568)" fill="none" stroke="#5263a0" stroke-width="1"/>
      <path id="Path_16426" data-name="Path 16426" d="M253.516,153.566l1.492,5.6a.608.608,0,0,0,.6.453l4.888-.1a.611.611,0,0,0,.584-.738l-1.244-5.778a.609.609,0,0,0-.629-.48l-5.137.275A.608.608,0,0,0,253.516,153.566Z" transform="translate(7.376 29.667)" fill="#424d68"/>
      <path id="Path_16427" data-name="Path 16427" d="M256.46,154.363a1.109,1.109,0,1,1-1.387-1.064A1.255,1.255,0,0,1,256.46,154.363Z" transform="translate(7.621 29.889)" fill="#293149"/>
      <path id="Path_16428" data-name="Path 16428" d="M258.575,154.124a1.109,1.109,0,1,1-1.387-1.064A1.255,1.255,0,0,1,258.575,154.124Z" transform="translate(8.25 29.818)" fill="#293149"/>
      <path id="Path_16429" data-name="Path 16429" d="M257.153,156.731a1.109,1.109,0,1,1-1.387-1.063A1.255,1.255,0,0,1,257.153,156.731Z" transform="translate(7.827 30.594)" fill="#293149"/>
      <line id="Line_381" data-name="Line 381" x1="1.463" y2="6.585" transform="translate(295.205 219.836)" fill="none" stroke="#c16857" stroke-width="1"/>
      <path id="Path_16430" data-name="Path 16430" d="M312.49,185.288s11.113,12.238,4.117,20.551" transform="translate(24.926 39.413)" fill="none" stroke="#c16857" stroke-width="1"/>
      <line id="Line_382" data-name="Line 382" x2="5.493" y2="8.312" transform="translate(248.096 215.731)" fill="none" stroke="#c16857" stroke-width="1"/>
    </g>
  </g>
</svg>
