<svg xmlns="http://www.w3.org/2000/svg" viewBox="0 0 139.41 61.06"><defs><style>.cls-1,.cls-2{fill:#969696;}.cls-2{font-size:15px;font-family:Perpetua;}</style></defs><g id="Objects"><path class="cls-1" d="M26.69,12.58h.18l1,.06a28.39,28.39,0,0,1,4.53.68V9.68a27.4,27.4,0,0,0-4.68-.74c-.6,0-1.24-.08-1.89-.09H25.3a38.27,38.27,0,0,0-9.38,1.21,38.09,38.09,0,0,0-10,4V50.25a40.93,40.93,0,0,1,9.5-3.68,42,42,0,0,1,8-1.22h.1c.45,0,.9,0,1.37,0v-3.7A43.89,43.89,0,0,0,14.54,43c-1.26.31-2.47.67-3.61,1.06l-1.28.44V16.27L10.2,16a35.13,35.13,0,0,1,6.62-2.37,35.94,35.94,0,0,1,6.82-1.05h.12c.51,0,1,0,1.54,0h.58Z"/><path class="cls-1" d="M35.82,16.4c-.85,0-1.69,0-2.5-.09-1-.07-2-.19-2.92-.35-.57-.09-1.14-.21-1.69-.34V51.38a29,29,0,0,0,7.11.83A38.33,38.33,0,0,0,45.21,51a38,38,0,0,0,10-4V11.46a40.68,40.68,0,0,1-9.49,3.68A40.3,40.3,0,0,1,35.82,16.4ZM50.2,17l1.28-.43v28.2l-.55.26a35.68,35.68,0,0,1-6.63,2.37,34.8,34.8,0,0,1-8.48,1.09c-.85,0-1.7,0-2.52-.11l-.89-.07V44.91h0V19.32l1,.06c.75.05,1.53.08,2.37.08a44.13,44.13,0,0,0,10.77-1.38C47.8,17.78,49,17.42,50.2,17Z"/><text class="cls-2" transform="translate(64.45 25.15)">DCS HOME<tspan x="0" y="18">CLEANING</tspan></text></g></svg>