<svg xmlns="http://www.w3.org/2000/svg" xmlns:xlink="http://www.w3.org/1999/xlink" width="185.061" height="92.942" viewBox="0 0 185.061 92.942">
  <defs>
    <clipPath id="clip-path">
      <path id="Path_13935" data-name="Path 13935" d="M0-.137s38.271-2.48,65.271,9.624a48.814,48.814,0,0,1,28.79,38.79H0Z" transform="translate(1236 1941.44)" fill="#48d0c8"/>
    </clipPath>
  </defs>
  <g id="Group_10161" data-name="Group 10161" transform="translate(-594 -1941.058)">
    <g id="Group_10136" data-name="Group 10136" transform="translate(-201 -1639)">
      <text id="_87_" data-name="87%" transform="translate(886 3664)" fill="#48d0c8" font-size="32" font-family="OpenSans-SemiBold, Open Sans" font-weight="600"><tspan x="-32" y="0">87%</tspan></text>
      <g id="Group_10135" data-name="Group 10135" transform="translate(-292.513 82.493)">
        <path id="Path_13925" data-name="Path 13925" d="M152.386,152.5A90.888,90.888,0,0,0,61.5,243.386h9.843a81.043,81.043,0,1,1,162.086,0h9.843A90.888,90.888,0,0,0,152.386,152.5" transform="translate(1026.013 3347.007)" fill="#f2f2f2"/>
        <path id="Path_13927" data-name="Path 13927" d="M0,90.886H9.843A81.038,81.038,0,0,1,90.886,9.843V0A90.888,90.888,0,0,0,0,90.886" transform="translate(1087.513 3499.507)" fill="#48d0c8"/>
      </g>
    </g>
    <g id="Mask_Group_37" data-name="Mask Group 37" transform="translate(-551 -0.036)" clip-path="url(#clip-path)">
      <path id="Path_13934" data-name="Path 13934" d="M90.887,90.886H81.043A80.533,80.533,0,0,0,57.308,33.579,80.534,80.534,0,0,0,0,9.843V0A90.888,90.888,0,0,1,90.887,90.886" transform="translate(1235.886 1943.114)" fill="#48d0c8"/>
    </g>
  </g>
</svg>
