<svg xmlns="http://www.w3.org/2000/svg" xmlns:xlink="http://www.w3.org/1999/xlink" width="185.061" height="93.042" viewBox="0 0 185.061 93.042">
  <defs>
    <clipPath id="clip-path">
      <path id="Path_13933" data-name="Path 13933" d="M0-.084S38.271-3.19,65.271,11.971s28.79,48.588,28.79,48.588H0Z" transform="translate(1236 1941.304)" fill="#50c25f"/>
    </clipPath>
  </defs>
  <g id="Group_10160" data-name="Group 10160" transform="translate(-1145 -1646.958)">
    <g id="Group_10136" data-name="Group 10136" transform="translate(350 -1933)">
      <text id="_95_" data-name="95%" transform="translate(886 3664)" fill="#50c25f" font-size="32" font-family="OpenSans-SemiBold, Open Sans" font-weight="600"><tspan x="-32" y="0">95%</tspan></text>
      <g id="Group_10135" data-name="Group 10135" transform="translate(-292.513 82.493)">
        <path id="Path_13925" data-name="Path 13925" d="M152.386,152.5A90.888,90.888,0,0,0,61.5,243.386h9.843a81.043,81.043,0,1,1,162.086,0h9.843A90.888,90.888,0,0,0,152.386,152.5" transform="translate(1026.013 3347.007)" fill="#f2f2f2"/>
        <path id="Path_13927" data-name="Path 13927" d="M0,90.886H9.843A81.038,81.038,0,0,1,90.886,9.843V0A90.888,90.888,0,0,0,0,90.886" transform="translate(1087.513 3499.507)" fill="#50c25f"/>
      </g>
    </g>
    <g id="Mask_Group_36" data-name="Mask Group 36" transform="translate(0 -294)" clip-path="url(#clip-path)">
      <path id="Path_13932" data-name="Path 13932" d="M90.887,90.886H81.043A80.533,80.533,0,0,0,57.308,33.579,80.534,80.534,0,0,0,0,9.843V0A90.888,90.888,0,0,1,90.887,90.886" transform="translate(1235.886 1943.114)" fill="#50c25f"/>
    </g>
  </g>
</svg>
