<svg xmlns="http://www.w3.org/2000/svg" xmlns:xlink="http://www.w3.org/1999/xlink" width="277" height="278" viewBox="0 0 277 278">
  <defs>
    <linearGradient id="linear-gradient" x1="2.876" y1="-4.212" x2="2.896" y2="-5.399" gradientUnits="objectBoundingBox">
      <stop offset="0.456" stop-color="#f1634c"/>
      <stop offset="0.489" stop-color="#e7564d"/>
      <stop offset="0.549" stop-color="#d03651"/>
      <stop offset="0.588" stop-color="#be1e55"/>
    </linearGradient>
    <radialGradient id="radial-gradient" cx="0.5" cy="0.45" r="0.908" gradientUnits="objectBoundingBox">
      <stop offset="0" stop-color="#20c1e9"/>
      <stop offset="1" stop-color="#0caec7"/>
    </radialGradient>
    <linearGradient id="linear-gradient-2" x1="5.247" y1="-5.179" x2="5.247" y2="-5.719" gradientUnits="objectBoundingBox">
      <stop offset="0.303" stop-color="#018ea2"/>
      <stop offset="0.413" stop-color="#018a9d"/>
      <stop offset="0.531" stop-color="#027f90"/>
      <stop offset="0.63" stop-color="#047280"/>
    </linearGradient>
    <linearGradient id="linear-gradient-3" x1="3.023" y1="-2.819" x2="2.292" y2="-2.819" gradientUnits="objectBoundingBox">
      <stop offset="0" stop-color="#fdd309"/>
      <stop offset="1" stop-color="#f79420"/>
    </linearGradient>
    <linearGradient id="linear-gradient-4" x1="2.762" y1="-4.991" x2="2.765" y2="-5.411" gradientUnits="objectBoundingBox">
      <stop offset="0.333" stop-color="#ffdd0f"/>
      <stop offset="0.445" stop-color="#fdd810"/>
      <stop offset="0.565" stop-color="#f7cb13"/>
      <stop offset="0.688" stop-color="#efb618"/>
      <stop offset="0.813" stop-color="#e2981f"/>
      <stop offset="0.938" stop-color="#d37328"/>
    </linearGradient>
    <radialGradient id="radial-gradient-2" cx="0.471" cy="0.444" r="0.794" gradientUnits="objectBoundingBox">
      <stop offset="0" stop-color="#ed3b87"/>
      <stop offset="1" stop-color="#db377d"/>
    </radialGradient>
  </defs>
  <g id="Group_11312" data-name="Group 11312" transform="translate(-172 -3126)">
    <rect id="WhatsApp_Image_2025-03-19_at_6.31.50_AM" data-name="WhatsApp Image 2025-03-19 at 6.31.50 AM" width="277" height="278" rx="20" transform="translate(172 3126)" fill="#fff"/>
    <g id="Group_11310" data-name="Group 11310" transform="translate(1523.405 4731.218)">
      <g id="Group_11307" data-name="Group 11307" transform="translate(-1323.405 -1498.218)">
        <path id="Path_14974" data-name="Path 14974" d="M-1283.543-1403.863l-23.245,11.49,41.65-11.642c8.34-3.4,14.652-5.935,14.652-5.937C-1254.408-1409.275-1269.663-1406.446-1283.543-1403.863Z" transform="translate(1310.22 1428.183)" fill="url(#linear-gradient)"/>
        <path id="Path_14975" data-name="Path 14975" d="M-1291.309-1302.361l2.345,9.554a.121.121,0,0,1,.029-.01,5.6,5.6,0,0,0,6.3,3.882c.016.025,53.074-12.883,53.074-12.883l-2.722-11.09Z" transform="translate(1297.939 1351.184)" fill="url(#radial-gradient)"/>
        <path id="Path_14976" data-name="Path 14976" d="M-1121.413-1252.724l-.174.1-.416,8.608s24.706-14.025,26.644-15.044C-1096.762-1258.718-1109.036-1255.732-1121.413-1252.724Z" transform="translate(1163.602 1308.457)" fill="url(#linear-gradient-2)"/>
        <path id="Path_14977" data-name="Path 14977" d="M-1306.788-1386.757l2.8,11.4s58.138-14.172,58.17-14.037-3.307-13.477-3.307-13.477Z" transform="translate(1310.22 1422.567)" fill="url(#linear-gradient-3)"/>
        <path id="Path_14978" data-name="Path 14978" d="M-1291.327-1321.973l42.618-7.617c8.574-4.567,15.145-8.06,15.156-8.036-.024-.095-29.141,6.972-46.165,11.113Z" transform="translate(1297.953 1370.797)" fill="url(#linear-gradient-4)"/>
        <path id="Path_14979" data-name="Path 14979" d="M-1120.774-1295.363c13.637-3.321,26.521-6.45,26.521-6.45l-2.721-11.089-12.63,2.256A34.01,34.01,0,0,1-1120.774-1295.363Z" transform="translate(1162.627 1351.179)" fill="#37c4ee" opacity="0.4"/>
        <path id="Path_14980" data-name="Path 14980" d="M-1058.749-1387.107c5.8-1.395,9.727-2.323,9.736-2.289.034.137-3.307-13.477-3.307-13.477l-4.845,1.354A27.308,27.308,0,0,1-1058.749-1387.107Z" transform="translate(1113.413 1422.567)" fill="#f9c02e"/>
        <path id="Path_14981" data-name="Path 14981" d="M-1265.217-1490.266c-.8-2.77-3.133-4.716-6.4-3.915l-10.768,2.642a13.875,13.875,0,0,1,.886,2.2,1.721,1.721,0,0,1,.415.743,1.782,1.782,0,0,1-1.305,2.155,1.783,1.783,0,0,1-2.155-1.305,1.681,1.681,0,0,1,.077-1.028c.094.281.182.566.253.859l2.312-.567a12.774,12.774,0,0,0-15.452-9.361,12.774,12.774,0,0,0-9.362,15.451l1.958-.48c.006.027.01.055.018.082l-.017.005a1.782,1.782,0,0,1-1.3,2.154,1.781,1.781,0,0,1-2.155-1.305,1.765,1.765,0,0,1,.589-1.771,14.2,14.2,0,0,1-.1-1.608l-11.449,2.81s0,.009.005.013h-.015a5.543,5.543,0,0,0-4.085,6.595h-.012l1.633,6.656s58.909-11.026,58.942-10.891c.02.085-1.39-5.662-2.488-10.14Zm-31.466-5.206a10.313,10.313,0,0,1,11.278,4.674l-19.112,4.69A10.311,10.311,0,0,1-1296.683-1495.471Z" transform="translate(1323.405 1498.218)" fill="url(#radial-gradient-2)"/>
      </g>
      <g id="Group_11309" data-name="Group 11309" transform="translate(-1241.05 -1489.065)">
        <g id="Group_11308" data-name="Group 11308" transform="translate(0 0)">
          <path id="Path_14982" data-name="Path 14982" d="M-907.581-1447.774a9.349,9.349,0,0,0-3.141-1.962,11.067,11.067,0,0,0-3.987-.692,11.092,11.092,0,0,0-3.974.692,9.462,9.462,0,0,0-3.167,1.962,9.011,9.011,0,0,0-2.09,2.962,9.139,9.139,0,0,0-.744,3.718,9.137,9.137,0,0,0,.744,3.718,9.012,9.012,0,0,0,2.09,2.962,9.463,9.463,0,0,0,3.167,1.961,11.089,11.089,0,0,0,3.974.692,11.064,11.064,0,0,0,3.987-.692,9.453,9.453,0,0,0,3.141-1.949,9.092,9.092,0,0,0,2.09-2.962,9.1,9.1,0,0,0,.756-3.731,9.017,9.017,0,0,0-.756-3.718A9.282,9.282,0,0,0-907.581-1447.774Zm-2.654,8.782a4.888,4.888,0,0,1-1.026,1.628,4.409,4.409,0,0,1-1.539,1.039,5.027,5.027,0,0,1-1.91.359,5.025,5.025,0,0,1-1.91-.359,4.407,4.407,0,0,1-1.539-1.039,4.882,4.882,0,0,1-1.026-1.628,5.711,5.711,0,0,1-.372-2.1,5.685,5.685,0,0,1,.372-2.115,4.922,4.922,0,0,1,1.026-1.616,4.422,4.422,0,0,1,1.539-1.039,5.037,5.037,0,0,1,1.91-.359,5.038,5.038,0,0,1,1.91.359,4.424,4.424,0,0,1,1.539,1.039,4.928,4.928,0,0,1,1.026,1.616,5.7,5.7,0,0,1,.372,2.115A5.724,5.724,0,0,1-910.235-1438.992Z" transform="translate(924.684 1451.146)"/>
          <rect id="Rectangle_6204" data-name="Rectangle 6204" width="4.872" height="19.026" transform="translate(22.385)"/>
          <path id="Path_14983" data-name="Path 14983" d="M-770.607-1453.9v6.32a4.2,4.2,0,0,0-.808-.653,5.67,5.67,0,0,0-3.039-.769,6.917,6.917,0,0,0-3.449.872,6.49,6.49,0,0,0-2.474,2.474,7.5,7.5,0,0,0-.923,3.808,7.553,7.553,0,0,0,.923,3.834,6.581,6.581,0,0,0,2.474,2.487,6.836,6.836,0,0,0,3.449.885,5.758,5.758,0,0,0,3.1-.769,4.136,4.136,0,0,0,.974-.854v1.392h4.641V-1453.9Zm-.308,13.859a2.7,2.7,0,0,1-1.039,1.141,2.853,2.853,0,0,1-1.474.385,2.9,2.9,0,0,1-1.5-.385,2.7,2.7,0,0,1-1.039-1.141,3.943,3.943,0,0,1-.385-1.808,3.785,3.785,0,0,1,.385-1.782,2.732,2.732,0,0,1,1.039-1.115,2.9,2.9,0,0,1,1.5-.385,2.853,2.853,0,0,1,1.474.385,2.732,2.732,0,0,1,1.039,1.115,3.785,3.785,0,0,1,.385,1.782A3.943,3.943,0,0,1-770.915-1440.045Z" transform="translate(810.916 1453.904)"/>
        </g>
        <path id="Path_14984" data-name="Path 14984" d="M-905.209-1315.706a5.943,5.943,0,0,0-2.808-.628,6.05,6.05,0,0,0-3.615,1.064,5.285,5.285,0,0,0-1.789,2.168,4.289,4.289,0,0,0-1.532-2.219,5.52,5.52,0,0,0-3.372-1.013,5.934,5.934,0,0,0-3.333.91,4.968,4.968,0,0,0-1.795,2.056v-2.863h-1.231v13.385h1.282v-7.128a6.015,6.015,0,0,1,.59-2.769,4.285,4.285,0,0,1,1.692-1.795,5.117,5.117,0,0,1,2.615-.641,4.007,4.007,0,0,1,3.077,1.179,4.857,4.857,0,0,1,1.1,3.436v7.718h1.282v-7.128a6.017,6.017,0,0,1,.59-2.769,4.288,4.288,0,0,1,1.692-1.795,5.118,5.118,0,0,1,2.615-.641,4.008,4.008,0,0,1,3.077,1.179,4.858,4.858,0,0,1,1.1,3.436v7.718h1.282v-7.821a6.7,6.7,0,0,0-.667-3.141A4.385,4.385,0,0,0-905.209-1315.706Z" transform="translate(924.684 1344.749)" fill="#e01569"/>
        <path id="Path_14985" data-name="Path 14985" d="M-789.991-1315.488a6.363,6.363,0,0,0-3.269-.846,6.284,6.284,0,0,0-3.282.872,6.193,6.193,0,0,0-2.295,2.4,7.235,7.235,0,0,0-.833,3.526,6.92,6.92,0,0,0,.885,3.513,6.341,6.341,0,0,0,2.436,2.41,7.173,7.173,0,0,0,3.577.872,7.34,7.34,0,0,0,2.859-.551,5.492,5.492,0,0,0,2.192-1.628l-.744-.846a4.713,4.713,0,0,1-1.885,1.41,6.21,6.21,0,0,1-2.4.462,5.961,5.961,0,0,1-2.923-.705,5.136,5.136,0,0,1-2.013-1.975,5.639,5.639,0,0,1-.724-2.654H-786.9a1.34,1.34,0,0,1,.013-.192,1.2,1.2,0,0,0,.013-.167,7.24,7.24,0,0,0-.833-3.526A6.041,6.041,0,0,0-789.991-1315.488Zm-7.757,2.936a4.974,4.974,0,0,1,1.833-1.949,5.031,5.031,0,0,1,2.654-.705,5.014,5.014,0,0,1,2.667.705,5.1,5.1,0,0,1,1.833,1.949,5.424,5.424,0,0,1,.642,2.32h-10.276A5.712,5.712,0,0,1-797.748-1312.552Z" transform="translate(825.492 1344.749)" fill="#e01569"/>
        <path id="Path_14986" data-name="Path 14986" d="M-722.927-1314.682a2.391,2.391,0,0,1-1.846-.692,2.8,2.8,0,0,1-.641-1.974v-8.616h4.257v-1.1h-4.257v-2.923H-726.7v2.923h-2.462v1.1h2.462v8.744a3.689,3.689,0,0,0,.936,2.667,3.576,3.576,0,0,0,2.705.974,4.966,4.966,0,0,0,1.5-.23,3.16,3.16,0,0,0,1.244-.718l-.538-.9A2.975,2.975,0,0,1-722.927-1314.682Z" transform="translate(769.544 1355.584)" fill="#e01569"/>
        <path id="Path_14987" data-name="Path 14987" d="M-667.842-1313.3v-2.928h-1.231v13.385h1.282v-6.974a5.6,5.6,0,0,1,1.256-3.885,4.449,4.449,0,0,1,3.487-1.4.946.946,0,0,1,.154.013.913.913,0,0,0,.154.013v-1.256a5.971,5.971,0,0,0-3.334.872A4.663,4.663,0,0,0-667.842-1313.3Z" transform="translate(721.869 1344.749)" fill="#f16822"/>
        <path id="Path_14988" data-name="Path 14988" d="M-618.845-1315.462a6.758,6.758,0,0,0-3.436-.872,6.688,6.688,0,0,0-3.423.872,6.485,6.485,0,0,0-2.385,2.4,6.9,6.9,0,0,0-.885,3.526,6.92,6.92,0,0,0,.885,3.513,6.453,6.453,0,0,0,2.385,2.41,6.685,6.685,0,0,0,3.423.872,6.755,6.755,0,0,0,3.436-.872,6.333,6.333,0,0,0,2.385-2.41,7,7,0,0,0,.872-3.513,6.981,6.981,0,0,0-.872-3.526A6.363,6.363,0,0,0-618.845-1315.462Zm1.257,8.872a4.951,4.951,0,0,1-1.923,1.987,5.468,5.468,0,0,1-2.769.705,5.4,5.4,0,0,1-2.757-.705,5.06,5.06,0,0,1-1.923-1.987,6.012,6.012,0,0,1-.705-2.949,6,6,0,0,1,.705-2.962,5.086,5.086,0,0,1,1.923-1.974,5.4,5.4,0,0,1,2.757-.705,5.47,5.47,0,0,1,2.769.705,4.975,4.975,0,0,1,1.923,1.974,6.091,6.091,0,0,1,.692,2.962A6.108,6.108,0,0,1-617.589-1306.59Z" transform="translate(690.052 1344.749)" fill="#f16822"/>
        <path id="Path_14989" data-name="Path 14989" d="M-549.374-1314.682a2.392,2.392,0,0,1-1.846-.692,2.8,2.8,0,0,1-.641-1.974v-8.616h4.257v-1.1h-4.257v-2.923h-1.282v2.923H-555.6v1.1h2.462v8.744a3.689,3.689,0,0,0,.936,2.667,3.577,3.577,0,0,0,2.705.974,4.964,4.964,0,0,0,1.5-.23,3.157,3.157,0,0,0,1.244-.718l-.538-.9A2.975,2.975,0,0,1-549.374-1314.682Z" transform="translate(631.838 1355.584)" fill="#f16822"/>
        <path id="Path_14990" data-name="Path 14990" d="M-494.826-1315.462a6.757,6.757,0,0,0-3.436-.872,6.688,6.688,0,0,0-3.423.872,6.484,6.484,0,0,0-2.385,2.4,6.9,6.9,0,0,0-.885,3.526,6.919,6.919,0,0,0,.885,3.513,6.453,6.453,0,0,0,2.385,2.41,6.684,6.684,0,0,0,3.423.872,6.754,6.754,0,0,0,3.436-.872,6.332,6.332,0,0,0,2.385-2.41,7,7,0,0,0,.872-3.513,6.982,6.982,0,0,0-.872-3.526A6.362,6.362,0,0,0-494.826-1315.462Zm1.257,8.872a4.95,4.95,0,0,1-1.923,1.987,5.468,5.468,0,0,1-2.769.705,5.4,5.4,0,0,1-2.757-.705,5.06,5.06,0,0,1-1.923-1.987,6.013,6.013,0,0,1-.705-2.949,6,6,0,0,1,.705-2.962,5.086,5.086,0,0,1,1.923-1.974,5.4,5.4,0,0,1,2.757-.705,5.469,5.469,0,0,1,2.769.705,4.974,4.974,0,0,1,1.923,1.974,6.091,6.091,0,0,1,.692,2.962A6.109,6.109,0,0,1-493.569-1306.59Z" transform="translate(591.649 1344.749)" fill="#f7982c"/>
        <path id="Path_14991" data-name="Path 14991" d="M-418.791-1303.913l-4.538-11.924h-1.1l-4.574,11.954-4.452-11.954h-1.231l5.077,13.385h1.179l4.538-11.627,4.514,11.627h1.205l5.077-13.385h-1.18Z" transform="translate(535.896 1344.355)" fill="#08b3e0"/>
        <path id="Path_14992" data-name="Path 14992" d="M-304.463-1313.808a4.423,4.423,0,0,0-1.9-1.9,6.16,6.16,0,0,0-2.859-.628,6.254,6.254,0,0,0-3.462.91,5.05,5.05,0,0,0-1.846,2.088v-2.9h-1.231v13.385h1.282v-7.128a5.911,5.911,0,0,1,.6-2.769,4.282,4.282,0,0,1,1.756-1.795,5.514,5.514,0,0,1,2.718-.641,4.236,4.236,0,0,1,3.192,1.179,4.752,4.752,0,0,1,1.141,3.436v7.718h1.282v-7.821A6.6,6.6,0,0,0-304.463-1313.808Z" transform="translate(441.531 1344.749)" fill="#08b3e0"/>
      </g>
    </g>
  </g>
</svg>
