<svg xmlns="http://www.w3.org/2000/svg" xmlns:xlink="http://www.w3.org/1999/xlink" width="143.144" height="41.91" viewBox="0 0 143.144 41.91">
  <defs>
    <linearGradient id="linear-gradient" x1="2.876" y1="-4.212" x2="2.896" y2="-5.399" gradientUnits="objectBoundingBox">
      <stop offset="0.456" stop-color="#f1634c"/>
      <stop offset="0.489" stop-color="#e7564d"/>
      <stop offset="0.549" stop-color="#d03651"/>
      <stop offset="0.588" stop-color="#be1e55"/>
    </linearGradient>
    <radialGradient id="radial-gradient" cx="0.5" cy="0.45" r="0.908" gradientUnits="objectBoundingBox">
      <stop offset="0" stop-color="#20c1e9"/>
      <stop offset="1" stop-color="#0caec7"/>
    </radialGradient>
    <linearGradient id="linear-gradient-2" x1="5.247" y1="-5.179" x2="5.247" y2="-5.719" gradientUnits="objectBoundingBox">
      <stop offset="0.303" stop-color="#018ea2"/>
      <stop offset="0.413" stop-color="#018a9d"/>
      <stop offset="0.531" stop-color="#027f90"/>
      <stop offset="0.63" stop-color="#047280"/>
    </linearGradient>
    <linearGradient id="linear-gradient-3" x1="3.023" y1="-2.819" x2="2.292" y2="-2.819" gradientUnits="objectBoundingBox">
      <stop offset="0" stop-color="#fdd309"/>
      <stop offset="1" stop-color="#f79420"/>
    </linearGradient>
    <linearGradient id="linear-gradient-4" x1="2.762" y1="-4.991" x2="2.765" y2="-5.411" gradientUnits="objectBoundingBox">
      <stop offset="0.333" stop-color="#ffdd0f"/>
      <stop offset="0.445" stop-color="#fdd810"/>
      <stop offset="0.565" stop-color="#f7cb13"/>
      <stop offset="0.688" stop-color="#efb618"/>
      <stop offset="0.813" stop-color="#e2981f"/>
      <stop offset="0.938" stop-color="#d37328"/>
    </linearGradient>
    <radialGradient id="radial-gradient-2" cx="0.471" cy="0.444" r="0.794" gradientUnits="objectBoundingBox">
      <stop offset="0" stop-color="#ed3b87"/>
      <stop offset="1" stop-color="#db377d"/>
    </radialGradient>
  </defs>
  <g id="Group_11313" data-name="Group 11313" transform="translate(1323.405 1498.219)">
    <g id="Group_11307" data-name="Group 11307" transform="translate(-1323.405 -1498.218)">
      <path id="Path_14974" data-name="Path 14974" d="M-1291.671-1405.992l-15.118,7.472,27.087-7.572c5.424-2.21,9.529-3.86,9.529-3.861C-1272.722-1409.512-1282.644-1407.672-1291.671-1405.992Z" transform="translate(1309.02 1421.809)" fill="url(#linear-gradient)"/>
      <path id="Path_14975" data-name="Path 14975" d="M-1291.309-1306.049l1.525,6.214a.075.075,0,0,1,.019-.006,3.644,3.644,0,0,0,4.1,2.525c.01.016,34.516-8.379,34.516-8.379l-1.77-7.212Z" transform="translate(1295.621 1337.801)" fill="url(#radial-gradient)"/>
      <path id="Path_14976" data-name="Path 14976" d="M-1121.619-1254.939l-.113.066-.271,5.6s16.068-9.121,17.328-9.784C-1105.588-1258.837-1113.57-1256.9-1121.619-1254.939Z" transform="translate(1149.057 1291.185)" fill="url(#linear-gradient-2)"/>
      <path id="Path_14977" data-name="Path 14977" d="M-1306.788-1392.392l1.819,7.413s37.81-9.217,37.831-9.129-2.151-8.765-2.151-8.765Z" transform="translate(1309.02 1415.681)" fill="url(#linear-gradient-3)"/>
      <path id="Path_14978" data-name="Path 14978" d="M-1291.327-1327.446l27.716-4.954c5.576-2.97,9.849-5.241,9.857-5.226-.015-.062-18.952,4.534-30.024,7.227Z" transform="translate(1295.636 1359.199)" fill="url(#linear-gradient-4)"/>
      <path id="Path_14979" data-name="Path 14979" d="M-1120.774-1301.5c8.869-2.16,17.248-4.2,17.248-4.2l-1.77-7.211-8.214,1.467A22.118,22.118,0,0,1-1120.774-1301.5Z" transform="translate(1147.994 1337.795)" fill="#37c4ee" opacity="0.4"/>
      <path id="Path_14980" data-name="Path 14980" d="M-1058.749-1392.62c3.774-.907,6.326-1.511,6.332-1.489.022.089-2.151-8.765-2.151-8.765l-3.151.88A17.759,17.759,0,0,1-1058.749-1392.62Z" transform="translate(1094.3 1415.681)" fill="#f9c02e"/>
      <path id="Path_14981" data-name="Path 14981" d="M-1285.562-1493.046a3.343,3.343,0,0,0-4.164-2.546l-7,1.718a9.017,9.017,0,0,1,.576,1.428,1.12,1.12,0,0,1,.27.483,1.159,1.159,0,0,1-.849,1.4,1.16,1.16,0,0,1-1.4-.849,1.093,1.093,0,0,1,.05-.669c.061.182.118.368.165.559l1.5-.369a8.308,8.308,0,0,0-10.049-6.088,8.308,8.308,0,0,0-6.089,10.048l1.273-.312c0,.018.007.036.012.053l-.011,0a1.159,1.159,0,0,1-.849,1.4,1.158,1.158,0,0,1-1.4-.849,1.148,1.148,0,0,1,.383-1.152,9.268,9.268,0,0,1-.063-1.046l-7.446,1.827,0,.008h-.01a3.6,3.6,0,0,0-2.656,4.289h-.008l1.062,4.329s38.312-7.171,38.333-7.083l-1.618-6.594Zm-20.464-3.386a6.707,6.707,0,0,1,7.335,3.04l-12.429,3.05A6.706,6.706,0,0,1-1306.026-1496.432Z" transform="translate(1323.405 1498.219)" fill="url(#radial-gradient-2)"/>
    </g>
    <g id="Group_11309" data-name="Group 11309" transform="translate(-1269.845 -1492.266)">
      <g id="Group_11308" data-name="Group 11308" transform="translate(0 0)">
        <path id="Path_14982" data-name="Path 14982" d="M-913.561-1448.7a6.082,6.082,0,0,0-2.043-1.276,7.2,7.2,0,0,0-2.593-.45,7.216,7.216,0,0,0-2.585.45,6.154,6.154,0,0,0-2.059,1.276,5.86,5.86,0,0,0-1.359,1.926,5.943,5.943,0,0,0-.484,2.418,5.943,5.943,0,0,0,.484,2.418,5.86,5.86,0,0,0,1.359,1.926,6.155,6.155,0,0,0,2.059,1.276,7.214,7.214,0,0,0,2.585.45,7.2,7.2,0,0,0,2.593-.45,6.151,6.151,0,0,0,2.043-1.267,5.914,5.914,0,0,0,1.359-1.926,5.921,5.921,0,0,0,.492-2.426,5.864,5.864,0,0,0-.492-2.418A6.037,6.037,0,0,0-913.561-1448.7Zm-1.726,5.712a3.18,3.18,0,0,1-.667,1.059,2.869,2.869,0,0,1-1,.675,3.268,3.268,0,0,1-1.242.234,3.267,3.267,0,0,1-1.242-.234,2.867,2.867,0,0,1-1-.675,3.177,3.177,0,0,1-.667-1.059,3.714,3.714,0,0,1-.242-1.368,3.7,3.7,0,0,1,.242-1.376,3.2,3.2,0,0,1,.667-1.051,2.878,2.878,0,0,1,1-.676,3.277,3.277,0,0,1,1.242-.233,3.278,3.278,0,0,1,1.242.233,2.879,2.879,0,0,1,1,.676,3.2,3.2,0,0,1,.667,1.051,3.7,3.7,0,0,1,.242,1.376A3.723,3.723,0,0,1-915.287-1442.99Z" transform="translate(924.684 1450.895)"/>
        <rect id="Rectangle_6204" data-name="Rectangle 6204" width="3.168" height="12.374" transform="translate(14.558)"/>
        <path id="Path_14983" data-name="Path 14983" d="M-774.346-1453.9v4.11a2.734,2.734,0,0,0-.525-.425,3.688,3.688,0,0,0-1.976-.5,4.5,4.5,0,0,0-2.243.567,4.221,4.221,0,0,0-1.609,1.609,4.877,4.877,0,0,0-.6,2.476,4.912,4.912,0,0,0,.6,2.493,4.281,4.281,0,0,0,1.609,1.618,4.446,4.446,0,0,0,2.243.575,3.745,3.745,0,0,0,2.018-.5,2.692,2.692,0,0,0,.634-.555v.906h3.018V-1453.9Zm-.2,9.014a1.758,1.758,0,0,1-.675.742,1.857,1.857,0,0,1-.959.25,1.889,1.889,0,0,1-.975-.25,1.758,1.758,0,0,1-.675-.742,2.565,2.565,0,0,1-.25-1.176,2.461,2.461,0,0,1,.25-1.159,1.777,1.777,0,0,1,.675-.725,1.889,1.889,0,0,1,.975-.25,1.857,1.857,0,0,1,.959.25,1.777,1.777,0,0,1,.675.725,2.461,2.461,0,0,1,.25,1.159A2.565,2.565,0,0,1-774.546-1444.891Z" transform="translate(800.561 1453.904)"/>
      </g>
      <path id="Path_14984" data-name="Path 14984" d="M-912.018-1315.926a3.866,3.866,0,0,0-1.826-.408,3.934,3.934,0,0,0-2.351.692,3.438,3.438,0,0,0-1.163,1.41,2.789,2.789,0,0,0-1-1.443,3.589,3.589,0,0,0-2.193-.659,3.86,3.86,0,0,0-2.168.592,3.231,3.231,0,0,0-1.167,1.337v-1.862h-.8v8.7h.834v-4.636a3.912,3.912,0,0,1,.384-1.8,2.787,2.787,0,0,1,1.1-1.167,3.328,3.328,0,0,1,1.7-.417,2.606,2.606,0,0,1,2,.767,3.158,3.158,0,0,1,.717,2.235v5.019h.834v-4.636a3.913,3.913,0,0,1,.384-1.8,2.788,2.788,0,0,1,1.1-1.167,3.329,3.329,0,0,1,1.7-.417,2.607,2.607,0,0,1,2,.767,3.159,3.159,0,0,1,.717,2.235v5.019h.834v-5.086a4.356,4.356,0,0,0-.434-2.043A2.853,2.853,0,0,0-912.018-1315.926Z" transform="translate(924.684 1334.814)" fill="#e01569"/>
      <path id="Path_14985" data-name="Path 14985" d="M-793.376-1315.784a4.137,4.137,0,0,0-2.126-.55,4.087,4.087,0,0,0-2.135.567,4.029,4.029,0,0,0-1.493,1.559,4.705,4.705,0,0,0-.542,2.293,4.5,4.5,0,0,0,.575,2.285,4.125,4.125,0,0,0,1.584,1.568,4.666,4.666,0,0,0,2.326.567,4.774,4.774,0,0,0,1.859-.359,3.572,3.572,0,0,0,1.426-1.059l-.484-.55a3.065,3.065,0,0,1-1.226.917,4.039,4.039,0,0,1-1.559.3,3.878,3.878,0,0,1-1.9-.458,3.342,3.342,0,0,1-1.309-1.284,3.668,3.668,0,0,1-.471-1.726h7.483a.881.881,0,0,1,.008-.125.779.779,0,0,0,.008-.108,4.708,4.708,0,0,0-.542-2.293A3.927,3.927,0,0,0-793.376-1315.784Zm-5.045,1.909a3.236,3.236,0,0,1,1.192-1.268,3.272,3.272,0,0,1,1.726-.458,3.261,3.261,0,0,1,1.734.458,3.32,3.32,0,0,1,1.192,1.268,3.526,3.526,0,0,1,.417,1.509h-6.683A3.715,3.715,0,0,1-798.42-1313.874Z" transform="translate(816.464 1334.814)" fill="#e01569"/>
      <path id="Path_14986" data-name="Path 14986" d="M-725.106-1320.034a1.555,1.555,0,0,1-1.2-.45,1.821,1.821,0,0,1-.417-1.284v-5.6h2.768v-.717h-2.768v-1.9h-.834v1.9h-1.6v.717h1.6v5.687a2.4,2.4,0,0,0,.609,1.734,2.326,2.326,0,0,0,1.759.634,3.228,3.228,0,0,0,.976-.15,2.055,2.055,0,0,0,.809-.467l-.35-.584A1.935,1.935,0,0,1-725.106-1320.034Z" transform="translate(755.423 1346.635)" fill="#e01569"/>
      <path id="Path_14987" data-name="Path 14987" d="M-668.273-1314.363v-1.9h-.8v8.7h.834v-4.536a3.645,3.645,0,0,1,.817-2.527,2.893,2.893,0,0,1,2.268-.909.628.628,0,0,1,.1.008.591.591,0,0,0,.1.009v-.817a3.883,3.883,0,0,0-2.168.567A3.032,3.032,0,0,0-668.273-1314.363Z" transform="translate(703.409 1334.814)" fill="#f16822"/>
      <path id="Path_14988" data-name="Path 14988" d="M-622.387-1315.767a4.4,4.4,0,0,0-2.235-.567,4.35,4.35,0,0,0-2.226.567,4.218,4.218,0,0,0-1.551,1.559,4.488,4.488,0,0,0-.575,2.293,4.5,4.5,0,0,0,.575,2.285,4.2,4.2,0,0,0,1.551,1.568,4.348,4.348,0,0,0,2.226.567,4.394,4.394,0,0,0,2.235-.567,4.119,4.119,0,0,0,1.551-1.568,4.554,4.554,0,0,0,.567-2.285,4.541,4.541,0,0,0-.567-2.293A4.139,4.139,0,0,0-622.387-1315.767Zm.817,5.77a3.22,3.22,0,0,1-1.251,1.292,3.557,3.557,0,0,1-1.8.458,3.512,3.512,0,0,1-1.793-.458,3.292,3.292,0,0,1-1.25-1.292,3.91,3.91,0,0,1-.459-1.918,3.9,3.9,0,0,1,.459-1.926,3.308,3.308,0,0,1,1.25-1.284,3.512,3.512,0,0,1,1.793-.459,3.558,3.558,0,0,1,1.8.459,3.235,3.235,0,0,1,1.251,1.284,3.96,3.96,0,0,1,.45,1.926A3.972,3.972,0,0,1-621.57-1310Z" transform="translate(668.696 1334.814)" fill="#f16822"/>
      <path id="Path_14989" data-name="Path 14989" d="M-551.553-1320.034a1.555,1.555,0,0,1-1.2-.45,1.821,1.821,0,0,1-.417-1.284v-5.6h2.768v-.717h-2.768v-1.9H-554v1.9h-1.6v.717h1.6v5.687a2.4,2.4,0,0,0,.609,1.734,2.327,2.327,0,0,0,1.759.634,3.227,3.227,0,0,0,.975-.15,2.053,2.053,0,0,0,.809-.467l-.35-.584A1.935,1.935,0,0,1-551.553-1320.034Z" transform="translate(605.183 1346.635)" fill="#f16822"/>
      <path id="Path_14990" data-name="Path 14990" d="M-498.367-1315.767a4.394,4.394,0,0,0-2.235-.567,4.349,4.349,0,0,0-2.226.567,4.218,4.218,0,0,0-1.551,1.559,4.488,4.488,0,0,0-.575,2.293,4.5,4.5,0,0,0,.575,2.285,4.2,4.2,0,0,0,1.551,1.568,4.348,4.348,0,0,0,2.226.567,4.393,4.393,0,0,0,2.235-.567,4.118,4.118,0,0,0,1.551-1.568,4.554,4.554,0,0,0,.567-2.285,4.541,4.541,0,0,0-.567-2.293A4.139,4.139,0,0,0-498.367-1315.767Zm.817,5.77a3.22,3.22,0,0,1-1.251,1.292,3.557,3.557,0,0,1-1.8.458,3.511,3.511,0,0,1-1.793-.458,3.291,3.291,0,0,1-1.251-1.292,3.911,3.911,0,0,1-.459-1.918,3.9,3.9,0,0,1,.459-1.926,3.307,3.307,0,0,1,1.251-1.284,3.511,3.511,0,0,1,1.793-.459,3.557,3.557,0,0,1,1.8.459,3.235,3.235,0,0,1,1.251,1.284,3.961,3.961,0,0,1,.45,1.926A3.973,3.973,0,0,1-497.55-1310Z" transform="translate(561.336 1334.814)" fill="#f7982c"/>
      <path id="Path_14991" data-name="Path 14991" d="M-424.35-1308.083l-2.951-7.755h-.717l-2.974,7.774-2.9-7.774h-.8l3.3,8.705h.767l2.951-7.562,2.935,7.562h.784l3.3-8.705h-.767Z" transform="translate(500.509 1334.384)" fill="#08b3e0"/>
      <path id="Path_14992" data-name="Path 14992" d="M-308.412-1314.691a2.878,2.878,0,0,0-1.234-1.234,4.007,4.007,0,0,0-1.859-.408,4.068,4.068,0,0,0-2.251.592,3.284,3.284,0,0,0-1.2,1.358v-1.883h-.8v8.7h.834v-4.636a3.845,3.845,0,0,1,.392-1.8,2.785,2.785,0,0,1,1.142-1.167,3.586,3.586,0,0,1,1.768-.417,2.755,2.755,0,0,1,2.076.767,3.091,3.091,0,0,1,.742,2.235v5.019h.834v-5.086A4.29,4.29,0,0,0-308.412-1314.691Z" transform="translate(397.555 1334.814)" fill="#08b3e0"/>
    </g>
  </g>
</svg>
