<svg xmlns="http://www.w3.org/2000/svg" width="277" height="278" viewBox="0 0 277 278">
  <g id="Group_11321" data-name="Group 11321" transform="translate(-983 -2679)">
    <rect id="WhatsApp_Image_2025-03-19_at_6.31.50_AM" data-name="WhatsApp Image 2025-03-19 at 6.31.50 AM" width="277" height="278" rx="20" transform="translate(983 2679)" fill="#fff"/>
    <g id="Group_11318" data-name="Group 11318" transform="translate(662.541 2626.413)">
      <g id="Group_11315" data-name="Group 11315" transform="translate(406.185 115.587)">
        <path id="Path_14993" data-name="Path 14993" d="M567.815,156.969s-5.951,17.852,0,32.8S586.1,227.94,581.023,241c0,0,16.4-16.836,10.014-36.429S573.476,181.5,567.815,156.969Z" transform="translate(-514.841 -141.177)" fill="#f7cb3b"/>
        <path id="Path_14994" data-name="Path 14994" d="M642.754,183.4c-.261,12.725-6.8,18.519-12.257,23.637a65.39,65.39,0,0,1,5.49,12.4,35.064,35.064,0,0,1,1.418,6.209C641.448,221.39,652.9,203.406,642.754,183.4Z" transform="translate(-555.238 -157.522)" fill="#61c7f2"/>
        <path id="Path_14995" data-name="Path 14995" d="M556.041,273.5s.564,0,1.924-4.947c2.534-9.219-4.027-26.274-9.5-38.951-.291-.675-.577-1.338-.861-2q-.572-1.24-1.057-2.472c-.631-1.488-1.229-2.926-1.778-4.305a45.655,45.655,0,0,1-2.981-16.5c-16.171,28.569,1.22,51.624,7.867,58.554C553.438,266.833,556.17,271.509,556.041,273.5Z" transform="translate(-496.247 -170.468)" fill="#f27234"/>
        <circle id="Ellipse_237" data-name="Ellipse 237" cx="5.772" cy="5.772" r="5.772" transform="translate(23.004 44.018)" fill="#ee3e32"/>
        <circle id="Ellipse_238" data-name="Ellipse 238" cx="6.096" cy="6.096" r="6.096" transform="translate(63.943 33.934) rotate(-45)" fill="#5bb949"/>
        <path id="Path_14996" data-name="Path 14996" d="M494.883,265.694c-16.067-8.487-19.356-19.638-19.356-19.638a57.823,57.823,0,0,0,1.132,9.839c2.211,8.794,8.563,21.329,26.509,28.312A58.407,58.407,0,0,1,494.883,265.694Z" transform="translate(-459.408 -196.266)" fill="#d98dbc"/>
        <g id="Group_11314" data-name="Group 11314" transform="translate(0 0)">
          <path id="Path_14997" data-name="Path 14997" d="M488.283,226.541c-.205-1.088-2.016-4.142-5.042-7.3-.6-.627-1.493-1.6-2.552-2.889a46.522,46.522,0,0,1-17.005-87.963,52.626,52.626,0,0,0,22.225,100.326c.75,0,1.5-.02,2.237-.051C488.146,228.669,488.693,228.719,488.283,226.541Z" transform="translate(-433.288 -123.506)" fill="#804f9f"/>
          <path id="Path_14998" data-name="Path 14998" d="M575.431,115.587l.017.074a46.513,46.513,0,0,1,27.04,81.893,51.313,51.313,0,0,1-10.676,20.083,52.627,52.627,0,0,0-16.382-102.051Z" transform="translate(-521.186 -115.587)" fill="#456eb5"/>
        </g>
      </g>
      <g id="Group_11316" data-name="Group 11316" transform="translate(389.459 227.916)">
        <path id="Path_14999" data-name="Path 14999" d="M410.217,424.5a10.379,10.379,0,0,1-5.668,5.6,11.743,11.743,0,0,1-8.654,0,10.743,10.743,0,0,1-3.407-2.233,9.985,9.985,0,0,1-2.232-3.305,10.4,10.4,0,0,1-.8-4.073v-.058a10.248,10.248,0,0,1,.812-4.073,10.382,10.382,0,0,1,5.668-5.6,11.743,11.743,0,0,1,8.654,0A10.741,10.741,0,0,1,408,412.991a10,10,0,0,1,2.232,3.3,10.415,10.415,0,0,1,.8,4.073v.058A10.252,10.252,0,0,1,410.217,424.5Zm-3.856-4.073a6.768,6.768,0,0,0-.449-2.464,6.08,6.08,0,0,0-3.232-3.407,5.959,5.959,0,0,0-2.465-.507,6.074,6.074,0,0,0-2.479.493,5.673,5.673,0,0,0-1.913,1.363,6.42,6.42,0,0,0-1.247,2.015,6.647,6.647,0,0,0-.449,2.45v.058a6.759,6.759,0,0,0,.449,2.464,6.119,6.119,0,0,0,3.218,3.406,5.916,5.916,0,0,0,2.479.507,6.094,6.094,0,0,0,2.464-.493,5.623,5.623,0,0,0,1.928-1.362,6.425,6.425,0,0,0,1.247-2.015,6.653,6.653,0,0,0,.449-2.45Z" transform="translate(-389.459 -409.933)"/>
        <path id="Path_15000" data-name="Path 15000" d="M470.621,431.138l-9.828-12.9v12.9h-4.407V410.844H460.5l9.509,12.5v-12.5h4.407v20.294Z" transform="translate(-430.845 -410.496)"/>
        <path id="Path_15001" data-name="Path 15001" d="M516.4,431.138V410.844h15.278v3.972H520.808v4.117h9.567V422.9h-9.567v4.262h11.017v3.972Z" transform="translate(-467.957 -410.496)"/>
        <path id="Path_15002" data-name="Path 15002" d="M590.089,431.138V410.844h4.465v16.264h10.118v4.03Z" transform="translate(-513.524 -410.496)"/>
        <path id="Path_15003" data-name="Path 15003" d="M637.645,431.138V410.844h4.465v20.294Z" transform="translate(-542.932 -410.496)"/>
        <path id="Path_15004" data-name="Path 15004" d="M667.1,414.874v4.378h9.683v4.03H667.1v7.857h-4.465V410.844H678.09v4.03Z" transform="translate(-558.387 -410.496)"/>
        <path id="Path_15005" data-name="Path 15005" d="M712.472,431.138V410.844h15.279v3.972H716.879v4.117h9.567V422.9h-9.567v4.262H727.9v3.972Z" transform="translate(-589.203 -410.496)"/>
      </g>
      <g id="Group_11317" data-name="Group 11317" transform="translate(419.245 259.618)">
        <path id="Path_15006" data-name="Path 15006" d="M474.086,500.464a3.993,3.993,0,0,1-.727.441,4.146,4.146,0,0,1-.836.286,4.436,4.436,0,0,1-1,.1,3.94,3.94,0,0,1-2.874-1.2,4,4,0,0,1-.842-1.311,4.477,4.477,0,0,1,0-3.24,4.139,4.139,0,0,1,.842-1.322,3.914,3.914,0,0,1,1.282-.893,4,4,0,0,1,1.626-.326,4.888,4.888,0,0,1,.99.092,4.135,4.135,0,0,1,.819.258,3.707,3.707,0,0,1,.7.4,6.029,6.029,0,0,1,.618.521l-.618.664a5.061,5.061,0,0,0-1.1-.79,3.091,3.091,0,0,0-3.629.641,3.24,3.24,0,0,0-.653,1.048,3.543,3.543,0,0,0-.235,1.3,3.587,3.587,0,0,0,.235,1.305,3.227,3.227,0,0,0,.653,1.053,3.079,3.079,0,0,0,.985.7,2.939,2.939,0,0,0,1.231.258,3.087,3.087,0,0,0,1.42-.3,4.943,4.943,0,0,0,1.168-.853l.6.584A5.721,5.721,0,0,1,474.086,500.464Z" transform="translate(-467.509 -493.005)" fill="#f27234"/>
        <path id="Path_15007" data-name="Path 15007" d="M513.172,494.189h-4.888v2.736h4.373v.824h-4.373v2.8h4.946v.824h-5.85v-8.014h5.793Z" transform="translate(-492.164 -493.228)" fill="#f27234"/>
        <path id="Path_15008" data-name="Path 15008" d="M550.175,493.365h.882v8.014h-.721l-5.175-6.572v6.572h-.881v-8.014h.847l5.049,6.423Z" transform="translate(-514.982 -493.228)" fill="#f27234"/>
        <path id="Path_15009" data-name="Path 15009" d="M586.874,501.379h-.9V494.2h-2.69v-.836h6.285v.836h-2.69Z" transform="translate(-539.098 -493.228)" fill="#f27234"/>
        <path id="Path_15010" data-name="Path 15010" d="M626.537,501.379l-2.324-3.114h-2.29v3.114h-.9v-8.014h3.446a3.889,3.889,0,0,1,1.2.172,2.7,2.7,0,0,1,.91.487,2.167,2.167,0,0,1,.584.756,2.286,2.286,0,0,1,.206.98,2.375,2.375,0,0,1-.16.9,2.049,2.049,0,0,1-.452.687,2.528,2.528,0,0,1-.693.487,3.208,3.208,0,0,1-.87.275l2.462,3.272Zm-.62-6.759a2.418,2.418,0,0,0-1.515-.419h-2.479v3.263h2.468a2.833,2.833,0,0,0,.827-.115,2.012,2.012,0,0,0,.654-.327,1.5,1.5,0,0,0,.43-.523,1.545,1.545,0,0,0,.155-.7A1.406,1.406,0,0,0,625.917,494.62Z" transform="translate(-562.436 -493.228)" fill="#f27234"/>
        <path id="Path_15011" data-name="Path 15011" d="M665.3,494.189h-4.889v2.736h4.373v.824h-4.373v2.8h4.946v.824h-5.85v-8.014H665.3Z" transform="translate(-586.237 -493.228)" fill="#f27234"/>
      </g>
    </g>
  </g>
</svg>
