<svg xmlns="http://www.w3.org/2000/svg" xmlns:xlink="http://www.w3.org/1999/xlink" width="1920" height="318" viewBox="0 0 1920 318">
  <defs>
    <clipPath id="clip-path">
      <rect id="Rectangle_5891" data-name="Rectangle 5891" width="1920" height="318" transform="translate(-56 527)" fill="#fff"/>
    </clipPath>
  </defs>
  <g id="Mask_Group_42" data-name="Mask Group 42" transform="translate(56 -527)" opacity="0.44" clip-path="url(#clip-path)">
    <path id="Path_15573" data-name="Path 15573" d="M1650.2,641.838v-.309h-62.026V408.479c0-18.481,21.3-28.5,35.7-17.228,3.759,3.132,6.28,5.012,6.28,5.012V558.828H1650.2V325.158h16.6a33.011,33.011,0,0,1,33.194,33.2V526.567l13.782,13.783V400.961h35.406v191.7l8.461,9.621V405.965c0-17.542,20.046-26.939,33.194-15.975a.4.4,0,0,1,.309.155.432.432,0,0,0,.325.155,19.875,19.875,0,0,1,7.827,15.974V558.819h23.8V360.867h45.1V558.831h31.631V444.187h67.037V553.82h18.175V410.672l48.863-48.866-1.562,280.032s-71.105,2.507-71.105,0Zm393.1-283.476V641.838h69.543v.94H2283.56v-.94h14.091c0,1.988,44.717.823,63.232.255,11.137.608,69.806.136,97.849-.255h35.313V460.789c0-20.36-21.3-21.3-21.3-21.3-17.231,0-19.1,19.107-19.1,19.107v89.586h-19.1V476.764h-15.669V411.925h-59.829v36.021l-37.587,37.587v68.286h-12.529V460.789c0-20.36-21.3-21.3-21.3-21.3-17.231,0-19.1,19.107-19.1,19.107V558.827h-20.681V514.352a19.877,19.877,0,0,0-7.827-15.975.4.4,0,0,1-.309-.155.436.436,0,0,0-.325-.155,20.49,20.49,0,0,0-33.519,15.975V596.11h-60.556l-3.016-3.445v-158.5h-35.406V540.351L2093.1,451.7v-60.14a33.021,33.021,0,0,0-33.194-33.2ZM1126.77,641.838c0,1.982,44.423.831,63.047.262,11.446.6,69.961.128,97.865-.262H1458.8l-.263-.309h46.945v.309H1534.3v-.309h45.723V406.912h-20.665c-16.922,0-30.7,121.849-30.7,138.763v67.973h-16.906V558.831h-26v-54.5s-2.506-1.879-6.265-5.012c-14.416-11.276-35.715-1.253-35.715,17.228V624.734l-28.182-32.072V509.027h-35.406v31.324L1366.4,526.567v-60.14a33.011,33.011,0,0,0-33.194-33.2h-16.612v12.015a26.954,26.954,0,0,0-14.71-5.751c-17.231,0-19.118,19.107-19.118,19.107v89.586h-19.412V476.764h-15.669V411.925h-59.83v36.334l-37.262,37.277v68.286h-12.529V460.789c0-20.36-21.315-21.3-21.315-21.3-17.216,0-19.1,19.107-19.1,19.107V558.827H1076.98V514.352a20.954,20.954,0,0,0-7.842-16.289l-.619-.309A20.674,20.674,0,0,0,1035,514.038V628.37a13.372,13.372,0,0,0,13.472,13.468h78.3Zm1739.4-126.859V553.82h21.3V485.534l37.912-37.9v-14.41h16.6a33.012,33.012,0,0,1,33.193,33.2v60.136l13.781,13.783V509.027h35.406v83.634l43.217,49.177H2934.768c-.495.019-71.105,2.5-71.105,0v-.309h-.309v1.253H2692.636v-.94h-3.759v-.309h-46.945l.278.309H2500V433.224h16.6a33.025,33.025,0,0,1,33.209,33.2v60.14l13.782,13.783V509.027h35.39v83.634l28.2,32.072V516.544c0-18.481,21.3-28.5,35.7-17.228,3.759,3.132,6.265,5.012,6.265,5.012v54.5h26V565.1H2814.8V545.675a30.748,30.748,0,0,1,30.7-30.7Z" transform="translate(-1091 201.842)" fill="#fff" fill-rule="evenodd" opacity="0.09"/>
  </g>
</svg>
