<svg xmlns="http://www.w3.org/2000/svg" width="20" height="20" viewBox="0 0 20 20">
  <path id="check_circle_24dp_5F6368_FILL1_wght300_GRAD0_opsz24" d="M108.506-845.522l7.077-7.077-1.109-1.109-5.968,5.968-3-3-1.109,1.109ZM110-840a9.742,9.742,0,0,1-3.9-.787,10.1,10.1,0,0,1-3.176-2.137,10.1,10.1,0,0,1-2.138-3.174A9.733,9.733,0,0,1,100-850a9.742,9.742,0,0,1,.787-3.9,10.1,10.1,0,0,1,2.137-3.176,10.1,10.1,0,0,1,3.174-2.138A9.733,9.733,0,0,1,110-860a9.742,9.742,0,0,1,3.9.787,10.1,10.1,0,0,1,3.176,2.137,10.1,10.1,0,0,1,2.138,3.174A9.733,9.733,0,0,1,120-850a9.742,9.742,0,0,1-.787,3.9,10.1,10.1,0,0,1-2.137,3.176,10.1,10.1,0,0,1-3.174,2.138A9.733,9.733,0,0,1,110-840Z" transform="translate(-100 860)" fill="#50c25f"/>
</svg>
