<svg xmlns="http://www.w3.org/2000/svg" xmlns:xlink="http://www.w3.org/1999/xlink" width="797.25" height="525.5" viewBox="0 0 797.25 525.5">
  <defs>
    <filter id="Rectangle_5724" x="0" y="0" width="774" height="466" filterUnits="userSpaceOnUse">
      <feOffset dy="3" input="SourceAlpha"/>
      <feGaussianBlur stdDeviation="13" result="blur"/>
      <feFlood flood-opacity="0.102"/>
      <feComposite operator="in" in2="blur"/>
      <feComposite in="SourceGraphic"/>
    </filter>
    <filter id="Rectangle_3658" x="514" y="5" width="259" height="148" filterUnits="userSpaceOnUse">
      <feOffset dy="3" input="SourceAlpha"/>
      <feGaussianBlur stdDeviation="18" result="blur-2"/>
      <feFlood flood-color="#50c25f" flood-opacity="0.6"/>
      <feComposite operator="in" in2="blur-2"/>
      <feComposite in="SourceGraphic"/>
    </filter>
    <clipPath id="clip-path">
      <path id="Mask" d="M46,92A46.012,46.012,0,0,1,28.095,3.615a46.012,46.012,0,0,1,35.811,84.77A45.713,45.713,0,0,1,46,92Zm0-78.955A32.955,32.955,0,1,0,78.955,46,32.992,32.992,0,0,0,46,13.045Z" transform="translate(0.061 0.459)" fill="#00c650"/>
    </clipPath>
    <clipPath id="clip-path-2">
      <path id="Mask-2" data-name="Mask" d="M44,88A44.012,44.012,0,0,1,26.873,3.458,44.011,44.011,0,0,1,61.127,84.542,43.725,43.725,0,0,1,44,88Zm0-75.522A31.522,31.522,0,1,0,75.522,44,31.558,31.558,0,0,0,44,12.478Z" transform="translate(0 0)" fill="#00c650"/>
    </clipPath>
    <filter id="Rectangle_3509" x="332.25" y="180.5" width="465" height="345" filterUnits="userSpaceOnUse">
      <feOffset input="SourceAlpha"/>
      <feGaussianBlur stdDeviation="13" result="blur-3"/>
      <feFlood flood-opacity="0.102"/>
      <feComposite operator="in" in2="blur-3"/>
      <feComposite in="SourceGraphic"/>
    </filter>
  </defs>
  <g id="Group_10086" data-name="Group 10086" transform="translate(-913 -5745)">
    <g id="Group_10080" data-name="Group 10080">
      <g transform="matrix(1, 0, 0, 1, 913, 5745)" filter="url(#Rectangle_5724)">
        <rect id="Rectangle_5724-2" data-name="Rectangle 5724" width="696" height="388" rx="16" transform="translate(39 36)" fill="#fff"/>
      </g>
      <g id="Group_10065" data-name="Group 10065" transform="translate(665 2338)">
        <g transform="matrix(1, 0, 0, 1, 248, 3407)" filter="url(#Rectangle_3658)">
          <rect id="Rectangle_3658-2" data-name="Rectangle 3658" width="151" height="40" rx="10" transform="translate(568 56)" fill="#50c25f"/>
        </g>
        <g id="Group_10079" data-name="Group 10079" transform="translate(839 3472)">
          <text id="Add_site" data-name="Add site" transform="translate(23 16)" fill="#fff" font-size="16" font-family="NunitoSans-Regular, Nunito Sans"><tspan x="0" y="0">Add Report</tspan></text>
          <path id="add_FILL0_wght300_GRAD0_opsz20" d="M11.145,18.6V12.659H5.208V11.145h5.937V5.208h1.514v5.937H18.6v1.514H12.659V18.6Z" transform="translate(-5.208 -1.017)" fill="#fff"/>
        </g>
      </g>
      <g id="Group_9795" data-name="Group 9795" transform="translate(968 5861)">
        <g id="Rectangle_3864" data-name="Rectangle 3864" fill="#fff" stroke="#f2f2f2" stroke-width="1">
          <rect width="231" height="168" rx="4" stroke="none"/>
          <rect x="0.5" y="0.5" width="230" height="167" rx="3.5" fill="none"/>
        </g>
        <text id="Job_Duty_Completion" data-name="Job Duty Completion" transform="translate(11 28)" fill="#323a45" font-size="16" font-family="NunitoSans-Regular, Nunito Sans"><tspan x="0" y="0">Job Duty Completion</tspan></text>
        <text id="Date_range:_This_Month" data-name="Date range: This Month" transform="translate(11 47)" fill="#8b959e" font-size="9" font-family="NunitoSans-Regular, Nunito Sans"><tspan x="0" y="0">Date range: This Month</tspan></text>
        <g id="Group_5610" data-name="Group 5610" transform="translate(113.766 77.667)">
          <text id="Accepted" transform="translate(13.234 8.333)" fill="#8b959e" font-size="8" font-family="NunitoSans-Regular, Nunito Sans"><tspan x="0" y="0">Complete</tspan></text>
          <text id="_75" data-name="75" transform="translate(85.234 9.333)" fill="#8b959e" font-size="9" font-family="NunitoSans-Regular, Nunito Sans"><tspan x="0" y="0">75%</tspan></text>
          <rect id="Rectangle_3883" data-name="Rectangle 3883" width="10" height="10" rx="5" transform="translate(0.234 1.333)" fill="#21bf73"/>
        </g>
        <g id="Group_5609" data-name="Group 5609" transform="translate(113.766 99.546)">
          <text id="Declined" transform="translate(13.234 9.455)" fill="#8b959e" font-size="9" font-family="NunitoSans-Regular, Nunito Sans"><tspan x="0" y="0">Late</tspan></text>
          <text id="_75-2" data-name="75" transform="translate(85.234 9.455)" fill="#8b959e" font-size="9" font-family="NunitoSans-Regular, Nunito Sans"><tspan x="0" y="0">15%</tspan></text>
          <rect id="Rectangle_3880" data-name="Rectangle 3880" width="10" height="10" rx="5" transform="translate(0.234 2.454)" fill="#ffe75e"/>
        </g>
        <g id="Group_5608" data-name="Group 5608" transform="translate(113.766 121.423)">
          <text id="Not_Responded" data-name="Not Responded" transform="translate(13.234 7.577)" fill="#8b959e" font-size="8" font-family="NunitoSans-Regular, Nunito Sans"><tspan x="0" y="0">Missed</tspan></text>
          <rect id="Rectangle_3873" data-name="Rectangle 3873" width="10" height="9" rx="4.5" transform="translate(0.234 2.577)" fill="#ff634d"/>
          <text id="_75-3" data-name="75" transform="translate(85.234 8.577)" fill="#8b959e" font-size="9" font-family="NunitoSans-Regular, Nunito Sans"><tspan x="0" y="0">10%</tspan></text>
        </g>
        <line id="Line_145" data-name="Line 145" y2="12.438" transform="translate(58.052 68.58)" fill="none" stroke="#fff" stroke-width="1"/>
        <line id="Line_141" data-name="Line 141" x1="15.722" transform="translate(91.242 112.478)" fill="none" stroke="#fff" stroke-width="1"/>
        <line id="Line_146" data-name="Line 146" x1="15.722" y1="10.975" transform="translate(16.126 82.48)" fill="none" stroke="#fff" stroke-width="1"/>
        <g id="Group_5597" data-name="Group 5597" transform="translate(21.367 68.58)">
          <line id="Line_30" data-name="Line 30" y2="13.901" transform="translate(39.305)" fill="none" stroke="#fff" stroke-width="1"/>
          <line id="Line_31" data-name="Line 31" x2="12.228" y2="9.511" transform="translate(0 16.096)" fill="none" stroke="#fff" stroke-width="1"/>
          <line id="Line_32" data-name="Line 32" x2="20.089" transform="translate(69.875 45.362)" fill="none" stroke="#fff" stroke-width="1"/>
        </g>
        <g id="Group_2" data-name="Group 2" transform="translate(10.939 64.541)">
          <g id="Chart" transform="translate(0 0)">
            <path id="Mask-3" data-name="Mask" d="M46,92A46.012,46.012,0,0,1,28.095,3.615a46.012,46.012,0,0,1,35.811,84.77A45.713,45.713,0,0,1,46,92Zm0-78.955A32.955,32.955,0,1,0,78.955,46,32.992,32.992,0,0,0,46,13.045Z" transform="translate(0.061 0.459)" fill="#21bf73"/>
            <g id="Chart-2" data-name="Chart" transform="translate(0 0)" clip-path="url(#clip-path)">
              <rect id="Rectangle_5" data-name="Rectangle 5" width="60" height="58" transform="translate(46.061 -8.541)" fill="#d8d8d8"/>
              <rect id="Rectangle_5-2" data-name="Rectangle 5" width="60" height="58" transform="translate(46.061 -8.541)" fill="#ffe75e"/>
              <path id="Rectangle_5-3" data-name="Rectangle 5" d="M0,23.7,21.564,0,43.089,1.4,42.022,60.892Z" transform="translate(2.925 -11.294)" fill="#ff634d"/>
            </g>
          </g>
          <text id="_75_" data-name="75%" transform="translate(24.061 53.459)" fill="#21bf73" font-size="21" font-family="NunitoSans-Bold, Nunito Sans" font-weight="700"><tspan x="0" y="0">75%</tspan></text>
        </g>
      </g>
      <g id="Group_10071" data-name="Group 10071" transform="translate(1214.129 5861)">
        <g id="Rectangle_3863" data-name="Rectangle 3863" transform="translate(-0.129)" fill="#fff" stroke="#f2f2f2" stroke-width="1">
          <rect width="201" height="168" rx="4" stroke="none"/>
          <rect x="0.5" y="0.5" width="200" height="167" rx="3.5" fill="none"/>
        </g>
        <text id="Incident_Report_Analysis" data-name="Incident Report Analysis" transform="translate(6.871 28)" fill="#323a45" font-size="16" font-family="NunitoSans-Regular, Nunito Sans"><tspan x="0" y="0">Incident Report Analysis</tspan></text>
        <text id="Date_range:_This_Year" data-name="Date range: This Year" transform="translate(6.871 47)" fill="#8b959e" font-size="9" font-family="NunitoSans-Regular, Nunito Sans"><tspan x="0" y="0">Date range: This Year</tspan></text>
        <g id="Group_10067" data-name="Group 10067" transform="translate(30.629 152.053)">
          <text id="Jan" transform="translate(0.242 6.947)" fill="#8b959e" font-size="7" font-family="NunitoSans-Regular, Nunito Sans"><tspan x="0" y="0">Jan</tspan></text>
          <text id="Jun" transform="translate(71.242 6.947)" fill="#8b959e" font-size="7" font-family="NunitoSans-Regular, Nunito Sans"><tspan x="0" y="0">Jun</tspan></text>
          <text id="Mar" transform="translate(35.242 6.947)" fill="#8b959e" font-size="7" font-family="NunitoSans-Regular, Nunito Sans"><tspan x="0" y="0">Mar</tspan></text>
          <text id="Sept" transform="translate(104.242 6.947)" fill="#8b959e" font-size="7" font-family="NunitoSans-Regular, Nunito Sans"><tspan x="0" y="0">Sept</tspan></text>
          <text id="Dec" transform="translate(142.242 6.947)" fill="#8b959e" font-size="7" font-family="NunitoSans-Regular, Nunito Sans"><tspan x="0" y="0">Dec</tspan></text>
        </g>
        <g id="Group_10070" data-name="Group 10070" transform="translate(8.751 54.695)">
          <g id="Group_10069" data-name="Group 10069" transform="translate(21.841 8.204)">
            <line id="Line_14" data-name="Line 14" x2="161.065" transform="translate(0 85.325)" fill="none" stroke="#e1e1e1" stroke-width="0.5"/>
            <line id="Line_15" data-name="Line 15" x2="161.065" transform="translate(0 63.446)" fill="none" stroke="#e1e1e1" stroke-width="0.5"/>
            <line id="Line_16" data-name="Line 16" x2="161.065" transform="translate(0 41.568)" fill="none" stroke="#e1e1e1" stroke-width="0.5"/>
            <line id="Line_17" data-name="Line 17" x2="161.065" transform="translate(0 20.784)" fill="none" stroke="#e1e1e1" stroke-width="0.5"/>
            <line id="Line_18" data-name="Line 18" x2="161.065" fill="none" stroke="#e1e1e1" stroke-width="0.5"/>
          </g>
          <g id="Group_10068" data-name="Group 10068">
            <g id="Group_10066" data-name="Group 10066">
              <text id="_100" data-name="100" transform="translate(0.12 9.304)" fill="#8b959e" font-size="9" font-family="NunitoSans-Regular, Nunito Sans"><tspan x="0" y="0">100</tspan></text>
              <text id="_80" data-name="80" transform="translate(0.12 28.304)" fill="#8b959e" font-size="9" font-family="NunitoSans-Regular, Nunito Sans"><tspan x="0" y="0">80</tspan></text>
              <text id="_60" data-name="60" transform="translate(0.12 50.304)" fill="#8b959e" font-size="9" font-family="NunitoSans-Regular, Nunito Sans"><tspan x="0" y="0">60</tspan></text>
              <text id="_40" data-name="40" transform="translate(0.12 71.304)" fill="#8b959e" font-size="9" font-family="NunitoSans-Regular, Nunito Sans"><tspan x="0" y="0">40</tspan></text>
              <text id="_20" data-name="20" transform="translate(0.12 91.304)" fill="#8b959e" font-size="9" font-family="NunitoSans-Regular, Nunito Sans"><tspan x="0" y="0">20</tspan></text>
            </g>
            <g id="Group_5594" data-name="Group 5594" transform="translate(26.254 7.657)">
              <rect id="Rectangle_7" data-name="Rectangle 7" width="5" height="87" rx="2" transform="translate(-0.134 -0.353)" fill="#786ce6"/>
              <rect id="Rectangle_131" data-name="Rectangle 131" width="4" height="45" rx="2" transform="translate(68.866 41.647)" fill="#786ce6"/>
              <rect id="Rectangle_21" data-name="Rectangle 21" width="5" height="87" rx="2" transform="translate(26.867 -0.353)" fill="#786ce6"/>
              <rect id="Rectangle_129" data-name="Rectangle 129" width="5" height="58" rx="2" transform="translate(95.866 28.647)" fill="#786ce6"/>
              <rect id="Rectangle_20" data-name="Rectangle 20" width="5" height="78" rx="2" transform="translate(13.866 8.647)" fill="#786ce6"/>
              <rect id="Rectangle_130" data-name="Rectangle 130" width="5" height="51" rx="2" transform="translate(81.866 35.647)" fill="#786ce6"/>
              <rect id="Rectangle_22" data-name="Rectangle 22" width="4" height="58" rx="2" transform="translate(41.867 28.647)" fill="#786ce6"/>
              <rect id="Rectangle_128" data-name="Rectangle 128" width="4" height="42" rx="2" transform="translate(109.867 44.647)" fill="#786ce6"/>
              <rect id="Rectangle_132" data-name="Rectangle 132" width="4" height="14" rx="2" transform="translate(150.866 72.647)" fill="#786ce6"/>
              <rect id="Rectangle_23" data-name="Rectangle 23" width="4" height="49" rx="2" transform="translate(54.867 37.647)" fill="#786ce6"/>
              <rect id="Rectangle_127" data-name="Rectangle 127" width="4" height="32" rx="2" transform="translate(123.867 54.647)" fill="#786ce6"/>
              <rect id="Rectangle_24" data-name="Rectangle 24" width="4" height="28" rx="2" transform="translate(136.866 58.647)" fill="#786ce6"/>
            </g>
          </g>
        </g>
        <g id="Group_5600" data-name="Group 5600" transform="translate(120.059 36.099)">
          <text id="_190" data-name="190" transform="translate(0 14.9)" fill="#786ce6" font-size="15" font-family="NunitoSans-Bold, Nunito Sans" font-weight="700"><tspan x="0" y="0">190</tspan></text>
          <g id="Group_357" data-name="Group 357" transform="translate(31.43 3.281)">
            <text id="_20.5_" data-name="20.5%" transform="translate(10.633 9.619)" fill="#8b959e" font-size="9" font-family="NunitoSans-Regular, Nunito Sans"><tspan x="0" y="0">20.5%</tspan></text>
            <g id="play_arrow-black-48dp" transform="translate(10.626 2.188) rotate(90)">
              <path id="Path_60" data-name="Path 60" d="M0,0V6.2L4.079,3.1Z" transform="translate(2.432 2.214)" fill="#ff3838"/>
              <path id="Path_61" data-name="Path 61" d="M0,0H8.9V10.626H0Z" fill="none"/>
            </g>
          </g>
        </g>
      </g>
      <g id="Group_10077" data-name="Group 10077" transform="translate(1430.722 5861)">
        <g id="Rectangle_3866" data-name="Rectangle 3866" transform="translate(0.278)" fill="#fff" stroke="#f2f2f2" stroke-width="1">
          <rect width="201" height="168" rx="4" stroke="none"/>
          <rect x="0.5" y="0.5" width="200" height="167" rx="3.5" fill="none"/>
        </g>
        <text id="Tour_Report_Analysis" data-name="Tour Report Analysis" transform="translate(11.278 28)" fill="#323a45" font-size="16" font-family="NunitoSans-Regular, Nunito Sans"><tspan x="0" y="0">Tour Report Analysis</tspan></text>
        <text id="Date_range:_This_Month-2" data-name="Date range: This Month" transform="translate(11.278 47)" fill="#8b959e" font-size="9" font-family="NunitoSans-Regular, Nunito Sans"><tspan x="0" y="0">Date range: This Month</tspan></text>
        <g id="Group_10076" data-name="Group 10076" transform="translate(107.123 75.48)">
          <g id="Group_10072" data-name="Group 10072" transform="translate(0.08 0)">
            <text id="Accepted-2" data-name="Accepted" transform="translate(11.076 8.521)" fill="#8b959e" font-size="9" font-family="NunitoSans-Regular, Nunito Sans"><tspan x="0" y="0">On Time</tspan></text>
            <text id="_75-4" data-name="75" transform="translate(83.076 8.52)" fill="#8b959e" font-size="9" font-family="NunitoSans-Regular, Nunito Sans"><tspan x="-19" y="0">65%</tspan></text>
            <rect id="Rectangle_50" data-name="Rectangle 50" width="8" height="8" rx="4" transform="translate(0.076 1.521)" fill="#21bf73"/>
          </g>
          <g id="Group_10073" data-name="Group 10073" transform="translate(0 16.409)">
            <text id="Declined-2" data-name="Declined" transform="translate(11.156 9.111)" fill="#8b959e" font-size="9" font-family="NunitoSans-Regular, Nunito Sans"><tspan x="0" y="0">Late</tspan></text>
            <text id="_75-5" data-name="75" transform="translate(83.156 9.111)" fill="#8b959e" font-size="9" font-family="NunitoSans-Regular, Nunito Sans"><tspan x="-19" y="0">15%</tspan></text>
            <path id="Path_77" data-name="Path 77" d="M3.786,0A3.786,3.786,0,1,1,0,3.786,3.786,3.786,0,0,1,3.786,0Z" transform="translate(0 2.188)" fill="#f6d743"/>
          </g>
          <g id="Group_10074" data-name="Group 10074" transform="translate(0.08 32.817)">
            <text id="Not_Responded-2" data-name="Not Responded" transform="translate(11.076 7.703)" fill="#8b959e" font-size="8" font-family="NunitoSans-Regular, Nunito Sans"><tspan x="0" y="0">Missed</tspan></text>
            <rect id="Rectangle_52" data-name="Rectangle 52" width="8" height="8" rx="4" transform="translate(0.076 1.703)" fill="#ff634d"/>
            <text id="_75-6" data-name="75" transform="translate(82.076 7.703)" fill="#8b959e" font-size="8" font-family="NunitoSans-Regular, Nunito Sans"><tspan x="-12" y="0">8%</tspan></text>
          </g>
          <g id="Group_10075" data-name="Group 10075" transform="translate(0.08 49.226)">
            <text id="Not_Responded-3" data-name="Not Responded" transform="translate(11.076 8.295)" fill="#8b959e" font-size="8" font-family="NunitoSans-Regular, Nunito Sans"><tspan x="0" y="0">Incomplete</tspan></text>
            <rect id="Rectangle_242" data-name="Rectangle 242" width="8" height="8" rx="4" transform="translate(0.076 2.295)" fill="#6886c5"/>
            <text id="_75-7" data-name="75" transform="translate(83.076 9.295)" fill="#8b959e" font-size="9" font-family="NunitoSans-Regular, Nunito Sans"><tspan x="-19" y="0">12%</tspan></text>
          </g>
        </g>
        <line id="Line_151" data-name="Line 151" y2="10.804" transform="translate(50.399 68.97)" fill="none" stroke="#fff" stroke-width="1"/>
        <line id="Line_143" data-name="Line 143" x1="13.657" transform="translate(79.231 107.103)" fill="none" stroke="#fff" stroke-width="1"/>
        <line id="Line_152" data-name="Line 152" x1="13.657" y1="9.533" transform="translate(13.98 81.045)" fill="none" stroke="#fff" stroke-width="1"/>
        <g id="Group_5598" data-name="Group 5598" transform="translate(8.67 67.7)">
          <line id="Line_30-2" data-name="Line 30" y2="12.075" transform="translate(41.73)" fill="none" stroke="#fff" stroke-width="1"/>
          <line id="Line_31-2" data-name="Line 31" x2="10.622" y2="8.262" transform="translate(9.105 12.075)" fill="none" stroke="#fff" stroke-width="1"/>
          <line id="Line_33" data-name="Line 33" y1="4.449" x2="14.416" transform="translate(0 45.759)" fill="none" stroke="#fff" stroke-width="1"/>
          <line id="Line_32-2" data-name="Line 32" x2="17.451" transform="translate(68.285 39.404)" fill="none" stroke="#fff" stroke-width="1"/>
        </g>
        <g id="Group_2-2" data-name="Group 2" transform="translate(10.939 61.54)">
          <g id="Chart-3" data-name="Chart" transform="translate(0.339 0.459)">
            <path id="Mask-4" data-name="Mask" d="M44,88A44.012,44.012,0,0,1,26.873,3.458,44.011,44.011,0,0,1,61.127,84.542,43.726,43.726,0,0,1,44,88Zm0-75.522A31.522,31.522,0,1,0,75.522,44,31.558,31.558,0,0,0,44,12.478Z" fill="#21bf73"/>
            <g id="Chart-4" data-name="Chart" transform="translate(0 0)" clip-path="url(#clip-path-2)">
              <rect id="Rectangle_5-4" data-name="Rectangle 5" width="57.253" height="57.253" transform="translate(44.53 -10.602)" fill="#d8d8d8"/>
              <rect id="Rectangle_5-5" data-name="Rectangle 5" width="57.253" height="57.253" transform="translate(44.53 -10.602)" fill="#ffe75e"/>
              <path id="Rectangle_5-6" data-name="Rectangle 5" d="M0,23.012,20.938,0l20.9,1.359L40.8,59.124Z" transform="translate(3.264 -12.176)" fill="#ff634d"/>
              <path id="Rectangle_5-7" data-name="Rectangle 5" d="M0,30.441,28,0,48.9,1.359,51.72,52.506Z" transform="matrix(0.719, -0.695, 0.695, 0.719, -29.612, 41.823)" fill="#6886c5"/>
            </g>
          </g>
          <text id="_43_" data-name="43%" transform="translate(26.166 49.46)" fill="#21bf73" font-size="17" font-family="NunitoSans-Bold, Nunito Sans" font-weight="700"><tspan x="0" y="0">43%</tspan></text>
        </g>
      </g>
      <g id="Group_10078" data-name="Group 10078" transform="translate(149 85)">
        <g id="Group_4941" data-name="Group 4941" transform="translate(1203.667 5716)">
          <g id="Group_1365" data-name="Group 1365" transform="translate(0)">
            <rect id="Rectangle_801" data-name="Rectangle 801" width="114" height="40" rx="4" transform="translate(0.333)" fill="#f7f8fa"/>
          </g>
          <g id="Group_5553" data-name="Group 5553" transform="translate(18.666 12)">
            <path id="expand_more_FILL0_wght300_GRAD0_opsz20" d="M11.331,14.347,5.292,8.28l.988-.988,5.051,5.05,5.051-5.05.988.988Z" transform="translate(61.241 -3.293)" fill="#8b959e"/>
            <g id="Group_4139" data-name="Group 4139">
              <g id="Group_4940" data-name="Group 4940">
                <text id="Action" transform="translate(21.667 13)" fill="#8b959e" font-size="16" font-family="ProximaNova-Regular, Proxima Nova"><tspan x="-22" y="0">Action</tspan></text>
              </g>
            </g>
          </g>
        </g>
        <g id="Group_5272" data-name="Group 5272" transform="translate(1081 5716)">
          <rect id="Rectangle_3658-3" data-name="Rectangle 3658" width="109" height="40" rx="4" fill="#f7f8fa"/>
          <g id="Group_5191" data-name="Group 5191" transform="translate(22.011 9.999)">
            <text id="Share" transform="translate(44.263 15)" fill="#8b959e" font-size="15" font-family="NunitoSans-Regular, Nunito Sans"><tspan x="-19" y="0">Share</tspan></text>
            <path id="Path_13594" data-name="Path 13594" d="M15.324,13.568a2.392,2.392,0,0,0-1.61.633l-5.858-3.41a2.689,2.689,0,0,0,.074-.575,2.689,2.689,0,0,0-.074-.575l5.792-3.377a2.459,2.459,0,1,0-.789-1.8,2.689,2.689,0,0,0,.074.575L7.141,8.417a2.465,2.465,0,1,0,0,3.6l5.85,3.418a2.318,2.318,0,0,0-.066.534,2.4,2.4,0,1,0,2.4-2.4Z" transform="translate(-2.011 0.426)" fill="#8b959e"/>
          </g>
        </g>
      </g>
      <text id="Name" transform="translate(968 5826)" fill="#323a45" font-size="16" font-family="Nunito Sans"><tspan x="0" y="0">Dashboard</tspan></text>
    </g>
    <g id="Group_10082" data-name="Group 10082" transform="translate(-9328.75 -3220.5)">
      <g transform="matrix(1, 0, 0, 1, 10241.75, 8965.5)" filter="url(#Rectangle_3509)">
        <rect id="Rectangle_3509-2" data-name="Rectangle 3509" width="387" height="267" rx="4" transform="translate(371.25 219.5)" fill="#fff"/>
      </g>
      <text id="Create_Dashboard" data-name="Create Dashboard" transform="translate(10625 9211)" fill="#323a45" font-size="14" font-family="NunitoSans-Regular, Nunito Sans"><tspan x="0" y="0">Create Dashboard</tspan></text>
      <text id="Save" transform="translate(10988 9211)" fill="#786ce6" font-size="14" font-family="NunitoSans-Regular, Nunito Sans"><tspan x="-30" y="0">Save</tspan></text>
      <g id="Group_10041" data-name="Group 10041" transform="translate(6 84)">
        <g id="Group_10084" data-name="Group 10084">
          <g id="Rectangle_3499" data-name="Rectangle 3499" transform="translate(10619 9170)" fill="rgba(255,255,255,0)" stroke="#dadada" stroke-width="1">
            <rect width="363" height="40" rx="4" stroke="none"/>
            <rect x="0.5" y="0.5" width="362" height="39" rx="3.5" fill="none"/>
          </g>
          <text id="Started_Duty:_On_Tim" data-name="Started Duty: On Tim" transform="translate(10619 9160)" fill="#8b959e" font-size="13" font-family="NunitoSans-Regular, Nunito Sans"><tspan x="0" y="0">Name</tspan><tspan y="0" fill="#ff3838">*</tspan></text>
          <text id="Started_Duty:_On_Tim-2" data-name="Started Duty: On Tim" transform="translate(10634 9194)" fill="#8b959e" font-size="13" font-family="NunitoSans-Regular, Nunito Sans" opacity="0.5"><tspan x="0" y="0">Enter name</tspan></text>
        </g>
        <g id="Group_10085" data-name="Group 10085" transform="translate(0 4)">
          <g id="Rectangle_5855" data-name="Rectangle 5855" transform="translate(10619 9293.5)" fill="rgba(255,255,255,0)" stroke="#dadada" stroke-width="1">
            <rect width="363" height="40" rx="4" stroke="none"/>
            <rect x="0.5" y="0.5" width="362" height="39" rx="3.5" fill="none"/>
          </g>
          <text id="Started_Duty:_On_Tim-3" data-name="Started Duty: On Tim" transform="translate(10634 9317)" fill="#8b959e" font-size="13" font-family="NunitoSans-Regular, Nunito Sans"><tspan x="0" y="0">Make Default</tspan></text>
          <g id="Group_5409" data-name="Group 5409" transform="translate(9078.75 9001.5)">
            <rect id="Rectangle_3733" data-name="Rectangle 3733" width="43" height="19" rx="9.5" transform="translate(1847 302)" fill="#f2f2f2"/>
            <rect id="Rectangle_3734" data-name="Rectangle 3734" width="13" height="13" rx="6.5" transform="translate(1852 305)" fill="#8b959e"/>
          </g>
        </g>
        <g id="Group_10083" data-name="Group 10083" transform="translate(0 2)">
          <g id="Rectangle_4010" data-name="Rectangle 4010" transform="translate(10619 9243)" fill="rgba(255,255,255,0)" stroke="#dadada" stroke-width="1">
            <rect width="363" height="40" rx="4" stroke="none"/>
            <rect x="0.5" y="0.5" width="362" height="39" rx="3.5" fill="none"/>
          </g>
          <text id="Started_Duty:_On_Tim-4" data-name="Started Duty: On Tim" transform="translate(10619 9233)" fill="#8b959e" font-size="13" font-family="NunitoSans-Regular, Nunito Sans"><tspan x="0" y="0">Description</tspan><tspan y="0" fill="#ff3838">*</tspan></text>
          <text id="Started_Duty:_On_Tim-5" data-name="Started Duty: On Tim" transform="translate(10634 9267)" fill="#8b959e" font-size="13" font-family="NunitoSans-Regular, Nunito Sans"><tspan x="0" y="0">Select Timesheet View</tspan></text>
          <path id="expand_more_FILL0_wght300_GRAD0_opsz20-2" data-name="expand_more_FILL0_wght300_GRAD0_opsz20" d="M9.821,12.583,5.292,8.033l.741-.741L9.821,11.08,13.61,7.292l.741.741Z" transform="translate(10954.458 9252.708)" fill="#8b959e"/>
        </g>
      </g>
      <line id="Line_180" data-name="Line 180" x2="387" transform="translate(10613.5 9224.5)" fill="none" stroke="#dadada" stroke-width="1"/>
    </g>
  </g>
</svg>
