<svg xmlns="http://www.w3.org/2000/svg" width="106" height="108.39" viewBox="0 0 106 108.39">
  <path id="notifications_active_24dp_5F6368_FILL0_wght300_GRAD0_opsz24" d="M104.62-818.131a50.669,50.669,0,0,1,5.3-23.058,53.475,53.475,0,0,1,14.321-17.844l5.223,6.592A44.539,44.539,0,0,0,117.5-837.475a42.783,42.783,0,0,0-4.414,19.343Zm97.529,0a42.949,42.949,0,0,0-4.414-19.37A44.476,44.476,0,0,0,185.772-852.5l5.223-6.537a53.476,53.476,0,0,1,14.321,17.844,50.669,50.669,0,0,1,5.3,23.058Zm-86.886,50.665v-8.47h10.209v-42.141a31.256,31.256,0,0,1,7.033-20.146,31.159,31.159,0,0,1,18.055-11.2v-3.518a6.8,6.8,0,0,1,2.064-5,6.8,6.8,0,0,1,5-2.064,6.8,6.8,0,0,1,5,2.064,6.8,6.8,0,0,1,2.064,5v3.518a31.16,31.16,0,0,1,18.055,11.2,31.256,31.256,0,0,1,7.033,20.146v42.141h10.209v8.47ZM157.62-808.845Zm0,57.236A9.834,9.834,0,0,1,150.4-754.6a9.834,9.834,0,0,1-2.993-7.218h20.419a9.834,9.834,0,0,1-2.993,7.218A9.834,9.834,0,0,1,157.62-751.61Zm-23.676-24.327H181.3v-42.141a22.811,22.811,0,0,0-6.934-16.741,22.814,22.814,0,0,0-16.742-6.935,22.814,22.814,0,0,0-16.742,6.935,22.811,22.811,0,0,0-6.934,16.741Z" transform="translate(-104.62 860)" fill="#4c98ec"/>
</svg>
