<svg xmlns="http://www.w3.org/2000/svg" xmlns:xlink="http://www.w3.org/1999/xlink" width="469" height="247" viewBox="0 0 469 247">
  <defs>
    <clipPath id="clip-path">
      <rect width="442" height="247" fill="none"/>
    </clipPath>
    <clipPath id="clip-path-2">
      <rect width="469" height="211" fill="none"/>
    </clipPath>
  </defs>
  <g id="Group_9323" data-name="Group 9323" transform="translate(-183 -1822)">
    <g id="Group_17" data-name="Group 17" transform="translate(0 630.5)">
      <g id="Repeat_Grid_1" data-name="Repeat Grid 1" transform="translate(196 1191.5)" clip-path="url(#clip-path)">
        <g transform="translate(-180 -1191.5)">
          <line id="Line_2" data-name="Line 2" y2="248" transform="translate(180.5 1191.5)" fill="none" stroke="#b5d6da" stroke-width="1"/>
        </g>
        <g transform="translate(-159 -1191.5)">
          <line id="Line_2-2" data-name="Line 2" y2="248" transform="translate(180.5 1191.5)" fill="none" stroke="#b5d6da" stroke-width="1"/>
        </g>
        <g transform="translate(-138 -1191.5)">
          <line id="Line_2-3" data-name="Line 2" y2="248" transform="translate(180.5 1191.5)" fill="none" stroke="#b5d6da" stroke-width="1"/>
        </g>
        <g transform="translate(-117 -1191.5)">
          <line id="Line_2-4" data-name="Line 2" y2="248" transform="translate(180.5 1191.5)" fill="none" stroke="#b5d6da" stroke-width="1"/>
        </g>
        <g transform="translate(-96 -1191.5)">
          <line id="Line_2-5" data-name="Line 2" y2="248" transform="translate(180.5 1191.5)" fill="none" stroke="#b5d6da" stroke-width="1"/>
        </g>
        <g transform="translate(-75 -1191.5)">
          <line id="Line_2-6" data-name="Line 2" y2="248" transform="translate(180.5 1191.5)" fill="none" stroke="#b5d6da" stroke-width="1"/>
        </g>
        <g transform="translate(-54 -1191.5)">
          <line id="Line_2-7" data-name="Line 2" y2="248" transform="translate(180.5 1191.5)" fill="none" stroke="#b5d6da" stroke-width="1"/>
        </g>
        <g transform="translate(-33 -1191.5)">
          <line id="Line_2-8" data-name="Line 2" y2="248" transform="translate(180.5 1191.5)" fill="none" stroke="#b5d6da" stroke-width="1"/>
        </g>
        <g transform="translate(-12 -1191.5)">
          <line id="Line_2-9" data-name="Line 2" y2="248" transform="translate(180.5 1191.5)" fill="none" stroke="#b5d6da" stroke-width="1"/>
        </g>
        <g transform="translate(9 -1191.5)">
          <line id="Line_2-10" data-name="Line 2" y2="248" transform="translate(180.5 1191.5)" fill="none" stroke="#b5d6da" stroke-width="1"/>
        </g>
        <g transform="translate(30 -1191.5)">
          <line id="Line_2-11" data-name="Line 2" y2="248" transform="translate(180.5 1191.5)" fill="none" stroke="#b5d6da" stroke-width="1"/>
        </g>
        <g transform="translate(51 -1191.5)">
          <line id="Line_2-12" data-name="Line 2" y2="248" transform="translate(180.5 1191.5)" fill="none" stroke="#b5d6da" stroke-width="1"/>
        </g>
        <g transform="translate(72 -1191.5)">
          <line id="Line_2-13" data-name="Line 2" y2="248" transform="translate(180.5 1191.5)" fill="none" stroke="#b5d6da" stroke-width="1"/>
        </g>
        <g transform="translate(93 -1191.5)">
          <line id="Line_2-14" data-name="Line 2" y2="248" transform="translate(180.5 1191.5)" fill="none" stroke="#b5d6da" stroke-width="1"/>
        </g>
        <g transform="translate(114 -1191.5)">
          <line id="Line_2-15" data-name="Line 2" y2="248" transform="translate(180.5 1191.5)" fill="none" stroke="#b5d6da" stroke-width="1"/>
        </g>
        <g transform="translate(135 -1191.5)">
          <line id="Line_2-16" data-name="Line 2" y2="248" transform="translate(180.5 1191.5)" fill="none" stroke="#b5d6da" stroke-width="1"/>
        </g>
        <g transform="translate(156 -1191.5)">
          <line id="Line_2-17" data-name="Line 2" y2="248" transform="translate(180.5 1191.5)" fill="none" stroke="#b5d6da" stroke-width="1"/>
        </g>
        <g transform="translate(177 -1191.5)">
          <line id="Line_2-18" data-name="Line 2" y2="248" transform="translate(180.5 1191.5)" fill="none" stroke="#b5d6da" stroke-width="1"/>
        </g>
        <g transform="translate(198 -1191.5)">
          <line id="Line_2-19" data-name="Line 2" y2="248" transform="translate(180.5 1191.5)" fill="none" stroke="#b5d6da" stroke-width="1"/>
        </g>
        <g transform="translate(219 -1191.5)">
          <line id="Line_2-20" data-name="Line 2" y2="248" transform="translate(180.5 1191.5)" fill="none" stroke="#b5d6da" stroke-width="1"/>
        </g>
        <g transform="translate(240 -1191.5)">
          <line id="Line_2-21" data-name="Line 2" y2="248" transform="translate(180.5 1191.5)" fill="none" stroke="#b5d6da" stroke-width="1"/>
        </g>
        <g transform="translate(261 -1191.5)">
          <line id="Line_2-22" data-name="Line 2" y2="248" transform="translate(180.5 1191.5)" fill="none" stroke="#b5d6da" stroke-width="1"/>
        </g>
      </g>
      <g id="Repeat_Grid_6" data-name="Repeat Grid 6" transform="translate(183 1211)" clip-path="url(#clip-path-2)">
        <g transform="translate(-182.5 -1211)">
          <line id="Line_3" data-name="Line 3" x2="469" transform="translate(182.5 1211.5)" fill="none" stroke="#b5d6da" stroke-width="1"/>
        </g>
        <g transform="translate(-182.5 -1190)">
          <line id="Line_3-2" data-name="Line 3" x2="469" transform="translate(182.5 1211.5)" fill="none" stroke="#b5d6da" stroke-width="1"/>
        </g>
        <g transform="translate(-182.5 -1169)">
          <line id="Line_3-3" data-name="Line 3" x2="469" transform="translate(182.5 1211.5)" fill="none" stroke="#b5d6da" stroke-width="1"/>
        </g>
        <g transform="translate(-182.5 -1148)">
          <line id="Line_3-4" data-name="Line 3" x2="469" transform="translate(182.5 1211.5)" fill="none" stroke="#b5d6da" stroke-width="1"/>
        </g>
        <g transform="translate(-182.5 -1127)">
          <line id="Line_3-5" data-name="Line 3" x2="469" transform="translate(182.5 1211.5)" fill="none" stroke="#b5d6da" stroke-width="1"/>
        </g>
        <g transform="translate(-182.5 -1106)">
          <line id="Line_3-6" data-name="Line 3" x2="469" transform="translate(182.5 1211.5)" fill="none" stroke="#b5d6da" stroke-width="1"/>
        </g>
        <g transform="translate(-182.5 -1085)">
          <line id="Line_3-7" data-name="Line 3" x2="469" transform="translate(182.5 1211.5)" fill="none" stroke="#b5d6da" stroke-width="1"/>
        </g>
        <g transform="translate(-182.5 -1064)">
          <line id="Line_3-8" data-name="Line 3" x2="469" transform="translate(182.5 1211.5)" fill="none" stroke="#b5d6da" stroke-width="1"/>
        </g>
        <g transform="translate(-182.5 -1043)">
          <line id="Line_3-9" data-name="Line 3" x2="469" transform="translate(182.5 1211.5)" fill="none" stroke="#b5d6da" stroke-width="1"/>
        </g>
        <g transform="translate(-182.5 -1022)">
          <line id="Line_3-10" data-name="Line 3" x2="469" transform="translate(182.5 1211.5)" fill="none" stroke="#b5d6da" stroke-width="1"/>
        </g>
        <g transform="translate(-182.5 -1001)">
          <line id="Line_3-11" data-name="Line 3" x2="469" transform="translate(182.5 1211.5)" fill="none" stroke="#b5d6da" stroke-width="1"/>
        </g>
      </g>
    </g>
    <path id="notifications_active_24dp_5F6368_FILL0_wght300_GRAD0_opsz24" d="M104.62-808.652a62.142,62.142,0,0,1,6.506-28.278,65.584,65.584,0,0,1,17.563-21.884l6.405,8.085a54.623,54.623,0,0,0-14.672,18.355,52.469,52.469,0,0,0-5.413,23.723Zm119.611,0a52.674,52.674,0,0,0-5.413-23.756A54.547,54.547,0,0,0,204.146-850.8l6.405-8.017a65.584,65.584,0,0,1,17.563,21.884,62.141,62.141,0,0,1,6.506,28.278ZM117.673-746.516V-756.9h12.521v-51.682a38.332,38.332,0,0,1,8.625-24.708,38.215,38.215,0,0,1,22.143-13.733v-4.315a8.341,8.341,0,0,1,2.532-6.126A8.341,8.341,0,0,1,169.62-860a8.341,8.341,0,0,1,6.126,2.532,8.341,8.341,0,0,1,2.532,6.126v4.315a38.215,38.215,0,0,1,22.143,13.733,38.333,38.333,0,0,1,8.625,24.708V-756.9h12.521v10.388ZM169.62-797.263Zm0,70.195a12.061,12.061,0,0,1-8.85-3.669,12.06,12.06,0,0,1-3.671-8.852h25.042a12.06,12.06,0,0,1-3.671,8.852A12.061,12.061,0,0,1,169.62-727.068ZM140.583-756.9h58.074v-51.682a27.976,27.976,0,0,0-8.5-20.531,27.979,27.979,0,0,0-20.533-8.505,27.979,27.979,0,0,0-20.533,8.505,27.976,27.976,0,0,0-8.5,20.531Z" transform="translate(248.38 2739)" fill="#4c98ec"/>
  </g>
</svg>
