<svg xmlns="http://www.w3.org/2000/svg" width="106.818" height="106.818" viewBox="0 0 106.818 106.818">
  <path id="schedule_24dp_5F6368_FILL0_wght300_GRAD0_opsz24" d="M172.934-781.14l5.926-5.926L157.626-808.3v-26.4h-8.433v29.818Zm-19.515,27.958a52.03,52.03,0,0,1-20.831-4.205A53.946,53.946,0,0,1,115.626-768.8a53.94,53.94,0,0,1-11.42-16.955A51.983,51.983,0,0,1,100-806.581a52.031,52.031,0,0,1,4.205-20.831,53.943,53.943,0,0,1,11.414-16.962,53.94,53.94,0,0,1,16.955-11.42A51.984,51.984,0,0,1,153.4-860a52.032,52.032,0,0,1,20.831,4.205,53.946,53.946,0,0,1,16.962,11.414,53.941,53.941,0,0,1,11.42,16.955,51.984,51.984,0,0,1,4.207,20.825,52.031,52.031,0,0,1-4.205,20.831A53.947,53.947,0,0,1,191.2-768.808a53.941,53.941,0,0,1-16.955,11.42A51.983,51.983,0,0,1,153.419-753.182ZM153.409-806.591Zm0,44.976a43.357,43.357,0,0,0,31.835-13.141,43.357,43.357,0,0,0,13.141-31.835,43.356,43.356,0,0,0-13.141-31.835,43.357,43.357,0,0,0-31.835-13.141,43.357,43.357,0,0,0-31.835,13.141,43.356,43.356,0,0,0-13.141,31.835,43.357,43.357,0,0,0,13.141,31.835A43.357,43.357,0,0,0,153.409-761.615Z" transform="translate(-100 860)" fill="#74b976"/>
</svg>
