<svg xmlns="http://www.w3.org/2000/svg" xmlns:xlink="http://www.w3.org/1999/xlink" width="469" height="247" viewBox="0 0 469 247">
  <defs>
    <clipPath id="clip-path">
      <rect width="442" height="247" fill="none"/>
    </clipPath>
    <clipPath id="clip-path-2">
      <rect width="469" height="211" fill="none"/>
    </clipPath>
  </defs>
  <g id="Group_9321" data-name="Group 9321" transform="translate(-726 -1178)">
    <g id="Group_15" data-name="Group 15" transform="translate(543 -13.5)">
      <g id="Repeat_Grid_1" data-name="Repeat Grid 1" transform="translate(196 1191.5)" clip-path="url(#clip-path)">
        <g transform="translate(-180 -1191.5)">
          <line id="Line_2" data-name="Line 2" y2="248" transform="translate(180.5 1191.5)" fill="none" stroke="#b5d6da" stroke-width="1"/>
        </g>
        <g transform="translate(-159 -1191.5)">
          <line id="Line_2-2" data-name="Line 2" y2="248" transform="translate(180.5 1191.5)" fill="none" stroke="#b5d6da" stroke-width="1"/>
        </g>
        <g transform="translate(-138 -1191.5)">
          <line id="Line_2-3" data-name="Line 2" y2="248" transform="translate(180.5 1191.5)" fill="none" stroke="#b5d6da" stroke-width="1"/>
        </g>
        <g transform="translate(-117 -1191.5)">
          <line id="Line_2-4" data-name="Line 2" y2="248" transform="translate(180.5 1191.5)" fill="none" stroke="#b5d6da" stroke-width="1"/>
        </g>
        <g transform="translate(-96 -1191.5)">
          <line id="Line_2-5" data-name="Line 2" y2="248" transform="translate(180.5 1191.5)" fill="none" stroke="#b5d6da" stroke-width="1"/>
        </g>
        <g transform="translate(-75 -1191.5)">
          <line id="Line_2-6" data-name="Line 2" y2="248" transform="translate(180.5 1191.5)" fill="none" stroke="#b5d6da" stroke-width="1"/>
        </g>
        <g transform="translate(-54 -1191.5)">
          <line id="Line_2-7" data-name="Line 2" y2="248" transform="translate(180.5 1191.5)" fill="none" stroke="#b5d6da" stroke-width="1"/>
        </g>
        <g transform="translate(-33 -1191.5)">
          <line id="Line_2-8" data-name="Line 2" y2="248" transform="translate(180.5 1191.5)" fill="none" stroke="#b5d6da" stroke-width="1"/>
        </g>
        <g transform="translate(-12 -1191.5)">
          <line id="Line_2-9" data-name="Line 2" y2="248" transform="translate(180.5 1191.5)" fill="none" stroke="#b5d6da" stroke-width="1"/>
        </g>
        <g transform="translate(9 -1191.5)">
          <line id="Line_2-10" data-name="Line 2" y2="248" transform="translate(180.5 1191.5)" fill="none" stroke="#b5d6da" stroke-width="1"/>
        </g>
        <g transform="translate(30 -1191.5)">
          <line id="Line_2-11" data-name="Line 2" y2="248" transform="translate(180.5 1191.5)" fill="none" stroke="#b5d6da" stroke-width="1"/>
        </g>
        <g transform="translate(51 -1191.5)">
          <line id="Line_2-12" data-name="Line 2" y2="248" transform="translate(180.5 1191.5)" fill="none" stroke="#b5d6da" stroke-width="1"/>
        </g>
        <g transform="translate(72 -1191.5)">
          <line id="Line_2-13" data-name="Line 2" y2="248" transform="translate(180.5 1191.5)" fill="none" stroke="#b5d6da" stroke-width="1"/>
        </g>
        <g transform="translate(93 -1191.5)">
          <line id="Line_2-14" data-name="Line 2" y2="248" transform="translate(180.5 1191.5)" fill="none" stroke="#b5d6da" stroke-width="1"/>
        </g>
        <g transform="translate(114 -1191.5)">
          <line id="Line_2-15" data-name="Line 2" y2="248" transform="translate(180.5 1191.5)" fill="none" stroke="#b5d6da" stroke-width="1"/>
        </g>
        <g transform="translate(135 -1191.5)">
          <line id="Line_2-16" data-name="Line 2" y2="248" transform="translate(180.5 1191.5)" fill="none" stroke="#b5d6da" stroke-width="1"/>
        </g>
        <g transform="translate(156 -1191.5)">
          <line id="Line_2-17" data-name="Line 2" y2="248" transform="translate(180.5 1191.5)" fill="none" stroke="#b5d6da" stroke-width="1"/>
        </g>
        <g transform="translate(177 -1191.5)">
          <line id="Line_2-18" data-name="Line 2" y2="248" transform="translate(180.5 1191.5)" fill="none" stroke="#b5d6da" stroke-width="1"/>
        </g>
        <g transform="translate(198 -1191.5)">
          <line id="Line_2-19" data-name="Line 2" y2="248" transform="translate(180.5 1191.5)" fill="none" stroke="#b5d6da" stroke-width="1"/>
        </g>
        <g transform="translate(219 -1191.5)">
          <line id="Line_2-20" data-name="Line 2" y2="248" transform="translate(180.5 1191.5)" fill="none" stroke="#b5d6da" stroke-width="1"/>
        </g>
        <g transform="translate(240 -1191.5)">
          <line id="Line_2-21" data-name="Line 2" y2="248" transform="translate(180.5 1191.5)" fill="none" stroke="#b5d6da" stroke-width="1"/>
        </g>
        <g transform="translate(261 -1191.5)">
          <line id="Line_2-22" data-name="Line 2" y2="248" transform="translate(180.5 1191.5)" fill="none" stroke="#b5d6da" stroke-width="1"/>
        </g>
      </g>
      <g id="Repeat_Grid_6" data-name="Repeat Grid 6" transform="translate(183 1211)" clip-path="url(#clip-path-2)">
        <g transform="translate(-182.5 -1211)">
          <line id="Line_3" data-name="Line 3" x2="469" transform="translate(182.5 1211.5)" fill="none" stroke="#b5d6da" stroke-width="1"/>
        </g>
        <g transform="translate(-182.5 -1190)">
          <line id="Line_3-2" data-name="Line 3" x2="469" transform="translate(182.5 1211.5)" fill="none" stroke="#b5d6da" stroke-width="1"/>
        </g>
        <g transform="translate(-182.5 -1169)">
          <line id="Line_3-3" data-name="Line 3" x2="469" transform="translate(182.5 1211.5)" fill="none" stroke="#b5d6da" stroke-width="1"/>
        </g>
        <g transform="translate(-182.5 -1148)">
          <line id="Line_3-4" data-name="Line 3" x2="469" transform="translate(182.5 1211.5)" fill="none" stroke="#b5d6da" stroke-width="1"/>
        </g>
        <g transform="translate(-182.5 -1127)">
          <line id="Line_3-5" data-name="Line 3" x2="469" transform="translate(182.5 1211.5)" fill="none" stroke="#b5d6da" stroke-width="1"/>
        </g>
        <g transform="translate(-182.5 -1106)">
          <line id="Line_3-6" data-name="Line 3" x2="469" transform="translate(182.5 1211.5)" fill="none" stroke="#b5d6da" stroke-width="1"/>
        </g>
        <g transform="translate(-182.5 -1085)">
          <line id="Line_3-7" data-name="Line 3" x2="469" transform="translate(182.5 1211.5)" fill="none" stroke="#b5d6da" stroke-width="1"/>
        </g>
        <g transform="translate(-182.5 -1064)">
          <line id="Line_3-8" data-name="Line 3" x2="469" transform="translate(182.5 1211.5)" fill="none" stroke="#b5d6da" stroke-width="1"/>
        </g>
        <g transform="translate(-182.5 -1043)">
          <line id="Line_3-9" data-name="Line 3" x2="469" transform="translate(182.5 1211.5)" fill="none" stroke="#b5d6da" stroke-width="1"/>
        </g>
        <g transform="translate(-182.5 -1022)">
          <line id="Line_3-10" data-name="Line 3" x2="469" transform="translate(182.5 1211.5)" fill="none" stroke="#b5d6da" stroke-width="1"/>
        </g>
        <g transform="translate(-182.5 -1001)">
          <line id="Line_3-11" data-name="Line 3" x2="469" transform="translate(182.5 1211.5)" fill="none" stroke="#b5d6da" stroke-width="1"/>
        </g>
      </g>
    </g>
    <path id="schedule_24dp_5F6368_FILL0_wght300_GRAD0_opsz24" d="M188.763-764.026l7.212-7.212L170.132-797.08v-32.13H159.868v36.289ZM165.012-730a63.322,63.322,0,0,1-25.352-5.118,65.654,65.654,0,0,1-20.643-13.891,65.646,65.646,0,0,1-13.9-20.634A63.264,63.264,0,0,1,100-794.988a63.322,63.322,0,0,1,5.118-25.352,65.649,65.649,0,0,1,13.891-20.643,65.647,65.647,0,0,1,20.634-13.9A63.265,63.265,0,0,1,164.988-860a63.323,63.323,0,0,1,25.352,5.118,65.653,65.653,0,0,1,20.643,13.891,65.647,65.647,0,0,1,13.9,20.634A63.265,63.265,0,0,1,230-795.012a63.323,63.323,0,0,1-5.118,25.352,65.655,65.655,0,0,1-13.891,20.643,65.646,65.646,0,0,1-20.634,13.9A63.265,63.265,0,0,1,165.012-730ZM165-795Zm0,54.737a52.766,52.766,0,0,0,38.743-15.993A52.766,52.766,0,0,0,219.737-795a52.766,52.766,0,0,0-15.993-38.743A52.766,52.766,0,0,0,165-849.737a52.766,52.766,0,0,0-38.743,15.993A52.766,52.766,0,0,0,110.263-795a52.766,52.766,0,0,0,15.993,38.743A52.766,52.766,0,0,0,165-740.263Z" transform="translate(796 2097)" fill="#74b976"/>
  </g>
</svg>
