<svg xmlns="http://www.w3.org/2000/svg" width="85.863" height="108.76" viewBox="0 0 85.863 108.76">
  <path id="description_24dp_5F6368_FILL0_wght300_GRAD0_opsz24" d="M201.466-772.706H244.4v-8.586H201.466Zm0-22.9H244.4v-8.586H201.466ZM190.348-751.24a9.989,9.989,0,0,1-7.343-3.005A9.989,9.989,0,0,1,180-761.588v-88.064a9.989,9.989,0,0,1,3.005-7.343A9.989,9.989,0,0,1,190.348-860h45.463l30.052,30.052v68.36a9.989,9.989,0,0,1-3.005,7.343,9.989,9.989,0,0,1-7.343,3.005Zm41.17-74.415v-25.759h-41.17a1.68,1.68,0,0,0-1.211.551,1.68,1.68,0,0,0-.551,1.211v88.064a1.68,1.68,0,0,0,.551,1.211,1.68,1.68,0,0,0,1.211.551h65.167a1.68,1.68,0,0,0,1.211-.551,1.68,1.68,0,0,0,.551-1.211v-64.067Zm-42.932-25.759v0Z" transform="translate(-180 860)" fill="#db688d"/>
</svg>
