<svg xmlns="http://www.w3.org/2000/svg" xmlns:xlink="http://www.w3.org/1999/xlink" width="469" height="247" viewBox="0 0 469 247">
  <defs>
    <clipPath id="clip-path">
      <rect width="442" height="247" fill="none"/>
    </clipPath>
    <clipPath id="clip-path-2">
      <rect width="469" height="211" fill="none"/>
    </clipPath>
  </defs>
  <g id="Group_9320" data-name="Group 9320" transform="translate(-183 -1178)">
    <g id="Group_14" data-name="Group 14" transform="translate(0 -13.5)">
      <g id="Repeat_Grid_1" data-name="Repeat Grid 1" transform="translate(196 1191.5)" clip-path="url(#clip-path)">
        <g transform="translate(-180 -1191.5)">
          <line id="Line_2" data-name="Line 2" y2="248" transform="translate(180.5 1191.5)" fill="none" stroke="#b5d6da" stroke-width="1"/>
        </g>
        <g transform="translate(-159 -1191.5)">
          <line id="Line_2-2" data-name="Line 2" y2="248" transform="translate(180.5 1191.5)" fill="none" stroke="#b5d6da" stroke-width="1"/>
        </g>
        <g transform="translate(-138 -1191.5)">
          <line id="Line_2-3" data-name="Line 2" y2="248" transform="translate(180.5 1191.5)" fill="none" stroke="#b5d6da" stroke-width="1"/>
        </g>
        <g transform="translate(-117 -1191.5)">
          <line id="Line_2-4" data-name="Line 2" y2="248" transform="translate(180.5 1191.5)" fill="none" stroke="#b5d6da" stroke-width="1"/>
        </g>
        <g transform="translate(-96 -1191.5)">
          <line id="Line_2-5" data-name="Line 2" y2="248" transform="translate(180.5 1191.5)" fill="none" stroke="#b5d6da" stroke-width="1"/>
        </g>
        <g transform="translate(-75 -1191.5)">
          <line id="Line_2-6" data-name="Line 2" y2="248" transform="translate(180.5 1191.5)" fill="none" stroke="#b5d6da" stroke-width="1"/>
        </g>
        <g transform="translate(-54 -1191.5)">
          <line id="Line_2-7" data-name="Line 2" y2="248" transform="translate(180.5 1191.5)" fill="none" stroke="#b5d6da" stroke-width="1"/>
        </g>
        <g transform="translate(-33 -1191.5)">
          <line id="Line_2-8" data-name="Line 2" y2="248" transform="translate(180.5 1191.5)" fill="none" stroke="#b5d6da" stroke-width="1"/>
        </g>
        <g transform="translate(-12 -1191.5)">
          <line id="Line_2-9" data-name="Line 2" y2="248" transform="translate(180.5 1191.5)" fill="none" stroke="#b5d6da" stroke-width="1"/>
        </g>
        <g transform="translate(9 -1191.5)">
          <line id="Line_2-10" data-name="Line 2" y2="248" transform="translate(180.5 1191.5)" fill="none" stroke="#b5d6da" stroke-width="1"/>
        </g>
        <g transform="translate(30 -1191.5)">
          <line id="Line_2-11" data-name="Line 2" y2="248" transform="translate(180.5 1191.5)" fill="none" stroke="#b5d6da" stroke-width="1"/>
        </g>
        <g transform="translate(51 -1191.5)">
          <line id="Line_2-12" data-name="Line 2" y2="248" transform="translate(180.5 1191.5)" fill="none" stroke="#b5d6da" stroke-width="1"/>
        </g>
        <g transform="translate(72 -1191.5)">
          <line id="Line_2-13" data-name="Line 2" y2="248" transform="translate(180.5 1191.5)" fill="none" stroke="#b5d6da" stroke-width="1"/>
        </g>
        <g transform="translate(93 -1191.5)">
          <line id="Line_2-14" data-name="Line 2" y2="248" transform="translate(180.5 1191.5)" fill="none" stroke="#b5d6da" stroke-width="1"/>
        </g>
        <g transform="translate(114 -1191.5)">
          <line id="Line_2-15" data-name="Line 2" y2="248" transform="translate(180.5 1191.5)" fill="none" stroke="#b5d6da" stroke-width="1"/>
        </g>
        <g transform="translate(135 -1191.5)">
          <line id="Line_2-16" data-name="Line 2" y2="248" transform="translate(180.5 1191.5)" fill="none" stroke="#b5d6da" stroke-width="1"/>
        </g>
        <g transform="translate(156 -1191.5)">
          <line id="Line_2-17" data-name="Line 2" y2="248" transform="translate(180.5 1191.5)" fill="none" stroke="#b5d6da" stroke-width="1"/>
        </g>
        <g transform="translate(177 -1191.5)">
          <line id="Line_2-18" data-name="Line 2" y2="248" transform="translate(180.5 1191.5)" fill="none" stroke="#b5d6da" stroke-width="1"/>
        </g>
        <g transform="translate(198 -1191.5)">
          <line id="Line_2-19" data-name="Line 2" y2="248" transform="translate(180.5 1191.5)" fill="none" stroke="#b5d6da" stroke-width="1"/>
        </g>
        <g transform="translate(219 -1191.5)">
          <line id="Line_2-20" data-name="Line 2" y2="248" transform="translate(180.5 1191.5)" fill="none" stroke="#b5d6da" stroke-width="1"/>
        </g>
        <g transform="translate(240 -1191.5)">
          <line id="Line_2-21" data-name="Line 2" y2="248" transform="translate(180.5 1191.5)" fill="none" stroke="#b5d6da" stroke-width="1"/>
        </g>
        <g transform="translate(261 -1191.5)">
          <line id="Line_2-22" data-name="Line 2" y2="248" transform="translate(180.5 1191.5)" fill="none" stroke="#b5d6da" stroke-width="1"/>
        </g>
      </g>
      <g id="Repeat_Grid_6" data-name="Repeat Grid 6" transform="translate(183 1211)" clip-path="url(#clip-path-2)">
        <g transform="translate(-182.5 -1211)">
          <line id="Line_3" data-name="Line 3" x2="469" transform="translate(182.5 1211.5)" fill="none" stroke="#b5d6da" stroke-width="1"/>
        </g>
        <g transform="translate(-182.5 -1190)">
          <line id="Line_3-2" data-name="Line 3" x2="469" transform="translate(182.5 1211.5)" fill="none" stroke="#b5d6da" stroke-width="1"/>
        </g>
        <g transform="translate(-182.5 -1169)">
          <line id="Line_3-3" data-name="Line 3" x2="469" transform="translate(182.5 1211.5)" fill="none" stroke="#b5d6da" stroke-width="1"/>
        </g>
        <g transform="translate(-182.5 -1148)">
          <line id="Line_3-4" data-name="Line 3" x2="469" transform="translate(182.5 1211.5)" fill="none" stroke="#b5d6da" stroke-width="1"/>
        </g>
        <g transform="translate(-182.5 -1127)">
          <line id="Line_3-5" data-name="Line 3" x2="469" transform="translate(182.5 1211.5)" fill="none" stroke="#b5d6da" stroke-width="1"/>
        </g>
        <g transform="translate(-182.5 -1106)">
          <line id="Line_3-6" data-name="Line 3" x2="469" transform="translate(182.5 1211.5)" fill="none" stroke="#b5d6da" stroke-width="1"/>
        </g>
        <g transform="translate(-182.5 -1085)">
          <line id="Line_3-7" data-name="Line 3" x2="469" transform="translate(182.5 1211.5)" fill="none" stroke="#b5d6da" stroke-width="1"/>
        </g>
        <g transform="translate(-182.5 -1064)">
          <line id="Line_3-8" data-name="Line 3" x2="469" transform="translate(182.5 1211.5)" fill="none" stroke="#b5d6da" stroke-width="1"/>
        </g>
        <g transform="translate(-182.5 -1043)">
          <line id="Line_3-9" data-name="Line 3" x2="469" transform="translate(182.5 1211.5)" fill="none" stroke="#b5d6da" stroke-width="1"/>
        </g>
        <g transform="translate(-182.5 -1022)">
          <line id="Line_3-10" data-name="Line 3" x2="469" transform="translate(182.5 1211.5)" fill="none" stroke="#b5d6da" stroke-width="1"/>
        </g>
        <g transform="translate(-182.5 -1001)">
          <line id="Line_3-11" data-name="Line 3" x2="469" transform="translate(182.5 1211.5)" fill="none" stroke="#b5d6da" stroke-width="1"/>
        </g>
      </g>
    </g>
    <path id="edit_calendar_24dp_5F6368_FILL0_wght300_GRAD0_opsz24" d="M152.369-733.821a11.94,11.94,0,0,1-8.777-3.592A11.94,11.94,0,0,1,140-746.19v-91.578a11.94,11.94,0,0,1,3.592-8.777,11.939,11.939,0,0,1,8.777-3.592h9.473V-864.61h10.527v14.473h51.843V-864.61h10.263v14.473h9.473a11.939,11.939,0,0,1,8.777,3.592,11.94,11.94,0,0,1,3.592,8.777v34.21H246.053V-810.4H150.263v64.21a2.008,2.008,0,0,0,.659,1.447,2.008,2.008,0,0,0,1.447.659h45.262v10.263Zm-2.106-86.842h95.789v-17.105a2.009,2.009,0,0,0-.659-1.447,2.009,2.009,0,0,0-1.447-.659H152.369a2.009,2.009,0,0,0-1.447.659,2.009,2.009,0,0,0-.659,1.447Zm0,0v0Zm62.369,86.842V-751.9l37.144-36.975a7.338,7.338,0,0,1,2.762-1.8,8.986,8.986,0,0,1,2.975-.518,8.36,8.36,0,0,1,3.111.6,8.051,8.051,0,0,1,2.73,1.816l6.329,6.394a9.951,9.951,0,0,1,1.711,2.764,7.828,7.828,0,0,1,.605,2.973,8.921,8.921,0,0,1-.552,3.026,7.991,7.991,0,0,1-1.764,2.815l-36.973,36.975Zm49.21-42.816-6.329-6.394ZM220.79-741.979h6.5L249.5-764.3l-3.144-3.25-3.185-3.209L220.79-748.479v6.5Zm25.566-25.567-3.185-3.209L249.5-764.3Z" transform="translate(213 2100.61)" fill="#04b3c9"/>
  </g>
</svg>
