<svg xmlns="http://www.w3.org/2000/svg" width="105.391" height="106.03" viewBox="0 0 105.391 106.03">
  <path id="edit_calendar_24dp_5F6368_FILL0_wght300_GRAD0_opsz24" d="M150.027-758.58a9.679,9.679,0,0,1-7.115-2.912A9.679,9.679,0,0,1,140-768.607v-74.242a9.679,9.679,0,0,1,2.912-7.115,9.679,9.679,0,0,1,7.115-2.912h7.68V-864.61h8.534v11.733H208.27V-864.61h8.32v11.733h7.68a9.679,9.679,0,0,1,7.115,2.912,9.679,9.679,0,0,1,2.912,7.115v27.734h-8.32v-5.547H148.32v52.055a1.628,1.628,0,0,0,.534,1.173,1.628,1.628,0,0,0,1.173.534h36.694v8.32Zm-1.707-70.4h77.656v-13.867a1.629,1.629,0,0,0-.534-1.173,1.628,1.628,0,0,0-1.173-.534H150.027a1.629,1.629,0,0,0-1.173.534,1.629,1.629,0,0,0-.534,1.173Zm0,0v0Zm50.563,70.4v-14.656L229-803.212a5.949,5.949,0,0,1,2.24-1.456,7.286,7.286,0,0,1,2.411-.42,6.778,6.778,0,0,1,2.522.49,6.527,6.527,0,0,1,2.213,1.473l5.131,5.184A8.068,8.068,0,0,1,244.9-795.7a6.346,6.346,0,0,1,.491,2.41,7.232,7.232,0,0,1-.448,2.453,6.478,6.478,0,0,1-1.43,2.282L213.539-758.58Zm39.895-34.711-5.131-5.183Zm-33.281,28.1h5.27l18.005-18.093-2.549-2.635-2.582-2.6L205.5-770.463v5.27Zm20.726-20.727-2.582-2.6,5.131,5.236Z" transform="translate(-140 864.61)" fill="#04b3c9"/>
</svg>
