<svg xmlns="http://www.w3.org/2000/svg" width="108.76" height="108.76" viewBox="0 0 108.76 108.76">
  <path id="task_alt_24dp_5F6368_FILL0_wght300_GRAD0_opsz24" d="M154.39-751.24a52.979,52.979,0,0,1-21.21-4.282,54.928,54.928,0,0,1-17.27-11.622,54.921,54.921,0,0,1-11.627-17.263A52.928,52.928,0,0,1,100-805.61a52.961,52.961,0,0,1,4.283-21.21,54.914,54.914,0,0,1,11.623-17.27,54.931,54.931,0,0,1,17.266-11.627A52.945,52.945,0,0,1,154.38-860a53.256,53.256,0,0,1,17.115,2.719A55.266,55.266,0,0,1,186.3-849.7l-6.209,6.353a46.811,46.811,0,0,0-12.019-5.945,43.617,43.617,0,0,0-13.7-2.125,44.145,44.145,0,0,0-32.413,13.38,44.145,44.145,0,0,0-13.38,32.413,44.145,44.145,0,0,0,13.38,32.413,44.145,44.145,0,0,0,32.413,13.38,44.145,44.145,0,0,0,32.413-13.38,44.145,44.145,0,0,0,13.38-32.413,44.743,44.743,0,0,0-.4-5.966,40.786,40.786,0,0,0-1.189-5.736l6.935-6.989a56.441,56.441,0,0,1,2.406,9.081,54.689,54.689,0,0,1,.831,9.609,52.961,52.961,0,0,1-4.282,21.208,54.917,54.917,0,0,1-11.622,17.266,54.89,54.89,0,0,1-17.263,11.623A52.927,52.927,0,0,1,154.39-751.24Zm-8.134-30.031L123.91-803.616l6.032-6.032,16.314,16.314,56.472-56.56,6.032,6.032Z" transform="translate(-100 860)" fill="#f4c043"/>
</svg>
