<svg xmlns="http://www.w3.org/2000/svg" xmlns:xlink="http://www.w3.org/1999/xlink" width="469" height="247" viewBox="0 0 469 247">
  <defs>
    <clipPath id="clip-path">
      <rect width="442" height="247" fill="none"/>
    </clipPath>
    <clipPath id="clip-path-2">
      <rect width="469" height="211" fill="none"/>
    </clipPath>
  </defs>
  <g id="Group_9322" data-name="Group 9322" transform="translate(-1269 -1178)">
    <g id="Group_16" data-name="Group 16" transform="translate(1086 -13.5)">
      <g id="Repeat_Grid_1" data-name="Repeat Grid 1" transform="translate(196 1191.5)" clip-path="url(#clip-path)">
        <g transform="translate(-180 -1191.5)">
          <line id="Line_2" data-name="Line 2" y2="248" transform="translate(180.5 1191.5)" fill="none" stroke="#b5d6da" stroke-width="1"/>
        </g>
        <g transform="translate(-159 -1191.5)">
          <line id="Line_2-2" data-name="Line 2" y2="248" transform="translate(180.5 1191.5)" fill="none" stroke="#b5d6da" stroke-width="1"/>
        </g>
        <g transform="translate(-138 -1191.5)">
          <line id="Line_2-3" data-name="Line 2" y2="248" transform="translate(180.5 1191.5)" fill="none" stroke="#b5d6da" stroke-width="1"/>
        </g>
        <g transform="translate(-117 -1191.5)">
          <line id="Line_2-4" data-name="Line 2" y2="248" transform="translate(180.5 1191.5)" fill="none" stroke="#b5d6da" stroke-width="1"/>
        </g>
        <g transform="translate(-96 -1191.5)">
          <line id="Line_2-5" data-name="Line 2" y2="248" transform="translate(180.5 1191.5)" fill="none" stroke="#b5d6da" stroke-width="1"/>
        </g>
        <g transform="translate(-75 -1191.5)">
          <line id="Line_2-6" data-name="Line 2" y2="248" transform="translate(180.5 1191.5)" fill="none" stroke="#b5d6da" stroke-width="1"/>
        </g>
        <g transform="translate(-54 -1191.5)">
          <line id="Line_2-7" data-name="Line 2" y2="248" transform="translate(180.5 1191.5)" fill="none" stroke="#b5d6da" stroke-width="1"/>
        </g>
        <g transform="translate(-33 -1191.5)">
          <line id="Line_2-8" data-name="Line 2" y2="248" transform="translate(180.5 1191.5)" fill="none" stroke="#b5d6da" stroke-width="1"/>
        </g>
        <g transform="translate(-12 -1191.5)">
          <line id="Line_2-9" data-name="Line 2" y2="248" transform="translate(180.5 1191.5)" fill="none" stroke="#b5d6da" stroke-width="1"/>
        </g>
        <g transform="translate(9 -1191.5)">
          <line id="Line_2-10" data-name="Line 2" y2="248" transform="translate(180.5 1191.5)" fill="none" stroke="#b5d6da" stroke-width="1"/>
        </g>
        <g transform="translate(30 -1191.5)">
          <line id="Line_2-11" data-name="Line 2" y2="248" transform="translate(180.5 1191.5)" fill="none" stroke="#b5d6da" stroke-width="1"/>
        </g>
        <g transform="translate(51 -1191.5)">
          <line id="Line_2-12" data-name="Line 2" y2="248" transform="translate(180.5 1191.5)" fill="none" stroke="#b5d6da" stroke-width="1"/>
        </g>
        <g transform="translate(72 -1191.5)">
          <line id="Line_2-13" data-name="Line 2" y2="248" transform="translate(180.5 1191.5)" fill="none" stroke="#b5d6da" stroke-width="1"/>
        </g>
        <g transform="translate(93 -1191.5)">
          <line id="Line_2-14" data-name="Line 2" y2="248" transform="translate(180.5 1191.5)" fill="none" stroke="#b5d6da" stroke-width="1"/>
        </g>
        <g transform="translate(114 -1191.5)">
          <line id="Line_2-15" data-name="Line 2" y2="248" transform="translate(180.5 1191.5)" fill="none" stroke="#b5d6da" stroke-width="1"/>
        </g>
        <g transform="translate(135 -1191.5)">
          <line id="Line_2-16" data-name="Line 2" y2="248" transform="translate(180.5 1191.5)" fill="none" stroke="#b5d6da" stroke-width="1"/>
        </g>
        <g transform="translate(156 -1191.5)">
          <line id="Line_2-17" data-name="Line 2" y2="248" transform="translate(180.5 1191.5)" fill="none" stroke="#b5d6da" stroke-width="1"/>
        </g>
        <g transform="translate(177 -1191.5)">
          <line id="Line_2-18" data-name="Line 2" y2="248" transform="translate(180.5 1191.5)" fill="none" stroke="#b5d6da" stroke-width="1"/>
        </g>
        <g transform="translate(198 -1191.5)">
          <line id="Line_2-19" data-name="Line 2" y2="248" transform="translate(180.5 1191.5)" fill="none" stroke="#b5d6da" stroke-width="1"/>
        </g>
        <g transform="translate(219 -1191.5)">
          <line id="Line_2-20" data-name="Line 2" y2="248" transform="translate(180.5 1191.5)" fill="none" stroke="#b5d6da" stroke-width="1"/>
        </g>
        <g transform="translate(240 -1191.5)">
          <line id="Line_2-21" data-name="Line 2" y2="248" transform="translate(180.5 1191.5)" fill="none" stroke="#b5d6da" stroke-width="1"/>
        </g>
        <g transform="translate(261 -1191.5)">
          <line id="Line_2-22" data-name="Line 2" y2="248" transform="translate(180.5 1191.5)" fill="none" stroke="#b5d6da" stroke-width="1"/>
        </g>
      </g>
      <g id="Repeat_Grid_6" data-name="Repeat Grid 6" transform="translate(183 1211)" clip-path="url(#clip-path-2)">
        <g transform="translate(-182.5 -1211)">
          <line id="Line_3" data-name="Line 3" x2="469" transform="translate(182.5 1211.5)" fill="none" stroke="#b5d6da" stroke-width="1"/>
        </g>
        <g transform="translate(-182.5 -1190)">
          <line id="Line_3-2" data-name="Line 3" x2="469" transform="translate(182.5 1211.5)" fill="none" stroke="#b5d6da" stroke-width="1"/>
        </g>
        <g transform="translate(-182.5 -1169)">
          <line id="Line_3-3" data-name="Line 3" x2="469" transform="translate(182.5 1211.5)" fill="none" stroke="#b5d6da" stroke-width="1"/>
        </g>
        <g transform="translate(-182.5 -1148)">
          <line id="Line_3-4" data-name="Line 3" x2="469" transform="translate(182.5 1211.5)" fill="none" stroke="#b5d6da" stroke-width="1"/>
        </g>
        <g transform="translate(-182.5 -1127)">
          <line id="Line_3-5" data-name="Line 3" x2="469" transform="translate(182.5 1211.5)" fill="none" stroke="#b5d6da" stroke-width="1"/>
        </g>
        <g transform="translate(-182.5 -1106)">
          <line id="Line_3-6" data-name="Line 3" x2="469" transform="translate(182.5 1211.5)" fill="none" stroke="#b5d6da" stroke-width="1"/>
        </g>
        <g transform="translate(-182.5 -1085)">
          <line id="Line_3-7" data-name="Line 3" x2="469" transform="translate(182.5 1211.5)" fill="none" stroke="#b5d6da" stroke-width="1"/>
        </g>
        <g transform="translate(-182.5 -1064)">
          <line id="Line_3-8" data-name="Line 3" x2="469" transform="translate(182.5 1211.5)" fill="none" stroke="#b5d6da" stroke-width="1"/>
        </g>
        <g transform="translate(-182.5 -1043)">
          <line id="Line_3-9" data-name="Line 3" x2="469" transform="translate(182.5 1211.5)" fill="none" stroke="#b5d6da" stroke-width="1"/>
        </g>
        <g transform="translate(-182.5 -1022)">
          <line id="Line_3-10" data-name="Line 3" x2="469" transform="translate(182.5 1211.5)" fill="none" stroke="#b5d6da" stroke-width="1"/>
        </g>
        <g transform="translate(-182.5 -1001)">
          <line id="Line_3-11" data-name="Line 3" x2="469" transform="translate(182.5 1211.5)" fill="none" stroke="#b5d6da" stroke-width="1"/>
        </g>
      </g>
    </g>
    <path id="share_location_24dp_5F6368_FILL0_wght300_GRAD0_opsz24" d="M173.151-728.209v-10.3a58.453,58.453,0,0,0,14.256-3.949,56.682,56.682,0,0,0,12.526-7.25l7.382,7.448a66.491,66.491,0,0,1-16.018,9.389A69.74,69.74,0,0,1,173.151-728.209Zm43.978-24.01-7.238-7.236A50.847,50.847,0,0,0,217.1-771.9a59.4,59.4,0,0,0,3.777-14.335H231.39a68.34,68.34,0,0,1-4.773,18.245,63.4,63.4,0,0,1-9.489,15.774Zm3.749-47.753a59.379,59.379,0,0,0-3.777-14.507,47.783,47.783,0,0,0-7.211-12.275l7.3-7.171a67.946,67.946,0,0,1,9.667,15.769,62.223,62.223,0,0,1,4.529,18.184Zm-61.462,71.763A64.555,64.555,0,0,1,118-749.644,62.755,62.755,0,0,1,101.39-793.1q0-25.158,16.572-43.6A63.7,63.7,0,0,1,159.416-858v10.3a54.144,54.144,0,0,0-34.164,18.37A53.173,53.173,0,0,0,111.689-793.1a52.856,52.856,0,0,0,13.563,36.139,55.064,55.064,0,0,0,34.164,18.456Zm40.86-108.159a62.686,62.686,0,0,0-13.013-7.554,50.912,50.912,0,0,0-13.98-3.777V-858a63.948,63.948,0,0,1,17.915,4.524,68.157,68.157,0,0,1,16.117,9.528ZM166.39-762.137a192.2,192.2,0,0,1-16.9-16.375,29.261,29.261,0,0,1-7.93-20.377,24.977,24.977,0,0,1,7.19-18,23.563,23.563,0,0,1,17.637-7.448,23.563,23.563,0,0,1,17.637,7.448,24.977,24.977,0,0,1,7.19,18,29.261,29.261,0,0,1-7.93,20.377,192.2,192.2,0,0,1-16.9,16.375Zm0-31.033a6.441,6.441,0,0,0,4.742-1.916,6.438,6.438,0,0,0,1.914-4.74,6.491,6.491,0,0,0-1.914-4.689,6.354,6.354,0,0,0-4.742-1.967,6.354,6.354,0,0,0-4.742,1.967,6.491,6.491,0,0,0-1.914,4.689,6.438,6.438,0,0,0,1.914,4.74,6.441,6.441,0,0,0,4.742,1.916Z" transform="translate(1337.61 2095)" fill="#786ce6"/>
  </g>
</svg>
