<svg xmlns="http://www.w3.org/2000/svg" width="107.2" height="107.028" viewBox="0 0 107.2 107.028">
  <path id="share_location_24dp_5F6368_FILL0_wght300_GRAD0_opsz24" d="M160.565-750.972v-8.494a48.2,48.2,0,0,0,11.756-3.256A46.74,46.74,0,0,0,182.65-768.7l6.088,6.141a54.832,54.832,0,0,1-13.209,7.743A57.508,57.508,0,0,1,160.565-750.972Zm36.265-19.8-5.969-5.967A41.93,41.93,0,0,0,196.807-787a48.981,48.981,0,0,0,3.115-11.821h8.668a56.354,56.354,0,0,1-3.936,15.045,52.278,52.278,0,0,1-7.825,13.008Zm3.092-39.378a48.965,48.965,0,0,0-3.115-11.963,39.4,39.4,0,0,0-5.946-10.122l6.022-5.913a56.029,56.029,0,0,1,7.972,13,51.309,51.309,0,0,1,3.735,15ZM149.24-750.972a53.233,53.233,0,0,1-34.155-17.675,51.749,51.749,0,0,1-13.694-35.839,52.019,52.019,0,0,1,13.666-35.953A52.524,52.524,0,0,1,149.24-858v8.494a44.648,44.648,0,0,0-28.173,15.148,43.847,43.847,0,0,0-11.184,29.872,43.586,43.586,0,0,0,11.184,29.8,45.406,45.406,0,0,0,28.173,15.219Zm33.694-89.19a51.69,51.69,0,0,0-10.731-6.229,41.984,41.984,0,0,0-11.528-3.115V-858a52.735,52.735,0,0,1,14.773,3.73,56.2,56.2,0,0,1,13.291,7.857ZM154.99-778.95a158.488,158.488,0,0,1-13.933-13.5,24.129,24.129,0,0,1-6.539-16.8,20.6,20.6,0,0,1,5.929-14.844,19.431,19.431,0,0,1,14.544-6.141,19.431,19.431,0,0,1,14.544,6.141,20.6,20.6,0,0,1,5.929,14.844,24.129,24.129,0,0,1-6.539,16.8,158.488,158.488,0,0,1-13.933,13.5Zm0-25.59a5.311,5.311,0,0,0,3.91-1.58,5.309,5.309,0,0,0,1.579-3.909,5.353,5.353,0,0,0-1.579-3.866,5.24,5.24,0,0,0-3.91-1.622,5.24,5.24,0,0,0-3.91,1.622,5.353,5.353,0,0,0-1.579,3.866,5.309,5.309,0,0,0,1.579,3.909,5.311,5.311,0,0,0,3.91,1.58Z" transform="translate(-101.39 858)" fill="#786ce6"/>
</svg>
