<svg xmlns="http://www.w3.org/2000/svg" width="101" height="101" viewBox="0 0 101 101">
  <g id="Group_11333" data-name="Group 11333" transform="translate(-1075 -4865)">
    <circle id="Ellipse_29" data-name="Ellipse 29" cx="50.5" cy="50.5" r="50.5" transform="translate(1075 4865)" fill="#d9ebff"/>
    <path id="Path_14976" data-name="Path 14976" d="M107.105-874.18l2.869-2.854-2.869-2.854-2.854,2.854ZM115-875.136Zm-12.146,9.473a2.755,2.755,0,0,1-2.025-.829,2.755,2.755,0,0,1-.829-2.025v-13.239a2.755,2.755,0,0,1,.829-2.025,2.755,2.755,0,0,1,2.025-.829h24.291a2.755,2.755,0,0,1,2.025.829,2.755,2.755,0,0,1,.829,2.025v13.239a2.755,2.755,0,0,1-.829,2.025,2.755,2.755,0,0,1-2.025.829h-4.971a7.131,7.131,0,0,0,.206-1.184,7.007,7.007,0,0,0,0-1.184h4.761a.463.463,0,0,0,.334-.152.464.464,0,0,0,.152-.334v-13.239a.464.464,0,0,0-.152-.334.464.464,0,0,0-.334-.152H102.854a.464.464,0,0,0-.334.152.464.464,0,0,0-.152.334v13.239a.464.464,0,0,0,.152.334.463.463,0,0,0,.334.152h4.761a7.007,7.007,0,0,0,0,1.184,7.129,7.129,0,0,0,.206,1.184ZM122.1-876.32a1.907,1.907,0,0,0,1.4-.575,1.9,1.9,0,0,0,.577-1.4,1.908,1.908,0,0,0-.575-1.4,1.9,1.9,0,0,0-1.4-.577,1.907,1.907,0,0,0-1.4.575,1.9,1.9,0,0,0-.577,1.4,1.908,1.908,0,0,0,.575,1.4A1.9,1.9,0,0,0,122.1-876.32Zm-17.366,23.653v-2.769a3.892,3.892,0,0,1,.641-2.148,3.933,3.933,0,0,1,1.706-1.48,18.969,18.969,0,0,1,3.867-1.3A18.776,18.776,0,0,1,115-860.8a18.776,18.776,0,0,1,4.049.439,18.969,18.969,0,0,1,3.867,1.3,3.941,3.941,0,0,1,1.706,1.477,3.878,3.878,0,0,1,.641,2.147v2.774Zm2.368-2.368h15.789v-.4a1.481,1.481,0,0,0-.276-.868,1.724,1.724,0,0,0-.711-.592,17.781,17.781,0,0,0-3.395-1.145,15.805,15.805,0,0,0-3.513-.395,15.805,15.805,0,0,0-3.513.395,17.781,17.781,0,0,0-3.395,1.145,1.724,1.724,0,0,0-.711.592,1.481,1.481,0,0,0-.276.868ZM115-862.687a4.567,4.567,0,0,1-3.354-1.383,4.567,4.567,0,0,1-1.383-3.354,4.567,4.567,0,0,1,1.383-3.354A4.567,4.567,0,0,1,115-872.161a4.567,4.567,0,0,1,3.354,1.383,4.567,4.567,0,0,1,1.383,3.354,4.567,4.567,0,0,1-1.383,3.354A4.567,4.567,0,0,1,115-862.687Zm0-2.368a2.284,2.284,0,0,0,1.678-.691,2.284,2.284,0,0,0,.691-1.678,2.284,2.284,0,0,0-.691-1.678,2.284,2.284,0,0,0-1.678-.691,2.284,2.284,0,0,0-1.678.691,2.284,2.284,0,0,0-.691,1.678,2.284,2.284,0,0,0,.691,1.678A2.284,2.284,0,0,0,115-865.055ZM115-867.424ZM115-855.036Z" transform="translate(1011 5784.61)" fill="#4693ea"/>
  </g>
</svg>
