<svg xmlns="http://www.w3.org/2000/svg" width="101" height="101" viewBox="0 0 101 101">
  <g id="Group_11334" data-name="Group 11334" transform="translate(-1405 -4865)">
    <circle id="Ellipse_30" data-name="Ellipse 30" cx="50.5" cy="50.5" r="50.5" transform="translate(1405 4865)" fill="#d9ffde"/>
    <path id="Path_14977" data-name="Path 14977" d="M109.435-793.266v-3.145h-6.593a2.744,2.744,0,0,1-2.017-.826,2.744,2.744,0,0,1-.826-2.017v-17.9a2.744,2.744,0,0,1,.826-2.017,2.744,2.744,0,0,1,2.017-.826h12.036v2.359H102.843a.462.462,0,0,0-.333.151.462.462,0,0,0-.151.333v17.9a.462.462,0,0,0,.151.333.462.462,0,0,0,.333.151h24.193a.462.462,0,0,0,.333-.151.462.462,0,0,0,.151-.333v-3.841h2.359v3.841a2.744,2.744,0,0,1-.826,2.017,2.744,2.744,0,0,1-2.017.826h-6.593v3.145Zm13.246-10.811-7.318-7.318,1.642-1.642,4.5,4.473V-820h2.359v11.435l4.5-4.473L130-811.4l-7.319,7.318Z" transform="translate(1341 5722)" fill="#50c25f"/>
  </g>
</svg>
