<svg xmlns="http://www.w3.org/2000/svg" width="101" height="101" viewBox="0 0 101 101">
  <g id="Group_11331" data-name="Group 11331" transform="translate(-415 -4865)">
    <circle id="Ellipse_27" data-name="Ellipse 27" cx="50.5" cy="50.5" r="50.5" transform="translate(415 4865)" fill="#e2dfff"/>
    <path id="Path_14974" data-name="Path 14974" d="M223.874-855a3.733,3.733,0,0,1-2.739-1.135A3.733,3.733,0,0,1,220-858.874v-37.253a3.739,3.739,0,0,1,1.125-2.749A3.739,3.739,0,0,1,223.874-900h20.192a3.732,3.732,0,0,1,2.738,1.135,3.732,3.732,0,0,1,1.136,2.739v6.767a2.83,2.83,0,0,1,1.471.921,2.4,2.4,0,0,1,.589,1.6v4.038a2.4,2.4,0,0,1-.589,1.605,2.836,2.836,0,0,1-1.471.921v21.4a3.732,3.732,0,0,1-1.136,2.739A3.731,3.731,0,0,1,244.066-855Zm0-3.214h20.192a.644.644,0,0,0,.474-.185.642.642,0,0,0,.185-.474v-37.253a.642.642,0,0,0-.185-.474.643.643,0,0,0-.474-.185H223.874a.642.642,0,0,0-.474.185.642.642,0,0,0-.185.474v37.253a.642.642,0,0,0,.185.474A.643.643,0,0,0,223.874-858.214Zm-.659,0v0Zm10.756-2.967a1.836,1.836,0,0,0,1.352-.544,1.835,1.835,0,0,0,.544-1.352,1.835,1.835,0,0,0-.544-1.352,1.835,1.835,0,0,0-1.352-.544,1.835,1.835,0,0,0-1.352.544,1.835,1.835,0,0,0-.544,1.352,1.835,1.835,0,0,0,.544,1.352A1.836,1.836,0,0,0,233.97-861.182Z" transform="translate(231 5794)" fill="#786ce6"/>
  </g>
</svg>
