<svg xmlns="http://www.w3.org/2000/svg" width="101" height="101" viewBox="0 0 101 101">
  <g id="Group_11332" data-name="Group 11332" transform="translate(-745 -4865)">
    <circle id="Ellipse_28" data-name="Ellipse 28" cx="50.5" cy="50.5" r="50.5" transform="translate(745 4865)" fill="#fff3d8"/>
    <path id="Path_14975" data-name="Path 14975" d="M225-819.017a4.081,4.081,0,0,1-2.366-.705,3.72,3.72,0,0,1-1.438-1.851h-.641a3.206,3.206,0,0,1-2.348-.985,3.206,3.206,0,0,1-.985-2.348V-832.2a14.748,14.748,0,0,1-5.293-5.466A14.722,14.722,0,0,1,210-845a14.474,14.474,0,0,1,4.363-10.637A14.474,14.474,0,0,1,225-860a14.474,14.474,0,0,1,10.637,4.363A14.474,14.474,0,0,1,240-845a14.662,14.662,0,0,1-1.929,7.372,14.825,14.825,0,0,1-5.293,5.432v7.291a3.206,3.206,0,0,1-.985,2.348,3.206,3.206,0,0,1-2.348.985H228.8a3.72,3.72,0,0,1-1.438,1.851A4.081,4.081,0,0,1,225-819.017Zm-4.444-5.889h8.889v-2.086h-8.889Zm0-4.051h8.889v-2.154h-8.889Zm-.444-5.487h3.564v-6.47l-4.761-4.761,1.863-1.863L225-843.316l4.222-4.222,1.863,1.863-4.761,4.761v6.47h3.564a12.167,12.167,0,0,0,4.889-4.25A11.035,11.035,0,0,0,236.667-845a11.261,11.261,0,0,0-3.389-8.278A11.261,11.261,0,0,0,225-856.667a11.261,11.261,0,0,0-8.278,3.389A11.261,11.261,0,0,0,213.333-845a11.035,11.035,0,0,0,1.889,6.306A12.167,12.167,0,0,0,220.111-834.444ZM225-843.316ZM225-845.556Z" transform="translate(571 5755)" fill="#f4c043"/>
  </g>
</svg>
