<svg xmlns="http://www.w3.org/2000/svg" width="70" height="70" viewBox="0 0 70 70">
  <g id="Group_5461" data-name="Group 5461" transform="translate(-9915.099 -2512.103)">
    <rect id="Rectangle_198" data-name="Rectangle 198" width="70" height="70" rx="35" transform="translate(9985.1 2512.103) rotate(90)" fill="#dc688e" opacity="0.1"/>
    <path id="task_FILL0_wght200_GRAD0_opsz24" d="M216.138-802.614l13.449-13.37-1.949-1.938-11.514,11.447-5.8-5.77-1.935,1.924Zm-11.759,11.151a4.258,4.258,0,0,1-3.127-1.249A4.207,4.207,0,0,1,200-795.821v-39.833a4.207,4.207,0,0,1,1.256-3.109,4.259,4.259,0,0,1,3.127-1.249H225.77l12.207,12.136v32.052a4.207,4.207,0,0,1-1.256,3.109,4.258,4.258,0,0,1-3.127,1.249H204.379Zm20.033-35.06v-10.788H204.379a1.6,1.6,0,0,0-1.148.517,1.582,1.582,0,0,0-.52,1.141v39.833a1.582,1.582,0,0,0,.52,1.141,1.6,1.6,0,0,0,1.148.517h29.215a1.6,1.6,0,0,0,1.148-.517,1.582,1.582,0,0,0,.52-1.141v-30.7Zm-21.7-10.788Z" transform="translate(9731.354 3362.912)" fill="#dc688e"/>
  </g>
</svg>
