<svg xmlns="http://www.w3.org/2000/svg" width="70" height="70" viewBox="0 0 70 70">
  <g id="Group_5422" data-name="Group 5422" transform="translate(-9493.579 -2628.579)">
    <rect id="Rectangle_198" data-name="Rectangle 198" width="70" height="70" rx="35" transform="translate(9563.579 2628.579) rotate(90)" fill="#8cca85" opacity="0.1"/>
    <path id="share_location_FILL0_wght200_GRAD0_opsz24" d="M149.481-788.141v-2.785a25.331,25.331,0,0,0,5.889-1.6,20.592,20.592,0,0,0,4.973-2.889l1.95,2a24.065,24.065,0,0,1-5.962,3.476A29.534,29.534,0,0,1,149.481-788.141Zm16.873-9.31-1.971-1.971a20.621,20.621,0,0,0,2.925-5.048,24.092,24.092,0,0,0,1.532-5.815h2.817a24.647,24.647,0,0,1-1.749,6.758,26.483,26.483,0,0,1-3.554,6.076Zm2.486-18.406a24.087,24.087,0,0,0-1.532-5.884,19.38,19.38,0,0,0-2.925-4.979l2.025-1.918a28.849,28.849,0,0,1,3.56,5.967,26.018,26.018,0,0,1,1.69,6.814ZM143.91-788.141a24.748,24.748,0,0,1-15.81-8.265,24.152,24.152,0,0,1-6.334-16.664,24.326,24.326,0,0,1,6.307-16.707A24.342,24.342,0,0,1,143.91-838v2.785a21.961,21.961,0,0,0-13.859,7.451,21.567,21.567,0,0,0-5.5,14.693,21.44,21.44,0,0,0,5.5,14.658,22.334,22.334,0,0,0,13.859,7.486v2.785Zm16.573-42.478a25.565,25.565,0,0,0-5.266-3.064,20.464,20.464,0,0,0-5.629-1.532V-838a26.167,26.167,0,0,1,6.664,1.754,26.733,26.733,0,0,1,6.042,3.517Zm-13.772,28.744a76.055,76.055,0,0,1-6.117-5.973,10.618,10.618,0,0,1-2.882-7.408,9.074,9.074,0,0,1,2.6-6.524,8.532,8.532,0,0,1,6.4-2.7,8.532,8.532,0,0,1,6.4,2.7,9.074,9.074,0,0,1,2.6,6.524,10.617,10.617,0,0,1-2.882,7.408,76.07,76.07,0,0,1-6.116,5.973Zm0-11.249a2.334,2.334,0,0,0,1.722-.683,2.335,2.335,0,0,0,.683-1.722,2.342,2.342,0,0,0-.683-1.715,2.321,2.321,0,0,0-1.722-.691,2.32,2.32,0,0,0-1.722.691,2.342,2.342,0,0,0-.683,1.715,2.335,2.335,0,0,0,.683,1.722,2.335,2.335,0,0,0,1.722.681Z" transform="translate(9381.898 3476.658)" fill="#8cca85"/>
  </g>
</svg>
