<svg xmlns="http://www.w3.org/2000/svg" width="70" height="70" viewBox="0 0 70 70">
  <g id="Group_5618" data-name="Group 5618" transform="translate(-805 -1252)">
    <rect id="Rectangle_198" data-name="Rectangle 198" width="70" height="70" rx="35" transform="translate(875 1252) rotate(90)" fill="#8cca85" opacity="0.1"/>
    <path id="description_FILL0_wght300_GRAD0_opsz24" d="M189.751-820.349h19.5v-3.9h-19.5Zm0-10.4h19.5v-3.9h-19.5ZM184.7-810.6a4.537,4.537,0,0,1-3.335-1.365A4.537,4.537,0,0,1,180-815.3v-40a4.537,4.537,0,0,1,1.365-3.335A4.537,4.537,0,0,1,184.7-860h20.65L219-846.349v31.05a4.538,4.538,0,0,1-1.365,3.335A4.537,4.537,0,0,1,214.3-810.6H184.7Zm18.7-33.8v-11.7H184.7a.765.765,0,0,0-.55.25.764.764,0,0,0-.25.55v40a.765.765,0,0,0,.25.55.765.765,0,0,0,.55.25h29.6a.765.765,0,0,0,.55-.25.765.765,0,0,0,.25-.55v-29.1Zm-19.5-11.7v0Z" transform="translate(640.999 2121.999)" fill="#8cca85"/>
  </g>
</svg>
