<svg xmlns="http://www.w3.org/2000/svg" width="70" height="70" viewBox="0 0 70 70">
  <g id="Group_5416" data-name="Group 5416" transform="translate(-9745.79 -1970.798)">
    <rect id="Rectangle_198" data-name="Rectangle 198" width="70" height="70" rx="35" transform="translate(9815.79 1970.798) rotate(90)" fill="#f5c143" opacity="0.1"/>
    <path id="schedule_FILL0_wght200_GRAD0_opsz24_1_" data-name="schedule_FILL0_wght200_GRAD0_opsz24 (1)" d="M150.733-807.547l1.72-1.72-9.366-9.368v-11.647h-2.43v12.656Zm-8.853,11.291a21.32,21.32,0,0,1-8.531-1.722,22.1,22.1,0,0,1-6.948-4.674,22.077,22.077,0,0,1-4.678-6.943A21.273,21.273,0,0,1,120-818.12a21.317,21.317,0,0,1,1.722-8.531,22.1,22.1,0,0,1,4.673-6.948,22.077,22.077,0,0,1,6.942-4.678A21.272,21.272,0,0,1,141.864-840a21.317,21.317,0,0,1,8.531,1.722,22.1,22.1,0,0,1,6.948,4.673,22.078,22.078,0,0,1,4.678,6.942,21.273,21.273,0,0,1,1.723,8.527,21.318,21.318,0,0,1-1.722,8.531,22.1,22.1,0,0,1-4.673,6.948,22.079,22.079,0,0,1-6.942,4.678,21.271,21.271,0,0,1-8.526,1.723ZM141.872-818.128Zm0,19.442a18.742,18.742,0,0,0,13.761-5.681,18.742,18.742,0,0,0,5.681-13.761,18.742,18.742,0,0,0-5.681-13.761,18.741,18.741,0,0,0-13.761-5.681,18.742,18.742,0,0,0-13.761,5.681,18.742,18.742,0,0,0-5.681,13.761,18.742,18.742,0,0,0,5.681,13.761,18.742,18.742,0,0,0,13.761,5.68Z" transform="translate(9638.921 2823.924)" fill="#f5c143"/>
  </g>
</svg>
