<svg xmlns="http://www.w3.org/2000/svg" width="69" height="69" viewBox="0 0 69 69">
  <g id="Group_5415" data-name="Group 5415" transform="translate(-9256.504 -2001)">
    <rect id="Rectangle_198" data-name="Rectangle 198" width="69" height="69" rx="34.5" transform="translate(9325.504 2001) rotate(90)" fill="#4694eb" opacity="0.1"/>
    <path id="calendar_month_FILL0_wght200_GRAD0_opsz24" d="M163.726-807.154a3.611,3.611,0,0,1-2.661-1.068A3.611,3.611,0,0,1,160-810.882v-29.469a3.611,3.611,0,0,1,1.068-2.661,3.611,3.611,0,0,1,2.661-1.068h4.083v-5.148h2.485v5.148h16.511v-5.148h2.308v5.148H193.2a3.611,3.611,0,0,1,2.661,1.068,3.611,3.611,0,0,1,1.068,2.661v29.469a3.611,3.611,0,0,1-1.068,2.661,3.611,3.611,0,0,1-2.661,1.068H163.728Zm0-2.308H193.2a1.358,1.358,0,0,0,.976-.445,1.357,1.357,0,0,0,.445-.976v-20.239H162.306v20.239a1.357,1.357,0,0,0,.445.976A1.357,1.357,0,0,0,163.726-809.462Zm-1.42-23.967h32.311v-6.924a1.358,1.358,0,0,0-.445-.976,1.357,1.357,0,0,0-.976-.445H163.727a1.357,1.357,0,0,0-.976.445,1.358,1.358,0,0,0-.445.976Zm0,0Zm16.155,10.474a1.706,1.706,0,0,1-1.245-.53,1.705,1.705,0,0,1-.53-1.245,1.705,1.705,0,0,1,.53-1.245,1.7,1.7,0,0,1,1.245-.531,1.7,1.7,0,0,1,1.245.531,1.705,1.705,0,0,1,.53,1.245,1.705,1.705,0,0,1-.53,1.245,1.705,1.705,0,0,1-1.245.531Zm-9.23,0a1.706,1.706,0,0,1-1.245-.53,1.705,1.705,0,0,1-.53-1.245,1.705,1.705,0,0,1,.53-1.245,1.7,1.7,0,0,1,1.245-.531,1.7,1.7,0,0,1,1.245.531,1.705,1.705,0,0,1,.53,1.245,1.705,1.705,0,0,1-.53,1.245,1.705,1.705,0,0,1-1.249.531Zm18.464,0a1.706,1.706,0,0,1-1.245-.53,1.705,1.705,0,0,1-.53-1.245,1.7,1.7,0,0,1,.53-1.245,1.7,1.7,0,0,1,1.245-.531,1.7,1.7,0,0,1,1.245.531,1.7,1.7,0,0,1,.53,1.245,1.705,1.705,0,0,1-.53,1.245,1.705,1.705,0,0,1-1.247.531Zm-9.234,8.877a1.705,1.705,0,0,1-1.245-.53,1.7,1.7,0,0,1-.53-1.245,1.705,1.705,0,0,1,.53-1.245,1.7,1.7,0,0,1,1.245-.53,1.7,1.7,0,0,1,1.245.53,1.705,1.705,0,0,1,.53,1.245,1.705,1.705,0,0,1-.53,1.245A1.7,1.7,0,0,1,178.461-814.077Zm-9.23,0a1.7,1.7,0,0,1-1.245-.53,1.705,1.705,0,0,1-.53-1.245,1.705,1.705,0,0,1,.53-1.245,1.705,1.705,0,0,1,1.245-.53,1.705,1.705,0,0,1,1.245.53,1.705,1.705,0,0,1,.53,1.245,1.7,1.7,0,0,1-.53,1.245,1.706,1.706,0,0,1-1.249.53Zm18.464,0a1.705,1.705,0,0,1-1.245-.53,1.7,1.7,0,0,1-.53-1.245,1.705,1.705,0,0,1,.53-1.245,1.705,1.705,0,0,1,1.245-.53,1.7,1.7,0,0,1,1.245.53,1.705,1.705,0,0,1,.53,1.245,1.7,1.7,0,0,1-.53,1.245,1.706,1.706,0,0,1-1.247.53Z" transform="translate(9112.159 2863.643)" fill="#4694eb"/>
  </g>
</svg>
