<svg xmlns="http://www.w3.org/2000/svg" viewBox="0 0 158.47 61.06"><defs><style>.cls-1,.cls-2{fill:#969696;}.cls-2{font-size:15px;font-family:Perpetua;}</style></defs><g id="Objects"><path class="cls-1" d="M4.08,41.1v10l2,1.76.15-.13,5.5-4.9Zm1.11,2.55,4.75,4.23L6.06,51.34l-.87-.77Z"/><path class="cls-1" d="M12.77,48.2l-.35.32-5.65,5H18.06l.36-.31.35-.32L30.21,42.73v-10L13.12,47.88Zm16.33-13v6.91L18.08,52l-.36.32,0,0H9.91l3.2-2.85.36-.32.35-.31Z"/><path class="cls-1" d="M6.21,40.2l5.5-4.9L4.08,28.52V38.57l2,1.76ZM5.19,38V31.07L9.94,35.3,6.06,38.76Z"/><path class="cls-1" d="M12.77,35.62l-.36.31L6.77,41H18.06l.36-.31.35-.32L30.21,30.15v-10L13.12,35.3Zm16.33-13v6.91l-11,9.81-.35.31,0,.05H9.91l3.2-2.85.36-.32.35-.31Z"/><path class="cls-1" d="M6.21,27.62l5.5-4.9L4.08,15.94V26l2,1.76Zm-1-9.13,4.75,4.23L6.06,26.18l-.87-.78Z"/><path class="cls-1" d="M13.12,22.72l-.35.32-.36.31-5.64,5H18.06l.36-.31.35-.32L30.21,17.57v-10ZM29.1,17l-11,9.81-.36.31,0,.05H9.91l3.2-2.86.36-.31.35-.32L29.1,10.08Z"/><text class="cls-2" transform="translate(37.17 25.15)">EXTERIOR HOUSE <tspan x="0" y="18">CLEANING</tspan></text></g></svg>