<svg xmlns="http://www.w3.org/2000/svg" viewBox="0 0 212.47 61.06"><defs><style>.cls-1{fill:#969696;}</style></defs><g id="Objects"><path class="cls-1" d="M6.51,26.82v.05a.69.69,0,0,1,0,.13h0v0s0,0,0,.07v.07h0v0h0v0h0l0,.25c0,.07,0,.14,0,.21v.09h0l0,.26c0,.07,0,.13,0,.2h0v.44c0,.09,0,.19,0,.3h0v.14a.76.76,0,0,0,0,.15h0v0h0V30a1.77,1.77,0,0,0,0,.23v.07h0v.46A17.53,17.53,0,0,0,23.76,48.06,17.64,17.64,0,0,0,26,47.92l1-.14h0a20.1,20.1,0,0,1-7.67-8.37c-.1-.21-.2-.41-.29-.62l0-.07A20.19,20.19,0,0,1,20.82,19a20.87,20.87,0,0,1,1.78-2.2,20.14,20.14,0,0,1,7.48-5.08,20.93,20.93,0,0,1,2.66-.82,20.31,20.31,0,0,1,4.61-.53,20,20,0,0,1,10.26,2.8h0l-.09-.09L47.4,13l0,0h0l-.1-.1-.12-.1h0l0,0L47,12.56h0l-.06-.05,0,0-.19-.17-.21-.18-.06-.06L46.27,12l-.1-.08-.05,0h0l0,0,0,0-.16-.13h0l-.12-.1h0l-.4-.32h0l-.11-.09,0,0,0,0,0,0h0L45,11l0,0-.11-.08,0,0-.06,0,0,0h0l-.12-.09,0,0h0l-.31-.21h0l-.13-.1,0,0h0l-.21-.14h0l0,0-.15-.1h0l-.22-.14h0l-.23-.14-.13-.08h0l0,0-.08,0h0l-.05,0-.16-.09-.05,0,0,0-.16-.09h0c-.35-.19-.7-.38-1-.55h0l-.24-.12-.21-.09h0c-.24-.12-.47-.22-.69-.31h0L40,8.1h0l-.09,0-.11,0,0,0-.61-.24-.1,0h0l-.11,0c-.3-.11-.6-.22-.91-.31h0l-.17-.06-.19,0-.11,0-.38-.11H37l-.08,0h0l-.78-.19-.46-.1-.79-.16-.29,0h0l-.29,0-.14,0-.17,0-.84-.11c-.55,0-1.1-.09-1.65-.11l-.91,0c-.52,0-1,0-1.55,0h-.16c-.57,0-1.14.1-1.7.18l-.3,0h0L6.51,26.81Z"/><path class="cls-1" d="M54.61,34.21v0s0-.07,0-.1h0v0a.59.59,0,0,0,0-.13v-.06s0,0,0,0l0-.15v-.11l0-.29h0a2.46,2.46,0,0,0,0-.26,1.65,1.65,0,0,0,0-.21h0V32.7c0-.05,0-.09,0-.14v0c0-.06,0-.12,0-.18h0v0c0-.09,0-.18,0-.29h0c0-.1,0-.19,0-.28v-.11c0-.07,0-.15,0-.23s0-.21,0-.31h0v-.35h0a1.28,1.28,0,0,0,0-.19,1.34,1.34,0,0,0,0-.2h0v-.06A17.53,17.53,0,0,0,37.35,13a18.38,18.38,0,0,0-3.16.28A20.2,20.2,0,0,1,40.29,19,20.16,20.16,0,0,1,31,49.33a20.2,20.2,0,0,1-17.52-1.45h0v0l0,0,.05,0,.12.11h0a2.23,2.23,0,0,0,.22.21h0l.15.14h0l.27.24h0l.17.16h0l0,0h0l.17.15,0,0h0l.14.11,0,0h0l.14.12h0l.11.09h0l.4.31.09.07L16,50,16,50l0,0,.16.12.05,0,.09.06h0l.12.09.05,0,.3.22h0l.13.09,0,0,.11.08.12.08.19.12.18.12h.16l.27.26.13.08.26.14h0l.2.12c.36.2.73.39,1.09.57l.24.12,0,0,.22.11.7.31h0l.17.07.05,0,.23.09.6.24h0l.2.07h0c.31.11.62.22.92.31h0l.17.05h0l.27.08.08,0L24,54l.17,0h0c.67.19,1.36.34,2,.46h0l.28.05h0l.29,0h0l.29,0h0a24.27,24.27,0,0,0,6.81,0h0l.27,0h0L54.6,34.25S54.61,34.22,54.61,34.21Z"/><path class="cls-1" d="M73.32,16.56h2v.25q-1,0-1,1.14v.2l.44,5.3a2.15,2.15,0,0,0,.29,1.12,1,1,0,0,0,.77.33v.25H72.8V24.9a1.12,1.12,0,0,0,.7-.32,1.17,1.17,0,0,0,.2-.74,1.85,1.85,0,0,0,0-.23l-.46-5.56-2.94,7.1h-.23l-2.9-7.08-.48,5.28a2,2,0,0,0,0,.24,1.21,1.21,0,0,0,1.12,1.31v.25H65.11V24.9a1.11,1.11,0,0,0,.78-.37,2.71,2.71,0,0,0,.32-1.21l.52-5.91a1.9,1.9,0,0,0-1.12-.6v-.25h2.18l2.75,6.76Z"/><path class="cls-1" d="M79.8,16.56v.25a.86.86,0,0,0-.76.3,2,2,0,0,0-.22,1.07v5.36A2,2,0,0,0,79,24.61a.86.86,0,0,0,.76.29v.25H76.71V24.9a.88.88,0,0,0,.77-.29,2,2,0,0,0,.2-1.07V18.18a2.06,2.06,0,0,0-.2-1.08.88.88,0,0,0-.77-.29v-.25Z"/><path class="cls-1" d="M87.34,23.28h.26l-.53,1.87H80.85V24.9a.84.84,0,0,0,.75-.32,2.05,2.05,0,0,0,.22-1.11V18.06a1.64,1.64,0,0,0-.21-1,.88.88,0,0,0-.76-.28v-.25h3.07v.25a.82.82,0,0,0-.73.32,1.82,1.82,0,0,0-.23,1v5.74a.85.85,0,0,0,.2.65,1.24,1.24,0,0,0,.78.18h1.7a1.67,1.67,0,0,0,1.11-.28A2.63,2.63,0,0,0,87.34,23.28Z"/><path class="cls-1" d="M91.2,16.56v.25a.89.89,0,0,0-.77.3,2,2,0,0,0-.21,1.07v5.36a2,2,0,0,0,.21,1.07.89.89,0,0,0,.77.29v.25H88.1V24.9a.86.86,0,0,0,.77-.29,1.93,1.93,0,0,0,.21-1.07V18.18a2.06,2.06,0,0,0-.2-1.08.9.9,0,0,0-.78-.29v-.25Z"/><path class="cls-1" d="M97.67,17h-1.3v6.61a1.94,1.94,0,0,0,.19,1,.84.84,0,0,0,.74.27v.25h-3V24.9a.86.86,0,0,0,.77-.31,2,2,0,0,0,.2-1.05V17H94a2.29,2.29,0,0,0-1.3.29,1.15,1.15,0,0,0-.46.94H92v-2h.26a1.89,1.89,0,0,0,1.29.32H98a2.14,2.14,0,0,0,1.36-.32h.27v2h-.16a1.46,1.46,0,0,0-.58-1A2.39,2.39,0,0,0,97.67,17Z"/><path class="cls-1" d="M104.4,25.15V24.9c.49,0,.74-.17.74-.51a.85.85,0,0,0-.07-.33l-.79-2.39h-2.76l-.59,1.73a3.32,3.32,0,0,0-.22,1c0,.36.23.55.68.55v.25H99.17V24.9a1.23,1.23,0,0,0,.74-.31,2.68,2.68,0,0,0,.54-1l2.37-7.08h.89l2.49,7.4a1.83,1.83,0,0,0,.46.84,1.21,1.21,0,0,0,.77.19v.25Zm-2.72-4h2.42l-1.22-3.64Z"/><path class="cls-1" d="M111.07,21.18h-.69v2.36a1.94,1.94,0,0,0,.21,1.06.89.89,0,0,0,.77.3v.25h-3.09V24.9a.86.86,0,0,0,.77-.3,2.05,2.05,0,0,0,.2-1.06V18.15a1.91,1.91,0,0,0-.2-1,.88.88,0,0,0-.77-.29v-.25h3.52a3.15,3.15,0,0,1,2.08.64,2,2,0,0,1,.78,1.61,2.11,2.11,0,0,1-1.77,2.11,3.42,3.42,0,0,1,.76.69,11.11,11.11,0,0,1,1,1.44,7.86,7.86,0,0,0,1.06,1.48,1.23,1.23,0,0,0,.79.37v.25H114.7a16.24,16.24,0,0,1-1.31-1.91,7.39,7.39,0,0,0-1.29-1.7A1.64,1.64,0,0,0,111.07,21.18Zm.21-4.29h-.9v3.93h1.05a2,2,0,0,0,1.49-.54,2,2,0,0,0,.53-1.44,1.83,1.83,0,0,0-.59-1.41A2.28,2.28,0,0,0,111.28,16.89Z"/><path class="cls-1" d="M122.17,17.79l-1.93,3v2.71a2,2,0,0,0,.2,1.08.84.84,0,0,0,.74.28v.25h-3.13V24.9a1,1,0,0,0,.84-.3,2,2,0,0,0,.21-1.06V20.83L117.27,18a4,4,0,0,0-.74-.93,1.45,1.45,0,0,0-.79-.24v-.25h3.36v.25c-.59,0-.89.14-.89.4a.87.87,0,0,0,.18.46l1.7,2.6,1.36-2.16a1.62,1.62,0,0,0,.3-.82q0-.48-.57-.48v-.25h2.36v.25a1.48,1.48,0,0,0-.74.21A2.93,2.93,0,0,0,122.17,17.79Z"/><path class="cls-1" d="M132.39,16.44h.24v2h-.26a2,2,0,0,0-.6-1.3,1.89,1.89,0,0,0-1.3-.47,1.71,1.71,0,0,0-1.12.35,1.15,1.15,0,0,0-.43.94,1.6,1.6,0,0,0,.35,1,6.23,6.23,0,0,0,1.53,1.15,6.58,6.58,0,0,1,1.83,1.42,2.22,2.22,0,0,1,.47,1.39,2.46,2.46,0,0,1-2.45,2.45,4.6,4.6,0,0,1-1.49-.33,2.48,2.48,0,0,0-.47-.13q-.21,0-.33.33h-.26V22.92h.26a2,2,0,0,0,.62,1.54,2.08,2.08,0,0,0,1.45.58,1.8,1.8,0,0,0,1.25-.42,1.4,1.4,0,0,0,.47-1.12,1.56,1.56,0,0,0-.39-1,6.49,6.49,0,0,0-1.61-1.23,7.37,7.37,0,0,1-1.35-1,2.27,2.27,0,0,1-.49-.79,2.58,2.58,0,0,1-.16-.94,2.1,2.1,0,0,1,.64-1.6,2.38,2.38,0,0,1,1.69-.62,4,4,0,0,1,1.25.23,1.56,1.56,0,0,0,.44.1.18.18,0,0,0,.14,0A.88.88,0,0,0,132.39,16.44Z"/><path class="cls-1" d="M139.62,17h-1.31v6.61a2,2,0,0,0,.19,1,.86.86,0,0,0,.74.27v.25h-3V24.9a.84.84,0,0,0,.77-.31,1.92,1.92,0,0,0,.21-1.05V17h-1.25a2.31,2.31,0,0,0-1.3.29,1.2,1.2,0,0,0-.46.94h-.25v-2h.25a1.89,1.89,0,0,0,1.29.32H140a2.14,2.14,0,0,0,1.36-.32h.27v2h-.17a1.49,1.49,0,0,0-.57-1A2.41,2.41,0,0,0,139.62,17Z"/><path class="cls-1" d="M146.35,25.15V24.9c.49,0,.74-.17.74-.51a1.09,1.09,0,0,0-.07-.33l-.8-2.39h-2.76l-.58,1.73a3.32,3.32,0,0,0-.22,1c0,.36.22.55.68.55v.25h-2.22V24.9a1.26,1.26,0,0,0,.74-.31,2.84,2.84,0,0,0,.53-1l2.38-7.08h.88l2.5,7.4a1.74,1.74,0,0,0,.46.84,1.18,1.18,0,0,0,.76.19v.25Zm-2.73-4H146l-1.21-3.64Z"/><path class="cls-1" d="M156.54,16.81v-.25h2.59v.25a1.08,1.08,0,0,0-.86.29,1.75,1.75,0,0,0-.24,1.07v7h-.26l-6.09-7.47v6a1.32,1.32,0,0,0,.26.91,1.16,1.16,0,0,0,.87.27v.25H150.2V24.9a.94.94,0,0,0,.84-.32,2.15,2.15,0,0,0,.22-1.15v-5a1.82,1.82,0,0,0-.3-1.17,1.42,1.42,0,0,0-1-.42v-.25h2.2l5.4,6.69v-5a2.1,2.1,0,0,0-.22-1.11A1,1,0,0,0,156.54,16.81Z"/><path class="cls-1" d="M160.17,25.15V24.9a.88.88,0,0,0,.77-.3,2,2,0,0,0,.21-1.06V18.18a2,2,0,0,0-.21-1.07.88.88,0,0,0-.77-.3v-.25h4a4.88,4.88,0,0,1,3.52,1.26A4.18,4.18,0,0,1,169,21a3.87,3.87,0,0,1-1.25,3,5,5,0,0,1-3.48,1.12Zm3.75-8.26h-1.64v6.35a2.56,2.56,0,0,0,.22,1.25,1,1,0,0,0,.88.33h.89a3.18,3.18,0,0,0,2.49-1,4.06,4.06,0,0,0,.91-2.78,4.33,4.33,0,0,0-1-3A3.48,3.48,0,0,0,163.92,16.89Z"/><path class="cls-1" d="M174.6,25.15V24.9c.49,0,.73-.17.73-.51a1.05,1.05,0,0,0-.06-.33l-.8-2.39h-2.76l-.58,1.73a3.32,3.32,0,0,0-.22,1c0,.36.22.55.68.55v.25h-2.22V24.9a1.29,1.29,0,0,0,.74-.31,2.84,2.84,0,0,0,.53-1L173,16.47h.88l2.5,7.4a1.84,1.84,0,0,0,.45.84,1.23,1.23,0,0,0,.77.19v.25Zm-2.73-4h2.42l-1.21-3.64Z"/><path class="cls-1" d="M181.27,21.18h-.7v2.36a1.84,1.84,0,0,0,.22,1.06.87.87,0,0,0,.76.3v.25h-3.09V24.9a.89.89,0,0,0,.78-.3,2.05,2.05,0,0,0,.2-1.06V18.15a2,2,0,0,0-.2-1,.89.89,0,0,0-.78-.29v-.25H182a3.15,3.15,0,0,1,2.08.64,2,2,0,0,1,.78,1.61,2.11,2.11,0,0,1-1.77,2.11,3.42,3.42,0,0,1,.76.69,12.25,12.25,0,0,1,1,1.44,7.94,7.94,0,0,0,1.05,1.48,1.28,1.28,0,0,0,.79.37v.25h-1.76a17.56,17.56,0,0,1-1.31-1.91,7.15,7.15,0,0,0-1.28-1.7A1.66,1.66,0,0,0,181.27,21.18Zm.2-4.29h-.9v3.93h1.06a2,2,0,0,0,1.48-.54,2,2,0,0,0,.54-1.44,1.81,1.81,0,0,0-.6-1.41A2.26,2.26,0,0,0,181.47,16.89Z"/><path class="cls-1" d="M187.33,25.15V24.9a.88.88,0,0,0,.77-.3,2,2,0,0,0,.21-1.06V18.18a2,2,0,0,0-.21-1.07.88.88,0,0,0-.77-.3v-.25h4a4.88,4.88,0,0,1,3.52,1.26A4.18,4.18,0,0,1,196.15,21a3.9,3.9,0,0,1-1.25,3,5,5,0,0,1-3.48,1.12Zm3.75-8.26h-1.64v6.35a2.56,2.56,0,0,0,.22,1.25,1,1,0,0,0,.88.33h.89a3.18,3.18,0,0,0,2.49-1,4.06,4.06,0,0,0,.91-2.78,4.38,4.38,0,0,0-1-3A3.48,3.48,0,0,0,191.08,16.89Z"/><path class="cls-1" d="M73.2,34.44V37h-.26a3.29,3.29,0,0,0-1-1.76,2.78,2.78,0,0,0-1.81-.56,2.84,2.84,0,0,0-2.32,1A4.37,4.37,0,0,0,67,38.55a5,5,0,0,0,.91,3.1,2.85,2.85,0,0,0,2.37,1.17,3.16,3.16,0,0,0,3-1.89l.23.22a3.47,3.47,0,0,1-1.39,1.62,4.1,4.1,0,0,1-2.2.6,4.5,4.5,0,0,1-2.16-.55,3.86,3.86,0,0,1-1.53-1.52,4.43,4.43,0,0,1-.53-2.21,4.78,4.78,0,0,1,1.26-3.4,4.17,4.17,0,0,1,3.17-1.34,7.76,7.76,0,0,1,1.64.23,3.72,3.72,0,0,0,.77.13.47.47,0,0,0,.46-.27Z"/><path class="cls-1" d="M81.11,41.28h.26l-.53,1.87H74.61V42.9a.84.84,0,0,0,.75-.32,2,2,0,0,0,.23-1.11V36.06a1.64,1.64,0,0,0-.21-1,.9.9,0,0,0-.77-.28v-.25h3.08v.25a.85.85,0,0,0-.74.32,1.83,1.83,0,0,0-.22,1v5.74a.85.85,0,0,0,.2.65,1.2,1.2,0,0,0,.77.18h1.71a1.67,1.67,0,0,0,1.11-.28A2.74,2.74,0,0,0,81.11,41.28Z"/><path class="cls-1" d="M87.42,37.81h.26V39.9h-.26a1.29,1.29,0,0,0-.33-.69,1.79,1.79,0,0,0-.87-.14H84.09v3.08a.59.59,0,0,0,.14.45.72.72,0,0,0,.49.14h1.5a4.67,4.67,0,0,0,1.12-.09,1.16,1.16,0,0,0,.52-.33,3.11,3.11,0,0,0,.45-.77h.26l-.4,1.6H82V42.9a.86.86,0,0,0,.78-.29,2,2,0,0,0,.2-1V36.18a1.93,1.93,0,0,0-.21-1.07.87.87,0,0,0-.77-.3v-.25h6.19V36H88a1.45,1.45,0,0,0-.38-.82,1.88,1.88,0,0,0-1.06-.2H84.09v3.68h2.4a.94.94,0,0,0,.67-.18A1.21,1.21,0,0,0,87.42,37.81Z"/><path class="cls-1" d="M94.67,43.15V42.9c.5,0,.74-.17.74-.51a1.05,1.05,0,0,0-.06-.33l-.8-2.39H91.79L91.2,41.4a3.71,3.71,0,0,0-.22,1c0,.36.23.55.68.55v.25H89.44V42.9a1.29,1.29,0,0,0,.75-.31,2.84,2.84,0,0,0,.53-1l2.38-7.08H94l2.5,7.4a1.75,1.75,0,0,0,.45.84,1.23,1.23,0,0,0,.77.19v.25Zm-2.72-4h2.42l-1.22-3.64Z"/><path class="cls-1" d="M104.87,34.81v-.25h2.59v.25a1.08,1.08,0,0,0-.86.29,1.75,1.75,0,0,0-.24,1.07v7h-.27L100,35.68v6a1.27,1.27,0,0,0,.26.91,1.15,1.15,0,0,0,.86.27v.25h-2.6V42.9a.94.94,0,0,0,.84-.32,2.15,2.15,0,0,0,.22-1.15v-5a1.82,1.82,0,0,0-.3-1.17,1.45,1.45,0,0,0-1-.42v-.25h2.21l5.4,6.69v-5a2,2,0,0,0-.23-1.11A1,1,0,0,0,104.87,34.81Z"/><path class="cls-1" d="M111.53,34.56v.25a.86.86,0,0,0-.76.3,1.88,1.88,0,0,0-.22,1.07v5.36a1.88,1.88,0,0,0,.22,1.07.86.86,0,0,0,.76.29v.25h-3.09V42.9a.88.88,0,0,0,.77-.29,2,2,0,0,0,.2-1.07V36.18a2.06,2.06,0,0,0-.2-1.08.89.89,0,0,0-.77-.29v-.25Z"/><path class="cls-1" d="M118.77,34.81v-.25h2.59v.25a1.08,1.08,0,0,0-.86.29,1.75,1.75,0,0,0-.24,1.07v7H120l-6.08-7.47v6a1.27,1.27,0,0,0,.26.91,1.16,1.16,0,0,0,.87.27v.25h-2.61V42.9a.94.94,0,0,0,.84-.32,2.15,2.15,0,0,0,.22-1.15v-5a1.82,1.82,0,0,0-.3-1.17,1.42,1.42,0,0,0-1-.42v-.25h2.2l5.4,6.69v-5a2.1,2.1,0,0,0-.22-1.11A1,1,0,0,0,118.77,34.81Z"/><path class="cls-1" d="M131.32,39.43v.25a1.08,1.08,0,0,0-.81.26,1.29,1.29,0,0,0-.25.9v2.31a6.1,6.1,0,0,1-1.12.15c-.55,0-1,.07-1.28.07a5.38,5.38,0,0,1-3.71-1.18,3.9,3.9,0,0,1-1.33-3.09,5.05,5.05,0,0,1,.58-2.41A4.39,4.39,0,0,1,125,35a4.22,4.22,0,0,1,2.22-.63,5.29,5.29,0,0,1,1.53.25,3.22,3.22,0,0,0,.8.15.45.45,0,0,0,.48-.28h.28V37h-.25a2.49,2.49,0,0,0-1-1.69,3,3,0,0,0-1.89-.63A2.73,2.73,0,0,0,125,35.77a4.35,4.35,0,0,0-.87,2.81,4.82,4.82,0,0,0,1,3.13A3.12,3.12,0,0,0,127.68,43c1,0,1.44-.31,1.44-.92v-.93a2.12,2.12,0,0,0-.21-1.11.81.81,0,0,0-.73-.32h-.33v-.25Z"/></g></svg>