<svg xmlns="http://www.w3.org/2000/svg" viewBox="0 0 144 61.06"><defs><style>.cls-1,.cls-2{fill:#969696;}.cls-2{font-size:15px;font-family:Perpetua;}.cls-3{letter-spacing:-0.04em;}</style></defs><g id="Objects"><polygon class="cls-1" points="21.38 51.5 21.38 51.5 19.79 48.76 7.25 27.03 4.09 27.03 18.21 51.5 18.21 51.5 18.21 51.5 21.37 51.5 21.38 51.5"/><polygon class="cls-1" points="34.03 51.5 34.03 51.5 32.45 48.76 30.86 46.02 29.28 43.28 27.7 40.54 26.12 37.8 19.9 27.03 16.74 27.03 24.54 40.54 26.12 43.28 27.7 46.02 29.28 48.76 30.86 51.5 30.86 51.5 30.87 51.5 34.02 51.5 34.03 51.5"/><polygon class="cls-1" points="38.77 48.76 37.19 46.02 35.61 43.28 34.03 40.54 32.45 37.8 30.86 35.06 29.28 32.32 26.23 27.03 23.07 27.03 27.7 35.06 30.86 40.54 32.45 43.28 34.03 46.02 35.61 48.76 37.19 51.5 37.19 51.5 37.19 51.5 40.35 51.5 40.36 51.5 40.35 51.5 38.77 48.76"/><polygon class="cls-1" points="45.59 9.56 42.43 9.56 30.88 29.55 32.46 32.29 45.59 9.56"/><polygon class="cls-1" points="24.54 51.5 27.7 51.5 27.7 51.5 27.7 51.5 26.12 48.76 24.54 46.02 22.96 43.28 13.58 27.03 10.41 27.03 21.38 46.02 22.96 48.76 24.54 51.5 24.54 51.5 24.54 51.5"/><polygon class="cls-1" points="35.63 37.77 51.92 9.56 48.75 9.56 34.04 35.03 34.06 35.06 35.63 37.77"/><polygon class="cls-1" points="38.79 43.25 58.24 9.56 55.08 9.56 37.21 40.51 37.22 40.54 38.79 43.25"/><polygon class="cls-1" points="64.57 9.56 61.41 9.56 40.37 45.99 40.39 46.02 41.95 48.73 64.57 9.56"/><text class="cls-2" transform="translate(67.15 25.15)">P<tspan class="cls-3" x="7.5" y="0">O</tspan><tspan x="17.91" y="0">TENTIAL</tspan><tspan x="0" y="18">CLEANING</tspan></text></g></svg>