<svg xmlns="http://www.w3.org/2000/svg" width="70.41" height="71.039" viewBox="0 0 70.41 71.039">
  <g id="Group_5612" data-name="Group 5612" transform="translate(-0.271 0.262)">
    <ellipse id="Ellipse_60" data-name="Ellipse 60" cx="35.205" cy="35.519" rx="35.205" ry="35.519" transform="translate(0.271 -0.262)" fill="#e97f5b" opacity="0.2"/>
    <g id="Group_319" data-name="Group 319" transform="translate(15.363 15.241)">
      <g id="description_black_24dp" transform="translate(0 1.014)">
        <path id="Path_2024" data-name="Path 2024" d="M0,0H39.135V39.135H0Z" fill="none"/>
        <path id="Path_2025" data-name="Path 2025" d="M10.523,24.829H23.568V28.09H10.523Zm0-6.523H23.568v3.261H10.523ZM20.306,2H7.261A3.271,3.271,0,0,0,4,5.261v26.09a3.257,3.257,0,0,0,3.245,3.261H26.829a3.271,3.271,0,0,0,3.261-3.261V11.784Zm6.523,29.352H7.261V5.261H18.676v8.153h8.153Z" transform="translate(2.523 1.261)" fill="#e97f5b"/>
      </g>
      <g id="Group_311" data-name="Group 311" transform="translate(17.937 0)">
        <g id="Path_2019" data-name="Path 2019" transform="translate(-13 -1)" fill="#e97f5b">
          <path d="M 21.65999794006348 19.31999588012695 C 16.33345794677734 19.31999588012695 11.99999809265137 14.98653507232666 11.99999809265137 9.659995079040527 C 11.99999809265137 4.333455085754395 16.33345794677734 5.079040420241654e-06 21.65999794006348 5.079040420241654e-06 C 26.98653793334961 5.079040420241654e-06 31.31999778747559 4.333455085754395 31.31999778747559 9.659995079040527 C 31.31999778747559 14.98653507232666 26.98653793334961 19.31999588012695 21.65999794006348 19.31999588012695 Z" stroke="none"/>
          <path d="M 21.65999794006348 0.9999942779541016 C 16.87967872619629 0.9999942779541016 12.99999809265137 4.879674911499023 12.99999809265137 9.659995079040527 C 12.99999809265137 14.44031524658203 16.87967872619629 18.31998443603516 21.65999794006348 18.31998443603516 C 26.4403076171875 18.31998443603516 30.31999778747559 14.44031524658203 30.31999778747559 9.659995079040527 C 30.31999778747559 4.879674911499023 26.4403076171875 0.9999942779541016 21.65999794006348 0.9999942779541016 M 22.52599716186523 11.39199447631836 L 20.79399871826172 11.39199447631836 L 20.79399871826172 4.463994979858398 L 22.52599716186523 4.463994979858398 L 22.52599716186523 11.39199447631836 M 22.52599716186523 14.85598564147949 L 20.79399871826172 14.85598564147949 L 20.79399871826172 13.12398529052734 L 22.52599716186523 13.12398529052734 L 22.52599716186523 14.85598564147949 M 21.65999794006348 -1.000005722045898 C 27.53793716430664 -1.000005722045898 32.31999969482422 3.782054901123047 32.31999969482422 9.659995079040527 C 32.31999969482422 15.53793525695801 27.53793716430664 20.31998443603516 21.65999794006348 20.31998443603516 C 15.78205871582031 20.31998443603516 10.99999618530273 15.53793525695801 10.99999618530273 9.659995079040527 C 10.99999618530273 3.782054901123047 15.78205871582031 -1.000005722045898 21.65999794006348 -1.000005722045898 Z" stroke="none" fill="#fff"/>
        </g>
      </g>
    </g>
  </g>
</svg>
