<svg xmlns="http://www.w3.org/2000/svg" width="70" height="70" viewBox="0 0 70 70">
  <g id="Group_5614" data-name="Group 5614" transform="translate(-1387 -2157)">
    <circle id="Ellipse_64" data-name="Ellipse 64" cx="35" cy="35" r="35" transform="translate(1387 2157)" fill="rgba(120,108,230,0.2)"/>
    <path id="dvr_FILL0_wght300_GRAD0_opsz48" d="M108.288-801.245a1.216,1.216,0,0,0,.89-.364,1.2,1.2,0,0,0,.367-.887,1.215,1.215,0,0,0-.364-.89,1.2,1.2,0,0,0-.887-.367,1.215,1.215,0,0,0-.89.364,1.2,1.2,0,0,0-.367.887,1.216,1.216,0,0,0,.364.89A1.2,1.2,0,0,0,108.288-801.245Zm0-7.368a1.215,1.215,0,0,0,.89-.364,1.2,1.2,0,0,0,.367-.887,1.216,1.216,0,0,0-.364-.89,1.2,1.2,0,0,0-.887-.367,1.216,1.216,0,0,0-.89.364,1.2,1.2,0,0,0-.367.887,1.216,1.216,0,0,0,.364.89A1.2,1.2,0,0,0,108.288-808.613Zm3.793,7.159h16.012v-2.09H112.081Zm0-7.368h16.012v-2.09H112.081Zm-.691,20.139v-3.684h-8.732a2.555,2.555,0,0,1-1.87-.787,2.555,2.555,0,0,1-.787-1.87v-22.318a2.555,2.555,0,0,1,.787-1.87,2.555,2.555,0,0,1,1.87-.787h29.686a2.555,2.555,0,0,1,1.87.787,2.555,2.555,0,0,1,.787,1.87v22.318a2.555,2.555,0,0,1-.787,1.87,2.555,2.555,0,0,1-1.87.787h-8.732v3.684Zm-8.732-5.774h29.686a.542.542,0,0,0,.39-.177.542.542,0,0,0,.177-.39v-22.318a.542.542,0,0,0-.177-.39.542.542,0,0,0-.39-.177H102.658a.542.542,0,0,0-.39.177.542.542,0,0,0-.177.39v22.318a.542.542,0,0,0,.177.39A.542.542,0,0,0,102.658-794.457Zm-.567,0v0Z" transform="translate(1304.999 2997.999)" fill="#786ce6"/>
  </g>
</svg>
