<svg xmlns="http://www.w3.org/2000/svg" width="70" height="70" viewBox="0 0 70 70">
  <g id="Group_5620" data-name="Group 5620" transform="translate(-924 -2144)">
    <g id="Group_137" data-name="Group 137" transform="translate(924.486 2144)">
      <circle id="Ellipse_65" data-name="Ellipse 65" cx="35" cy="35" r="35" transform="translate(-0.486)" fill="rgba(243,133,95,0.21)"/>
      <g id="contact_support_black_24dp" transform="translate(14 14)">
        <path id="Path_1420" data-name="Path 1420" d="M0,0H42V42H0Z" fill="none"/>
        <g id="Group_298" data-name="Group 298" transform="translate(2 1)">
          <circle id="Ellipse_125" data-name="Ellipse 125" cx="1.5" cy="1.5" r="1.5" transform="translate(12.514 17)" fill="#f3855f"/>
          <circle id="Ellipse_126" data-name="Ellipse 126" cx="1.5" cy="1.5" r="1.5" transform="translate(16.514 17)" fill="#f3855f"/>
          <circle id="Ellipse_127" data-name="Ellipse 127" cx="1.5" cy="1.5" r="1.5" transform="translate(20.514 17)" fill="#f3855f"/>
        </g>
      </g>
    </g>
    <path id="new_window_FILL0_wght300_GRAD0_opsz48" d="M142.546-790a2.447,2.447,0,0,1-1.792-.754,2.447,2.447,0,0,1-.754-1.792v-24.909a2.447,2.447,0,0,1,.754-1.792,2.447,2.447,0,0,1,1.792-.754h11.64v2h-11.64a.519.519,0,0,0-.373.17.519.519,0,0,0-.17.373v24.909a.519.519,0,0,0,.17.373.519.519,0,0,0,.373.17h24.909a.519.519,0,0,0,.373-.17.519.519,0,0,0,.17-.373v-11.64h2v11.64a2.447,2.447,0,0,1-.754,1.792,2.447,2.447,0,0,1-1.792.754ZM162.7-807.409V-812.7h-5.294v-2H162.7V-820h2v5.294H170v2h-5.294v5.294Z" transform="translate(803.999 2981.999)" fill="#f3855f"/>
  </g>
</svg>
