<svg xmlns="http://www.w3.org/2000/svg" xmlns:xlink="http://www.w3.org/1999/xlink" width="726" height="531" viewBox="0 0 726 531">
  <defs>
    <filter id="Rectangle_5724" x="22" y="43" width="698" height="459" filterUnits="userSpaceOnUse">
      <feOffset dy="3" input="SourceAlpha"/>
      <feGaussianBlur stdDeviation="13" result="blur"/>
      <feFlood flood-opacity="0.102"/>
      <feComposite operator="in" in2="blur"/>
      <feComposite in="SourceGraphic"/>
    </filter>
    <filter id="Rectangle_8" x="469" y="54" width="257" height="153" filterUnits="userSpaceOnUse">
      <feOffset dy="3" input="SourceAlpha"/>
      <feGaussianBlur stdDeviation="18" result="blur-2"/>
      <feFlood flood-color="#50c25f" flood-opacity="0.6"/>
      <feComposite operator="in" in2="blur-2"/>
      <feComposite in="SourceGraphic"/>
    </filter>
    <filter id="Rectangle_5729" x="0" y="241" width="284" height="290" filterUnits="userSpaceOnUse">
      <feOffset dy="3" input="SourceAlpha"/>
      <feGaussianBlur stdDeviation="13" result="blur-3"/>
      <feFlood flood-color="#7367dd" flood-opacity="0.2"/>
      <feComposite operator="in" in2="blur-3"/>
      <feComposite in="SourceGraphic"/>
    </filter>
  </defs>
  <g id="Group_7034" data-name="Group 7034" transform="translate(-920 -3695.07)">
    <g id="Group_7027" data-name="Group 7027" transform="translate(938 3695)">
      <g id="Group_68" data-name="Group 68" transform="translate(4.824 0)">
        <g id="Ellipse_49" data-name="Ellipse 49" transform="translate(0.176 0.069)" fill="rgba(255,255,255,0)" stroke="rgba(41,45,52,0.5)" stroke-width="1" stroke-dasharray="8">
          <circle cx="216.5" cy="216.5" r="216.5" stroke="none"/>
          <circle cx="216.5" cy="216.5" r="216" fill="none"/>
        </g>
        <g id="Ellipse_48" data-name="Ellipse 48" transform="translate(39.176 40.07)" fill="rgba(255,255,255,0)" stroke="rgba(41,45,52,0.5)" stroke-width="1" stroke-dasharray="8">
          <ellipse cx="177.5" cy="177" rx="177.5" ry="177" stroke="none"/>
          <ellipse cx="177.5" cy="177" rx="177" ry="176.5" fill="none"/>
        </g>
      </g>
      <circle id="Ellipse_50" data-name="Ellipse 50" cx="5.5" cy="5.5" r="5.5" transform="translate(236 36.07)" fill="#f3855f"/>
      <ellipse id="Ellipse_53" data-name="Ellipse 53" cx="5.5" cy="6" rx="5.5" ry="6" transform="translate(135 395.07)" fill="#786ce6"/>
      <circle id="Ellipse_55" data-name="Ellipse 55" cx="5.5" cy="5.5" r="5.5" transform="translate(0 212.07)" fill="#f5c143"/>
      <ellipse id="Ellipse_54" data-name="Ellipse 54" cx="5" cy="4.5" rx="5" ry="4.5" transform="translate(289 415.07)" fill="#4694eb"/>
      <circle id="Ellipse_51" data-name="Ellipse 51" cx="5" cy="5" r="5" transform="translate(88 37.07)" fill="#8cca85"/>
      <circle id="Ellipse_52" data-name="Ellipse 52" cx="5.5" cy="5.5" r="5.5" transform="translate(348 40.07)" fill="#4694eb"/>
    </g>
    <g id="Group_7032" data-name="Group 7032" transform="translate(959.222 3776.029)">
      <g id="Group_7961" data-name="Group 7961" transform="translate(27.01 0)">
        <g transform="matrix(1, 0, 0, 1, -66.23, -80.96)" filter="url(#Rectangle_5724)">
          <rect id="Rectangle_5724-2" data-name="Rectangle 5724" width="620" height="381" rx="16" transform="translate(61 79)" fill="#fff"/>
        </g>
        <g id="Group_7953" data-name="Group 7953" transform="translate(218.972 145.423)">
          <g id="Shift_Box" data-name="Shift Box" transform="translate(197.75 0)">
            <path id="Rectangle_3134" data-name="Rectangle 3134" d="M0,0H185.444a3.566,3.566,0,0,1,3.566,3.566V50.819a3.566,3.566,0,0,1-3.566,3.566H0Z" transform="translate(0.263)" fill="#e4f5ff"/>
            <rect id="Rectangle_3" data-name="Rectangle 3" width="4" height="10" rx="2" transform="translate(0.046 22.617)" fill="#00c551"/>
            <g id="Group_4262" data-name="Group 4262" transform="translate(5.787 6.989)">
              <text id="_08:00_-_18:00" data-name="08:00 - 18:00" transform="translate(0.259 11.628)" fill="#323a45" font-size="11" font-family="SegoeUI, Segoe UI"><tspan x="0" y="0">08:00 - 18:00</tspan></text>
              <g id="Group_5619" data-name="Group 5619" transform="translate(0 21.222)">
                <text id="Add_Guard" data-name="Add Guard" transform="translate(19.258 11.406)" fill="#323a45" font-size="9" font-family="SegoeUI, Segoe UI"><tspan x="0" y="0">Simon Knight</tspan></text>
                <g id="Group_13_Copy_3" data-name="Group 13 Copy 3" transform="translate(0 0)">
                  <g id="Oval_Copy_7" data-name="Oval Copy 7" transform="translate(0.258 0.406)" fill="#fff" stroke="#ff7d51" stroke-width="0.5">
                    <circle cx="9" cy="9" r="9" stroke="none"/>
                    <circle cx="9" cy="9" r="8.75" fill="none"/>
                  </g>
                  <text id="SK" transform="translate(3.258 12.406)" fill="#ff7d51" font-size="9" font-family="SegoeUI-Bold, Segoe UI" font-weight="700"><tspan x="0" y="0">SK</tspan></text>
                </g>
              </g>
              <g id="Group_21" data-name="Group 21" transform="translate(129.261 0.965)">
                <text id="_12_26" data-name="12/26" transform="translate(-0.002 9.664)" fill="#323a45" font-size="9" font-family="SegoeUI, Segoe UI"><tspan x="0" y="0">12/27</tspan></text>
              </g>
              <g id="Group_6_Copy_3" data-name="Group 6 Copy 3" transform="translate(139.872 22.222)">
                <g id="Oval_Copy_8" data-name="Oval Copy 8" transform="translate(0.386 0.406)" fill="#fff" stroke="#8b959e" stroke-miterlimit="10" stroke-width="1" stroke-dasharray="1 1">
                  <circle cx="8" cy="8" r="8" stroke="none"/>
                  <circle cx="8" cy="8" r="7.5" fill="none"/>
                </g>
                <text id="_2" data-name="2" transform="translate(6.386 11.906)" fill="#8b959e" font-size="8" font-family="SegoeUI, Segoe UI"><tspan x="0" y="0">2</tspan></text>
              </g>
              <g id="Group_10" data-name="Group 10" transform="translate(129.261 21.222)">
                <g id="Oval_Copy_7-2" data-name="Oval Copy 7" transform="translate(0.998 1.406)" fill="#f4f5f5" stroke="#fff" stroke-miterlimit="10" stroke-width="1">
                  <circle cx="8" cy="8" r="8" stroke="none"/>
                  <circle cx="8" cy="8" r="7.5" fill="none"/>
                </g>
                <text id="_23_" data-name="23+" transform="translate(3.998 12.406)" fill="#8b959e" font-size="8" font-family="SegoeUI, Segoe UI"><tspan x="0" y="0">+3</tspan></text>
              </g>
              <path id="person_FILL1_wght300_GRAD0_opsz48" d="M13.435,14.017a1.9,1.9,0,0,1-1.966-1.966,1.887,1.887,0,0,1,.555-1.4,2.1,2.1,0,0,1,2.824,0,1.887,1.887,0,0,1,.555,1.4,1.9,1.9,0,0,1-1.966,1.966ZM9,18.526V17.4a1.4,1.4,0,0,1,.251-.828,1.672,1.672,0,0,1,.651-.547,10.823,10.823,0,0,1,1.811-.624,7.378,7.378,0,0,1,1.722-.207,7.132,7.132,0,0,1,1.722.214,11.751,11.751,0,0,1,1.8.613,1.648,1.648,0,0,1,.665.547,1.4,1.4,0,0,1,.251.828v1.123Z" transform="translate(109.386 -5.469)" fill="#8b959e"/>
            </g>
          </g>
          <g id="Shift_Box-2" data-name="Shift Box" transform="translate(0 0)">
            <path id="Rectangle_3134-2" data-name="Rectangle 3134" d="M0,0H185.444a3.566,3.566,0,0,1,3.566,3.566V50.819a3.566,3.566,0,0,1-3.566,3.566H0Z" transform="translate(0.088)" fill="#e7ffe7"/>
            <rect id="Rectangle_3-2" data-name="Rectangle 3" width="4" height="10" rx="2" transform="translate(-0.204 22.617)" fill="#00c551"/>
            <g id="Group_4262-2" data-name="Group 4262" transform="translate(5.787 6.989)">
              <text id="Add_Guard-2" data-name="Add Guard" transform="translate(19.009 32.628)" fill="#323a45" font-size="9" font-family="SegoeUI, Segoe UI"><tspan x="0" y="0">Simon Knight</tspan></text>
              <text id="_08:00_-_18:00-2" data-name="08:00 - 18:00" transform="translate(0.009 11.628)" fill="#323a45" font-size="11" font-family="SegoeUI, Segoe UI"><tspan x="0" y="0">08:00 - 18:00</tspan></text>
              <g id="Group_13_Copy_3-2" data-name="Group 13 Copy 3" transform="translate(0 21.222)">
                <g id="Oval_Copy_7-3" data-name="Oval Copy 7" transform="translate(0.009 0.406)" fill="#fff" stroke="#ff7d51" stroke-width="0.5">
                  <circle cx="9" cy="9" r="9" stroke="none"/>
                  <circle cx="9" cy="9" r="8.75" fill="none"/>
                </g>
                <text id="SK-2" data-name="SK" transform="translate(3.009 12.406)" fill="#ff7d51" font-size="9" font-family="SegoeUI-Bold, Segoe UI" font-weight="700"><tspan x="0" y="0">SK</tspan></text>
              </g>
              <g id="Group_21-2" data-name="Group 21" transform="translate(128.297 0.965)">
                <text id="_12_26-2" data-name="12/26" transform="translate(-0.288 9.664)" fill="#323a45" font-size="9" font-family="SegoeUI, Segoe UI"><tspan x="0" y="0">12/27</tspan></text>
              </g>
              <g id="Group_6_Copy_3-2" data-name="Group 6 Copy 3" transform="translate(139.872 21.222)">
                <g id="Oval_Copy_8-2" data-name="Oval Copy 8" transform="translate(0.137 0.406)" fill="#fff" stroke="#8b959e" stroke-miterlimit="10" stroke-width="1" stroke-dasharray="1 1">
                  <circle cx="8" cy="8" r="8" stroke="none"/>
                  <circle cx="8" cy="8" r="7.5" fill="none"/>
                </g>
                <text id="_2-2" data-name="2" transform="translate(6.049 11.21)" fill="#8b959e" font-size="8" font-family="SegoeUI, Segoe UI"><tspan x="0" y="0">2</tspan></text>
              </g>
              <g id="Group_10-2" data-name="Group 10" transform="translate(128.297 21.222)">
                <g id="Oval_Copy_7-4" data-name="Oval Copy 7" transform="translate(-0.288 0.406)" fill="#f4f5f5" stroke="#fff" stroke-miterlimit="10" stroke-width="1">
                  <circle cx="8" cy="8" r="8" stroke="none"/>
                  <circle cx="8" cy="8" r="7.5" fill="none"/>
                </g>
                <text id="_23_2" data-name="23+" transform="translate(2.66 11.102)" fill="#8b959e" font-size="8" font-family="SegoeUI, Segoe UI"><tspan x="0" y="0">+3</tspan></text>
              </g>
              <path id="person_FILL1_wght300_GRAD0_opsz48-2" data-name="person_FILL1_wght300_GRAD0_opsz48" d="M13.435,14.017a1.9,1.9,0,0,1-1.966-1.966,1.887,1.887,0,0,1,.555-1.4,2.1,2.1,0,0,1,2.824,0,1.887,1.887,0,0,1,.555,1.4,1.9,1.9,0,0,1-1.966,1.966ZM9,18.526V17.4a1.4,1.4,0,0,1,.251-.828,1.672,1.672,0,0,1,.651-.547,10.823,10.823,0,0,1,1.811-.624,7.378,7.378,0,0,1,1.722-.207,7.132,7.132,0,0,1,1.722.214,11.751,11.751,0,0,1,1.8.613,1.648,1.648,0,0,1,.665.547,1.4,1.4,0,0,1,.251.828v1.123Z" transform="translate(109.211 -5.469)" fill="#8b959e"/>
            </g>
          </g>
          <g id="Shift_Box-3" data-name="Shift Box" transform="translate(197.75 63.301)">
            <path id="Rectangle_3134-3" data-name="Rectangle 3134" d="M0,0H185.444a3.566,3.566,0,0,1,3.566,3.566V50.819a3.566,3.566,0,0,1-3.566,3.566H0Z" transform="translate(0.263)" fill="#e7ffe7"/>
            <rect id="Rectangle_3-3" data-name="Rectangle 3" width="4" height="11" rx="2" transform="translate(0.046 22.316)" fill="#00c551"/>
            <g id="Group_4262-3" data-name="Group 4262" transform="translate(5.788 7.354)">
              <text id="Add_Guard-3" data-name="Add Guard" transform="translate(19.258 31.962)" fill="#323a45" font-size="9" font-family="SegoeUI, Segoe UI"><tspan x="0" y="0">Simon Knight</tspan></text>
              <text id="_08:00_-_18:00-3" data-name="08:00 - 18:00" transform="translate(0.258 11.962)" fill="#323a45" font-size="11" font-family="SegoeUI, Segoe UI"><tspan x="0" y="0">08:00 - 18:00</tspan></text>
              <g id="Group_13_Copy_3-3" data-name="Group 13 Copy 3" transform="translate(0 21.222)">
                <g id="Oval_Copy_7-5" data-name="Oval Copy 7" transform="translate(0.258 -0.26)" fill="#fff" stroke="#ff7d51" stroke-width="0.5">
                  <circle cx="9" cy="9" r="9" stroke="none"/>
                  <circle cx="9" cy="9" r="8.75" fill="none"/>
                </g>
                <text id="SK-3" data-name="SK" transform="translate(3.258 11.74)" fill="#ff7d51" font-size="9" font-family="SegoeUI-Bold, Segoe UI" font-weight="700"><tspan x="0" y="0">SK</tspan></text>
              </g>
              <g id="Group_21-3" data-name="Group 21" transform="translate(129.261 0.965)">
                <text id="_12_26-3" data-name="12/26" transform="translate(-0.002 9.998)" fill="#323a45" font-size="9" font-family="SegoeUI, Segoe UI"><tspan x="0" y="0">12/27</tspan></text>
              </g>
              <g id="Group_6_Copy_3-3" data-name="Group 6 Copy 3" transform="translate(139.872 21.222)">
                <g id="Oval_Copy_8-3" data-name="Oval Copy 8" transform="translate(0.386 -0.26)" fill="#fff" stroke="#8b959e" stroke-miterlimit="10" stroke-width="1" stroke-dasharray="1 1">
                  <circle cx="8" cy="8" r="8" stroke="none"/>
                  <circle cx="8" cy="8" r="7.5" fill="none"/>
                </g>
                <text id="_2-3" data-name="2" transform="translate(6.386 10.74)" fill="#8b959e" font-size="8" font-family="SegoeUI, Segoe UI"><tspan x="0" y="0">2</tspan></text>
              </g>
              <g id="Group_10-3" data-name="Group 10" transform="translate(129.261 21.222)">
                <g id="Oval_Copy_7-6" data-name="Oval Copy 7" transform="translate(-0.002 -0.26)" fill="#f4f5f5" stroke="#fff" stroke-miterlimit="10" stroke-width="1">
                  <circle cx="8" cy="8" r="8" stroke="none"/>
                  <circle cx="8" cy="8" r="7.5" fill="none"/>
                </g>
                <text id="_23_3" data-name="23+" transform="translate(2.871 10.737)" fill="#8b959e" font-size="8" font-family="SegoeUI, Segoe UI"><tspan x="0" y="0">+3</tspan></text>
              </g>
              <path id="person_FILL1_wght300_GRAD0_opsz48-3" data-name="person_FILL1_wght300_GRAD0_opsz48" d="M13.435,14.017a1.9,1.9,0,0,1-1.966-1.966,1.887,1.887,0,0,1,.555-1.4,2.1,2.1,0,0,1,2.824,0,1.887,1.887,0,0,1,.555,1.4,1.9,1.9,0,0,1-1.966,1.966ZM9,18.526V17.4a1.4,1.4,0,0,1,.251-.828,1.672,1.672,0,0,1,.651-.547,10.823,10.823,0,0,1,1.811-.624,7.378,7.378,0,0,1,1.722-.207,7.132,7.132,0,0,1,1.722.214,11.751,11.751,0,0,1,1.8.613,1.648,1.648,0,0,1,.665.547,1.4,1.4,0,0,1,.251.828v1.123Z" transform="translate(109.386 -5.835)" fill="#8b959e"/>
            </g>
          </g>
          <g id="Shift_Box-4" data-name="Shift Box" transform="translate(0 63.301)">
            <path id="Rectangle_3134-4" data-name="Rectangle 3134" d="M0,0H185.444a3.566,3.566,0,0,1,3.566,3.566V50.819a3.566,3.566,0,0,1-3.566,3.566H0Z" transform="translate(0.088)" fill="#fff9e6"/>
            <rect id="Rectangle_3-4" data-name="Rectangle 3" width="4" height="11" rx="2" transform="translate(-0.204 22.316)" fill="#00c551"/>
            <g id="Group_4262-4" data-name="Group 4262" transform="translate(5.787 7.354)">
              <text id="Add_Guard-4" data-name="Add Guard" transform="translate(19.009 31.962)" fill="#323a45" font-size="9" font-family="SegoeUI, Segoe UI"><tspan x="0" y="0">Simon Knight</tspan></text>
              <text id="_08:00_-_18:00-4" data-name="08:00 - 18:00" transform="translate(0.009 11.962)" fill="#323a45" font-size="11" font-family="SegoeUI, Segoe UI"><tspan x="0" y="0">08:00 - 18:00</tspan></text>
              <g id="Group_13_Copy_3-4" data-name="Group 13 Copy 3" transform="translate(0 21.222)">
                <g id="Oval_Copy_7-7" data-name="Oval Copy 7" transform="translate(0.009 -0.26)" fill="#fff" stroke="#ff7d51" stroke-width="0.5">
                  <circle cx="9" cy="9" r="9" stroke="none"/>
                  <circle cx="9" cy="9" r="8.75" fill="none"/>
                </g>
                <text id="SK-4" data-name="SK" transform="translate(3.009 11.74)" fill="#ff7d51" font-size="9" font-family="SegoeUI-Bold, Segoe UI" font-weight="700"><tspan x="0" y="0">SK</tspan></text>
              </g>
              <g id="Group_21-4" data-name="Group 21" transform="translate(128.297 0.965)">
                <text id="_12_26-4" data-name="12/26" transform="translate(-0.288 9.998)" fill="#323a45" font-size="9" font-family="SegoeUI, Segoe UI"><tspan x="0" y="0">12/27</tspan></text>
              </g>
              <g id="Group_6_Copy_3-4" data-name="Group 6 Copy 3" transform="translate(139.872 21.222)">
                <g id="Oval_Copy_8-4" data-name="Oval Copy 8" transform="translate(0.137 -0.26)" fill="#fff" stroke="#8b959e" stroke-miterlimit="10" stroke-width="1" stroke-dasharray="1 1">
                  <circle cx="8" cy="8" r="8" stroke="none"/>
                  <circle cx="8" cy="8" r="7.5" fill="none"/>
                </g>
                <text id="_2-4" data-name="2" transform="translate(6.458 10.845)" fill="#8b959e" font-size="8" font-family="SegoeUI, Segoe UI"><tspan x="0" y="0">2</tspan></text>
              </g>
              <g id="Group_10-4" data-name="Group 10" transform="translate(128.297 21.222)">
                <g id="Oval_Copy_7-8" data-name="Oval Copy 7" transform="translate(-0.288 -0.26)" fill="#f4f5f5" stroke="#fff" stroke-miterlimit="10" stroke-width="1">
                  <circle cx="8" cy="8" r="8" stroke="none"/>
                  <circle cx="8" cy="8" r="7.5" fill="none"/>
                </g>
                <text id="_23_4" data-name="23+" transform="translate(2.66 10.737)" fill="#8b959e" font-size="8" font-family="SegoeUI, Segoe UI"><tspan x="0" y="0">+3</tspan></text>
              </g>
              <path id="person_FILL1_wght300_GRAD0_opsz48-4" data-name="person_FILL1_wght300_GRAD0_opsz48" d="M13.435,14.017a1.9,1.9,0,0,1-1.966-1.966,1.887,1.887,0,0,1,.555-1.4,2.1,2.1,0,0,1,2.824,0,1.887,1.887,0,0,1,.555,1.4,1.9,1.9,0,0,1-1.966,1.966ZM9,18.526V17.4a1.4,1.4,0,0,1,.251-.828,1.672,1.672,0,0,1,.651-.547,10.823,10.823,0,0,1,1.811-.624,7.378,7.378,0,0,1,1.722-.207,7.132,7.132,0,0,1,1.722.214,11.751,11.751,0,0,1,1.8.613,1.648,1.648,0,0,1,.665.547,1.4,1.4,0,0,1,.251.828v1.123Z" transform="translate(109.211 -5.835)" fill="#8b959e"/>
            </g>
          </g>
          <g id="Shift_Box-5" data-name="Shift Box" transform="translate(0 126.601)">
            <path id="Rectangle_3134-5" data-name="Rectangle 3134" d="M0,0H185.444a3.566,3.566,0,0,1,3.566,3.566V50.819a3.566,3.566,0,0,1-3.566,3.566H0Z" transform="translate(0.088)" fill="#f7f8fa"/>
            <rect id="Rectangle_3-5" data-name="Rectangle 3" width="4" height="11" rx="2" transform="translate(-0.204 22.016)" fill="#8b959e"/>
            <g id="Group_4262-5" data-name="Group 4262" transform="translate(5.787 6.755)">
              <text id="Add_Guard-5" data-name="Add Guard" transform="translate(19.009 32.261)" fill="#8b959e" font-size="9" font-family="SegoeUI, Segoe UI"><tspan x="0" y="0">Simon Knight</tspan></text>
              <text id="_08:00_-_18:00-5" data-name="08:00 - 18:00" transform="translate(0.009 12.261)" fill="#8b959e" font-size="11" font-family="SegoeUI, Segoe UI"><tspan x="0" y="0">08:00 - 18:00</tspan></text>
              <g id="Group_13_Copy_3-5" data-name="Group 13 Copy 3" transform="translate(0 22.186)">
                <g id="Oval_Copy_7-9" data-name="Oval Copy 7" transform="translate(0.009 0.074)" fill="#fff" stroke="#8b959e" stroke-width="0.5">
                  <circle cx="9" cy="9" r="9" stroke="none"/>
                  <circle cx="9" cy="9" r="8.75" fill="none"/>
                </g>
                <text id="SK-5" data-name="SK" transform="translate(3.509 12.075)" fill="#8b959e" font-size="9" font-family="SegoeUI-Bold, Segoe UI" font-weight="700"><tspan x="0" y="0">SK</tspan></text>
              </g>
              <g id="Group_21-5" data-name="Group 21" transform="translate(128.297 0.965)">
                <text id="_12_26-5" data-name="12/26" transform="translate(-0.288 10.296)" fill="#8b959e" font-size="9" font-family="SegoeUI, Segoe UI"><tspan x="0" y="0">12/27</tspan></text>
              </g>
              <g id="Group_6_Copy_3-5" data-name="Group 6 Copy 3" transform="translate(139.872 22.186)">
                <g id="Oval_Copy_8-5" data-name="Oval Copy 8" transform="translate(0.137 0.074)" fill="#fff" stroke="#8b959e" stroke-miterlimit="10" stroke-width="1" stroke-dasharray="1 1">
                  <circle cx="8" cy="8" r="8" stroke="none"/>
                  <circle cx="8" cy="8" r="7.5" fill="none"/>
                </g>
                <text id="_2-5" data-name="2" transform="translate(6.458 10.48)" fill="#8b959e" font-size="8" font-family="SegoeUI, Segoe UI"><tspan x="0" y="0">2</tspan></text>
              </g>
              <g id="Group_10-5" data-name="Group 10" transform="translate(128.297 22.186)">
                <g id="Oval_Copy_7-10" data-name="Oval Copy 7" transform="translate(-0.288 0.074)" fill="#f4f5f5" stroke="#fff" stroke-miterlimit="10" stroke-width="1">
                  <circle cx="8" cy="8" r="8" stroke="none"/>
                  <circle cx="8" cy="8" r="7.5" fill="none"/>
                </g>
                <text id="_23_5" data-name="23+" transform="translate(2.66 10.371)" fill="#8b959e" font-size="8" font-family="SegoeUI, Segoe UI"><tspan x="0" y="0">+3</tspan></text>
              </g>
              <path id="person_FILL1_wght300_GRAD0_opsz48-5" data-name="person_FILL1_wght300_GRAD0_opsz48" d="M13.435,14.017a1.9,1.9,0,0,1-1.966-1.966,1.887,1.887,0,0,1,.555-1.4,2.1,2.1,0,0,1,2.824,0,1.887,1.887,0,0,1,.555,1.4,1.9,1.9,0,0,1-1.966,1.966ZM9,18.526V17.4a1.4,1.4,0,0,1,.251-.828,1.672,1.672,0,0,1,.651-.547,10.823,10.823,0,0,1,1.811-.624,7.378,7.378,0,0,1,1.722-.207,7.132,7.132,0,0,1,1.722.214,11.751,11.751,0,0,1,1.8.613,1.648,1.648,0,0,1,.665.547,1.4,1.4,0,0,1,.251.828v1.123Z" transform="translate(109.211 -5.235)" fill="#8b959e"/>
            </g>
            <path id="unpublished_FILL0_wght200_GRAD0_opsz24" d="M87.382-843.868l-2.175-2.175a5.638,5.638,0,0,1-1.6.9,5.386,5.386,0,0,1-1.872.323,5.435,5.435,0,0,1-2.176-.439,5.635,5.635,0,0,1-1.772-1.193,5.636,5.636,0,0,1-1.193-1.772,5.439,5.439,0,0,1-.44-2.176,5.388,5.388,0,0,1,.323-1.872,5.637,5.637,0,0,1,.9-1.6l-1.917-1.917.446-.446L87.825-844.31Zm-5.649-1.569a4.682,4.682,0,0,0,1.63-.282,5.114,5.114,0,0,0,1.394-.774l-2.7-2.7-1.215,1.219-2.207-2.207.439-.439,1.767,1.767.777-.78-3.79-3.79a5.115,5.115,0,0,0-.774,1.394,4.683,4.683,0,0,0-.282,1.63,4.782,4.782,0,0,0,1.45,3.512,4.782,4.782,0,0,0,3.516,1.45Zm4.725-1.979L86-847.878a4.755,4.755,0,0,0,.516-1.187,4.889,4.889,0,0,0,.178-1.337,4.783,4.783,0,0,0-1.45-3.512,4.782,4.782,0,0,0-3.512-1.45,4.892,4.892,0,0,0-1.331.178,4.746,4.746,0,0,0-1.188.515l-.462-.462a5.674,5.674,0,0,1,1.4-.629,5.523,5.523,0,0,1,1.579-.223,5.437,5.437,0,0,1,2.176.44,5.637,5.637,0,0,1,1.772,1.193,5.638,5.638,0,0,1,1.193,1.772,5.44,5.44,0,0,1,.44,2.176,5.527,5.527,0,0,1-.223,1.579,5.675,5.675,0,0,1-.626,1.407Zm-3.087-3.091-.439-.439,1.434-1.434.439.439ZM82.608-851.274ZM81.291-849.963Z" transform="translate(95.213 866.037)" fill="#8b959e"/>
          </g>
          <g id="Shift_Box-6" data-name="Shift Box" transform="translate(197.75 126.601)">
            <path id="Rectangle_3134-6" data-name="Rectangle 3134" d="M0,0H185.444a3.566,3.566,0,0,1,3.566,3.566V50.819a3.566,3.566,0,0,1-3.566,3.566H0Z" transform="translate(0.263)" fill="#f7f8fa"/>
            <rect id="Rectangle_3-6" data-name="Rectangle 3" width="4" height="11" rx="2" transform="translate(0.046 22.016)" fill="#8b959e"/>
            <g id="Group_4262-6" data-name="Group 4262" transform="translate(5.788 6.755)">
              <text id="Add_Guard-6" data-name="Add Guard" transform="translate(19.258 32.261)" fill="#8b959e" font-size="9" font-family="SegoeUI, Segoe UI"><tspan x="0" y="0">Simon Knight</tspan></text>
              <text id="_08:00_-_18:00-6" data-name="08:00 - 18:00" transform="translate(0.258 12.261)" fill="#8b959e" font-size="11" font-family="SegoeUI, Segoe UI"><tspan x="0" y="0">08:00 - 18:00</tspan></text>
              <g id="Group_13_Copy_3-6" data-name="Group 13 Copy 3" transform="translate(0 22.186)">
                <g id="Oval_Copy_7-11" data-name="Oval Copy 7" transform="translate(0.258 0.074)" fill="#fff" stroke="#8b959e" stroke-width="0.5">
                  <circle cx="9" cy="9" r="9" stroke="none"/>
                  <circle cx="9" cy="9" r="8.75" fill="none"/>
                </g>
                <text id="SK-6" data-name="SK" transform="translate(4.258 12.075)" fill="#8b959e" font-size="9" font-family="SegoeUI-Bold, Segoe UI" font-weight="700"><tspan x="0" y="0">SK</tspan></text>
              </g>
              <g id="Group_21-6" data-name="Group 21" transform="translate(129.261 0.965)">
                <text id="_12_26-6" data-name="12/26" transform="translate(-0.002 10.296)" fill="#8b959e" font-size="9" font-family="SegoeUI, Segoe UI"><tspan x="0" y="0">12/27</tspan></text>
              </g>
              <g id="Group_6_Copy_3-6" data-name="Group 6 Copy 3" transform="translate(139.872 22.186)">
                <g id="Oval_Copy_8-6" data-name="Oval Copy 8" transform="translate(0.386 0.074)" fill="#fff" stroke="#8b959e" stroke-miterlimit="10" stroke-width="1" stroke-dasharray="1 1">
                  <circle cx="8" cy="8" r="8" stroke="none"/>
                  <circle cx="8" cy="8" r="7.5" fill="none"/>
                </g>
                <text id="_2-6" data-name="2" transform="translate(6.386 11.575)" fill="#8b959e" font-size="8" font-family="SegoeUI, Segoe UI"><tspan x="0" y="0">2</tspan></text>
              </g>
              <g id="Group_10-6" data-name="Group 10" transform="translate(129.261 22.186)">
                <g id="Oval_Copy_7-12" data-name="Oval Copy 7" transform="translate(-0.002 0.074)" fill="#f4f5f5" stroke="#fff" stroke-miterlimit="10" stroke-width="1">
                  <circle cx="8" cy="8" r="8" stroke="none"/>
                  <circle cx="8" cy="8" r="7.5" fill="none"/>
                </g>
                <text id="_23_6" data-name="23+" transform="translate(2.871 10.371)" fill="#8b959e" font-size="8" font-family="SegoeUI, Segoe UI"><tspan x="0" y="0">+3</tspan></text>
              </g>
              <path id="person_FILL1_wght300_GRAD0_opsz48-6" data-name="person_FILL1_wght300_GRAD0_opsz48" d="M13.435,14.017a1.9,1.9,0,0,1-1.966-1.966,1.887,1.887,0,0,1,.555-1.4,2.1,2.1,0,0,1,2.824,0,1.887,1.887,0,0,1,.555,1.4,1.9,1.9,0,0,1-1.966,1.966ZM9,18.526V17.4a1.4,1.4,0,0,1,.251-.828,1.672,1.672,0,0,1,.651-.547,10.823,10.823,0,0,1,1.811-.624,7.378,7.378,0,0,1,1.722-.207,7.132,7.132,0,0,1,1.722.214,11.751,11.751,0,0,1,1.8.613,1.648,1.648,0,0,1,.665.547,1.4,1.4,0,0,1,.251.828v1.123Z" transform="translate(109.386 -5.235)" fill="#8b959e"/>
            </g>
            <path id="unpublished_FILL0_wght200_GRAD0_opsz24-2" data-name="unpublished_FILL0_wght200_GRAD0_opsz24" d="M87.382-843.868l-2.175-2.175a5.638,5.638,0,0,1-1.6.9,5.386,5.386,0,0,1-1.872.323,5.435,5.435,0,0,1-2.176-.439,5.635,5.635,0,0,1-1.772-1.193,5.636,5.636,0,0,1-1.193-1.772,5.439,5.439,0,0,1-.44-2.176,5.388,5.388,0,0,1,.323-1.872,5.637,5.637,0,0,1,.9-1.6l-1.917-1.917.446-.446L87.825-844.31Zm-5.649-1.569a4.682,4.682,0,0,0,1.63-.282,5.114,5.114,0,0,0,1.394-.774l-2.7-2.7-1.215,1.219-2.207-2.207.439-.439,1.767,1.767.777-.78-3.79-3.79a5.115,5.115,0,0,0-.774,1.394,4.683,4.683,0,0,0-.282,1.63,4.782,4.782,0,0,0,1.45,3.512,4.782,4.782,0,0,0,3.516,1.45Zm4.725-1.979L86-847.878a4.755,4.755,0,0,0,.516-1.187,4.889,4.889,0,0,0,.178-1.337,4.783,4.783,0,0,0-1.45-3.512,4.782,4.782,0,0,0-3.512-1.45,4.892,4.892,0,0,0-1.331.178,4.746,4.746,0,0,0-1.188.515l-.462-.462a5.674,5.674,0,0,1,1.4-.629,5.523,5.523,0,0,1,1.579-.223,5.437,5.437,0,0,1,2.176.44,5.637,5.637,0,0,1,1.772,1.193,5.638,5.638,0,0,1,1.193,1.772,5.44,5.44,0,0,1,.44,2.176,5.527,5.527,0,0,1-.223,1.579,5.675,5.675,0,0,1-.626,1.407Zm-3.087-3.091-.439-.439,1.434-1.434.439.439ZM82.608-851.274ZM81.291-849.963Z" transform="translate(95.389 866.037)" fill="#8b959e"/>
          </g>
        </g>
        <g id="Group_6018" data-name="Group 6018" transform="translate(285.532 97.428)">
          <rect id="Rectangle_12" data-name="Rectangle 12" width="58" height="20" rx="4" transform="translate(0.237 -0.388)" fill="#786ce6"/>
          <text id="Tue_15" data-name="Tue 15" transform="translate(7.481 12.743)" fill="#fff" font-size="11" font-family="SegoeUI, Segoe UI"><tspan x="0" y="0">Mon 15</tspan></text>
        </g>
        <g id="Group_4249" data-name="Group 4249" transform="translate(277.011 120.46)">
          <g id="Group_4247" data-name="Group 4247" transform="translate(45.291 0)">
            <text id="_0_1" data-name="0/1" transform="translate(13.447 12)" fill="#8b959e" font-size="11" font-family="SegoeUI, Segoe UI"><tspan x="0" y="0">32</tspan></text>
            <path id="calendar_month_FILL0_wght300_GRAD0_opsz20" d="M4.457,14.229a.994.994,0,0,1-.74-.308,1.015,1.015,0,0,1-.3-.732V4.995a1.012,1.012,0,0,1,.3-.731.993.993,0,0,1,.74-.309H5.884V2.312h.862V3.954H10.37V2.312h.846V3.954h1.426a.993.993,0,0,1,.74.309,1.012,1.012,0,0,1,.3.731v8.193a1.015,1.015,0,0,1-.3.732.994.994,0,0,1-.74.308Zm0-.845h8.193a.228.228,0,0,0,.2-.2V7.726H4.262v5.463a.228.228,0,0,0,.2.2Zm-.2-6.5h8.584V4.995a.228.228,0,0,0-.2-.2H4.457a.228.228,0,0,0-.2.2Zm0,0ZM8.554,9.921a.5.5,0,0,1-.5-.5A.514.514,0,0,1,8.2,9.051a.5.5,0,0,1,.86.349.514.514,0,0,1-.147.366.473.473,0,0,1-.357.153Zm-2.536,0a.5.5,0,0,1-.5-.5.514.514,0,0,1,.147-.366.5.5,0,0,1,.86.349.514.514,0,0,1-.147.366.473.473,0,0,1-.357.153Zm5.072,0a.5.5,0,0,1-.5-.5.514.514,0,0,1,.147-.366.5.5,0,0,1,.86.349.514.514,0,0,1-.147.366.473.473,0,0,1-.357.153ZM8.554,12.213a.5.5,0,0,1-.5-.5.514.514,0,0,1,.147-.366.5.5,0,0,1,.86.349.514.514,0,0,1-.147.366.473.473,0,0,1-.357.154Zm-2.536,0a.5.5,0,0,1-.5-.5.514.514,0,0,1,.147-.366.5.5,0,0,1,.86.349.514.514,0,0,1-.147.366.473.473,0,0,1-.357.154Zm5.072,0a.5.5,0,0,1-.5-.5.514.514,0,0,1,.147-.366.5.5,0,0,1,.86.349.514.514,0,0,1-.147.366.473.473,0,0,1-.357.154Z" transform="translate(-3.417 0.392)" fill="#8b959e"/>
          </g>
          <g id="Group_4246" data-name="Group 4246" transform="translate(0 0)">
            <text id="_0_1-2" data-name="0/1" transform="translate(15.088 12)" fill="#8b959e" font-size="11" font-family="SegoeUI, Segoe UI"><tspan x="0" y="0">29</tspan></text>
            <path id="schedule_FILL0_wght300_GRAD0_opsz48" d="M13.31,13.859l.535-.535-2.5-2.509V7.666h-.705V11.1Zm-2.352,3.057a5.773,5.773,0,0,1-2.313-.471,5.954,5.954,0,1,1,4.625,0,5.773,5.773,0,0,1-2.313.471ZM10.958,10.958Zm0,5.253a5.057,5.057,0,0,0,3.708-1.544,5.057,5.057,0,0,0,1.544-3.708,5.057,5.057,0,0,0-1.544-3.708,5.057,5.057,0,0,0-3.708-1.544A5.057,5.057,0,0,0,7.25,7.25a5.057,5.057,0,0,0-1.544,3.708A5.057,5.057,0,0,0,7.25,14.666a5.057,5.057,0,0,0,3.708,1.544Z" transform="translate(-5 -2.296)" fill="#8b959e"/>
          </g>
        </g>
        <text id="Wed_16" data-name="Wed 16" transform="translate(492.268 110.171)" fill="#323a45" font-size="11" font-family="SegoeUI, Segoe UI"><tspan x="0" y="0">Tue 16</tspan></text>
        <g id="Group_4250" data-name="Group 4250" transform="translate(474.937 120.46)">
          <g id="Group_4247-2" data-name="Group 4247" transform="translate(45.291 0)">
            <text id="_0_1-3" data-name="0/1" transform="translate(13.447 12)" fill="#8b959e" font-size="11" font-family="SegoeUI, Segoe UI"><tspan x="0" y="0">32</tspan></text>
            <path id="calendar_month_FILL0_wght300_GRAD0_opsz20-2" data-name="calendar_month_FILL0_wght300_GRAD0_opsz20" d="M4.457,14.229a.994.994,0,0,1-.74-.308,1.015,1.015,0,0,1-.3-.732V4.995a1.012,1.012,0,0,1,.3-.731.993.993,0,0,1,.74-.309H5.884V2.312h.862V3.954H10.37V2.312h.846V3.954h1.426a.993.993,0,0,1,.74.309,1.012,1.012,0,0,1,.3.731v8.193a1.015,1.015,0,0,1-.3.732.994.994,0,0,1-.74.308Zm0-.845h8.193a.228.228,0,0,0,.2-.2V7.726H4.262v5.463a.228.228,0,0,0,.2.2Zm-.2-6.5h8.584V4.995a.228.228,0,0,0-.2-.2H4.457a.228.228,0,0,0-.2.2Zm0,0ZM8.554,9.921a.5.5,0,0,1-.5-.5A.514.514,0,0,1,8.2,9.051a.5.5,0,0,1,.86.349.514.514,0,0,1-.147.366.473.473,0,0,1-.357.153Zm-2.536,0a.5.5,0,0,1-.5-.5.514.514,0,0,1,.147-.366.5.5,0,0,1,.86.349.514.514,0,0,1-.147.366.473.473,0,0,1-.357.153Zm5.072,0a.5.5,0,0,1-.5-.5.514.514,0,0,1,.147-.366.5.5,0,0,1,.86.349.514.514,0,0,1-.147.366.473.473,0,0,1-.357.153ZM8.554,12.213a.5.5,0,0,1-.5-.5.514.514,0,0,1,.147-.366.5.5,0,0,1,.86.349.514.514,0,0,1-.147.366.473.473,0,0,1-.357.154Zm-2.536,0a.5.5,0,0,1-.5-.5.514.514,0,0,1,.147-.366.5.5,0,0,1,.86.349.514.514,0,0,1-.147.366.473.473,0,0,1-.357.154Zm5.072,0a.5.5,0,0,1-.5-.5.514.514,0,0,1,.147-.366.5.5,0,0,1,.86.349.514.514,0,0,1-.147.366.473.473,0,0,1-.357.154Z" transform="translate(-3.417 0.392)" fill="#8b959e"/>
          </g>
          <g id="Group_4246-2" data-name="Group 4246" transform="translate(0 0)">
            <text id="_0_1-4" data-name="0/1" transform="translate(15.088 12)" fill="#8b959e" font-size="11" font-family="SegoeUI, Segoe UI"><tspan x="0" y="0">29</tspan></text>
            <path id="schedule_FILL0_wght300_GRAD0_opsz48-2" data-name="schedule_FILL0_wght300_GRAD0_opsz48" d="M13.31,13.859l.535-.535-2.5-2.509V7.666h-.705V11.1Zm-2.352,3.057a5.773,5.773,0,0,1-2.313-.471,5.954,5.954,0,1,1,4.625,0,5.773,5.773,0,0,1-2.313.471ZM10.958,10.958Zm0,5.253a5.057,5.057,0,0,0,3.708-1.544,5.057,5.057,0,0,0,1.544-3.708,5.057,5.057,0,0,0-1.544-3.708,5.057,5.057,0,0,0-3.708-1.544A5.057,5.057,0,0,0,7.25,7.25a5.057,5.057,0,0,0-1.544,3.708A5.057,5.057,0,0,0,7.25,14.666a5.057,5.057,0,0,0,3.708,1.544Z" transform="translate(-5 -2.296)" fill="#8b959e"/>
          </g>
        </g>
        <g id="Group_4258" data-name="Group 4258" transform="translate(14.469 144.695)">
          <text id="The_Walt_Disney_Comp" data-name="The Walt Disney Comp" transform="translate(29.299 12.345)" fill="#323a45" font-size="11" font-family="SegoeUI, Segoe UI"><tspan x="0" y="0">A One Professional</tspan></text>
          <text id="_972_Sylvan_Street_So" data-name="972 Sylvan Street So" transform="translate(29.299 30.345)" fill="#8b959e" font-size="10" font-family="SegoeUI, Segoe UI"><tspan x="0" y="0">Sylvan Street South Angelina..</tspan></text>
          <g id="Site_Icon_Dynamic" data-name="Site Icon Dynamic" transform="translate(0 0.965)">
            <g id="Oval_Copy" data-name="Oval Copy" transform="translate(0 0)">
              <circle id="Oval_Copy-2" data-name="Oval Copy" cx="11" cy="11" r="11" transform="translate(0.299 0.381)" fill="none"/>
              <circle id="Oval_Copy-3" data-name="Oval Copy" cx="11" cy="11" r="11" transform="translate(0.299 0.381)" fill="#bd84c8"/>
            </g>
            <text id="T" transform="translate(7.299 15.381)" fill="#fff" font-size="12" font-family="Playfair Display"><tspan x="0" y="0">A</tspan></text>
          </g>
          <g id="Group_4257" data-name="Group 4257" transform="translate(28.953 36.39)">
            <g id="Group_4247-3" data-name="Group 4247" transform="translate(91.831 0)">
              <text id="_0_1-5" data-name="0/1" transform="translate(13.447 12)" fill="#8b959e" font-size="11" font-family="SegoeUI, Segoe UI"><tspan x="0" y="0">32</tspan></text>
              <path id="calendar_month_FILL0_wght300_GRAD0_opsz20-3" data-name="calendar_month_FILL0_wght300_GRAD0_opsz20" d="M4.457,14.229a.994.994,0,0,1-.74-.308,1.015,1.015,0,0,1-.3-.732V4.995a1.012,1.012,0,0,1,.3-.731.993.993,0,0,1,.74-.309H5.884V2.312h.862V3.954H10.37V2.312h.846V3.954h1.426a.993.993,0,0,1,.74.309,1.012,1.012,0,0,1,.3.731v8.193a1.015,1.015,0,0,1-.3.732.994.994,0,0,1-.74.308Zm0-.845h8.193a.228.228,0,0,0,.2-.2V7.726H4.262v5.463a.228.228,0,0,0,.2.2Zm-.2-6.5h8.584V4.995a.228.228,0,0,0-.2-.2H4.457a.228.228,0,0,0-.2.2Zm0,0ZM8.554,9.921a.5.5,0,0,1-.5-.5A.514.514,0,0,1,8.2,9.051a.5.5,0,0,1,.86.349.514.514,0,0,1-.147.366.473.473,0,0,1-.357.153Zm-2.536,0a.5.5,0,0,1-.5-.5.514.514,0,0,1,.147-.366.5.5,0,0,1,.86.349.514.514,0,0,1-.147.366.473.473,0,0,1-.357.153Zm5.072,0a.5.5,0,0,1-.5-.5.514.514,0,0,1,.147-.366.5.5,0,0,1,.86.349.514.514,0,0,1-.147.366.473.473,0,0,1-.357.153ZM8.554,12.213a.5.5,0,0,1-.5-.5.514.514,0,0,1,.147-.366.5.5,0,0,1,.86.349.514.514,0,0,1-.147.366.473.473,0,0,1-.357.154Zm-2.536,0a.5.5,0,0,1-.5-.5.514.514,0,0,1,.147-.366.5.5,0,0,1,.86.349.514.514,0,0,1-.147.366.473.473,0,0,1-.357.154Zm5.072,0a.5.5,0,0,1-.5-.5.514.514,0,0,1,.147-.366.5.5,0,0,1,.86.349.514.514,0,0,1-.147.366.473.473,0,0,1-.357.154Z" transform="translate(-3.417 0.392)" fill="#8b959e"/>
            </g>
            <g id="Group_4246-3" data-name="Group 4246" transform="translate(46.362 0)">
              <text id="_0_1-6" data-name="0/1" transform="translate(15.088 12)" fill="#8b959e" font-size="11" font-family="SegoeUI, Segoe UI"><tspan x="0" y="0">29</tspan></text>
              <path id="schedule_FILL0_wght300_GRAD0_opsz48-3" data-name="schedule_FILL0_wght300_GRAD0_opsz48" d="M13.31,13.859l.535-.535-2.5-2.509V7.666h-.705V11.1Zm-2.352,3.057a5.773,5.773,0,0,1-2.313-.471,5.954,5.954,0,1,1,4.625,0,5.773,5.773,0,0,1-2.313.471ZM10.958,10.958Zm0,5.253a5.057,5.057,0,0,0,3.708-1.544,5.057,5.057,0,0,0,1.544-3.708,5.057,5.057,0,0,0-1.544-3.708,5.057,5.057,0,0,0-3.708-1.544A5.057,5.057,0,0,0,7.25,7.25a5.057,5.057,0,0,0-1.544,3.708A5.057,5.057,0,0,0,7.25,14.666a5.057,5.057,0,0,0,3.708,1.544Z" transform="translate(-5 -2.296)" fill="#8b959e"/>
            </g>
            <g id="Group_4256" data-name="Group 4256" transform="translate(0 0)">
              <text id="_0_1-7" data-name="0/1" transform="translate(15.981 12)" fill="#8b959e" font-size="11" font-family="SegoeUI, Segoe UI"><tspan x="0" y="0">29</tspan></text>
              <path id="person_FILL0_wght300_GRAD0_opsz48" d="M15.272,15.64a2.683,2.683,0,0,1-2.781-2.776,2.669,2.669,0,0,1,.784-1.986,2.724,2.724,0,0,1,2-.774,2.724,2.724,0,0,1,2,.774,2.669,2.669,0,0,1,.784,1.986,2.683,2.683,0,0,1-2.781,2.781ZM9,22.017V20.428a1.973,1.973,0,0,1,.357-1.171,2.364,2.364,0,0,1,.918-.777,15.305,15.305,0,0,1,2.561-.878,10.432,10.432,0,0,1,2.436-.292,10.093,10.093,0,0,1,2.436.3,15.4,15.4,0,0,1,2.54.892,2.365,2.365,0,0,1,.941.763,1.927,1.927,0,0,1,.357,1.159v1.589Zm.941-.941H20.6v-.648a1.076,1.076,0,0,0-.209-.617,1.421,1.421,0,0,0-.544-.471,10.348,10.348,0,0,0-2.331-.847,10.472,10.472,0,0,0-2.248-.241A10.763,10.763,0,0,0,13,18.493a9.886,9.886,0,0,0-2.331.847,1.467,1.467,0,0,0-.522.471,1.076,1.076,0,0,0-.209.617ZM15.271,14.7a1.76,1.76,0,0,0,1.3-.522,1.783,1.783,0,0,0,.522-1.317,1.819,1.819,0,0,0-3.638,0,1.783,1.783,0,0,0,.522,1.317,1.76,1.76,0,0,0,1.3.522ZM15.272,12.864ZM15.272,21.076Z" transform="translate(-9 -7.426)" fill="#8b959e"/>
            </g>
          </g>
        </g>
        <g id="Group_7954" data-name="Group 7954" transform="translate(14.469 207.397)">
          <text id="The_Walt_Disney_Comp-2" data-name="The Walt Disney Comp" transform="translate(29.299 11.644)" fill="#323a45" font-size="11" font-family="SegoeUI, Segoe UI"><tspan x="0" y="0">Boss Cyber Security</tspan></text>
          <text id="_972_Sylvan_Street_So-2" data-name="972 Sylvan Street So" transform="translate(29.299 30.644)" fill="#8b959e" font-size="10" font-family="SegoeUI, Segoe UI"><tspan x="0" y="0">Sylvan Street South Angelina..</tspan></text>
          <g id="Site_Icon_Dynamic-2" data-name="Site Icon Dynamic" transform="translate(0 0.965)">
            <g id="Oval_Copy-4" data-name="Oval Copy" transform="translate(0 0)">
              <ellipse id="Oval_Copy-5" data-name="Oval Copy" cx="11" cy="11.5" rx="11" ry="11.5" transform="translate(0.299 -0.321)" fill="none"/>
              <ellipse id="Oval_Copy-6" data-name="Oval Copy" cx="11" cy="11.5" rx="11" ry="11.5" transform="translate(0.299 -0.321)" fill="#6ea9d8"/>
            </g>
            <text id="T-2" data-name="T" transform="translate(6.483 15.037)" fill="#fff" font-size="11" font-family="Playfair Display"><tspan x="0" y="0">B</tspan></text>
          </g>
          <g id="Group_4257-2" data-name="Group 4257" transform="translate(28.953 36.99)">
            <g id="Group_4247-4" data-name="Group 4247" transform="translate(91.831 0)">
              <text id="_0_1-8" data-name="0/1" transform="translate(13.447 12)" fill="#8b959e" font-size="11" font-family="SegoeUI, Segoe UI"><tspan x="0" y="0">32</tspan></text>
              <path id="calendar_month_FILL0_wght300_GRAD0_opsz20-4" data-name="calendar_month_FILL0_wght300_GRAD0_opsz20" d="M4.457,14.229a.994.994,0,0,1-.74-.308,1.015,1.015,0,0,1-.3-.732V4.995a1.012,1.012,0,0,1,.3-.731.993.993,0,0,1,.74-.309H5.884V2.312h.862V3.954H10.37V2.312h.846V3.954h1.426a.993.993,0,0,1,.74.309,1.012,1.012,0,0,1,.3.731v8.193a1.015,1.015,0,0,1-.3.732.994.994,0,0,1-.74.308Zm0-.845h8.193a.228.228,0,0,0,.2-.2V7.726H4.262v5.463a.228.228,0,0,0,.2.2Zm-.2-6.5h8.584V4.995a.228.228,0,0,0-.2-.2H4.457a.228.228,0,0,0-.2.2Zm0,0ZM8.554,9.921a.5.5,0,0,1-.5-.5A.514.514,0,0,1,8.2,9.051a.5.5,0,0,1,.86.349.514.514,0,0,1-.147.366.473.473,0,0,1-.357.153Zm-2.536,0a.5.5,0,0,1-.5-.5.514.514,0,0,1,.147-.366.5.5,0,0,1,.86.349.514.514,0,0,1-.147.366.473.473,0,0,1-.357.153Zm5.072,0a.5.5,0,0,1-.5-.5.514.514,0,0,1,.147-.366.5.5,0,0,1,.86.349.514.514,0,0,1-.147.366.473.473,0,0,1-.357.153ZM8.554,12.213a.5.5,0,0,1-.5-.5.514.514,0,0,1,.147-.366.5.5,0,0,1,.86.349.514.514,0,0,1-.147.366.473.473,0,0,1-.357.154Zm-2.536,0a.5.5,0,0,1-.5-.5.514.514,0,0,1,.147-.366.5.5,0,0,1,.86.349.514.514,0,0,1-.147.366.473.473,0,0,1-.357.154Zm5.072,0a.5.5,0,0,1-.5-.5.514.514,0,0,1,.147-.366.5.5,0,0,1,.86.349.514.514,0,0,1-.147.366.473.473,0,0,1-.357.154Z" transform="translate(-3.417 0.392)" fill="#8b959e"/>
            </g>
            <g id="Group_4246-4" data-name="Group 4246" transform="translate(46.362 0)">
              <text id="_0_1-9" data-name="0/1" transform="translate(15.088 12)" fill="#8b959e" font-size="11" font-family="SegoeUI, Segoe UI"><tspan x="0" y="0">29</tspan></text>
              <path id="schedule_FILL0_wght300_GRAD0_opsz48-4" data-name="schedule_FILL0_wght300_GRAD0_opsz48" d="M13.31,13.859l.535-.535-2.5-2.509V7.666h-.705V11.1Zm-2.352,3.057a5.773,5.773,0,0,1-2.313-.471,5.954,5.954,0,1,1,4.625,0,5.773,5.773,0,0,1-2.313.471ZM10.958,10.958Zm0,5.253a5.057,5.057,0,0,0,3.708-1.544,5.057,5.057,0,0,0,1.544-3.708,5.057,5.057,0,0,0-1.544-3.708,5.057,5.057,0,0,0-3.708-1.544A5.057,5.057,0,0,0,7.25,7.25a5.057,5.057,0,0,0-1.544,3.708A5.057,5.057,0,0,0,7.25,14.666a5.057,5.057,0,0,0,3.708,1.544Z" transform="translate(-5 -2.296)" fill="#8b959e"/>
            </g>
            <g id="Group_4256-2" data-name="Group 4256" transform="translate(0 0)">
              <text id="_0_1-10" data-name="0/1" transform="translate(15.981 12)" fill="#8b959e" font-size="11" font-family="SegoeUI, Segoe UI"><tspan x="0" y="0">29</tspan></text>
              <path id="person_FILL0_wght300_GRAD0_opsz48-2" data-name="person_FILL0_wght300_GRAD0_opsz48" d="M15.272,15.64a2.683,2.683,0,0,1-2.781-2.776,2.669,2.669,0,0,1,.784-1.986,2.724,2.724,0,0,1,2-.774,2.724,2.724,0,0,1,2,.774,2.669,2.669,0,0,1,.784,1.986,2.683,2.683,0,0,1-2.781,2.781ZM9,22.017V20.428a1.973,1.973,0,0,1,.357-1.171,2.364,2.364,0,0,1,.918-.777,15.305,15.305,0,0,1,2.561-.878,10.432,10.432,0,0,1,2.436-.292,10.093,10.093,0,0,1,2.436.3,15.4,15.4,0,0,1,2.54.892,2.365,2.365,0,0,1,.941.763,1.927,1.927,0,0,1,.357,1.159v1.589Zm.941-.941H20.6v-.648a1.076,1.076,0,0,0-.209-.617,1.421,1.421,0,0,0-.544-.471,10.348,10.348,0,0,0-2.331-.847,10.472,10.472,0,0,0-2.248-.241A10.763,10.763,0,0,0,13,18.493a9.886,9.886,0,0,0-2.331.847,1.467,1.467,0,0,0-.522.471,1.076,1.076,0,0,0-.209.617ZM15.271,14.7a1.76,1.76,0,0,0,1.3-.522,1.783,1.783,0,0,0,.522-1.317,1.819,1.819,0,0,0-3.638,0,1.783,1.783,0,0,0,.522,1.317,1.76,1.76,0,0,0,1.3.522ZM15.272,12.864ZM15.272,21.076Z" transform="translate(-9 -7.426)" fill="#8b959e"/>
            </g>
          </g>
        </g>
        <g id="Group_7955" data-name="Group 7955" transform="translate(14.469 271.062)">
          <text id="The_Walt_Disney_Comp-3" data-name="The Walt Disney Comp" transform="translate(29.299 11.978)" fill="#323a45" font-size="11" font-family="SegoeUI, Segoe UI"><tspan x="0" y="0">Cytel Infotech</tspan></text>
          <text id="_972_Sylvan_Street_So-3" data-name="972 Sylvan Street So" transform="translate(29.299 29.978)" fill="#8b959e" font-size="10" font-family="SegoeUI, Segoe UI"><tspan x="0" y="0">Sylvan Street South Angelina..</tspan></text>
          <g id="Site_Icon_Dynamic-3" data-name="Site Icon Dynamic" transform="translate(0 0.965)">
            <g id="Oval_Copy-7" data-name="Oval Copy" transform="translate(0 0)">
              <circle id="Oval_Copy-8" data-name="Oval Copy" cx="11" cy="11" r="11" transform="translate(0.299 0.013)" fill="none"/>
              <circle id="Oval_Copy-9" data-name="Oval Copy" cx="11" cy="11" r="11" transform="translate(0.299 0.013)" fill="#4fb1de"/>
            </g>
            <text id="T-3" data-name="T" transform="translate(6.277 13.672)" fill="#fff" font-size="10" font-family="Playfair Display"><tspan x="0" y="0">C</tspan></text>
          </g>
          <g id="Group_4257-3" data-name="Group 4257" transform="translate(28.953 36.624)">
            <g id="Group_4247-5" data-name="Group 4247" transform="translate(91.831 0)">
              <text id="_0_1-11" data-name="0/1" transform="translate(13.447 12)" fill="#8b959e" font-size="11" font-family="SegoeUI, Segoe UI"><tspan x="0" y="0">32</tspan></text>
              <path id="calendar_month_FILL0_wght300_GRAD0_opsz20-5" data-name="calendar_month_FILL0_wght300_GRAD0_opsz20" d="M4.457,14.229a.994.994,0,0,1-.74-.308,1.015,1.015,0,0,1-.3-.732V4.995a1.012,1.012,0,0,1,.3-.731.993.993,0,0,1,.74-.309H5.884V2.312h.862V3.954H10.37V2.312h.846V3.954h1.426a.993.993,0,0,1,.74.309,1.012,1.012,0,0,1,.3.731v8.193a1.015,1.015,0,0,1-.3.732.994.994,0,0,1-.74.308Zm0-.845h8.193a.228.228,0,0,0,.2-.2V7.726H4.262v5.463a.228.228,0,0,0,.2.2Zm-.2-6.5h8.584V4.995a.228.228,0,0,0-.2-.2H4.457a.228.228,0,0,0-.2.2Zm0,0ZM8.554,9.921a.5.5,0,0,1-.5-.5A.514.514,0,0,1,8.2,9.051a.5.5,0,0,1,.86.349.514.514,0,0,1-.147.366.473.473,0,0,1-.357.153Zm-2.536,0a.5.5,0,0,1-.5-.5.514.514,0,0,1,.147-.366.5.5,0,0,1,.86.349.514.514,0,0,1-.147.366.473.473,0,0,1-.357.153Zm5.072,0a.5.5,0,0,1-.5-.5.514.514,0,0,1,.147-.366.5.5,0,0,1,.86.349.514.514,0,0,1-.147.366.473.473,0,0,1-.357.153ZM8.554,12.213a.5.5,0,0,1-.5-.5.514.514,0,0,1,.147-.366.5.5,0,0,1,.86.349.514.514,0,0,1-.147.366.473.473,0,0,1-.357.154Zm-2.536,0a.5.5,0,0,1-.5-.5.514.514,0,0,1,.147-.366.5.5,0,0,1,.86.349.514.514,0,0,1-.147.366.473.473,0,0,1-.357.154Zm5.072,0a.5.5,0,0,1-.5-.5.514.514,0,0,1,.147-.366.5.5,0,0,1,.86.349.514.514,0,0,1-.147.366.473.473,0,0,1-.357.154Z" transform="translate(-3.417 0.392)" fill="#8b959e"/>
            </g>
            <g id="Group_4246-5" data-name="Group 4246" transform="translate(46.362 0)">
              <text id="_0_1-12" data-name="0/1" transform="translate(15.088 12)" fill="#8b959e" font-size="11" font-family="SegoeUI, Segoe UI"><tspan x="0" y="0">29</tspan></text>
              <path id="schedule_FILL0_wght300_GRAD0_opsz48-5" data-name="schedule_FILL0_wght300_GRAD0_opsz48" d="M13.31,13.859l.535-.535-2.5-2.509V7.666h-.705V11.1Zm-2.352,3.057a5.773,5.773,0,0,1-2.313-.471,5.954,5.954,0,1,1,4.625,0,5.773,5.773,0,0,1-2.313.471ZM10.958,10.958Zm0,5.253a5.057,5.057,0,0,0,3.708-1.544,5.057,5.057,0,0,0,1.544-3.708,5.057,5.057,0,0,0-1.544-3.708,5.057,5.057,0,0,0-3.708-1.544A5.057,5.057,0,0,0,7.25,7.25a5.057,5.057,0,0,0-1.544,3.708A5.057,5.057,0,0,0,7.25,14.666a5.057,5.057,0,0,0,3.708,1.544Z" transform="translate(-5 -2.296)" fill="#8b959e"/>
            </g>
            <g id="Group_4256-3" data-name="Group 4256" transform="translate(0 0)">
              <text id="_0_1-13" data-name="0/1" transform="translate(15.981 12)" fill="#8b959e" font-size="11" font-family="SegoeUI, Segoe UI"><tspan x="0" y="0">29</tspan></text>
              <path id="person_FILL0_wght300_GRAD0_opsz48-3" data-name="person_FILL0_wght300_GRAD0_opsz48" d="M15.272,15.64a2.683,2.683,0,0,1-2.781-2.776,2.669,2.669,0,0,1,.784-1.986,2.724,2.724,0,0,1,2-.774,2.724,2.724,0,0,1,2,.774,2.669,2.669,0,0,1,.784,1.986,2.683,2.683,0,0,1-2.781,2.781ZM9,22.017V20.428a1.973,1.973,0,0,1,.357-1.171,2.364,2.364,0,0,1,.918-.777,15.305,15.305,0,0,1,2.561-.878,10.432,10.432,0,0,1,2.436-.292,10.093,10.093,0,0,1,2.436.3,15.4,15.4,0,0,1,2.54.892,2.365,2.365,0,0,1,.941.763,1.927,1.927,0,0,1,.357,1.159v1.589Zm.941-.941H20.6v-.648a1.076,1.076,0,0,0-.209-.617,1.421,1.421,0,0,0-.544-.471,10.348,10.348,0,0,0-2.331-.847,10.472,10.472,0,0,0-2.248-.241A10.763,10.763,0,0,0,13,18.493a9.886,9.886,0,0,0-2.331.847,1.467,1.467,0,0,0-.522.471,1.076,1.076,0,0,0-.209.617ZM15.271,14.7a1.76,1.76,0,0,0,1.3-.522,1.783,1.783,0,0,0,.522-1.317,1.819,1.819,0,0,0-3.638,0,1.783,1.783,0,0,0,.522,1.317,1.76,1.76,0,0,0,1.3.522ZM15.272,12.864ZM15.272,21.076Z" transform="translate(-9 -7.426)" fill="#8b959e"/>
            </g>
          </g>
        </g>
        <g id="Group_4255" data-name="Group 4255" transform="translate(14.469 97.428)">
          <g id="Rectangle_809" data-name="Rectangle 809" transform="translate(0.299 -0.388)" fill="#fff" stroke="#e6e6e6" stroke-width="1">
            <rect width="187" height="35" rx="4" stroke="none"/>
            <rect x="0.5" y="0.5" width="186" height="34" rx="3.5" fill="none"/>
          </g>
          <text id="Guard_name" data-name="Guard name" transform="translate(8.299 20.612)" fill="#8b959e" font-size="13" font-family="SegoeUI, Segoe UI" opacity="0.4"><tspan x="0" y="0">Search...</tspan></text>
          <path id="search_FILL0_wght300_GRAD0_opsz48_2_" data-name="search_FILL0_wght300_GRAD0_opsz48 (2)" d="M17.447,17.917l-4.228-4.21a3.6,3.6,0,0,1-1.13.658,3.86,3.86,0,0,1-1.337.235A3.936,3.936,0,1,1,14.432,12a3.817,3.817,0,0,1-.675,1.171l4.226,4.21Zm-6.7-4.048a3.042,3.042,0,0,0,2.243-.934,3.1,3.1,0,0,0,.926-2.267,3.19,3.19,0,1,0-3.169,3.2Z" transform="translate(158.443 5.583)" fill="#323a45"/>
        </g>
        <g id="Group_7958" data-name="Group 7958" transform="translate(153.377 24.116)">
          <g id="Rectangle_3658" data-name="Rectangle 3658" transform="translate(0.391 -0.075)" fill="#fff" stroke="#dadada" stroke-width="1">
            <rect width="132" height="45" rx="10" stroke="none"/>
            <rect x="0.5" y="0.5" width="131" height="44" rx="9.5" fill="none"/>
          </g>
          <g id="Group_5191" data-name="Group 5191" transform="translate(28.236 10.754)">
            <text id="Filter" transform="translate(38.555 15)" fill="#939599" font-size="14" font-family="SegoeUI, Segoe UI"><tspan x="0" y="0">Filter</tspan></text>
            <path id="filter_list_FILL0_wght300_GRAD0_opsz48_1_" data-name="filter_list_FILL0_wght300_GRAD0_opsz48 (1)" d="M149.945-683.863v-1.665h5.033v1.665Zm-5.685-7.236v-1.664h16.4v1.664ZM140-698.335V-700h24.938v1.664Z" transform="translate(-140 703.565)" fill="#8b959e"/>
          </g>
        </g>
        <g id="Group_7957" data-name="Group 7957" transform="translate(14.469 24.116)">
          <g id="Rectangle_3658-2" data-name="Rectangle 3658" transform="translate(0.299 -0.075)" fill="#fff" stroke="#dadada" stroke-width="1">
            <rect width="130" height="45" rx="10" stroke="none"/>
            <rect x="0.5" y="0.5" width="129" height="44" rx="9.5" fill="none"/>
          </g>
          <g id="Group_5581" data-name="Group 5581" transform="translate(20.257 10.611)">
            <g id="Group_5191-2" data-name="Group 5191" transform="translate(0 0)">
              <text id="Week" transform="translate(0.042 17.313)" fill="#939599" font-size="16" font-family="SegoeUI, Segoe UI"><tspan x="0" y="0">Week</tspan></text>
            </g>
            <path id="expand_more_FILL0_wght300_GRAD0_opsz20" d="M12.788,16.052l-7.5-7.534L6.518,7.292l6.27,6.27,6.272-6.27,1.226,1.226Z" transform="translate(69.399 -0.016)" fill="#8b959e"/>
          </g>
        </g>
        <g id="Group_7959" data-name="Group 7959" transform="translate(294.214 24.116)">
          <g id="Group_1365" data-name="Group 1365" transform="translate(0 0)">
            <g id="Rectangle_801" data-name="Rectangle 801" transform="translate(-0.445 -0.075)" fill="#fff" stroke="#dadada" stroke-width="1">
              <rect width="136" height="45" rx="10" stroke="none"/>
              <rect x="0.5" y="0.5" width="135" height="44" rx="9.5" fill="none"/>
            </g>
          </g>
          <g id="Group_4139" data-name="Group 4139" transform="translate(16.667 10.754)">
            <text id="Site_View" data-name="Site View" transform="translate(33.469 15)" fill="#939599" font-size="14" font-family="SegoeUI, Segoe UI"><tspan x="0" y="0">Site View</tspan></text>
            <path id="location_on_FILL0_wght300_GRAD0_opsz20" d="M11.856,12.122a1.933,1.933,0,1,0-1.367-.565,1.862,1.862,0,0,0,1.367.565Zm0,8.424a26.5,26.5,0,0,0,4.95-5.567,9.045,9.045,0,0,0,1.649-4.574,6.622,6.622,0,0,0-1.9-4.936,6.425,6.425,0,0,0-4.695-1.879,6.425,6.425,0,0,0-4.7,1.879,6.622,6.622,0,0,0-1.9,4.936A9.045,9.045,0,0,0,6.9,14.979a26.5,26.5,0,0,0,4.953,5.567Zm0,2.307a37.313,37.313,0,0,1-6.251-6.776A10.371,10.371,0,0,1,3.54,10.4a8.063,8.063,0,0,1,2.5-6.223,8.306,8.306,0,0,1,5.822-2.307,8.306,8.306,0,0,1,5.821,2.308,8.063,8.063,0,0,1,2.5,6.223,10.371,10.371,0,0,1-2.066,5.674,37.312,37.312,0,0,1-6.253,6.775ZM11.856,10.406Z" transform="translate(-3.531 -0.983)" fill="#8b959e"/>
          </g>
        </g>
        <g id="Group_7960" data-name="Group 7960" transform="translate(456.272 24.116)">
          <g transform="matrix(1, 0, 0, 1, -522.5, -105.08)" filter="url(#Rectangle_8)">
            <rect id="Rectangle_8-2" data-name="Rectangle 8" width="149" height="45" rx="10" transform="translate(523 105)" fill="#50c25f"/>
          </g>
          <g id="Group_4150" data-name="Group 4150" transform="translate(29.363 10.754)">
            <text id="Add_site" data-name="Add site" transform="translate(24.605 16)" fill="#fff" font-size="15" font-family="SegoeUI, Segoe UI"><tspan x="0" y="0">Add Shift</tspan></text>
            <path id="add_FILL0_wght300_GRAD0_opsz20" d="M11.977,20.471V13.7H5.208V11.977h6.769V5.208H13.7v6.769h6.769V13.7H13.7v6.769Z" transform="translate(-5.208 -1.642)" fill="#fff"/>
          </g>
        </g>
      </g>
      <g id="Group_7968" data-name="Group 7968" transform="translate(0 195.821)">
        <g transform="matrix(1, 0, 0, 1, -39.22, -276.78)" filter="url(#Rectangle_5729)">
          <rect id="Rectangle_5729-2" data-name="Rectangle 5729" width="206" height="212" rx="10" transform="translate(39 277)" fill="#7367dd"/>
        </g>
        <text id="Started_Duty:_On_Tim" data-name="Started Duty: On Tim" transform="translate(52.481 25.896)" fill="#fff" font-size="12" font-family="SegoeUI, Segoe UI"><tspan x="0" y="0">Shift Templates</tspan></text>
        <g id="Group_7967" data-name="Group 7967" transform="translate(117.172 81.499)" opacity="0.16">
          <path id="Path_525" data-name="Path 525" d="M122.788-4171.587c-16.71-1.5-12.036-26.023-5.407-24.072,11.614,3.415,6.517-2.006,14.106-1.611,7.946,1.026,11.811,15.6,6.508,19.6-6.023,4.543-6.376,6.876-15.2,6.087" transform="translate(-89.08 4204.587)" fill="#f4c043" fill-rule="evenodd"/>
          <path id="Path_526" data-name="Path 526" d="M-266.137-3723.378c-22.706-2.033-10.761-25-1.758-22.352,15.78,4.636,8.856-2.727,19.168-2.19,10.8,1.393,16.048,21.2,8.838,26.634-8.184,6.171-14.254-1.02-26.248-2.092" transform="translate(290.932 3803.827)" fill="#50c25f" fill-rule="evenodd"/>
          <path id="Path_527" data-name="Path 527" d="M151.778-4267.5a41.548,41.548,0,0,0-15.68-18.437.225.225,0,0,0-.116-.045.245.245,0,0,0-.273.213c-.81,6.609-.794,12.375.42,17.653a33.88,33.88,0,0,0,7.607,14.738.286.286,0,0,0,.047.045,50.385,50.385,0,0,1,4.588,3.783q2.308,2.132,4.649,4.741a.235.235,0,0,0,.129.089.241.241,0,0,0,.186-.024.241.241,0,0,0,.115-.148,34.487,34.487,0,0,0-1.672-22.609m-15.628-17.817a41.025,41.025,0,0,1,15.177,18.01,34.018,34.018,0,0,1,1.764,21.851q-2.223-2.453-4.386-4.45a50.829,50.829,0,0,0-4.61-3.8,33.4,33.4,0,0,1-7.489-14.516,49.82,49.82,0,0,1-.456-17.089Z" transform="translate(-110.939 4285.982)" fill="#fff"/>
          <path id="Path_528" data-name="Path 528" d="M210.376-4148.145a.245.245,0,0,0-.336-.083.246.246,0,0,0-.111.151.244.244,0,0,0,.028.185,92.234,92.234,0,0,1,6.534,13.446,129.208,129.208,0,0,1,5.1,15.943.245.245,0,0,0,.112.151.241.241,0,0,0,.186.027.246.246,0,0,0,.178-.3,129.679,129.679,0,0,0-5.126-16,92.873,92.873,0,0,0-6.569-13.519" transform="translate(-179.559 4159.594)" fill="#fff"/>
          <path id="Path_529" data-name="Path 529" d="M-141.345-3960.942c-6.76-2.657-12.409-7.622-17.189-13.773,8.31-1.665,15.344-1.846,21.915.178,6.59,2.031,12.731,6.285,19.25,13.493-9.286,3.11-17.2,2.764-23.977.1m-17.82-13.785c4.881,6.36,10.674,11.5,17.639,14.241s15.109,3.067,24.668-.211a.246.246,0,0,0,.152-.312.235.235,0,0,0-.062-.1c-6.67-7.439-12.951-11.815-19.7-13.9s-13.986-1.864-22.544-.112a.246.246,0,0,0-.191.29.248.248,0,0,0,.045.1Z" transform="translate(159.211 4001.963)" fill="#fff"/>
          <path id="Path_530" data-name="Path 530" d="M-16.155-3902.943a.245.245,0,0,0-.187-.013.246.246,0,0,0-.142.124.245.245,0,0,0-.013.187.245.245,0,0,0,.123.142,92.763,92.763,0,0,0,14,5.468,129.684,129.684,0,0,0,16.363,3.828.242.242,0,0,0,.183-.042.244.244,0,0,0,.1-.159.244.244,0,0,0-.2-.281,129.09,129.09,0,0,1-16.3-3.816,92.345,92.345,0,0,1-13.925-5.439" transform="translate(28.245 3934.479)" fill="#fff"/>
          <path id="Path_531" data-name="Path 531" d="M-89.418-4212.187a31.353,31.353,0,0,1,11.055,3.816,53.89,53.89,0,0,1,7.965,5.517q-1.456-.825-2.928-1.487a32.337,32.337,0,0,0-5.913-2,34.066,34.066,0,0,0-3.553-.629q-1.745-.216-3.553-.267-.577-.781-1.107-1.586-.563-.855-1.09-1.761-.278-.478-.559-1-.165-.3-.323-.608m-2.995-7.554a49.339,49.339,0,0,1-1.55-7.645,47.477,47.477,0,0,1,9.875,3.17,42.842,42.842,0,0,1,8.769,5.274,34.06,34.06,0,0,0,2.561,9.8,34.594,34.594,0,0,0,4.352,7.326,57.885,57.885,0,0,0-9.713-6.981,31.671,31.671,0,0,0-11.568-3.917,41.536,41.536,0,0,1-2.721-7.017Zm-2.078-7.924h0a50.067,50.067,0,0,0,1.6,8.058,42,42,0,0,0,2.813,7.213.169.169,0,0,0,.012.021q.268.527.535,1.022t.568,1.01q.528.907,1.1,1.784t1.195,1.705a.244.244,0,0,0,.192.1h0q1.844.048,3.62.267a33.1,33.1,0,0,1,3.5.625,31.835,31.835,0,0,1,5.822,1.97,36.248,36.248,0,0,1,5.672,3.21c.156.107.3.209.44.305s.3.209.44.314a.242.242,0,0,0,.182.044.246.246,0,0,0,.16-.1.244.244,0,0,0-.014-.3,35.237,35.237,0,0,1-5.666-8.916,33.63,33.63,0,0,1-2.536-9.762.243.243,0,0,0-.089-.165h0a43.32,43.32,0,0,0-8.949-5.4,48.124,48.124,0,0,0-10.314-3.271.246.246,0,0,0-.288.193.236.236,0,0,0,0,.08Z" transform="translate(99.814 4232.714)" fill="#fff"/>
          <path id="Path_532" data-name="Path 532" d="M-60.108-4033.157a.244.244,0,0,0,.345-.021.243.243,0,0,0,.062-.177.244.244,0,0,0-.082-.169,56.42,56.42,0,0,0-12.207-8.6,29.5,29.5,0,0,0-13.808-3.263.243.243,0,0,0-.172.075.244.244,0,0,0-.069.174.245.245,0,0,0,.25.241,29.028,29.028,0,0,1,13.58,3.209,56,56,0,0,1,12.1,8.523" transform="translate(92.055 4065.18)" fill="#fff"/>
          <path id="Path_533" data-name="Path 533" d="M-106.789-4053.25a.634.634,0,0,1,.276-.4.635.635,0,0,1,.477-.088.632.632,0,0,1,.4.275.634.634,0,0,1,.089.477.634.634,0,0,1-.275.4.632.632,0,0,1-.478.089.63.63,0,0,1-.4-.276.63.63,0,0,1-.089-.477m.008-.812a1.125,1.125,0,0,0-.489.714,1.125,1.125,0,0,0,.157.847,1.125,1.125,0,0,0,.713.488,1.123,1.123,0,0,0,.847-.157,1.121,1.121,0,0,0,.488-.714,1.119,1.119,0,0,0-.157-.846,1.118,1.118,0,0,0-.713-.488,1.123,1.123,0,0,0-.846.156Z" transform="translate(111.562 4073.307)" fill="#fff"/>
          <path id="Path_534" data-name="Path 534" d="M79.414-4180.693a.245.245,0,0,0,.347,0,.245.245,0,0,0,.069-.174.244.244,0,0,0-.075-.172,56.838,56.838,0,0,1-9.531-11.563,29.084,29.084,0,0,1-4.252-13.448.245.245,0,0,0-.258-.231.245.245,0,0,0-.231.257,29.571,29.571,0,0,0,4.32,13.672,57.3,57.3,0,0,0,9.61,11.664m.832.8a.245.245,0,0,0,.176.066.247.247,0,0,0,.171-.079.244.244,0,0,0,.066-.175.244.244,0,0,0-.078-.17h0a.245.245,0,0,0-.176-.066.241.241,0,0,0-.171.079.244.244,0,0,0-.066.175.244.244,0,0,0,.078.171Z" transform="translate(-47.002 4212.84)" fill="#fff"/>
          <path id="Path_535" data-name="Path 535" d="M56.63-4227.585a1.119,1.119,0,0,0-.668.528l0,.009a1.119,1.119,0,0,0-.1.855,1.12,1.12,0,0,0,.531.668H56.4a1.122,1.122,0,0,0,.832.1l.025-.005a1.122,1.122,0,0,0,.672-.535,1.123,1.123,0,0,0,.1-.855h0a1.123,1.123,0,0,0-.53-.669h-.007a1.127,1.127,0,0,0-.856-.1m-.254.792c.007-.011.014-.023.02-.035a.631.631,0,0,1,.37-.286.633.633,0,0,1,.465.043.191.191,0,0,0,.034.019.633.633,0,0,1,.287.371h0a.63.63,0,0,1-.053.483.638.638,0,0,1-.381.3l-.017.006a.635.635,0,0,1-.446-.049.222.222,0,0,0-.034-.019.636.636,0,0,1-.287-.372.632.632,0,0,1,.038-.476Z" transform="translate(-38.132 4232.435)" fill="#fff"/>
          <path id="Path_536" data-name="Path 536" d="M-33.028-4155a.245.245,0,0,0-.347.005.246.246,0,0,0,.005.347l21.733,20.969a.245.245,0,0,0,.347-.005.246.246,0,0,0,.069-.175.246.246,0,0,0-.075-.172Z" transform="translate(43.786 4165.838)" fill="#fff"/>
          <path id="Path_537" data-name="Path 537" d="M-51.2-4172.321a.628.628,0,0,1,.275-.4.632.632,0,0,1,.477-.089.635.635,0,0,1,.4.276.638.638,0,0,1,.089.479.634.634,0,0,1-.276.4.634.634,0,0,1-.478.088.632.632,0,0,1-.4-.275.634.634,0,0,1-.089-.478m.008-.813a1.128,1.128,0,0,0-.488.713,1.124,1.124,0,0,0,.156.849,1.123,1.123,0,0,0,.713.487,1.119,1.119,0,0,0,.847-.157,1.123,1.123,0,0,0,.489-.712,1.123,1.123,0,0,0-.157-.847,1.121,1.121,0,0,0-.713-.489,1.128,1.128,0,0,0-.846.157Z" transform="translate(60.541 4182.581)" fill="#fff"/>
          <path id="Path_538" data-name="Path 538" d="M352.081-3790.2h0a.247.247,0,0,0-.275.019.245.245,0,0,0-.089.249.247.247,0,0,0,.034.079h0a.334.334,0,0,0,.029.036c6.588,8.41,22.539,29.655,34.109,50.67,6.046,10.979,10.891,21.891,12.571,30.86v-2.357c-2.021-8.567-6.576-18.633-12.144-28.741-11.584-21.041-27.558-42.313-34.154-50.734h0a.246.246,0,0,0-.079-.076" transform="translate(-309.681 3831.022)" fill="#fff"/>
          <path id="Path_539" data-name="Path 539" d="M764.4-3579.868a.244.244,0,0,0-.16-.306.245.245,0,0,0-.306.161c-.048.154-.192.468-.4.92-1.6,3.52-6.962,15.233-3.543,33.486a.245.245,0,0,0,.286.2.245.245,0,0,0,.2-.286c-3.388-18.1,1.914-29.7,3.508-33.192a10.589,10.589,0,0,0,.418-.981" transform="translate(-683.35 3638.247)" fill="#fff"/>
          <path id="Path_540" data-name="Path 540" d="M809.716-3753.592a18.191,18.191,0,0,0-.612-8.638.252.252,0,0,0-.049-.089.245.245,0,0,0-.345-.028c-2.751,2.341-4.228,4.715-4.725,7.231a13.965,13.965,0,0,0,1.182,8.04h0a.281.281,0,0,0,.034.059.245.245,0,0,0,.343.041,11.149,11.149,0,0,0,4.17-6.612m-.981-8.132a17.38,17.38,0,0,1,.5,8.031,10.616,10.616,0,0,1-3.738,6.121,13.228,13.228,0,0,1-1.031-7.452,12.11,12.11,0,0,1,4.269-6.711Z" transform="translate(-724.579 3805.482)" fill="#fff"/>
          <path id="Path_541" data-name="Path 541" d="M677.642-3587.969a18.2,18.2,0,0,0-6.577-5.633h0a.243.243,0,0,0-.1-.031.245.245,0,0,0-.178.059.244.244,0,0,0-.084.167c-.267,3.6.384,6.321,1.827,8.44a13.947,13.947,0,0,0,6.533,4.8.265.265,0,0,0,.084.024.245.245,0,0,0,.267-.218,11.145,11.145,0,0,0-1.776-7.611m-6.476-5.016a17.388,17.388,0,0,1,6.068,5.286,10.608,10.608,0,0,1,1.728,6.96,13.222,13.222,0,0,1-6.027-4.5,12.1,12.1,0,0,1-1.765-7.739Z" transform="translate(-602.38 3650.587)" fill="#fff"/>
          <path id="Path_542" data-name="Path 542" d="M772.532-3509.85a17.383,17.383,0,0,1,5.782-5.6,10.463,10.463,0,0,1,5.739-1.287v-.491a10.94,10.94,0,0,0-5.973,1.348,18.193,18.193,0,0,0-6.171,6.075h0a.252.252,0,0,0-.038.1.245.245,0,0,0,.2.281c3.566.572,6.33.154,8.565-1.1a11.445,11.445,0,0,0,3.415-3.031v-.823a11.354,11.354,0,0,1-3.655,3.425,12.088,12.088,0,0,1-7.865,1.106" transform="translate(-695.276 3580.485)" fill="#fff"/>
          <path id="Path_543" data-name="Path 543" d="M436.538-3237.541a.245.245,0,0,0-.293.184.245.245,0,0,0,.185.293c.2.045.551.08,1.057.129,3.817.372,16.517,1.6,30.468,13.625a.243.243,0,0,0,.178.059.244.244,0,0,0,.168-.084.245.245,0,0,0-.025-.345c-14.072-12.119-26.889-13.368-30.742-13.742-.49-.047-.833-.081-1-.119" transform="translate(-387.257 3323.794)" fill="#fff"/>
          <path id="Path_544" data-name="Path 544" d="M264.832-3298.736a17.378,17.378,0,0,1-6.694-4.466,12.082,12.082,0,0,1,7.935-.328,13.23,13.23,0,0,1,5.928,4.636,10.609,10.609,0,0,1-7.17.16m-7.318-4.4a18.2,18.2,0,0,0,7.165,4.865,11.144,11.144,0,0,0,7.811-.288.245.245,0,0,0,.135-.13.244.244,0,0,0,0-.187.252.252,0,0,0-.033-.059h0a13.958,13.958,0,0,0-6.36-5.057c-2.425-.835-5.219-.749-8.625.455a.245.245,0,0,0-.148.313.246.246,0,0,0,.054.089Z" transform="translate(-223.173 3385.284)" fill="#fff"/>
          <path id="Path_545" data-name="Path 545" d="M501.277-3364.549a17.384,17.384,0,0,1-1.526-7.9,12.075,12.075,0,0,1,5.809,5.416,13.222,13.222,0,0,1,.869,7.472,10.613,10.613,0,0,1-5.152-4.993m-2.01-8.285a18.187,18.187,0,0,0,1.571,8.5,11.145,11.145,0,0,0,5.693,5.356.246.246,0,0,0,.188,0,.245.245,0,0,0,.136-.13.242.242,0,0,0,.021-.08,13.954,13.954,0,0,0-.872-8.065c-1.109-2.313-3.134-4.24-6.383-5.817a.246.246,0,0,0-.328.113.245.245,0,0,0-.025.112Z" transform="translate(-445.094 3448.189)" fill="#fff"/>
          <path id="Path_546" data-name="Path 546" d="M439.3-3200.349a17.38,17.38,0,0,1,7.741-2.19,12.088,12.088,0,0,1-4.9,6.248,13.235,13.235,0,0,1-7.372,1.5,10.617,10.617,0,0,1,4.534-5.557m8.1-2.707a18.2,18.2,0,0,0-8.352,2.288,11.145,11.145,0,0,0-4.853,6.126.245.245,0,0,0,.011.188.245.245,0,0,0,.14.124.241.241,0,0,0,.067.013h0a13.958,13.958,0,0,0,7.976-1.553c2.21-1.3,3.959-3.483,5.255-6.854a.245.245,0,0,0,0-.188.247.247,0,0,0-.136-.13.251.251,0,0,0-.1-.01Z" transform="translate(-385.369 3292.142)" fill="#fff"/>
          <path id="Path_547" data-name="Path 547" d="M287.561-3480.667a.246.246,0,0,0-.345.035.245.245,0,0,0,.035.344,7.76,7.76,0,0,0,.7.461c2.54,1.584,10.994,6.857,16.583,20.108a.246.246,0,0,0,.134.132.246.246,0,0,0,.188,0,.245.245,0,0,0,.129-.322c-5.651-13.392-14.206-18.728-16.777-20.328-.324-.2-.55-.343-.651-.425" transform="translate(-250.445 3546.97)" fill="#fff"/>
          <path id="Path_548" data-name="Path 548" d="M184.719-3575.457a13.468,13.468,0,0,1-3.1-5.349,9.346,9.346,0,0,1,5.556,2.5,10.234,10.234,0,0,1,2.513,5.206,8.234,8.234,0,0,1-4.972-2.355m-3.68-5.555a14.267,14.267,0,0,0,3.334,5.9,8.771,8.771,0,0,0,5.6,2.529.246.246,0,0,0,.18-.056.247.247,0,0,0,.087-.168.236.236,0,0,0-.008-.089,10.952,10.952,0,0,0-2.708-5.761,10.052,10.052,0,0,0-6.23-2.694.245.245,0,0,0-.273.214.245.245,0,0,0,.014.116Z" transform="translate(-153.037 3639.317)" fill="#fff"/>
          <path id="Path_549" data-name="Path 549" d="M356.622-3547.072a13.461,13.461,0,0,1,1.632-5.961,9.345,9.345,0,0,1,2.125,5.706,10.231,10.231,0,0,1-1.938,5.446,8.233,8.233,0,0,1-1.819-5.192m1.369-6.526a14.273,14.273,0,0,0-1.859,6.527,8.765,8.765,0,0,0,2.14,5.762.245.245,0,0,0,.345.032.246.246,0,0,0,.057-.069,10.95,10.95,0,0,0,2.2-5.974,10.049,10.049,0,0,0-2.46-6.33.246.246,0,0,0-.345-.045.25.25,0,0,0-.073.1Z" transform="translate(-313.742 3613.978)" fill="#fff"/>
          <path id="Path_550" data-name="Path 550" d="M244.562-3417.931a13.463,13.463,0,0,1,6.079,1.121,9.347,9.347,0,0,1-5.51,2.6,10.232,10.232,0,0,1-5.59-1.468,8.241,8.241,0,0,1,5.021-2.254m6.628.816h0a14.267,14.267,0,0,0-6.666-1.3,8.764,8.764,0,0,0-5.561,2.618.246.246,0,0,0-.072.174.246.246,0,0,0,.072.174.262.262,0,0,0,.066.048,10.966,10.966,0,0,0,6.146,1.685,10.049,10.049,0,0,0,6.094-2.989.245.245,0,0,0,.015-.345.244.244,0,0,0-.094-.058Z" transform="translate(-206.141 3489.819)" fill="#fff"/>
          <path id="Path_551" data-name="Path 551" d="M529.584-3877.821a.245.245,0,0,0-.232-.258.246.246,0,0,0-.177.063.246.246,0,0,0-.081.17c-.008.155.013.436.043.838.226,2.986.976,12.92-6.4,25.266a.245.245,0,0,0,.084.335.244.244,0,0,0,.335-.084c7.454-12.482,6.7-22.534,6.467-25.555-.029-.379-.049-.643-.042-.776" transform="translate(-466.61 3911.636)" fill="#fff"/>
          <path id="Path_552" data-name="Path 552" d="M584.681-4016.814a13.477,13.477,0,0,1,2.481-5.663,9.349,9.349,0,0,1,1.271,5.961,10.234,10.234,0,0,1-2.71,5.106,8.235,8.235,0,0,1-1.043-5.4m2.3-6.251a14.266,14.266,0,0,0-2.786,6.179,8.766,8.766,0,0,0,1.279,6.014.245.245,0,0,0,.337.08.264.264,0,0,0,.058-.05,10.967,10.967,0,0,0,3.048-5.6,10.056,10.056,0,0,0-1.516-6.618.246.246,0,0,0-.335-.089.245.245,0,0,0-.085.081Z" transform="translate(-522.954 4044.798)" fill="#fff"/>
          <path id="Path_553" data-name="Path 553" d="M600.8-3844.9a13.463,13.463,0,0,1,5.773-2.212,9.346,9.346,0,0,1-3.347,5.091,10.233,10.233,0,0,1-5.537,1.658,8.238,8.238,0,0,1,3.111-4.537m6.082-2.759a14.282,14.282,0,0,0-6.372,2.363,8.764,8.764,0,0,0-3.383,5.134.245.245,0,0,0,.178.3.228.228,0,0,0,.08.006,10.954,10.954,0,0,0,6.123-1.764,10.047,10.047,0,0,0,3.645-5.726.245.245,0,0,0-.167-.3.247.247,0,0,0-.105-.006Z" transform="translate(-534.908 3883.718)" fill="#fff"/>
          <path id="Path_554" data-name="Path 554" d="M501.6-3858.327a13.464,13.464,0,0,1,2.694,5.564,9.35,9.35,0,0,1-5.356-2.9,10.231,10.231,0,0,1-2.122-5.375,8.236,8.236,0,0,1,4.785,2.715m3.265,5.826a14.282,14.282,0,0,0-2.895-6.152,8.768,8.768,0,0,0-5.4-2.934.246.246,0,0,0-.183.044.244.244,0,0,0-.1.161.232.232,0,0,0,0,.068h0a10.965,10.965,0,0,0,2.279,5.963,10.051,10.051,0,0,0,6.015,3.146.245.245,0,0,0,.288-.193.243.243,0,0,0,0-.1Z" transform="translate(-442.366 3896.495)" fill="#fff"/>
          <path id="Path_555" data-name="Path 555" d="M-143.6-4019.442c.046-.026-.039.22-.057.263-.1.21-.243.484.14.29.062-.036.126-.074.185-.115.107-.075.535-.4.5-.558-.056-.128-.337-.145-.446-.143a.486.486,0,0,0-.317.268" transform="translate(145.035 4041.61)" fill="#fff"/>
        </g>
        <g id="Group_7966" data-name="Group 7966" transform="translate(8.682 42.444)">
          <g id="Rectangle_5730" data-name="Rectangle 5730" transform="translate(0.096 -0.224)" fill="rgba(255,255,255,0)" stroke="#fff" stroke-width="0.5">
            <rect width="188" height="49" rx="5" stroke="none"/>
            <rect x="0.25" y="0.25" width="187.5" height="48.5" rx="4.75" fill="none"/>
          </g>
          <g id="Group_2315" data-name="Group 2315" transform="translate(13.161 7.013)">
            <text id="End_Time" data-name="End Time" transform="translate(0 12)" fill="#fff" font-size="11" font-family="SegoeUI, Segoe UI"><tspan x="0" y="0">XYZ Morning Template</tspan></text>
            <text id="End_Time-2" data-name="End Time" transform="translate(0 29.614)" fill="#fff" font-size="9" font-family="SegoeUI, Segoe UI"><tspan x="0" y="0">9:00a - 5:00p | Static</tspan></text>
          </g>
        </g>
        <g id="Group_7965" data-name="Group 7965" transform="translate(8.682 97.428)">
          <g id="Rectangle_5731" data-name="Rectangle 5731" transform="translate(0.096 -0.208)" fill="rgba(255,255,255,0)" stroke="#fff" stroke-width="0.5">
            <rect width="188" height="48" rx="5" stroke="none"/>
            <rect x="0.25" y="0.25" width="187.5" height="47.5" rx="4.75" fill="none"/>
          </g>
          <g id="Group_2315-2" data-name="Group 2315" transform="translate(13.161 6.414)">
            <text id="End_Time-3" data-name="End Time" transform="translate(0 12)" fill="#fff" font-size="11" font-family="SegoeUI, Segoe UI"><tspan x="0" y="0">My Custom Template</tspan></text>
            <text id="End_Time-4" data-name="End Time" transform="translate(0 29.614)" fill="#fff" font-size="9" font-family="SegoeUI, Segoe UI"><tspan x="0" y="0">9:00a - 5:00p | Static</tspan></text>
          </g>
        </g>
        <g id="Group_7964" data-name="Group 7964" transform="translate(8.682 151.448)">
          <g id="Rectangle_5732" data-name="Rectangle 5732" transform="translate(0.096 -0.228)" fill="rgba(255,255,255,0)" stroke="#fff" stroke-width="0.5">
            <rect width="188" height="49" rx="5" stroke="none"/>
            <rect x="0.25" y="0.25" width="187.5" height="48.5" rx="4.75" fill="none"/>
          </g>
          <g id="Component_64_14" data-name="Component 64 – 14" transform="translate(13.161 7.67)">
            <text id="The_Walt_Disney_Comp-4" data-name="The Walt Disney Comp" transform="translate(0 12)" fill="#fff" font-size="11" font-family="SegoeUI, Segoe UI"><tspan x="0" y="0">A One Professional</tspan></text>
            <text id="End_Time-5" data-name="End Time" transform="translate(0 27.831)" fill="#fff" font-size="9" font-family="SegoeUI, Segoe UI"><tspan x="0" y="0">9:00a - 5:00p | Mobile Patrol</tspan></text>
          </g>
        </g>
      </g>
    </g>
  </g>
</svg>
