<svg xmlns="http://www.w3.org/2000/svg" width="70" height="70" viewBox="0 0 70 70">
  <g id="Group_5618" data-name="Group 5618" transform="translate(-396 -1877)">
    <circle id="Ellipse_60" data-name="Ellipse 60" cx="35" cy="35" r="35" transform="translate(396 1877)" fill="rgba(70,148,235,0.2)"/>
    <path id="notifications_active_FILL0_wght300_GRAD0_opsz48" d="M133.847-846.92a14.822,14.822,0,0,1,1.533-6.708,15.731,15.731,0,0,1,4.137-5.21l1.3,1.564a14.035,14.035,0,0,0-3.6,4.537,12.749,12.749,0,0,0-1.339,5.817Zm28.968,0a12.8,12.8,0,0,0-1.339-5.821,14.017,14.017,0,0,0-3.6-4.55l1.3-1.547a15.734,15.734,0,0,1,4.137,5.209,14.82,14.82,0,0,1,1.533,6.709Zm-26.9,16.268v-2.032h3.238v-14.146a10.312,10.312,0,0,1,2.208-6.488,9.269,9.269,0,0,1,5.749-3.534v-.908a2.158,2.158,0,0,1,.654-1.584,2.158,2.158,0,0,1,1.584-.654,2.158,2.158,0,0,1,1.584.654,2.158,2.158,0,0,1,.654,1.584v.908a9.269,9.269,0,0,1,5.749,3.534,10.312,10.312,0,0,1,2.208,6.488v14.146h3.238v2.032ZM149.347-843.848Zm0,18.224a3.119,3.119,0,0,1-2.289-.949,3.119,3.119,0,0,1-.949-2.289h6.476a3.119,3.119,0,0,1-.949,2.289A3.119,3.119,0,0,1,149.347-825.623Zm-8.163-7.061H157.51v-14.146a7.87,7.87,0,0,0-2.385-5.778,7.87,7.87,0,0,0-5.778-2.385,7.87,7.87,0,0,0-5.778,2.385,7.87,7.87,0,0,0-2.385,5.778Z" transform="translate(282.153 2754.999)" fill="#4694eb"/>
  </g>
</svg>
