<svg xmlns="http://www.w3.org/2000/svg" width="70" height="70" viewBox="0 0 70 70">
  <g id="Group_5623" data-name="Group 5623" transform="translate(-660 -2144)">
    <circle id="Ellipse_64" data-name="Ellipse 64" cx="35" cy="35" r="35" transform="translate(660 2144)" fill="rgba(40,167,69,0.21)"/>
    <path id="timer_FILL0_wght300_GRAD0_opsz48" d="M150.046-908v-2h9.909v2ZM154-888.259h2v-9.587h-2Zm1,13.968a14.413,14.413,0,0,1-5.824-1.189,15.431,15.431,0,0,1-4.772-3.224,15.108,15.108,0,0,1-3.224-4.771A14.541,14.541,0,0,1,140-889.3a14.481,14.481,0,0,1,1.181-5.815,15.237,15.237,0,0,1,3.224-4.771,15.237,15.237,0,0,1,4.772-3.224A14.5,14.5,0,0,1,155-904.291a14.646,14.646,0,0,1,5.338.976,14.82,14.82,0,0,1,4.5,2.723l2.029-2.046,1.412,1.412-2.046,2.046a15.132,15.132,0,0,1,2.7,4.22A14.031,14.031,0,0,1,170-889.291a14.52,14.52,0,0,1-1.181,5.815A15.108,15.108,0,0,1,165.6-878.7a15.431,15.431,0,0,1-4.772,3.224A14.413,14.413,0,0,1,155-874.291Zm0-2a12.54,12.54,0,0,0,9.208-3.79A12.529,12.529,0,0,0,168-889.288a12.54,12.54,0,0,0-3.79-9.208A12.529,12.529,0,0,0,155-902.289a12.54,12.54,0,0,0-9.208,3.79A12.528,12.528,0,0,0,142-889.293a12.54,12.54,0,0,0,3.79,9.208A12.528,12.528,0,0,0,155-876.293ZM155-889.264Z" transform="translate(539.999 3070.999)" fill="#28a745"/>
  </g>
</svg>
