<svg xmlns="http://www.w3.org/2000/svg" xmlns:xlink="http://www.w3.org/1999/xlink" width="594.896" height="291.173" viewBox="0 0 594.896 291.173">
  <defs>
    <linearGradient id="linear-gradient" x1="0.487" y1="-0.066" x2="0.502" y2="1.01" gradientUnits="objectBoundingBox">
      <stop offset="0" stop-color="#f5f0ff"/>
      <stop offset="0.996" stop-color="#d0c1f7"/>
    </linearGradient>
    <linearGradient id="linear-gradient-2" x1="0.686" y1="-0.199" x2="0.372" y2="1.2" gradientUnits="objectBoundingBox">
      <stop offset="0" stop-color="#233681"/>
      <stop offset="0.996" stop-color="#1a1248"/>
    </linearGradient>
    <linearGradient id="linear-gradient-3" x1="0.687" y1="-0.207" x2="0.374" y2="1.208" gradientUnits="objectBoundingBox">
      <stop offset="0.004" stop-color="#fff"/>
      <stop offset="1" stop-color="#f5f0ff"/>
    </linearGradient>
    <linearGradient id="linear-gradient-4" x1="0.5" y1="0.136" x2="0.5" y2="0.98" xlink:href="#linear-gradient-2"/>
    <linearGradient id="linear-gradient-5" x1="15.381" y1="-0.199" x2="15.067" y2="1.2" xlink:href="#linear-gradient-2"/>
    <linearGradient id="linear-gradient-6" x1="15.959" y1="-0.207" x2="15.647" y2="1.208" xlink:href="#linear-gradient-3"/>
    <linearGradient id="linear-gradient-7" x1="14.596" y1="0.136" x2="14.596" y2="0.98" xlink:href="#linear-gradient-2"/>
    <clipPath id="clip-path">
      <path id="Path_15248" data-name="Path 15248" d="M144.2,382.089h453.81l50.029-231.84L89.232,137.6Z" fill="none"/>
    </clipPath>
    <linearGradient id="linear-gradient-8" x1="0.489" y1="0.001" x2="0.517" y2="1" gradientUnits="objectBoundingBox">
      <stop offset="0" stop-color="#9273c5"/>
      <stop offset="0.996" stop-color="#6038ba"/>
    </linearGradient>
    <linearGradient id="linear-gradient-9" x1="0.472" y1="0.005" x2="0.523" y2="0.997" gradientUnits="objectBoundingBox">
      <stop offset="0" stop-color="#f8ad20"/>
      <stop offset="0.996" stop-color="#f0830e"/>
    </linearGradient>
    <linearGradient id="linear-gradient-10" x1="0.764" y1="-0.404" x2="0.412" y2="0.803" gradientUnits="objectBoundingBox">
      <stop offset="0" stop-color="#fde04e"/>
      <stop offset="1" stop-color="#f5a525"/>
    </linearGradient>
    <linearGradient id="linear-gradient-11" x1="0.764" y1="-0.404" x2="0.412" y2="0.803" xlink:href="#linear-gradient-9"/>
    <linearGradient id="linear-gradient-12" x1="0.474" y1="0.039" x2="0.5" y2="1.004" xlink:href="#linear-gradient-2"/>
    <linearGradient id="linear-gradient-13" x1="0.477" x2="0.512" y2="1.009" gradientUnits="objectBoundingBox">
      <stop offset="0" stop-color="#23357f"/>
      <stop offset="0.996" stop-color="#6038ba"/>
    </linearGradient>
    <linearGradient id="linear-gradient-14" x1="0.474" y1="0.039" x2="0.5" y2="1.004" gradientUnits="objectBoundingBox">
      <stop offset="0" stop-color="#786ce6"/>
      <stop offset="0.996" stop-color="#6038ba"/>
      <stop offset="1" stop-color="#786ce6"/>
    </linearGradient>
    <linearGradient id="linear-gradient-15" x1="0.477" y1="0" x2="0.512" y2="1.009" xlink:href="#linear-gradient-8"/>
    <linearGradient id="linear-gradient-16" x1="0.363" y1="0.333" x2="0.535" y2="0.58" gradientUnits="objectBoundingBox">
      <stop offset="0" stop-color="#fdc085"/>
      <stop offset="1" stop-color="#f8976e"/>
    </linearGradient>
    <linearGradient id="linear-gradient-17" x1="0.461" y1="0.799" x2="0.557" y2="0.095" xlink:href="#linear-gradient-8"/>
    <linearGradient id="linear-gradient-18" x1="-26.662" y1="0.5" x2="-25.662" y2="0.5" xlink:href="#linear-gradient-16"/>
    <linearGradient id="linear-gradient-19" x1="-10.803" y1="-0.032" x2="-10.782" y2="0.933" xlink:href="#linear-gradient-9"/>
    <linearGradient id="linear-gradient-20" x1="-185.463" y1="5.383" x2="-185.528" y2="6.186" xlink:href="#linear-gradient-16"/>
    <linearGradient id="linear-gradient-21" x1="-300.488" y1="-28.966" x2="-299.94" y2="-29.136" xlink:href="#linear-gradient-2"/>
    <linearGradient id="linear-gradient-22" x1="-126.643" y1="-9.474" x2="-126.733" y2="-8.716" xlink:href="#linear-gradient-16"/>
    <linearGradient id="linear-gradient-23" x1="-110.226" y1="-10.115" x2="-110.172" y2="-8.86" xlink:href="#linear-gradient-2"/>
    <linearGradient id="linear-gradient-24" x1="-193.524" y1="-17.088" x2="-193.429" y2="-15.093" xlink:href="#linear-gradient-2"/>
    <linearGradient id="linear-gradient-25" x1="0.276" y1="-0.231" x2="0.524" y2="0.562" xlink:href="#linear-gradient-16"/>
    <linearGradient id="linear-gradient-26" x1="0.193" y1="-0.157" x2="0.789" y2="1.209" xlink:href="#linear-gradient-16"/>
    <linearGradient id="linear-gradient-27" x1="1.059" y1="0.456" x2="0.127" y2="0.532" xlink:href="#linear-gradient-16"/>
    <linearGradient id="linear-gradient-28" x1="1.036" y1="0.436" x2="0.147" y2="0.534" xlink:href="#linear-gradient-16"/>
    <linearGradient id="linear-gradient-29" x1="6.416" y1="-0.026" x2="5.729" y2="0.678" xlink:href="#linear-gradient-2"/>
    <linearGradient id="linear-gradient-30" x1="97.153" y1="0.5" x2="98.153" y2="0.5" xlink:href="#linear-gradient-2"/>
    <linearGradient id="linear-gradient-31" x1="152.324" y1="0.816" x2="152.27" y2="0.244" xlink:href="#linear-gradient-16"/>
    <linearGradient id="linear-gradient-32" x1="-0.039" y1="0.515" x2="0.287" y2="0.507" xlink:href="#linear-gradient-8"/>
    <linearGradient id="linear-gradient-33" x1="1.567" y1="0.027" x2="0.346" y2="0.567" xlink:href="#linear-gradient-16"/>
    <linearGradient id="linear-gradient-34" x1="1.4" y1="0.151" x2="0.484" y2="0.609" xlink:href="#linear-gradient-16"/>
    <linearGradient id="linear-gradient-35" x1="0" y1="0.5" x2="1" y2="0.5" xlink:href="#linear-gradient-2"/>
    <linearGradient id="linear-gradient-36" x1="79.763" y1="0.5" x2="80.637" y2="0.5" xlink:href="#linear-gradient-9"/>
    <linearGradient id="linear-gradient-38" x1="76.746" y1="0.5" x2="77.62" y2="0.5" xlink:href="#linear-gradient-9"/>
    <linearGradient id="linear-gradient-39" x1="0.587" y1="-0.151" x2="0.39" y2="0.983" xlink:href="#linear-gradient-8"/>
    <linearGradient id="linear-gradient-40" x1="1.505" y1="0.27" x2="0.197" y2="0.581" xlink:href="#linear-gradient-9"/>
    <linearGradient id="linear-gradient-41" x1="1.246" y1="-0.83" x2="0.397" y2="0.605" xlink:href="#linear-gradient-9"/>
    <linearGradient id="linear-gradient-42" x1="1.753" y1="-38.877" x2="0.89" y2="-37.92" xlink:href="#linear-gradient-9"/>
    <linearGradient id="linear-gradient-43" x1="0" y1="0.5" x2="1" y2="0.5" xlink:href="#linear-gradient-8"/>
    <linearGradient id="linear-gradient-44" x1="79.807" y1="0.26" x2="80.308" y2="0.818" xlink:href="#linear-gradient-16"/>
    <linearGradient id="linear-gradient-45" x1="5.681" y1="0.057" x2="5.007" y2="1.321" xlink:href="#linear-gradient-2"/>
  </defs>
  <g id="Group_11525" data-name="Group 11525" transform="translate(-77.552 -104.414)">
    <path id="Path_15187" data-name="Path 15187" d="M152.1,395.586H77.551V356.51H94.5v-64l20.936-4.844h14.007V230.922h28.024V241.3h4.844V185.254h10.033v63.669H293.091v14.934H328.38V365.068h10.379V263.857h30.948V323.6h26.137v22.661h18.163V239.524h23.353v50.9h24.391l20.758-44.794h64.351l23.353,7.265V205.148h27.8v43.775h17.868v41.5h23.872v35.565l32.694,5.448v64.153Z" fill="url(#linear-gradient)"/>
    <g id="Group_11485" data-name="Group 11485">
      <g id="Group_11482" data-name="Group 11482">
        <path id="Path_15188" data-name="Path 15188" d="M140.211,341.926l-.062,0a36.526,36.526,0,0,1-5.322-.907.663.663,0,1,1,.318-1.287,35.123,35.123,0,0,0,5.128.873.663.663,0,0,1-.062,1.323Zm-12.695-3.59a.66.66,0,0,1-.285-.064,43.98,43.98,0,0,1-4.7-2.623.663.663,0,1,1,.715-1.117,42.747,42.747,0,0,0,4.558,2.543.663.663,0,0,1-.287,1.261Zm-10.929-7.429a.656.656,0,0,1-.446-.173,49.408,49.408,0,0,1-3.769-3.834.663.663,0,0,1,.994-.878,48.58,48.58,0,0,0,3.668,3.733.663.663,0,0,1-.447,1.152Zm-8.507-10.126a.664.664,0,0,1-.557-.3c-.95-1.464-1.863-3.019-2.716-4.623a.663.663,0,1,1,1.171-.621c.835,1.568,1.729,3.09,2.657,4.521a.663.663,0,0,1-.555,1.025Zm-6-11.8a.665.665,0,0,1-.618-.421c-.637-1.619-1.238-3.315-1.789-5.038a.663.663,0,0,1,1.264-.4c.541,1.7,1.133,3.364,1.76,4.957a.662.662,0,0,1-.375.859A.643.643,0,0,1,102.079,308.981ZM98.22,296.3a.663.663,0,0,1-.645-.516q-.2-.865-.38-1.735-.364-1.742-.671-3.5a.663.663,0,0,1,1.307-.228q.3,1.737.662,3.456.18.856.374,1.712a.663.663,0,0,1-.5.794A.636.636,0,0,1,98.22,296.3Zm-2.056-13.092a.662.662,0,0,1-.66-.609c-.146-1.806-.229-3.6-.248-5.346a.664.664,0,0,1,.656-.669h.008a.664.664,0,0,1,.663.657c.017,1.709.1,3.476.243,5.251a.664.664,0,0,1-.607.714Zm.151-13.24a.652.652,0,0,1-.076,0,.663.663,0,0,1-.584-.734c.205-1.8.492-3.582.853-5.3a.663.663,0,0,1,1.3.274c-.352,1.674-.633,3.415-.834,5.174A.662.662,0,0,1,96.315,269.972Zm48.179-4.838c-.386-.024-.73-.014-1.1-.041a.663.663,0,0,1-.612-.711.655.655,0,0,1,.71-.611c.333.024.678-.006,1,.037a11.4,11.4,0,0,0,3.944-.678.663.663,0,1,1,.459,1.244A12.689,12.689,0,0,1,144.494,265.134Zm-8.48-2.633a.666.666,0,0,1-.366-.11,15.922,15.922,0,0,1-2.182-1.737,19.545,19.545,0,0,1-1.831-2.01.663.663,0,1,1,1.039-.824,18.319,18.319,0,0,0,1.707,1.874,14.562,14.562,0,0,0,2,1.59.664.664,0,0,1-.367,1.217Zm18.462-3.248a.662.662,0,0,1-.59-.965,12.484,12.484,0,0,0,1.284-4.835.679.679,0,0,1,.707-.616.664.664,0,0,1,.616.708,13.792,13.792,0,0,1-1.426,5.347A.662.662,0,0,1,154.476,259.253ZM99.4,257.11a.679.679,0,0,1-.241-.044.664.664,0,0,1-.377-.859,46.68,46.68,0,0,1,2.234-4.894.663.663,0,1,1,1.172.621,45.318,45.318,0,0,0-2.17,4.753A.663.663,0,0,1,99.4,257.11Zm29.018-5.2a.662.662,0,0,1-.626-.446,35.441,35.441,0,0,1-1.358-5.229.663.663,0,0,1,1.305-.238,33.993,33.993,0,0,0,1.3,5.032.663.663,0,0,1-.626.881Zm26.17-5.547a.662.662,0,0,1-.619-.426,18.44,18.44,0,0,0-2.455-4.476.664.664,0,0,1,1.062-.8,19.838,19.838,0,0,1,2.631,4.8.663.663,0,0,1-.619.9Zm-48.648-.735a.662.662,0,0,1-.519-1.075,39.99,39.99,0,0,1,3.626-3.989.663.663,0,1,1,.918.957,38.621,38.621,0,0,0-3.505,3.857A.665.665,0,0,1,105.945,245.628Zm20.41-6.763a.662.662,0,0,1-.663-.656l0-.561c0-1.59.076-3.208.225-4.8a.663.663,0,1,1,1.321.124c-.146,1.556-.22,3.132-.22,4.683l0,.545a.663.663,0,0,1-.656.67Zm-10.542-1.989a.664.664,0,0,1-.341-1.233,34.015,34.015,0,0,1,3.135-1.655q.849-.392,1.723-.728a.663.663,0,0,1,.477,1.237q-.834.323-1.644.7a32.333,32.333,0,0,0-3.011,1.589A.663.663,0,0,1,115.813,236.876Zm30.315-.4a.664.664,0,0,1-.347-.1,25.112,25.112,0,0,0-4.654-2.224.663.663,0,0,1,.448-1.248,26.463,26.463,0,0,1,4.9,2.341.664.664,0,0,1-.347,1.229Zm-17.844-3.787a.663.663,0,0,1-.068-1.322,31.349,31.349,0,0,1,5.411-.1.663.663,0,1,1-.089,1.324,30.129,30.129,0,0,0-5.184.1C128.331,232.693,128.307,232.694,128.284,232.694Zm-.377-6.963a.662.662,0,0,1-.644-.822c.422-1.716.937-3.445,1.527-5.141a.663.663,0,0,1,1.253.436c-.577,1.657-1.079,3.347-1.493,5.023A.663.663,0,0,1,127.907,225.731Zm4.622-12.4a.655.655,0,0,1-.3-.072.663.663,0,0,1-.293-.891c.8-1.578,1.68-3.151,2.618-4.675a.663.663,0,0,1,1.13.695c-.92,1.492-1.783,3.033-2.564,4.579A.662.662,0,0,1,132.529,213.333Zm7.175-11.125a.663.663,0,0,1-.517-1.078c1.113-1.388,2.3-2.748,3.518-4.04a.663.663,0,0,1,.964.91c-1.2,1.267-2.357,2.6-3.447,3.96A.664.664,0,0,1,139.7,202.208Zm9.286-9.438a.663.663,0,0,1-.424-1.174c1.376-1.14,2.811-2.232,4.265-3.245a.663.663,0,0,1,.759,1.088c-1.424.992-2.83,2.062-4.178,3.179A.661.661,0,0,1,148.99,192.77Zm11.023-7.333a.663.663,0,0,1-.308-1.251c1.569-.819,3.2-1.59,4.839-2.292a.663.663,0,0,1,.522,1.22c-1.611.688-3.208,1.445-4.747,2.248A.662.662,0,0,1,160.013,185.437Zm67.713-2.6a.664.664,0,0,1-.226-.039q-1.581-.573-3.185-1.091a.663.663,0,1,1,.408-1.262q1.624.525,3.228,1.106a.663.663,0,0,1-.225,1.286Zm-55.444-2.388a.663.663,0,0,1-.192-1.3c1.689-.51,3.429-.968,5.173-1.363a.663.663,0,1,1,.293,1.293c-1.713.388-3.424.839-5.083,1.34A.669.669,0,0,1,172.282,180.453Zm44.575-.844a.658.658,0,0,1-.152-.018c-1.707-.4-3.443-.758-5.16-1.062a.663.663,0,1,1,.23-1.305c1.742.308,3.5.67,5.233,1.076a.663.663,0,0,1-.151,1.309Zm-31.612-1.869a.663.663,0,0,1-.081-1.321c1.755-.217,3.546-.378,5.325-.483a.671.671,0,0,1,.7.623.662.662,0,0,1-.623.7c-1.751.1-3.513.262-5.24.475A.748.748,0,0,1,185.245,177.74Zm18.531-.255-.061,0c-1.751-.159-3.519-.268-5.255-.324a.663.663,0,0,1-.641-.684.687.687,0,0,1,.684-.641c1.761.056,3.555.167,5.333.328a.663.663,0,0,1-.06,1.324Z" fill="#4f448c"/>
      </g>
      <g id="Group_11483" data-name="Group 11483">
        <path id="Path_15189" data-name="Path 15189" d="M242.913,206.451a.663.663,0,0,1-.653-.547c-.31-1.747-.55-3.534-.712-5.312a.663.663,0,0,1,1.321-.121c.158,1.741.393,3.491.7,5.2a.662.662,0,0,1-.653.779Zm-.923-13.207h-.024a.663.663,0,0,1-.639-.685c.06-1.762.194-3.559.4-5.34a.655.655,0,0,1,.734-.584.662.662,0,0,1,.583.734c-.2,1.746-.331,3.508-.39,5.235A.664.664,0,0,1,241.99,193.244Zm1.751-13.121a.652.652,0,0,1-.15-.017.661.661,0,0,1-.5-.795c.4-1.718.867-3.456,1.394-5.165a.663.663,0,1,1,1.267.391c-.517,1.679-.978,3.386-1.369,5.073A.664.664,0,0,1,243.741,180.123Zm233.559-6.2a.663.663,0,0,1-.654-.556c-.28-1.709-.641-3.436-1.072-5.132a.663.663,0,1,1,1.285-.327c.441,1.733.81,3.5,1.1,5.245a.664.664,0,0,1-.548.762A.782.782,0,0,1,477.3,173.923Zm-229.446-6.386a.664.664,0,0,1-.61-.923c.686-1.619,1.441-3.252,2.244-4.85a.663.663,0,1,1,1.185.594c-.79,1.574-1.533,3.18-2.208,4.775A.665.665,0,0,1,247.854,167.537Zm225.924-6.37a.665.665,0,0,1-.618-.421c-.63-1.612-1.339-3.232-2.1-4.813a.663.663,0,0,1,1.194-.577c.78,1.612,1.5,3.262,2.146,4.906a.662.662,0,0,1-.618.905Zm-219.8-5.378a.662.662,0,0,1-.562-1.014c.935-1.5,1.932-3,2.962-4.448a.663.663,0,0,1,1.082.768c-1.016,1.43-2,2.9-2.919,4.382A.664.664,0,0,1,253.976,155.789ZM467.8,149.352a.66.66,0,0,1-.562-.311c-.922-1.467-1.915-2.931-2.951-4.353a.664.664,0,1,1,1.073-.781c1.053,1.446,2.063,2.936,3,4.429a.663.663,0,0,1-.56,1.016Zm-206-4.257a.663.663,0,0,1-.5-1.092c1.148-1.351,2.351-2.687,3.576-3.971a.663.663,0,1,1,.96.916c-1.208,1.265-2.394,2.582-3.526,3.913A.663.663,0,0,1,261.8,145.1Zm198.018-6.323a.665.665,0,0,1-.494-.222c-1.161-1.3-2.382-2.585-3.627-3.815a.663.663,0,1,1,.933-.943c1.264,1.249,2.5,2.553,3.683,3.875a.664.664,0,0,1-.495,1.1ZM271.089,135.64a.663.663,0,0,1-.438-1.16c1.333-1.175,2.716-2.323,4.112-3.415a.663.663,0,1,1,.817,1.045c-1.376,1.076-2.739,2.208-4.053,3.364A.655.655,0,0,1,271.089,135.64ZM450.252,129.6a.655.655,0,0,1-.42-.151c-1.348-1.106-2.751-2.188-4.169-3.215a.663.663,0,0,1,.779-1.074c1.439,1.043,2.863,2.141,4.232,3.265a.663.663,0,0,1-.422,1.175Zm-168.607-1.976a.663.663,0,0,1-.365-1.217c1.471-.965,3-1.913,4.533-2.817a.664.664,0,0,1,.673,1.144c-1.519.892-3.025,1.828-4.478,2.781A.656.656,0,0,1,281.645,127.625ZM439.4,121.99a.659.659,0,0,1-.338-.092q-1.383-.822-2.793-1.59-.9-.49-1.811-.962a.663.663,0,1,1,.61-1.177q.921.477,1.836.975,1.431.779,2.835,1.614a.662.662,0,0,1-.339,1.232Zm-146.258-.948a.663.663,0,0,1-.3-1.257c1.569-.779,3.194-1.541,4.829-2.264a.664.664,0,0,1,.537,1.214c-1.618.714-3.225,1.468-4.777,2.238A.657.657,0,0,1,293.147,121.042Zm134.422-5a.676.676,0,0,1-.259-.052c-1.592-.675-3.241-1.327-4.9-1.938a.663.663,0,1,1,.457-1.244c1.682.618,3.351,1.278,4.963,1.96a.663.663,0,0,1-.259,1.274Zm-122.246-.234a.663.663,0,0,1-.23-1.285c1.646-.607,3.341-1.195,5.036-1.746a.663.663,0,0,1,.411,1.261c-1.68.547-3.358,1.128-4.988,1.73A.678.678,0,0,1,305.323,115.807Zm12.64-3.986a.663.663,0,0,1-.169-1.3c1.681-.447,3.42-.878,5.17-1.28a.663.663,0,1,1,.3,1.292c-1.736.4-3.461.826-5.128,1.27A.669.669,0,0,1,317.963,111.821Zm97.116-.214a.675.675,0,0,1-.186-.027c-1.661-.485-3.375-.947-5.1-1.372a.663.663,0,1,1,.319-1.287c1.738.429,3.47.9,5.149,1.386a.663.663,0,0,1-.186,1.3Zm-84.172-2.657a.663.663,0,0,1-.117-1.315q2.617-.473,5.252-.87a.663.663,0,1,1,.2,1.312q-2.616.394-5.215.863A.672.672,0,0,1,330.907,108.95Zm71.273-.4a.728.728,0,0,1-.122-.011c-1.7-.317-3.448-.611-5.209-.875a.663.663,0,1,1,.2-1.312c1.775.266,3.544.563,5.255.883a.663.663,0,0,1-.121,1.315Zm-58.148-1.488a.663.663,0,0,1-.071-1.322q2.645-.29,5.3-.511a.65.65,0,0,1,.716.605.662.662,0,0,1-.606.716q-2.634.222-5.264.508A.58.58,0,0,1,344.032,107.061Zm45.019-.376-.066,0q-2.629-.264-5.267-.45a.663.663,0,0,1,.093-1.322q2.656.188,5.306.452a.663.663,0,0,1-.066,1.323Zm-31.8-.658a.663.663,0,0,1-.032-1.325q2.661-.131,5.316-.2a.674.674,0,0,1,.681.645.664.664,0,0,1-.645.682q-2.64.07-5.287.2Zm18.563-.191h-.02q-2.646-.083-5.288-.1a.663.663,0,0,1,0-1.326h0q2.66.015,5.321.1a.663.663,0,0,1-.02,1.326Z" fill="#4f448c"/>
      </g>
      <g id="Group_11484" data-name="Group 11484">
        <path id="Path_15190" data-name="Path 15190" d="M599.944,280.787a.615.615,0,0,1-.141-.016.661.661,0,0,1-.507-.789q.189-.864.358-1.731a.664.664,0,1,1,1.3.254q-.172.883-.365,1.76A.663.663,0,0,1,599.944,280.787Zm1.462-9.623-.057,0a.663.663,0,0,1-.6-.716c.148-1.75.235-3.516.259-5.25a.664.664,0,0,1,.664-.654h.009a.663.663,0,0,1,.654.672c-.025,1.766-.114,3.564-.265,5.343A.662.662,0,0,1,601.406,271.164Zm-.066-13.244a.664.664,0,0,1-.659-.6c-.167-1.741-.4-3.493-.7-5.206a.662.662,0,1,1,1.3-.227c.3,1.746.544,3.531.715,5.306a.663.663,0,0,1-.6.724C601.383,257.918,601.362,257.92,601.34,257.92Zm-83.5-4.029h-.035a19.018,19.018,0,0,1-5.388-1,.663.663,0,0,1,.445-1.249,17.683,17.683,0,0,0,5.011.924.663.663,0,0,1-.033,1.325Zm7.917-.607a.663.663,0,0,1-.114-1.317,47.01,47.01,0,0,0,5.09-1.192.662.662,0,1,1,.374,1.271,48.237,48.237,0,0,1-5.235,1.228A.646.646,0,0,1,525.762,253.284Zm12.584-4.06a.663.663,0,0,1-.286-1.261,50.954,50.954,0,0,0,4.6-2.5.663.663,0,1,1,.691,1.131,51.673,51.673,0,0,1-4.718,2.565A.649.649,0,0,1,538.346,249.224Zm-31.627-1.3a.664.664,0,0,1-.592-.362,13.455,13.455,0,0,1-1.357-5.37.663.663,0,0,1,1.323-.077,12.163,12.163,0,0,0,1.216,4.845.662.662,0,0,1-.29.891A.648.648,0,0,1,506.719,247.924Zm92.1-3a.663.663,0,0,1-.635-.473c-.506-1.688-1.081-3.357-1.711-4.962A.664.664,0,0,1,597.71,239c.642,1.638,1.229,3.342,1.744,5.065a.661.661,0,0,1-.444.826A.7.7,0,0,1,598.82,244.921Zm-49.373-2.889a.663.663,0,0,1-.429-1.169,51.2,51.2,0,0,0,3.814-3.584.663.663,0,1,1,.956.918,52.057,52.057,0,0,1-3.913,3.677A.658.658,0,0,1,549.447,242.032Zm-43.012-7.076a.647.647,0,0,1-.178-.024.662.662,0,0,1-.462-.816,37.448,37.448,0,0,1,1.817-5.081.663.663,0,0,1,1.213.535,36.1,36.1,0,0,0-1.751,4.9A.665.665,0,0,1,506.435,234.956Zm87.281-2.247a.66.66,0,0,1-.58-.342c-.748-1.35-1.557-2.686-2.409-3.967l-.336-.5a.663.663,0,1,1,1.1-.746l.346.512c.87,1.311,1.7,2.677,2.463,4.059a.663.663,0,0,1-.259.9A.654.654,0,0,1,593.716,232.709Zm-35.368-.456a.663.663,0,0,1-.544-1.043c.992-1.421,1.927-2.915,2.78-4.438a.663.663,0,0,1,1.157.648c-.874,1.561-1.832,3.091-2.849,4.549A.662.662,0,0,1,558.348,232.253Zm-46.2-9.186a.664.664,0,0,1-.54-1.048,42.811,42.811,0,0,1,3.394-4.179.663.663,0,0,1,.975.9,41.123,41.123,0,0,0-3.288,4.05A.664.664,0,0,1,512.152,223.067Zm73.843-1.1a.662.662,0,0,1-.488-.213c-1.177-1.279-2.432-2.518-3.729-3.682a.663.663,0,0,1,.886-.987c1.328,1.192,2.613,2.461,3.82,3.77a.663.663,0,0,1-.489,1.112Zm-21.456-1.4a.663.663,0,0,1-.619-.9c.621-1.615,1.178-3.289,1.655-4.974a.664.664,0,0,1,1.277.362c-.488,1.724-1.058,3.436-1.694,5.089A.661.661,0,0,1,564.539,220.561Zm-43.155-6.941a.663.663,0,0,1-.4-1.193,46.626,46.626,0,0,1,4.472-2.987.663.663,0,1,1,.672,1.144,45.108,45.108,0,0,0-4.345,2.9A.661.661,0,0,1,521.384,213.62Zm54.559-.259a.662.662,0,0,1-.368-.112c-1.459-.974-2.969-1.882-4.491-2.7a.663.663,0,0,1,.627-1.168c1.56.837,3.107,1.768,4.6,2.765a.663.663,0,0,1-.367,1.215Zm-8.09-5.614a.727.727,0,0,1-.093-.006.664.664,0,0,1-.565-.749c.242-1.721.409-3.477.5-5.22a.641.641,0,0,1,.7-.629.662.662,0,0,1,.628.695c-.088,1.782-.259,3.579-.507,5.339A.662.662,0,0,1,567.853,207.747Zm-3.718-.352a.672.672,0,0,1-.223-.039,50.2,50.2,0,0,0-5.012-1.5.663.663,0,0,1,.313-1.289,51.641,51.641,0,0,1,5.145,1.541.663.663,0,0,1-.223,1.288Zm-31.165-.134a.663.663,0,0,1-.231-1.285,45.054,45.054,0,0,1,5.146-1.573.663.663,0,0,1,.311,1.29,43.539,43.539,0,0,0-4.995,1.527A.666.666,0,0,1,532.97,207.261Zm18.237-2.615a.37.37,0,0,1-.048,0,44.22,44.22,0,0,0-5.224-.062.653.653,0,0,1-.692-.631.662.662,0,0,1,.63-.694,46.2,46.2,0,0,1,5.379.065.663.663,0,0,1-.045,1.324ZM568.2,194.518a.662.662,0,0,1-.659-.6,50.51,50.51,0,0,0-.747-5.182.663.663,0,1,1,1.3-.258,52.045,52.045,0,0,1,.768,5.317.664.664,0,0,1-.6.722C568.238,194.518,568.217,194.518,568.2,194.518Zm-83.578-7.239a.664.664,0,0,1-.483-1.118q1.819-1.932,3.7-3.827a.663.663,0,0,1,.94.936q-1.871,1.876-3.674,3.8A.665.665,0,0,1,484.618,187.279Zm80.606-5.642a.666.666,0,0,1-.618-.42,37.377,37.377,0,0,0-2.227-4.706.663.663,0,1,1,1.155-.652,39.058,39.058,0,0,1,2.308,4.873.664.664,0,0,1-.376.859A.645.645,0,0,1,565.224,181.637Zm-71.152-3.655a.663.663,0,0,1-.442-1.158c1.367-1.221,2.735-2.385,4.067-3.458a.663.663,0,0,1,.833,1.032c-1.315,1.06-2.666,2.208-4.017,3.416A.663.663,0,0,1,494.072,177.982Zm64.192-7.536a.663.663,0,0,1-.482-.208q-.7-.74-1.454-1.434a28.654,28.654,0,0,0-2.425-1.995.663.663,0,1,1,.785-1.068,29.72,29.72,0,0,1,2.537,2.086q.789.725,1.521,1.5a.664.664,0,0,1-.482,1.119Zm-53.737-.607a.663.663,0,0,1-.366-1.216c1.519-1,3.059-1.938,4.577-2.78a.663.663,0,1,1,.643,1.159c-1.488.827-3,1.744-4.489,2.728A.662.662,0,0,1,504.527,169.839Zm11.721-6.144a.663.663,0,0,1-.241-1.281q.775-.3,1.561-.582c1.157-.411,2.35-.781,3.546-1.1a.663.663,0,1,1,.341,1.281c-1.161.31-2.319.669-3.443,1.068q-.768.273-1.523.567A.657.657,0,0,1,516.248,163.7Zm31.1-.59a.675.675,0,0,1-.246-.047,35.043,35.043,0,0,0-4.963-1.555.663.663,0,0,1,.3-1.291,36.372,36.372,0,0,1,5.152,1.614.663.663,0,0,1-.246,1.279Zm-18.237-2.451a.663.663,0,0,1-.057-1.323,44.075,44.075,0,0,1,5.38-.155.663.663,0,0,1-.043,1.325,43.889,43.889,0,0,0-5.221.151A.578.578,0,0,1,529.11,160.654Z" fill="#4f448c"/>
      </g>
    </g>
    <g id="Group_11488" data-name="Group 11488">
      <g id="Group_11486" data-name="Group 11486">
        <path id="Path_15191" data-name="Path 15191" d="M312.077,386.105H145.166a4.675,4.675,0,0,1-4.345-3.577l-25.3-117.855a2.8,2.8,0,0,1,2.809-3.576H285.242a4.674,4.674,0,0,1,4.344,3.576l25.3,117.855A2.8,2.8,0,0,1,312.077,386.105Z" fill="url(#linear-gradient-2)"/>
        <path id="Path_15192" data-name="Path 15192" d="M310.327,382.089H145.708a1.619,1.619,0,0,1-1.5-1.238L119.355,265.1a.971.971,0,0,1,.973-1.239H284.947a1.62,1.62,0,0,1,1.5,1.239L311.3,380.851A.969.969,0,0,1,310.327,382.089Z" fill="url(#linear-gradient-3)"/>
        <path id="Path_15193" data-name="Path 15193" d="M358.005,395.587H152.1a8.435,8.435,0,0,1-8.435-8.435h0a1.047,1.047,0,0,1,1.047-1.047H365.393a1.047,1.047,0,0,1,1.047,1.047h0A8.436,8.436,0,0,1,358.005,395.587Z" fill="url(#linear-gradient-4)"/>
      </g>
      <g id="Group_11487" data-name="Group 11487">
        <path id="Path_15194" data-name="Path 15194" d="M429.6,386.105H596.512a4.675,4.675,0,0,0,4.345-3.577l25.3-117.855a2.8,2.8,0,0,0-2.809-3.576H456.436a4.674,4.674,0,0,0-4.344,3.576l-25.3,117.855A2.8,2.8,0,0,0,429.6,386.105Z" fill="url(#linear-gradient-5)"/>
        <path id="Path_15195" data-name="Path 15195" d="M431.351,382.089H595.97a1.619,1.619,0,0,0,1.5-1.238L622.322,265.1a.97.97,0,0,0-.972-1.239H456.731a1.619,1.619,0,0,0-1.5,1.239L430.379,380.851A.969.969,0,0,0,431.351,382.089Z" fill="url(#linear-gradient-6)"/>
        <path id="Rectangle_6258" data-name="Rectangle 6258" d="M8.218,0H203.257a8.218,8.218,0,0,1,8.218,8.218v.244a1.02,1.02,0,0,1-1.02,1.02H1.02A1.02,1.02,0,0,1,0,8.462V8.218A8.218,8.218,0,0,1,8.218,0Z" transform="translate(607.838 395.586) rotate(-180)" fill="url(#linear-gradient-7)"/>
      </g>
    </g>
    <g id="Group_11521" data-name="Group 11521">
      <g id="Group_11520" data-name="Group 11520" clip-path="url(#clip-path)">
        <g id="Group_11490" data-name="Group 11490">
          <path id="Path_15196" data-name="Path 15196" d="M537.7,342.3a31.414,31.414,0,0,0,48.166,26.6l9.662,15.364a49.563,49.563,0,1,1,17.642-64.74l-16.134,8.342A31.421,31.421,0,0,0,537.7,342.3Z" fill="url(#linear-gradient-8)"/>
          <path id="Path_15197" data-name="Path 15197" d="M618.7,342.3a49.543,49.543,0,0,1-23.172,41.961l-9.662-15.364a31.409,31.409,0,0,0,11.17-41.034l16.134-8.342A49.339,49.339,0,0,1,618.7,342.3Z" fill="url(#linear-gradient-9)"/>
          <g id="Group_11489" data-name="Group 11489">
            <circle id="Ellipse_238" data-name="Ellipse 238" cx="24.579" cy="24.579" r="24.579" transform="translate(544.551 317.718)" fill="url(#linear-gradient-10)"/>
            <circle id="Ellipse_239" data-name="Ellipse 239" cx="20.666" cy="20.666" r="20.666" transform="translate(548.463 321.63)" fill="url(#linear-gradient-11)"/>
            <text id="_" data-name="%" transform="translate(556.79 352.734)" fill="#fdc432" font-size="31.191" font-family="Montserrat-Bold, Montserrat" font-weight="700"><tspan x="0" y="0">%</tspan></text>
          </g>
        </g>
        <g id="Group_11519" data-name="Group 11519">
          <g id="Group_11495" data-name="Group 11495">
            <g id="Group_11492" data-name="Group 11492">
              <path id="Path_15198" data-name="Path 15198" d="M239.12,386.558H181.876l6.277-58h44.691Z" fill="url(#linear-gradient-12)"/>
              <g id="Group_11491" data-name="Group 11491">
                <path id="Path_15199" data-name="Path 15199" d="M220.038,337.306a.962.962,0,0,1-.962-.963V319.924a8.578,8.578,0,1,0-17.157,0v16.419a.963.963,0,1,1-1.925,0V319.924a10.5,10.5,0,1,1,21.007,0v16.419A.963.963,0,0,1,220.038,337.306Z" fill="url(#linear-gradient-13)"/>
              </g>
            </g>
            <g id="Group_11494" data-name="Group 11494">
              <path id="Path_15200" data-name="Path 15200" d="M194.489,397.241H137.245l6.277-58h44.691Z" fill="url(#linear-gradient-14)"/>
              <g id="Group_11493" data-name="Group 11493">
                <path id="Path_15201" data-name="Path 15201" d="M175.407,347.989a.962.962,0,0,1-.962-.962v-16.42a8.579,8.579,0,0,0-17.157,0v16.42a.962.962,0,0,1-1.925,0v-16.42a10.5,10.5,0,0,1,21.007,0v16.42A.963.963,0,0,1,175.407,347.989Z" fill="url(#linear-gradient-15)"/>
              </g>
            </g>
          </g>
          <g id="Group_11508" data-name="Group 11508">
            <path id="Path_15202" data-name="Path 15202" d="M440.772,227.131c-5.3,7.352-22.338,34.9-27.955,38.115s-45.825,30.136-45.825,30.136,2.794,6.3,4.641,7.633c7.1-1.154,43.97-18.56,51.312-22.965s36.035-42.974,36.035-42.974Z" fill="url(#linear-gradient-16)"/>
            <g id="Group_11505" data-name="Group 11505">
              <g id="Group_11504" data-name="Group 11504">
                <path id="Path_15203" data-name="Path 15203" d="M450.48,328.007c6.684,0,58.939-2.515,58.939-2.515l-9.566,85.1-27.037,1.992-2.846-27.036-11.1,27.036L431.265,408.6S442.942,345.034,450.48,328.007Z" fill="url(#linear-gradient-17)"/>
                <path id="Path_15204" data-name="Path 15204" d="M512.45,269.909s10.116,22.582,10.116,25.292-5.394,41.917-6.749,43.272c-2.71,1.721-13.5,6.046-14.174,7.9a3.675,3.675,0,0,0,.723,3.432c-2.936,1.9-10.613,7.632-9.259,8.987a5.807,5.807,0,0,0,1.875,1.386,1.02,1.02,0,0,0,.2.06s-1.942,3.658,1.581,3.161c.361,2.077,1.987,1.852,3.3,1.265a16.432,16.432,0,0,0,2.8-1.762c0,1.942,1.264,2.981,3.884.813s7.271-5.645,9.484-7.452,6.277-10.748,7.677-14.045,10.446-30.465,12.072-36.347,3.748-8.3,2.122-13.911-9.936-29.455-9.936-29.455Z" fill="url(#linear-gradient-18)"/>
                <g id="Group_11501" data-name="Group 11501">
                  <g id="Group_11496" data-name="Group 11496">
                    <path id="Path_15205" data-name="Path 15205" d="M503.129,350.433a1.774,1.774,0,0,1-.585-.1,2.068,2.068,0,0,1-1.2-1.264,5.477,5.477,0,0,1-.272-1.578.332.332,0,0,1,.308-.354.326.326,0,0,1,.354.307,4.983,4.983,0,0,0,.23,1.39,1.43,1.43,0,0,0,.8.872,2.188,2.188,0,0,0,1.476-.235,18.769,18.769,0,0,0,3.98-2.28.332.332,0,0,1,.4.531,19.583,19.583,0,0,1-4.121,2.361A3.6,3.6,0,0,1,503.129,350.433Z" fill="#de7e59"/>
                  </g>
                  <g id="Group_11497" data-name="Group 11497">
                    <path id="Path_15206" data-name="Path 15206" d="M495.248,360.445a1.119,1.119,0,0,1-.115-.005,1.992,1.992,0,0,1-1.578-1.213,2.939,2.939,0,0,1-.086-1.919.332.332,0,0,1,.64.174,2.278,2.278,0,0,0,.054,1.481,1.339,1.339,0,0,0,1.033.816c.378.026.832-.348,1.2-.657l1.156-.935c2.438-1.962,4.2-3.38,6.574-5.544a.331.331,0,0,1,.447.489c-2.39,2.179-4.25,3.676-6.605,5.571l-1.147.928A2.7,2.7,0,0,1,495.248,360.445Z" fill="#de7e59"/>
                  </g>
                  <g id="Group_11498" data-name="Group 11498">
                    <path id="Path_15207" data-name="Path 15207" d="M496.414,363.641a1.861,1.861,0,0,1-1.387-.563,2.4,2.4,0,0,1-.039-2.716.336.336,0,0,1,.449-.136.332.332,0,0,1,.137.449,1.8,1.8,0,0,0-.057,1.956,1.392,1.392,0,0,0,1.4.269,4.553,4.553,0,0,0,1.477-.918c2.557-2.093,5.026-4.38,7.413-6.592l.471.468c-2.415,2.237-4.891,4.532-7.464,6.637a5.069,5.069,0,0,1-1.7,1.04A2.417,2.417,0,0,1,496.414,363.641Z" fill="#de7e59"/>
                  </g>
                  <g id="Group_11499" data-name="Group 11499">
                    <path id="Path_15208" data-name="Path 15208" d="M498.451,365.212a2.356,2.356,0,0,1-.364-.028,1.631,1.631,0,0,1-1.387-1.313.333.333,0,0,1,.293-.367.338.338,0,0,1,.367.291.969.969,0,0,0,.834.733,2.725,2.725,0,0,0,1.4-.25,13.443,13.443,0,0,0,4.208-2.766,23.949,23.949,0,0,1,2.2-1.729c.776-.565,1.579-1.147,2.442-1.89a.332.332,0,0,1,.432.5c-.883.759-1.733,1.378-2.484,1.923a23.729,23.729,0,0,0-2.135,1.68,14.071,14.071,0,0,1-4.416,2.9A3.847,3.847,0,0,1,498.451,365.212Z" fill="#de7e59"/>
                  </g>
                  <g id="Group_11500" data-name="Group 11500">
                    <path id="Path_15209" data-name="Path 15209" d="M504.268,364.983a1.3,1.3,0,0,1-.363-.05,2.182,2.182,0,0,1-1.272-1.647.332.332,0,0,1,.634-.2c.166.53.393,1.087.818,1.208a1.525,1.525,0,0,0,1.062-.283,33.2,33.2,0,0,0,5.087-3.757l2.359-1.986a.332.332,0,1,1,.427.508l-2.359,1.985a33.638,33.638,0,0,1-5.192,3.83A2.58,2.58,0,0,1,504.268,364.983Z" fill="#de7e59"/>
                  </g>
                </g>
                <path id="Path_15210" data-name="Path 15210" d="M468.434,211.787c-8.648.759-20.188,3.757-29.58,13.149s-15.253,22.918-16.961,28.8c0,0,10.561,10.854,16.443,10.854l11.9-10.435c-1.707,13.281-2.88,73.587-2.121,80.227,0,0,50.5-5.094,61.128-3.2,1.328-10.055-4.933-74.754-4.933-74.754l7.02,15.938s15.748-2.846,18.4-8.348c1.328-8.159-8.253-31.591-15.368-38.706S488.6,213.3,488.6,213.3a17.526,17.526,0,0,1-12.893,5.275C472.037,218.58,469.023,214.144,468.434,211.787Z" fill="url(#linear-gradient-19)"/>
                <g id="Group_11502" data-name="Group 11502">
                  <path id="Path_15211" data-name="Path 15211" d="M449.646,273.748h-.014a.5.5,0,0,1-.484-.512l.362-12.651c.058-1.995.116-3.995.234-5.963a95.85,95.85,0,0,1,1.976-14.44.5.5,0,1,1,.973.209,94.8,94.8,0,0,0-1.956,14.29c-.118,1.953-.175,3.945-.231,5.872l-.363,12.712A.5.5,0,0,1,449.646,273.748Z" fill="#bf6812"/>
                </g>
                <g id="Group_11503" data-name="Group 11503">
                  <path id="Path_15212" data-name="Path 15212" d="M512.063,272.832a.5.5,0,0,1-.442-.268,202.444,202.444,0,0,1-11.353-26.225.5.5,0,0,1,.939-.329,201.443,201.443,0,0,0,11.3,26.1.5.5,0,0,1-.44.727Z" fill="#bf6812"/>
                </g>
              </g>
            </g>
            <g id="Group_11507" data-name="Group 11507">
              <path id="Path_15213" data-name="Path 15213" d="M488.91,199.323c-.935,4.659.878,15.7.878,15.7-9.223,12.6-22.147,3.456-22.147,3.456,1.637-2.764,2.564-16.929,2.564-16.929Z" fill="url(#linear-gradient-20)"/>
              <g id="Group_11506" data-name="Group 11506">
                <path id="Path_15214" data-name="Path 15214" d="M464.524,161.907c-7-.467-9.574,13.511-.156,15.194S474.869,162.6,464.524,161.907Z" fill="url(#linear-gradient-21)"/>
                <path id="Path_15215" data-name="Path 15215" d="M475.3,161.349c-15.584-.16-17.553,39.9-2.481,46.508s23.838-23.134,21.489-32.954S486.653,161.465,475.3,161.349Z" fill="url(#linear-gradient-22)"/>
                <path id="Path_15216" data-name="Path 15216" d="M473.059,168.173c-4.133,4.048-10.464,2.648-13.068-3.975s8.874-14.478,16.517-6.677c4.285-2.628,7.8.956,9.16,2.348,4.609-1.623,8.818,3.18,7.8,5.173,4.842.05,4.437,23.844-4.1,33.941a9.571,9.571,0,0,0-3.11-9.079c2.825-2.768,3.41-13.644-2.033-10.763-1.513.8-1.707,3.656-1.707,3.656l-1.753-.018s1.658-7,.277-10.768S476.653,167.792,473.059,168.173Z" fill="url(#linear-gradient-23)"/>
                <path id="Path_15217" data-name="Path 15217" d="M480.758,182.779c-.9,6.837-3.368,10.9-5.038,10.886s-4.807-3.473-7.395-3.5-5.279,1.866-5.294,3.369-2.508,14.084,1.616,16.242,15.743,1.155,17.938-2.715-.933-19.264-.074-24.265Z" fill="url(#linear-gradient-24)"/>
                <path id="Path_15218" data-name="Path 15218" d="M468.267,193.69a7.182,7.182,0,0,0-2.6.465c-1.017.574-.719,1.688.033,2.357a4.151,4.151,0,0,0,2.816.775,2.936,2.936,0,0,0,2.859-1.852c.237-.458.333-1.333-.363-1.66A7.794,7.794,0,0,0,468.267,193.69Z" fill="#f4eeff"/>
              </g>
            </g>
          </g>
          <g id="Group_11518" data-name="Group 11518">
            <g id="Group_11514" data-name="Group 11514">
              <path id="Path_15219" data-name="Path 15219" d="M356.28,292.793c-1.415-1.414-2.988-1.271-5.086-.286a13.027,13.027,0,0,1-5.552,1.551c-1.748,0-6.415-2.448-6.415-2.448l-2.964,6.854s13.087,8.507,14.867,9.715,4.26,4.291,5.626,4.577,10.363-3.528,10.2-7.438c-.413-1.24-3.544-4.18-4.863-5.5a20.563,20.563,0,0,0-3.306-2.83C358,296.513,356.28,292.793,356.28,292.793Z" fill="url(#linear-gradient-25)"/>
              <path id="Path_15220" data-name="Path 15220" d="M356.661,291.617c-2.209.146-5.308,2.7-5.308,4.26s-.128,4.577,1.589,4.577,1.812-2.924,2.575-3.687,4.2.413,5.563,2.257,5.88,6.294,5.88,6.294,8.128-3.012,10.844-4.255c0-.413-5.842-9-5.842-9C365.893,294.744,359.554,291.427,356.661,291.617Z" fill="url(#linear-gradient-26)"/>
              <path id="Path_15221" data-name="Path 15221" d="M345.026,303.845c-1.262.345-2.32,2.607-.794,3.02s3.147-1.271,2.416-2.32S345.726,303.655,345.026,303.845Z" fill="url(#linear-gradient-27)"/>
              <path id="Path_15222" data-name="Path 15222" d="M347.292,305.8c-1.478.259-1.6,2.908,0,3.981s5.73,3.583,7.056,2.995,2.408-1.088,1.717-2.184S350.01,305.318,347.292,305.8Z" fill="url(#linear-gradient-28)"/>
              <g id="Group_11509" data-name="Group 11509">
                <path id="Path_15223" data-name="Path 15223" d="M365.613,307.9a.277.277,0,0,1-.146-.042,25.55,25.55,0,0,1-7.087-6.556.279.279,0,0,1,.451-.33,24.964,24.964,0,0,0,6.93,6.411.28.28,0,0,1-.148.517Z" fill="#de7e59"/>
              </g>
              <g id="Group_11510" data-name="Group 11510">
                <path id="Path_15224" data-name="Path 15224" d="M363.288,309.816a.277.277,0,0,1-.141-.038,22.389,22.389,0,0,1-6.316-5.556.279.279,0,0,1,.441-.341,21.845,21.845,0,0,0,6.158,5.416.279.279,0,0,1-.142.519Z" fill="#de7e59"/>
              </g>
              <g id="Group_11511" data-name="Group 11511">
                <path id="Path_15225" data-name="Path 15225" d="M360.728,311.442a.272.272,0,0,1-.135-.035,18.664,18.664,0,0,1-5.348-4.431.279.279,0,1,1,.432-.354,18.1,18.1,0,0,0,5.186,4.3.279.279,0,0,1-.135.523Z" fill="#de7e59"/>
              </g>
              <g id="Group_11512" data-name="Group 11512">
                <path id="Path_15226" data-name="Path 15226" d="M353.937,312.018a.279.279,0,0,1-.266-.364,6.017,6.017,0,0,0,.288-1.771,1.825,1.825,0,0,0-.093-.692.613.613,0,0,0-.376-.378.669.669,0,0,0-.588.2,2.668,2.668,0,0,0-.44.628l-.039.069a2.471,2.471,0,0,1-.654.81.538.538,0,0,1-.4.108.376.376,0,0,1-.249-.156.451.451,0,0,1-.057-.356,3.957,3.957,0,0,1,.334-.913c.074-.159.143-.309.2-.462a1.225,1.225,0,0,0-.04-1.1.778.778,0,0,0-.743-.232,1.358,1.358,0,0,0-.762.5,3.5,3.5,0,0,0-.5.9l-.024.061c-.111.279-.236.6-.5.65a.374.374,0,0,1-.342-.109l-.034-.034-.02-.043c-.056-.117-.041-.247.02-.676a5.541,5.541,0,0,0,.087-1.3,1.993,1.993,0,0,0-.8-1.409.279.279,0,0,1,.307-.467,2.55,2.55,0,0,1,1.045,1.8,3.492,3.492,0,0,1,0,.765,3.115,3.115,0,0,1,.328-.5,1.917,1.917,0,0,1,1.086-.689A1.331,1.331,0,0,1,352,307.3a1.656,1.656,0,0,1,.129,1.639c-.064.175-.142.342-.217.5-.03.066-.06.131-.089.2.042-.066.081-.134.12-.2l.038-.067a3.075,3.075,0,0,1,.543-.758,1.2,1.2,0,0,1,1.112-.338,1.16,1.16,0,0,1,.751.71,2.307,2.307,0,0,1,.134.906,6.532,6.532,0,0,1-.315,1.936A.278.278,0,0,1,353.937,312.018Zm-4.774-2.849Z" fill="#de7e59"/>
              </g>
              <g id="Group_11513" data-name="Group 11513">
                <path id="Path_15227" data-name="Path 15227" d="M366.713,305.368a.277.277,0,0,1-.2-.088l-4.628-4.946a20.5,20.5,0,0,0-2.152-2.087,6.628,6.628,0,0,0-2.573-1.327,1.855,1.855,0,0,0-1.6.222,2.3,2.3,0,0,0-.539,1.143c-.046.163-.092.332-.149.495a3.961,3.961,0,0,1-1.494,1.961.279.279,0,0,1-.315-.461,3.4,3.4,0,0,0,1.282-1.682c.05-.147.093-.3.138-.462a2.749,2.749,0,0,1,.7-1.409,2.294,2.294,0,0,1,2.1-.35,7.157,7.157,0,0,1,2.793,1.433,20.883,20.883,0,0,1,2.213,2.143l4.628,4.946a.279.279,0,0,1-.2.469Z" fill="#de7e59"/>
              </g>
            </g>
            <g id="Group_11517" data-name="Group 11517">
              <path id="Path_15228" data-name="Path 15228" d="M198.43,197.637c-.829,5.656-.268,11.793-3.217,16.69-2.16,3.587-6.05,6.173-7.155,10.212-1.313,4.8,1.787,9.661,2.011,14.628.351,7.795-6.373,14.926-4.96,22.6,1.58,8.582,12.335,12.758,14.807,21.126,1.121,3.794.4,8.105,2.3,11.57,1.5,2.72,4.334,4.388,6.446,6.662,2.71,2.918,4.168,6.77,6.516,9.985s6.288,5.917,10.115,4.82c4.381-1.256,6.028-6.5,6.837-10.986,7.249-40.179,2.534-81.9-9.24-121-2.374-7.883-8.7-12.431-15.213-6.243C202.361,182.757,199.495,190.366,198.43,197.637Z" fill="url(#linear-gradient-29)"/>
              <path id="Path_15229" data-name="Path 15229" d="M254.974,170.824c2,.758,4.051,1.736,5.256,3.5,2.048,3.006,1.054,7.362,3.141,10.342a21.952,21.952,0,0,0,2.97,2.923,12.781,12.781,0,0,1,3.041,13.241,27.851,27.851,0,0,0-1.1,2.969c-.708,2.941.651,5.938,1.89,8.7s2.4,5.9,1.332,8.734c-.691,1.826-2.232,3.234-2.913,5.065-.736,1.981-.462,4.415-1.892,5.972a6.531,6.531,0,0,1-2.075,1.359,18.405,18.405,0,0,1-6.283,1.986,21.755,21.755,0,0,1-4.829-.313l-7.314-1.024a6.608,6.608,0,0,1-2.636-.755,6.073,6.073,0,0,1-2.206-3.486c-3.758-11.72-.975-24.463-2.162-36.714-.411-4.243-1.3-8.447-1.353-12.709-.042-3.428.466-9.97,3.745-12.093,1.557-1.008,4.033-.2,5.692.119A46.806,46.806,0,0,1,254.974,170.824Z" fill="url(#linear-gradient-30)"/>
              <path id="Path_15230" data-name="Path 15230" d="M231.9,204.14c4.061,8.719,4.539,24.483,4.539,24.483s17.436,3.464,17.436,2.747-2.627-10.987-3.224-18.272C250.117,212.56,231.9,204.14,231.9,204.14Z" fill="url(#linear-gradient-31)"/>
              <path id="Path_15231" data-name="Path 15231" d="M238.786,234.014c-8.457-2.458-14.566,4.065-15.752,24.221s-2.54,36.924-1.016,42.006,14.736,43.022,14.736,43.022l9.316-3.219s-9.4-38.448-9.4-45.393,4.728-31.5,6.252-39.8S244.715,235.737,238.786,234.014Z" fill="url(#linear-gradient-32)"/>
              <path id="Path_15232" data-name="Path 15232" d="M223.055,490.07c0,.318-.317,11.052-.317,11.052s9.4,1.207,9.146,0,1.271-11.877,1.271-11.877Z" fill="url(#linear-gradient-33)"/>
              <path id="Path_15233" data-name="Path 15233" d="M286.445,489.689c.2.747,2.985,9.909,2.985,9.909s9.464.762,9.464.254-1.207-12.957-1.207-12.957Z" fill="url(#linear-gradient-34)"/>
              <path id="Path_15234" data-name="Path 15234" d="M217.954,512.952c.351,2.532,2.608,4.194,6.91,4.194,5.23,0,25.849.338,29.774,0,3.688-.311,5.418-2.207,3.938-4.194a4.7,4.7,0,0,0-.338-.39c-2.045-2.116-10.31-5.921-16.116-8.375a58.5,58.5,0,0,1-9.808-5.26h-9.745c-2.119,4.831-4,8.818-4.577,12.285A5.813,5.813,0,0,0,217.954,512.952Z" fill="url(#linear-gradient-35)"/>
              <path id="Path_15235" data-name="Path 15235" d="M217.954,512.952c.351,2.532,2.608,4.194,6.91,4.194,5.23,0,25.849.338,29.774,0,3.688-.311,5.418-2.207,3.938-4.194Z" fill="url(#linear-gradient-36)"/>
              <path id="Path_15236" data-name="Path 15236" d="M284.18,512.952c.352,2.532,2.609,4.194,6.911,4.194,5.23,0,25.848.338,29.774,0,3.687-.311,5.418-2.207,3.938-4.194a4.537,4.537,0,0,0-.339-.39c-2.044-2.116-10.309-5.921-16.116-8.375a58.465,58.465,0,0,1-9.807-5.26H288.8c-2.12,4.831-4,8.818-4.578,12.285A5.847,5.847,0,0,0,284.18,512.952Z" fill="url(#linear-gradient-35)"/>
              <path id="Path_15237" data-name="Path 15237" d="M284.18,512.952c.352,2.532,2.609,4.194,6.911,4.194,5.23,0,25.848.338,29.774,0,3.687-.311,5.418-2.207,3.938-4.194Z" fill="url(#linear-gradient-38)"/>
              <path id="Path_15238" data-name="Path 15238" d="M235.475,224.825c3.523,1.906,17.971,2.16,17.971,2.16,5.494,10.925,14.812,15.159,18.708,25.152,5.838,14.976-9.274,50.306-6.352,63.263H229.3c4.065-12.619-8.13-55.892-5.081-69.825S235.475,224.825,235.475,224.825Z" fill="url(#linear-gradient-39)"/>
              <path id="Path_15239" data-name="Path 15239" d="M231.249,312.859c-8.456,6.644-13.631,17.778-13.465,40.9.043,6.058.76,32.84,1.34,42.175,2.8,44.969,2.725,95.148,2.725,95.148,5.081,1.524,13.973,0,13.973,0L254.392,375.1l30.719,115.4c5.844,0,13.212-2.71,13.212-2.71s-8.131-71.774-11.179-88.542S287.4,341.315,265.8,315.4C259.2,315.4,231.249,312.859,231.249,312.859Z" fill="url(#linear-gradient-40)"/>
              <g id="Group_11515" data-name="Group 11515">
                <path id="Path_15240" data-name="Path 15240" d="M247.436,416.626a.534.534,0,0,1-.087-.008.488.488,0,0,1-.393-.566q.68-3.777,1.337-7.385c3.921-21.6,7.018-38.67,7.56-58.634a.466.466,0,0,1,.5-.475.487.487,0,0,1,.474.5c-.544,20.039-3.648,37.137-7.577,58.782q-.654,3.613-1.335,7.385A.486.486,0,0,1,247.436,416.626Z" fill="#bf6812"/>
              </g>
              <g id="Group_11516" data-name="Group 11516">
                <path id="Path_15241" data-name="Path 15241" d="M268.493,289.557a.464.464,0,0,1-.137-.02.487.487,0,0,1-.33-.6,128.822,128.822,0,0,0,4.072-16.473,42.508,42.508,0,0,0-.382-16.736,31.685,31.685,0,0,0-7.976-14.373.487.487,0,0,1,.7-.677,32.666,32.666,0,0,1,8.222,14.814,43.5,43.5,0,0,1,.4,17.122,129.3,129.3,0,0,1-4.1,16.6A.487.487,0,0,1,268.493,289.557Z" fill="#9c88dc"/>
              </g>
              <path id="Path_15242" data-name="Path 15242" d="M220.536,486.64c-.423,1.6.593,5.043.593,5.043s13.423.8,15.752,0l.847-5.043Z" fill="url(#linear-gradient-41)"/>
              <path id="Path_15243" data-name="Path 15243" d="M282.743,486.126c-.112,1.654,1.537,4.839,1.537,4.839s13.332-1.756,15.467-2.984l-.123-5.111Z" fill="url(#linear-gradient-42)"/>
              <path id="Path_15244" data-name="Path 15244" d="M249.314,242.752c13.752,8.488,40.055,30.757,44.393,32.384,5.42,2.032,46.393,16.215,46.393,16.215s-1.974,6.772-3.414,8.212c-6.436,0-42.682-7.067-49.8-9.9-5.314-2.118-38.492-18.986-51.521-27.98-9.223-6.365-8.355-18.516-2.8-22.108C238.019,236.052,241.749,238.083,249.314,242.752Z" fill="url(#linear-gradient-43)"/>
              <path id="Path_15245" data-name="Path 15245" d="M249.739,174.4c15.128,13.376,12.611,33.888,10.829,38.635-1.351,3.6-3.026,4.678-8.759,2.926s-25.637-10.152-28.822-17.795-5.414-16.879,1.592-23.886S241.334,166.971,249.739,174.4Z" fill="url(#linear-gradient-44)"/>
              <path id="Path_15246" data-name="Path 15246" d="M252.418,168.034c-5.647-3.188-14.018-4.553-20.514-4.337-6.282.209-7.905,2.393-9.287,3.388-2.283,1.645-3.245,4.7-5.577,6.276a15.087,15.087,0,0,1-4.726,1.666A44.305,44.305,0,0,0,208.7,183.6a45.81,45.81,0,0,0-1.746,17.506,49.911,49.911,0,0,0,5.074,16.82c4.188,8.639,7.019,18.179,12.505,26.031,1.131-3.482,5.8-8.616,8.051-11.5a29.947,29.947,0,0,0,2.85-3.87c3.174-5.788.141-12.814-1-19.315a11.9,11.9,0,0,1,.048-5.442c.947-3.171,3.968-5.446,4.716-8.67.453-1.951.08-4.234,1.38-5.759,1.9-2.232,5.485.533,8.4.175,2.694-.331,9.4-1.831,10.21-5.653C260.534,177.542,257.088,170.67,252.418,168.034Z" fill="url(#linear-gradient-45)"/>
              <path id="Path_15247" data-name="Path 15247" d="M261.319,204.7c-.258,1.669-.516,3.125-2.435,3.444s-4.943-1.882-5.423-3.444C255.011,203.6,260.839,204.242,261.319,204.7Z" fill="#fff"/>
            </g>
          </g>
        </g>
      </g>
    </g>
    <g id="Group_11524" data-name="Group 11524">
      <g id="Group_11522" data-name="Group 11522">
        <circle id="Ellipse_240" data-name="Ellipse 240" cx="23.089" cy="23.089" r="23.089" transform="translate(128.669 238.008)" fill="url(#linear-gradient-10)"/>
        <circle id="Ellipse_241" data-name="Ellipse 241" cx="19.414" cy="19.414" r="19.414" transform="translate(129.485 277.15) rotate(-80.783)" fill="url(#linear-gradient-11)"/>
        <text id="_2" data-name="$" transform="translate(142.563 271.607)" fill="#fdc432" font-size="29.301" font-family="Montserrat-Bold, Montserrat" font-weight="700"><tspan x="0" y="0">$</tspan></text>
      </g>
      <g id="Group_11523" data-name="Group 11523">
        <circle id="Ellipse_242" data-name="Ellipse 242" cx="23.461" cy="23.461" r="23.461" transform="translate(531.366 176.627)" fill="url(#linear-gradient-10)"/>
        <circle id="Ellipse_243" data-name="Ellipse 243" cx="19.727" cy="19.727" r="19.727" transform="translate(535.1 180.362)" fill="url(#linear-gradient-11)"/>
        <text id="_3" data-name="€" transform="translate(541.336 210.05)" fill="#fdc432" font-size="29.772" font-family="Montserrat-Bold, Montserrat" font-weight="700"><tspan x="0" y="0">€</tspan></text>
      </g>
    </g>
  </g>
</svg>
