<svg xmlns="http://www.w3.org/2000/svg" width="70" height="70" viewBox="0 0 70 70">
  <g id="Group_7872" data-name="Group 7872" transform="translate(-562.999 -1075)">
    <g id="Group_134" data-name="Group 134" transform="translate(562.502 1075)">
      <circle id="Ellipse_63" data-name="Ellipse 63" cx="35" cy="35" r="35" transform="translate(0.497)" fill="#e8f5e7"/>
    </g>
    <path id="receipt_long_FILL0_wght300_GRAD0_opsz24" d="M145.147-813.588a4.968,4.968,0,0,1-3.652-1.495A4.957,4.957,0,0,1,140-818.726v-5.156h6.176V-852.31l2.851,2.455,2.89-2.455,2.89,2.455,2.891-2.455,2.89,2.455,2.89-2.455,2.891,2.455,2.89-2.455,2.89,2.455L175-852.31v33.575a4.968,4.968,0,0,1-1.495,3.652,4.968,4.968,0,0,1-3.652,1.495Zm24.706-3.088a1.992,1.992,0,0,0,1.467-.592,1.992,1.992,0,0,0,.592-1.467v-28.823H149.265v23.676h18.529v5.147a1.992,1.992,0,0,0,.592,1.467A1.992,1.992,0,0,0,169.853-816.677Zm-18.134-23.162v-3.088H163.4v3.088Zm0,6.176v-3.088H163.4v3.088Zm15.956-5.9a1.756,1.756,0,0,1-1.289-.532,1.756,1.756,0,0,1-.532-1.289,1.756,1.756,0,0,1,.532-1.289,1.757,1.757,0,0,1,1.289-.532,1.756,1.756,0,0,1,1.289.532,1.755,1.755,0,0,1,.533,1.289,1.755,1.755,0,0,1-.533,1.289A1.756,1.756,0,0,1,167.675-839.561Zm0,6.177a1.757,1.757,0,0,1-1.289-.532,1.757,1.757,0,0,1-.532-1.289,1.756,1.756,0,0,1,.532-1.289,1.757,1.757,0,0,1,1.289-.532,1.757,1.757,0,0,1,1.289.532,1.756,1.756,0,0,1,.533,1.289,1.756,1.756,0,0,1-.533,1.289A1.756,1.756,0,0,1,167.675-833.385Zm-22.528,16.708h19.559v-4.117H143.088v2.059a1.992,1.992,0,0,0,.592,1.467A1.992,1.992,0,0,0,145.147-816.677Zm-2.059,0v0Z" transform="translate(441 1943.309)" fill="#8cca85"/>
  </g>
</svg>
