<svg xmlns="http://www.w3.org/2000/svg" width="70" height="70" viewBox="0 0 70 70">
  <g id="Group_7871" data-name="Group 7871" transform="translate(-0.492)">
    <circle id="Ellipse_61" data-name="Ellipse 61" cx="35" cy="35" r="35" transform="translate(0.492)" fill="rgba(140,202,133,0.2)"/>
    <g id="timer_black_24dp" transform="translate(14.492 14)">
      <path id="Path_2006" data-name="Path 2006" d="M0,0H42V42H0Z" fill="none"/>
      <path id="Path_2007" data-name="Path 2007" d="M24.033,1.01H13.552v3.5H24.033ZM17.046,23.743H20.54V13.251H17.046ZM31.074,12.167l2.481-2.483a19.31,19.31,0,0,0-2.463-2.466L28.61,9.7a15.74,15.74,0,1,0,2.463,2.466ZM18.793,34.235A12.241,12.241,0,1,1,31.021,21.994,12.226,12.226,0,0,1,18.793,34.235Z" transform="translate(2.331 0.767)" fill="#8cca85"/>
    </g>
  </g>
</svg>
