<svg xmlns="http://www.w3.org/2000/svg" width="70" height="70" viewBox="0 0 70 70">
  <g id="Group_7877" data-name="Group 7877" transform="translate(-1045 -1075)">
    <g id="Group_133" data-name="Group 133" transform="translate(1044.508 1075)">
      <circle id="Ellipse_61" data-name="Ellipse 61" cx="35" cy="35" r="35" transform="translate(0.492)" fill="rgba(245,193,67,0.2)"/>
    </g>
    <path id="task_FILL0_wght300_GRAD0_opsz24" d="M194.19-827.148l11.668-11.669-2.386-2.386-9.316,9.316-4.662-4.662-2.352,2.352ZM183.977-818.2a3.839,3.839,0,0,1-2.822-1.155A3.84,3.84,0,0,1,180-822.177v-33.846a3.839,3.839,0,0,1,1.155-2.822A3.839,3.839,0,0,1,183.977-860H201.45L213-848.45v26.273a3.839,3.839,0,0,1-1.155,2.822,3.839,3.839,0,0,1-2.822,1.155ZM199.8-846.8v-9.9H183.977a.646.646,0,0,0-.465.212.646.646,0,0,0-.212.465v33.846a.646.646,0,0,0,.212.465.646.646,0,0,0,.465.212h25.046a.646.646,0,0,0,.465-.212.646.646,0,0,0,.212-.465V-846.8Zm-16.5-9.9v0Z" transform="translate(884 1949)" fill="#f5c143"/>
  </g>
</svg>
