<svg xmlns="http://www.w3.org/2000/svg" width="70" height="70" viewBox="0 0 70 70">
  <g id="Group_10624" data-name="Group 10624" transform="translate(-1047 -1032)">
    <circle id="Ellipse_61" data-name="Ellipse 61" cx="35" cy="35" r="35" transform="translate(1047 1032)" fill="rgba(245,193,67,0.2)"/>
    <path id="Path_13991" data-name="Path 13991" d="M176.326-706.374a6,6,0,0,1-4.415-1.786,6.208,6.208,0,0,1-1.831-4.46,6.189,6.189,0,0,1,1.808-4.478,6.008,6.008,0,0,1,4.449-1.8,6.056,6.056,0,0,1,4.46,1.8,6.041,6.041,0,0,1,1.8,4.449,6.1,6.1,0,0,1-1.8,4.466A6.038,6.038,0,0,1,176.326-706.374ZM170.675-723.6V-736.15h2.45V-723.6Zm5.651,15.022a3.764,3.764,0,0,0,2.819-1.165,4.018,4.018,0,0,0,1.129-2.912,4.031,4.031,0,0,0-1.111-2.906,3.772,3.772,0,0,0-2.846-1.158,3.764,3.764,0,0,0-2.81,1.158,4,4,0,0,0-1.129,2.906,4.018,4.018,0,0,0,1.129,2.912A3.764,3.764,0,0,0,176.326-708.578Zm-.438-15.022V-736.15h2.763l5.03,8.432-.072-1.806v-6.626h2.414V-723.6h-2.517l-5.334-8.911.107,1.806v7.1ZM189.8-706.374a4.507,4.507,0,0,1-3.466-1.435,5.248,5.248,0,0,1-1.33-3.715V-718.9h2.334v7.506a2.864,2.864,0,0,0,.713,1.986,2.249,2.249,0,0,0,1.739.794,2.172,2.172,0,0,0,1.713-.794,2.93,2.93,0,0,0,.686-1.986V-718.9h2.356v7.377a5.247,5.247,0,0,1-1.33,3.715A4.447,4.447,0,0,1,189.8-706.374Zm10.53,0v-10.31h-3.406V-718.9h9.156v2.217H202.69v10.31Z" transform="translate(893.92 1788.15)" fill="#f5c143"/>
  </g>
</svg>
