<svg xmlns="http://www.w3.org/2000/svg" width="70" height="70" viewBox="0 0 70 70">
  <g id="Group_10623" data-name="Group 10623" transform="translate(-805 -1032)">
    <g id="Group_134" data-name="Group 134" transform="translate(804.503 1032)">
      <circle id="Ellipse_63" data-name="Ellipse 63" cx="35" cy="35" r="35" transform="translate(0.497)" fill="rgba(220,104,142,0.2)"/>
    </g>
    <path id="Path_13990" data-name="Path 13990" d="M222.754-868.01a2.654,2.654,0,0,1-1.947-.807,2.654,2.654,0,0,1-.807-1.947v-26.482a2.658,2.658,0,0,1,.8-1.954,2.658,2.658,0,0,1,1.954-.8h14.354a2.652,2.652,0,0,1,1.946.807,2.653,2.653,0,0,1,.807,1.947v4.81a2.012,2.012,0,0,1,1.046.655,1.7,1.7,0,0,1,.419,1.141v2.871a1.705,1.705,0,0,1-.419,1.141,2.016,2.016,0,0,1-1.046.655v15.21a2.653,2.653,0,0,1-.807,1.947,2.653,2.653,0,0,1-1.946.807Zm0-2.285h14.354a.457.457,0,0,0,.337-.132.456.456,0,0,0,.132-.337v-26.482a.456.456,0,0,0-.132-.337.457.457,0,0,0-.337-.132H222.754a.456.456,0,0,0-.337.132.456.456,0,0,0-.132.337v26.482a.456.456,0,0,0,.132.337A.456.456,0,0,0,222.754-870.3Zm-.469,0v0Zm4.482-2.109h6.328a1.106,1.106,0,0,0,.814-.328,1.106,1.106,0,0,0,.328-.815,1.106,1.106,0,0,0-.328-.814,1.105,1.105,0,0,0-.814-.328h-6.328a1.105,1.105,0,0,0-.814.328,1.106,1.106,0,0,0-.328.814,1.106,1.106,0,0,0,.328.815A1.106,1.106,0,0,0,226.767-872.4Z" transform="translate(609 1951)" fill="#dc688e"/>
  </g>
</svg>
