<svg xmlns="http://www.w3.org/2000/svg" xmlns:xlink="http://www.w3.org/1999/xlink" width="610" height="125" viewBox="0 0 610 125">
  <defs>
    <clipPath id="clip-path">
      <rect id="Rectangle_6203" data-name="Rectangle 6203" width="610" height="125" transform="translate(1118 123)" fill="#fff"/>
    </clipPath>
  </defs>
  <g id="Mask_Group_40" data-name="Mask Group 40" transform="translate(-1118 -123)" clip-path="url(#clip-path)">
    <path id="Path_15573" data-name="Path 15573" d="M1223.319,422.1V422h-18.987V350.663a6.747,6.747,0,0,1,10.928-5.274c1.151.959,1.922,1.534,1.922,1.534v49.763h6.136V325.158h5.08a10.106,10.106,0,0,1,10.161,10.164v51.489l4.219,4.219V348.362h10.838v58.681l2.59,2.945V349.894a6.213,6.213,0,0,1,10.161-4.89.123.123,0,0,1,.095.047.133.133,0,0,0,.1.047,6.084,6.084,0,0,1,2.4,4.89v46.7h7.287V336.089h13.807v60.6h9.683V361.594h20.521v33.56h5.564V351.334l14.957-14.958-.478,85.72s-21.766.767-21.766,0Zm120.331-86.775V422.1h21.288v.288H1417.2V422.1h4.313c0,.608,13.689.252,19.356.078,3.409.186,21.368.042,29.952-.078h10.81V366.676c0-6.233-6.52-6.52-6.52-6.52-5.274,0-5.847,5.849-5.847,5.849v27.423h-5.848V371.566h-4.8V351.718H1440.3v11.026L1428.8,374.25v20.9h-3.835V366.676c0-6.233-6.52-6.52-6.52-6.52-5.275,0-5.848,5.849-5.848,5.849v30.682h-6.331V383.072a6.084,6.084,0,0,0-2.4-4.89.121.121,0,0,1-.094-.047.134.134,0,0,0-.1-.047,6.272,6.272,0,0,0-10.26,4.89V408.1h-18.537l-.923-1.055V358.526h-10.838v32.5l-4.219-27.135V345.485a10.108,10.108,0,0,0-10.161-10.164ZM1063.092,422.1c0,.606,13.6.254,19.3.08,3.5.183,21.416.039,29.957-.08h52.381l-.08-.095h14.37v.095h8.821V422h14V350.183h-6.326c-5.18,0-9.4,37.3-9.4,42.477v20.807h-5.175v-16.78h-7.959V380s-.767-.575-1.917-1.534a6.75,6.75,0,0,0-10.933,5.274v33.118l-8.627-9.818v-25.6h-10.838v9.589l-4.219-4.219V368.4a10.105,10.105,0,0,0-10.161-10.164H1121.2v3.678a8.253,8.253,0,0,0-4.5-1.76c-5.275,0-5.852,5.849-5.852,5.849v27.423H1104.9V371.566h-4.8V351.718h-18.315V362.84l-11.406,11.411v20.9h-3.835V366.676c0-6.233-6.525-6.52-6.525-6.52-5.27,0-5.847,5.849-5.847,5.849v30.682h-6.326V383.072a6.414,6.414,0,0,0-2.4-4.986l-.189-.095A6.329,6.329,0,0,0,1035,382.976v35a4.094,4.094,0,0,0,4.124,4.123h23.968Zm532.447-38.833v11.89h6.52v-20.9l11.605-11.6v-4.411h5.08A10.1,10.1,0,0,1,1628.9,368.4v18.408l4.219,4.219v-9.589h10.838v25.6L1657.19,422.1h-40.653c-.152.006-21.766.765-21.766,0V422h-.094v.384h-52.259V422.1h-1.15V422H1526.9l.085.095h-43.532v-63.86h5.08A10.109,10.109,0,0,1,1498.7,368.4v18.409l4.219,4.219v-9.589h10.833v25.6l8.632,9.818V383.743a6.747,6.747,0,0,1,10.928-5.274c1.151.959,1.918,1.534,1.918,1.534v16.684h7.959v1.918h36.629V392.66a9.412,9.412,0,0,1,9.4-9.4Z" transform="translate(83 -155.438)" fill="#ececec" fill-rule="evenodd"/>
    <g id="Group_11307" data-name="Group 11307" transform="translate(-4232 509.939)">
      <path id="Path_15571" data-name="Path 15571" d="M1146.5,227.493a.281.281,0,0,0,.248.311l2.512.292a.281.281,0,1,0,.068-.559l-2.238-.259.264-2.234a.283.283,0,0,0-.562-.065Zm.456.253c.141-.112.281-.225.427-.337l-.348-.442c-.141.112-.287.225-.428.337Zm1.293-1.009c.293-.225.585-.45.883-.675l-.337-.45c-.3.225-.6.45-.888.678Zm1.788-1.353c.3-.225.613-.45.922-.68l-.332-.454-.927.682Zm1.849-1.349.894-.636-.326-.459-.894.638Zm1.8-1.272c.3-.212.613-.424.922-.637l-.314-.464q-.472.32-.928.64Zm1.861-1.274c.321-.213.636-.425.956-.637l-.309-.469c-.32.213-.641.427-.955.64Zm1.894-1.255.928-.6-.3-.473c-.309.2-.624.4-.928.6Zm1.866-1.2c.315-.2.635-.4.956-.6l-.3-.477c-.321.2-.641.4-.956.6Zm1.917-1.2.978-.6-.293-.481-.978.6Zm1.945-1.177c.315-.188.63-.376.95-.562l-.287-.484c-.321.188-.635.377-.956.566Zm1.911-1.124c.321-.187.646-.374.973-.562l-.281-.487c-.326.187-.652.375-.972.562Zm1.956-1.121q.5-.281,1-.558l-.276-.491-1,.562Zm1.99-1.11c.326-.177.647-.353.973-.529l-.269-.494c-.327.176-.647.354-.973.531Zm1.951-1.057c.332-.175.658-.351.99-.525l-.258-.5-1,.527Zm1.99-1.048c.337-.174.669-.347,1.007-.521l-.253-.5c-.343.174-.675.347-1.013.522Zm2.024-1.038,1.006-.506-.252-.506c-.338.169-.67.337-1.007.506Zm2-1c.332-.164.668-.327,1-.49l-.242-.506c-.337.164-.675.327-1.006.491Zm2.012-.976c.343-.161.68-.323,1.023-.483l-.242-.506c-.343.161-.68.323-1.023.485Zm2.046-.964c.348-.159.691-.318,1.034-.477l-.231-.512c-.349.159-.691.319-1.04.478Zm2.057-.94c.337-.152.675-.3,1.017-.455l-.231-.514c-.342.151-.68.3-1.017.456Zm2.04-.906c.338-.15.686-.3,1.029-.45l-.225-.516-1.028.45Zm2.064-.892,1.045-.44-.219-.519-1.046.442Zm2.091-.876,1.045-.427-.214-.521-1.045.427Zm2.074-.843,1.04-.413-.2-.523-1.045.414Zm2.085-.821c.348-.135.7-.27,1.052-.4l-.2-.525c-.354.134-.7.269-1.057.4Zm2.108-.8q.531-.2,1.063-.393l-.191-.527c-.36.131-.714.263-1.068.4Zm2.13-.787,1.045-.377-.185-.53c-.354.125-.7.251-1.052.378Zm2.1-.749c.349-.124.7-.246,1.057-.368l-.179-.531q-.54.183-1.063.369Zm2.12-.731c.359-.12.714-.239,1.073-.358l-.179-.533c-.36.119-.714.239-1.074.359Zm2.147-.712,1.08-.348-.174-.536-1.079.35Zm2.147-.687c.354-.112.708-.221,1.068-.331l-.169-.537c-.354.11-.714.221-1.068.332Zm2.136-.658,1.079-.321-.163-.539q-.54.159-1.079.322Zm2.158-.637c.36-.1.72-.208,1.085-.31l-.151-.541c-.366.1-.725.206-1.091.311Zm2.176-.618c.359-.1.725-.2,1.09-.3l-.146-.543-1.1.3Zm2.17-.588c.359-.1.719-.19,1.085-.284l-.146-.544-1.085.284Zm2.169-.562c.36-.092.725-.182,1.091-.272l-.135-.546q-.549.135-1.1.273Zm2.181-.538c.366-.088.731-.175,1.1-.26l-.13-.547c-.366.086-.736.173-1.1.261Zm2.2-.515,1.1-.247-.119-.549c-.371.082-.736.164-1.107.248Zm2.192-.486q.548-.118,1.1-.233l-.118-.55-1.1.233Zm2.192-.459,1.1-.22-.107-.551c-.371.073-.736.146-1.107.221Zm2.209-.435c.371-.07.736-.139,1.108-.207l-.1-.553-1.113.208Zm2.22-.409,1.107-.194-.09-.554c-.376.063-.748.128-1.118.194Zm2.214-.379c.366-.061.737-.121,1.108-.179l-.09-.555c-.371.059-.742.119-1.108.18Zm2.215-.352,1.113-.166-.085-.556q-.557.081-1.113.166Zm2.226-.325c.371-.052.742-.1,1.119-.152l-.074-.558c-.377.05-.747.1-1.124.153Zm2.237-.3c.371-.047.741-.093,1.118-.138l-.068-.558c-.376.045-.747.091-1.124.138Zm2.231-.268q.557-.063,1.113-.122l-.062-.559-1.119.123Zm2.232-.238c.371-.038.742-.074,1.118-.108l-.056-.559c-.371.035-.748.071-1.118.108Zm2.237-.209c.377-.033.748-.064,1.125-.094l-.044-.562q-.565.044-1.13.094Zm2.249-.18c.371-.027.748-.056,1.125-.078l-.04-.562c-.376.025-.753.051-1.125.079Zm2.243-.148c.371-.022.742-.043,1.118-.063l-.028-.562c-.377.02-.754.041-1.125.063Zm2.238-.118c.376-.017.748-.033,1.124-.048l-.022-.562c-.376.015-.753.03-1.124.048Zm2.248-.087c.377-.012.748-.023,1.125-.032l-.011-.562q-.565.014-1.13.032Zm2.254-.056c.377-.007.748-.012,1.125-.016l-.006-.562q-.565.006-1.13.016Zm2.249-.024h1.118v-.562h-1.124Zm2.243.008c.371,0,.748.01,1.124.016l.005-.562c-.377-.007-.748-.012-1.125-.016Zm2.248.041c.371.01.748.021,1.125.033l.017-.562q-.563-.019-1.13-.033Zm2.249.074q.561.022,1.13.049l.022-.562q-.562-.028-1.13-.05Zm2.248.107c.371.021.743.043,1.119.066l.034-.562c-.377-.023-.748-.046-1.124-.066Zm2.238.141c.371.026.748.056,1.119.083l.045-.562c-.377-.029-.748-.056-1.125-.083Zm2.237.175c.376.032.748.065,1.124.1l.051-.562c-.377-.035-.748-.069-1.124-.1Zm2.243.21c.377.038.747.077,1.124.118l.062-.559q-.562-.061-1.13-.119Zm2.237.245q.556.065,1.113.134l.073-.558c-.377-.047-.748-.092-1.119-.135Zm2.226.278q.557.074,1.113.153l.079-.557c-.371-.052-.748-.1-1.118-.153Zm2.226.314,1.107.169.09-.555-1.118-.169Zm2.22.35q.556.092,1.113.189l.1-.554q-.557-.1-1.113-.19Zm2.225.387q.549.1,1.1.205l.106-.553c-.371-.07-.736-.139-1.107-.206Zm2.2.419,1.1.225.112-.551c-.365-.076-.736-.151-1.1-.225Zm2.193.456c.371.079.736.16,1.1.242l.124-.549c-.371-.083-.736-.164-1.1-.243Zm2.2.494q.548.128,1.1.261l.135-.546c-.366-.089-.737-.176-1.1-.263Zm2.2.532c.359.091.719.183,1.085.278l.14-.544-1.09-.281Zm2.164.562q.54.146,1.08.3l.151-.541c-.365-.1-.725-.2-1.085-.3Zm2.158.6q.54.155,1.079.315l.158-.539c-.359-.107-.72-.212-1.085-.316Zm2.153.639q.539.165,1.079.337l.169-.536-1.079-.337Zm2.158.678c.354.116.714.234,1.068.354l.179-.534q-.539-.179-1.079-.355Zm2.125.711c.354.121.7.243,1.057.367l.186-.53c-.354-.125-.7-.247-1.057-.369Zm2.108.744c.354.127.7.256,1.057.387l.2-.527q-.531-.2-1.062-.388Zm2.108.783c.349.134.7.27,1.051.407l.2-.523c-.348-.138-.7-.274-1.051-.409Zm2.1.823q.523.211,1.045.427l.214-.52c-.348-.144-.7-.287-1.052-.428Zm2.085.86c.343.144.681.289,1.024.437l.224-.516q-.515-.222-1.028-.439Zm2.047.884c.343.151.68.3,1.023.456l.231-.512-1.023-.459Zm2.041.924c.343.157.68.316,1.023.477l.236-.506c-.338-.161-.68-.321-1.023-.479Zm2.041.964q.506.246,1.012.5l.252-.506c-.342-.169-.68-.337-1.022-.5Zm2.029,1c.332.169.669.337,1,.512l.259-.5c-.337-.173-.669-.345-1.006-.514Zm1.984,1.025c.332.173.658.347.984.524l.27-.5c-.331-.177-.658-.352-.989-.526Zm1.968,1.057c.326.179.658.36.984.543l.27-.49c-.326-.184-.652-.365-.984-.546Zm1.962,1.1.978.562.281-.486c-.326-.191-.652-.379-.983-.566Zm1.951,1.137q.489.289.978.584l.287-.481q-.49-.3-.978-.586Zm1.939,1.173q.473.29.945.585l.3-.476q-.472-.3-.944-.588Zm1.884,1.18c.314.2.623.4.939.6l.3-.471c-.309-.2-.624-.406-.939-.607Zm1.872,1.22c.314.206.624.414.938.625l.315-.466-.939-.627Zm1.866,1.259c.315.213.624.428.933.644l.32-.46c-.309-.217-.618-.433-.933-.647Zm1.861,1.3c.309.22.619.442.927.664l.331-.455-.933-.667Zm1.827,1.32c.3.219.6.439.888.66l.337-.45q-.447-.334-.894-.663Zm1.782,1.331c.292.225.59.45.882.679l.343-.445c-.292-.229-.59-.456-.888-.682Zm1.771,1.368c.292.232.584.464.882.7l.349-.44c-.3-.236-.591-.469-.888-.7Zm1.759,1.405q.438.357.877.718l.359-.434c-.292-.242-.59-.482-.883-.721Zm1.754,1.445q.439.366.877.737l.36-.428q-.439-.373-.878-.74Zm1.715,1.456c.281.241.557.483.837.726l.371-.423q-.422-.366-.843-.731Zm1.669,1.462c.276.247.557.495.832.745l.377-.417c-.281-.251-.557-.5-.838-.748Zm1.659,1.5q.413.379.827.763l.382-.411q-.413-.386-.826-.766Zm1.652,1.536c.276.259.551.52.821.782l.394-.406-.826-.787Zm1.642,1.574c.276.265.545.532.821.8l.393-.4c-.275-.269-.545-.537-.821-.8Zm1.608,1.585c.258.26.522.521.781.784l.4-.393c-.258-.264-.522-.526-.781-.787Zm1.557,1.574c.259.265.517.533.77.8l.411-.389c-.259-.269-.517-.537-.781-.8Zm1.546,1.612c.252.272.511.544.764.818l.416-.383q-.387-.413-.776-.822Zm1.535,1.647c.253.278.512.556.764.837l.417-.378c-.253-.281-.512-.562-.77-.839Zm1.529,1.682q.38.425.759.854l.422-.372c-.253-.287-.512-.573-.765-.857Zm1.512,1.715c.242.276.478.553.72.831l.427-.366q-.362-.419-.725-.834Zm1.439,1.671c.236.281.478.562.714.848l.432-.361c-.241-.285-.477-.568-.719-.85Zm1.428,1.7q.353.43.708.864l.438-.355c-.242-.291-.477-.58-.713-.867Zm1.417,1.737q.354.438.708.881l.438-.35-.708-.884Zm1.411,1.771c.236.3.466.6.7.9l.444-.345c-.236-.3-.472-.6-.7-.9Zm1.4,1.8c.236.3.467.609.7.915l.45-.337c-.231-.307-.467-.613-.7-.917Zm1.36,1.8q.33.44.658.884l.455-.334c-.219-.3-.444-.592-.663-.887Zm1.316,1.776c.214.3.433.6.652.9l.455-.328q-.329-.454-.658-.9Zm1.3,1.808c.219.3.433.609.652.916l.455-.323c-.213-.307-.432-.614-.646-.918Zm1.3,1.839q.321.464.641.931l.462-.318q-.321-.469-.641-.934Zm1.281,1.87q.321.471.641.947l.467-.313q-.321-.477-.641-.949Zm1.276,1.9c.208.318.422.638.63.956l.472-.308c-.214-.322-.422-.642-.635-.961Zm1.231,1.878c.2.307.393.618.6.926l.473-.3c-.2-.311-.4-.618-.6-.929Zm1.187,1.86q.3.468.59.94l.478-.3q-.3-.473-.59-.943Zm1.18,1.889q.295.475.59.956l.478-.293q-.295-.481-.59-.956Zm1.175,1.918c.191.322.388.645.58.97l.483-.288c-.191-.326-.388-.65-.585-.973Zm1.163,1.947q.287.49.573.984l.49-.281c-.191-.33-.388-.659-.58-.987Zm1.153,1.976q.286.5.573,1l.489-.281q-.287-.5-.573-1Zm1.124,1.97c.18.318.359.637.534.956l.495-.274-.54-.96Zm1.074,1.922c.174.323.354.646.534.971l.489-.269c-.174-.326-.354-.65-.534-.974Zm1.062,1.949c.174.327.354.655.528.985l.495-.265c-.174-.331-.354-.659-.528-.987Zm1.056,1.976q.261.5.523,1l.5-.26c-.174-.337-.354-.668-.528-1Zm1.046,2c.174.337.348.674.517,1.012l.5-.256c-.169-.337-.344-.675-.518-1.012Zm1.034,2.03c.174.341.349.682.517,1.025l.506-.251c-.174-.343-.349-.686-.517-1.028Zm1.029,2.057c.169.337.337.674.5,1.012l.506-.247c-.169-.337-.332-.675-.5-1.012Zm.978,2c.163.329.321.66.478.992l.511-.243c-.163-.333-.321-.664-.484-.994Zm.956,1.99q.236.5.473,1l.511-.239c-.158-.337-.314-.674-.478-1.007Zm.944,2.015q.236.506.473,1.016l.511-.234q-.236-.511-.472-1.019Zm.939,2.039c.152.342.309.685.467,1.029l.511-.23c-.157-.345-.309-.689-.466-1.031Zm.928,2.065c.151.346.309.694.461,1.042l.517-.225c-.158-.349-.309-.7-.467-1.044Zm.922,2.09q.228.525.456,1.054l.517-.225c-.152-.353-.309-.7-.461-1.056Zm.911,2.115c.073.177.152.354.225.532l.517-.219c-.073-.178-.152-.356-.225-.533Z" transform="translate(4328.266 -559.291)" fill="#786ce6" opacity="0.4"/>
      <path id="Path_15572" data-name="Path 15572" d="M1552.775,245.475a.28.28,0,0,0-.275.284l.033,2.53a.281.281,0,0,0,.281.278.285.285,0,0,0,.281-.285l-.028-2.249,2.249-.029a.281.281,0,1,0-.011-.562Zm-.191.482q.2.2.405.394l.393-.4-.405-.394Zm1.2,1.18c.263.259.526.517.793.775l.393-.4c-.263-.258-.523-.516-.792-.776Zm1.591,1.565c.264.263.528.525.787.787l.4-.4q-.393-.393-.793-.787Zm1.574,1.574c.264.266.529.531.787.794l.4-.394c-.259-.264-.522-.53-.787-.8Zm1.563,1.582c.264.269.528.537.786.8l.4-.394c-.259-.267-.517-.536-.781-.8Zm1.557,1.6c.259.27.517.538.77.806l.41-.388-.776-.814Zm1.54,1.615.759.811.411-.383q-.38-.405-.759-.813Zm1.518,1.63c.253.273.5.546.748.818l.416-.378c-.247-.273-.495-.546-.747-.821Zm1.5,1.65c.248.277.495.553.736.83l.422-.372c-.242-.277-.49-.555-.737-.832Zm1.474,1.671c.241.281.483.562.719.843l.433-.364c-.242-.281-.483-.562-.73-.846Zm1.438,1.7q.362.428.708.857l.439-.356c-.236-.287-.472-.574-.714-.861Zm1.411,1.722.691.871.438-.347c-.224-.292-.46-.585-.691-.876Zm1.372,1.75.674.887.45-.337c-.224-.3-.45-.6-.68-.892Zm1.331,1.78c.219.3.439.6.653.9l.46-.327q-.329-.455-.657-.907Zm1.293,1.811c.214.3.422.61.63.917l.466-.315c-.214-.309-.421-.618-.635-.923Zm1.249,1.843c.2.309.4.618.6.933l.473-.3q-.3-.471-.607-.939Zm1.2,1.874c.191.314.388.63.579.947l.484-.291c-.2-.319-.388-.637-.585-.956Zm1.147,1.9q.278.478.557.961l.489-.278c-.186-.325-.371-.647-.562-.968Zm1.1,1.934c.18.322.354.647.529.974l.494-.265c-.175-.329-.354-.656-.534-.981Zm1.051,1.961q.254.49.506.986l.5-.253q-.253-.5-.506-.992Zm1,1.987c.162.33.32.662.477,1l.511-.241c-.163-.337-.32-.671-.482-1Zm.955,2.008q.228.5.455,1.012l.511-.229c-.152-.341-.3-.68-.46-1.015Zm.9,2.029c.147.337.292.678.439,1.023l.517-.218q-.219-.518-.439-1.029Zm.866,2.048c.139.343.275.689.416,1.038l.523-.208q-.21-.525-.422-1.043Zm.82,2.067c.135.346.27.695.4,1.047l.528-.2q-.2-.529-.4-1.051Zm.787,2.084c.124.346.253.7.377,1.048l.528-.189c-.123-.354-.253-.7-.376-1.052Zm.747,2.1c.124.346.242.7.36,1.047l.534-.181c-.118-.353-.242-.7-.36-1.051Zm.72,2.111c.113.347.231.7.343,1.051l.534-.173c-.113-.354-.231-.706-.344-1.055Zm.68,2.112q.169.531.337,1.071l.534-.166c-.107-.362-.219-.72-.331-1.075Zm.657,2.127q.16.532.321,1.073l.54-.16q-.16-.542-.321-1.075Zm.635,2.143q.151.528.3,1.064l.54-.153q-.151-.537-.3-1.068Zm.607,2.145c.1.355.2.712.3,1.071l.54-.148c-.095-.361-.2-.719-.292-1.074Zm.584,2.142q.143.539.287,1.087l.545-.143q-.143-.549-.286-1.089Zm.568,2.161c.09.355.186.713.275,1.074l.545-.138c-.09-.361-.185-.72-.275-1.076Zm.551,2.164q.135.536.27,1.08l.545-.134q-.135-.545-.27-1.082Zm.529,2.155c.09.361.174.724.264,1.09l.545-.13c-.089-.367-.174-.731-.264-1.092Zm.522,2.18c.085.356.164.714.248,1.075l.551-.127q-.126-.541-.253-1.076Zm.5,2.164c.084.365.168.731.248,1.1l.55-.124q-.126-.555-.252-1.105Zm.489,2.175c.078.359.163.721.241,1.085l.551-.121c-.084-.365-.163-.727-.242-1.087Zm.484,2.184q.056.277.118.555l.551-.119c-.04-.185-.079-.371-.124-.555Z" transform="translate(4150.484 -584.3)" fill="#786ce6" opacity="0.4"/>
      <path id="Path_15574" data-name="Path 15574" d="M1523.6,246.976s-.95-8.286-.54-8.693,2.85-4.89,3.12-4.754c.41.136.545,1.223.545,2.038s-1.085,7.2-1.085,7.2Z" transform="translate(4163.421 -579.082)" fill="#f8c3b0"/>
      <path id="Path_15575" data-name="Path 15575" d="M1431.737,447.694s17.932-124.423-1.63-157.7c-3.529-5.976-35.722-63.027-38.982-54.062-3.126,8.965,5.025,211.765,5.025,211.765h8.832s7.875-113.693,10.866-118.447c2.99-4.89,7.2,118.447,7.2,118.447Z" transform="translate(4221.461 -579.717)" fill="#1d1934"/>
      <path id="Path_15576" data-name="Path 15576" d="M1441.848,310.445s-34.227,2.989-51.754,0c0,0-2.17-67.1.68-78.921,1.765-7.606,44.828-11,46.863,2.989C1439.4,246.2,1441.848,310.445,1441.848,310.445Z" transform="translate(4221.945 -575.312)" fill="#4fbd88"/>
      <path id="Path_15577" data-name="Path 15577" d="M1454.478,179.171c-2.445,5.433-7.2,19.016-18.471,16.707s-1.5-28.118,5.571-29.612C1447.143,165.18,1457.6,172.243,1454.478,179.171Z" transform="translate(4203.745 -549.581)" fill="#f8c3b0"/>
      <path id="Path_15578" data-name="Path 15578" d="M1450.833,613.4a38.235,38.235,0,0,0,0,3.939c.135.272,14.807,2.989,16.572,2.581s.275-2.717-.675-3.26-8.427-3.26-8.427-3.26Z" transform="translate(4195.03 -745.422)" fill="#1d1934"/>
      <path id="Path_15579" data-name="Path 15579" d="M1401.573,613.4a38.235,38.235,0,0,1,0,3.939c-.134.272-14.805,2.989-16.571,2.581s-.27-2.717.68-3.26,8.42-3.26,8.42-3.26Z" transform="translate(4224.188 -745.422)" fill="#1d1934"/>
      <path id="Path_15580" data-name="Path 15580" d="M1522.65,255.262s.41-4.754,1.225-6.112c.68-1.358,2.311-3.124,3.94-2.445s.27,4.211.27,4.211l-2.58,4.618Z" transform="translate(4163.555 -584.787)" fill="#f8c3b0"/>
      <path id="Path_15581" data-name="Path 15581" d="M1522.65,250.723s7.746-6.384,8.15-7.063c.545-.544,4.345-7.471,4.345-7.471s1.63.815,1.36,2.038c-.4,1.223-8.015,17.115-8.015,17.115Z" transform="translate(4163.555 -580.248)" fill="#f8c3b0"/>
      <path id="Path_15582" data-name="Path 15582" d="M1527.5,246.494l-7.747-2.445,7.612-13.176,7.6,1.63Z" transform="translate(4164.826 -577.92)" fill="#1d1934"/>
      <path id="Path_15583" data-name="Path 15583" d="M1460.137,175.957s-3.53,4.347-9.646.951c-5.975-3.4-11.546-5.3-12.766-5.026s-2.99,7.471-3.53,7.607l-3.805,2.309s-2.99-7.064.545-13.447c3.4-6.385,9.236-7.743,10.456-6.113,0,0,7.471.136,11.822,5.569A97.644,97.644,0,0,0,1460.137,175.957Z" transform="translate(4204.472 -547.59)" fill="#1d1934"/>
      <path id="Path_15584" data-name="Path 15584" d="M1465.616,235.706s14.261,24.993,14.806,24.857,13.311-11.138,13.311-11.138l7.471,5.7s-15.346,24.314-19.422,24.858-24.862-20.919-24.862-20.919Z" transform="translate(4192.337 -580.036)" fill="#4fbd88"/>
      <path id="Path_15585" data-name="Path 15585" d="M1536.43,243.823s1.085-9.916,2.169-10.731c.95-.815,3.805-1.358,4.075-1.494.275,0,.41,3.4,0,4.618C1542,237.439,1536.43,243.823,1536.43,243.823Z" transform="translate(4157.521 -578.238)" fill="#f8c3b0"/>
      <path id="Path_15586" data-name="Path 15586" d="M1433.79,192.025s.27-6.248-1.5-4.618c-1.765,1.494-1.085,6.928-1.085,6.928Z" transform="translate(4203.652 -558.768)" fill="#f8c3b0"/>
      <path id="Path_15587" data-name="Path 15587" d="M1435.346,212.928l-1.63,5.3,3.67.408s-2.72,7.064-9.915,5.7-6.116-6.384-6.116-6.384l3.535.271,3.256-9.1Z" transform="translate(4207.937 -568.397)" fill="#f8c3b0"/>
      <path id="Path_15588" data-name="Path 15588" d="M1377.067,236.672s-8.832,10.188-17.386,40.479,18.336,59.088,18.336,59.088a68.737,68.737,0,0,0-.4-15.893c-1.5-11.411-5.025-26.624-4.756-29.612.411-5.433,13.042-19.425,13.042-19.425Z" transform="translate(4235.653 -580.459)" fill="#4fbd88"/>
      <path id="Path_15589" data-name="Path 15589" d="M1382.98,393.677l5.571-8.151s3.665,5.705,3.26,8.151-2.58,13.719-2.58,13.719Z" transform="translate(4224.714 -645.64)" fill="#f8c3b0"/>
      <g id="Group_11306" data-name="Group 11306" transform="translate(0 -50)">
        <path id="Path_15590" data-name="Path 15590" d="M1673.2,536.14a1.495,1.495,0,0,0,1.45-1.851l-5.739-23.446a1.494,1.494,0,1,0-2.9.72l5.74,23.446a1.507,1.507,0,0,0,.534.815A1.484,1.484,0,0,0,1673.2,536.14Z" transform="translate(4100.798 -700.017)" fill="#0b0755"/>
        <path id="Path_15591" data-name="Path 15591" d="M1728.623,527.9a1.529,1.529,0,0,0,.359-.043,1.491,1.491,0,0,0,.922-.677,1.464,1.464,0,0,0,.2-.547,1.545,1.545,0,0,0-.022-.583l-8.325-34.02a1.5,1.5,0,0,0-2.906.72l8.325,34.021a1.508,1.508,0,0,0,.534.814A1.48,1.48,0,0,0,1728.623,527.9Z" transform="translate(4077.663 -691.78)" fill="#0b0755"/>
        <path id="Path_15592" data-name="Path 15592" d="M1653.124,338.341c-57.342,0-46.324,58.972-64.391,57.959S1562.28,437.88,1628,437.88,1705.9,338.341,1653.124,338.341Z" transform="translate(4140.272 -624.978)" fill="#f7c366"/>
        <path id="Path_15593" data-name="Path 15593" d="M1569.03,533.574s.146,10.135.067,10.281.736,1.414.736,1.414l3.2.571,2.917-1.342s-.259-9.421.051-10.905S1569.03,533.574,1569.03,533.574Z" transform="translate(4143.247 -710.185)" fill="#fb9391"/>
        <path id="Path_15594" data-name="Path 15594" d="M1566.739,552.855a8.313,8.313,0,0,1-6.834-.843s-12.265,4.6-11.9,8.094c0,0-.517,1.042,4.8.819s13.581-.464,13.8-.586S1567.869,560.779,1566.739,552.855Z" transform="translate(4152.458 -718.542)" fill="#0b0755"/>
        <path id="Path_15595" data-name="Path 15595" d="M1624.1,533.574s.147,10.135.067,10.281.737,1.414.737,1.414l3.2.571,2.918-1.342s-.259-9.421.045-10.905S1624.1,533.574,1624.1,533.574Z" transform="translate(4119.132 -710.185)" fill="#fb9391"/>
        <path id="Path_15596" data-name="Path 15596" d="M1621.809,552.855a8.316,8.316,0,0,1-6.835-.843s-12.266,4.6-11.894,8.094c0,0-.524,1.042,4.8.819s13.575-.464,13.8-.586S1622.933,560.779,1621.809,552.855Z" transform="translate(4128.342 -718.542)" fill="#0b0755"/>
        <path id="Path_15597" data-name="Path 15597" d="M1675.1,323.119s-.956-1.155-1.557-.576c-1.518,1.476.326,2.955,1.478,3.2Z" transform="translate(4097.732 -617.99)" fill="#ea6868"/>
        <path id="Path_15598" data-name="Path 15598" d="M1675.117,306.456c-.022-.13-.038-.26-.056-.393a10.216,10.216,0,1,1,19.882,1.987c-.675,2.48-1.282,4.6-1.967,6.39a14.578,14.578,0,0,0-.383,9.254l.686,2.4c-5.875,4.011-9.061,1.237-9.061,1.237l-.613-4.467a1.13,1.13,0,0,0-1.181-.974C1674.628,322.232,1675.511,309.941,1675.117,306.456Z" transform="translate(4096.844 -605.876)" fill="#fb9391"/>
        <path id="Path_15599" data-name="Path 15599" d="M1694.855,322.182a.961.961,0,0,1,1.872-.4,1,1,0,0,1,.005.559.973.973,0,0,1-.309.466.96.96,0,0,1-1.214.009A.974.974,0,0,1,1694.855,322.182Z" transform="translate(4088.152 -617.433)" fill="#050521"/>
        <path id="Path_15600" data-name="Path 15600" d="M1679.585,320.844a.956.956,0,0,1,.484-.954.977.977,0,0,1,.551-.118.958.958,0,0,1,.517.207.938.938,0,0,1,.314.462.959.959,0,1,1-1.866.4Z" transform="translate(4094.839 -616.846)" fill="#050521"/>
        <path id="Path_15601" data-name="Path 15601" d="M1697.457,318.165a.563.563,0,0,0,.282-.112.524.524,0,0,0,.14-.162.553.553,0,0,0,.073-.205.56.56,0,0,0-.011-.217.617.617,0,0,0-.1-.2,3,3,0,0,0-4.154-.5.548.548,0,0,0-.242.351.527.527,0,0,0,.078.42.547.547,0,0,0,.349.242.563.563,0,0,0,.422-.077,1.884,1.884,0,0,1,2.659.24.555.555,0,0,0,.219.175A.568.568,0,0,0,1697.457,318.165Z" transform="translate(4088.771 -615.264)" fill="#050521"/>
        <path id="Path_15602" data-name="Path 15602" d="M1681.408,317.279a.561.561,0,0,0,.382-.893,2.989,2.989,0,0,0-4.148-.506.544.544,0,0,0-.242.351.567.567,0,0,0-.006.217.538.538,0,0,0,.078.2.632.632,0,0,0,.153.156.577.577,0,0,0,.2.086.54.54,0,0,0,.214,0,.508.508,0,0,0,.2-.08,1.882,1.882,0,0,1,2.659.24.535.535,0,0,0,.225.176A.562.562,0,0,0,1681.408,317.279Z" transform="translate(4095.799 -614.874)" fill="#050521"/>
        <path id="Path_15603" data-name="Path 15603" d="M1708.36,310.629l-2,7.172-1.889-.164-2.085-8.739Z" transform="translate(4084.85 -612.086)" fill="#050521"/>
        <path id="Path_15604" data-name="Path 15604" d="M1705.335,323.125a1.514,1.514,0,0,1,.719-.8,2.561,2.561,0,0,1,2.817-.051c1.388,1.111-.759,4.693-3.418,3.324C1705.441,325.6,1704.655,324.964,1705.335,323.125Z" transform="translate(4083.682 -617.761)" fill="#fb9391"/>
        <path id="Path_15605" data-name="Path 15605" d="M1686.151,326.428a1.9,1.9,0,0,0,1.715-.24.2.2,0,0,0,.045-.05.145.145,0,0,0,.023-.064.141.141,0,0,0-.006-.067.21.21,0,0,0-.084-.1.134.134,0,0,0-.062-.022.157.157,0,0,0-.068.005.173.173,0,0,0-.062.033,1.55,1.55,0,0,1-1.866-.06.63.63,0,0,1-.264-.3c-.023-.082.1-.271.264-.494a4.832,4.832,0,0,0,1.045-3.142.155.155,0,0,0-.051-.117.157.157,0,0,0-.112-.049.161.161,0,0,0-.118.049.156.156,0,0,0-.05.117,4.462,4.462,0,0,1-.978,2.952c-.2.276-.366.494-.326.741a.843.843,0,0,0,.394.516A2.193,2.193,0,0,0,1686.151,326.428Z" transform="translate(4092.382 -617.718)" fill="#ea6868"/>
        <path id="Path_15606" data-name="Path 15606" d="M1689.055,332.382s-3.805.9-6.375.032c0,0,.933,2.9,3.2,2.88S1689.055,332.382,1689.055,332.382Z" transform="translate(4093.48 -622.369)" fill="#fff"/>
        <path id="Path_15607" data-name="Path 15607" d="M1675.929,307.807s-1.344,1.186-1.023,7.388c0,0-1.254-6.815-.574-7.656S1675.929,307.807,1675.929,307.807Z" transform="translate(4097.225 -611.352)" fill="#0b0755"/>
        <path id="Path_15608" data-name="Path 15608" d="M1694.176,299.167a10.664,10.664,0,0,0-1.613-4.2,2.827,2.827,0,0,0,2.085-.286c.574-.437.556-1.565-.146-1.712-.41-.084-.8.2-1.22.24-.944.13-1.63-.876-1.933-1.781s-.574-1.971-1.445-2.379a1.566,1.566,0,0,0-.877-.134,5.112,5.112,0,0,0,.455,3.274,13.382,13.382,0,0,0-4.137-3.361,5.269,5.269,0,0,0-4.013-.656c-.276,1.075,1.506,1.585,1.736,2.67a24,24,0,0,0-7.274-.658,4.756,4.756,0,0,0-1.832.387,1.858,1.858,0,0,0-1.1,1.44,1.376,1.376,0,0,0,.1.6,1.442,1.442,0,0,0,.331.506,1.5,1.5,0,0,0,.512.327,1.461,1.461,0,0,0,.6.095,15.483,15.483,0,0,0-3.44,1.993,5.188,5.188,0,0,0-1.956,3.36,5.172,5.172,0,0,0,2.553-.648,1.865,1.865,0,0,0-.72,1.92,1.485,1.485,0,0,0,.54.592,1.456,1.456,0,0,0,.764.225,4.314,4.314,0,0,0,1.585-.3l7.8-2.529a9,9,0,0,0-2.114,3.915,12.227,12.227,0,0,0,6.448-2.82,12.274,12.274,0,0,0,1.124,3.2.888.888,0,0,0,.332.408c.522.281.956-.5,1.422-.867a1.952,1.952,0,0,1,2.074.1c1.107.605,1.877,1.488,2.732.169A4.826,4.826,0,0,0,1694.176,299.167Z" transform="translate(4099.466 -602.935)" fill="#050521"/>
        <path id="Path_15609" data-name="Path 15609" d="M1578.571,439.273s-11.866.961-15.671,16.083c-2.215,8.788-1.349,37.4-1.349,37.4l15.39,2.414s-1.376-31.977,10.546-41.833c0,0-2.417,6.5,6.318,43.446h11.422l3.805-37.851s26.885.895,34.941-5.824,8.882-14.762,8.882-14.762l-37.988-5.76Z" transform="translate(4146.595 -666.248)" fill="#786ce6"/>
        <path id="Path_15610" data-name="Path 15610" d="M1674.625,348.776s-.748-5.748-1.945-5.448-11.794,2.227-12.839,2.008,0,4.859,0,4.859-11.933,1.087-14.919,6.164-9.933,24.354-12.473,26a87.661,87.661,0,0,0-7.55,6.212l20.646,11.613,19.557-.917s14.149,8.48,25.205,1.877,9.107-41.241-1.344-47.364S1674.625,348.776,1674.625,348.776Z" transform="translate(4118.782 -627.157)" fill="#fff5f1"/>
        <path id="Path_15611" data-name="Path 15611" d="M1651.405,412.046a.223.223,0,0,0,.063,0c5.953-2.6,9.146-28.325,9.281-29.406a.182.182,0,0,0-.006-.056.1.1,0,0,0-.028-.052.1.1,0,0,0-.045-.038.138.138,0,0,0-.051-.018.164.164,0,0,0-.062,0,.161.161,0,0,0-.051.026.154.154,0,0,0-.038.044.1.1,0,0,0-.018.056c-.034.266-3.306,26.644-9.106,29.167a.166.166,0,0,0-.068.069.121.121,0,0,0-.011.1.131.131,0,0,0,.05.085.135.135,0,0,0,.089.035Z" transform="translate(4107.239 -644.303)" fill="#0b0755"/>
        <path id="Path_15612" data-name="Path 15612" d="M1692.862,420.19a.166.166,0,0,0,.084-.025.146.146,0,0,0,.051-.066.131.131,0,0,0,0-.112.139.139,0,0,0-.073-.083l-4.312-1.882.6-7.508c1.293-.24,13.406-2.611,19.2-3.288a.139.139,0,0,0,.1-.048.151.151,0,0,0,.039-.1c0-.578.214-14.212-.686-16.236a.164.164,0,0,0-.084-.076.145.145,0,0,0-.112,0,.17.17,0,0,0-.079.081.155.155,0,0,0,.005.112c.821,1.861.675,14.547.658,15.98-6.149.72-19.061,3.274-19.2,3.3a.165.165,0,0,0-.084.049.168.168,0,0,0-.039.087l-.618,7.727a.163.163,0,0,0,.017.089.174.174,0,0,0,.073.062l4.407,1.92A.114.114,0,0,0,1692.862,420.19Z" transform="translate(4091.016 -647.931)" fill="#0b0755"/>
        <path id="Path_15613" data-name="Path 15613" d="M1607.7,457.9a.133.133,0,0,0,.09-.035.19.19,0,0,0,.056-.087c.022-.132,2.743-13.272,24.244-14.827a.183.183,0,0,0,.056-.015.134.134,0,0,0,.045-.035.171.171,0,0,0,.028-.051.1.1,0,0,0,.005-.056.21.21,0,0,0-.011-.056.123.123,0,0,0-.09-.077.125.125,0,0,0-.056,0c-11.354.821-17.415,4.866-20.5,8.113a15.36,15.36,0,0,0-4.025,6.961v.056a.173.173,0,0,0,.022.053.144.144,0,0,0,.045.041.128.128,0,0,0,.05.021Z" transform="translate(4126.383 -670.656)" fill="#0b0755"/>
        <path id="Path_15614" data-name="Path 15614" d="M1673.416,427.562l-.8.024c-2.45.077-9.781.329-10.63.629-1.023.36,2.057,6.76,2.057,6.76s8.809.48,11.642-1.409S1673.416,427.562,1673.416,427.562Z" transform="translate(4102.633 -664.047)" fill="#f78181"/>
        <path id="Path_15615" data-name="Path 15615" d="M1663.688,439.862s-4.919,2.225-5.352,1.743,3.84-2.967,3.84-2.967Z" transform="translate(4104.154 -668.897)" fill="#f78181"/>
        <path id="Path_15616" data-name="Path 15616" d="M1659.374,436.759s-7.273,2.994-7.824,1.987,7.5-3.6,7.5-3.6Z" transform="translate(4107.125 -667.367)" fill="#f78181"/>
        <path id="Path_15617" data-name="Path 15617" d="M1657.547,433.6s-7.51,2.348-7.971,1.3,7.791-2.933,7.791-2.933Z" transform="translate(4107.985 -665.975)" fill="#f78181"/>
        <path id="Path_15618" data-name="Path 15618" d="M1657.28,430.232s-7.015,2.289-7.454,1.237,7.274-2.881,7.274-2.881Z" transform="translate(4107.875 -664.496)" fill="#f78181"/>
        <path id="Path_15619" data-name="Path 15619" d="M1679.49,427.4l5.537-.694-.505,6.258-2.85.639Z" transform="translate(4094.877 -663.671)" fill="#f78181"/>
        <path id="Path_15620" data-name="Path 15620" d="M1567.97,393.442l40.517-.056,12.743,29.624-40.512.056Z" transform="translate(4143.71 -649.082)" fill="#050521"/>
        <path id="Path_15621" data-name="Path 15621" d="M1648.575,444.673l27.122-.038v-1.794l-27.127.038Z" transform="translate(4108.417 -670.738)" fill="#050521"/>
        <path id="Path_15622" data-name="Path 15622" d="M1608.6,417.617a1.728,1.728,0,0,0-.292-.992,1.785,1.785,0,1,0-2.49,2.46,1.813,1.813,0,0,0,.989.306A1.783,1.783,0,0,0,1608.6,417.617Z" transform="translate(4127.479 -658.907)" fill="#fff"/>
        <path id="Path_15623" data-name="Path 15623" d="M1780.882,530.024h-.034a.141.141,0,0,1-.055-.024.145.145,0,0,1-.04-.043.176.176,0,0,1-.023-.056.24.24,0,0,1,.005-.056c4.8-21.248,9.461-36.335,13.132-42.488.056-.092.113-.188.163-.286a.155.155,0,0,1,.2-.08.158.158,0,0,1,.078.2,3.356,3.356,0,0,1-.179.318c-3.654,6.127-8.3,21.185-13.1,42.4a.162.162,0,0,1-.05.084A.152.152,0,0,1,1780.882,530.024Z" transform="translate(4050.546 -690.065)" fill="#bdb2f0"/>
        <path id="Path_15624" data-name="Path 15624" d="M1806.651,483.537a7.627,7.627,0,0,1-2.985,1.947,7.6,7.6,0,0,1,.479-3.53,1.483,1.483,0,0,1,2.107-.566,1.517,1.517,0,0,1,.439.424,1.568,1.568,0,0,1,.23.562,1.388,1.388,0,0,1-.017.609A1.538,1.538,0,0,1,1806.651,483.537Z" transform="translate(4040.534 -687.515)" fill="#bdb2f0"/>
        <path id="Path_15625" data-name="Path 15625" d="M1798.632,488.764a7.754,7.754,0,0,1-.247,3.636,7.854,7.854,0,0,1-2.592-2.562,1.518,1.518,0,0,1,2.84-1.074Z" transform="translate(4043.993 -690.416)" fill="#bdb2f0"/>
        <path id="Path_15626" data-name="Path 15626" d="M1803.955,495.307a7.811,7.811,0,0,1-3.485-1.057,7.777,7.777,0,0,1,3.081-1.948,1.483,1.483,0,0,1,.6.025,1.519,1.519,0,0,1,.545.256,1.462,1.462,0,0,1,.4.446,1.376,1.376,0,0,1,.2.567,1.542,1.542,0,0,1-.034.6,1.609,1.609,0,0,1-.27.537,1.549,1.549,0,0,1-.455.393A1.5,1.5,0,0,1,1803.955,495.307Z" transform="translate(4041.903 -692.387)" fill="#bdb2f0"/>
        <path id="Path_15627" data-name="Path 15627" d="M1786.171,513.869c.641,1.253.607,5.928.247,6.111s-4.148-2.554-4.783-3.807a2.544,2.544,0,1,1,4.536-2.3Z" transform="translate(4050.271 -701.229)" fill="#bdb2f0"/>
        <path id="Path_15628" data-name="Path 15628" d="M1796.317,523.581c-1.366.337-5.913-.744-6.008-1.135s3.424-3.47,4.784-3.808a2.546,2.546,0,1,1,1.224,4.943Z" transform="translate(4046.353 -703.895)" fill="#bdb2f0"/>
        <path id="Path_15629" data-name="Path 15629" d="M1779.788,523.784c1.1,1.326,2.316,6.914,1.934,7.229s-5.644-1.934-6.74-3.254a3.116,3.116,0,1,1,4.8-3.975Z" transform="translate(4053.376 -705.686)" fill="#bdb2f0"/>
        <path id="Path_15630" data-name="Path 15630" d="M1794.222,536.159c-1.7.24-7.105-1.653-7.172-2.136s4.6-3.791,6.306-4.03a3.115,3.115,0,1,1,.866,6.169Z" transform="translate(4047.78 -708.886)" fill="#bdb2f0"/>
        <path id="Path_15631" data-name="Path 15631" d="M1776.618,536.137c1.1,1.325,2.317,6.914,1.934,7.228s-5.644-1.934-6.74-3.254a3.116,3.116,0,1,1,4.8-3.974Z" transform="translate(4054.765 -711.096)" fill="#bdb2f0"/>
        <path id="Path_15632" data-name="Path 15632" d="M1791.051,548.506c-1.7.239-7.1-1.653-7.172-2.136s4.6-3.792,6.307-4.032a3.109,3.109,0,0,1,2.333.579,3.112,3.112,0,0,1,1.226,2.067,3.151,3.151,0,0,1-.607,2.326,3.2,3.2,0,0,1-.922.808A3.119,3.119,0,0,1,1791.051,548.506Z" transform="translate(4049.168 -714.289)" fill="#bdb2f0"/>
        <path id="Path_15633" data-name="Path 15633" d="M1769.6,552.508c1.517.808,4.777,5.5,4.547,5.949s-5.953.364-7.471-.446a3.126,3.126,0,0,1-1.534-1.839,3.182,3.182,0,0,1-.129-1.215,3.071,3.071,0,0,1,.354-1.17,3.116,3.116,0,0,1,4.233-1.279Z" transform="translate(4057.434 -718.594)" fill="#bdb2f0"/>
        <path id="Path_15634" data-name="Path 15634" d="M1788.174,560.76c-1.664.446-7.256-.753-7.386-1.227s4.092-4.337,5.756-4.787a3.119,3.119,0,0,1,1.636,6.02Z" transform="translate(4050.523 -719.691)" fill="#bdb2f0"/>
        <path id="Path_15635" data-name="Path 15635" d="M1795.209,496.666a8,8,0,0,1-.247,3.694,7.887,7.887,0,0,1-2.631-2.6,1.539,1.539,0,1,1,2.878-1.092Z" transform="translate(4045.511 -693.871)" fill="#bdb2f0"/>
        <path id="Path_15636" data-name="Path 15636" d="M1800.431,503.424a7.945,7.945,0,0,1-3.541-1.075,7.938,7.938,0,0,1,3.126-1.98,1.541,1.541,0,0,1,.409,3.056Z" transform="translate(4043.47 -695.922)" fill="#bdb2f0"/>
        <path id="Path_15637" data-name="Path 15637" d="M1790.306,503.88c.523,1.091.389,5.11.079,5.259s-3.514-2.287-4.031-3.379a2.124,2.124,0,0,1-.208-.828,2.071,2.071,0,0,1,.124-.843,2.193,2.193,0,0,1,3.53-.889A2.175,2.175,0,0,1,1790.306,503.88Z" transform="translate(4048.176 -696.92)" fill="#bdb2f0"/>
        <path id="Path_15638" data-name="Path 15638" d="M1798.646,513.289c-1.2.162-4.991-1.19-5.036-1.527s3.249-2.649,4.446-2.811a2.189,2.189,0,0,1,.591,4.338Z" transform="translate(4044.906 -699.677)" fill="#bdb2f0"/>
        <path id="Path_15639" data-name="Path 15639" d="M1804.889,542.026l-.028-.009a.156.156,0,0,1-.057-.034.473.473,0,0,1-.033-.052.251.251,0,0,1-.012-.061.113.113,0,0,1,.012-.062c8.583-21.733,16.015-36.959,20.916-42.877.107-.131.186-.225.219-.275a.148.148,0,0,1,.1-.061.163.163,0,0,1,.174.235c-.039.066-.118.149-.242.308-4.879,5.893-12.287,21.088-20.865,42.788a.163.163,0,0,1-.067.082.175.175,0,0,1-.113.017Z" transform="translate(4040.024 -695.15)" fill="#786ce6"/>
        <path id="Path_15640" data-name="Path 15640" d="M1844.846,495.562a8.216,8.216,0,0,1-3.479,1.574,8.171,8.171,0,0,1,1.085-3.663,1.567,1.567,0,0,1,.489-.379,1.594,1.594,0,0,1,1.213-.083,1.62,1.62,0,0,1,.541.309,1.522,1.522,0,0,1,.376.491,1.5,1.5,0,0,1,.164.6,1.541,1.541,0,0,1-.079.618,1.657,1.657,0,0,1-.309.533Z" transform="translate(4024.008 -692.67)" fill="#786ce6"/>
        <path id="Path_15641" data-name="Path 15641" d="M1835.8,499.687a2.15,2.15,0,1,1-3.187.67,1.629,1.629,0,0,1,3.187-.67Z" transform="translate(4027.838 -695.074)" fill="#786ce6"/>
        <path id="Path_15642" data-name="Path 15642" d="M1840.325,507.71a8.4,8.4,0,0,1-3.525-1.7,8.448,8.448,0,0,1,3.58-1.557,1.651,1.651,0,0,1,.635.126,1.742,1.742,0,0,1,.535.36,1.644,1.644,0,0,1,.325,1.8,1.58,1.58,0,0,1-.377.525,1.609,1.609,0,0,1-.544.337,1.64,1.64,0,0,1-.635.1Z" transform="translate(4025.994 -697.718)" fill="#786ce6"/>
        <path id="Path_15643" data-name="Path 15643" d="M1818.323,524.348c.466,1.433-.338,6.383-.742,6.517s-3.98-3.389-4.453-4.822a2.794,2.794,0,0,1-.123-1.058,2.73,2.73,0,0,1,1.871-2.385,2.732,2.732,0,0,1,3.446,1.748Z" transform="translate(4036.417 -705.603)" fill="#786ce6"/>
        <path id="Path_15644" data-name="Path 15644" d="M1827.323,536.675c-1.5.134-6.145-1.764-6.184-2.193s4.2-3.114,5.7-3.247a2.731,2.731,0,1,1,.483,5.439Z" transform="translate(4032.852 -709.437)" fill="#786ce6"/>
        <path id="Path_15645" data-name="Path 15645" d="M1809.818,533.837c.944,1.586,1.32,7.712.865,7.982s-5.66-2.975-6.6-4.558a3.276,3.276,0,0,1-.461-1.237,3.341,3.341,0,0,1,6.2-2.184Z" transform="translate(4040.542 -709.847)" fill="#786ce6"/>
        <path id="Path_15646" data-name="Path 15646" d="M1823.012,549.832c-1.844-.027-7.257-2.923-7.251-3.449s5.5-3.26,7.352-3.235a3.342,3.342,0,0,1-.1,6.684Z" transform="translate(4035.207 -714.66)" fill="#786ce6"/>
        <path id="Path_15647" data-name="Path 15647" d="M1804.425,546.411c.946,1.586,1.316,7.712.866,7.982s-5.666-2.975-6.611-4.558a3.368,3.368,0,0,1-.455-1.237,3.247,3.247,0,0,1,.051-1.318,3.375,3.375,0,0,1,.562-1.194,3.243,3.243,0,0,1,.972-.885,3.35,3.35,0,0,1,4.615,1.212Z" transform="translate(4042.906 -715.354)" fill="#786ce6"/>
        <path id="Path_15648" data-name="Path 15648" d="M1817.621,562.4c-1.849-.027-7.256-2.923-7.251-3.447s5.5-3.26,7.347-3.234a3.355,3.355,0,0,1,1.293.258,3.425,3.425,0,0,1,1.09.737,3.327,3.327,0,0,1,.719,1.1,3.33,3.33,0,0,1-.792,3.659,3.349,3.349,0,0,1-2.406.925Z" transform="translate(4037.568 -720.166)" fill="#786ce6"/>
        <path id="Path_15649" data-name="Path 15649" d="M1794.318,562.655c1.478,1.107,4.166,6.629,3.844,7.05s-6.369-.595-7.847-1.7a3.342,3.342,0,1,1,4-5.354Z" transform="translate(4046.936 -722.91)" fill="#786ce6"/>
        <path id="Path_15650" data-name="Path 15650" d="M1812.442,574.892c-1.832.2-7.566-1.992-7.623-2.515s5.06-3.925,6.886-4.129a3.342,3.342,0,1,1,.742,6.644Z" transform="translate(4039.998 -725.642)" fill="#786ce6"/>
        <path id="Path_15651" data-name="Path 15651" d="M1830.864,507.478a8.391,8.391,0,0,1-.871,3.874,8.492,8.492,0,0,1-2.361-3.192,1.651,1.651,0,1,1,3.232-.682Z" transform="translate(4030.025 -698.467)" fill="#786ce6"/>
        <path id="Path_15652" data-name="Path 15652" d="M1835.245,515.736a8.463,8.463,0,0,1-3.575-1.724,8.446,8.446,0,0,1,3.643-1.582,1.641,1.641,0,0,1,.641.127,1.707,1.707,0,0,1,.545.366,1.645,1.645,0,0,1,.354.548,1.589,1.589,0,0,1,.118.644,1.672,1.672,0,0,1-.141.639,1.638,1.638,0,0,1-.382.534,1.656,1.656,0,0,1-1.2.45Z" transform="translate(4028.241 -701.209)" fill="#786ce6"/>
        <path id="Path_15653" data-name="Path 15653" d="M1824.4,514.394c.372,1.242-.432,5.481-.787,5.586s-3.344-3-3.715-4.245a2.348,2.348,0,1,1,4.5-1.339Z" transform="translate(4033.441 -701.334)" fill="#786ce6"/>
        <path id="Path_15654" data-name="Path 15654" d="M1831.622,526.072c-1.3-.026-5.088-2.083-5.082-2.449s3.879-2.274,5.171-2.248a2.349,2.349,0,0,1-.089,4.7Z" transform="translate(4030.488 -705.126)" fill="#786ce6"/>
      </g>
      <path id="Path_15655" data-name="Path 15655" d="M1135.111,279.412l-.725.665a.905.905,0,0,1-1.271-.03l-12.906-14.262a.862.862,0,0,1,.09-1.237l.725-.665a.905.905,0,0,1,1.271.03l12.906,14.232A.9.9,0,0,1,1135.111,279.412Z" transform="translate(4339.874 -592.267)" fill="#183658"/>
      <path id="Path_15656" data-name="Path 15656" d="M1181.147,270.941c-1.726-1.42-15.059,4.472-14.908,6.5.186,2.055-9.308,21.847-9.308,21.847l-16.386-13.114c-.152-.483-1.7-5.559-1.787-6.464-.09-.967-2.839-2.629-4.144-2.387s1.091,1.873,1.271,2.176c.427.816-1.208,1.118-1.208,1.118s-4.745-2.6-4.835-4.14-1.09-4.744-2.085-4.079c-.517.333-.517,2.629-.366,3.717-.3-1.237-.725-2.6-1.146-2.75-.759-.242-1.153.726-1,1.209s1.361,5.681,1.754,6.285c.365.574,8.01,6.738,9.1,8.1,0,0,21.192,24.294,22.7,24.929,1.332.544,6.048-7.826,10.495-13.386C1173.773,294.933,1186.56,275.323,1181.147,270.941Z" transform="translate(4337.588 -595.37)" fill="#d29e8b"/>
      <path id="Path_15657" data-name="Path 15657" d="M1299.483,582.671s2.9,2.841,2.99,3.9c.062,1.057.276,12.237-.939,13.295-1.174,1.057-4.682,1.783-3.564,2.961.844.876,7.376.695,11.7.453,1.27-.061,2.844-10.183,3.355-11.663.726-2.146,2.479-7.01,1.845-8.521a13.2,13.2,0,0,0-4.02-3.657,20.4,20.4,0,0,1-4.474-4.774Z" transform="translate(4262.034 -728.461)" fill="#d29e8b"/>
      <path id="Path_15658" data-name="Path 15658" d="M1238.615,600.564s2.6,7.373,2.6,7.4c.185,1.181.972,4.047.972,5.137,0,3.991-17.96-3.385-13.941-5.167a4.264,4.264,0,0,0,1.63-2.811c.186-2.085-1.507-4.713-1.507-4.713Z" transform="translate(4292.727 -739.736)" fill="#d29e8b"/>
      <path id="Path_15659" data-name="Path 15659" d="M1193.265,356.151s-1.3,13.235-1.3,13.446c0,21.393-4.232,63.213-3.417,67.262,1.967,9.82,23.1,59.889,23.1,59.889l11.427-1.36L1208.2,435.437l5.475-24.143,7.735-47.712Z" transform="translate(4309.898 -632.777)" fill="#282358"/>
      <path id="Path_15660" data-name="Path 15660" d="M1237.922,369.3l2.176,12.54,5.834,51.64,22.344,50.462s-3.142,7.342-7.769,8.37l-35.553-51.821L1202.88,374.2l.788-14.715Z" transform="translate(4303.579 -634.237)" fill="#322c6b"/>
      <path id="Path_15661" data-name="Path 15661" d="M1188.9,273.106l15.84,1.63s.725-13.024.725-19.218c0-7.524-.635-17.254-1.54-17.042-2.54.574-5.986,1.994-8.01,4.8C1188.839,253.012,1188.9,273.106,1188.9,273.106Z" transform="translate(4309.698 -581.248)" fill="#786ce6"/>
      <path id="Path_15662" data-name="Path 15662" d="M1197.728,253.751c-.332,2.3-6.408,64.756-6.408,64.756,28.842,13.96,44.745,2.478,44.745,2.478s-.939-43.845.179-49.827c.759-3.958,1.7-30.186-.876-30.941a64.026,64.026,0,0,0-11.124-2.357c-3.508-.362-17.049-.574-19.5.242A31.817,31.817,0,0,0,1197.728,253.751Z" transform="translate(4308.638 -580.839)" fill="#786ce6"/>
      <path id="Path_15663" data-name="Path 15663" d="M1309.746,583.05s-6.712,18.944-9.342,19.852c-.7.242-4.053.846-4.688,2.357a6.751,6.751,0,0,0,0,1.934h14s1.787-8.339,2.479-12.026c0,0,3.693-8.975,3.3-9.79C1315.064,584.591,1309.746,583.05,1309.746,583.05Z" transform="translate(4262.955 -732.132)" fill="#1d1934"/>
      <path id="Path_15664" data-name="Path 15664" d="M1232.381,620.216l-2.052-6.527s-4.323,1.843-6.469,1.542a64.2,64.2,0,0,1-6.38-1.542c-8.617,2.841-15.694,4.231-14.39,6.527Z" transform="translate(4303.553 -745.549)" fill="#1d1934"/>
      <path id="Path_15665" data-name="Path 15665" d="M1183.486,334.811a2.915,2.915,0,0,1-.422-.333c.512-6.1.422-12.056-1.484-14.053.061-.09.455-1,.91-1.9,2.2,1.722,3.266,6.285,2.873,13.716a14.081,14.081,0,0,1-.3,1.541C1184.363,334.474,1183.789,334.93,1183.486,334.811Z" transform="translate(4312.904 -616.3)" fill="#d29e8b"/>
      <path id="Path_15666" data-name="Path 15666" d="M1299.094,330.575a.922.922,0,0,0,0-.393c-.421-4.321-3.991-40.641-4.6-42.182-.54-1.39-16.594-24.415-16.594-24.415l-7.893,10.788,15.448,20.668c.331,1.3,5.925,25.835,5.925,25.835s1.152,4.472,1.664,7.131c-.242.634-.455,1.237-.664,1.752a18.2,18.2,0,0,1-1.663,2.69,17.26,17.26,0,0,0-1.967,3.5c-.147.635-.45,1.934-.635,2.719a21.134,21.134,0,0,0-.421,2.146,4.155,4.155,0,0,1-.511,1.148.689.689,0,0,0,.814,1c.574-.181,1-.906,1.271-1.36.753-1.269,1.18-3.626,1.36-3.5s.843,4.079.967,4.532a45.441,45.441,0,0,0,1.36,5.892c.455.846,1.057.695,1.209.182.152-.454-.484-6.89-.484-6.89s-.089-.816.277-.574c.359.272.932,6.1,1.208,6.98.241.847.815,1.3,1.3.635.573-.846-.422-7.041-.422-7.041s-.124-.787.208-.695.759,5.076,1,5.5a.65.65,0,0,0,1.208-.121c.36-.846-.574-6.376-.574-6.376s.063-.453.242-.3c.208.151.877,4.381,1.3,4.774a.45.45,0,0,0,.664,0c.786-.544-.422-4.563-.394-6.557,0-1.994-.9-4.26-.63-6.617A2.659,2.659,0,0,1,1299.094,330.575Z" transform="translate(4274.182 -592.244)" fill="#d29e8b"/>
      <path id="Path_15667" data-name="Path 15667" d="M1284.927,268.894,1271.2,278.14s-7.741-11.543-11.877-15.652c-5.2-5.137,1.9-20.911,5.227-20C1272.077,244.449,1284.927,268.894,1284.927,268.894Z" transform="translate(4279.67 -582.988)" fill="#786ce6"/>
      <path id="Path_15668" data-name="Path 15668" d="M1238.721,213.5l2.052,13.567s-7.492,16.133-11.967,14.745c-3.749-1.18-1.456-15.471-1.456-15.471s2.057-7.675,1.422-11.513C1228.2,211,1238.721,213.5,1238.721,213.5Z" transform="translate(4293.167 -569.962)" fill="#d29e8b"/>
      <path id="Path_15669" data-name="Path 15669" d="M1237.182,176.7c.3-.121,2.389,15.44-1.569,19.73s-11.7,5.681-14.452,2.3c-3.057-3.717-2.906-20.457,3.266-24.838C1230.561,169.474,1237.182,176.7,1237.182,176.7Z" transform="translate(4296.425 -552.341)" fill="#d29e8b"/>
      <path id="Path_15670" data-name="Path 15670" d="M1228.444,160.087a16.968,16.968,0,0,1,8.977,5.137c2.175.242,5.11,1.45,8.134,6.5,3.75,6.195.967,13.084-3.384,16.437-4.356,3.384-4.294,7.251-4.294,7.251l-.7-2.024a11.036,11.036,0,0,1-.545-4.744,8.872,8.872,0,0,1,.7-2.84c1.057-2.266-2.237-3.747-3.176-5.621-.725-1.45-.753-4.744-1.872-7.131l-1.332-1.811s-3.086-2.417-6.1-1.722C1221.884,170.21,1222.334,158.848,1228.444,160.087Z" transform="translate(4294.736 -546.879)" fill="#184655"/>
      <path id="Path_15671" data-name="Path 15671" d="M1243.279,198.247c-.034,1.9.815,3.445,1.934,3.475,1.085.03,2-1.511,2.024-3.414s-.815-3.445-1.934-3.475C1244.212,194.8,1243.307,196.344,1243.279,198.247Z" transform="translate(4285.886 -562.138)" fill="#d29e8b"/>
      <path id="Path_15672" data-name="Path 15672" d="M1227.157,208.464l-5.987-.3a2.641,2.641,0,0,0,2.659,2.508C1227.005,210.913,1227.157,208.464,1227.157,208.464Z" transform="translate(4295.57 -567.975)" fill="#fff"/>
      <circle id="Ellipse_506" data-name="Ellipse 506" cx="13.491" cy="13.491" r="13.491" transform="translate(5452 -369.46)" fill="#fff"/>
      <circle id="Ellipse_507" data-name="Ellipse 507" cx="13.21" cy="13.21" r="13.21" transform="translate(5452.281 -369.179)" fill="none" stroke="rgba(41,45,52,0.1)" stroke-width="1"/>
      <path id="Path_15673" data-name="Path 15673" d="M1128.432,204.562a.562.562,0,1,0-1.124,0v.562h-3.374v-.562a.562.562,0,1,0-1.124,0v.562h-1.125a1.687,1.687,0,0,0-1.686,1.686v7.87a1.687,1.687,0,0,0,1.686,1.686h7.87a1.687,1.687,0,0,0,1.687-1.686v-7.87a1.687,1.687,0,0,0-1.687-1.686h-1.124Zm1.686,3.935v-1.686a.562.562,0,0,0-.562-.562h-1.124v.562a.562.562,0,1,1-1.124,0v-.562h-3.374v.562a.562.562,0,1,1-1.124,0v-.562h-1.125a.562.562,0,0,0-.562.562V208.5Zm-8.994,1.124h8.994v5.059a.562.562,0,0,1-.562.562h-7.87a.562.562,0,0,1-.562-.562Z" transform="translate(4339.869 -566.153)" fill="#786ce6" fill-rule="evenodd"/>
      <circle id="Ellipse_508" data-name="Ellipse 508" cx="13.491" cy="13.491" r="13.491" transform="translate(5693.147 -380.141)" fill="#fff"/>
      <circle id="Ellipse_509" data-name="Ellipse 509" cx="13.21" cy="13.21" r="13.21" transform="translate(5693.429 -379.859)" fill="none" stroke="rgba(41,45,52,0.1)" stroke-width="1"/>
      <path id="Path_15674" data-name="Path 15674" d="M1560.117,191.778a4.684,4.684,0,0,1-.505,2.136,4.775,4.775,0,0,1-4.272,2.642,4.718,4.718,0,0,1-2.136-.506l-3.2,1.068,1.067-3.2a4.7,4.7,0,0,1-.506-2.136,4.78,4.78,0,0,1,2.642-4.272,4.718,4.718,0,0,1,2.136-.506h.28a4.765,4.765,0,0,1,4.5,4.5Z" transform="translate(4151.579 -558.709)" fill="none" stroke="#786ce6" stroke-linecap="round" stroke-linejoin="round" stroke-width="2"/>
      <circle id="Ellipse_510" data-name="Ellipse 510" cx="13.491" cy="13.491" r="13.491" transform="translate(5571.731 -385.2)" fill="#fff"/>
      <circle id="Ellipse_511" data-name="Ellipse 511" cx="13.21" cy="13.21" r="13.21" transform="translate(5572.01 -384.919)" fill="none" stroke="rgba(41,45,52,0.1)" stroke-width="1"/>
      <path id="Path_15675" data-name="Path 15675" d="M1335.44,177.444a4.5,4.5,0,0,1,7.678,3.18,7.444,7.444,0,0,1-2.378,4.743,16.216,16.216,0,0,1-1.681,1.537c-.169.136-.321.25-.439.337-.118-.089-.27-.2-.439-.337a16.129,16.129,0,0,1-1.681-1.537,7.444,7.444,0,0,1-2.378-4.743,4.5,4.5,0,0,1,1.315-3.18Zm2.867,10.955a5.2,5.2,0,0,0,.314-.468l-.309.468a.553.553,0,0,0,.619,0l-.309-.468a5.2,5.2,0,0,0,.314.468h0v0l.017-.008c.011-.007.022-.018.045-.032l.168-.12c.146-.1.349-.257.6-.45a17.937,17.937,0,0,0,1.8-1.642c1.286-1.359,2.681-3.323,2.681-5.516a5.621,5.621,0,1,0-11.242,0c0,2.192,1.394,4.16,2.681,5.516a17.875,17.875,0,0,0,1.8,1.642c.247.195.449.347.6.45l.168.12c.023.014.034.025.045.032l.017.008v0Zm-.81-7.775a1.124,1.124,0,1,1,1.124,1.124A1.124,1.124,0,0,1,1337.5,180.624Zm1.124-2.248a2.249,2.249,0,1,0,2.248,2.248A2.248,2.248,0,0,0,1338.621,178.375Z" transform="translate(4246.598 -553.457)" fill="#786ce6" fill-rule="evenodd"/>
    </g>
  </g>
</svg>
