<svg xmlns="http://www.w3.org/2000/svg" width="70" height="70" viewBox="0 0 70 70">
  <g id="Group_10630" data-name="Group 10630" transform="translate(-926 -1261)">
    <circle id="Ellipse_64" data-name="Ellipse 64" cx="35" cy="35" r="35" transform="translate(926 1261)" fill="#e6f4ff"/>
    <path id="Path_13993" data-name="Path 13993" d="M147.073-795.755h2.744v-11.894h-2.744Zm7.108,0h2.745v-17.383h-2.745Zm7.108,0h2.744v-6.4h-2.744Zm-17.982,6.862a3.193,3.193,0,0,1-2.347-.961A3.193,3.193,0,0,1,140-792.2v-24.491a3.193,3.193,0,0,1,.961-2.347,3.193,3.193,0,0,1,2.347-.961H167.8a3.193,3.193,0,0,1,2.347.961,3.193,3.193,0,0,1,.961,2.347V-792.2a3.193,3.193,0,0,1-.961,2.347,3.193,3.193,0,0,1-2.347.961Zm0-2.745H167.8a.537.537,0,0,0,.387-.176.537.537,0,0,0,.176-.387v-24.491a.537.537,0,0,0-.176-.387.537.537,0,0,0-.387-.176H143.308a.537.537,0,0,0-.387.176.537.537,0,0,0-.176.387V-792.2a.537.537,0,0,0,.176.387A.537.537,0,0,0,143.308-791.638Zm-.563-25.618v0Z" transform="translate(805.447 2100.447)" fill="#6ea9d8"/>
  </g>
</svg>
