<svg xmlns="http://www.w3.org/2000/svg" width="70" height="70" viewBox="0 0 70 70">
  <g id="Group_10628" data-name="Group 10628" transform="translate(-684 -1261)">
    <circle id="Ellipse_62" data-name="Ellipse 62" cx="35" cy="35" r="35" transform="translate(684 1261)" fill="#ffece4"/>
    <path id="Path_13992" data-name="Path 13992" d="M117.471-825.064a17.016,17.016,0,0,1-6.813-1.375,17.643,17.643,0,0,1-5.547-3.733,17.644,17.644,0,0,1-3.735-5.545A17,17,0,0,1,100-842.529a17.013,17.013,0,0,1,1.376-6.813,17.64,17.64,0,0,1,3.734-5.547,17.648,17.648,0,0,1,5.546-3.735A17.009,17.009,0,0,1,117.468-860a17.106,17.106,0,0,1,5.5.873,17.756,17.756,0,0,1,4.757,2.436l-1.995,2.041a15.034,15.034,0,0,0-3.861-1.91,14.011,14.011,0,0,0-4.4-.683,14.18,14.18,0,0,0-10.412,4.3,14.18,14.18,0,0,0-4.3,10.412,14.18,14.18,0,0,0,4.3,10.412,14.18,14.18,0,0,0,10.412,4.3,14.18,14.18,0,0,0,10.412-4.3,14.18,14.18,0,0,0,4.3-10.412,14.371,14.371,0,0,0-.127-1.916,13.1,13.1,0,0,0-.382-1.842l2.228-2.245a18.131,18.131,0,0,1,.773,2.917,17.569,17.569,0,0,1,.267,3.087,17.012,17.012,0,0,1-1.375,6.813,17.641,17.641,0,0,1-3.733,5.546,17.634,17.634,0,0,1-5.545,3.734A17,17,0,0,1,117.471-825.064Zm-2.613-9.646-7.178-7.178,1.938-1.937,5.24,5.24L133-856.754l1.938,1.938Z" transform="translate(602 2139)" fill="#f3766d"/>
  </g>
</svg>
