<?xml version="1.0" encoding="utf-8"?>
<!-- Generator: Adobe Illustrator 25.3.0, SVG Export Plug-In . SVG Version: 6.00 Build 0)  -->
<svg version="1.1" id="Group_5608" xmlns="http://www.w3.org/2000/svg" xmlns:xlink="http://www.w3.org/1999/xlink" x="0px" y="0px"
	 viewBox="0 0 102.9 18.7" style="enable-background:new 0 0 102.9 18.7;" xml:space="preserve">
<style type="text/css">
	.st0{fill:none;}
	.st1{fill:#FBBC05;}
	.st2{fill:#BCBCBC;}
</style>
<g id="star_black_24dp_1_" transform="translate(0 0)">
	<g id="Group_5605">
		<path id="Path_15833" class="st0" d="M0,0h18.7v18.7H0V0z"/>
		<path id="Path_15834" class="st0" d="M0,0h18.7v18.7H0V0z"/>
	</g>
	<g id="Group_5606" transform="translate(1.56 1.56)">
		<path id="Path_15835" class="st1" d="M7.8,11.9l4.8,2.9l-1.3-5.5l4.3-3.7L10,5.2L7.8,0L5.6,5.2L0,5.6l4.3,3.7L3,14.8L7.8,11.9z"/>
	</g>
</g>
<g id="star_black_24dp_1_2" transform="translate(21.054 0)">
	<g id="Group_5605-2">
		<path id="Path_15833-2" class="st0" d="M0,0h18.7v18.7H0V0z"/>
		<path id="Path_15834-2" class="st0" d="M0,0h18.7v18.7H0V0z"/>
	</g>
	<g id="Group_5606-2" transform="translate(1.56 1.56)">
		<path id="Path_15835-2" class="st1" d="M7.8,11.9l4.8,2.9l-1.3-5.5l4.3-3.7L10,5.2L7.8,0L5.6,5.2L0,5.6l4.3,3.7L3,14.8L7.8,11.9z"
			/>
	</g>
</g>
<g id="star_black_24dp_1_3" transform="translate(42.107 0)">
	<g id="Group_5605-3">
		<path id="Path_15833-3" class="st0" d="M0,0h18.7v18.7H0V0z"/>
		<path id="Path_15834-3" class="st0" d="M0,0h18.7v18.7H0V0z"/>
	</g>
	<g id="Group_5606-3" transform="translate(1.56 1.56)">
		<path id="Path_15835-3" class="st1" d="M7.8,11.9l4.8,2.9l-1.3-5.5l4.3-3.7L10,5.2L7.8,0L5.6,5.2L0,5.6l4.3,3.7L3,14.8L7.8,11.9z"
			/>
	</g>
</g>
<g id="star_black_24dp_1_4" transform="translate(63.161 0)">
	<g id="Group_5605-4">
		<path id="Path_15833-4" class="st0" d="M0,0h18.7v18.7H0V0z"/>
		<path id="Path_15834-4" class="st0" d="M0,0h18.7v18.7H0V0z"/>
	</g>
	<g id="Group_5606-4" transform="translate(1.56 1.56)">
		<path id="Path_15835-4" class="st1" d="M7.8,11.9l4.8,2.9l-1.3-5.5l4.3-3.7L10,5.2L7.8,0L5.6,5.2L0,5.6l4.3,3.7L3,14.8L7.8,11.9z"
			/>
	</g>
</g>
<g id="star_black_24dp_1_5" transform="translate(84.215 0)">
	<g id="Group_5605-5">
		<path id="Path_15833-5" class="st0" d="M0,0h18.7v18.7H0V0z"/>
		<path id="Path_15834-5" class="st0" d="M0,0h18.7v18.7H0V0z"/>
	</g>
	<g id="Group_5606-5" transform="translate(1.56 1.56)">
		<path id="Path_15835-5" class="st2" d="M7.8,11.9l4.8,2.9l-1.3-5.5l4.3-3.7L10,5.2L7.8,0L5.6,5.2L0,5.6l4.3,3.7L3,14.8L7.8,11.9z"
			/>
	</g>
</g>
<g id="Group_5606-5_1_" transform="translate(1.56 1.56)">
	<polygon class="st1" points="92,0 92,11.9 87.2,14.8 88.5,9.3 84.2,5.6 89.8,5.2 	"/>
</g>
</svg>
