<svg id="Group_8516" data-name="Group 8516" xmlns="http://www.w3.org/2000/svg" width="992.912" height="501.679" viewBox="0 0 992.912 501.679">
  <g id="Group_8504" data-name="Group 8504" transform="translate(372.871 245.644)">
    <g id="Group_8502" data-name="Group 8502">
      <path id="Path_13743" data-name="Path 13743" d="M2234.378,1332.9q-24.547-30.728-27.867-91.912-3.3-60.831,17.774-94.044t64.283-35.555q43.2-2.345,67.754,28.389t27.85,91.567q3.3,60.839-17.766,94.216t-64.273,35.728Q2258.922,1363.632,2234.378,1332.9Z" transform="translate(-2206.064 -1111.224)" fill="#fff"/>
      <path id="Path_13744" data-name="Path 13744" d="M2234.378,1332.9q-24.547-30.728-27.867-91.912-3.3-60.831,17.774-94.044t64.283-35.555q43.2-2.345,67.754,28.389t27.85,91.567q3.3,60.839-17.766,94.216t-64.273,35.728Q2258.922,1363.632,2234.378,1332.9Z" transform="translate(-2206.064 -1111.224)" fill="none" stroke="#786ce6" stroke-miterlimit="10" stroke-width="10"/>
    </g>
    <g id="Group_8503" data-name="Group 8503" transform="translate(43.806 35.001)">
      <path id="Path_13745" data-name="Path 13745" d="M2393.778,1351.253q9.539-22.178,6.991-69.19-2.57-47.351-14.439-68.029t-35.372-19.4q-23.509,1.276-33.055,23.286t-7,69.02q2.551,47.008,14.439,68.027t35.391,19.745Q2384.232,1373.436,2393.778,1351.253Z" transform="translate(-2310.365 -1194.561)" fill="rgba(120,108,230,0.23)"/>
      <path id="Path_13746" data-name="Path 13746" d="M2393.778,1351.253q9.539-22.178,6.991-69.19-2.57-47.351-14.439-68.029t-35.372-19.4q-23.509,1.276-33.055,23.286t-7,69.02q2.551,47.008,14.439,68.027t35.391,19.745Q2384.232,1373.436,2393.778,1351.253Z" transform="translate(-2310.365 -1194.561)" fill="none" stroke="#786ce6" stroke-miterlimit="10" stroke-width="10"/>
    </g>
  </g>
  <rect id="Rectangle_4000" data-name="Rectangle 4000" width="286.417" height="3.819" transform="translate(313.39 371.852)" fill="#786ce6"/>
  <path id="Path_13747" data-name="Path 13747" d="M3155.215,1416.885h-34.947a.315.315,0,0,1-.315-.315v-2.234a.315.315,0,0,1,.315-.315h34.947a.315.315,0,0,1,.315.315v2.234A.317.317,0,0,1,3155.215,1416.885Z" transform="translate(-2363.25 -1041.203)" fill="#786ce6"/>
  <path id="Path_13748" data-name="Path 13748" d="M1640.725,1416.885h-34.947a.315.315,0,0,1-.315-.315v-2.234a.315.315,0,0,1,.315-.315h34.947a.315.315,0,0,1,.315.315v2.234A.317.317,0,0,1,1640.725,1416.885Z" transform="translate(-1484.843 -1041.203)" fill="#786ce6"/>
  <path id="Path_13749" data-name="Path 13749" d="M3082.22,1557.243h-35.157a.21.21,0,0,1-.21-.21v-1.489a.21.21,0,0,1,.21-.21h35.157a.21.21,0,0,1,.21.21v1.489A.211.211,0,0,1,3082.22,1557.243Z" transform="translate(-2320.852 -1123.165)" fill="#c4cefe"/>
  <path id="Path_13750" data-name="Path 13750" d="M1573.668,737.319a13.426,13.426,0,0,0,13.376-11.457,26.67,26.67,0,0,0-26.408-30.28c-.6,0-1.2.027-1.8.067a28.311,28.311,0,0,0-56.521,2.4c0,.694.034,1.379.082,2.06a28.313,28.313,0,0,0-42.025,22.677c-.008.113-.015.225-.022.338a13.494,13.494,0,0,0,13.523,14.2h99.789Z" transform="translate(-1400.667 -609.512)" fill="#e6f4ff"/>
  <path id="Path_13751" data-name="Path 13751" d="M3226.6,901.531c21.076,0,22.243-31.72,1.191-32.743q-.862-.042-1.735-.042a35.133,35.133,0,0,0-10.771,1.686,36.164,36.164,0,0,0-71.531,1.141,33.468,33.468,0,0,0-22.729-2.208c-18.429,4.746-14.561,32.166,4.469,32.166h101.1Z" transform="translate(-2356.923 -708.363)" fill="#e6f4ff"/>
  <path id="Path_13752" data-name="Path 13752" d="M2788.833,587.7c21.07,0,22.237-31.71,1.191-32.733q-.862-.042-1.735-.042a35.129,35.129,0,0,0-10.767,1.686,36.153,36.153,0,0,0-71.51,1.14,33.459,33.459,0,0,0-22.722-2.208c-18.423,4.745-14.557,32.156,4.468,32.156Z" transform="translate(-2103.036 -526.354)" fill="#e6f4ff"/>
  <g id="Group_8510" data-name="Group 8510" transform="translate(36.141 29.213)">
    <g id="Group_8505" data-name="Group 8505" transform="translate(639.942 90.404)">
      <path id="Path_13753" data-name="Path 13753" d="M2928.7,811.158c11.056,11.672,14.077,11.754,25.749.7-11.672,11.056-11.754,14.077-.7,25.749-11.056-11.672-14.077-11.754-25.749-.7C2939.667,825.85,2939.751,822.83,2928.7,811.158Z" transform="translate(-2928 -811.158)" fill="#e6f4ff"/>
    </g>
    <g id="Group_8506" data-name="Group 8506" transform="translate(235.938)">
      <path id="Path_13754" data-name="Path 13754" d="M1966.777,595.909c11.056,11.672,14.077,11.754,25.749.7-11.672,11.056-11.754,14.077-.7,25.749-11.056-11.672-14.077-11.754-25.749-.7C1977.752,610.6,1977.832,607.581,1966.777,595.909Z" transform="translate(-1966.08 -595.909)" fill="#e6f4ff"/>
    </g>
    <g id="Group_8507" data-name="Group 8507" transform="translate(126.503 166.746)">
      <path id="Path_13755" data-name="Path 13755" d="M1706.217,992.926c11.056,11.672,14.077,11.754,25.749.7-11.672,11.056-11.754,14.077-.7,25.749-11.056-11.672-14.077-11.754-25.749-.7C1717.192,1007.619,1717.276,1004.6,1706.217,992.926Z" transform="translate(-1705.52 -992.926)" fill="#e6f4ff"/>
    </g>
    <g id="Group_8508" data-name="Group 8508" transform="translate(0 137.145)">
      <path id="Path_13756" data-name="Path 13756" d="M1405.017,922.446c11.056,11.672,14.077,11.754,25.749.7-11.672,11.056-11.754,14.077-.7,25.749-11.056-11.672-14.077-11.754-25.749-.7C1415.992,937.139,1416.072,934.118,1405.017,922.446Z" transform="translate(-1404.32 -922.446)" fill="#e6f4ff"/>
    </g>
    <g id="Group_8509" data-name="Group 8509" transform="translate(768.911 224.325)">
      <path id="Path_13757" data-name="Path 13757" d="M3235.767,1130.02c11.056,11.672,14.077,11.754,25.749.7-11.672,11.056-11.754,14.077-.7,25.749-11.056-11.672-14.077-11.754-25.749-.7C3246.742,1144.716,3246.822,1141.692,3235.767,1130.02Z" transform="translate(-3235.07 -1130.02)" fill="#e6f4ff"/>
    </g>
  </g>
  <path id="Path_13758" data-name="Path 13758" d="M2237.589,796.459l100.94-29.642a3.566,3.566,0,0,0,2.417-4.426l-41.2-140.29a3.567,3.567,0,0,0-4.427-2.417l-69.11,20.295a3.568,3.568,0,0,0-2.09,1.649l-22.855,39.908a3.567,3.567,0,0,0-.327,2.777l32.223,109.729A3.569,3.569,0,0,0,2237.589,796.459Z" transform="translate(-1830.136 -580.402)" fill="#fff"/>
  <path id="Path_13759" data-name="Path 13759" d="M2237.589,796.459l100.94-29.642a3.566,3.566,0,0,0,2.417-4.426l-41.2-140.29a3.567,3.567,0,0,0-4.427-2.417l-69.11,20.295a3.568,3.568,0,0,0-2.09,1.649l-22.855,39.908a3.567,3.567,0,0,0-.327,2.777l32.223,109.729A3.569,3.569,0,0,0,2237.589,796.459Z" transform="translate(-1830.136 -580.402)" fill="none" stroke="#f4c043" stroke-linecap="round" stroke-linejoin="round" stroke-miterlimit="10" stroke-width="8"/>
  <path id="Path_13760" data-name="Path 13760" d="M2226.821,673.386l8.427,28.7a3.818,3.818,0,0,1-2.573,4.735l-30,8.949" transform="translate(-1831.229 -611.633)" fill="#fff" stroke="#f4c043" stroke-linecap="round" stroke-linejoin="round" stroke-miterlimit="10" stroke-width="8"/>
  <g id="Group_8511" data-name="Group 8511" transform="translate(408.976 154.548)">
    <path id="Path_13761" data-name="Path 13761" d="M2305.881,950.756l-5.717,1.679a.84.84,0,0,1-1.042-.569l-7.059-24.037a.84.84,0,0,1,.569-1.042l5.717-1.679a.84.84,0,0,1,1.042.569l7.059,24.037A.838.838,0,0,1,2305.881,950.756Z" transform="translate(-2292.029 -912.16)" fill="rgba(244,192,67,0.49)"/>
    <path id="Path_13762" data-name="Path 13762" d="M2378.643,940.38l-5.717,1.679a.84.84,0,0,1-1.042-.569l-4.907-16.709a.84.84,0,0,1,.569-1.042l5.716-1.679a.84.84,0,0,1,1.043.569l4.907,16.709A.838.838,0,0,1,2378.643,940.38Z" transform="translate(-2335.479 -910.393)" fill="rgba(244,192,67,0.49)"/>
    <path id="Path_13763" data-name="Path 13763" d="M2410.571,920.012l-5.716,1.679a.841.841,0,0,1-1.043-.569l-7.059-24.037a.84.84,0,0,1,.569-1.042l5.717-1.679a.84.84,0,0,1,1.042.569l7.059,24.037A.838.838,0,0,1,2410.571,920.012Z" transform="translate(-2352.749 -894.329)" fill="rgba(244,192,67,0.49)"/>
    <path id="Path_13764" data-name="Path 13764" d="M2337.809,930.388l-5.717,1.679a.84.84,0,0,1-1.042-.569l-9.211-31.365a.84.84,0,0,1,.569-1.042l5.717-1.679a.841.841,0,0,1,1.043.569l9.211,31.365A.842.842,0,0,1,2337.809,930.388Z" transform="translate(-2309.299 -896.096)" fill="rgba(244,192,67,0.49)"/>
  </g>
  <g id="Group_8512" data-name="Group 8512" transform="translate(393.991 99.165)">
    <line id="Line_203" data-name="Line 203" y1="19.906" x2="67.788" fill="none" stroke="rgba(244,192,67,0.5)" stroke-linecap="round" stroke-linejoin="round" stroke-miterlimit="10" stroke-width="6"/>
    <line id="Line_204" data-name="Line 204" y1="19.907" x2="67.788" transform="translate(3.23 10.992)" fill="none" stroke="rgba(244,192,67,0.5)" stroke-linecap="round" stroke-linejoin="round" stroke-miterlimit="10" stroke-width="6"/>
    <line id="Line_205" data-name="Line 205" y1="19.906" x2="67.788" transform="translate(6.455 21.985)" fill="none" stroke="rgba(244,192,67,0.5)" stroke-linecap="round" stroke-linejoin="round" stroke-miterlimit="10" stroke-width="6"/>
  </g>
  <g id="Group_8514" data-name="Group 8514" transform="translate(460.071 122.662)">
    <path id="Path_13765" data-name="Path 13765" d="M2569.517,922.882l2.515-5.348a1.909,1.909,0,0,0-1.083-2.609l-33.784-12.133-1.482,2.674,31.14,18.251A1.91,1.91,0,0,0,2569.517,922.882Z" transform="translate(-2484.444 -867.351)" fill="#f4c043"/>
    <circle id="Ellipse_119" data-name="Ellipse 119" cx="27.37" cy="27.37" r="27.37" fill="#f4c043"/>
    <circle id="Ellipse_120" data-name="Ellipse 120" cx="21.665" cy="21.665" r="21.665" transform="translate(5.705 5.705)" fill="#fff"/>
    <circle id="Ellipse_121" data-name="Ellipse 121" cx="27.37" cy="27.37" r="27.37" fill="none" stroke="#f4c043" stroke-linecap="round" stroke-linejoin="round" stroke-width="8"/>
    <g id="Group_8513" data-name="Group 8513" transform="translate(27.23 16.864)">
      <line id="Line_206" data-name="Line 206" x1="0.164" y2="13.365" transform="translate(0.106)" fill="none" stroke="#f4c043" stroke-linecap="round" stroke-linejoin="round" stroke-width="8"/>
      <line id="Line_207" data-name="Line 207" transform="translate(0.01 21.002)" fill="none" stroke="#f4c043" stroke-linecap="round" stroke-linejoin="round" stroke-width="8"/>
      <circle id="Ellipse_122" data-name="Ellipse 122" cx="0.01" cy="0.01" r="0.01" transform="translate(0 20.993)" fill="none" stroke="#f4c043" stroke-linecap="round" stroke-linejoin="round" stroke-width="8"/>
    </g>
  </g>
  <path id="Path_13766" data-name="Path 13766" d="M2896.793,1152.031l-26.927,5.41,10.821,53.855-57.654,11.584-10.821-53.855-105.638,21.225-8.393-41.773,64.56-164.9,69.39-13.942,27.746,138.091,26.927-5.41ZM2787.17,1044.4l-30.516,84.069,45.568-9.156Z" transform="translate(-2118.622 -783.459)" fill="#786ce6"/>
  <path id="Path_13767" data-name="Path 13767" d="M1848.861,1187.059l-27.092-4.516-9.031,54.183-58.005-9.668,9.031-54.184-106.283-17.715,7.005-42.028L1783.45,981.956l69.814,11.636-23.157,138.934,27.092,4.516Zm-64.2-139.574-58.409,67.729,45.847,7.641Z" transform="translate(-1515.013 -790.604)" fill="#786ce6"/>
  <path id="Path_13779" data-name="Path 13779" d="M0,0H992.912V126H0Z" transform="translate(0 375.678)" fill="#fff"/>
  <g id="Group_8515" data-name="Group 8515" transform="translate(131.503 398.464)">
    <path id="Path_13768" data-name="Path 13768" d="M1666.74,1563.473h-35.157a.21.21,0,0,1-.21-.21v-1.489a.21.21,0,0,1,.21-.21h35.157a.21.21,0,0,1,.21.21v1.489A.211.211,0,0,1,1666.74,1563.473Z" transform="translate(-1631.373 -1525.243)" fill="rgba(120,108,230,0.49)"/>
    <path id="Path_13769" data-name="Path 13769" d="M1896.6,1563.473h-35.157a.21.21,0,0,1-.21-.21v-1.489a.21.21,0,0,1,.21-.21H1896.6a.21.21,0,0,1,.21.21v1.489A.211.211,0,0,1,1896.6,1563.473Z" transform="translate(-1764.692 -1525.243)" fill="rgba(120,108,230,0.49)"/>
    <path id="Path_13770" data-name="Path 13770" d="M2105.8,1509.483h-35.157a.21.21,0,0,1-.21-.21v-1.489a.21.21,0,0,1,.21-.21H2105.8a.21.21,0,0,1,.21.21v1.489A.211.211,0,0,1,2105.8,1509.483Z" transform="translate(-1886.029 -1493.928)" fill="rgba(120,108,230,0.49)"/>
    <path id="Path_13771" data-name="Path 13771" d="M2224.78,1569.183h-35.157a.21.21,0,0,1-.21-.21v-1.489a.21.21,0,0,1,.21-.21h35.157a.21.21,0,0,1,.21.21v1.489A.211.211,0,0,1,2224.78,1569.183Z" transform="translate(-1955.037 -1528.554)" fill="rgba(120,108,230,0.49)"/>
    <path id="Path_13772" data-name="Path 13772" d="M2518.34,1569.183h-35.157a.21.21,0,0,1-.21-.21v-1.489a.21.21,0,0,1,.21-.21h35.157a.21.21,0,0,1,.21.21v1.489A.211.211,0,0,1,2518.34,1569.183Z" transform="translate(-2125.303 -1528.554)" fill="rgba(120,108,230,0.49)"/>
    <path id="Path_13773" data-name="Path 13773" d="M2846.76,1565.813H2811.6a.21.21,0,0,1-.21-.21v-1.489a.21.21,0,0,1,.21-.21h35.157a.21.21,0,0,1,.21.21v1.489A.211.211,0,0,1,2846.76,1565.813Z" transform="translate(-2315.787 -1526.6)" fill="rgba(120,108,230,0.49)"/>
    <path id="Path_13774" data-name="Path 13774" d="M1803.44,1500.733h-35.157a.21.21,0,0,1-.21-.21v-1.489a.21.21,0,0,1,.21-.21h35.157a.21.21,0,0,1,.21.21v1.489A.208.208,0,0,1,1803.44,1500.733Z" transform="translate(-1710.659 -1488.853)" fill="rgba(120,108,230,0.49)"/>
    <path id="Path_13775" data-name="Path 13775" d="M2387.93,1498.523h-35.157a.21.21,0,0,1-.21-.21v-1.489a.21.21,0,0,1,.21-.21h35.157a.21.21,0,0,1,.21.21v1.489A.211.211,0,0,1,2387.93,1498.523Z" transform="translate(-2049.665 -1487.571)" fill="rgba(120,108,230,0.49)"/>
    <path id="Path_13776" data-name="Path 13776" d="M2983.45,1498.163h-35.157a.21.21,0,0,1-.21-.21v-1.489a.21.21,0,0,1,.21-.21h35.157a.21.21,0,0,1,.21.21v1.489A.211.211,0,0,1,2983.45,1498.163Z" transform="translate(-2395.068 -1487.363)" fill="rgba(120,108,230,0.49)"/>
    <path id="Path_13777" data-name="Path 13777" d="M2690.33,1476.993h-35.157a.21.21,0,0,1-.21-.21v-1.489a.21.21,0,0,1,.21-.21h35.157a.21.21,0,0,1,.21.21v1.489A.208.208,0,0,1,2690.33,1476.993Z" transform="translate(-2225.057 -1475.084)" fill="rgba(120,108,230,0.49)"/>
  </g>
</svg>
