<svg xmlns="http://www.w3.org/2000/svg" xmlns:xlink="http://www.w3.org/1999/xlink" width="1078.163" height="669.448" viewBox="0 0 1078.163 669.448">
  <defs>
    <clipPath id="clip-path">
      <path id="Path_15797" data-name="Path 15797" d="M353.716,409.985s-4.923,5.809-5.662,7.356c-.73,1.527-2.835,12.381-2.835,12.381a8.872,8.872,0,0,0,6.288,3.086l3.708-6.6s3.9,9.983,6.771,12.983c3.474,3.624,20.612,5.842,22.885,4.245,0,0,2.119-6.476-3.526-9.007C370.919,429.753,368.773,417,368.773,417A9.056,9.056,0,0,0,353.716,409.985Z" transform="translate(-345.219 -407.722)" fill="#3e2344"/>
    </clipPath>
    <clipPath id="clip-path-2">
      <path id="Path_15802" data-name="Path 15802" d="M330.427,414.341s-3.581,6.719-3.977,8.387c-.39,1.648-.15,12.7-.15,12.7a8.871,8.871,0,0,0,6.8,1.685l2.229-7.232s5.92,8.931,9.362,11.253c4.163,2.809,21.383,1.349,23.266-.695,0,0,.7-6.776-5.352-8.056-11.179-2.363-15.977-14.378-15.977-14.378A9.056,9.056,0,0,0,330.427,414.341Z" transform="translate(-326.227 -410.65)" fill="#3e2344"/>
    </clipPath>
    <clipPath id="clip-path-3">
      <path id="Path_15833" data-name="Path 15833" d="M428.325,409.277l-1.3,23.863s.828,5.038.815,6.734c-.013,1.672-.908,6.628-.908,6.628-2.119,1.525-8.786,1.962-12.141.964l-.643-.554a31.07,31.07,0,0,1-5.4,1.447c-4.839,1.094-19.174,1.271-21.282-.489,0,0-1.739-7.159,4.209-8.582,14.892-3.567,17.106-7.523,18.2-12.078,1.377-5.736,3.015-20.093,3.015-20.093Z" transform="translate(-387.228 -407.117)" fill="#ffb072"/>
    </clipPath>
    <clipPath id="clip-path-4">
      <path id="Path_15839" data-name="Path 15839" d="M433.828,407.789l-1.319,23.862s-1.375,4.917-1.547,6.6c-.169,1.664.176,6.687.176,6.687,1.941,1.75,8.519,2.913,11.965,2.289l.7-.481a30.991,30.991,0,0,0,5.207,2.032c4.69,1.616,18.919,3.362,21.208,1.843,0,0,2.513-6.923-3.243-8.991-14.411-5.177-16.18-9.353-16.767-14-.741-5.851-.8-20.3-.8-20.3Z" transform="translate(-430.915 -407.334)" fill="#ffb072"/>
    </clipPath>
    <clipPath id="clip-path-5">
      <path id="Path_15862" data-name="Path 15862" d="M467.874,219.093s-10.845-.136-16.059,5.435c-8.248,8.811-12.407,11.238-25.56,13.276,0,0,17.014-32.142,16.415-34.17s-1.943-5.816,2.3-6.23S468.121,208.548,467.874,219.093Z" transform="translate(-426.255 -197.393)" fill="#fd6141"/>
    </clipPath>
    <clipPath id="clip-path-6">
      <path id="Path_15865" data-name="Path 15865" d="M409.965,220.082s8.668-.708,13.77,5.589c4.805,5.928,7.757,11.127,17.79,11.576,0,0-7.007-31.38-6.568-33.449s.355-5.727-3.908-5.807S407.8,211.414,409.965,220.082Z" transform="translate(-409.794 -197.991)" fill="#fd6141"/>
    </clipPath>
    <clipPath id="clip-path-7">
      <path id="Path_15884" data-name="Path 15884" d="M516.1,406.665l-1.664,23.993s.758,5.082.721,6.788c-.039,1.683-1.012,6.658-1.012,6.658-2.157,1.5-8.872,1.843-12.232.791l-.639-.568s-.663.368-5.454,1.377c-4.885,1.029-19.313.994-21.409-.808,0,0-1.644-7.228,4.363-8.575,15.037-3.368,17.326-7.315,18.492-11.883,1.471-5.751,3.333-20.173,3.333-20.173Z" transform="translate(-474.202 -404.263)" fill="#207089"/>
    </clipPath>
    <clipPath id="clip-path-8">
      <path id="Path_15889" data-name="Path 15889" d="M528.952,406.469l.006,24.05s-1.107,5.017-1.187,6.723c-.078,1.681.552,6.71.552,6.71,2.045,1.65,8.721,2.452,12.149,1.633l.676-.522s.635.412,5.344,1.75c4.8,1.363,19.2,2.324,21.414.671,0,0,2.138-7.1-3.762-8.855-14.77-4.4-16.78-8.495-17.628-13.129-1.07-5.84-1.934-20.357-1.934-20.357Z" transform="translate(-527.764 -405.141)" fill="#207089"/>
    </clipPath>
    <clipPath id="clip-path-9">
      <path id="Path_15931" data-name="Path 15931" d="M191.445,408.683l-.006,24.253s1.116,5.06,1.2,6.78c.08,1.694-.555,6.765-.555,6.765-2.064,1.664-8.8,2.472-12.251,1.648l-.682-.528s-.641.418-5.391,1.765c-4.843,1.375-19.36,2.344-21.593.676,0,0-2.157-7.157,3.791-8.929,14.894-4.434,16.921-8.565,17.779-13.241,1.079-5.889,1.949-20.528,1.949-20.528Z" transform="translate(-151.784 -407.344)" fill="#207089"/>
    </clipPath>
    <clipPath id="clip-path-10">
      <path id="Path_15935" data-name="Path 15935" d="M205.05,408.882l1.679,24.2s-.765,5.125-.726,6.845c.037,1.7,1.02,6.712,1.02,6.712,2.173,1.518,8.946,1.861,12.336.8l.645-.572s.667.372,5.5,1.388c4.926,1.038,19.477,1,21.589-.815,0,0,1.657-7.289-4.4-8.645-15.165-3.4-17.472-7.378-18.65-11.983-1.482-5.8-3.358-20.346-3.358-20.346Z" transform="translate(-205.05 -406.458)" fill="#207089"/>
    </clipPath>
  </defs>
  <g id="Group_5814" data-name="Group 5814" transform="translate(-70.969 -72.029)">
    <g id="Group_5668" data-name="Group 5668" transform="translate(858.482 245.09)">
      <rect id="Rectangle_4597" data-name="Rectangle 4597" width="274.054" height="12.175" transform="translate(0 89.385)" fill="#c6c6c6"/>
      <g id="Group_5664" data-name="Group 5664" transform="translate(222.309 0)">
        <rect id="Rectangle_4598" data-name="Rectangle 4598" width="37.704" height="89.105" fill="#c6c6c6"/>
        <rect id="Rectangle_4599" data-name="Rectangle 4599" width="37.704" height="4.686" transform="translate(0 70.086)" fill="#fff"/>
        <rect id="Rectangle_4600" data-name="Rectangle 4600" width="37.704" height="4.686" transform="translate(0 4.032)" fill="#fff"/>
        <rect id="Rectangle_4601" data-name="Rectangle 4601" width="3.604" height="89.105" fill="#e4bce8" opacity="0.5"/>
        <rect id="Rectangle_4602" data-name="Rectangle 4602" width="3.604" height="89.105" transform="translate(34.1)" fill="#7c4284" opacity="0.5"/>
        <path id="Path_15757" data-name="Path 15757" d="M637.427,180.914a8.68,8.68,0,1,1-8.68-8.679A8.68,8.68,0,0,1,637.427,180.914Z" transform="translate(-609.894 -159.155)" fill="#e2e2e2"/>
        <circle id="Ellipse_519" data-name="Ellipse 519" cx="6.137" cy="6.137" r="6.137" transform="translate(12.715 15.622)" fill="#552f5e"/>
      </g>
      <g id="Group_5665" data-name="Group 5665" transform="translate(184.605 0)">
        <rect id="Rectangle_4603" data-name="Rectangle 4603" width="37.704" height="89.105" fill="#4694eb"/>
        <rect id="Rectangle_4604" data-name="Rectangle 4604" width="37.704" height="4.686" transform="translate(0 70.086)" fill="#fff"/>
        <rect id="Rectangle_4605" data-name="Rectangle 4605" width="37.704" height="4.686" transform="translate(0 4.032)" fill="#fff"/>
        <rect id="Rectangle_4606" data-name="Rectangle 4606" width="3.604" height="89.105" fill="#e4bce8" opacity="0.5"/>
        <rect id="Rectangle_4607" data-name="Rectangle 4607" width="3.604" height="89.105" transform="translate(34.1)" fill="#7c4284" opacity="0.5"/>
        <path id="Path_15758" data-name="Path 15758" d="M617.128,180.914a8.68,8.68,0,1,1-8.679-8.679A8.68,8.68,0,0,1,617.128,180.914Z" transform="translate(-589.597 -159.155)" fill="#e2e2e2"/>
        <circle id="Ellipse_520" data-name="Ellipse 520" cx="6.137" cy="6.137" r="6.137" transform="translate(12.715 15.622)" fill="#552f5e"/>
      </g>
      <g id="Group_5666" data-name="Group 5666" transform="translate(146.901 0)">
        <rect id="Rectangle_4608" data-name="Rectangle 4608" width="37.704" height="89.105" fill="#dc688e"/>
        <rect id="Rectangle_4609" data-name="Rectangle 4609" width="37.704" height="4.686" transform="translate(0 70.086)" fill="#fff"/>
        <rect id="Rectangle_4610" data-name="Rectangle 4610" width="37.704" height="4.686" transform="translate(0 4.032)" fill="#fff"/>
        <rect id="Rectangle_4611" data-name="Rectangle 4611" width="3.605" height="89.105" fill="#e4bce8" opacity="0.5"/>
        <rect id="Rectangle_4612" data-name="Rectangle 4612" width="3.605" height="89.105" transform="translate(34.1)" fill="#7c4284" opacity="0.5"/>
        <path id="Path_15759" data-name="Path 15759" d="M596.831,180.914a8.68,8.68,0,1,1-8.681-8.679A8.68,8.68,0,0,1,596.831,180.914Z" transform="translate(-569.299 -159.155)" fill="#e2e2e2"/>
        <circle id="Ellipse_521" data-name="Ellipse 521" cx="6.137" cy="6.137" r="6.137" transform="translate(12.715 15.622)" fill="#552f5e"/>
      </g>
      <g id="Group_5667" data-name="Group 5667" transform="translate(109.197 0)">
        <rect id="Rectangle_4613" data-name="Rectangle 4613" width="37.704" height="89.105" fill="#786ce6"/>
        <rect id="Rectangle_4614" data-name="Rectangle 4614" width="37.704" height="4.686" transform="translate(0 70.086)" fill="#fff"/>
        <rect id="Rectangle_4615" data-name="Rectangle 4615" width="37.704" height="4.686" transform="translate(0 4.032)" fill="#fff"/>
        <rect id="Rectangle_4616" data-name="Rectangle 4616" width="3.604" height="89.105" fill="#e4bce8" opacity="0.5"/>
        <rect id="Rectangle_4617" data-name="Rectangle 4617" width="3.604" height="89.105" transform="translate(34.1)" fill="#7c4284" opacity="0.5"/>
        <path id="Path_15760" data-name="Path 15760" d="M576.533,180.914a8.68,8.68,0,1,1-8.679-8.679A8.68,8.68,0,0,1,576.533,180.914Z" transform="translate(-549.002 -159.155)" fill="#e2e2e2"/>
        <circle id="Ellipse_522" data-name="Ellipse 522" cx="6.137" cy="6.137" r="6.137" transform="translate(12.715 15.622)" fill="#552f5e"/>
      </g>
    </g>
    <g id="Group_5683" data-name="Group 5683" transform="translate(778.802 136.075)">
      <circle id="Ellipse_523" data-name="Ellipse 523" cx="57.648" cy="57.648" r="57.648" transform="translate(0 81.527) rotate(-45)" fill="#786ce6"/>
      <circle id="Ellipse_524" data-name="Ellipse 524" cx="47.916" cy="47.916" r="47.916" transform="translate(13.763 81.527) rotate(-45)" fill="#292d34"/>
      <circle id="Ellipse_525" data-name="Ellipse 525" cx="45.823" cy="45.823" r="45.823" transform="translate(35.703 35.703)" fill="#fff"/>
      <rect id="Rectangle_4618" data-name="Rectangle 4618" width="5.309" height="33.492" transform="translate(109.647 63.477) rotate(62.463)" fill="#786ce6"/>
      <rect id="Rectangle_4619" data-name="Rectangle 4619" width="2.517" height="43.512" transform="translate(80.268 81.527) rotate(-27.401)" fill="#786ce6"/>
      <path id="Path_15773" data-name="Path 15773" d="M501.254,152.084a3.658,3.658,0,1,1-3.658-3.658A3.656,3.656,0,0,1,501.254,152.084Z" transform="translate(-416.07 -70.558)" fill="#292d34"/>
      <g id="Group_5679" data-name="Group 5679" transform="translate(41.543 41.891)">
        <g id="Group_5677" data-name="Group 5677" transform="translate(38.324 0.001)">
          <rect id="Rectangle_4620" data-name="Rectangle 4620" width="3.319" height="6.963" fill="#292d34"/>
          <rect id="Rectangle_4621" data-name="Rectangle 4621" width="3.319" height="6.963" transform="translate(0 73.006)" fill="#292d34"/>
        </g>
        <g id="Group_5678" data-name="Group 5678" transform="translate(-0.001 38.325)">
          <rect id="Rectangle_4622" data-name="Rectangle 4622" width="3.319" height="6.963" transform="translate(79.969 0) rotate(90)" fill="#292d34"/>
          <rect id="Rectangle_4623" data-name="Rectangle 4623" width="3.319" height="6.963" transform="translate(6.963 0) rotate(90)" fill="#292d34"/>
        </g>
      </g>
      <g id="Group_5682" data-name="Group 5682" transform="translate(52.081 52.429)">
        <g id="Group_5680" data-name="Group 5680" transform="translate(-0.001 0)">
          <rect id="Rectangle_4624" data-name="Rectangle 4624" width="3.32" height="6.963" transform="translate(56.546 0) rotate(45)" fill="#292d34"/>
          <rect id="Rectangle_4625" data-name="Rectangle 4625" width="3.32" height="6.963" transform="translate(4.924 51.623) rotate(45)" fill="#292d34"/>
        </g>
        <g id="Group_5681" data-name="Group 5681" transform="translate(-0.001 0)">
          <rect id="Rectangle_4626" data-name="Rectangle 4626" width="3.32" height="6.963" transform="translate(58.894 56.546) rotate(135)" fill="#292d34"/>
          <rect id="Rectangle_4627" data-name="Rectangle 4627" width="3.32" height="6.963" transform="translate(7.271 4.924) rotate(135)" fill="#292d34"/>
        </g>
      </g>
    </g>
    <g id="Group_5692" data-name="Group 5692" transform="translate(70.969 355.86)">
      <g id="Group_5684" data-name="Group 5684">
        <path id="Path_15774" data-name="Path 15774" d="M1148.468,563.058H76.986c-.017.095-.032.173-.048.267a13.165,13.165,0,0,1-.836,2.48c-.554,1.122-1.217,1.389-1.564.6a2.563,2.563,0,0,1-.158-.979,11.853,11.853,0,0,1,.316-2.368H70.969a217.69,217.69,0,0,1,8.876-30.528C118.835,426.5,254.95,426.754,284.229,353c29.3-73.766,64.007-129.466,120.622-128.155,56.632,1.295,143.6,135.15,219.5,122.643s130.239-106.9,244.781-91.027c49.1,6.806,117.228,133.224,178.724,146.19C1096.258,412.872,1156.111,495.5,1148.468,563.058Z" transform="translate(-70.969 -224.825)" fill="#f7f0e3"/>
        <path id="Path_15775" data-name="Path 15775" d="M77,557.588a207.132,207.132,0,0,1,7.787-26.121c19.772-53.757,66.912-78.219,112.5-101.877,39.544-20.53,76.893-39.906,91.77-77.35,34.079-85.817,67.085-122.014,110.389-121.018l.489.015c21.178.869,50.458,25.742,81.474,52.068,38.407,32.628,81.947,69.6,124.38,71.335a75.177,75.177,0,0,0,15.019-.884c31.791-5.244,59.064-23.231,87.949-42.262,39.243-25.867,79.815-52.62,136.62-50.3,5.638.236,11.433.758,17.214,1.564,19.913,2.762,47.883,33.685,74.935,63.6,33.384,36.89,67.908,75.061,103.092,82.482,37.38,7.882,88.295,70.545,92.227,129.736a94.363,94.363,0,0,1-.568,19.014" transform="translate(-65.8 -219.355)" fill="none" stroke="#fff" stroke-miterlimit="10" stroke-width="1.224"/>
        <path id="Path_15776" data-name="Path 15776" d="M930.183,520.447H151A156.4,156.4,0,0,1,157.7,497.01c28.191-76.672,126.609-76.482,147.771-129.813s46.287-93.6,87.221-92.669c40.934.947,103.835,97.724,158.7,88.69,54.879-9.033,94.17-77.3,176.987-65.824,35.517,4.928,84.773,96.334,129.228,105.715C892.914,410.564,936.69,471.364,930.183,520.447Z" transform="translate(-2.333 -182.214)" fill="#786ce6" opacity="0.5" style="mix-blend-mode: multiply;isolation: isolate"/>
      </g>
      <g id="Group_5691" data-name="Group 5691" transform="translate(3.411 280.915)">
        <g id="Group_5690" data-name="Group 5690">
          <g id="Group_5685" data-name="Group 5685" transform="translate(0 53.523)">
            <path id="Path_15777" data-name="Path 15777" d="M75.742,406.32a14.622,14.622,0,0,1-.331,2.339c-.017.095-.032.173-.048.267a13.165,13.165,0,0,1-.836,2.48c-.554,1.122-1.217,1.389-1.564.6a2.562,2.562,0,0,1-.158-.979,11.854,11.854,0,0,1,.316-2.368c.017-.095.032-.175.048-.269a10.991,10.991,0,0,1,.868-2.511c.585-1.105,1.295-1.341,1.6-.537A3.046,3.046,0,0,1,75.742,406.32Z" transform="translate(-72.805 -404.864)" fill="#fff"/>
          </g>
          <g id="Group_5686" data-name="Group 5686" transform="translate(2.473 43.918)">
            <path id="Path_15778" data-name="Path 15778" d="M74.143,405.707a13.387,13.387,0,0,1,.52-2.612,11.165,11.165,0,0,1,1.024-2.459c.652-1.068,1.371-1.254,1.612-.427a2.717,2.717,0,0,1,.065.97,16.082,16.082,0,0,1-.539,2.578,13.254,13.254,0,0,1-.988,2.441c-.615,1.074-1.3,1.311-1.594.492A2.56,2.56,0,0,1,74.143,405.707Z" transform="translate(-74.136 -399.694)" fill="#fff"/>
          </g>
          <g id="Group_5687" data-name="Group 5687" transform="translate(5.353 19.155)">
            <path id="Path_15779" data-name="Path 15779" d="M75.869,407.553a106.059,106.059,0,0,1,8.207-19.826c.593-1.066,1.363-1.622,1.724-1.248.3.308.223,1.144-.136,2.015L81.557,398.3c-1.4,3.254-2.654,6.563-4.025,9.838-.479,1.107-1.154,1.763-1.564,1.44C75.632,409.314,75.594,408.465,75.869,407.553Z" transform="translate(-75.687 -386.362)" fill="#fff"/>
          </g>
          <g id="Group_5688" data-name="Group 5688" transform="translate(17.834 9.165)">
            <path id="Path_15780" data-name="Path 15780" d="M82.429,384.227a5.04,5.04,0,0,1,.55-1.523,4.707,4.707,0,0,1,.99-1.278c1.012-.825,1.7-.455,1.546.8l-.009.065a5.188,5.188,0,0,1-.548,1.508,4.957,4.957,0,0,1-.977,1.269c-.979.838-1.681.509-1.56-.763Z" transform="translate(-82.406 -380.985)" fill="#fff"/>
          </g>
          <g id="Group_5689" data-name="Group 5689" transform="translate(23.14)">
            <path id="Path_15781" data-name="Path 15781" d="M85.314,379.124a5.059,5.059,0,0,1,1.728-2.7c1.079-.756,1.722-.314,1.48.916l-.013.067a5.343,5.343,0,0,1-1.7,2.656c-1.033.771-1.716.4-1.508-.86Z" transform="translate(-85.262 -376.051)" fill="#fff"/>
          </g>
        </g>
      </g>
    </g>
    <g id="Group_5694" data-name="Group 5694" transform="translate(384.049 196.62)">
      <g id="Group_5693" data-name="Group 5693">
        <rect id="Rectangle_4628" data-name="Rectangle 4628" width="377.581" height="246.413" fill="#f5f5f5"/>
        <rect id="Rectangle_4629" data-name="Rectangle 4629" width="359.88" height="201.341" transform="translate(8.85 34.186)" fill="#fff"/>
        <rect id="Rectangle_4630" data-name="Rectangle 4630" width="377.581" height="25.037" fill="#e0e0e0"/>
        <path id="Path_15782" data-name="Path 15782" d="M604.156,321.326H548.289v-39.4h55.867v-2.114H548.289V240.4h55.867v-2.112H548.289v-39.4h55.867v-2.114H548.289V157.5h-2.1v39.271H486.762V157.5h-2.1v39.271H425.237V157.5h-2.1v39.271H363.71V157.5h-2.1v39.271H302.185V157.5h-2.1v39.271H244.275v2.114h55.807v39.4H244.275V240.4h55.807v39.4H244.275v2.114h55.807v39.4H244.275v2.114h55.807v35.016h2.1V323.44h59.422v35.016h2.1V323.44h59.422v35.016h2.1V323.44h59.422v35.016h2.1V323.44h59.424v35.016h2.1V323.44h55.867ZM423.132,279.809H363.71V240.4h59.422Zm2.1-39.4h59.422v39.4H425.237Zm61.525,39.4V240.4h59.424v39.4Zm0-41.517v-39.4h59.424v39.4Zm-2.1,0H425.237v-39.4h59.422Zm-61.527,0H363.71v-39.4h59.422Zm-61.525,0H302.185v-39.4h59.422Zm0,2.112v39.4H302.185V240.4Zm0,41.519v39.4H302.185v-39.4Zm2.1,0h59.422v39.4H363.71Zm61.527,0h59.422v39.4H425.237Zm61.525,0h59.424v39.4H486.762Z" transform="translate(-235.425 -123.318)" fill="#e2e2e2"/>
      </g>
      <rect id="Rectangle_4631" data-name="Rectangle 4631" width="19.548" height="29.613" transform="translate(129.313 79.265) rotate(-9.209)" fill="#ffbe57"/>
      <rect id="Rectangle_4632" data-name="Rectangle 4632" width="19.548" height="29.613" transform="translate(100.891 118.825) rotate(8.074)" fill="#ff8976"/>
      <rect id="Rectangle_4633" data-name="Rectangle 4633" width="19.548" height="29.613" transform="matrix(0.998, 0.07, -0.07, 0.998, 104.417, 120.682)" fill="#71bf9d"/>
    </g>
    <g id="Group_5701" data-name="Group 5701" transform="translate(432.687 431.654)">
      <path id="Path_15783" data-name="Path 15783" d="M305.394,410.13,280.266,434.9s-7.077,8.235,12.18,8.235H907.719s11.541-.632,3.845-12.089-27.308-20.918-27.308-20.918Z" transform="translate(-254.286 -141.704)" fill="#4694eb" opacity="0.3"/>
      <g id="Group_5700" data-name="Group 5700">
        <path id="Path_15784" data-name="Path 15784" d="M300.147,315.874s-16.076,146.357-20.458,199.861c-.589,7.189,11.827,9.084,12.994,1.993,7.533-45.8,31.7-201.854,31.7-201.854Z" transform="translate(-253.709 -222.536)" fill="#ffdcae"/>
        <path id="Path_15785" data-name="Path 15785" d="M311.137,315.874S297.053,444.09,293.215,490.962c-.516,6.3,10.362,7.958,11.383,1.744,6.6-40.124,27.773-176.833,27.773-176.833Z" transform="translate(-242.107 -222.536)" fill="#fcbd92"/>
        <path id="Path_15786" data-name="Path 15786" d="M604.981,315.874S619.065,444.09,622.9,490.962c.514,6.3-10.363,7.958-11.385,1.744-6.6-40.124-27.771-176.833-27.771-176.833Z" transform="translate(7.065 -222.536)" fill="#fcbd92"/>
        <path id="Path_15787" data-name="Path 15787" d="M619.694,315.874s16.077,146.357,20.459,199.861c.589,7.189-11.829,9.084-13,1.993-7.531-45.8-31.7-201.854-31.7-201.854Z" transform="translate(17.105 -222.536)" fill="#ffdcae"/>
        <path id="Rectangle_4634" data-name="Rectangle 4634" d="M0,0H621.2a0,0,0,0,1,0,0V14.275A10.257,10.257,0,0,1,610.94,24.532H10.257A10.257,10.257,0,0,1,0,14.275V0A0,0,0,0,1,0,0Z" transform="translate(32.236 76.884)" fill="#eaa677"/>
        <g id="Group_5695" data-name="Group 5695" transform="translate(0 55.725)">
          <rect id="Rectangle_4635" data-name="Rectangle 4635" width="685.669" height="10.311" transform="translate(0 18.612)" fill="#fcbd92"/>
          <path id="Path_15788" data-name="Path 15788" d="M298.55,295.625l-32.856,18.612H951.363l-30.3-18.612Z" transform="translate(-265.694 -295.625)" fill="#ffdcae"/>
        </g>
      </g>
    </g>
    <g id="Group_5729" data-name="Group 5729" transform="translate(517.177 225.608)">
      <path id="Path_15793" data-name="Path 15793" d="M325.876,178.892c5.407-16.464,15.132-15.788,15.132-15.788s4.544-14.313,30.535-5.571c12.138,3.113,27.769,21.145,17.433,52.438-3.394,10.278,12.513,18.552,9.652,43.989-2.532,22.525-80,21.046-83.872.438-4.447-23.7,16.245-26.9,14.614-39.139C327.7,202.71,322.588,188.9,325.876,178.892Z" transform="translate(-308.647 -154.705)" fill="#292d34"/>
      <path id="Path_15794" data-name="Path 15794" d="M365.024,203.046c29.684,20.931,50.155,70.765,43.746,78.832s-18.8.477-25.815-7.226c-9.933-10.908-32.811-43.146-35.458-49.261C341.07,210.534,359.927,199.454,365.024,203.046Z" transform="translate(-281.163 -113.833)" fill="#786ce6"/>
      <g id="Group_5705" data-name="Group 5705" transform="translate(48.113 184.56)">
        <g id="Group_5704" data-name="Group 5704" transform="translate(15.121 285.439)">
          <g id="Group_5703" data-name="Group 5703">
            <path id="Path_15795" data-name="Path 15795" d="M353.716,409.985s-4.923,5.809-5.662,7.356c-.73,1.527-2.835,12.381-2.835,12.381a8.872,8.872,0,0,0,6.288,3.086l3.708-6.6s3.9,9.983,6.771,12.983c3.474,3.624,20.612,5.842,22.885,4.245,0,0,2.119-6.476-3.526-9.007C370.919,429.753,368.773,417,368.773,417A9.056,9.056,0,0,0,353.716,409.985Z" transform="translate(-345.219 -407.722)" fill="#3e2344"/>
            <g id="Group_5702" data-name="Group 5702" clip-path="url(#clip-path)">
              <path id="Path_15796" data-name="Path 15796" d="M388.2,437.8c-.314-.108-21.475.2-24.841-5.55-2.636-4.5-5.118-12.386-6.372-13.166s-7.4-6.178-7.4-6.178l-6.137,15.695L378.609,450.2Z" transform="translate(-346.744 -403.281)" fill="#7c4284"/>
            </g>
          </g>
          <path id="Path_15798" data-name="Path 15798" d="M363.537,422.188l-2.744,1.027s-2.422-2.459-2.612-4.971l2.621-1.382a.982.982,0,0,1,1.321.4l1.932,3.533A.985.985,0,0,1,363.537,422.188Z" transform="translate(-334.102 -399.98)" fill="#f7b614"/>
        </g>
        <path id="Path_15799" data-name="Path 15799" d="M408.9,417.618c.123-20.909-15.21-103.2-29.108-150.851-6.37-21.836-27.959-12.372-37.607,4.7-21.656,38.318,32.669,140.106,30.357,152.567A741.327,741.327,0,0,0,360.7,541.762c.228,5.049,15.282,14.686,15.431,5.305C376.127,547.067,408.8,434.695,408.9,417.618Z" transform="translate(-337.079 -254.06)" fill="#19323a"/>
      </g>
      <g id="Group_5709" data-name="Group 5709" transform="translate(8.561 198.414)">
        <g id="Group_5708" data-name="Group 5708" transform="translate(19.394 277.025)">
          <g id="Group_5707" data-name="Group 5707">
            <path id="Path_15800" data-name="Path 15800" d="M330.427,414.341s-3.581,6.719-3.977,8.387c-.39,1.648-.15,12.7-.15,12.7a8.871,8.871,0,0,0,6.8,1.685l2.229-7.232s5.92,8.931,9.362,11.253c4.163,2.809,21.383,1.349,23.266-.695,0,0,.7-6.776-5.352-8.056-11.179-2.363-15.977-14.378-15.977-14.378A9.056,9.056,0,0,0,330.427,414.341Z" transform="translate(-326.227 -410.65)" fill="#3e2344"/>
            <g id="Group_5706" data-name="Group 5706" clip-path="url(#clip-path-2)">
              <path id="Path_15801" data-name="Path 15801" d="M370.593,433.311c-.329-.039-20.946,4.742-25.453-.167-3.529-3.843-7.624-11.023-9.013-11.519s-8.545-4.473-8.545-4.473l-2.677,16.638,38.944,13.677Z" transform="translate(-327.359 -405.074)" fill="#7c4284"/>
            </g>
          </g>
          <path id="Path_15803" data-name="Path 15803" d="M344.579,422.987l-2.463,1.585s-2.889-1.891-3.605-4.3l2.27-1.906a.981.981,0,0,1,1.375.11l2.636,3.046A.984.984,0,0,1,344.579,422.987Z" transform="translate(-315.693 -404.235)" fill="#f7b614"/>
        </g>
        <path id="Path_15804" data-name="Path 15804" d="M363.119,331.541l-1.213-54.189c-7.794-17.8-34.421-23.264-42.019-2.309-14.186,39.128,12.427,181.844,19.49,268.891,1.284,6.143,16.105,7.36,15.606.011C354.982,543.945,362.01,356.11,363.119,331.541Z" transform="translate(-315.786 -261.518)" fill="#19323a"/>
      </g>
      <g id="Group_5710" data-name="Group 5710" transform="translate(0 143.471)">
        <path id="Path_15805" data-name="Path 15805" d="M328.558,267.548s-10.111,9.927-13.291,32.183-4.089,75.843-4.089,75.843,61.375,22.629,116.586-2.22c0,0-14.292-95.242-28.945-108.08S342.757,249.485,328.558,267.548Z" transform="translate(-311.178 -212.318)" fill="#786ce6"/>
        <path id="Path_15806" data-name="Path 15806" d="M400.418,301.93c-.94,4.289-17.467,14.19-41.24,13.412S316.709,307.5,317.72,301.3c2.387-14.647,17.682-70.129,41.458-69.351S403.013,290.071,400.418,301.93Z" transform="translate(-305.601 -231.941)" fill="#786ce6"/>
      </g>
      <path id="Path_15807" data-name="Path 15807" d="M313.67,220.672c7.3-15.4,43.458-26.121,45.319-27.132,0,0,34.967,12.726,39.418,21.957.884,1.833-3.975,8.041-4.733,15.529-.323,3.18,3.669,14.053,3.156,17.81-1.69,12.377-6.353,31.074-4.8,35.35,2.175,5.981,11.333,36.548,13.971,45.379a2.986,2.986,0,0,1-1.493,3.567c-36.565,17.279-66.423,9.245-84.509-.823-1.282-.713-2.235-1.848-1.867-3.267,2.237-8.606,12.217-33.968,15.013-41.734C336.9,276.884,308.022,232.579,313.67,220.672Z" transform="translate(-309.671 -121.401)" fill="#6a5ce9"/>
      <path id="Path_15808" data-name="Path 15808" d="M323.992,242.589s7.2,27.68,19,28.3,42.524-21.418,42.524-21.418Z" transform="translate(-300.189 -79.338)" fill="#786ce6"/>
      <g id="Group_5715" data-name="Group 5715" transform="translate(28.054 77.379)">
        <g id="Group_5711" data-name="Group 5711">
          <path id="Path_15809" data-name="Path 15809" d="M352.843,234.468a.642.642,0,0,1-.455-.188c-15.873-15.632-24.637-27.745-26.1-35.153-.069-.353,1.295-.749,1.365-.4,1.388,7.014,10.111,19.295,25.441,34.419l4.317-.3c8.11-16.663,8.452-30.739,4.111-36.316-.219-.282,1.425-.18,1.644.1,4.707,6.043,3.736,19.774-4.752,37.118a.652.652,0,0,1-.539.364l-4.982.351Z" transform="translate(-326.281 -196.361)" fill="#292d34"/>
        </g>
        <g id="Group_5714" data-name="Group 5714" transform="translate(11.082 35.535)">
          <g id="Group_5712" data-name="Group 5712" transform="translate(0 3.403)">
            <rect id="Rectangle_4636" data-name="Rectangle 4636" width="36.768" height="23.485" rx="0.773" transform="matrix(0.998, -0.071, 0.071, 0.998, 0, 2.594)" fill="#fff"/>
            <rect id="Rectangle_4637" data-name="Rectangle 4637" width="10.843" height="13.783" rx="0.621" transform="translate(2.635 8.171) rotate(-4.045)" fill="#786ce6"/>
          </g>
          <rect id="Rectangle_4638" data-name="Rectangle 4638" width="9.43" height="1.442" transform="translate(13.699 5.949) rotate(-4.046)" fill="#3e2344"/>
          <path id="Rectangle_4639" data-name="Rectangle 4639" d="M.323,0H4.672A.324.324,0,0,1,5,.324V5.862a.323.323,0,0,1-.323.323H.323A.323.323,0,0,1,0,5.862V.323A.323.323,0,0,1,.323,0Z" transform="matrix(0.998, -0.071, 0.071, 0.998, 15.369, 0.352)" fill="#292d34"/>
          <g id="Group_5713" data-name="Group 5713" transform="translate(17.443 9.342)">
            <rect id="Rectangle_4640" data-name="Rectangle 4640" width="16.782" height="1.581" transform="translate(0 1.184) rotate(-4.045)" fill="#a1abad"/>
            <rect id="Rectangle_4641" data-name="Rectangle 4641" width="16.782" height="1.581" transform="matrix(0.998, -0.071, 0.071, 0.998, 0.234, 4.492)" fill="#a1abad"/>
            <rect id="Rectangle_4642" data-name="Rectangle 4642" width="16.782" height="1.581" transform="translate(0.468 7.8) rotate(-4.045)" fill="#a1abad"/>
            <rect id="Rectangle_4643" data-name="Rectangle 4643" width="16.782" height="1.581" transform="translate(0.861 13.356) rotate(-4.046)" fill="#a1abad"/>
          </g>
        </g>
      </g>
      <path id="Path_15810" data-name="Path 15810" d="M338.524,227.594c21.8-.392,61.321,2.866,77.766,11.487,3.869,2.029,10.571,9.11,8.021,18.548s-16.328,6.6-16.328,6.6-52.115-9.86-65.418-14.443C327.823,244.707,327.639,227.791,338.524,227.594Z" transform="translate(-294.292 -92.224)" fill="#786ce6"/>
      <g id="Group_5716" data-name="Group 5716" transform="translate(65.323 34.586)">
        <path id="Path_15811" data-name="Path 15811" d="M348.625,185.708c-2.426-1.832-3.056-7.746-1.217-10.715a3.439,3.439,0,0,1,4.473-1.33c2.324.944,3.017,3.873,2.738,6.769C354.287,183.906,351.274,187.707,348.625,185.708Z" transform="translate(-346.344 -173.324)" fill="#ffb072" fill-rule="evenodd"/>
        <path id="Path_15812" data-name="Path 15812" d="M348.628,183.031l.572-3.182-1.924-.544s.268-5.831,3.52-4.167C353.469,176.505,351.81,183.748,348.628,183.031Z" transform="translate(-345.544 -172.025)" fill="#e57e55"/>
      </g>
      <g id="Group_5718" data-name="Group 5718" transform="translate(1.818 88.826)">
        <path id="Path_15813" data-name="Path 15813" d="M378.315,249.466a22.467,22.467,0,0,0,9.422-4.2c2.489-2.034,5.443,5.188,5.443,5.188s2.526-5.43-.751-10.035c-.658-.925.2-2.6-.869-4.458s-1.5-.888-2.339-2.27-.44-2.006-.986-3.407-1.616-1.079-2.523-1.958-1.245-2.4-2.339-2.864c-2.151-.918-4.362.253-5.409.737-3.474,1.609-8.337,5.8-10.1,9.479C366.122,239.3,363.571,251.212,378.315,249.466Z" transform="translate(-265.542 -183.143)" fill="#ffb072"/>
        <g id="Group_5717" data-name="Group 5717">
          <path id="Path_15814" data-name="Path 15814" d="M312.31,227c-1.971-21.622,15.492-33.041,26.888-16.83,8.461,12.037,17.006,54.6,22.393,56.914,4.425,1.9,52.707-12.853,52.707-12.853,7.633.175,11.355,13.518,8.768,18.217-32.37,14.231-60.191,30.8-72.968,24.756C334.346,289.759,314.255,248.355,312.31,227Z" transform="translate(-312.156 -202.523)" fill="#786ce6"/>
        </g>
      </g>
      <g id="Group_5728" data-name="Group 5728" transform="translate(22.956 7.494)">
        <path id="Path_15815" data-name="Path 15815" d="M337.627,181.224s-.078,9.867-2.433,17.727-4.313,9.433-7.741,12.942c-3.137,3.215,23.744,16.6,23.744,16.6s2.892,7.518,4.289,7.835l.782-8.389s9.86-9.684,5.838-14.816c-5.972-7.62-8.339-5.684-7.157-16.508,1.027-9.435,1.67-14.671,1.67-14.671Z" transform="translate(-320.396 -139.457)" fill="#ffb072"/>
        <g id="Group_5727" data-name="Group 5727">
          <g id="Group_5726" data-name="Group 5726" transform="translate(4.545 6.53)">
            <g id="Group_5725" data-name="Group 5725">
              <g id="Group_5719" data-name="Group 5719">
                <path id="Path_15816" data-name="Path 15816" d="M336.7,197.926s5.617,19.384,23.989,15.156c9.225-2.121,11.06-20.753,6.71-26.261a32.176,32.176,0,0,0-2.673-17.562c-3.407-7.441-19.126-9.44-31.269-3.626,0,0-3.128,4.037.643,19.388a4.809,4.809,0,0,0-6.169.106c-2.571,1.952-2.316,5.616-.845,8.879C328.847,197.922,333.647,200.8,336.7,197.926Z" transform="translate(-325.983 -162.255)" fill="#ffb072" fill-rule="evenodd"/>
                <path id="Path_15817" data-name="Path 15817" d="M333.985,185.01l-1.952-3.489,2.224-1.343s-2.591-6.682-6.059-3.546C325.347,179.209,330.24,187.018,333.985,185.01Z" transform="translate(-324.816 -150.643)" fill="#e57e55"/>
              </g>
              <g id="Group_5724" data-name="Group 5724" transform="translate(17.234 17.091)">
                <g id="Group_5720" data-name="Group 5720" transform="translate(7.295 19.518)">
                  <path id="Path_15818" data-name="Path 15818" d="M350.523,183.376s-1.731-2.894-11.335-.4C341.083,187.97,350.6,189.124,350.523,183.376Z" transform="translate(-339.188 -181.963)" fill="#fd6141"/>
                  <path id="Path_15819" data-name="Path 15819" d="M350.523,182.908a33.217,33.217,0,0,1-11.335-.4" transform="translate(-339.188 -181.495)" fill="#e57e55" stroke="#e57e55" stroke-miterlimit="10" stroke-width="0.34" style="mix-blend-mode: multiply;isolation: isolate"/>
                </g>
                <g id="Group_5721" data-name="Group 5721" transform="translate(14.765)">
                  <path id="Path_15820" data-name="Path 15820" d="M349.6,176.169c.059.888-1.081,1.128-2.5,1.222s-2.584.013-2.645-.875,1.046-1.685,2.467-1.78S349.54,175.281,349.6,176.169Z" transform="translate(-342.147 -168.651)" fill="#292d34"/>
                  <path id="Path_15821" data-name="Path 15821" d="M353.021,174.876c.061.123-3.669-2.086-4.564-2.136-1.037-.058-3.983,1.91-4.38,1.5a6.988,6.988,0,0,1-.867-1.358s4.5-1.579,5.523-1.419S352.488,173.836,353.021,174.876Z" transform="translate(-343.209 -171.456)" fill="#292d34"/>
                </g>
                <g id="Group_5722" data-name="Group 5722" transform="translate(0 0.55)">
                  <path id="Path_15822" data-name="Path 15822" d="M342.583,176.643c.061.888-1.081,1.126-2.5,1.222s-2.586.013-2.645-.875,1.044-1.685,2.465-1.781S342.524,175.755,342.583,176.643Z" transform="translate(-333.397 -168.795)" fill="#292d34"/>
                  <path id="Path_15823" data-name="Path 15823" d="M335.261,175.281c-.052.128,4.109-2.367,5.255-2.253s4.965,1.367,5.38.925a5.828,5.828,0,0,0,.8-1.434s-5.452-.97-6.7-.728S335.709,174.191,335.261,175.281Z" transform="translate(-335.261 -171.752)" fill="#292d34"/>
                </g>
                <g id="Group_5723" data-name="Group 5723" transform="translate(12.806 2.528)">
                  <path id="Path_15824" data-name="Path 15824" d="M345.478,181.489s-3.262.384-3.323-.516,6.585-2.909,7.057-2.326S346.875,180.861,345.478,181.489Z" transform="translate(-342.155 -167.907)" fill="#e57e55" opacity="0.5"/>
                  <path id="Path_15825" data-name="Path 15825" d="M343.177,172.817s-.332,4.211.377,5.6,4.193,4.239,4.362,4.926-3.009,2.916-3.247,3.056,4.8-1.434,4.4-3.011-4.835-5.008-5.092-5.772S343.177,172.817,343.177,172.817Z" transform="translate(-341.345 -172.817)" fill="#e57e55"/>
                </g>
              </g>
            </g>
          </g>
          <path id="Path_15826" data-name="Path 15826" d="M367.278,166.345c1.469,1.254,9.4,5.393-.095,6.769-7.235,1.05-22.033-2.653-26.409-3.877a25.566,25.566,0,0,1,1.111,10.477c-.832,3.752-2.387,12.412-2.387,12.412a42.636,42.636,0,0,0-3.3-4.09c-1.369-1.38-6.141-2.38-8.023,3.3,0,0-4.52-8.146-4.635-13.664C323.207,161.868,348.778,150.532,367.278,166.345Z" transform="translate(-323.536 -158.74)" fill="#292d34"/>
        </g>
      </g>
      <path id="Path_15827" data-name="Path 15827" d="M323.334,237.6c1.525-3.193,4.529-6.329,10.694-8.931a8.773,8.773,0,0,1,5.14-.871c.866-.067,1.492-.056,1.492-.056s13.321-.182,15.054,5.263-.112,12.505-.112,12.505-6.619.949-8.954.028a19.9,19.9,0,0,0-6.49,5.706c-.808,1.141-3.139.715-2.868-.656a14.485,14.485,0,0,1,4.581-7.653,24.679,24.679,0,0,0-8.929,4.78c-1.183,1.031-3.723.152-3.093-1.22,1.315-2.866,4.01-5.768,9.509-8.43l-.032-.033a27.12,27.12,0,0,0-9.949,4.958c-1.187,1-3.721.165-3.084-1.155a15.376,15.376,0,0,1,5.928-6.178,20.981,20.981,0,0,0-5.857,3.5C325.128,240.21,322.635,239.063,323.334,237.6Z" transform="translate(-300.857 -92.114)" fill="#ffb072"/>
    </g>
    <g id="Group_5753" data-name="Group 5753" transform="translate(653.954 235.94)">
      <g id="Group_5730" data-name="Group 5730" transform="translate(0 97.82)">
        <path id="Path_15828" data-name="Path 15828" d="M408.628,319.988c.208-1.679.2-8.064-.481-10.382-2.37-8.067-12.15-11.268-16.337-8.472-2.658,1.774-8.883,17.918-6.446,27.041a1.431,1.431,0,0,0,.914,1.053,14.984,14.984,0,0,0,.2,3.31c.336,1.2,1.492,1.429,2.116.784a15.981,15.981,0,0,0,.431,2.175c.44,1.512,2.038,1.65,2.333.254.648-3.039.728-5.08,1.345-7.187a28.317,28.317,0,0,1,1.785-4.492c-.384,1.28-.741,2.671-1.046,4.042a18.644,18.644,0,0,0,.139,8.218c.5,1.492,2.311,1.456,2.547.05a66.031,66.031,0,0,1,1.319-7.311c.583-1.991,2.348-7.937,4.553-10.222a10.049,10.049,0,0,1,.615,1.538c.39,1.28-.011,2.517.167,5.7.126,2.25,2.64,4.8,3.689,1.661A64.575,64.575,0,0,0,408.628,319.988Z" transform="translate(-384.809 -138.134)" fill="#ffb072"/>
        <path id="Path_15829" data-name="Path 15829" d="M406.871,300.4c4.237-20.963-3.83-60.906,4.609-77.968,9.11-18.418,38.749-6.92,38,7.936-1.31,25.885-6.321,58.971-10.267,77-5.393,24.635-32.053,79.492-32.053,79.492a67.189,67.189,0,0,1-19.4-10.089S402.53,321.863,406.871,300.4Z" transform="translate(-382.285 -212.927)" fill="#c36282"/>
      </g>
      <g id="Group_5733" data-name="Group 5733" transform="translate(4.492 209.594)">
        <g id="Group_5732" data-name="Group 5732" transform="translate(0 248.95)">
          <path id="Path_15830" data-name="Path 15830" d="M428.325,409.277l-1.3,23.863s.828,5.038.815,6.734c-.013,1.672-.908,6.628-.908,6.628-2.119,1.525-8.786,1.962-12.141.964l-.643-.554a31.07,31.07,0,0,1-5.4,1.447c-4.839,1.094-19.174,1.271-21.282-.489,0,0-1.739-7.159,4.209-8.582,14.892-3.567,17.106-7.523,18.2-12.078,1.377-5.736,3.015-20.093,3.015-20.093Z" transform="translate(-387.228 -407.117)" fill="#ffb072"/>
          <g id="Group_5731" data-name="Group 5731" clip-path="url(#clip-path-3)">
            <path id="Path_15831" data-name="Path 15831" d="M407.02,421.248s3.972-.414,6.169,1.808c2.079,2.1,3.708,3.882,6.893,3.282,8.16-1.534,7.783-7.865,11.24-4.982l-.095,16.516L386.143,439.6l-.058-12.518Z" transform="translate(-388.207 -395.543)" fill="#1c3742"/>
            <path id="Path_15832" data-name="Path 15832" d="M387.17,429.008s.589,2.151,14.76,1.547,15.44-3.814,26.5-3.49l-.58,3.867-41.489,3.477Z" transform="translate(-387.972 -390.03)" fill="#efefef"/>
          </g>
        </g>
        <path id="Path_15834" data-name="Path 15834" d="M411.365,290.843c4.761-23.593,53.14-23.712,48.448-.033C443.653,372.383,437.3,475.145,419.83,528.076c-7.837,2.846-15.448-.364-19.445-2.81C400.385,525.266,395.826,367.838,411.365,290.843Z" transform="translate(-376.479 -273.099)" fill="#19323a"/>
        <path id="Path_15835" data-name="Path 15835" d="M422.016,415.964c-8.144,2.844-18.494-.293-22.8-2.84a.345.345,0,0,1-.173-.314c.011-.529.05-2.246.18-7.128a.368.368,0,0,1,.5-.34c7.408,3.152,16.024,5.248,23.664,2.45a.361.361,0,0,1,.474.42c-.862,4.105-1.445,6.767-1.6,7.484A.372.372,0,0,1,422.016,415.964Z" transform="translate(-377.095 -159.713)" fill="#207089"/>
      </g>
      <g id="Group_5736" data-name="Group 5736" transform="translate(78.005 205.652)">
        <g id="Group_5735" data-name="Group 5735" transform="translate(7.64 253.294)">
          <path id="Path_15836" data-name="Path 15836" d="M433.828,407.789l-1.319,23.862s-1.375,4.917-1.547,6.6c-.169,1.664.176,6.687.176,6.687,1.941,1.75,8.519,2.913,11.965,2.289l.7-.481a30.991,30.991,0,0,0,5.207,2.032c4.69,1.616,18.919,3.362,21.208,1.843,0,0,2.513-6.923-3.243-8.991-14.411-5.177-16.18-9.353-16.767-14-.741-5.851-.8-20.3-.8-20.3Z" transform="translate(-430.915 -407.334)" fill="#ffb072"/>
          <g id="Group_5734" data-name="Group 5734" clip-path="url(#clip-path-4)">
            <path id="Path_15837" data-name="Path 15837" d="M454.97,422.936s-3.9-.847-6.331,1.122c-2.3,1.861-4.111,3.453-7.211,2.508-7.945-2.42-6.875-8.669-10.627-6.184l-1.715,16.427,44.625,6.652,1.428-12.436Z" transform="translate(-432.483 -396.636)" fill="#1c3742"/>
            <path id="Path_15838" data-name="Path 15838" d="M471.567,432.728s-.819,2.075-14.838-.078-14.931-5.482-25.96-6.372l.154,3.908,40.858,8Z" transform="translate(-431.04 -391.088)" fill="#efefef"/>
          </g>
        </g>
        <path id="Path_15840" data-name="Path 15840" d="M426.947,294.382c.89-24.108,43.421-33.392,45.944-9.416,10.913,103.727-12.661,180.2-16.393,244.993-10.193,3.994-17.043,2.617-22.441.251C434.056,530.21,425.6,330.752,426.947,294.382Z" transform="translate(-426.802 -270.977)" fill="#1c3742"/>
        <path id="Path_15841" data-name="Path 15841" d="M455.24,407.042c-.661,4.116-.985,5.955-1.087,6.518a.372.372,0,0,1-.236.277c-10.525,4.072-17.664,2.708-23.3.281a.348.348,0,0,1-.221-.319c-.015-.665-.061-2.777-.119-6.039a.366.366,0,0,1,.448-.364,43.059,43.059,0,0,0,24.05-.767A.367.367,0,0,1,455.24,407.042Z" transform="translate(-423.821 -154.66)" fill="#207089"/>
      </g>
      <path id="Path_15842" data-name="Path 15842" d="M406.131,327.824c.494,12.58,20.246,22.016,44.118,21.08s41.786-11.85,41.292-24.427c-1.592-40.59-21.793-88.035-45.665-87.1S404.509,286.459,406.131,327.824Z" transform="translate(-366.613 -94.151)" fill="#1c3742"/>
      <path id="Path_15843" data-name="Path 15843" d="M413.876,316.2c2.6-26.153-15.959-75.221-13.222-81.724,4.115-9.782,51.143-35.6,51.143-35.6,1.963.953,48.938,20.233,58.207,35.244,3.882,6.286-19.111,67.845-17.589,91.061.749,11.443,4.932,22.67,5.363,33.676.494,12.58-89.108,13.72-89.6,1.142C407.6,345.371,412.451,330.532,413.876,316.2Z" transform="translate(-371.458 -127.158)" fill="#dc688e"/>
      <path id="Path_15844" data-name="Path 15844" d="M473.612,217.951c-.045-.072-.1-.147-.152-.221-36.784,30.689-39.929,85.473-12.271,122.422-.892-10.194-4.475-20.575-5.166-31.141C454.5,285.8,477.495,224.237,473.612,217.951Z" transform="translate(-335.067 -110.989)" fill="#dc688e"/>
      <g id="Group_5740" data-name="Group 5740" transform="translate(56.092 95.662)">
        <path id="Path_15845" data-name="Path 15845" d="M417.788,212.62l11.856,30.887h5.407l18.675-31.742" transform="translate(-412.62 -211.766)" fill="none" stroke="#292d34" stroke-miterlimit="10" stroke-width="0.757"/>
        <g id="Group_5739" data-name="Group 5739" transform="translate(0 30.039)">
          <g id="Group_5737" data-name="Group 5737" transform="translate(0 4.92)">
            <rect id="Rectangle_4644" data-name="Rectangle 4644" width="39.796" height="25.42" rx="0.773" fill="#fff"/>
            <rect id="Rectangle_4645" data-name="Rectangle 4645" width="11.736" height="14.918" rx="0.621" transform="translate(2.419 6.223)" fill="#786ce6"/>
          </g>
          <rect id="Rectangle_4646" data-name="Rectangle 4646" width="10.207" height="1.561" transform="translate(14.795 5.915)" fill="#3e2344"/>
          <rect id="Rectangle_4647" data-name="Rectangle 4647" width="5.407" height="6.695" rx="0.323" transform="translate(17.024)" fill="#292d34"/>
          <g id="Group_5738" data-name="Group 5738" transform="translate(18.487 11.143)">
            <rect id="Rectangle_4648" data-name="Rectangle 4648" width="18.165" height="1.711" fill="#a1abad"/>
            <rect id="Rectangle_4649" data-name="Rectangle 4649" width="18.165" height="1.711" transform="translate(0 3.59)" fill="#a1abad"/>
            <rect id="Rectangle_4650" data-name="Rectangle 4650" width="18.165" height="1.711" transform="translate(0 7.179)" fill="#a1abad"/>
            <rect id="Rectangle_4651" data-name="Rectangle 4651" width="18.165" height="1.711" transform="translate(0 13.207)" fill="#a1abad"/>
          </g>
        </g>
      </g>
      <path id="Path_15846" data-name="Path 15846" d="M414.5,192.5c.6,15.308,8.928,19.781,23.212,19.222,18.273-.717,25.553-8.9,24.953-24.21s-12.541-24.058-26.824-23.5S413.646,170.769,414.5,192.5Z" transform="translate(-359.402 -157.074)" fill="#ffb072"/>
      <g id="Group_5741" data-name="Group 5741" transform="translate(51.954 34.1)">
        <path id="Path_15847" data-name="Path 15847" d="M422.07,182.671c-1-1.685-4.338-5.723-7.573-3.28s-1.48,9.684,1.765,12.5S428.527,193.545,422.07,182.671Z" transform="translate(-412.778 -178.625)" fill="#ffb072"/>
        <path id="Path_15848" data-name="Path 15848" d="M417.822,186.871c.528-.858,1.848.927,2.55-1.122.245-.721-.557-2.274-1.144-3.147-.693-1.033-3.011-3.949-4.871-2.225s-.607,6.884,1.59,8.519c1.284.955,2.485.814,2.238.3C417.777,188.337,417.456,187.295,417.822,186.871Z" transform="translate(-412.198 -177.58)" fill="#e57e55"/>
        <path id="Path_15849" data-name="Path 15849" d="M415.2,182.59a4.61,4.61,0,0,0,1.406,4.791c-.26-.693-.385-1.384-.1-1.709.528-.858,1.848.927,2.55-1.122.245-.721-.557-2.274-1.144-3.147l-.047-.069A2.4,2.4,0,0,0,415.2,182.59Z" transform="translate(-410.876 -176.38)" fill="#bc6658"/>
      </g>
      <path id="Path_15850" data-name="Path 15850" d="M413.558,170.034s-2.108,12.9,3.225,22.562S425.667,165.067,413.558,170.034Z" transform="translate(-360.508 -152.286)" fill="#292d34"/>
      <path id="Path_15851" data-name="Path 15851" d="M444.279,186.887s.706,23.7,4.428,28.239c13.05,15.919-.632,29.79-12.065,29.558-15.208-.31-20.478-11.653-11.783-25.168,1.707-2.653.242-29.994.242-29.994Z" transform="translate(-354.057 -137.439)" fill="#ffb072"/>
      <path id="Path_15852" data-name="Path 15852" d="M431.08,224.1c8.994-.353,18.314-12.44,19.185-22.116.524-5.822-3.923-9.509-2.214-17.407,3.461-16.012-12.253-17.467-19.172-17.179-9.451.394-14.848,8.092-14.467,17.8,0,0,.351,14.108.756,18.8C416.334,217.551,422.083,224.45,431.08,224.1Z" transform="translate(-359.439 -154.182)" fill="#ffb072"/>
      <path id="Path_15853" data-name="Path 15853" d="M424.9,168.026c-2.2.321-5.744,1.973-6.219,1.514-1-1.67,3.046-12.178,22.906-6.232,0,0-1.778-2.229-.682-2.524,12.892-3.472,24.5,11.22,23.931,25.614.03-1.553.411-4.317,1.235-4.479,1.445-.279,3.063,7.982-.024,15.676-2.493,8.2-13.69,19.692-13.934,13.481-.617-4.423-.654-8-2.545-12.136a23.5,23.5,0,0,1-2.5-7.807,17.753,17.753,0,0,1,.294-4.871c-.156-.022-11.656-1.986-19.352-6.468.49.407.979.8,1.473,1.142,3.329,2.324,10.854,5.045,10.6,6.266s-23.069.505-23.361-5.929c-.866.067-3.117,7.129-3.784,5.939C408.258,178.865,416.677,170.55,424.9,168.026Z" transform="translate(-361.836 -160.268)" fill="#292d34"/>
      <path id="Path_15854" data-name="Path 15854" d="M426.225,179.337" transform="translate(-349.292 -143.914)" fill="none" stroke="#1e1c1c" stroke-miterlimit="10" stroke-width="0.328"/>
      <path id="Path_15855" data-name="Path 15855" d="M433.734,189.106c-.219-.75-14.365-.206-14.682.433s1.217,3.388,5.183,3.394C428.825,192.938,433.953,189.856,433.734,189.106Z" transform="translate(-355.479 -135.848)" fill="#fff" stroke="#c67154" stroke-linecap="round" stroke-miterlimit="10" stroke-width="0.543"/>
      <g id="Group_5742" data-name="Group 5742" transform="translate(87.363 32.584)">
        <path id="Path_15856" data-name="Path 15856" d="M433.618,182.277c.866-1.757,3.877-6.045,7.293-3.864s2.237,9.539-.778,12.6S428.034,193.625,433.618,182.277Z" transform="translate(-431.84 -177.808)" fill="#ffb072"/>
        <path id="Path_15857" data-name="Path 15857" d="M436.2,186.191l-2.63-.92a14.091,14.091,0,0,1,.892-3.225c.611-1.085,2.693-4.174,4.683-2.6s1.144,6.814-.918,8.615a5.167,5.167,0,0,1-2.268,1.235Z" transform="translate(-430.354 -176.78)" fill="#e57e55"/>
      </g>
      <g id="Group_5743" data-name="Group 5743" transform="translate(104.644 98.535)">
        <path id="Path_15858" data-name="Path 15858" d="M459.111,315.478c.412-1.642,2.721-7.594,4.193-9.509,5.121-6.669,15.4-6.128,18.3-2.01,1.839,2.612,1.822,19.915-3.741,27.544a1.433,1.433,0,0,1-1.233.654,14.906,14.906,0,0,1-1.384,3.013,1.264,1.264,0,0,1-2.257-.032,15.89,15.89,0,0,1-1.185,1.874c-.957,1.252-2.495.8-2.27-.6.492-3.069,1.155-5,1.339-7.189a28.394,28.394,0,0,0-.045-4.833c-.1,1.334-.273,2.758-.483,4.148a18.661,18.661,0,0,1-3.093,7.614c-1.009,1.209-2.682.526-2.4-.873a65.814,65.814,0,0,0,1.41-7.295c.173-2.068.672-8.25-.561-11.177a10.171,10.171,0,0,0-1.128,1.213c-.827,1.055-.9,2.352-2.214,5.261-.927,2.051-4.193,3.528-4.04.217A64.739,64.739,0,0,1,459.111,315.478Z" transform="translate(-426.418 -138.199)" fill="#ffb072"/>
        <path id="Path_15859" data-name="Path 15859" d="M472.429,218.381c10.977,11.032,17.173,40.412,22.614,74.214,6.241,38.766,3.734,91.469,3.734,91.469-.193,2.415-23.361-1.458-23.168-3.873,0,0-2.716-53.786-10.469-77.783-8.212-25.417-15.819-43.828-23.24-64.523C436.88,223.883,457.936,203.814,472.429,218.381Z" transform="translate(-441.143 -213.313)" fill="#c36282"/>
      </g>
      <g id="Group_5745" data-name="Group 5745" transform="translate(76.989 68.964)">
        <path id="Path_15860" data-name="Path 15860" d="M467.874,219.093s-10.845-.136-16.059,5.435c-8.248,8.811-12.407,11.238-25.56,13.276,0,0,17.014-32.142,16.415-34.17s-1.943-5.816,2.3-6.23S468.121,208.548,467.874,219.093Z" transform="translate(-426.255 -197.393)" fill="#fd6141"/>
        <g id="Group_5744" data-name="Group 5744" clip-path="url(#clip-path-5)">
          <path id="Path_15861" data-name="Path 15861" d="M426.863,236.872s24.626-23.394,25.222-28.508-2-11.186-9.431-9.637S421.189,225.483,426.863,236.872Z" transform="translate(-426.863 -196.461)" fill="#dd4026"/>
        </g>
      </g>
      <g id="Group_5747" data-name="Group 5747" transform="translate(46.411 70.074)">
        <path id="Path_15863" data-name="Path 15863" d="M409.965,220.082s8.668-.708,13.77,5.589c4.805,5.928,7.757,11.127,17.79,11.576,0,0-7.007-31.38-6.568-33.449s.355-5.727-3.908-5.807S407.8,211.414,409.965,220.082Z" transform="translate(-409.794 -197.991)" fill="#fd6141"/>
        <g id="Group_5746" data-name="Group 5746" clip-path="url(#clip-path-6)">
          <path id="Path_15864" data-name="Path 15864" d="M434.383,236.361s-15.037-21.84-16.031-26.89S419.47,198.16,427,199.124,439.15,224.562,434.383,236.361Z" transform="translate(-402.651 -197.104)" fill="#dd4026"/>
        </g>
      </g>
      <g id="Group_5748" data-name="Group 5748" transform="translate(112.227 274.485)">
        <path id="Path_15866" data-name="Path 15866" d="M445.225,308.032" transform="translate(-445.225 -308.032)" fill="none" stroke="#f7dfd8" stroke-miterlimit="10" stroke-width="0.353"/>
      </g>
      <g id="Group_5752" data-name="Group 5752" transform="translate(55.419 31.648)">
        <g id="Group_5749" data-name="Group 5749" transform="translate(14.225)">
          <path id="Path_15867" data-name="Path 15867" d="M424.294,183.437c-.021.847,1.076,1.025,2.432,1.057s2.458-.1,2.476-.944-1.062-1.559-2.419-1.588S424.313,182.59,424.294,183.437Z" transform="translate(-420.592 -173.311)" fill="#292d34"/>
          <path id="Path_15868" data-name="Path 15868" d="M434.613,180.318c.011.139-3.96-.946-5.186-.821s-5.786,1.317-6.223.875a7.4,7.4,0,0,1-.9-2.06s6.251-1.211,7.586-.977c.9.158,2.857.249,3.962,1.094A2.927,2.927,0,0,1,434.613,180.318Z" transform="translate(-422.301 -177.305)" fill="#292d34"/>
        </g>
        <g id="Group_5750" data-name="Group 5750" transform="translate(0 0.626)">
          <path id="Path_15869" data-name="Path 15869" d="M416.987,183.235c-.02.847,1.076,1.025,2.432,1.057s2.458-.1,2.478-.944-1.064-1.559-2.419-1.588S417.008,182.388,416.987,183.235Z" transform="translate(-412.634 -174.111)" fill="#292d34"/>
          <path id="Path_15870" data-name="Path 15870" d="M414.682,181.114c0,.145,2.814-1.631,3.919-1.542s6.026,1.707,6.459,1.233a9.307,9.307,0,0,0,1-2.172s-6.882-1.235-8.118-.949a7.094,7.094,0,0,0-2.857,1.228C414.448,179.611,414.691,180.562,414.682,181.114Z" transform="translate(-414.643 -177.642)" fill="#292d34"/>
        </g>
        <g id="Group_5751" data-name="Group 5751" transform="translate(6.448 4.707)">
          <path id="Path_15871" data-name="Path 15871" d="M422.155,188.054s3.119.229,3.138-.63-6.381-2.489-6.8-1.915S420.8,187.515,422.155,188.054Z" transform="translate(-417.832 -175.079)" fill="#e57e55" opacity="0.5"/>
          <path id="Path_15872" data-name="Path 15872" d="M423.287,179.839s.492,3.99-.124,5.342-3.806,4.2-3.938,4.865,2.983,2.645,3.214,2.768-4.618-1.161-4.31-2.677,4.386-4.963,4.6-5.7S423.287,179.839,423.287,179.839Z" transform="translate(-418.114 -179.839)" fill="#e57e55"/>
        </g>
      </g>
    </g>
    <g id="Group_5787" data-name="Group 5787" transform="translate(778.891 224.361)">
      <g id="Group_5786" data-name="Group 5786" transform="translate(0 0)">
        <g id="Group_5757" data-name="Group 5757" transform="translate(0 102.866)">
          <path id="Path_15873" data-name="Path 15873" d="M503.349,216.691c-12.009,23.376-13.334,95.456-31.144,156.949a67.6,67.6,0,0,0,19.61,9.988s36.423-65.192,40.977-149.9C533.6,218.787,512.8,198.3,503.349,216.691Z" transform="translate(-434.798 -209.41)" fill="#6db065"/>
          <g id="Group_5756" data-name="Group 5756" transform="translate(0 99.465)">
            <g id="Group_5754" data-name="Group 5754">
              <path id="Path_15874" data-name="Path 15874" d="M555.718,352.566,452.068,334.6l14.05-71.641,101.954,18.353Z" transform="translate(-452.068 -262.956)" fill="#8c8c8c"/>
              <path id="Path_15875" data-name="Path 15875" d="M453.872,334.128l14.518-69.948,98.134,16.08L554.17,351.516Z" transform="translate(-450.52 -261.906)" fill="#e2e2e2"/>
              <path id="Path_15876" data-name="Path 15876" d="M495.633,290.948a7.826,7.826,0,1,1-7.826-7.826A7.826,7.826,0,0,1,495.633,290.948Z" transform="translate(-428.129 -245.661)" fill="#8c8c8c"/>
            </g>
            <g id="Group_5755" data-name="Group 5755" transform="translate(35.229 71.624)">
              <path id="Path_15877" data-name="Path 15877" d="M479.036,311.722c-.533,4.044-6.017,3.175-5.3-1a37.921,37.921,0,0,1,1.871-7.573c1.22-2.539,3.825-2.04,4.285.916C480.19,305.968,479.287,309.813,479.036,311.722Z" transform="translate(-468.768 -301.513)" fill="#f4b998"/>
              <path id="Path_15878" data-name="Path 15878" d="M481.656,312.185a2.708,2.708,0,1,1-5.3-.957,35.122,35.122,0,0,1,1.871-7.261c1.22-2.435,3.825-1.956,4.285.877C482.81,306.668,481.907,310.355,481.656,312.185Z" transform="translate(-466.521 -300.755)" fill="#f4b998"/>
              <path id="Path_15879" data-name="Path 15879" d="M484.3,311.844c-.533,3.093-6.017,2.428-5.3-.763a23.577,23.577,0,0,1,1.871-5.792,2.273,2.273,0,0,1,4.285.7C485.451,307.443,484.548,310.384,484.3,311.844Z" transform="translate(-464.256 -299.348)" fill="#f4b998"/>
              <path id="Path_15880" data-name="Path 15880" d="M476.4,309.771c-.533,3.093-6.017,2.428-5.3-.763a23.565,23.565,0,0,1,1.871-5.79,2.272,2.272,0,0,1,4.285.7C477.55,305.37,476.647,308.311,476.4,309.771Z" transform="translate(-471.032 -301.125)" fill="#f4b998"/>
            </g>
          </g>
        </g>
        <g id="Group_5760" data-name="Group 5760" transform="translate(41.117 215.424)">
          <g id="Group_5759" data-name="Group 5759" transform="translate(0 249.398)">
            <path id="Path_15881" data-name="Path 15881" d="M516.1,406.665l-1.664,23.993s.758,5.082.721,6.788c-.039,1.683-1.012,6.658-1.012,6.658-2.157,1.5-8.872,1.843-12.232.791l-.639-.568s-.663.368-5.454,1.377c-4.885,1.029-19.313.994-21.409-.808,0,0-1.644-7.228,4.363-8.575,15.037-3.368,17.326-7.315,18.492-11.883,1.471-5.751,3.333-20.173,3.333-20.173Z" transform="translate(-474.202 -404.263)" fill="#207089"/>
            <g id="Group_5758" data-name="Group 5758" clip-path="url(#clip-path-7)">
              <path id="Path_15882" data-name="Path 15882" d="M494.32,418.273s4-.358,6.182,1.91c2.06,2.147,3.672,3.962,6.888,3.407,8.235-1.425,7.947-7.8,11.383-4.848l-.34,16.618-45.394,1.066.128-12.6Z" transform="translate(-475.199 -392.508)" fill="#1c3742"/>
              <path id="Path_15883" data-name="Path 15883" d="M474.178,425.809s.559,2.173,14.829,1.774,15.595-3.608,26.718-3.117l-.641,3.882-41.8,2.883Z" transform="translate(-474.991 -386.98)" fill="#207089"/>
            </g>
          </g>
          <path id="Path_15885" data-name="Path 15885" d="M545.789,288.942c-5.552-23.651-38.87-26.06-42.147-2.06-4.7,34.432-18.163,256.978-18.163,256.978,6.468,5.244,15.776,2.526,21.622.646C507.1,544.507,560.3,350.783,545.789,288.942Z" transform="translate(-464.531 -270.004)" fill="#19323a"/>
        </g>
        <g id="Group_5763" data-name="Group 5763" transform="translate(118.229 213.714)">
          <g id="Group_5762" data-name="Group 5762" transform="translate(22.384 252.738)">
            <path id="Path_15886" data-name="Path 15886" d="M528.952,406.469l.006,24.05s-1.107,5.017-1.187,6.723c-.078,1.681.552,6.71.552,6.71,2.045,1.65,8.721,2.452,12.149,1.633l.676-.522s.635.412,5.344,1.75c4.8,1.363,19.2,2.324,21.414.671,0,0,2.138-7.1-3.762-8.855-14.77-4.4-16.78-8.495-17.628-13.129-1.07-5.84-1.934-20.357-1.934-20.357Z" transform="translate(-527.764 -405.141)" fill="#207089"/>
            <g id="Group_5761" data-name="Group 5761" clip-path="url(#clip-path-8)">
              <path id="Path_15887" data-name="Path 15887" d="M551.416,420.116s-3.968-.633-6.3,1.481c-2.205,2-3.938,3.7-7.107,2.922-8.118-1.99-7.391-8.329-11.023-5.621l-.806,16.6,45.212,4.194.741-12.576Z" transform="translate(-529.121 -393.912)" fill="#1c3742"/>
              <path id="Path_15888" data-name="Path 15888" d="M569.078,428.945s-.708,2.131-14.915.749-15.31-4.674-26.439-4.952l.372,3.918,41.5,5.759Z" transform="translate(-527.798 -388.332)" fill="#207089"/>
            </g>
          </g>
          <path id="Path_15890" data-name="Path 15890" d="M561.886,282c-11.322-21.459-45.154-14.747-45.979,9.516-2.615,76.872,22.243,254.823,22.243,254.823,6.946,3.908,15.489,2.519,20.536-.736C558.685,545.608,583.144,322.289,561.886,282Z" transform="translate(-515.714 -269.083)" fill="#1c3742"/>
        </g>
        <path id="Path_15891" data-name="Path 15891" d="M498.106,312.34c.308,12.665,24.212,27.234,44.855,26.729s36.23-11.159,35.922-23.822c-1-40.869-17.931-62.725-38.576-62.222S497.088,270.692,498.106,312.34Z" transform="translate(-412.614 -69.147)" fill="#1c3742"/>
        <g id="Group_5766" data-name="Group 5766" transform="translate(70.844 78.107)">
          <path id="Path_15892" data-name="Path 15892" d="M494.927,299.738c.18,7.417,22.222,10.649,46.258,10.063s42.026-4.52,41.844-11.937c-.585-23.939-21.466-37.373-45.5-36.784S494.331,275.342,494.927,299.738Z" transform="translate(-486.167 -140.356)" fill="#8cca85"/>
          <g id="Group_5765" data-name="Group 5765">
            <path id="Path_15893" data-name="Path 15893" d="M602.544,225.23c-9.1-15.241-56.816-29.079-59.012-29.142-15.186-.438-49.4,21.065-52.878,28.871-3.02,6.791,10.232,63.7,8.941,89.53-.672,13.458-2.4,23.523-2.071,37.089.31,12.665,90.49,12.847,90.182.182-.258-10.5-2.2-18.422-2.071-29.372C585.881,300.477,606.454,231.778,602.544,225.23Z" transform="translate(-490.205 -196.081)" fill="#8cca85"/>
            <path id="Path_15894" data-name="Path 15894" d="M550.969,339.763c-.258-10.5-2.2-18.422-2.071-29.372.247-21.91,20.82-90.609,16.91-97.157-3.933-6.583-18.3-2.014-20.216,5.651-16.282,37.989-16.161,71.783-2.872,126.669C547.874,344.076,551.027,342.148,550.969,339.763Z" transform="translate(-453.469 -184.085)" fill="#6db065" opacity="0.3"/>
            <g id="Group_5764" data-name="Group 5764" transform="translate(41.178 39.972)">
              <path id="Path_15895" data-name="Path 15895" d="M515.926,219.757a2.105,2.105,0,1,0,2.053-2.157A2.106,2.106,0,0,0,515.926,219.757Z" transform="translate(-509.326 -217.6)" fill="#fff"/>
              <path id="Path_15896" data-name="Path 15896" d="M514.411,231.843a2.105,2.105,0,1,0,2.052-2.157A2.1,2.1,0,0,0,514.411,231.843Z" transform="translate(-510.625 -207.235)" fill="#fff"/>
              <path id="Path_15897" data-name="Path 15897" d="M513.53,243.613a2.105,2.105,0,1,0,2.053-2.157A2.105,2.105,0,0,0,513.53,243.613Z" transform="translate(-511.38 -197.141)" fill="#fff"/>
              <path id="Path_15898" data-name="Path 15898" d="M512.662,254.482a2.105,2.105,0,1,0,2.053-2.157A2.1,2.1,0,0,0,512.662,254.482Z" transform="translate(-512.125 -187.82)" fill="#fff"/>
              <path id="Path_15899" data-name="Path 15899" d="M512.679,265.2a2.105,2.105,0,1,0,2.053-2.157A2.1,2.1,0,0,0,512.679,265.2Z" transform="translate(-512.11 -178.626)" fill="#fff"/>
              <path id="Path_15900" data-name="Path 15900" d="M512.373,275.93a2.106,2.106,0,1,0,2.055-2.157A2.107,2.107,0,0,0,512.373,275.93Z" transform="translate(-512.373 -169.427)" fill="#fff"/>
            </g>
          </g>
        </g>
        <g id="Group_5769" data-name="Group 5769" transform="translate(97.795 134.964)">
          <g id="Group_5767" data-name="Group 5767" transform="translate(0 4.92)">
            <rect id="Rectangle_4652" data-name="Rectangle 4652" width="39.796" height="25.42" rx="0.773" fill="#fff"/>
            <rect id="Rectangle_4653" data-name="Rectangle 4653" width="11.736" height="14.918" rx="0.621" transform="translate(2.419 6.223)" fill="#786ce6"/>
          </g>
          <rect id="Rectangle_4654" data-name="Rectangle 4654" width="10.207" height="1.561" transform="translate(14.795 5.915)" fill="#3e2344"/>
          <path id="Rectangle_4655" data-name="Rectangle 4655" d="M.323,0H5.084a.323.323,0,0,1,.323.323V6.372a.324.324,0,0,1-.324.324H.323A.323.323,0,0,1,0,6.372V.323A.323.323,0,0,1,.323,0Z" transform="translate(17.024)" fill="#292d34"/>
          <g id="Group_5768" data-name="Group 5768" transform="translate(18.487 11.143)">
            <rect id="Rectangle_4656" data-name="Rectangle 4656" width="18.165" height="1.711" fill="#a1abad"/>
            <rect id="Rectangle_4657" data-name="Rectangle 4657" width="18.165" height="1.711" transform="translate(0 3.59)" fill="#a1abad"/>
            <rect id="Rectangle_4658" data-name="Rectangle 4658" width="18.165" height="1.711" transform="translate(0 7.179)" fill="#a1abad"/>
            <rect id="Rectangle_4659" data-name="Rectangle 4659" width="18.165" height="1.711" transform="translate(0 13.207)" fill="#a1abad"/>
          </g>
        </g>
        <g id="Group_5770" data-name="Group 5770" transform="translate(102.45 83.139)">
          <path id="Path_15901" data-name="Path 15901" d="M524.734,252.182h-4.757a1.285,1.285,0,0,1-1.185-.789c-6.044-14.461-14.894-45.474-10.295-51.814.228-.314,1.128-1.05.971-.693-2.72,6.2,3.789,35.621,10.62,51.964l4.646-.074.288-.4c7.761-8.92,26.209-32.413,27.327-49.856.024-.39,1.226.821,1.2,1.209-1.144,17.872-19.612,40.542-27.468,49.57l-.385.444A1.268,1.268,0,0,1,524.734,252.182Z" transform="translate(-507.219 -198.791)" fill="#292d34"/>
        </g>
        <g id="Group_5784" data-name="Group 5784" transform="translate(96.041)">
          <path id="Path_15902" data-name="Path 15902" d="M543.927,194.4c-1.72-3.888-32.188-2.625-33.411,1.181L512,211.815l32.077-1.971Z" transform="translate(-497.984 -121.447)" fill="#3c8460"/>
          <g id="Group_5783" data-name="Group 5783">
            <g id="Group_5782" data-name="Group 5782">
              <path id="Path_15903" data-name="Path 15903" d="M536.972,181.959s-.145,10.391,2.155,18.721,8.482,19,8.482,19l-14.422,1.887-9.358,14.612-3.457-16.464-11.2-3.479s10.208-7.048,9.214-18.472c-.866-9.957-1.421-15.487-1.421-15.487Z" transform="translate(-499.142 -130.086)" fill="#ffb072"/>
              <g id="Group_5771" data-name="Group 5771" transform="translate(23.848 72.951)">
                <path id="Path_15904" data-name="Path 15904" d="M538.7,193.306s.949,3.169-5,9c-1.859,1.822-8.309,6.388-8.309,6.388l-8.788,18.919,2.218.243,8.357-17.63,9.886,13.271c4.741-5.952,7.815-11.55,8.036-16.544Z" transform="translate(-516.608 -193.306)" fill="#8cca85"/>
                <path id="Path_15905" data-name="Path 15905" d="M536.044,215.682l-9.885-13.269L517.8,220.042l10.515-9.434Z" transform="translate(-515.584 -185.496)" fill="#3c8460"/>
              </g>
              <g id="Group_5772" data-name="Group 5772" transform="translate(7.165 74.132)">
                <path id="Path_15906" data-name="Path 15906" d="M512.994,193.942c.074,4.386,3.015,11.6,8.454,14.489l5.08,18.877-2.218-.243L520.1,210.04l-5.911,13.321c-3.451-5.207-6.084-10.672-6.559-16.817Z" transform="translate(-507.627 -193.942)" fill="#8cca85"/>
                <path id="Path_15907" data-name="Path 15907" d="M511.158,215.928l5.91-13.32,4.214,17.025-3.982-9.171Z" transform="translate(-504.599 -186.51)" fill="#3c8460"/>
              </g>
              <g id="Group_5779" data-name="Group 5779">
                <g id="Group_5773" data-name="Group 5773" transform="translate(0 34.58)">
                  <path id="Path_15908" data-name="Path 15908" d="M512.038,188.407c2.972-2.528,3.336-10.159.756-13.826a4.418,4.418,0,0,0-5.835-1.369c-2.907,1.384-3.576,5.192-3,8.883C504.645,186.523,508.791,191.171,512.038,188.407Z" transform="translate(-503.77 -172.649)" fill="#ffb072" fill-rule="evenodd"/>
                  <path id="Path_15909" data-name="Path 15909" d="M509.862,185.029l-.973-4.037,2.428-.843s-.782-7.456-4.826-5.079C503.167,177.024,505.836,186.186,509.862,185.029Z" transform="translate(-502.724 -170.975)" fill="#e57e55"/>
                </g>
                <g id="Group_5774" data-name="Group 5774" transform="translate(1.742)">
                  <path id="Path_15910" data-name="Path 15910" d="M539.463,198.987s-.635,7-3.223,10.69c-3.112,4.438-7.44,9.825-19.926,7.926s-9.812-28.4-9.812-28.4-.8-10.389,1.729-18.63,19.527-11.1,32.653-5.736c0,0,3.537,4.051.518,20.422a5.063,5.063,0,0,1,6.49-.267c2.825,1.895,2.783,5.762,1.438,9.284C547.716,198.5,542.846,201.818,539.463,198.987Z" transform="translate(-503.375 -147.114)" fill="#ffb072" fill-rule="evenodd"/>
                  <path id="Path_15911" data-name="Path 15911" d="M507.595,180.38s-10.614,27.877,8.861,31.178c11.27,1.911,21.106-3.862,24.607-11.173,2.22-4.635.11-15.487-.988-20.762-.162-.782-.721.007-.8-.565l-3,12.292a23.234,23.234,0,0,0-16.847-7.884c-9.7-.215-11.372,5.8-11.372,5.8Z" transform="translate(-504.708 -132.575)" fill="#292d34"/>
                  <path id="Path_15912" data-name="Path 15912" d="M524,183.295s-3.42,2.127-9.255,1.349c-1.977-.264-4.373-.6-5.123-1.367" transform="translate(-500.492 -128.957)" fill="none" stroke="#ffb072" stroke-linecap="round" stroke-linejoin="round" stroke-width="0.716"/>
                  <path id="Path_15913" data-name="Path 15913" d="M548.628,171.577c-1.869-3.541-8.61-5.759-14.385-7.051a12.957,12.957,0,0,0-.381-1.523c-2.623-8.231-11.764-8.021-11.764-8.021v5.309c-1.391-2.181-1.391-6.256-1.391-6.256-6.756,3.981-6.292,8.968-6.292,8.968l-1.492-3.851s-4.737,3.682-4.791,8.907a6.548,6.548,0,0,0-2.363,3c-2.246,6.687,1.742,25.059,1.742,25.059l.862-13.239a29.354,29.354,0,0,1,2.184-7.681s1.458,1.7,10.148,1.7c.36,0,.719-.009,1.077-.015l.314.015c.041-.006.076-.015.115-.02a83.45,83.45,0,0,0,15.47-1.982,49.608,49.608,0,0,0,1.85,9.368c.81,2.536-.637,16.817-.637,16.817s.357,1.707.856,0c.916-3.124,2.688-10.531,6.3-10.2C546.051,190.881,552.063,178.092,548.628,171.577Z" transform="translate(-504.385 -154.034)" fill="#292d34"/>
                  <path id="Path_15914" data-name="Path 15914" d="M525.235,185.755l1.837-3.788-2.419-1.276s2.313-7.183,6.152-4.1C533.96,179.125,529.3,187.636,525.235,185.755Z" transform="translate(-487.602 -135.349)" fill="#e57e55"/>
                </g>
                <g id="Group_5778" data-name="Group 5778" transform="translate(6.299 32.051)">
                  <g id="Group_5775" data-name="Group 5775" transform="translate(13.604)">
                    <path id="Path_15915" data-name="Path 15915" d="M516.3,177.619c-.009.936,1.208,1.116,2.707,1.129s2.719-.145,2.727-1.081-1.2-1.707-2.7-1.722S516.308,176.681,516.3,177.619Z" transform="translate(-512.927 -167.294)" fill="#3e2344"/>
                    <path id="Path_15916" data-name="Path 15916" d="M527.894,174.8c.048.137-4.289-1.252-5.653-1.206s-6.492.986-6.934.5a7.325,7.325,0,0,1-.823-2.209s7-.845,8.45-.511S527.474,173.618,527.894,174.8Z" transform="translate(-514.484 -171.288)" fill="#292d34"/>
                  </g>
                  <g id="Group_5776" data-name="Group 5776" transform="translate(0 0.006)">
                    <path id="Path_15917" data-name="Path 15917" d="M508.21,177.51c-.007.936,1.207,1.116,2.708,1.129s2.718-.145,2.727-1.081-1.2-1.707-2.7-1.72S508.219,176.572,508.21,177.51Z" transform="translate(-506.261 -167.392)" fill="#3e2344"/>
                    <path id="Path_15918" data-name="Path 15918" d="M507.161,174.789c-.05.136,2.368-1.655,3.308-1.579s5.146,1.624,5.508,1.146a10.076,10.076,0,0,0,.814-2.171s-5.866-1.142-6.912-.843S507.581,173.631,507.161,174.789Z" transform="translate(-507.161 -171.291)" fill="#292d34"/>
                  </g>
                  <g id="Group_5777" data-name="Group 5777" transform="translate(4.352 4.429)">
                    <path id="Path_15919" data-name="Path 15919" d="M514.016,182.748s3.453.2,3.462-.747-7.1-2.654-7.562-2.012S512.51,182.174,514.016,182.748Z" transform="translate(-509.19 -168.376)" fill="#e57e55" opacity="0.5"/>
                    <path id="Path_15920" data-name="Path 15920" d="M515.062,173.672s.609,4.406-.052,5.913-4.146,4.713-4.282,5.446,3.344,2.881,3.6,3.013-5.131-1.211-4.813-2.894,4.776-5.563,5-6.381S515.062,173.672,515.062,173.672Z" transform="translate(-509.504 -173.672)" fill="#e57e55"/>
                  </g>
                </g>
              </g>
              <g id="Group_5781" data-name="Group 5781" transform="translate(2.293 35.921)">
                <g id="Group_5780" data-name="Group 5780" transform="translate(0.418 0.416)" style="mix-blend-mode: multiply;isolation: isolate">
                  <path id="Path_15921" data-name="Path 15921" d="M505.42,174.306s-1.874,8.023,6.108,8.023c8.108,0,6.058-8.277,6.058-8.277C508.825,172.893,505.42,174.306,505.42,174.306Z" transform="translate(-505.229 -173.595)" fill="#a1abad" opacity="0.5"/>
                  <path id="Path_15922" data-name="Path 15922" d="M526.915,174.052c-8.76-1.159-12.165.255-12.165.255s-1.872,8.023,6.108,8.023C528.965,182.329,526.915,174.052,526.915,174.052Z" transform="translate(-497.228 -173.595)" fill="#a1abad" opacity="0.5"/>
                </g>
                <path id="Path_15923" data-name="Path 15923" d="M541.55,176.19v-1.323l-6.108-1-.281-.037c-8.77-1.159-12.234.223-12.377.282l-.2.082-.043.186a4.547,4.547,0,0,0-4.343-.136l-.022-.1-.069-.275-.279-.037c-8.768-1.157-12.234.223-12.379.282l-.2.082-.05.208c-.035.156-.871,3.864,1.115,6.368,1.139,1.434,2.953,2.16,5.4,2.16s4.276-.734,5.409-2.183a7.678,7.678,0,0,0,1.228-5.5c1.358-1.016,3.585-.126,4.042.074a7.594,7.594,0,0,0,1.256,5.448c1.137,1.434,2.953,2.16,5.4,2.16s4.276-.734,5.409-2.183a7.456,7.456,0,0,0,1.269-5.075l0,.006Zm-25.076,4.053c-.97,1.235-2.569,1.863-4.755,1.863s-3.771-.622-4.744-1.846c-1.484-1.867-1.139-4.651-1-5.448.836-.258,4.3-1.109,11.458-.2C517.593,175.5,517.961,178.349,516.475,180.244Zm17.329,0c-.968,1.235-2.567,1.863-4.754,1.863s-3.771-.622-4.746-1.846c-1.484-1.867-1.139-4.651-1-5.448.838-.256,4.3-1.109,11.459-.2C534.924,175.5,535.292,178.349,533.8,180.244Z" transform="translate(-505.004 -173.372)" fill="#292d34"/>
              </g>
            </g>
          </g>
        </g>
        <g id="Group_5785" data-name="Group 5785" transform="translate(148.638 101.858)">
          <path id="Path_15924" data-name="Path 15924" d="M564.539,214.915c-12.149-16.735-36.914,4.443-27.245,24.892,9.766,20.649,24.392,39.165,27.242,58.168,1.989,13.258-29.432,64.664-29.432,64.664-.229,2.426,14.017,16.859,16.549,16.906,0,0,54.007-57.37,48.349-88.943C595.4,264.93,580.641,239.008,564.539,214.915Z" transform="translate(-529.497 -208.868)" fill="#8cca85"/>
          <path id="Path_15925" data-name="Path 15925" d="M552.282,260.827c4.194-3.7,19.454-10,20.742-8.381,1.025,1.285-13.969,6.565-13.969,6.565s19.243-6.026,20.32-1.952c.591,2.237-11.85.617-25.646,5.047C553.729,262.1,549.808,263.01,552.282,260.827Z" transform="translate(-515.466 -171.72)" fill="#6dae66"/>
          <path id="Path_15926" data-name="Path 15926" d="M533.865,288.33s6.083,13.269,22.031,24.08a1.788,1.788,0,0,1-1.178,2c-1.438.448-4.785-2.361-11.114-8.584-4.23-4.159-11.326-14.623-11.508-16.061S533.865,288.33,533.865,288.33Z" transform="translate(-532.084 -140.722)" fill="#6dae66"/>
        </g>
      </g>
    </g>
    <g id="Group_5811" data-name="Group 5811" transform="translate(182.337 224.361)">
      <path id="Path_15927" data-name="Path 15927" d="M388.788,431.849c0,4.079-57.724,7.386-128.933,7.386s-128.933-3.307-128.933-7.386,57.726-7.386,128.933-7.386S388.788,427.771,388.788,431.849Z" transform="translate(-130.922 77.882)" fill="#4694eb" opacity="0.3"/>
      <g id="Group_5810" data-name="Group 5810" transform="translate(0.001 0)">
        <g id="Group_5789" data-name="Group 5789" transform="translate(38.752 470.544)">
          <path id="Path_15928" data-name="Path 15928" d="M191.445,408.683l-.006,24.253s1.116,5.06,1.2,6.78c.08,1.694-.555,6.765-.555,6.765-2.064,1.664-8.8,2.472-12.251,1.648l-.682-.528s-.641.418-5.391,1.765c-4.843,1.375-19.36,2.344-21.593.676,0,0-2.157-7.157,3.791-8.929,14.894-4.434,16.921-8.565,17.779-13.241,1.079-5.889,1.949-20.528,1.949-20.528Z" transform="translate(-151.784 -407.344)" fill="#fff"/>
          <g id="Group_5788" data-name="Group 5788" clip-path="url(#clip-path-9)">
            <path id="Path_15929" data-name="Path 15929" d="M171.322,422.446s4-.639,6.351,1.493c2.224,2.016,3.972,3.73,7.167,2.946,8.186-2.006,7.454-8.4,11.116-5.669l.814,16.742-45.594,4.23-.747-12.682Z" transform="translate(-152.947 -396.02)" fill="#292d34"/>
            <path id="Path_15930" data-name="Path 15930" d="M151.612,431.35s.713,2.147,15.041.754,15.438-4.713,26.662-4.995l-.375,3.953-41.851,5.807Z" transform="translate(-152.381 -390.394)" fill="#292d34"/>
          </g>
        </g>
        <g id="Group_5791" data-name="Group 5791" transform="translate(137.698 468.899)">
          <path id="Path_15932" data-name="Path 15932" d="M205.05,408.882l1.679,24.2s-.765,5.125-.726,6.845c.037,1.7,1.02,6.712,1.02,6.712,2.173,1.518,8.946,1.861,12.336.8l.645-.572s.667.372,5.5,1.388c4.926,1.038,19.477,1,21.589-.815,0,0,1.657-7.289-4.4-8.645-15.165-3.4-17.472-7.378-18.65-11.983-1.482-5.8-3.358-20.346-3.358-20.346Z" transform="translate(-205.05 -406.458)" fill="#fff"/>
          <g id="Group_5790" data-name="Group 5790" clip-path="url(#clip-path-10)">
            <path id="Path_15933" data-name="Path 15933" d="M228.8,420.585s-4.035-.36-6.232,1.928c-2.079,2.164-3.706,4-6.947,3.435-8.3-1.438-8.014-7.865-11.48-4.889l.346,16.759,45.775,1.074-.128-12.7Z" transform="translate(-205.832 -394.603)" fill="#292d34"/>
            <path id="Path_15934" data-name="Path 15934" d="M247.577,428.187s-.565,2.192-14.954,1.791-15.726-3.639-26.942-3.145l.646,3.916,42.152,2.907Z" transform="translate(-204.509 -389.029)" fill="#292d34"/>
          </g>
        </g>
        <g id="Group_5792" data-name="Group 5792" transform="translate(117.411 99.856)">
          <path id="Path_15936" data-name="Path 15936" d="M196.029,232.644c6.667,14.036,50.838,67.488,68.365,74.465,26.116,10.4,68.81-7.148,87.253-14.387,7.033-4.04-.448-23.467-6.73-22.56,0,0-60.472,8.684-67.066,4.993-5.656-3.163-33.767-47.09-57.65-65.569C212.174,203.375,187.085,213.807,196.029,232.644Z" transform="translate(-194.129 -207.79)" fill="#4694eb"/>
          <path id="Path_15937" data-name="Path 15937" d="M284.207,250.444c1.1,3.691,1.068,7.219.108,9.394a3.434,3.434,0,0,1-2.08,2.116c-1.254.375-2.686-.227-4.024-1.512a16.384,16.384,0,0,1-3.949-7.033c-1.107-3.71-1.061-7.258-.08-9.422a3.413,3.413,0,0,1,2.075-2.077,2.622,2.622,0,0,1,1.057-.091l.017-.006C279.863,242.089,282.768,245.616,284.207,250.444Z" transform="translate(-126.114 -178.622)" fill="#fff"/>
          <path id="Path_15938" data-name="Path 15938" d="M319.316,245.748a16.143,16.143,0,0,1-1.72,2.008,1.673,1.673,0,0,1,.786,2.759,15.846,15.846,0,0,1-2.935,2.578,2.031,2.031,0,0,1-.332,1.707c-4.5,6.617-24.561,13.349-29.959,12.49a1.721,1.721,0,0,0-.4-.013c-1.544.03-4.7,1.178-5.907.7a1.036,1.036,0,0,1-.2-.093,16.373,16.373,0,0,1-3.949-7.033c-1.107-3.71-1.061-7.258-.08-9.42.617-.821,1.731-.91,3.132-2.17l.017-.006a11.17,11.17,0,0,0,2.305-2.931c.864-1.492,3.914-5.188,10.607-10.027,1.707-1.239,7.228-2.792,8.825-3.269,3.7-1.141,3.117,3.3,1.111,5.038-2.863,2.443-4.313,2.913-5.227,4.233a11.888,11.888,0,0,0-1.174,2.09,96.38,96.38,0,0,0,13.022-2.874c2.489-.875,4.469-2.138,7.8-3.823,1.48-.741,2.822,1.122,1.78,2.7a20.619,20.619,0,0,1-7.586,5.985c-1.507.654-3.063,1.269-4.519,1.778a29.237,29.237,0,0,0,5.463-1.311c2.42-.853,4.388-2.225,7.7-3.719C319.4,242.451,320.43,244.217,319.316,245.748Z" transform="translate(-125.735 -186.307)" fill="#ffb072"/>
        </g>
        <path id="Path_15939" data-name="Path 15939" d="M184.85,290.165c5.6-23.851,39.2-26.279,42.5-2.079,4.741,34.724,18.316,259.146,18.316,259.146-6.522,5.289-15.908,2.55-21.8.654C223.863,547.886,170.211,352.528,184.85,290.165Z" transform="translate(-86.845 -53.669)" fill="#292d34"/>
        <path id="Path_15940" data-name="Path 15940" d="M164.909,283.168c11.419-21.639,45.537-14.872,46.369,9.6,2.636,77.521-22.43,256.974-22.43,256.974-7,3.94-15.62,2.539-20.71-.743C168.138,549,143.471,323.793,164.909,283.168Z" transform="translate(-109.286 -54.464)" fill="#292d34"/>
        <path id="Path_15941" data-name="Path 15941" d="M241.312,316.844C241,329.615,228.4,344.306,207.584,343.8s-48.043-11.253-47.731-24.024c1.007-41.212,18.084-63.254,38.9-62.747S242.339,274.844,241.312,316.844Z" transform="translate(-106.114 -65.715)" fill="#292d34"/>
        <path id="Path_15942" data-name="Path 15942" d="M247.919,301.052c-.184,7.48-22.41,10.741-46.649,10.148s-42.379-4.557-42.2-12.037c.591-24.141,21.648-37.687,45.886-37.1S248.521,276.45,247.919,301.052Z" transform="translate(-106.782 -61.403)" fill="#fff"/>
        <g id="Group_5794" data-name="Group 5794" transform="translate(21.135 78.922)">
          <path id="Path_15943" data-name="Path 15943" d="M153.5,225.916c9.182-15.372,52.443-29.324,54.659-29.389,15.312-.44,48.336,20.344,51.838,28.217,3.046,6.849-8.833,65.136-7.531,91.183.678,13.573,2.422,23.721,2.088,37.4-.312,12.771-91.254,12.955-90.942.184.258-10.588,7.98-18.383,7.856-29.428C171.223,301.991,149.56,232.52,153.5,225.916Z" transform="translate(-133.103 -196.52)" fill="#fff"/>
          <path id="Path_15944" data-name="Path 15944" d="M196.174,200.106s21.6,76.961,12.728,125.6c-3.4,18.639-28.456,40.2-35.448,54.994-4.267,9.03-4.8,30.266-4.8,30.266S142.259,400.892,142.3,380.7c.02-10.858,31.154-72.462,31.154-72.462s-21.308-68.259-16.107-84.741S196.174,200.106,196.174,200.106Z" transform="translate(-142.3 -193.445)" fill="#4694eb"/>
          <path id="Path_15945" data-name="Path 15945" d="M176.845,308.7c11.541-32.569,9.269-105.717-19.594-100.811a20.738,20.738,0,0,0-6.474,9.139c-5.2,16.482,16.107,84.741,16.107,84.741a240.822,240.822,0,0,0-15.769,31.542C160.346,324.552,172.638,320.573,176.845,308.7Z" transform="translate(-135.731 -186.974)" fill="#0f64c3" opacity="0.5"/>
          <g id="Group_5793" data-name="Group 5793" transform="translate(76.407 40.31)">
            <path id="Path_15946" data-name="Path 15946" d="M187.68,220.395a2.124,2.124,0,1,1-2.071-2.173A2.123,2.123,0,0,1,187.68,220.395Z" transform="translate(-183.433 -218.221)" fill="#707070"/>
            <path id="Path_15947" data-name="Path 15947" d="M189.208,232.583a2.124,2.124,0,1,1-2.071-2.173A2.123,2.123,0,0,1,189.208,232.583Z" transform="translate(-182.122 -207.768)" fill="#707070"/>
            <path id="Path_15948" data-name="Path 15948" d="M190.095,244.454a2.123,2.123,0,1,1-2.071-2.175A2.124,2.124,0,0,1,190.095,244.454Z" transform="translate(-181.36 -197.59)" fill="#707070"/>
            <path id="Path_15949" data-name="Path 15949" d="M190.97,255.413a2.123,2.123,0,1,1-2.069-2.173A2.122,2.122,0,0,1,190.97,255.413Z" transform="translate(-180.609 -188.19)" fill="#707070"/>
            <path id="Path_15950" data-name="Path 15950" d="M190.953,266.225a2.123,2.123,0,1,1-2.071-2.173A2.126,2.126,0,0,1,190.953,266.225Z" transform="translate(-180.624 -178.918)" fill="#707070"/>
            <path id="Path_15951" data-name="Path 15951" d="M191.261,277.042a2.123,2.123,0,1,1-2.071-2.173A2.126,2.126,0,0,1,191.261,277.042Z" transform="translate(-180.36 -169.641)" fill="#707070"/>
          </g>
        </g>
        <g id="Group_5795" data-name="Group 5795" transform="translate(0 98.205)">
          <path id="Path_15952" data-name="Path 15952" d="M169.715,212.587c12.251-16.874,32.212,7.217,22.462,27.838-9.847,20.822-22.2,41.84-25.07,61-2.006,13.369,29.679,65.21,29.679,65.21.232,2.446-14.134,17-16.689,17.047,0,0-54.463-57.853-48.756-89.693C135.982,268.107,146.369,238.391,169.715,212.587Z" transform="translate(-130.922 -206.901)" fill="#4694eb"/>
          <path id="Path_15953" data-name="Path 15953" d="M162.06,261.812c-4.23-3.732-19.618-10.085-20.918-8.452-1.033,1.3,14.088,6.62,14.088,6.62s-19.406-6.078-20.491-1.969c-.594,2.255,11.95.62,25.863,5.09C160.6,263.1,164.554,264.014,162.06,261.812Z" transform="translate(-127.667 -167.284)" fill="#1f6abe" opacity="0.5"/>
          <path id="Path_15954" data-name="Path 15954" d="M178.722,289.548s-6.136,13.38-22.217,24.282a1.8,1.8,0,0,0,1.187,2.021c1.449.453,4.826-2.381,11.207-8.654,4.267-4.2,11.422-14.747,11.606-16.2S178.722,289.548,178.722,289.548Z" transform="translate(-108.999 -136.024)" fill="#2a7bd7"/>
        </g>
        <path id="Path_15955" data-name="Path 15955" d="M193.527,199.529s3.9,112.763,5.014,119.853,9.225,81.615,13.924,87.371,18.479-2.666,18.479-2.666l-10.8-93.919s10.6-73.941,6.606-87.108S193.527,199.529,193.527,199.529Z" transform="translate(-77.234 -115.018)" fill="#4694eb"/>
        <g id="Group_5809" data-name="Group 5809" transform="translate(73.833)">
          <path id="Path_15956" data-name="Path 15956" d="M174.084,195.786c2.714-3.6,29.931-4.254,31.369-.487l-.617,16.428-32.407-.256Z" transform="translate(-169.16 -120.821)" fill="#aaa"/>
          <g id="Group_5806" data-name="Group 5806" transform="translate(0.622)">
            <g id="Group_5805" data-name="Group 5805">
              <path id="Path_15957" data-name="Path 15957" d="M181.113,183.079s.706,10.456-1.161,18.968-7.518,19.59-7.518,19.59l14.627,1.122,10.211,14.211,2.591-16.767,11.1-4.105s-10.659-6.548-10.274-18.106c.336-10.074.6-15.672.6-15.672Z" transform="translate(-169.778 -129.777)" fill="#ffb072"/>
              <g id="Group_5802" data-name="Group 5802">
                <g id="Group_5796" data-name="Group 5796" transform="translate(38.105 34.137)">
                  <path id="Path_15958" data-name="Path 15958" d="M194.431,188.436c-3.128-2.387-3.907-10.051-1.507-13.884a4.456,4.456,0,0,1,5.8-1.692c3,1.235,3.881,5.034,3.5,8.785C201.774,186.14,197.849,191.043,194.431,188.436Z" transform="translate(-191.517 -172.411)" fill="#ffb072" fill-rule="evenodd"/>
                  <path id="Path_15959" data-name="Path 15959" d="M194.449,184.976l.762-4.118-2.489-.717s.384-7.551,4.586-5.374C200.759,176.556,198.563,185.924,194.449,184.976Z" transform="translate(-190.485 -170.728)" fill="#e57e55"/>
                </g>
                <g id="Group_5797" data-name="Group 5797">
                  <path id="Path_15960" data-name="Path 15960" d="M182.339,200.221s1.016,7.014,3.821,10.59c3.373,4.3,8.021,9.494,20.493,6.908S215,188.59,215,188.59s.247-10.506-2.746-18.667S192,159.8,179.066,165.906c0,0-3.342,4.271.58,20.593a5.108,5.108,0,0,0-6.55.08c-2.742,2.062-2.491,5.954-.947,9.427C174,200.174,179.084,203.254,182.339,200.221Z" transform="translate(-171.004 -146.919)" fill="#ffb072" fill-rule="evenodd"/>
                  <path id="Path_15961" data-name="Path 15961" d="M183.995,184.065s3.559,1.958,9.392.86c1.978-.373,4.373-.836,5.088-1.653" transform="translate(-159.863 -128.96)" fill="none" stroke="#fd6141" stroke-linecap="round" stroke-linejoin="round" stroke-width="0.722"/>
                  <path id="Path_15962" data-name="Path 15962" d="M172.243,173.2c8.536-18.175,25.82-18.141,25.82-18.141l.284,5.346c1.285-2.27,1.064-6.375,1.064-6.375,7.02,3.645,6.819,8.694,6.819,8.694l1.295-3.959c10.676,5.474,11.365,18.36,7.441,36.936l-1.583-13.287a29.584,29.584,0,0,0-2.614-7.614s-1.375,1.787-10.126,2.255c-.364.02-.724.03-1.085.043-.188.02-.318.032-.318.032-.041,0-.076-.011-.117-.015a84.182,84.182,0,0,1-15.685-1.161,49.994,49.994,0,0,1-1.356,9.533c-.68,2.6,1.547,16.9,1.547,16.9s-.267,1.737-.864.046c-1.089-3.1-2.259-11.766-9.708-8.744C173.06,193.693,169.133,179.951,172.243,173.2Z" transform="translate(-170.969 -154.034)" fill="#292d34"/>
                  <path id="Path_15963" data-name="Path 15963" d="M179.467,186.506l-2.055-3.717,2.367-1.414s-2.716-7.111-6.416-3.8C170.324,180.3,175.479,188.618,179.467,186.506Z" transform="translate(-169.767 -134.598)" fill="#e57e55"/>
                </g>
                <g id="Group_5801" data-name="Group 5801" transform="translate(15.001 31.815)">
                  <g id="Group_5798" data-name="Group 5798" transform="translate(0 0.922)">
                    <path id="Path_15964" data-name="Path 15964" d="M187.246,177.871c.059.942-1.154,1.189-2.666,1.284s-2.746,0-2.8-.942,1.116-1.785,2.627-1.88S187.188,176.927,187.246,177.871Z" transform="translate(-176.768 -167.655)" fill="#3e2344"/>
                    <path id="Path_15965" data-name="Path 15965" d="M179.084,175.548c.007.149,4.25-1.492,5.625-1.518s6.593.643,7.012.124a7.38,7.38,0,0,0,.708-2.268s-7.09-.474-8.536-.059c-.977.281-3.126.624-4.23,1.648A2.942,2.942,0,0,0,179.084,175.548Z" transform="translate(-179.079 -171.658)" fill="#201d42"/>
                  </g>
                  <g id="Group_5799" data-name="Group 5799" transform="translate(17.368)">
                    <path id="Path_15966" data-name="Path 15966" d="M195.388,177.325c.058.944-1.155,1.191-2.666,1.284s-2.746,0-2.8-.942,1.118-1.785,2.628-1.878S195.328,176.382,195.388,177.325Z" transform="translate(-187.155 -167.2)" fill="#3e2344"/>
                    <path id="Path_15967" data-name="Path 15967" d="M198.267,174.516c.009.145-2.472-1.54-3.418-1.412s-5.092,1.911-5.482,1.451a10.234,10.234,0,0,1-.938-2.142s5.846-1.469,6.914-1.224a5.636,5.636,0,0,1,2.5,1.135A3.346,3.346,0,0,1,198.267,174.516Z" transform="translate(-188.429 -171.161)" fill="#201d42"/>
                  </g>
                  <g id="Group_5800" data-name="Group 5800" transform="translate(15.261 4.818)">
                    <path id="Path_15968" data-name="Path 15968" d="M190.823,182.961s-3.468.392-3.528-.565,7.009-3.056,7.507-2.433S192.309,182.3,190.823,182.961Z" transform="translate(-187.295 -168.528)" fill="#e57e55" opacity="0.5"/>
                    <path id="Path_15969" data-name="Path 15969" d="M188.422,173.755s-.375,4.471.372,5.952,4.43,4.523,4.607,5.255-3.212,3.082-3.464,3.227,5.1-1.5,4.689-3.173-5.108-5.344-5.378-6.158S188.422,173.755,188.422,173.755Z" transform="translate(-186.408 -173.755)" fill="#e57e55"/>
                  </g>
                </g>
              </g>
              <g id="Group_5804" data-name="Group 5804" transform="translate(9.54 35.622)">
                <g id="Group_5803" data-name="Group 5803" transform="translate(6.323 0.419)" style="mix-blend-mode: multiply;isolation: isolate">
                  <path id="Path_15970" data-name="Path 15970" d="M201.332,173.886s2.32,7.976-5.718,8.406c-8.164.438-6.546-8.006-6.546-8.006C197.829,172.645,201.332,173.886,201.332,173.886Z" transform="translate(-171.487 -173.436)" fill="#a1abad" opacity="0.5"/>
                  <path id="Path_15971" data-name="Path 15971" d="M179.674,174.786c8.759-1.638,12.264-.4,12.264-.4s2.318,7.976-5.718,8.406C178.055,183.231,179.674,174.786,179.674,174.786Z" transform="translate(-179.544 -173.005)" fill="#a1abad" opacity="0.5"/>
                </g>
                <path id="Path_15972" data-name="Path 15972" d="M182.043,176.893l0-.006a7.512,7.512,0,0,0,1.551,5.041c1.22,1.4,3.093,2.04,5.565,1.908s4.248-.962,5.316-2.469a7.648,7.648,0,0,0,.972-5.552c.449-.228,2.645-1.243,4.066-.294a7.745,7.745,0,0,0,1.532,5.472c1.22,1.4,3.093,2.04,5.565,1.908s4.248-.962,5.316-2.467c1.867-2.629.825-6.318.78-6.474l-.061-.2-.2-.072c-.147-.052-3.713-1.256-12.479.383l-.279.052-.054.281-.017.1a4.587,4.587,0,0,0-4.367.37l-.052-.184-.2-.071c-.149-.054-3.711-1.258-12.481.381l-.279.054-6.1,1.334.071,1.33Zm18.37-2.058c7.157-1.306,10.694-.635,11.549-.422.182.8.68,3.581-.715,5.541-.914,1.285-2.487,2-4.677,2.114s-3.847-.427-4.889-1.62C200.082,178.621,200.3,175.736,200.413,174.835Zm-17.452.934c7.155-1.306,10.692-.635,11.549-.422.182.8.68,3.581-.713,5.541-.916,1.285-2.489,2-4.679,2.114s-3.845-.427-4.889-1.62C182.63,179.555,182.846,176.67,182.961,175.769Z" transform="translate(-176.14 -173.21)" fill="#292d34"/>
              </g>
            </g>
          </g>
          <g id="Group_5807" data-name="Group 5807" transform="translate(0 74.965)">
            <path id="Path_15973" data-name="Path 15973" d="M175.593,194.39s-.786,3.241,5.515,8.79c1.971,1.735,8.712,5.985,8.712,5.985l9.869,18.578-2.22.364L188.1,210.8l-9.24,13.895c-2.941-3.906-7.7-13.154-8.2-18.171Z" transform="translate(-170.669 -194.39)" fill="#efefef"/>
            <path id="Path_15974" data-name="Path 15974" d="M175.081,217.121l9.239-13.895,9.366,17.3-11.1-8.933Z" transform="translate(-166.885 -186.812)" fill="#aaa"/>
          </g>
          <g id="Group_5808" data-name="Group 5808" transform="translate(26.801 74.478)">
            <path id="Path_15975" data-name="Path 15975" d="M194.589,194.128c.16,4.421-2.907,12.684-5.393,14.92l-4.1,19.284,2.22-.364,3.325-17.372,6.671,13.1a28.916,28.916,0,0,0,2.653-20.24Z" transform="translate(-185.097 -194.128)" fill="#efefef"/>
            <path id="Path_15976" data-name="Path 15976" d="M196.287,216.088l-6.669-13.095-3.326,17.371,3.515-9.449Z" transform="translate(-184.072 -186.525)" fill="#aaa"/>
          </g>
        </g>
      </g>
    </g>
    <g id="Group_5812" data-name="Group 5812" transform="translate(176.823 276.371)">
      <path id="Path_15977" data-name="Path 15977" d="M153.217,361.03h-6.892v-6.892a2.837,2.837,0,0,0-2.837-2.837h0a2.837,2.837,0,0,0-2.837,2.837v6.892H133.76a2.838,2.838,0,0,0-2.838,2.837h0a2.837,2.837,0,0,0,2.838,2.836h6.892V373.6a2.837,2.837,0,0,0,2.837,2.837h0a2.837,2.837,0,0,0,2.837-2.837V366.7h6.892a2.837,2.837,0,0,0,2.838-2.836h0A2.838,2.838,0,0,0,153.217,361.03Z" transform="translate(-125.409 -36.871)" fill="#fff"/>
      <path id="Path_15978" data-name="Path 15978" d="M480.4,394.409h-6.893v-6.892a2.835,2.835,0,0,0-2.837-2.837h0a2.836,2.836,0,0,0-2.837,2.837v6.892h-6.892a2.837,2.837,0,0,0-2.837,2.837h0a2.837,2.837,0,0,0,2.837,2.836h6.892v6.892a2.838,2.838,0,0,0,2.837,2.838h0a2.837,2.837,0,0,0,2.837-2.838v-6.892H480.4a2.837,2.837,0,0,0,2.837-2.836h0A2.837,2.837,0,0,0,480.4,394.409Z" transform="translate(155.182 -8.245)" fill="#fff"/>
      <path id="Path_15979" data-name="Path 15979" d="M630.121,254.782h-6.893V247.89a2.836,2.836,0,0,0-2.836-2.838h0a2.838,2.838,0,0,0-2.837,2.838v6.892h-6.892a2.836,2.836,0,0,0-2.837,2.837h0a2.836,2.836,0,0,0,2.837,2.836h6.892v6.892a2.838,2.838,0,0,0,2.837,2.838h0a2.836,2.836,0,0,0,2.836-2.838v-6.892h6.893a2.837,2.837,0,0,0,2.836-2.836h0A2.837,2.837,0,0,0,630.121,254.782Z" transform="translate(283.576 -127.989)" fill="#f7b614"/>
      <path id="Path_15980" data-name="Path 15980" d="M150.249,191.761h-6.893v-6.892a2.836,2.836,0,0,0-2.837-2.837h0a2.837,2.837,0,0,0-2.837,2.837v6.892h-6.892a2.836,2.836,0,0,0-2.837,2.837h0a2.837,2.837,0,0,0,2.837,2.838h6.892v6.892a2.837,2.837,0,0,0,2.837,2.837h0a2.836,2.836,0,0,0,2.837-2.837v-6.892h6.893a2.838,2.838,0,0,0,2.837-2.838h0A2.837,2.837,0,0,0,150.249,191.761Z" transform="translate(-127.954 -182.033)" fill="#f7b614"/>
    </g>
    <g id="Group_5813" data-name="Group 5813" transform="translate(475.19 72.029)">
      <path id="Path_15981" data-name="Path 15981" d="M336.044,99.386A20.143,20.143,0,1,1,315.9,119.53,20.153,20.153,0,0,1,336.044,99.386Zm5.01-27.093a47.542,47.542,0,0,0-10.02,0L330.1,86.847a33.253,33.253,0,0,0-6.725,1.975L314.72,77.084a47.541,47.541,0,0,0-8.43,5.417l7.083,12.749a33.218,33.218,0,0,0-4.588,5.3l-13.627-5.2A47.51,47.51,0,0,0,291,104.465l12.851,6.9a33.25,33.25,0,0,0-1,6.936l-14.274,3A47.541,47.541,0,0,0,290,131.21l14.539-1.146a33.25,33.25,0,0,0,2.911,6.375l-10.388,10.237a47.547,47.547,0,0,0,6.563,7.572l11.61-8.824a33.291,33.291,0,0,0,5.9,3.788l-3.2,14.229a47.5,47.5,0,0,0,9.615,2.822l5-13.7a33.215,33.215,0,0,0,7.007,0l5,13.7a47.5,47.5,0,0,0,9.615-2.822l-3.2-14.229a33.294,33.294,0,0,0,5.9-3.788l11.61,8.824a47.545,47.545,0,0,0,6.563-7.572l-10.388-10.237a33.253,33.253,0,0,0,2.911-6.375l14.539,1.146a47.543,47.543,0,0,0,1.427-9.918l-14.274-3a33.254,33.254,0,0,0-1-6.936l12.851-6.9a47.508,47.508,0,0,0-4.163-9.115l-13.627,5.2a33.223,33.223,0,0,0-4.588-5.3L365.8,82.5a47.539,47.539,0,0,0-8.43-5.417l-8.654,11.738a33.252,33.252,0,0,0-6.724-1.975Z" transform="translate(-288.575 -72.028)" fill="#8cca85" fill-rule="evenodd"/>
      <path id="Path_15982" data-name="Path 15982" d="M381.669,114.087a17.928,17.928,0,1,1-20.513,14.9A17.938,17.938,0,0,1,381.669,114.087Zm5.656-23.716q-1.834-.373-3.695-.585l-4.62,12.442a29.381,29.381,0,0,0-5.261.446l-6.643-11.491q-1.8.521-3.544,1.2l1.692,13.165a29.579,29.579,0,0,0-4.453,2.838L349.581,101.3Q348.23,102.593,347,104l7.616,10.871a29.611,29.611,0,0,0-2.623,4.583l-13.23-1.061q-.593,1.778-1.027,3.6l11.8,6.085a29.49,29.49,0,0,0-.193,5.277l-12.208,5.209q.3,1.847.763,3.663l13.272-.093a29.549,29.549,0,0,0,2.281,4.761l-8.389,10.287q1.126,1.5,2.378,2.889l11.708-6.251a29.592,29.592,0,0,0,4.234,3.156l-2.647,13.007q1.691.8,3.448,1.453l7.462-10.975a29.648,29.648,0,0,0,5.216.827l3.7,12.747q1.87-.075,3.726-.316l1.508-13.187a29.518,29.518,0,0,0,5-1.69l9.2,9.567q1.622-.936,3.156-2.012l-4.794-12.377A29.514,29.514,0,0,0,402,150.2l12.593,4.2q1-1.583,1.859-3.249l-10-8.731a29.426,29.426,0,0,0,1.451-5.077L421,135.2c.1-1.243.145-2.491.136-3.737l-12.908-3.087a29.694,29.694,0,0,0-1.076-5.168l10.605-7.98q-.733-1.722-1.616-3.373l-12.864,3.266a29.656,29.656,0,0,0-3.355-4.077l5.682-11.994q-1.449-1.184-3-2.237l-9.873,8.872a29.435,29.435,0,0,0-4.865-2.053Z" transform="translate(-246.935 -56.8)" fill="#f7c366" fill-rule="evenodd"/>
      <path id="Path_15983" data-name="Path 15983" d="M369.081,115.412a6.389,6.389,0,1,1-6.388-6.388A6.389,6.389,0,0,1,369.081,115.412Z" transform="translate(-230.493 -40.302)" fill="#f5c143" fill-rule="evenodd"/>
    </g>
  </g>
</svg>
