<svg xmlns="http://www.w3.org/2000/svg" width="70" height="70" viewBox="0 0 70 70">
  <g id="Group_10603" data-name="Group 10603" transform="translate(-1288 -1278)">
    <g id="Group_10505" data-name="Group 10505" transform="translate(1288.492 1278)">
      <circle id="Ellipse_64" data-name="Ellipse 64" cx="35" cy="35" r="35" transform="translate(-0.492)" fill="rgba(245,193,67,0.2)"/>
    </g>
    <g id="Group_10602" data-name="Group 10602" transform="translate(5515 20687)">
      <path id="pie_chart_24dp_5F6368_FILL0_wght200_GRAD0_opsz24_2_" data-name="pie_chart_24dp_5F6368_FILL0_wght200_GRAD0_opsz24 (2)" d="M141.111-821.111h16.641a17.413,17.413,0,0,0-5.169-11.493,17.111,17.111,0,0,0-11.472-5.148v16.641Zm-2.222,18.863v-35.5a17.082,17.082,0,0,0-11.844,5.519A17.206,17.206,0,0,0,122.222-820a17.206,17.206,0,0,0,4.823,12.233A17.082,17.082,0,0,0,138.889-802.248Zm2.222,0a17.072,17.072,0,0,0,11.479-5.141,17.372,17.372,0,0,0,5.162-11.5H141.111ZM140-820Zm.007,20a19.492,19.492,0,0,1-7.8-1.574,20.213,20.213,0,0,1-6.353-4.273,20.18,20.18,0,0,1-4.277-6.348,19.449,19.449,0,0,1-1.576-7.8,19.493,19.493,0,0,1,1.574-7.8,20.214,20.214,0,0,1,4.273-6.353,20.181,20.181,0,0,1,6.348-4.277,19.449,19.449,0,0,1,7.8-1.576,19.383,19.383,0,0,1,7.792,1.579,20.308,20.308,0,0,1,6.35,4.287,20.324,20.324,0,0,1,4.287,6.345,19.387,19.387,0,0,1,1.579,7.8,19.347,19.347,0,0,1-1.574,7.758,20.47,20.47,0,0,1-4.273,6.364,19.981,19.981,0,0,1-6.348,4.292A19.49,19.49,0,0,1,140.007-800Z" transform="translate(-4332 -18554)" fill="#f5c143" stroke="#f5c143" stroke-width="1"/>
    </g>
  </g>
</svg>
