<svg xmlns="http://www.w3.org/2000/svg" width="30" height="30" viewBox="0 0 30 30">
  <path id="Path_14995" data-name="Path 14995" d="M113.816-837.5h2.368v-9.079h-2.368ZM115-849.281a1.235,1.235,0,0,0,.909-.367,1.234,1.234,0,0,0,.367-.909,1.233,1.233,0,0,0-.367-.908,1.234,1.234,0,0,0-.909-.366,1.234,1.234,0,0,0-.909.366,1.233,1.233,0,0,0-.367.908,1.234,1.234,0,0,0,.367.909A1.235,1.235,0,0,0,115-849.281ZM115-830a14.614,14.614,0,0,1-5.85-1.181,15.153,15.153,0,0,1-4.764-3.206,15.151,15.151,0,0,1-3.207-4.762A14.6,14.6,0,0,1,100-845a14.613,14.613,0,0,1,1.181-5.85,15.15,15.15,0,0,1,3.206-4.764,15.147,15.147,0,0,1,4.762-3.207A14.6,14.6,0,0,1,115-860a14.609,14.609,0,0,1,5.85,1.181,15.144,15.144,0,0,1,4.764,3.206,15.147,15.147,0,0,1,3.207,4.762A14.6,14.6,0,0,1,130-845a14.615,14.615,0,0,1-1.181,5.851,15.152,15.152,0,0,1-3.206,4.764,15.155,15.155,0,0,1-4.762,3.207A14.6,14.6,0,0,1,115-830Zm0-2.368a12.191,12.191,0,0,0,8.961-3.671,12.191,12.191,0,0,0,3.671-8.96,12.191,12.191,0,0,0-3.671-8.96A12.191,12.191,0,0,0,115-857.632a12.191,12.191,0,0,0-8.961,3.671,12.191,12.191,0,0,0-3.671,8.96,12.191,12.191,0,0,0,3.671,8.96A12.192,12.192,0,0,0,115-832.368ZM115-845Z" transform="translate(-100 860)" fill="#786ce6"/>
</svg>
