<svg xmlns="http://www.w3.org/2000/svg" xmlns:xlink="http://www.w3.org/1999/xlink" width="1291" height="557" viewBox="0 0 1291 557">
  <defs>
    <clipPath id="clip-path">
      <rect id="Rectangle_6" data-name="Rectangle 6" width="1291" height="557" fill="none"/>
    </clipPath>
    <clipPath id="clip-path-2">
      <rect id="Rectangle_2" data-name="Rectangle 2" width="885.838" height="518.88" transform="translate(178.652)" fill="none"/>
    </clipPath>
    <clipPath id="clip-path-3">
      <rect id="Rectangle_3" data-name="Rectangle 3" width="101.212" height="101.211" transform="translate(230.436 47.773)" fill="none"/>
    </clipPath>
    <clipPath id="clip-path-4">
      <rect id="Rectangle_4" data-name="Rectangle 4" width="83.51" height="83.506" transform="translate(985.59 182.823)" fill="none"/>
    </clipPath>
    <clipPath id="clip-path-5">
      <rect id="Rectangle_5" data-name="Rectangle 5" width="28.364" height="28.364" transform="translate(971.263 124.575)" fill="none"/>
    </clipPath>
  </defs>
  <g id="Group_11306" data-name="Group 11306" transform="translate(-657 1165)">
    <g id="Group_14" data-name="Group 14" transform="translate(657 -1165)">
      <g id="Group_13" data-name="Group 13" clip-path="url(#clip-path)">
        <g id="Group_3" data-name="Group 3" opacity="0.4">
          <g id="Group_2" data-name="Group 2">
            <g id="Group_1" data-name="Group 1" clip-path="url(#clip-path-2)">
              <path id="Path_1" data-name="Path 1" d="M294.116,483.53s-131.53-55.995-113.825-131.943S345.727,376.92,345.727,376.92s-54.258-158.228-4.5-239.752S447.689,93.092,516.27,193.319c0,0,36.537-185.425,169.855-193.1S787.407,188.434,787.407,188.434s41.8-118.575,122.7-115.911c106.006,3.492,38.146,236.314,25.527,271.729,0,0,29.6-78.948,97.883-65.157,68.985,13.932,3.125,224.44-10.3,228.172S394.662,542.2,294.116,483.53" fill="#e0e0e0"/>
            </g>
          </g>
        </g>
        <g id="Group_6" data-name="Group 6" opacity="0.4">
          <g id="Group_5" data-name="Group 5">
            <g id="Group_4" data-name="Group 4" clip-path="url(#clip-path-3)">
              <path id="Path_2" data-name="Path 2" d="M331.648,98.379a50.606,50.606,0,1,1-50.606-50.606,50.606,50.606,0,0,1,50.606,50.606" fill="#f7f8fa"/>
            </g>
          </g>
        </g>
        <g id="Group_9" data-name="Group 9" opacity="0.4">
          <g id="Group_8" data-name="Group 8">
            <g id="Group_7" data-name="Group 7" clip-path="url(#clip-path-4)">
              <path id="Path_3" data-name="Path 3" d="M1069.095,224.576a41.753,41.753,0,1,1-41.753-41.753,41.753,41.753,0,0,1,41.753,41.753" fill="#f7f8fa"/>
            </g>
          </g>
        </g>
        <g id="Group_12" data-name="Group 12" opacity="0.4">
          <g id="Group_11" data-name="Group 11">
            <g id="Group_10" data-name="Group 10" clip-path="url(#clip-path-5)">
              <path id="Path_4" data-name="Path 4" d="M999.627,138.757a14.182,14.182,0,1,1-14.182-14.182,14.182,14.182,0,0,1,14.182,14.182" fill="#f7f8fa"/>
            </g>
          </g>
        </g>
      </g>
    </g>
    <rect id="Rectangle_7" data-name="Rectangle 7" width="405.125" height="298.456" transform="translate(1088.15 -1111.657)" fill="#fff"/>
    <rect id="Rectangle_8" data-name="Rectangle 8" width="405.125" height="298.456" transform="translate(1088.15 -1111.657)" fill="none" stroke="#786ce6" stroke-width="1"/>
    <rect id="Rectangle_9" data-name="Rectangle 9" width="405.125" height="19.503" transform="translate(1088.15 -832.704)" fill="#fff"/>
    <rect id="Rectangle_10" data-name="Rectangle 10" width="405.125" height="19.503" transform="translate(1088.15 -832.704)" fill="none" stroke="#786ce6" stroke-width="1"/>
    <path id="Path_5" data-name="Path 5" d="M463.572,297.082h0Z" transform="translate(657 -1165)" fill="#fff"/>
    <line id="Line_1" data-name="Line 1" x2="139.279" transform="translate(1120.572 -867.918)" fill="none" stroke="#786ce6" stroke-width="1"/>
    <path id="Path_6" data-name="Path 6" d="M463.572,280.929h0Z" transform="translate(657 -1165)" fill="#fff"/>
    <line id="Line_2" data-name="Line 2" x2="120.931" transform="translate(1120.572 -884.071)" fill="none" stroke="#786ce6" stroke-width="1"/>
    <path id="Path_7" data-name="Path 7" d="M463.572,264.775h0Z" transform="translate(657 -1165)" fill="#fff"/>
    <line id="Line_3" data-name="Line 3" x2="136.865" transform="translate(1120.572 -900.224)" fill="none" stroke="#786ce6" stroke-width="1"/>
    <path id="Path_8" data-name="Path 8" d="M463.572,248.623h0Z" transform="translate(657 -1165)" fill="#fff"/>
    <line id="Line_4" data-name="Line 4" x2="107.843" transform="translate(1120.572 -916.377)" fill="none" stroke="#786ce6" stroke-width="1"/>
    <path id="Path_9" data-name="Path 9" d="M463.572,232.469h0Z" transform="translate(657 -1165)" fill="#fff"/>
    <line id="Line_5" data-name="Line 5" x2="84.965" transform="translate(1120.572 -932.531)" fill="none" stroke="#786ce6" stroke-width="1"/>
    <rect id="Rectangle_11" data-name="Rectangle 11" width="63.77" height="45.602" transform="translate(1120.572 -1092.476)" fill="#fff"/>
    <rect id="Rectangle_12" data-name="Rectangle 12" width="63.77" height="45.602" transform="translate(1120.572 -1092.476)" fill="none" stroke="#786ce6" stroke-width="1"/>
    <rect id="Rectangle_13" data-name="Rectangle 13" width="60.466" height="40.215" transform="translate(1170.168 -1056.824)" fill="#fff"/>
    <rect id="Rectangle_14" data-name="Rectangle 14" width="60.466" height="40.215" transform="translate(1170.168 -1056.824)" fill="none" stroke="#786ce6" stroke-width="1"/>
    <rect id="Rectangle_15" data-name="Rectangle 15" width="54.442" height="40.215" transform="translate(1396.884 -1035.055)" fill="#fff"/>
    <rect id="Rectangle_16" data-name="Rectangle 16" width="54.442" height="40.215" transform="translate(1396.884 -1035.055)" fill="none" stroke="#786ce6" stroke-width="1"/>
    <rect id="Rectangle_17" data-name="Rectangle 17" width="63.179" height="38.226" transform="translate(1277.247 -1088.985)" fill="#fff"/>
    <rect id="Rectangle_18" data-name="Rectangle 18" width="63.179" height="38.226" transform="translate(1277.247 -1088.985)" fill="none" stroke="#786ce6" stroke-width="1"/>
    <g id="Group_16" data-name="Group 16" transform="translate(657 -1165)">
      <g id="Group_15" data-name="Group 15" clip-path="url(#clip-path)">
        <path id="Path_10" data-name="Path 10" d="M501.278,73.3a6.391,6.391,0,1,1-6.391-6.391,6.391,6.391,0,0,1,6.391,6.391" fill="#ffc524"/>
        <path id="Path_11" data-name="Path 11" d="M548.537,108.176a6.064,6.064,0,1,1-6.064-6.064,6.065,6.065,0,0,1,6.064,6.064" fill="#ffc524"/>
        <path id="Path_12" data-name="Path 12" d="M773.169,129.945a6.065,6.065,0,1,1-6.065-6.064,6.065,6.065,0,0,1,6.065,6.064" fill="#786ce6"/>
        <path id="Path_13" data-name="Path 13" d="M653.783,76.015a6.391,6.391,0,1,1-6.391-6.391,6.391,6.391,0,0,1,6.391,6.391" fill="#f35530"/>
        <path id="Path_14" data-name="Path 14" d="M1102.5,343.845a24.64,24.64,0,1,1-24.639-24.639A24.64,24.64,0,0,1,1102.5,343.845Z" fill="none" stroke="#50c25f" stroke-width="1"/>
        <circle id="Ellipse_1" data-name="Ellipse 1" cx="21.157" cy="21.157" r="21.157" transform="translate(998.946 392.843) rotate(-80.783)" fill="none" stroke="#50c25f" stroke-width="1"/>
        <circle id="Ellipse_2" data-name="Ellipse 2" cx="17.242" cy="17.242" r="17.242" transform="translate(1076.685 408.566) rotate(-85.935)" fill="none" stroke="#50c25f" stroke-width="1"/>
        <line id="Line_6" data-name="Line 6" y1="149.607" x2="39.836" transform="translate(1042.968 319.65)" fill="none" stroke="#50c25f" stroke-width="1"/>
        <line id="Line_7" data-name="Line 7" x2="47.524" y2="56.484" transform="translate(1009.756 359.026)" fill="none" stroke="#50c25f" stroke-width="1"/>
        <line id="Line_8" data-name="Line 8" y1="24.498" x2="51.137" transform="translate(1059.074 384.273)" fill="none" stroke="#50c25f" stroke-width="1"/>
        <path id="Path_15" data-name="Path 15" d="M1062.367,530.514l-34.087-.66a6.142,6.142,0,0,1-5.984-5.448l-6.142-54.067a6.143,6.143,0,0,1,6.1-6.835h46.963a6.142,6.142,0,0,1,6.1,6.892l-6.734,54.728a6.142,6.142,0,0,1-6.216,5.39" fill="#c9c9c9"/>
        <path id="Path_16" data-name="Path 16" d="M516.27,418.637c0,25.43-5.748,46.045-12.838,46.045S490.6,444.067,490.6,418.637s5.748-46.045,12.837-46.045S516.27,393.207,516.27,418.637Z" fill="none" stroke="#50c25f" stroke-width="1"/>
        <path id="Path_17" data-name="Path 17" d="M523.239,438.386c-4.544,16.232-11.9,28.365-16.422,27.1s-4.511-15.451.033-31.684,11.9-28.364,16.422-27.1S527.783,422.155,523.239,438.386Z" fill="none" stroke="#50c25f" stroke-width="1"/>
        <path id="Path_18" data-name="Path 18" d="M496.632,423.043c7.965,20.94,9.688,39.716,3.85,41.937s-17.028-12.955-24.992-33.9-9.689-39.716-3.85-41.937S488.667,402.1,496.632,423.043Z" fill="none" stroke="#50c25f" stroke-width="1"/>
        <line id="Line_9" data-name="Line 9" x2="28.843" y2="75.833" transform="translate(471.639 389.147)" fill="none" stroke="#50c25f" stroke-width="1"/>
        <line id="Line_10" data-name="Line 10" x2="13.244" y2="6.233" transform="translate(470.227 414.021)" fill="none" stroke="#50c25f" stroke-width="1"/>
        <line id="Line_11" data-name="Line 11" x2="14.356" y2="6.517" transform="translate(472.817 423.471)" fill="none" stroke="#50c25f" stroke-width="1"/>
        <line id="Line_12" data-name="Line 12" x2="14.356" y2="6.517" transform="translate(476.849 434.515)" fill="none" stroke="#50c25f" stroke-width="1"/>
        <path id="Path_19" data-name="Path 19" d="M536.31,498.329a32.755,32.755,0,1,1-32.754-32.754,32.753,32.753,0,0,1,32.754,32.754" fill="#c9c9c9"/>
        <path id="Path_20" data-name="Path 20" d="M523.769,471.772H483.343a6.344,6.344,0,1,1,0-12.689h40.426a6.344,6.344,0,0,1,0,12.689" fill="#c9c9c9"/>
        <path id="Path_21" data-name="Path 21" d="M461.964,371.485h0a17.7,17.7,0,0,1-10.879-22.545l8.949-25.64a17.7,17.7,0,1,1,33.424,11.666l-8.949,25.64A17.7,17.7,0,0,1,461.964,371.485Z" fill="none" stroke="#50c25f" stroke-width="1"/>
        <line id="Line_13" data-name="Line 13" x1="51.429" y2="147.351" transform="translate(431.15 312.421)" fill="none" stroke="#50c25f" stroke-width="1"/>
        <path id="Path_22" data-name="Path 22" d="M460.521,322.068l11.21,21.434,20.677-5.525" fill="none" stroke="#50c25f" stroke-width="1"/>
        <path id="Path_23" data-name="Path 23" d="M456.207,334.429l11.21,21.434,20.677-5.525" fill="none" stroke="#50c25f" stroke-width="1"/>
        <path id="Path_24" data-name="Path 24" d="M452.224,345.839l11.21,21.434,20.677-5.525" fill="none" stroke="#50c25f" stroke-width="1"/>
        <path id="Path_25" data-name="Path 25" d="M465.986,315.077l9.4,17.966,19.031-5.086" fill="none" stroke="#50c25f" stroke-width="1"/>
        <path id="Path_26" data-name="Path 26" d="M474.018,311.411l5.346,10.222,11.821-3.159" fill="none" stroke="#50c25f" stroke-width="1"/>
        <path id="Path_27" data-name="Path 27" d="M428.68,347.944h0A20.449,20.449,0,0,1,407.935,327.8l-.458-31.369a20.449,20.449,0,0,1,40.893-.6l.458,31.369A20.449,20.449,0,0,1,428.68,347.944Z" fill="none" stroke="#50c25f" stroke-width="1"/>
        <line id="Line_14" data-name="Line 14" x1="2.631" y1="180.277" transform="translate(427.626 275.681)" fill="none" stroke="#50c25f" stroke-width="1"/>
        <path id="Path_28" data-name="Path 28" d="M407.517,294.9l20.663,18.811,20.244-14.195" fill="none" stroke="#50c25f" stroke-width="1"/>
        <path id="Path_29" data-name="Path 29" d="M407.738,310.019,428.4,328.83l20.243-14.2" fill="none" stroke="#50c25f" stroke-width="1"/>
        <path id="Path_30" data-name="Path 30" d="M407.941,323.979l20.664,18.812,20.243-14.2" fill="none" stroke="#50c25f" stroke-width="1"/>
        <path id="Path_31" data-name="Path 31" d="M410.674,285.144l17.32,15.767,18.632-13.065" fill="none" stroke="#50c25f" stroke-width="1"/>
        <path id="Path_32" data-name="Path 32" d="M417.936,277.981l9.854,8.971,11.574-8.116" fill="none" stroke="#50c25f" stroke-width="1"/>
        <path id="Path_33" data-name="Path 33" d="M403.739,381.027l-9.214,2.737a9.953,9.953,0,0,1-12.374-6.706l-9.187-30.915a9.953,9.953,0,0,1,6.705-12.375l9.213-2.738a9.95,9.95,0,0,1,12.375,6.7l9.188,30.918A9.952,9.952,0,0,1,403.739,381.027Z" fill="none" stroke="#50c25f" stroke-width="1"/>
        <line id="Line_15" data-name="Line 15" x1="37.063" y1="124.73" transform="translate(384.276 332.399)" fill="none" stroke="#50c25f" stroke-width="1"/>
        <path id="Path_34" data-name="Path 34" d="M374.061,349.678l18.032,9.03,11.29-13.818" fill="none" stroke="#50c25f" stroke-width="1"/>
        <path id="Path_35" data-name="Path 35" d="M377.17,360.141l18.032,9.03,11.29-13.818" fill="none" stroke="#50c25f" stroke-width="1"/>
        <path id="Path_36" data-name="Path 36" d="M380.04,369.8l18.032,9.03,11.29-13.818" fill="none" stroke="#50c25f" stroke-width="1"/>
        <path id="Path_37" data-name="Path 37" d="M374.348,342.286l15.114,7.569,10.391-12.718" fill="none" stroke="#50c25f" stroke-width="1"/>
        <path id="Path_38" data-name="Path 38" d="M377.993,335.89l8.6,4.306,6.455-7.9" fill="none" stroke="#50c25f" stroke-width="1"/>
        <path id="Path_39" data-name="Path 39" d="M439.529,531.083H416.8a10.469,10.469,0,0,1-10.469-10.469V440.457A10.469,10.469,0,0,1,416.8,429.988h22.734A10.469,10.469,0,0,1,450,440.457v80.157a10.469,10.469,0,0,1-10.469,10.469" fill="#c9c9c9"/>
        <rect id="Rectangle_19" data-name="Rectangle 19" width="21.246" height="38.287" transform="translate(336.317 482.85)" fill="#ffdaa4"/>
        <rect id="Rectangle_20" data-name="Rectangle 20" width="21.246" height="38.287" transform="translate(336.317 482.85)" fill="none" stroke="#131430" stroke-width="1"/>
        <path id="Path_40" data-name="Path 40" d="M365.238,508.854,332.1,510.739l-.448,33.723,64.658.85-29.012-24.289Z" fill="#212428"/>
        <line id="Line_16" data-name="Line 16" x1="6.332" y2="6.045" transform="translate(367.461 526.465)" fill="none" stroke="#786ce6" stroke-width="1"/>
        <line id="Line_17" data-name="Line 17" x1="7.102" y2="6.282" transform="translate(370.856 530.078)" fill="none" stroke="#786ce6" stroke-width="1"/>
        <circle id="Ellipse_3" data-name="Ellipse 3" cx="8.325" cy="8.325" r="8.325" transform="translate(340.495 516.185) rotate(-2.199)" fill="none" stroke="#fff" stroke-width="1"/>
        <path id="Path_41" data-name="Path 41" d="M364.866,485.542H330.46L319.866,311.2v-49.79l46.328-3.229Z" fill="#323a45"/>
        <path id="Path_42" data-name="Path 42" d="M366.1,273.69l-1.237,211.852H330.46l-8.884-146.21" fill="none" stroke="#131430" stroke-width="1"/>
        <path id="Path_43" data-name="Path 43" d="M256.128,479.672l-8.1,42.817,22.794-.283L277.6,480.35Z" fill="#ffdaa4"/>
        <path id="Path_44" data-name="Path 44" d="M256.128,479.672l-8.1,42.817,22.794-.283L277.6,480.35Z" fill="none" stroke="#131430" stroke-width="1"/>
        <path id="Path_45" data-name="Path 45" d="M243.156,511.571l33.143,1.885.448,33.723-64.658.851L241.1,523.74Z" fill="#212428"/>
        <line id="Line_18" data-name="Line 18" x2="6.332" y2="6.045" transform="translate(234.601 529.182)" fill="none" stroke="#786ce6" stroke-width="1"/>
        <line id="Line_19" data-name="Line 19" x2="7.102" y2="6.282" transform="translate(230.436 532.795)" fill="none" stroke="#786ce6" stroke-width="1"/>
        <circle id="Ellipse_4" data-name="Ellipse 4" cx="8.325" cy="8.325" r="8.325" transform="translate(250.664 518.858) rotate(-1.907)" fill="none" stroke="#fff" stroke-width="1"/>
        <path id="Path_46" data-name="Path 46" d="M245.183,482l37.576,3.541,47.435-178.673,15.049-5.317,1.771-43.372-58.629,6.972Z" fill="#323a45"/>
        <path id="Path_47" data-name="Path 47" d="M282.759,301.552s26.557-1.47,30.32-23.6" fill="none" stroke="#131430" stroke-width="1"/>
        <path id="Path_48" data-name="Path 48" d="M345.3,297.082,332.1,299.7,282.76,485.542,245.183,482l41.5-208.311" fill="none" stroke="#131430" stroke-width="1"/>
        <path id="Path_49" data-name="Path 49" d="M384.48,208.769l6.84,18.386L379.668,238.91l-23.223-7.193s-47.475,4.366-47.577,4.467-17.738-37.85-17.738-37.85l9.642-22.142,21.875-5.228s39.69-3.8,61.833,37.8" fill="#ffc524"/>
        <path id="Path_50" data-name="Path 50" d="M322.648,170.964s39.689-3.8,61.833,37.8" fill="none" stroke="#131430" stroke-width="1"/>
        <path id="Path_51" data-name="Path 51" d="M326.073,183.613l-9.03,12.648-6.1-23.1,10.389-7.173h12.1l8.29,7.173-5.18,23.1Z" fill="#fff"/>
        <path id="Path_52" data-name="Path 52" d="M326.073,183.613l-9.03,12.648-6.1-23.1,10.389-7.173h12.1l8.29,7.173-5.18,23.1Z" fill="none" stroke="#131430" stroke-width="1"/>
        <path id="Path_53" data-name="Path 53" d="M286.569,252.245l-2.281,22.186c23.016,4.355,83.976-.741,83.976-.741l-7.1-68.928-71.074-3.133Z" fill="#ffc524"/>
        <path id="Path_54" data-name="Path 54" d="M286.569,252.245l-2.281,22.186c23.016,4.355,83.976-.741,83.976-.741l-7.1-68.928" fill="none" stroke="#131430" stroke-width="1"/>
        <path id="Path_55" data-name="Path 55" d="M311.729,173.438c-47.007,8.5-74.3,54.961-77,68.646-3.6,18.292,7.257,36.079,28.406,30.6,17.834-4.623,27.41-14.95,36.439-25.781l-11.8-21.349,12.995-18.222,7.154-10.031-2.6-17.794Z" fill="#ffc524"/>
        <path id="Path_56" data-name="Path 56" d="M353.14,139.735l5.552-1.444-5.423-6.874Z" fill="#ffdaa4"/>
        <path id="Path_57" data-name="Path 57" d="M353.151,126.51c-.056-7.9-5.781-14.327-12.722-14.278l-10.44.075c-6.941.049-12.573,6.555-12.517,14.458l.116,16.183c0,.456.03.906.07,1.351a6.438,6.438,0,0,0-.168,1.484l.07,9.852,0,.548.014,1.952h-.005l.062,11.017c.025,4.534,2.971,8.218,6.546,8.186l4.141-.038c3.575-.032,6.479-3.769,6.453-8.3l-.016-2.91c0-.059.017-.114.016-.173l-.062-8.719,6.037-.043c6.94-.049,12.573-6.555,12.517-14.458Z" fill="#ffdaa4"/>
        <path id="Path_58" data-name="Path 58" d="M353.151,126.51c-.056-7.9-5.781-14.327-12.722-14.278l-10.44.075c-6.941.049-12.573,6.555-12.517,14.458l.116,16.183c0,.456.03.906.07,1.351a6.438,6.438,0,0,0-.168,1.484l.07,9.852,0,.548.014,1.952h-.005l.062,11.017c.025,4.534,2.971,8.218,6.546,8.186l4.141-.038c3.575-.032,6.479-3.769,6.453-8.3l-.016-2.91c0-.059.017-.114.016-.173l-.062-8.719,6.037-.043c6.94-.049,12.573-6.555,12.517-14.458Z" fill="none" stroke="#131430" stroke-width="1"/>
        <path id="Path_59" data-name="Path 59" d="M341.106,134.408a2.325,2.325,0,1,0,2.656-1.937,2.324,2.324,0,0,0-2.656,1.937" fill="#131430"/>
        <path id="Path_60" data-name="Path 60" d="M351.286,149.763a2.978,2.978,0,0,1-.54.14c-.047.008-.093.014-.14.023-.1.02.156-.013-.026,0-.1.008-.2.018-.3.022a4.8,4.8,0,0,1-.786-.032c-.046-.005-.037,0,.027,0l-.114-.019c-.078-.015-.156-.029-.234-.047-.164-.037-.326-.083-.486-.136a4.129,4.129,0,0,1-.881-.415,6.588,6.588,0,0,1-1.967-1.918.642.642,0,0,0-.855-.224.63.63,0,0,0-.225.855,7.341,7.341,0,0,0,3.6,2.907,5.485,5.485,0,0,0,2.773.174,2.767,2.767,0,0,0,.492-.131.642.642,0,0,0,.437-.768.63.63,0,0,0-.769-.437" fill="#131430"/>
        <path id="Path_61" data-name="Path 61" d="M317.544,153.4s-15.777,1.5-19.847-16.1,5.794-33.932,26.333-36.3c0,0,13.4-15.536,24.344-10.269s-4.971,18.959-4.971,18.959,11.768-11.323,15.289-6.583-3.88,14.746-10.318,16.063-20.789-1.317-23.159,6.057-.526,13.824-5.53,17.135c-3.386,2.241-2.2,3.423-2.2,3.423Z" fill="#212428"/>
        <path id="Path_62" data-name="Path 62" d="M304.371,141.3a8.312,8.312,0,1,0,8.253-8.3,8.278,8.278,0,0,0-8.253,8.3" fill="#ffdaa4"/>
        <path id="Path_63" data-name="Path 63" d="M304.371,141.3a8.312,8.312,0,1,0,8.253-8.3A8.278,8.278,0,0,0,304.371,141.3Z" fill="none" stroke="#131430" stroke-width="1"/>
        <path id="Path_64" data-name="Path 64" d="M317.874,142.293a6.387,6.387,0,0,0-.27-2.088,4.779,4.779,0,0,0-2.56-3.121,6.338,6.338,0,0,0-3.278-.418.709.709,0,0,0-.688.688.692.692,0,0,0,.688.688,7.355,7.355,0,0,1,1.5-.027c.052,0,.1.01.154.016-.144-.017-.011,0,.026,0,.1.019.208.037.312.06a4.344,4.344,0,0,1,.544.161l.12.046c-.168-.064-.011,0,.02.01.073.036.147.071.218.11.152.082.29.179.433.275.035.024.083.083-.032-.025.032.03.069.056.1.085.056.048.11.1.162.148.113.11.213.228.315.347.075.087-.023-.029-.03-.04.023.034.049.067.073.1.039.056.077.112.113.17a4.163,4.163,0,0,1,.216.385c.03.059.057.118.084.177.081.175-.047-.128.021.049.048.129.1.258.135.389a5.856,5.856,0,0,1,.171.7c.009.052.018.1.026.155.015.093-.013.208,0-.006a2.152,2.152,0,0,0,.031.3,4.69,4.69,0,0,1,.019.66.688.688,0,1,0,1.376,0" fill="#131430"/>
        <path id="Path_65" data-name="Path 65" d="M340.788,228.5l-15.524-1.746a3.475,3.475,0,0,1-3.065-3.841l3.91-34.772a3.475,3.475,0,0,1,3.841-3.065l15.524,1.746a3.473,3.473,0,0,1,3.065,3.841l-3.91,34.772a3.475,3.475,0,0,1-3.841,3.065" fill="#212428"/>
        <path id="Path_66" data-name="Path 66" d="M329.794,193.892h0A1.8,1.8,0,0,1,328.2,191.9l.312-2.768a1.8,1.8,0,1,1,3.579.4l-.311,2.768a1.8,1.8,0,0,1-1.991,1.589" fill="#c9c9c9"/>
        <path id="Path_67" data-name="Path 67" d="M349.4,214.2c-.247-1.145-6.466-.017-10.232.657,3.875-.886,10.246-2.757,10.249-3.871.006-2.152-8.4-.989-12.322-.069,3.976-1.214,12.284-3.454,10.955-4.7-2.212-2.073-14.1.311-14.1.311a62.758,62.758,0,0,1,10.264-2.073c3.756-.207,3.94-2.7,0-2.8-22.441-.59-33.176,10.368-47.081,18.869-.962.588-1.973,1.173-3.015,1.753l9.882,19.3c.205-.245.407-.49.612-.735a70.63,70.63,0,0,1,30.271-21.259c7.257-2.6,14.947-3.392,14.517-5.385" fill="#ffdaa4"/>
        <path id="Path_68" data-name="Path 68" d="M349.4,214.2c-.247-1.145-6.466-.017-10.232.657,3.875-.886,10.246-2.757,10.249-3.871.006-2.152-8.4-.989-12.322-.069,3.976-1.214,12.284-3.454,10.955-4.7-2.212-2.073-14.1.311-14.1.311a62.758,62.758,0,0,1,10.264-2.073c3.756-.207,3.94-2.7,0-2.8-22.441-.59-33.176,10.368-47.081,18.869-.962.588-1.973,1.173-3.015,1.753l9.882,19.3c.205-.245.407-.49.612-.735a70.63,70.63,0,0,1,30.271-21.259C342.138,216.983,349.828,216.189,349.4,214.2Z" fill="none" stroke="#131430" stroke-width="1"/>
        <path id="Path_69" data-name="Path 69" d="M304.61,240.841c.606-.723,1.218-1.416,1.833-2.1l-10.529-17.5a87.52,87.52,0,0,1-8.531,4.42l11.926,21.551c2.323-2.729,2.991-3.623,5.3-6.378" fill="#fff"/>
        <path id="Path_70" data-name="Path 70" d="M304.61,240.841c.606-.723,1.218-1.416,1.833-2.1l-10.529-17.5a87.52,87.52,0,0,1-8.531,4.42l11.926,21.551C301.632,244.49,302.3,243.6,304.61,240.841Z" fill="none" stroke="#131430" stroke-width="1"/>
        <path id="Path_71" data-name="Path 71" d="M311.729,173.438c-47.007,8.5-74.3,54.961-77,68.646-3.6,18.292,7.257,36.079,28.406,30.6,17.834-4.623,27.41-14.95,36.439-25.781l-11.8-21.349A277.018,277.018,0,0,1,259.821,236.9" fill="none" stroke="#131430" stroke-width="1"/>
        <path id="Path_72" data-name="Path 72" d="M440.1,160.389c3.2-1.244,14.426-5.391,11.708-6.842-1.343-.718-8.851,1.386-12,2.688,4.249-2.091,12.387-5.8,11.865-7.048-1.245-2.965-14.684,3.055-14.684,3.055s14.214-5.169,12.217-7.754c-.845-1.092-9.876,2.438-13.979,3.9,5.872-3.279,15.615-8.555,4.875-5.658-15.255,4.114-22.068,10.607-22.068,10.607s6.428-8.916,2.488-7.991-14.1,16.078-14.1,16.078a98.429,98.429,0,0,0-15.093,25.852l24.845,6.929q.352-1.437.715-2.864c6.109-23.994,20.017-29.71,23.216-30.954" fill="#ffdaa4"/>
        <path id="Path_73" data-name="Path 73" d="M440.1,160.389c3.2-1.244,14.426-5.391,11.708-6.842-1.343-.718-8.851,1.386-12,2.688,4.249-2.091,12.387-5.8,11.865-7.048-1.245-2.965-14.684,3.055-14.684,3.055s14.214-5.169,12.217-7.754c-.845-1.092-9.876,2.438-13.979,3.9,5.872-3.279,15.615-8.555,4.875-5.658-15.255,4.114-22.068,10.607-22.068,10.607s6.428-8.916,2.488-7.991-14.1,16.078-14.1,16.078a98.429,98.429,0,0,0-15.093,25.852l24.845,6.929q.352-1.437.715-2.864C422.989,167.349,436.9,161.633,440.1,160.389Z" fill="none" stroke="#131430" stroke-width="1"/>
        <path id="Path_74" data-name="Path 74" d="M393.642,181.96c-1.545,3.317-2.894,6.634-4.083,9.877l25.322,7.735c.644-2.758,1.307-5.513,2-8.229.2-.765.4-1.509.608-2.237Z" fill="#fff"/>
        <path id="Path_75" data-name="Path 75" d="M393.642,181.96c-1.545,3.317-2.894,6.634-4.083,9.877l25.322,7.735c.644-2.758,1.307-5.513,2-8.229.2-.765.4-1.509.608-2.237Z" fill="none" stroke="#131430" stroke-width="1"/>
        <path id="Path_76" data-name="Path 76" d="M364.145,233.676c12.441,15.344,27.343,18.362,35.015,13.542,6.78-4.259,10.646-25.893,15.67-47.427L389.535,191.9a150.148,150.148,0,0,0-8,33.179" fill="#ffc524"/>
        <path id="Path_77" data-name="Path 77" d="M364.145,233.676c12.441,15.344,27.343,18.362,35.015,13.542,6.78-4.259,10.646-25.893,15.67-47.427L389.535,191.9a150.148,150.148,0,0,0-8,33.179" fill="none" stroke="#131430" stroke-width="1"/>
        <path id="Path_78" data-name="Path 78" d="M893.868,502.743l-4.426-114.2,23.837-2.213,1.771,122.154Z" fill="#ffdaa4"/>
        <path id="Path_79" data-name="Path 79" d="M893.868,502.743l-4.426-114.2,23.837-2.213,1.771,122.154Z" fill="none" stroke="#131430" stroke-width="1"/>
        <path id="Path_80" data-name="Path 80" d="M919.1,540.028l.018-45.366-28.882,6.085s.387,21.118-9.372,34.9-.594,13.239,6.295,10.971c11.014-3.625,25.1-21.24,25.1-21.24s-.056,14.5,1.438,15.746,4.757,1.292,5.406-1.094" fill="#212428"/>
        <line id="Line_20" data-name="Line 20" y1="0.768" x2="8.819" transform="translate(885.012 522.053)" fill="none" stroke="#786ce6" stroke-width="1"/>
        <line id="Line_21" data-name="Line 21" y1="0.768" x2="8.819" transform="translate(885.898 515.227)" fill="none" stroke="#786ce6" stroke-width="1"/>
        <line id="Line_22" data-name="Line 22" y1="0.768" x2="8.819" transform="translate(886.344 508.44)" fill="none" stroke="#786ce6" stroke-width="1"/>
        <path id="Path_81" data-name="Path 81" d="M937.181,386.333l23.9,120.935,20.73-3.2L961.525,382.919Z" fill="#ffdaa4"/>
        <path id="Path_82" data-name="Path 82" d="M937.181,386.333l23.9,120.935,20.73-3.2L961.525,382.919Z" fill="none" stroke="#131430" stroke-width="1"/>
        <path id="Path_83" data-name="Path 83" d="M964,543.513,955.758,498.9l29.507.752s3.446,20.838,15.539,32.622,2.983,12.911-4.2,11.93c-11.488-1.57-28.53-16.342-28.53-16.342s2.681,14.247,1.439,15.747-4.444,2.132-5.515-.1" fill="#212428"/>
        <line id="Line_23" data-name="Line 23" x1="8.812" y2="0.843" transform="translate(985.59 520.414)" fill="none" stroke="#786ce6" stroke-width="1"/>
        <line id="Line_24" data-name="Line 24" x1="8.812" y2="0.843" transform="translate(983.481 513.862)" fill="none" stroke="#786ce6" stroke-width="1"/>
        <line id="Line_25" data-name="Line 25" x1="8.812" y2="0.843" transform="translate(981.813 507.268)" fill="none" stroke="#786ce6" stroke-width="1"/>
        <path id="Path_84" data-name="Path 84" d="M877.869,407.136h93.394s-3.014-113.755-32.27-149.607h-51.04s-29.117,67.721-10.084,149.607" fill="#212428"/>
        <path id="Path_85" data-name="Path 85" d="M943.82,203.111s5.754,52.647,5.039,55.967-14.777,5.532-34.7,5.809-35.189-5.145-35.662-7.359,1.359-41.115,1.359-41.115,5.532-33.836,13.057-37.377,35.558-1.574,35.558-1.574Z" fill="#fff"/>
        <path id="Path_86" data-name="Path 86" d="M943.82,203.111s5.754,52.647,5.039,55.967-14.777,5.532-34.7,5.809-35.189-5.145-35.662-7.359,1.359-41.115,1.359-41.115,5.532-33.836,13.057-37.377,35.558-1.574,35.558-1.574Z" fill="none" stroke="#131430" stroke-width="1"/>
        <path id="Path_87" data-name="Path 87" d="M941.268,232.545c-15.951-3.185-33.031-7.681-38.68-8.361-9.8-1.18-22.654,7.968-23.834,10.623s2.065,10.328,3.836,10.328,9.407-7.967,12.718-10.918,12.2,0,12.2,0-13.893,2.361-12.028,6.2,8.09-3.246,23.42.885c5.347,1.441,12.027,6.113,19.545,10.924Z" fill="#ffdaa4"/>
        <path id="Path_88" data-name="Path 88" d="M941.268,232.545c-15.951-3.185-33.031-7.681-38.68-8.361-9.8-1.18-22.654,7.968-23.834,10.623s2.065,10.328,3.836,10.328,9.407-7.967,12.718-10.918,12.2,0,12.2,0-13.893,2.361-12.028,6.2,8.09-3.246,23.42.885c5.347,1.441,12.027,6.113,19.545,10.924Z" fill="none" stroke="#131430" stroke-width="1"/>
        <path id="Path_89" data-name="Path 89" d="M958.725,235.371c-2.358-9.765-19.731-28.547-19.731-28.547L937.4,192.611l21.91,12.463,17.558,28.931-9.59,3.311Z" fill="#fff"/>
        <path id="Path_90" data-name="Path 90" d="M938.994,206.824s17.373,18.782,19.73,28.547" fill="none" stroke="#131430" stroke-width="1"/>
        <path id="Path_91" data-name="Path 91" d="M969.64,235.4c-5.432,1.111-16.342-.467-27.91-2.761L941.265,254c13.458,8.364,29.286,15.991,44.9,6.479,25.672-15.639-19.443-74.059-53.7-81.443l4.942,19.438Z" fill="#fff"/>
        <path id="Path_92" data-name="Path 92" d="M969.64,235.4c-5.432,1.111-16.342-.467-27.91-2.761L941.265,254c13.458,8.364,29.286,15.991,44.9,6.479,25.672-15.639-19.443-74.059-53.7-81.443" fill="none" stroke="#131430" stroke-width="1"/>
        <path id="Path_93" data-name="Path 93" d="M950.98,259.5l3.4-24.665c-5.217-.736-11.057-1.839-16.923-3.067l-3.5,17.556A174.422,174.422,0,0,0,950.98,259.5" fill="#fff"/>
        <path id="Path_94" data-name="Path 94" d="M950.98,259.5l3.4-24.665c-5.217-.736-11.057-1.839-16.923-3.067l-3.5,17.556A174.422,174.422,0,0,0,950.98,259.5Z" fill="none" stroke="#131430" stroke-width="1"/>
        <path id="Path_95" data-name="Path 95" d="M940.943,247.016a1.771,1.771,0,1,1-1.771-1.771,1.771,1.771,0,0,1,1.771,1.771" fill="#131430"/>
        <line id="Line_26" data-name="Line 26" y2="35.755" transform="translate(912.397 182.823)" fill="none" stroke="#131430" stroke-width="1"/>
        <path id="Path_96" data-name="Path 96" d="M909.776,205.974a2.047,2.047,0,1,1-.6-2.833,2.047,2.047,0,0,1,.6,2.833" fill="#131430"/>
        <path id="Path_97" data-name="Path 97" d="M909.776,196.747a2.047,2.047,0,1,1-.6-2.832,2.048,2.048,0,0,1,.6,2.832" fill="#131430"/>
        <path id="Path_98" data-name="Path 98" d="M926.6,171.652c-5.422-1.878-10.778-1.675-14.2.181-3.422-1.856-8.778-2.059-14.2-.181-8,2.77-13.1,9.006-11.393,13.929s9.571,6.669,17.568,3.9a22.1,22.1,0,0,0,8.025-4.764,22.112,22.112,0,0,0,8.025,4.764c8,2.771,15.863,1.025,17.568-3.9s-3.4-11.159-11.393-13.929" fill="#fff"/>
        <path id="Path_99" data-name="Path 99" d="M926.6,171.652c-5.422-1.878-10.778-1.675-14.2.181-3.422-1.856-8.778-2.059-14.2-.181-8,2.77-13.1,9.006-11.393,13.929s9.571,6.669,17.568,3.9a22.1,22.1,0,0,0,8.025-4.764,22.112,22.112,0,0,0,8.025,4.764c8,2.771,15.863,1.025,17.568-3.9S934.594,174.422,926.6,171.652Z" fill="none" stroke="#131430" stroke-width="1"/>
        <path id="Path_100" data-name="Path 100" d="M935.636,142.406a8.368,8.368,0,1,1-8.368-8.3,8.334,8.334,0,0,1,8.368,8.3" fill="#131430"/>
        <path id="Path_101" data-name="Path 101" d="M935.636,142.406a8.368,8.368,0,1,1-8.368-8.3A8.334,8.334,0,0,1,935.636,142.406Z" fill="none" stroke="#131430" stroke-width="2"/>
        <path id="Path_102" data-name="Path 102" d="M899.18,116.652h10.51c6.988,0,12.705,6.509,12.705,14.465V147.41c0,.459-.024.912-.061,1.36a6.456,6.456,0,0,1,.18,1.493v20.389a6.563,6.563,0,0,1-6.544,6.543H911.8a6.562,6.562,0,0,1-6.543-6.543v-8.778H899.18c-6.988,0-12.705-6.509-12.705-14.464V131.117c0-7.956,5.717-14.465,12.705-14.465" fill="#ffdaa4"/>
        <path id="Path_103" data-name="Path 103" d="M899.18,116.652h10.51c6.988,0,12.705,6.509,12.705,14.465V147.41c0,.459-.024.912-.061,1.36a6.456,6.456,0,0,1,.18,1.493v20.389a6.563,6.563,0,0,1-6.544,6.543H911.8a6.562,6.562,0,0,1-6.543-6.543v-8.778H899.18c-6.988,0-12.705-6.509-12.705-14.464V131.117C886.475,123.161,892.192,116.652,899.18,116.652Z" fill="none" stroke="#131430" stroke-width="1"/>
        <path id="Path_104" data-name="Path 104" d="M918.867,140.952,917.7,129.377s-35.308,4.426-46.753-12.725.582-23.94,6.4-22.97,12.624,9.311,12.624,9.311-5.417-7.371,0-8.535,11.4,4.462,14.52,10.281c0,0,23.273-2.169,31.141,11.913s1.268,24.357-13.122,38.907l-.738-8.422Z" fill="#212428"/>
        <path id="Path_105" data-name="Path 105" d="M907.508,136.44a2.369,2.369,0,1,1-2.369-2.368,2.37,2.37,0,0,1,2.369,2.368" fill="#131430"/>
        <path id="Path_106" data-name="Path 106" d="M892,136.093a2.022,2.022,0,1,1-2.022-2.022A2.022,2.022,0,0,1,892,136.093" fill="#131430"/>
        <path id="Path_107" data-name="Path 107" d="M894.26,145.787s1.19,3.469,3.708,3.708,4.49-2.552,4.626-4.729Z" fill="#fffdfd"/>
        <path id="Path_108" data-name="Path 108" d="M893.657,145.953a7.286,7.286,0,0,0,2.318,3.374,4.158,4.158,0,0,0,5.783-1.018,6.4,6.4,0,0,0,1.46-3.543.625.625,0,0,0-.625-.625l-7.3.894-1.036.127a.645.645,0,0,0-.625.625.628.628,0,0,0,.625.625l7.3-.894,1.036-.127-.625-.625a4.643,4.643,0,0,1-3.045,4.032c-1.607.423-2.823-.825-3.551-2.1a8.973,8.973,0,0,1-.421-.844c-.048-.108.039.1-.01-.025-.014-.035-.027-.069-.041-.1s-.026-.068-.038-.1c-.261-.756-1.469-.431-1.205.332" fill="#131430"/>
        <path id="Path_109" data-name="Path 109" d="M896.922,134.071l.485,8.068-3.852-2.348Z" fill="#ffdaa4"/>
        <path id="Path_110" data-name="Path 110" d="M935.636,142.406a8.368,8.368,0,1,1-8.368-8.3,8.334,8.334,0,0,1,8.368,8.3" fill="#ffdaa4"/>
        <path id="Path_111" data-name="Path 111" d="M935.636,142.406a8.368,8.368,0,1,1-8.368-8.3A8.334,8.334,0,0,1,935.636,142.406Z" fill="none" stroke="#131430" stroke-width="1"/>
        <path id="Path_112" data-name="Path 112" d="M923.43,143.5a4.617,4.617,0,0,1,.005-.539c.005-.084.012-.167.02-.25,0-.046.009-.092.014-.138.023-.213-.025.145,0-.023.038-.231.08-.46.14-.687.031-.117.066-.234.1-.35.022-.065.045-.131.07-.195s.1-.236.025-.068a5.072,5.072,0,0,1,.429-.773c.031-.045.178-.221.042-.061.046-.054.089-.11.136-.162a3.6,3.6,0,0,1,.341-.336c.038-.034.235-.177.071-.062.063-.044.124-.089.189-.132a4.253,4.253,0,0,1,.462-.257c.008,0,.159-.07.056-.026s.091-.035.109-.041c.1-.037.2-.07.3-.1s.218-.057.328-.08l.114-.023c.028,0,.278-.043.113-.021a7.119,7.119,0,0,1,1.657,0,.693.693,0,0,0,.688-.688.7.7,0,0,0-.688-.688,5.374,5.374,0,0,0-4.828,1.609,6.029,6.029,0,0,0-1.261,3.354,4.765,4.765,0,0,0-.02.736.7.7,0,0,0,.688.688.694.694,0,0,0,.688-.688" fill="#131430"/>
        <path id="Path_113" data-name="Path 113" d="M945.148,111.13a4.095,4.095,0,1,1-4.094-4.094,4.094,4.094,0,0,1,4.094,4.094" fill="#212428"/>
        <path id="Path_114" data-name="Path 114" d="M977.343,97.752c-10.285,10.285-23.982,13.263-30.594,6.651s-3.634-20.309,6.651-30.594,23.982-13.263,30.594-6.651,3.634,20.309-6.651,30.594" fill="#212428"/>
        <path id="Path_115" data-name="Path 115" d="M926.7,250H863.354a2.963,2.963,0,1,1,0-5.926H926.7a2.963,2.963,0,1,1,0,5.926" fill="#c9c9c9"/>
        <path id="Path_116" data-name="Path 116" d="M926.7,250H863.354a2.963,2.963,0,1,1,0-5.926H926.7a2.963,2.963,0,1,1,0,5.926Z" fill="none" stroke="#131430" stroke-width="1"/>
        <path id="Path_117" data-name="Path 117" d="M883.921,250H807.375a7.76,7.76,0,0,1-7.76-7.76v-51.66a7.76,7.76,0,0,1,7.76-7.76h76.546a7.76,7.76,0,0,1,7.76,7.76v51.66a7.76,7.76,0,0,1-7.76,7.76" fill="#c9c9c9"/>
        <rect id="Rectangle_21" data-name="Rectangle 21" width="92.066" height="67.18" rx="7.76" transform="translate(799.615 182.823)" fill="none" stroke="#131430" stroke-width="1"/>
        <path id="Path_118" data-name="Path 118" d="M853.141,216.413a7.493,7.493,0,1,1-7.493-7.493,7.493,7.493,0,0,1,7.493,7.493" fill="#fff"/>
        <path id="Path_119" data-name="Path 119" d="M833.584,248.919c2.159,3.052,2.88,6.011,1.61,6.61s-4.05-1.391-6.21-4.443-2.88-6.011-1.61-6.61,4.051,1.391,6.21,4.443" fill="#ffdaa4"/>
        <path id="Path_120" data-name="Path 120" d="M833.584,248.919c2.159,3.052,2.88,6.011,1.61,6.61s-4.05-1.391-6.21-4.443-2.88-6.011-1.61-6.61S831.425,245.867,833.584,248.919Z" fill="none" stroke="#131430" stroke-width="1"/>
        <path id="Path_121" data-name="Path 121" d="M839.631,248.1c1.343,4.033,1.071,7.6-.607,7.977s-4.129-2.6-5.472-6.629-1.071-7.6.608-7.977,4.128,2.6,5.471,6.629" fill="#ffdaa4"/>
        <path id="Path_122" data-name="Path 122" d="M839.631,248.1c1.343,4.033,1.071,7.6-.607,7.977s-4.129-2.6-5.472-6.629-1.071-7.6.608-7.977S838.288,244.067,839.631,248.1Z" fill="none" stroke="#131430" stroke-width="1"/>
        <path id="Path_123" data-name="Path 123" d="M844.795,248.1c1.343,4.033,1.071,7.6-.607,7.977s-4.129-2.6-5.472-6.629-1.071-7.6.608-7.977,4.128,2.6,5.471,6.629" fill="#ffdaa4"/>
        <path id="Path_124" data-name="Path 124" d="M844.795,248.1c1.343,4.033,1.071,7.6-.607,7.977s-4.129-2.6-5.472-6.629-1.071-7.6.608-7.977S843.452,244.067,844.795,248.1Z" fill="none" stroke="#131430" stroke-width="1"/>
        <path id="Path_125" data-name="Path 125" d="M850.659,247.468c1.343,4.033,1.071,7.6-.608,7.977s-4.128-2.6-5.471-6.629-1.071-7.6.608-7.977,4.128,2.6,5.471,6.629" fill="#ffdaa4"/>
        <path id="Path_126" data-name="Path 126" d="M850.659,247.468c1.343,4.033,1.071,7.6-.608,7.977s-4.128-2.6-5.471-6.629-1.071-7.6.608-7.977S849.316,243.434,850.659,247.468Z" fill="none" stroke="#131430" stroke-width="1"/>
        <path id="Path_127" data-name="Path 127" d="M634.625,489.4l-3.884,43.4,22.657-2.505,2.668-42.319Z" fill="#ffdaa4"/>
        <path id="Path_128" data-name="Path 128" d="M634.625,489.4l-3.884,43.4,22.657-2.505,2.668-42.319Z" fill="none" stroke="#131430" stroke-width="1"/>
        <path id="Path_129" data-name="Path 129" d="M623.7,520.541l33.143,1.885.448,33.723L592.63,557l29.012-24.29Z" fill="#212428"/>
        <line id="Line_27" data-name="Line 27" x2="6.332" y2="6.045" transform="translate(615.142 538.152)" fill="none" stroke="#131430" stroke-width="1"/>
        <line id="Line_28" data-name="Line 28" x2="7.102" y2="6.282" transform="translate(610.977 541.765)" fill="none" stroke="#131430" stroke-width="1"/>
        <path id="Path_130" data-name="Path 130" d="M734.145,488.8l7.131,42.989-22.782-.8-5.836-42Z" fill="#ffdaa4"/>
        <path id="Path_131" data-name="Path 131" d="M734.145,488.8l7.131,42.989-22.782-.8-5.836-42Z" fill="none" stroke="#131430" stroke-width="1"/>
        <path id="Path_132" data-name="Path 132" d="M746.637,520.541l-33.143,1.885-.448,33.723L777.7,557l-29.012-24.29Z" fill="#212428"/>
        <line id="Line_29" data-name="Line 29" x1="6.332" y2="6.045" transform="translate(748.86 538.152)" fill="none" stroke="#131430" stroke-width="1"/>
        <line id="Line_30" data-name="Line 30" x1="7.102" y2="6.282" transform="translate(752.255 541.765)" fill="none" stroke="#131430" stroke-width="1"/>
        <path id="Path_133" data-name="Path 133" d="M638.261,283.376,625.388,508.11l39.845-.842,14.375-188.063,24.2,188.063,37.659.842L714.983,277.981Z" fill="#323a45"/>
        <line id="Line_31" data-name="Line 31" y1="0.822" x2="8.174" transform="translate(679.498 312.208)" fill="none" stroke="#131430" stroke-width="1"/>
        <path id="Path_134" data-name="Path 134" d="M572.028,183.565l6.921,1.385c-18.295-9.737-18.295-31.278-19.77-34.9S533.507,127.7,530.556,130.92s11.916,17.471,11.916,17.471-12.211,9.707-9.851,16.494S545.8,178.316,545.8,178.316l.082.016,11.489,17.751Z" fill="#ffdaa4"/>
        <path id="Path_135" data-name="Path 135" d="M572.028,183.565l6.921,1.385c-18.295-9.737-18.295-31.278-19.77-34.9S533.507,127.7,530.556,130.92s11.916,17.471,11.916,17.471-12.211,9.707-9.851,16.494S545.8,178.316,545.8,178.316l.082.016,11.489,17.751Z" fill="none" stroke="#131430" stroke-width="1"/>
        <path id="Path_136" data-name="Path 136" d="M753.934,195.63c-40.721-23.255-67.869-21.3-74.326-21.6s-23.642-1.18-44.445,10.918-37.918,9.738-56.213,0a31.954,31.954,0,0,1-6.984-5.013l-15.776,14.5c9.331,13.072,21.449,26.767,34.858,35.75,26.558,17.79,62.735-16.883,62.735-16.883h44.823l16.771,3.112,38.9,16.105,13.3,9.11L780.543,246c15.834-20.978,3.273-33.307-26.609-50.372" fill="#786ce6"/>
        <path id="Path_137" data-name="Path 137" d="M547.559,181.307a114.252,114.252,0,0,1-9.331-18.488" fill="none" stroke="#131430" stroke-width="1"/>
        <line id="Line_32" data-name="Line 32" y1="17.604" x2="17.298" transform="translate(562.766 185.531)" fill="none" stroke="#131430" stroke-width="1"/>
        <path id="Path_138" data-name="Path 138" d="M679.609,174.032c-6.457-.295-23.643-1.18-44.447,10.918s-37.917,9.738-56.212,0a31.962,31.962,0,0,1-6.984-5.013l-15.776,14.5c9.331,13.071,21.449,26.767,34.857,35.749,26.558,17.79,62.737-16.883,62.737-16.883" fill="none" stroke="#131430" stroke-width="1"/>
        <path id="Path_139" data-name="Path 139" d="M764.613,262.328l-7.792-31.218L732.46,253.737s-7.744,5.16-7.962,6.788c-.078.587-.169,1.506-.254,2.442l-4.711,4.607V268l-1.217.46s-.087,11.348,1.978,15.852,7.082,6.423,9.148,7.456,4.573.281,8.7-1.778,7.612-6.41,7.077-7.283c-.495-.808-6.075-1.985-8.567-.8l14.916-9.027q7.314-5.6,13.04-10.558m-28.5,19.912c-.575.468-.582.448-.3.184Z" fill="#ffdaa4"/>
        <path id="Path_140" data-name="Path 140" d="M764.613,262.328l-7.792-31.218L732.46,253.737s-7.744,5.16-7.962,6.788c-.078.587-.169,1.506-.254,2.442l-4.711,4.607V268l-1.217.46s-.087,11.348,1.978,15.852,7.082,6.423,9.148,7.456,4.573.281,8.7-1.778,7.612-6.41,7.077-7.283c-.495-.808-6.075-1.985-8.567-.8l14.916-9.027Q758.887,267.285,764.613,262.328Zm-28.5,19.912c-.575.468-.582.448-.3.184Z" fill="none" stroke="#131430" stroke-width="1"/>
        <path id="Path_141" data-name="Path 141" d="M737.459,257.983l-6.246,2.8s-.738,12.1-4.869,11.952-1.623-13.574-1.623-13.574l7.74-5.427,3.831-3.072" fill="none" stroke="#131430" stroke-width="1"/>
        <path id="Path_142" data-name="Path 142" d="M755.06,196.277c-24.947-12.228-3.561,11.156-3.561,11.156l6.861,16.647s-1.033,3.067-8.155,12.545l-3.474,3.506a1.976,1.976,0,0,0-.748.754l-6.1,6.155,19.979,19.289,11.629-9.231c8.558-7.38,15.733-20.316,15.911-26.915.245-9.122-7.395-21.678-32.342-33.906" fill="#786ce6"/>
        <path id="Path_143" data-name="Path 143" d="M721.77,276.426s11.951-4.279,13.869-2.213-4.926,4.574-4.926,4.574,7.877-3.957,9.647-2.569-4.243,6.021-4.243,6.021,10.44-2.536,8.965,1.137-8.71,7.214-11.585,8.394c0,0-9.969,1.43-14.548-9.531h0l-.632-13.777,5.928-5.5" fill="none" stroke="#131430" stroke-width="1"/>
        <line id="Line_33" data-name="Line 33" x1="22.331" y1="18.072" transform="translate(745.247 241.628)" fill="none" stroke="#131430" stroke-width="1"/>
        <line id="Line_34" data-name="Line 34" y1="20.481" x2="20.298" transform="translate(736.292 230.183)" fill="none" stroke="#131430" stroke-width="1"/>
        <path id="Path_144" data-name="Path 144" d="M679.609,174.032c6.456.295,33.6-1.658,74.326,21.6,29.88,17.064,42.441,29.393,26.607,50.372,0,0-6.237,10.045-20.68,20.327s-22.4,14.793-22.4,14.793" fill="none" stroke="#131430" stroke-width="1"/>
        <path id="Path_145" data-name="Path 145" d="M653.783,213.3h44.823l16.771,3.112,38.9,16.106" fill="none" stroke="#131430" stroke-width="1"/>
        <line id="Line_35" data-name="Line 35" x2="19.979" y2="19.289" transform="translate(739.883 247.04)" fill="none" stroke="#131430" stroke-width="1"/>
        <path id="Path_146" data-name="Path 146" d="M647.463,139.239l-5.552-1.444,5.423-6.874Z" fill="#ffdaa4"/>
        <path id="Path_147" data-name="Path 147" d="M647.452,126.014c.056-7.9,5.781-14.327,12.722-14.278l10.44.075c6.941.049,12.573,6.555,12.517,14.458l-.116,16.183c0,.456-.03.906-.07,1.351a6.435,6.435,0,0,1,.168,1.484l-.07,9.852,0,.548-.014,1.952h.005l-.062,11.017c-.025,4.534-2.971,8.218-6.546,8.186l-4.141-.038c-3.575-.032-6.479-3.769-6.453-8.3l.016-2.91c0-.059-.017-.114-.016-.173l.062-8.719-6.037-.043c-6.94-.049-12.573-6.555-12.517-14.458Z" fill="#ffdaa4"/>
        <path id="Path_148" data-name="Path 148" d="M647.452,126.014c.056-7.9,5.781-14.327,12.722-14.278l10.44.075c6.941.049,12.573,6.555,12.517,14.458l-.116,16.183c0,.456-.03.906-.07,1.351a6.435,6.435,0,0,1,.168,1.484l-.07,9.852,0,.548-.014,1.952h.005l-.062,11.017c-.025,4.534-2.971,8.218-6.546,8.186l-4.141-.038c-3.575-.032-6.479-3.769-6.453-8.3l.016-2.91c0-.059-.017-.114-.016-.173l.062-8.719-6.037-.043c-6.94-.049-12.573-6.555-12.517-14.458Z" fill="none" stroke="#131430" stroke-width="1"/>
        <path id="Path_149" data-name="Path 149" d="M646.563,141.429a16.863,16.863,0,0,0,3.354,10.951c3.983,5.422,12.327,4.8,16.487,4.316,7.525-.885,7.728-7.978,8.853-12.947,1.328-5.865,2.256-14.294,2.256-14.294s-4.114-25.8-5.11.462c-.377,9.963-5.463,14.025-7.88,14.371-5.311.761-17.076-8.281-17.96-2.859" fill="#212428"/>
        <path id="Path_150" data-name="Path 150" d="M659.5,133.912a2.325,2.325,0,1,1-2.656-1.937,2.324,2.324,0,0,1,2.656,1.937" fill="#131430"/>
        <path id="Path_151" data-name="Path 151" d="M648.265,149.869s2.052,1.245,4.809-2.75l-6.006-.391.836,2.256Z" fill="#fff"/>
        <path id="Path_152" data-name="Path 152" d="M683.058,152.908s15.777,1.5,19.847-16.1-5.794-33.932-26.333-36.3c0,0-13.4-15.536-24.344-10.269s4.971,18.959,4.971,18.959-11.768-11.323-15.289-6.583,3.88,14.746,10.318,16.063,20.789-1.317,23.159,6.057.526,13.824,5.529,17.135c3.387,2.241,2.2,3.423,2.2,3.423Z" fill="#212428"/>
        <path id="Path_153" data-name="Path 153" d="M696.232,140.8a8.312,8.312,0,1,1-8.253-8.3,8.279,8.279,0,0,1,8.253,8.3" fill="#ffdaa4"/>
        <path id="Path_154" data-name="Path 154" d="M696.232,140.8a8.312,8.312,0,1,1-8.253-8.3A8.279,8.279,0,0,1,696.232,140.8Z" fill="none" stroke="#131430" stroke-width="1"/>
        <path id="Path_155" data-name="Path 155" d="M684.1,141.8a4.428,4.428,0,0,1,.009-.528c.005-.088.013-.175.022-.262,0-.046.011-.092.015-.138.01-.1-.014.1-.013.1a.418.418,0,0,0,.018-.119,6.134,6.134,0,0,1,.146-.685c.032-.117.068-.234.108-.349.02-.059.042-.118.064-.177.011-.029.027-.059.035-.089s-.07.153,0,0a4.883,4.883,0,0,1,.414-.732.809.809,0,0,0,.061-.084c.041-.082-.111.13-.019.023.047-.053.09-.108.137-.161a3.824,3.824,0,0,1,.34-.334l.1-.085c-.013.011-.129.091-.032.025.063-.043.124-.089.189-.13a4.409,4.409,0,0,1,.462-.255c.031-.015.188-.074.02-.01.048-.018.1-.038.144-.055.1-.036.2-.069.3-.1s.216-.056.326-.079l.143-.026c.032-.006.245-.034.083-.015a7.309,7.309,0,0,1,1.653.011.692.692,0,0,0,.688-.688.7.7,0,0,0-.688-.688,5.334,5.334,0,0,0-4.806,1.565,6.025,6.025,0,0,0-1.279,3.351,4.689,4.689,0,0,0-.023.711.7.7,0,0,0,.688.688.694.694,0,0,0,.688-.688" fill="#131430"/>
        <path id="Path_156" data-name="Path 156" d="M638.261,207.433,626.8,291.721l92.737,1.968-4.55-89.189s-21.689-15.935-22.574-16.377-54.148-1.55-54.148-1.55Z" fill="#786ce6"/>
        <path id="Path_157" data-name="Path 157" d="M685.831,180.567H663.889a4.364,4.364,0,0,1-4.364-4.365v-9.018a4.364,4.364,0,0,1,4.364-4.365h21.942a4.365,4.365,0,0,1,4.365,4.365V176.2a4.365,4.365,0,0,1-4.365,4.365" fill="#786ce6"/>
        <path id="Path_158" data-name="Path 158" d="M638.261,210.644l-6.2,43.651L626.8,291.722l92.737,1.967v-3.7l-4.55-80.55" fill="none" stroke="#131430" stroke-width="1"/>
      </g>
    </g>
    <rect id="Rectangle_23" data-name="Rectangle 23" width="1291" height="557" transform="translate(657 -1165)" fill="none"/>
  </g>
</svg>
