<svg xmlns="http://www.w3.org/2000/svg" width="70" height="70" viewBox="0 0 70 70">
  <g id="Group_10501" data-name="Group 10501" transform="translate(-1407 -1405)">
    <circle id="Ellipse_64" data-name="Ellipse 64" cx="35" cy="35" r="35" transform="translate(1407 1405)" fill="rgba(120,108,230,0.2)"/>
    <path id="share_location_24dp_5F6368_FILL0_wght300_GRAD0_opsz24_2_" data-name="share_location_24dp_5F6368_FILL0_wght300_GRAD0_opsz24 (2)" d="M123.47-818.064v-3.169a17.987,17.987,0,0,0,4.387-1.215,17.443,17.443,0,0,0,3.854-2.231l2.271,2.292a20.458,20.458,0,0,1-4.929,2.889A21.457,21.457,0,0,1,123.47-818.064ZM137-825.452l-2.227-2.227a15.644,15.644,0,0,0,2.219-3.83,18.277,18.277,0,0,0,1.162-4.411h3.234a21.029,21.029,0,0,1-1.469,5.614A19.507,19.507,0,0,1,137-825.452Zm1.154-14.693a18.271,18.271,0,0,0-1.162-4.464,14.7,14.7,0,0,0-2.219-3.777l2.247-2.206A20.906,20.906,0,0,1,140-845.74a19.146,19.146,0,0,1,1.394,5.6Zm-18.911,22.081a19.863,19.863,0,0,1-12.745-6.6,19.309,19.309,0,0,1-5.11-13.373,19.41,19.41,0,0,1,5.1-13.415A19.6,19.6,0,0,1,119.244-858v3.169a16.659,16.659,0,0,0-10.512,5.652,16.361,16.361,0,0,0-4.173,11.146,16.264,16.264,0,0,0,4.173,11.12,16.943,16.943,0,0,0,10.512,5.679Zm12.572-33.28a19.29,19.29,0,0,0-4-2.324,15.665,15.665,0,0,0-4.3-1.162V-858a19.677,19.677,0,0,1,5.512,1.392,20.973,20.973,0,0,1,4.959,2.932ZM121.39-828.5a59.134,59.134,0,0,1-5.2-5.038,9,9,0,0,1-2.44-6.27,7.685,7.685,0,0,1,2.212-5.539,7.25,7.25,0,0,1,5.427-2.292,7.25,7.25,0,0,1,5.427,2.292,7.685,7.685,0,0,1,2.212,5.539,9,9,0,0,1-2.44,6.27A59.134,59.134,0,0,1,121.39-828.5Zm0-9.549a1.982,1.982,0,0,0,1.459-.59,1.981,1.981,0,0,0,.589-1.458,2,2,0,0,0-.589-1.443,1.955,1.955,0,0,0-1.459-.605,1.955,1.955,0,0,0-1.459.605,2,2,0,0,0-.589,1.443,1.981,1.981,0,0,0,.589,1.458A1.982,1.982,0,0,0,121.39-838.052Z" transform="translate(1320.61 2278)" fill="#786ce6"/>
  </g>
</svg>
