<svg width="30" height="20" viewBox="0 0 30 20" fill="none" xmlns="http://www.w3.org/2000/svg">
<g clip-path="url(#clip0_2069_58)">
<path d="M1.63818 0H28.3618C29.2651 0.00467946 30 0.713617 30 1.57932V18.4207C30 19.2887 29.2578 20 28.3521 20H1.63818C0.737305 19.9953 0 19.2864 0 18.4207V1.57932C0 0.713617 0.734863 0.00467946 1.63818 0Z" fill="#FF9933"/>
<path d="M0 6.66406H30V13.3323H0V6.66406Z" fill="white"/>
<path d="M0 13.3359H30V18.4225C30 19.2905 29.2578 20.0018 28.3521 20.0018H1.63818C0.737305 19.9971 0 19.2882 0 18.4225V13.3359Z" fill="#128807"/>
<path d="M17.7832 9.99932C17.7832 8.52529 16.5381 7.33203 15 7.33203C13.4619 7.33203 12.2168 8.52529 12.2168 9.99932C12.2168 11.471 13.4619 12.6666 15 12.6666C16.5381 12.6666 17.7832 11.4734 17.7832 9.99932Z" fill="#000088"/>
<path d="M17.4341 10.0007C17.4341 8.71149 16.3452 7.66797 15 7.66797C13.6548 7.66797 12.5659 8.71149 12.5659 10.0007C12.5659 11.2899 13.6548 12.3334 15 12.3334C16.3452 12.3334 17.4341 11.2899 17.4341 10.0007Z" fill="white"/>
<path d="M15.4858 9.9992C15.4858 9.74183 15.2686 9.53125 15 9.53125C14.7314 9.53125 14.5142 9.73949 14.5142 9.9992C14.5142 10.2566 14.7314 10.4648 15 10.4648C15.2686 10.4648 15.4858 10.2566 15.4858 9.9992Z" fill="#000088"/>
<path d="M17.534 10.3197C17.5437 10.2565 17.4949 10.1981 17.429 10.1887C17.3631 10.1793 17.302 10.2261 17.2923 10.2893C17.2825 10.3525 17.3313 10.411 17.3972 10.4203C17.4656 10.4273 17.5266 10.3829 17.534 10.3197Z" fill="#000088"/>
<path d="M15 12.3316L15.083 10.9324L15 10.2656L14.917 10.9324L15 12.3316Z" fill="#000088"/>
<path d="M17.3607 10.9386C17.3875 10.8802 17.3558 10.81 17.2948 10.7866C17.2337 10.7608 17.1605 10.7912 17.1361 10.8497C17.1092 10.9082 17.141 10.9784 17.202 11.0018C17.2655 11.0252 17.3363 10.9971 17.3607 10.9386Z" fill="black"/>
<path d="M14.3701 12.2536L14.8291 10.9223L14.9292 10.2578L14.668 10.8825L14.3701 12.2536Z" fill="black"/>
<path d="M17.0286 11.4931C17.0701 11.4416 17.0604 11.3691 17.0067 11.3293C16.953 11.2895 16.8773 11.2989 16.8358 11.3504C16.7943 11.4019 16.804 11.4744 16.8577 11.5142C16.9114 11.5539 16.9871 11.5422 17.0286 11.4931Z" fill="black"/>
<path d="M13.7817 12.0204L14.585 10.8482L14.8608 10.2305L14.4409 10.7663L13.7817 12.0204Z" fill="black"/>
<path d="M16.555 11.9438C16.6087 11.9041 16.6185 11.8315 16.577 11.7801C16.5355 11.7286 16.4598 11.7192 16.4061 11.759C16.3524 11.7988 16.3426 11.8713 16.3841 11.9228C16.4256 11.9719 16.5037 11.9836 16.555 11.9438Z" fill="black"/>
<path d="M13.2788 11.6514L14.3701 10.7178L14.8022 10.1914L14.2529 10.6055L13.2788 11.6514Z" fill="black"/>
<path d="M15.9789 12.2635C16.0399 12.2378 16.0716 12.1699 16.0448 12.1115C16.0179 12.053 15.9471 12.0225 15.8861 12.0483C15.825 12.0717 15.7933 12.1419 15.8202 12.2004C15.8446 12.2589 15.9154 12.2869 15.9789 12.2635Z" fill="black"/>
<path d="M12.8906 11.167L14.1992 10.5352L14.7583 10.1328L14.1138 10.3972L12.8906 11.167Z" fill="black"/>
<path d="M15.3343 12.4277C15.4002 12.4183 15.4466 12.3598 15.4392 12.2966C15.4295 12.2335 15.3684 12.189 15.3025 12.196C15.2366 12.2054 15.1902 12.2639 15.1975 12.3271C15.2049 12.3926 15.2659 12.437 15.3343 12.4277Z" fill="black"/>
<path d="M12.6489 10.6038L14.082 10.3183L14.7314 10.0703L14.0381 10.1639L12.6489 10.6038Z" fill="black"/>
<path d="M14.6653 12.4281C14.7312 12.4375 14.7923 12.3907 14.802 12.3275C14.8118 12.2644 14.763 12.2059 14.697 12.1965C14.6311 12.1871 14.5701 12.2339 14.5603 12.2971C14.553 12.3626 14.5994 12.4211 14.6653 12.4281Z" fill="black"/>
<path d="M12.5659 10.0014L14.0259 10.081L14.7217 10.0014L14.0259 9.92188L12.5659 10.0014Z" fill="black"/>
<path d="M14.0208 12.2635C14.0818 12.2893 14.1551 12.2589 14.1795 12.2004C14.2039 12.1419 14.1746 12.0717 14.1136 12.0483C14.0525 12.0225 13.9793 12.053 13.9549 12.1115C13.9305 12.1699 13.9598 12.2378 14.0208 12.2635Z" fill="black"/>
<path d="M12.6489 9.39453L14.0381 9.8344L14.7314 9.93033L14.082 9.67998L12.6489 9.39453Z" fill="black"/>
<path d="M13.4424 11.9438C13.4961 11.9836 13.5718 11.9743 13.6133 11.9228C13.6548 11.8713 13.645 11.7988 13.5913 11.759C13.5376 11.7192 13.4619 11.7286 13.4204 11.7801C13.3814 11.8315 13.3911 11.9041 13.4424 11.9438Z" fill="black"/>
<path d="M12.8906 8.83203L14.1138 9.6018L14.7583 9.86619L14.1992 9.46376L12.8906 8.83203Z" fill="black"/>
<path d="M12.9713 11.4931C13.0128 11.5446 13.0884 11.5539 13.1422 11.5142C13.1959 11.4744 13.2056 11.4019 13.1641 11.3504C13.1226 11.2989 13.0469 11.2895 12.9932 11.3293C12.942 11.3668 12.9298 11.4416 12.9713 11.4931Z" fill="black"/>
<path d="M13.2788 8.35156L14.2529 9.39742L14.8022 9.81389L14.3701 9.28511L13.2788 8.35156Z" fill="black"/>
<path d="M12.6365 10.9386C12.6634 10.9971 12.7342 11.0276 12.7952 11.0018C12.8563 10.9761 12.888 10.9082 12.8611 10.8497C12.8343 10.7912 12.7635 10.7608 12.7024 10.7866C12.6414 10.81 12.6121 10.8778 12.6365 10.9386Z" fill="black"/>
<path d="M13.7817 7.97656L14.4409 9.23066L14.8608 9.76646L14.585 9.15111L13.7817 7.97656Z" fill="black"/>
<path d="M12.4657 10.3193C12.4754 10.3824 12.5365 10.4269 12.6024 10.4199C12.6683 10.4105 12.7147 10.352 12.7074 10.2888C12.6976 10.2257 12.6366 10.1812 12.5706 10.1882C12.5023 10.1952 12.4559 10.2537 12.4657 10.3193Z" fill="black"/>
<path d="M14.3701 7.74609L14.668 9.11951L14.9292 9.74188L14.8291 9.0774L14.3701 7.74609Z" fill="black"/>
<path d="M12.4656 9.67946C12.4558 9.74263 12.5047 9.80113 12.5706 9.81049C12.6365 9.81985 12.6975 9.77305 12.7073 9.70988C12.7171 9.64671 12.6682 9.58821 12.6023 9.57885C12.534 9.57183 12.4729 9.61629 12.4656 9.67946Z" fill="black"/>
<path d="M15 7.66797L14.917 9.06713L15 9.73395L15.083 9.06713L15 7.66797Z" fill="black"/>
<path d="M12.639 9.0636C12.6122 9.1221 12.6439 9.19229 12.7049 9.21569C12.766 9.23908 12.8392 9.21101 12.8636 9.15251C12.8905 9.09402 12.8587 9.02383 12.7977 9.00043C12.7342 8.97703 12.6634 9.00511 12.639 9.0636Z" fill="black"/>
<path d="M15.6299 7.74609L15.1709 9.0774L15.0708 9.74188L15.332 9.11951L15.6299 7.74609Z" fill="black"/>
<path d="M12.971 8.51054C12.9295 8.56201 12.9393 8.63454 12.993 8.67432C13.0467 8.71409 13.1224 8.70474 13.1639 8.65326C13.2054 8.60179 13.1956 8.52926 13.1419 8.48948C13.0882 8.4497 13.0125 8.45906 12.971 8.51054Z" fill="black"/>
<path d="M16.2183 7.97656L15.415 9.15111L15.1392 9.76646L15.5591 9.23066L16.2183 7.97656Z" fill="black"/>
<path d="M13.4447 8.05489C13.3909 8.09467 13.3812 8.1672 13.4227 8.21867C13.4642 8.27015 13.5399 8.27951 13.5936 8.23973C13.6473 8.19996 13.6571 8.12743 13.6156 8.07595C13.574 8.02448 13.4959 8.01746 13.4447 8.05489Z" fill="black"/>
<path d="M16.7212 8.35156L15.6299 9.28511L15.1978 9.81389L15.7471 9.39742L16.7212 8.35156Z" fill="black"/>
<path d="M14.0208 7.7361C13.9598 7.76184 13.9305 7.82969 13.9549 7.88819C13.9817 7.94668 14.0525 7.9771 14.1136 7.95136C14.1746 7.92562 14.2064 7.85777 14.1795 7.79928C14.1551 7.73844 14.0843 7.71037 14.0208 7.7361Z" fill="black"/>
<path d="M17.1094 8.83203L15.8008 9.46376L15.2417 9.86619L15.8862 9.6018L17.1094 8.83203Z" fill="black"/>
<path d="M14.6653 7.57151C14.5994 7.58087 14.553 7.63936 14.5603 7.70253C14.5701 7.7657 14.6311 7.81016 14.697 7.80314C14.763 7.79378 14.8118 7.73529 14.802 7.67211C14.7947 7.60894 14.7337 7.56215 14.6653 7.57151Z" fill="black"/>
<path d="M17.3511 9.39453L15.918 9.67998L15.2686 9.93033L15.9619 9.8344L17.3511 9.39453Z" fill="black"/>
<path d="M15.3343 7.57151C15.2683 7.56215 15.2073 7.60894 15.1975 7.67211C15.1878 7.73529 15.2366 7.79378 15.3025 7.80314C15.3684 7.8125 15.4295 7.7657 15.4392 7.70253C15.4466 7.63936 15.4002 7.57853 15.3343 7.57151Z" fill="black"/>
<path d="M17.4341 10.0014L15.9741 9.92188L15.2783 10.0014L15.9741 10.081L17.4341 10.0014Z" fill="black"/>
<path d="M15.9789 7.73578C15.9178 7.71004 15.8446 7.74046 15.8202 7.79895C15.7933 7.85745 15.825 7.92764 15.8861 7.95104C15.9471 7.97443 16.0204 7.94636 16.0448 7.88786C16.0692 7.82703 16.0399 7.75918 15.9789 7.73578Z" fill="black"/>
<path d="M17.3511 10.6038L15.9619 10.1639L15.2686 10.0703L15.918 10.3183L17.3511 10.6038Z" fill="black"/>
<path d="M16.555 8.05589C16.5013 8.01611 16.4256 8.02547 16.3841 8.07694C16.3426 8.12842 16.3524 8.20095 16.4061 8.24072C16.4598 8.2805 16.5355 8.27114 16.577 8.21967C16.6185 8.16819 16.6087 8.09566 16.555 8.05589Z" fill="black"/>
<path d="M17.1094 11.167L15.8862 10.3972L15.2417 10.1328L15.8008 10.5352L17.1094 11.167Z" fill="black"/>
<path d="M17.0286 8.51054C16.9871 8.45906 16.9114 8.4497 16.8577 8.48948C16.804 8.52926 16.7943 8.60179 16.8358 8.65326C16.8773 8.70474 16.953 8.71409 17.0067 8.67432C17.0579 8.63454 17.0701 8.55967 17.0286 8.51054Z" fill="black"/>
<path d="M16.7212 11.6514L15.7471 10.6055L15.1978 10.1914L15.6299 10.7178L16.7212 11.6514Z" fill="black"/>
<path d="M17.3631 9.06067C17.3363 9.00218 17.2655 8.97176 17.2044 8.9975C17.1434 9.02324 17.1117 9.09109 17.1385 9.14958C17.1654 9.20808 17.2362 9.23615 17.2972 9.21275C17.3583 9.18936 17.3875 9.1215 17.3631 9.06067Z" fill="black"/>
<path d="M16.2183 12.0204L15.5591 10.7663L15.1392 10.2305L15.415 10.8482L16.2183 12.0204Z" fill="black"/>
<path d="M17.534 9.67946C17.5242 9.61629 17.4632 9.57183 17.3972 9.57885C17.3313 9.58821 17.2849 9.64671 17.2923 9.70988C17.302 9.77305 17.3631 9.81751 17.429 9.81049C17.4973 9.80347 17.5437 9.74497 17.534 9.67946Z" fill="black"/>
<path d="M15.6299 12.2536L15.332 10.8825L15.0708 10.2578L15.1709 10.9223L15.6299 12.2536Z" fill="black"/>
</g>
<defs>
<clipPath id="clip0_2069_58">
<rect width="30" height="20" fill="white"/>
</clipPath>
</defs>
</svg>
