<svg xmlns="http://www.w3.org/2000/svg" viewBox="0 0 30 30"><defs><style>.cls-1,.cls-2{fill:#8b959e;}.cls-1{opacity:0;}</style></defs><g id="Layer_2" data-name="Layer 2"><g id="Capa_1" data-name="Capa 1"><rect class="cls-1" width="30" height="30"/><path class="cls-2" d="M15,6.59c2.74,0,3.06,0,4.14.06A5.86,5.86,0,0,1,21.05,7,3.42,3.42,0,0,1,23,9a5.8,5.8,0,0,1,.35,1.91c0,1.08.06,1.4.06,4.14s0,3.06-.06,4.14A5.8,5.8,0,0,1,23,21.05,3.42,3.42,0,0,1,21.05,23a5.86,5.86,0,0,1-1.91.35c-1.08,0-1.4.06-4.14.06s-3.06,0-4.14-.06A5.86,5.86,0,0,1,9,23,3.42,3.42,0,0,1,7,21.05a5.8,5.8,0,0,1-.35-1.91c-.05-1.08-.06-1.4-.06-4.14s0-3.06.06-4.14A5.8,5.8,0,0,1,7,9,3.42,3.42,0,0,1,9,7a5.86,5.86,0,0,1,1.91-.35c1.08-.05,1.4-.06,4.14-.06m0-1.85c-2.79,0-3.14,0-4.23.06a7.61,7.61,0,0,0-2.49.48,5.2,5.2,0,0,0-3,3,7.61,7.61,0,0,0-.48,2.49c0,1.09-.06,1.44-.06,4.23s0,3.14.06,4.23a7.61,7.61,0,0,0,.48,2.49,5.2,5.2,0,0,0,3,3,7.61,7.61,0,0,0,2.49.48c1.09.05,1.44.06,4.23.06s3.14,0,4.23-.06a7.61,7.61,0,0,0,2.49-.48,5.2,5.2,0,0,0,3-3,7.61,7.61,0,0,0,.48-2.49c.05-1.09.06-1.44.06-4.23s0-3.14-.06-4.23a7.61,7.61,0,0,0-.48-2.49,5.2,5.2,0,0,0-3-3,7.61,7.61,0,0,0-2.49-.48c-1.09,0-1.44-.06-4.23-.06"/><path class="cls-2" d="M15,9.73A5.27,5.27,0,1,0,20.27,15,5.27,5.27,0,0,0,15,9.73m0,8.69A3.42,3.42,0,1,1,18.42,15,3.42,3.42,0,0,1,15,18.42"/><path class="cls-2" d="M21.71,9.52a1.24,1.24,0,1,1-1.23-1.23,1.24,1.24,0,0,1,1.23,1.23"/></g></g></svg>