<svg xmlns="http://www.w3.org/2000/svg" width="24" height="24" viewBox="0 0 24 24">
  <path id="Path_15011" data-name="Path 15011" d="M171.971-776v-1.5h9.606a.883.883,0,0,0,.635-.288.883.883,0,0,0,.288-.635v-19.154a.882.882,0,0,0-.288-.635.882.882,0,0,0-.635-.288h-9.606V-800h9.606a2.348,2.348,0,0,1,1.73.694,2.348,2.348,0,0,1,.694,1.73v19.154a2.347,2.347,0,0,1-.694,1.729,2.347,2.347,0,0,1-1.73.694Zm-1.067-6.692-1.053-1.079,3.479-3.479H160v-1.5h13.33l-3.479-3.479,1.053-1.079L176.212-788Z" transform="translate(-160 800)" fill="#786ce6"/>
</svg>
