<svg xmlns="http://www.w3.org/2000/svg" width="70" height="70" viewBox="0 0 70 70">
  <g id="Group_10503" data-name="Group 10503" transform="translate(-805 -1032)">
    <g id="Group_134" data-name="Group 134" transform="translate(804.503 1032)">
      <circle id="Ellipse_63" data-name="Ellipse 63" cx="35" cy="35" r="35" transform="translate(0.497)" fill="rgba(0,168,255,0.2)"/>
    </g>
    <path id="schedule_24dp_5F6368_FILL0_wght300_GRAD0_opsz24_1_" data-name="schedule_24dp_5F6368_FILL0_wght300_GRAD0_opsz24 (1)" d="M127.312-830.469l2.219-2.219-7.952-7.952v-9.886h-3.158v11.166ZM120-820a19.484,19.484,0,0,1-7.8-1.575,20.2,20.2,0,0,1-6.352-4.274,20.2,20.2,0,0,1-4.276-6.349A19.466,19.466,0,0,1,100-840a19.484,19.484,0,0,1,1.575-7.8,20.2,20.2,0,0,1,4.274-6.352,20.2,20.2,0,0,1,6.349-4.276A19.465,19.465,0,0,1,120-860a19.484,19.484,0,0,1,7.8,1.575,20.2,20.2,0,0,1,6.352,4.274,20.2,20.2,0,0,1,4.276,6.349A19.466,19.466,0,0,1,140-840a19.484,19.484,0,0,1-1.575,7.8,20.2,20.2,0,0,1-4.274,6.352,20.2,20.2,0,0,1-6.349,4.276A19.466,19.466,0,0,1,120-820ZM120-840Zm0,16.842a16.236,16.236,0,0,0,11.921-4.921A16.236,16.236,0,0,0,136.842-840a16.236,16.236,0,0,0-4.921-11.921A16.236,16.236,0,0,0,120-856.842a16.236,16.236,0,0,0-11.921,4.921A16.236,16.236,0,0,0,103.158-840a16.236,16.236,0,0,0,4.921,11.921A16.236,16.236,0,0,0,120-823.158Z" transform="translate(720 1907)" fill="#00a8ff"/>
  </g>
</svg>
