<svg xmlns="http://www.w3.org/2000/svg" width="634.285" height="352.178" viewBox="0 0 634.285 352.178">
  <g id="Group_11310" data-name="Group 11310" transform="translate(-1123.879 1121.947)">
    <g id="Group_11309" data-name="Group 11309" transform="translate(1124 -1121.947)">
      <path id="Path_15571" data-name="Path 15571" d="M1146.5,240.983a.378.378,0,0,0,.333.419l3.378.392a.378.378,0,1,0,.091-.751l-3.008-.348.355-3a.38.38,0,0,0-.756-.087Zm.613.34c.189-.151.377-.3.574-.453l-.468-.595c-.189.151-.386.3-.575.454Zm1.738-1.356c.394-.3.786-.6,1.187-.907l-.454-.6c-.4.3-.8.6-1.194.912Zm2.4-1.819c.408-.3.824-.6,1.24-.914l-.446-.611-1.246.918Zm2.486-1.814,1.2-.855-.438-.617-1.2.858Zm2.426-1.71c.409-.285.824-.571,1.239-.856l-.423-.624q-.634.431-1.247.86Zm2.5-1.713c.431-.286.855-.571,1.285-.857l-.416-.63c-.43.286-.862.574-1.284.86Zm2.547-1.687,1.247-.806-.409-.636c-.416.27-.839.54-1.247.809Zm2.509-1.612c.424-.268.854-.537,1.285-.8l-.4-.641c-.432.269-.862.538-1.286.807ZM1166.3,228l1.315-.8-.394-.646-1.315.805Zm2.615-1.582c.424-.253.846-.506,1.278-.756l-.386-.651c-.431.253-.854.507-1.285.761Zm2.569-1.511c.431-.252.869-.5,1.308-.756l-.378-.655c-.438.252-.876.5-1.307.756Zm2.63-1.507q.669-.378,1.338-.75l-.371-.661-1.338.756Zm2.675-1.492c.439-.238.87-.475,1.308-.712l-.362-.664c-.439.237-.87.475-1.308.713Zm2.622-1.421c.446-.236.884-.472,1.33-.706l-.347-.669-1.338.708Zm2.675-1.409c.454-.234.9-.467,1.353-.7l-.34-.673c-.461.233-.908.467-1.362.7Zm2.721-1.4c.453-.227.9-.453,1.353-.68l-.339-.68c-.454.227-.9.453-1.353.68Zm2.691-1.341c.446-.22.9-.439,1.345-.658l-.325-.68c-.453.22-.907.44-1.353.661Zm2.705-1.313c.461-.217.914-.434,1.375-.65l-.325-.68c-.461.217-.914.435-1.375.652Zm2.751-1.3c.468-.214.929-.428,1.39-.641l-.31-.688c-.469.214-.929.429-1.4.643Zm2.766-1.264c.453-.2.907-.409,1.367-.611l-.31-.691c-.46.2-.914.408-1.368.613Zm2.743-1.218c.454-.2.923-.4,1.384-.6l-.3-.694-1.383.6Zm2.775-1.2,1.405-.592-.294-.7q-.7.3-1.406.594Zm2.811-1.178,1.405-.574-.287-.7q-.7.286-1.406.574Zm2.788-1.134,1.4-.555-.272-.7q-.7.277-1.406.556Zm2.8-1.1c.468-.182.945-.363,1.414-.543l-.265-.706c-.475.18-.945.362-1.421.544Zm2.834-1.081q.714-.267,1.429-.529l-.257-.709c-.484.176-.96.354-1.435.533Zm2.864-1.058,1.405-.507-.249-.712c-.476.169-.946.338-1.414.509Zm2.826-1.007c.469-.166.944-.331,1.421-.5l-.241-.714q-.726.246-1.429.5Zm2.849-.983c.483-.162.96-.322,1.443-.481l-.241-.717c-.484.16-.96.321-1.444.483Zm2.886-.957q.726-.236,1.451-.468l-.234-.72-1.451.47Zm2.887-.923c.476-.151.953-.3,1.436-.445l-.227-.722c-.475.147-.96.3-1.436.447Zm2.872-.884q.726-.218,1.451-.431l-.219-.725q-.726.214-1.451.433Zm2.9-.856c.484-.141.968-.28,1.459-.417l-.2-.727c-.492.138-.975.277-1.467.418Zm2.925-.831c.483-.135.975-.27,1.466-.4l-.2-.73-1.474.4Zm2.917-.791c.483-.128.967-.255,1.458-.382l-.2-.732-1.458.382Zm2.917-.756c.484-.123.975-.245,1.467-.366l-.182-.734q-.738.181-1.473.367Zm2.933-.723c.492-.118.982-.235,1.482-.35l-.174-.736c-.491.116-.99.233-1.481.351Zm2.963-.692q.736-.168,1.474-.333l-.16-.738c-.5.11-.99.221-1.489.333Zm2.947-.654q.737-.159,1.473-.313l-.159-.74-1.473.314Zm2.948-.617,1.481-.3-.144-.741c-.5.1-.99.2-1.489.3Zm2.97-.584c.5-.094.99-.187,1.489-.279l-.136-.743q-.749.138-1.5.28Zm2.985-.549c.5-.088,1-.175,1.488-.261l-.121-.744c-.506.085-1.005.172-1.5.261Zm2.977-.51c.492-.082.991-.162,1.49-.241l-.121-.747c-.5.079-1,.16-1.49.242Zm2.978-.473q.748-.114,1.5-.223l-.114-.748q-.749.109-1.5.223Zm2.993-.437c.5-.069,1-.138,1.5-.2l-.1-.75c-.506.067-1,.135-1.511.206Zm3.008-.4c.5-.063,1-.125,1.5-.185l-.091-.75c-.506.06-1,.122-1.511.185Zm3-.36q.749-.085,1.5-.165l-.083-.751c-.5.054-1,.109-1.5.166Zm3-.32c.5-.051,1-.1,1.5-.146l-.076-.752c-.5.047-1.005.1-1.5.146Zm3.007-.281c.507-.044,1.006-.085,1.512-.126l-.06-.756q-.76.06-1.52.126Zm3.023-.242c.5-.036,1.005-.076,1.512-.105l-.053-.756c-.506.033-1.012.069-1.512.106Zm3.016-.2c.5-.03,1-.058,1.5-.085l-.037-.756c-.507.027-1.014.055-1.512.085Zm3.008-.159c.506-.023,1.005-.045,1.511-.064l-.03-.756c-.506.02-1.013.041-1.511.064Zm3.022-.117c.507-.016,1.005-.03,1.512-.043l-.015-.756q-.76.019-1.519.043Zm3.031-.076c.507-.009,1.005-.017,1.512-.022l-.008-.756q-.76.008-1.519.022Zm3.023-.032h1.5v-.756h-1.511Zm3.016.011c.5.005,1.005.013,1.511.022l.007-.756c-.507-.009-1.005-.016-1.512-.022Zm3.022.055c.5.013,1.005.028,1.512.045l.023-.756q-.756-.025-1.52-.045Zm3.023.1q.755.03,1.519.067l.03-.756q-.756-.038-1.519-.067Zm3.022.144c.5.028,1,.057,1.5.089l.046-.756c-.506-.032-1.006-.062-1.511-.089Zm3.008.189c.5.035,1.005.076,1.5.112l.061-.756c-.507-.039-1.005-.076-1.512-.112Zm3.008.236c.506.043,1.005.088,1.511.134l.068-.756c-.507-.048-1.005-.093-1.511-.136Zm3.016.282c.506.051,1,.1,1.511.159l.083-.751q-.755-.082-1.519-.159Zm3.008.329q.748.088,1.5.181l.1-.75c-.507-.063-1.005-.123-1.5-.181Zm2.992.373q.749.1,1.5.206l.106-.749c-.5-.07-1.005-.139-1.5-.206Zm2.993.422,1.489.227.121-.747-1.5-.227Zm2.985.471q.748.123,1.5.254l.129-.744q-.749-.131-1.5-.255Zm2.992.52q.738.135,1.474.276l.143-.743c-.5-.094-.99-.187-1.489-.277Zm2.955.564,1.474.3.151-.741c-.491-.1-.99-.2-1.481-.3Zm2.948.614c.5.107.99.215,1.481.326l.166-.738c-.5-.111-.99-.22-1.481-.326Zm2.954.664q.737.172,1.474.351l.182-.735c-.492-.119-.991-.237-1.481-.353Zm2.956.716c.483.122.967.246,1.458.373l.189-.732c-.491-.127-.975-.252-1.466-.378Zm2.909.756q.726.2,1.451.4l.2-.728c-.491-.135-.974-.268-1.458-.4Zm2.9.808q.727.209,1.451.423l.212-.725c-.483-.144-.968-.285-1.458-.425Zm2.9.859q.725.222,1.45.453l.227-.721-1.451-.454Zm2.9.912c.476.156.96.314,1.436.475l.241-.717q-.725-.241-1.45-.477Zm2.857.956c.476.162.945.326,1.421.494l.25-.713c-.477-.168-.945-.333-1.421-.5Zm2.834,1c.476.171.945.344,1.421.52l.264-.708q-.714-.265-1.428-.522Zm2.834,1.053c.469.181.945.363,1.413.547l.272-.7c-.468-.185-.944-.369-1.413-.549Zm2.826,1.107q.7.283,1.406.574l.288-.7c-.468-.194-.945-.386-1.414-.576Zm2.8,1.156c.461.193.915.389,1.377.587l.3-.694q-.692-.3-1.383-.59Zm2.751,1.189c.461.2.914.407,1.375.614l.311-.688c-.461-.208-.922-.413-1.375-.617Zm2.744,1.242c.461.212.914.425,1.375.641l.318-.68c-.454-.217-.915-.432-1.375-.644Zm2.744,1.3q.68.331,1.361.668l.339-.68c-.46-.227-.914-.453-1.375-.671Zm2.728,1.35c.446.227.9.454,1.345.688l.348-.671c-.454-.233-.9-.463-1.352-.692Zm2.668,1.379c.446.233.885.467,1.322.7l.363-.666c-.445-.238-.884-.474-1.329-.707Zm2.645,1.422c.438.241.884.484,1.323.73l.363-.659c-.438-.247-.877-.491-1.323-.734Zm2.637,1.474,1.315.756.377-.653c-.438-.256-.876-.509-1.322-.761Zm2.623,1.528q.658.389,1.315.785l.386-.647q-.659-.4-1.315-.787Zm2.607,1.577q.636.39,1.27.787l.4-.64q-.634-.4-1.269-.791Zm2.532,1.587c.423.269.838.54,1.262.813l.408-.633c-.416-.274-.839-.546-1.262-.816Zm2.517,1.64c.423.277.839.557,1.261.84l.424-.626c-.424-.283-.847-.565-1.262-.843Zm2.509,1.692c.424.286.839.575,1.255.866l.431-.619c-.416-.292-.832-.583-1.254-.87Zm2.5,1.746q.623.444,1.247.893l.446-.612-1.254-.9Zm2.457,1.775c.4.294.8.59,1.194.888l.453-.6q-.6-.449-1.2-.891Zm2.4,1.789c.393.3.793.6,1.186.913l.461-.6c-.393-.308-.793-.614-1.194-.917Zm2.381,1.839c.393.311.785.624,1.186.939l.469-.591c-.4-.317-.794-.63-1.194-.942Zm2.365,1.889q.589.48,1.179.965l.483-.584c-.393-.325-.793-.648-1.187-.969Zm2.358,1.943q.59.492,1.18.991l.484-.575q-.59-.5-1.18-1Zm2.305,1.958c.378.323.749.649,1.126.977l.5-.568q-.567-.493-1.134-.982Zm2.244,1.965c.371.332.749.665,1.119,1l.507-.561c-.379-.337-.749-.672-1.126-1.006Zm2.23,2.016q.556.51,1.111,1.026l.514-.553q-.555-.518-1.111-1.03Zm2.221,2.065c.37.348.74.7,1.1,1.051l.53-.546-1.111-1.058Zm2.207,2.116c.371.357.733.716,1.1,1.077l.529-.538c-.37-.362-.733-.722-1.1-1.081Zm2.162,2.131c.347.349.7.7,1.051,1.054l.535-.529c-.347-.355-.7-.707-1.05-1.058Zm2.093,2.116c.348.357.7.716,1.035,1.077l.552-.523c-.348-.362-.7-.723-1.051-1.081Zm2.079,2.167c.339.365.687.732,1.027,1.1l.559-.515q-.521-.555-1.043-1.1Zm2.063,2.214c.34.373.688.748,1.027,1.125l.56-.509c-.34-.378-.688-.756-1.036-1.128Zm2.055,2.262q.51.571,1.02,1.149l.567-.5c-.34-.386-.688-.77-1.028-1.153Zm2.033,2.306c.326.371.642.743.968,1.118l.574-.493q-.487-.563-.975-1.122Zm1.934,2.246c.318.378.643.756.961,1.14l.581-.486c-.325-.383-.642-.764-.966-1.143Zm1.92,2.291q.475.578.952,1.162l.589-.478c-.325-.391-.642-.779-.959-1.166Zm1.9,2.335q.476.59.952,1.184l.589-.471q-.476-.6-.952-1.188Zm1.9,2.381c.317.4.627.8.945,1.209l.6-.463c-.318-.406-.635-.809-.944-1.209Zm1.881,2.425c.318.408.628.818.938,1.23l.6-.453c-.31-.413-.628-.824-.937-1.233Zm1.829,2.418q.444.592.885,1.189l.612-.449c-.294-.4-.6-.8-.892-1.193Zm1.769,2.388c.287.4.582.8.877,1.209l.612-.441q-.443-.61-.884-1.214Zm1.746,2.431c.3.409.582.819.877,1.231l.612-.435c-.286-.413-.581-.825-.869-1.235Zm1.746,2.473q.431.623.861,1.251l.62-.428q-.431-.63-.862-1.255Zm1.723,2.514q.431.633.862,1.273l.628-.421q-.431-.642-.862-1.276Zm1.715,2.557c.28.428.567.857.847,1.285l.635-.414c-.287-.432-.567-.863-.854-1.292Zm1.655,2.524c.265.413.529.831.8,1.246l.635-.407c-.272-.418-.536-.831-.8-1.249Zm1.6,2.5q.4.63.793,1.264l.642-.4q-.4-.636-.794-1.268Zm1.586,2.539q.4.639.794,1.285l.642-.394q-.4-.646-.793-1.285Zm1.579,2.578c.257.433.522.868.779,1.3l.65-.387c-.257-.438-.522-.874-.786-1.307Zm1.564,2.618q.385.658.771,1.323l.658-.378c-.256-.444-.522-.886-.779-1.327Zm1.55,2.657q.385.669.771,1.344l.657-.378q-.386-.676-.771-1.347Zm1.511,2.649c.242.428.483.857.718,1.285l.665-.368-.726-1.291Zm1.444,2.585c.234.434.476.869.718,1.306l.658-.362c-.234-.438-.476-.874-.718-1.309Zm1.428,2.62c.234.44.476.881.71,1.324l.665-.356c-.234-.445-.476-.886-.71-1.327Zm1.42,2.656q.351.669.7,1.342l.672-.35c-.234-.454-.477-.9-.71-1.345Zm1.406,2.693c.234.453.468.907.7,1.36l.673-.345c-.227-.454-.463-.907-.7-1.36Zm1.391,2.729c.234.458.469.917.7,1.378l.68-.338c-.234-.462-.469-.923-.7-1.382Zm1.383,2.766c.227.453.454.907.673,1.36l.68-.333c-.227-.453-.446-.907-.673-1.36Zm1.315,2.685c.219.443.431.888.643,1.334l.688-.326c-.219-.447-.431-.893-.65-1.337Zm1.285,2.676q.318.674.636,1.351l.687-.321c-.212-.453-.423-.907-.642-1.353Zm1.269,2.709q.318.68.635,1.366l.687-.315q-.318-.687-.635-1.369Zm1.262,2.742c.2.46.416.921.628,1.384l.687-.31c-.212-.463-.416-.926-.627-1.386Zm1.248,2.776c.2.465.415.933.619,1.4l.7-.3c-.212-.469-.415-.937-.627-1.4Zm1.239,2.81q.306.706.613,1.417l.7-.3c-.2-.475-.416-.948-.62-1.42Zm1.224,2.843c.1.238.2.476.3.715l.7-.295c-.1-.24-.2-.478-.3-.716Z" transform="translate(-1115.893 -166.92)" fill="#786ce6" opacity="0.4"/>
      <path id="Path_15572" data-name="Path 15572" d="M1552.87,245.486a.377.377,0,0,0-.37.382l.045,3.4a.378.378,0,0,0,.378.373.383.383,0,0,0,.378-.383l-.038-3.023,3.024-.038a.378.378,0,1,0-.015-.756Zm-.257.648q.272.267.545.529l.528-.54-.545-.529Zm1.617,1.587c.354.348.708.7,1.066,1.041l.528-.538c-.354-.346-.7-.694-1.065-1.043Zm2.139,2.1c.354.353.71.705,1.058,1.058l.536-.535q-.529-.529-1.067-1.058Zm2.116,2.116c.355.357.711.713,1.058,1.068l.537-.529c-.348-.355-.7-.712-1.058-1.07Zm2.1,2.127c.355.361.71.722,1.057,1.08l.537-.529c-.348-.359-.7-.72-1.051-1.082Zm2.093,2.153c.348.363.7.723,1.035,1.084l.552-.522-1.043-1.1Zm2.07,2.171,1.02,1.09.552-.515q-.511-.545-1.02-1.093Zm2.041,2.192c.341.367.674.734,1.006,1.1l.558-.508c-.332-.367-.665-.735-1-1.1Zm2.01,2.218c.333.372.665.744.99,1.115l.567-.5c-.325-.373-.658-.746-.99-1.119Zm1.981,2.247c.324.378.649.756.966,1.134l.582-.49c-.325-.378-.649-.756-.982-1.138Zm1.934,2.28c.324.384.643.768.952,1.152l.59-.479c-.317-.386-.635-.772-.96-1.158Zm1.9,2.316.93,1.171.589-.466c-.3-.393-.619-.786-.929-1.178Zm1.844,2.353.906,1.192.6-.454c-.3-.4-.6-.8-.914-1.2Zm1.79,2.393c.3.4.59.807.878,1.213l.619-.439q-.443-.612-.884-1.22Zm1.739,2.435c.287.41.568.821.847,1.233l.627-.423c-.287-.416-.566-.831-.854-1.241Zm1.679,2.477c.271.416.543.831.807,1.254l.635-.407q-.4-.633-.816-1.262Zm1.609,2.519c.257.422.521.846.778,1.273l.65-.391c-.265-.429-.522-.857-.786-1.285Zm1.542,2.56q.373.643.749,1.292l.657-.373c-.25-.437-.5-.87-.756-1.3Zm1.481,2.6c.242.433.476.87.711,1.31l.665-.357c-.235-.443-.476-.882-.719-1.319Zm1.413,2.637q.342.658.681,1.326l.672-.34q-.339-.672-.68-1.334Zm1.346,2.671c.218.444.43.89.642,1.341l.687-.324c-.219-.453-.431-.9-.648-1.348Zm1.284,2.7q.306.673.612,1.36l.687-.308c-.2-.459-.408-.914-.619-1.365Zm1.216,2.728c.2.453.393.912.59,1.375l.7-.293q-.294-.7-.59-1.383Zm1.165,2.754c.187.461.369.927.558,1.4l.7-.28q-.283-.706-.567-1.4Zm1.1,2.779c.182.465.363.934.537,1.407l.71-.267q-.271-.712-.544-1.413Zm1.058,2.8c.166.466.34.936.507,1.41l.71-.255c-.166-.475-.34-.947-.505-1.415Zm1,2.825c.167.466.325.935.484,1.408l.718-.243c-.159-.475-.325-.946-.484-1.413Zm.968,2.839c.151.467.31.939.461,1.413l.718-.233c-.151-.476-.31-.949-.462-1.418Zm.915,2.839q.227.714.453,1.44l.718-.223c-.144-.486-.3-.968-.445-1.445Zm.884,2.859q.215.715.432,1.442l.725-.215q-.215-.729-.432-1.446Zm.854,2.881q.2.71.408,1.431l.725-.206q-.2-.723-.408-1.436Zm.816,2.884c.135.477.265.957.4,1.44l.725-.2c-.128-.485-.263-.967-.393-1.444Zm.786,2.879q.192.725.386,1.461l.732-.192q-.192-.738-.385-1.464Zm.764,2.905c.121.478.25.959.37,1.444l.733-.186c-.121-.486-.249-.968-.37-1.447Zm.74,2.91q.182.721.363,1.452l.733-.181q-.182-.732-.363-1.455Zm.711,2.9c.121.485.234.974.355,1.466l.732-.175c-.12-.493-.234-.983-.355-1.468Zm.7,2.931c.114.478.22.96.333,1.445l.741-.171q-.17-.728-.34-1.447Zm.674,2.909c.113.491.227.982.333,1.484l.739-.167q-.17-.747-.339-1.486Zm.657,2.925c.105.483.22.97.324,1.459l.741-.162c-.113-.49-.219-.977-.325-1.462Zm.65,2.937q.075.372.158.747l.741-.16c-.054-.249-.106-.5-.167-.747Z" transform="translate(-1215.06 -180.87)" fill="#786ce6" opacity="0.4"/>
      <path id="Path_15574" data-name="Path 15574" d="M1523.821,251.609s-1.277-11.14-.726-11.688,3.832-6.575,4.194-6.392c.552.183.733,1.644.733,2.74s-1.459,9.679-1.459,9.679Z" transform="translate(-1207.843 -177.959)" fill="#f8c3b0"/>
      <path id="Path_15575" data-name="Path 15575" d="M1445.972,520.968s24.109-167.283-2.192-212.026c-4.745-8.035-48.027-84.737-52.41-72.685-4.2,12.053,6.755,284.71,6.755,284.71H1410s10.588-152.856,14.609-159.248c4.02-6.575,9.681,159.248,9.681,159.248Z" transform="translate(-1175.469 -178.313)" fill="#1d1934"/>
      <path id="Path_15576" data-name="Path 15576" d="M1459.948,339.905s-46.017,4.018-69.581,0c0,0-2.917-90.216.915-106.107,2.373-10.227,60.27-14.792,63.006,4.018C1456.661,253.525,1459.948,339.905,1459.948,339.905Z" transform="translate(-1175.198 -175.856)" fill="#4fbd88"/>
      <path id="Path_15577" data-name="Path 15577" d="M1462.611,183.654c-3.287,7.305-9.674,25.567-24.833,22.462s-2.01-37.8,7.49-39.812C1452.749,164.844,1466.813,174.34,1462.611,183.654Z" transform="translate(-1185.351 -161.503)" fill="#f8c3b0"/>
      <path id="Path_15578" data-name="Path 15578" d="M1450.854,613.4a51.405,51.405,0,0,0,0,5.3c.182.365,19.908,4.018,22.28,3.47s.37-3.653-.907-4.384S1460.9,613.4,1460.9,613.4Z" transform="translate(-1190.211 -270.744)" fill="#1d1934"/>
      <path id="Path_15579" data-name="Path 15579" d="M1407.563,613.4a51.44,51.44,0,0,1,0,5.3c-.18.365-19.906,4.018-22.279,3.47s-.363-3.653.915-4.384,11.32-4.383,11.32-4.383Z" transform="translate(-1173.948 -270.744)" fill="#1d1934"/>
      <path id="Path_15580" data-name="Path 15580" d="M1522.65,258.261s.552-6.391,1.647-8.218c.915-1.826,3.107-4.2,5.3-3.287s.363,5.661.363,5.661l-3.469,6.209Z" transform="translate(-1207.769 -181.141)" fill="#f8c3b0"/>
      <path id="Path_15581" data-name="Path 15581" d="M1522.65,255.73s10.414-8.583,10.958-9.5c.733-.731,5.842-10.045,5.842-10.045s2.192,1.1,1.829,2.74c-.544,1.644-10.776,23.01-10.776,23.01Z" transform="translate(-1207.769 -178.609)" fill="#f8c3b0"/>
      <path id="Path_15582" data-name="Path 15582" d="M1530.165,251.874l-10.415-3.287,10.234-17.715,10.225,2.192Z" transform="translate(-1207.059 -177.311)" fill="#1d1934"/>
      <path id="Path_15583" data-name="Path 15583" d="M1470.791,180.9s-4.746,5.844-12.968,1.278c-8.034-4.565-15.524-7.122-17.164-6.757s-4.02,10.045-4.745,10.228l-5.116,3.1s-4.021-9.5.732-18.08c4.565-8.584,12.418-10.41,14.057-8.219,0,0,10.044.183,15.894,7.488A131.27,131.27,0,0,0,1470.791,180.9Z" transform="translate(-1184.945 -160.393)" fill="#1d1934"/>
      <path id="Path_15584" data-name="Path 15584" d="M1468.611,235.706s19.174,33.6,19.907,33.42,17.9-14.975,17.9-14.975l10.044,7.67s-20.632,32.69-26.112,33.421-33.427-28.124-33.427-28.124Z" transform="translate(-1191.714 -178.491)" fill="#4fbd88"/>
      <path id="Path_15585" data-name="Path 15585" d="M1536.43,248.034s1.459-13.331,2.916-14.427c1.277-1.1,5.116-1.826,5.479-2.009.37,0,.552,4.565,0,6.209C1543.912,239.451,1536.43,248.034,1536.43,248.034Z" transform="translate(-1211.135 -177.488)" fill="#f8c3b0"/>
      <path id="Path_15586" data-name="Path 15586" d="M1434.723,193.709s.363-8.4-2.01-6.209c-2.372,2.009-1.459,9.314-1.459,9.314Z" transform="translate(-1185.402 -166.628)" fill="#f8c3b0"/>
      <path id="Path_15587" data-name="Path 15587" d="M1440.185,214.238l-2.191,7.122,4.935.548s-3.657,9.5-13.33,7.67-8.223-8.583-8.223-8.583l4.753.365,4.377-12.236Z" transform="translate(-1183.012 -171.999)" fill="#f8c3b0"/>
      <path id="Path_15588" data-name="Path 15588" d="M1383.635,236.672s-11.874,13.7-23.375,54.422,24.652,79.442,24.652,79.442,1.1-8.4-.544-21.367c-2.01-15.342-6.757-35.794-6.394-39.812.553-7.305,17.534-26.116,17.534-26.116Z" transform="translate(-1167.552 -178.727)" fill="#4fbd88"/>
      <path id="Path_15589" data-name="Path 15589" d="M1382.98,396.484l7.49-10.958s4.928,7.67,4.383,10.958-3.469,18.445-3.469,18.445Z" transform="translate(-1173.654 -215.086)" fill="#f8c3b0"/>
      <g id="Group_11308" data-name="Group 11308" transform="translate(342.353 59.458)">
        <path id="Path_15590" data-name="Path 15590" d="M1678.477,555.4a2.584,2.584,0,0,0,2.507-3.2l-9.922-40.534a2.583,2.583,0,1,0-5.014,1.245l9.922,40.534a2.607,2.607,0,0,0,.923,1.408A2.566,2.566,0,0,0,1678.477,555.4Z" transform="translate(-1551.324 -294.254)" fill="#0b0755"/>
        <path id="Path_15591" data-name="Path 15591" d="M1735.779,554.873a2.648,2.648,0,0,0,.621-.074,2.577,2.577,0,0,0,1.593-1.171,2.527,2.527,0,0,0,.34-.946,2.671,2.671,0,0,0-.039-1.008L1723.9,492.86a2.588,2.588,0,0,0-5.025,1.244l14.394,58.815a2.606,2.606,0,0,0,.923,1.407A2.559,2.559,0,0,0,1735.779,554.873Z" transform="translate(-1552.813 -293.723)" fill="#0b0755"/>
        <path id="Path_15592" data-name="Path 15592" d="M1709.462,338.341c-99.134,0-80.086,101.951-111.319,100.2s-45.732,71.885,67.89,71.885S1800.7,338.341,1709.462,338.341Z" transform="translate(-1548.781 -289.42)" fill="#f7c366"/>
        <path id="Path_15593" data-name="Path 15593" d="M1569.03,534.044s.252,17.521.116,17.773,1.272,2.445,1.272,2.445l5.531.987,5.043-2.321s-.447-16.287.088-18.853S1569.03,534.044,1569.03,534.044Z" transform="translate(-1548.589 -294.908)" fill="#fb9391"/>
        <path id="Path_15594" data-name="Path 15594" d="M1580.4,553.469s-6.364,2.228-11.815-1.457c0,0-21.2,7.951-20.564,13.994,0,0-.894,1.8,8.3,1.416s23.479-.8,23.858-1.014S1582.353,567.168,1580.4,553.469Z" transform="translate(-1547.995 -295.447)" fill="#0b0755"/>
        <path id="Path_15595" data-name="Path 15595" d="M1624.1,534.044s.254,17.521.116,17.773,1.275,2.445,1.275,2.445l5.528.987,5.045-2.321s-.447-16.287.078-18.853S1624.1,534.044,1624.1,534.044Z" transform="translate(-1550.143 -294.908)" fill="#fb9391"/>
        <path id="Path_15596" data-name="Path 15596" d="M1635.469,553.469s-6.375,2.228-11.817-1.457c0,0-21.206,7.951-20.562,13.994,0,0-.906,1.8,8.3,1.416s23.469-.8,23.859-1.014S1637.413,567.168,1635.469,553.469Z" transform="translate(-1549.551 -295.447)" fill="#0b0755"/>
        <path id="Path_15597" data-name="Path 15597" d="M1676.653,323.657s-1.652-2-2.692-1c-2.624,2.551.564,5.109,2.555,5.539Z" transform="translate(-1551.523 -288.97)" fill="#ea6868"/>
        <path id="Path_15598" data-name="Path 15598" d="M1675.2,315.011c-.039-.224-.066-.449-.1-.68a17.661,17.661,0,1,1,34.372,3.436c-1.167,4.287-2.216,7.959-3.4,11.047a25.2,25.2,0,0,0-.662,16l1.187,4.15c-10.156,6.934-15.666,2.138-15.666,2.138l-1.059-7.723a1.953,1.953,0,0,0-2.042-1.684C1674.359,342.284,1675.884,321.036,1675.2,315.011Z" transform="translate(-1551.579 -288.19)" fill="#fb9391"/>
        <path id="Path_15599" data-name="Path 15599" d="M1694.86,322.964a1.662,1.662,0,0,1,3.237-.689,1.728,1.728,0,0,1,.009.967,1.683,1.683,0,0,1-.535.806,1.66,1.66,0,0,1-2.1.015A1.685,1.685,0,0,1,1694.86,322.964Z" transform="translate(-1552.139 -288.934)" fill="#050521"/>
        <path id="Path_15600" data-name="Path 15600" d="M1679.589,321.627a1.653,1.653,0,0,1,.836-1.649,1.689,1.689,0,0,1,.953-.2,1.653,1.653,0,0,1,.894.358,1.623,1.623,0,0,1,.544.8,1.658,1.658,0,1,1-3.227.7Z" transform="translate(-1551.708 -288.896)" fill="#050521"/>
        <path id="Path_15601" data-name="Path 15601" d="M1700.387,319.63a.973.973,0,0,0,.487-.194.9.9,0,0,0,.242-.281.952.952,0,0,0,.127-.355.97.97,0,0,0-.02-.375,1.063,1.063,0,0,0-.165-.338,5.182,5.182,0,0,0-7.181-.868.945.945,0,0,0-.418.607.911.911,0,0,0,.135.726.946.946,0,0,0,.6.419.973.973,0,0,0,.729-.133c2.838-1.835,4.519.325,4.6.415a.955.955,0,0,0,.378.3A.982.982,0,0,0,1700.387,319.63Z" transform="translate(-1552.098 -288.794)" fill="#050521"/>
        <path id="Path_15602" data-name="Path 15602" d="M1684.339,318.746a.969.969,0,0,0,.66-1.543,5.167,5.167,0,0,0-7.172-.875.941.941,0,0,0-.418.607.975.975,0,0,0-.01.376.929.929,0,0,0,.135.35,1.093,1.093,0,0,0,.264.27,1,1,0,0,0,.349.149.933.933,0,0,0,.371,0,.875.875,0,0,0,.349-.138c2.838-1.835,4.529.325,4.6.415a.925.925,0,0,0,.389.305A.971.971,0,0,0,1684.339,318.746Z" transform="translate(-1551.646 -288.769)" fill="#050521"/>
        <path id="Path_15603" data-name="Path 15603" d="M1712.71,311.89l-3.45,12.4-3.265-.283-3.6-15.108Z" transform="translate(-1552.352 -288.589)" fill="#050521"/>
        <path id="Path_15604" data-name="Path 15604" d="M1705.537,324.048a2.616,2.616,0,0,1,1.243-1.39c1.157-.623,3.236-1.395,4.87-.088,2.4,1.92-1.312,8.112-5.909,5.747C1705.72,328.319,1704.361,327.227,1705.537,324.048Z" transform="translate(-1552.426 -288.955)" fill="#fb9391"/>
        <path id="Path_15605" data-name="Path 15605" d="M1686.851,329.831a3.285,3.285,0,0,0,2.964-.415.346.346,0,0,0,.078-.086.247.247,0,0,0,.04-.111.244.244,0,0,0-.011-.116.365.365,0,0,0-.146-.181.234.234,0,0,0-.107-.037.272.272,0,0,0-.117.009.3.3,0,0,0-.107.057,2.68,2.68,0,0,1-3.225-.1,1.09,1.09,0,0,1-.457-.514c-.039-.142.174-.468.457-.854a8.351,8.351,0,0,0,1.807-5.432.267.267,0,0,0-.087-.2.272.272,0,0,0-.194-.084.278.278,0,0,0-.2.084.272.272,0,0,0-.087.2,7.712,7.712,0,0,1-1.691,5.1c-.35.477-.633.854-.564,1.281a1.459,1.459,0,0,0,.68.892A3.8,3.8,0,0,0,1686.851,329.831Z" transform="translate(-1551.866 -288.952)" fill="#ea6868"/>
        <path id="Path_15606" data-name="Path 15606" d="M1693.7,332.382s-6.579,1.555-11.021.055c0,0,1.613,5.009,5.539,4.979S1693.7,332.382,1693.7,332.382Z" transform="translate(-1551.796 -289.252)" fill="#fff"/>
        <path id="Path_15607" data-name="Path 15607" d="M1677.24,308.233s-2.323,2.05-1.769,12.772c0,0-2.167-11.781-.992-13.237S1677.24,308.233,1677.24,308.233Z" transform="translate(-1551.553 -288.542)" fill="#0b0755"/>
        <path id="Path_15608" data-name="Path 15608" d="M1712.517,307.3a18.428,18.428,0,0,0-2.788-7.254,4.888,4.888,0,0,0,3.6-.494c.992-.755.962-2.706-.252-2.959-.709-.145-1.39.34-2.109.415-1.632.225-2.819-1.515-3.342-3.078s-.992-3.407-2.5-4.113a2.707,2.707,0,0,0-1.516-.232,8.837,8.837,0,0,0,.787,5.661,23.141,23.141,0,0,0-7.153-5.811c-2.138-1.115-4.654-1.9-6.938-1.133-.477,1.859,2.6,2.74,3,4.615a41.491,41.491,0,0,0-12.575-1.137,8.221,8.221,0,0,0-3.167.668,3.211,3.211,0,0,0-1.9,2.489,2.374,2.374,0,0,0,.176,1.032,2.492,2.492,0,0,0,.573.875,2.59,2.59,0,0,0,.885.566,2.526,2.526,0,0,0,1.031.163,26.769,26.769,0,0,0-5.948,3.445,8.969,8.969,0,0,0-3.382,5.809,8.944,8.944,0,0,0,4.413-1.12c-.924.863-1.722,2.166-1.245,3.32a2.565,2.565,0,0,0,.934,1.023,2.517,2.517,0,0,0,1.321.389,7.46,7.46,0,0,0,2.741-.523l13.488-4.373a15.556,15.556,0,0,0-3.655,6.768,21.136,21.136,0,0,0,11.147-4.875,21.239,21.239,0,0,0,1.943,5.539,1.535,1.535,0,0,0,.574.705c.9.486,1.652-.863,2.458-1.5,1-.777,2.488-.44,3.586.165,1.914,1.047,3.245,2.573,4.723.292A8.342,8.342,0,0,0,1712.517,307.3Z" transform="translate(-1551.411 -288)" fill="#050521"/>
        <path id="Path_15609" data-name="Path 15609" d="M1591.1,444.144s-20.514,1.661-27.092,27.8c-3.829,15.192-2.333,64.661-2.333,64.661l26.607,4.174s-2.38-55.283,18.232-72.321c0,0-4.178,11.229,10.923,75.11h19.747l6.579-65.437s46.48,1.547,60.406-10.068,15.355-25.521,15.355-25.521l-65.674-9.959Z" transform="translate(-1548.373 -292.079)" fill="#786ce6"/>
        <path id="Path_15610" data-name="Path 15610" d="M1710.866,352.755s-1.293-9.938-3.362-9.419-20.389,3.85-22.2,3.472,0,8.4,0,8.4-20.63,1.879-25.792,10.656-17.172,42.1-21.563,44.946S1624.9,421.55,1624.9,421.55l35.694,20.076,33.81-1.585s24.461,14.661,43.575,3.246,15.744-71.3-2.323-81.883S1710.866,352.755,1710.866,352.755Z" transform="translate(-1550.165 -289.56)" fill="#fff5f1"/>
        <path id="Path_15611" data-name="Path 15611" d="M1651.511,433.6a.387.387,0,0,0,.108,0c10.291-4.5,15.811-48.969,16.044-50.838a.319.319,0,0,0-.01-.1.173.173,0,0,0-.048-.09.162.162,0,0,0-.078-.065.237.237,0,0,0-.088-.031.284.284,0,0,0-.106.006.276.276,0,0,0-.088.044.268.268,0,0,0-.066.077.169.169,0,0,0-.031.1c-.059.46-5.715,46.063-15.742,50.423a.286.286,0,0,0-.117.12.211.211,0,0,0-.019.17.226.226,0,0,0,.087.148.233.233,0,0,0,.154.06Z" transform="translate(-1550.91 -290.665)" fill="#0b0755"/>
        <path id="Path_15612" data-name="Path 15612" d="M1696.181,441.641a.288.288,0,0,0,.146-.043.254.254,0,0,0,.088-.115.226.226,0,0,0,0-.194.241.241,0,0,0-.126-.144l-7.454-3.254,1.041-12.98c2.235-.415,23.177-4.514,33.2-5.685a.24.24,0,0,0,.164-.083.263.263,0,0,0,.068-.17c0-1,.37-24.571-1.185-28.068a.284.284,0,0,0-.146-.131.251.251,0,0,0-.194.007.292.292,0,0,0-.137.141.268.268,0,0,0,.009.194c1.42,3.217,1.167,25.148,1.137,27.626-10.63,1.244-32.953,5.66-33.2,5.7a.285.285,0,0,0-.146.084.291.291,0,0,0-.068.15l-1.068,13.358a.282.282,0,0,0,.029.154.3.3,0,0,0,.126.108l7.619,3.32A.194.194,0,0,0,1696.181,441.641Z" transform="translate(-1551.954 -290.898)" fill="#0b0755"/>
        <path id="Path_15613" data-name="Path 15613" d="M1607.813,469.013a.229.229,0,0,0,.156-.061.326.326,0,0,0,.1-.151c.039-.228,4.742-22.944,41.914-25.633a.314.314,0,0,0,.1-.026.232.232,0,0,0,.078-.061.293.293,0,0,0,.049-.088.165.165,0,0,0,.009-.1.348.348,0,0,0-.019-.1.281.281,0,0,0-.057-.083.276.276,0,0,0-.1-.05.215.215,0,0,0-.1-.008c-19.63,1.419-30.107,8.412-35.441,14.026-5.812,6.106-6.948,11.969-6.958,12.035v.1a.29.29,0,0,0,.039.091.245.245,0,0,0,.078.071.22.22,0,0,0,.087.037Z" transform="translate(-1549.677 -292.362)" fill="#0b0755"/>
        <path id="Path_15614" data-name="Path 15614" d="M1681.9,427.562l-1.38.041c-4.236.133-16.909.569-18.377,1.088-1.769.623,3.557,11.687,3.557,11.687s15.229.83,20.126-2.436S1681.9,427.562,1681.9,427.562Z" transform="translate(-1551.206 -291.936)" fill="#f78181"/>
        <path id="Path_15615" data-name="Path 15615" d="M1667.61,440.754s-8.5,3.847-9.251,3.013,6.638-5.129,6.638-5.129Z" transform="translate(-1551.108 -292.249)" fill="#f78181"/>
        <path id="Path_15616" data-name="Path 15616" d="M1665.1,437.934s-12.574,5.175-13.527,3.436,12.963-6.225,12.963-6.225Z" transform="translate(-1550.916 -292.151)" fill="#f78181"/>
        <path id="Path_15617" data-name="Path 15617" d="M1663.37,434.795s-12.983,4.059-13.78,2.241,13.469-5.071,13.469-5.071Z" transform="translate(-1550.86 -292.061)" fill="#f78181"/>
        <path id="Path_15618" data-name="Path 15618" d="M1662.726,431.431s-12.128,3.958-12.887,2.138,12.576-4.981,12.576-4.981Z" transform="translate(-1550.868 -291.966)" fill="#f78181"/>
        <path id="Path_15619" data-name="Path 15619" d="M1679.49,427.9l9.572-1.2-.874,10.818-4.927,1.1Z" transform="translate(-1551.706 -291.912)" fill="#f78181"/>
        <path id="Path_15620" data-name="Path 15620" d="M1567.97,393.483l70.046-.1,22.031,51.214-70.037.1Z" transform="translate(-1548.559 -290.973)" fill="#050521"/>
        <path id="Path_15621" data-name="Path 15621" d="M1648.579,446.008l46.889-.065v-3.1l-46.9.066Z" transform="translate(-1550.833 -292.367)" fill="#050521"/>
        <path id="Path_15622" data-name="Path 15622" d="M1611.2,418.923a2.989,2.989,0,0,0-.5-1.715,3.085,3.085,0,1,0-4.305,4.254,3.135,3.135,0,0,0,1.71.529A3.084,3.084,0,0,0,1611.2,418.923Z" transform="translate(-1549.607 -291.605)" fill="#fff"/>
        <path id="Path_15623" data-name="Path 15623" d="M1780.992,561.4h-.059a.244.244,0,0,1-.1-.042.258.258,0,0,1-.069-.074.306.306,0,0,1-.039-.1.391.391,0,0,1,.009-.1c8.3-36.734,16.356-62.817,22.7-73.454.1-.159.195-.325.282-.494a.267.267,0,0,1,.341-.138.23.23,0,0,1,.134.146.233.233,0,0,1,0,.2,5.914,5.914,0,0,1-.31.55c-6.316,10.592-14.353,36.624-22.643,73.3a.283.283,0,0,1-.087.146A.263.263,0,0,1,1780.992,561.4Z" transform="translate(-1554.561 -293.612)" fill="#bdb2f0"/>
        <path id="Path_15624" data-name="Path 15624" d="M1808.877,485.271c-.758,1.2-4.821,3.581-5.161,3.365s.069-4.907.827-6.1a2.563,2.563,0,0,1,3.643-.979,2.625,2.625,0,0,1,.759.732,2.71,2.71,0,0,1,.4.972,2.4,2.4,0,0,1-.029,1.052A2.659,2.659,0,0,1,1808.877,485.271Z" transform="translate(-1555.205 -293.448)" fill="#bdb2f0"/>
        <path id="Path_15625" data-name="Path 15625" d="M1800.772,489.479c.515,1.355-.039,6.139-.427,6.285s-3.964-3.085-4.481-4.429a2.624,2.624,0,0,1,4.909-1.856Z" transform="translate(-1554.984 -293.635)" fill="#bdb2f0"/>
        <path id="Path_15626" data-name="Path 15626" d="M1806.5,497.511c-1.428.195-5.966-1.42-6.025-1.828s3.887-3.173,5.326-3.368a2.563,2.563,0,0,1,1.031.044,2.624,2.624,0,0,1,.941.442,2.531,2.531,0,0,1,.691.771,2.375,2.375,0,0,1,.34.981,2.665,2.665,0,0,1-.058,1.035,2.782,2.782,0,0,1-.466.929,2.679,2.679,0,0,1-.787.68A2.589,2.589,0,0,1,1806.5,497.511Z" transform="translate(-1555.117 -293.762)" fill="#bdb2f0"/>
        <path id="Path_15627" data-name="Path 15627" d="M1789.678,514.884c1.108,2.167,1.05,10.248.427,10.565s-7.172-4.415-8.269-6.582a4.4,4.4,0,1,1,7.842-3.984Z" transform="translate(-1554.579 -294.332)" fill="#bdb2f0"/>
        <path id="Path_15628" data-name="Path 15628" d="M1800.7,527.238c-2.362.583-10.222-1.287-10.387-1.962s5.919-6,8.27-6.583a4.4,4.4,0,1,1,2.117,8.545Z" transform="translate(-1554.831 -294.503)" fill="#bdb2f0"/>
        <path id="Path_15629" data-name="Path 15629" d="M1783.813,524.607c1.895,2.292,4,11.953,3.343,12.5s-9.758-3.343-11.652-5.626a5.388,5.388,0,1,1,8.3-6.871Z" transform="translate(-1554.379 -294.619)" fill="#bdb2f0"/>
        <path id="Path_15630" data-name="Path 15630" d="M1799.449,540.675c-2.944.414-12.284-2.857-12.4-3.693s7.958-6.554,10.9-6.968a5.385,5.385,0,1,1,1.5,10.665Z" transform="translate(-1554.738 -294.825)" fill="#bdb2f0"/>
        <path id="Path_15631" data-name="Path 15631" d="M1780.643,536.96c1.894,2.291,4,11.953,3.343,12.5s-9.757-3.343-11.652-5.626a5.388,5.388,0,0,1,8.3-6.871Z" transform="translate(-1554.288 -294.967)" fill="#bdb2f0"/>
        <path id="Path_15632" data-name="Path 15632" d="M1796.279,553.028c-2.943.414-12.283-2.857-12.4-3.693s7.958-6.557,10.9-6.97a5.374,5.374,0,0,1,4.033,1,5.381,5.381,0,0,1,2.119,3.574,5.447,5.447,0,0,1-1.05,4.021,5.526,5.526,0,0,1-1.594,1.4A5.392,5.392,0,0,1,1796.279,553.028Z" transform="translate(-1554.648 -295.173)" fill="#bdb2f0"/>
        <path id="Path_15633" data-name="Path 15633" d="M1772.95,552.781c2.623,1.4,8.259,9.512,7.861,10.284s-10.292.63-12.916-.772a5.4,5.4,0,0,1-2.653-3.179,5.5,5.5,0,0,1-.224-2.1,5.313,5.313,0,0,1,.613-2.022,5.386,5.386,0,0,1,7.318-2.211Z" transform="translate(-1554.118 -295.45)" fill="#bdb2f0"/>
        <path id="Path_15634" data-name="Path 15634" d="M1793.56,565.222c-2.876.771-12.545-1.3-12.77-2.122s7.075-7.5,9.951-8.277a5.392,5.392,0,0,1,2.829,10.407Z" transform="translate(-1554.562 -295.52)" fill="#bdb2f0"/>
        <path id="Path_15635" data-name="Path 15635" d="M1797.381,497.391c.515,1.378-.039,6.238-.427,6.387s-4.034-3.123-4.549-4.5a2.661,2.661,0,1,1,4.976-1.887Z" transform="translate(-1554.885 -293.858)" fill="#bdb2f0"/>
        <path id="Path_15636" data-name="Path 15636" d="M1803.012,505.661c-1.457.194-6.064-1.445-6.122-1.859s3.955-3.225,5.4-3.423a2.665,2.665,0,0,1,.708,5.283Z" transform="translate(-1555.016 -293.99)" fill="#bdb2f0"/>
        <path id="Path_15637" data-name="Path 15637" d="M1793.341,504.787c.9,1.886.672,8.835.137,9.091s-6.074-3.954-6.968-5.842a3.67,3.67,0,0,1-.36-1.432,3.58,3.58,0,0,1,.214-1.458,3.752,3.752,0,0,1,3.371-2.507,3.781,3.781,0,0,1,1.459.215,3.832,3.832,0,0,1,1.273.756A3.759,3.759,0,0,1,1793.341,504.787Z" transform="translate(-1554.713 -294.054)" fill="#bdb2f0"/>
        <path id="Path_15638" data-name="Path 15638" d="M1802.317,516.465c-2.08.28-8.629-2.057-8.707-2.64s5.617-4.579,7.686-4.859a3.785,3.785,0,1,1,1.022,7.5Z" transform="translate(-1554.924 -294.231)" fill="#bdb2f0"/>
        <path id="Path_15639" data-name="Path 15639" d="M1804.985,573.68l-.049-.015a.267.267,0,0,1-.1-.058.886.886,0,0,1-.058-.09.425.425,0,0,1-.02-.106.2.2,0,0,1,.02-.107c14.839-37.572,27.687-63.895,36.16-74.126.186-.226.321-.389.379-.475a.257.257,0,0,1,.165-.106.282.282,0,0,1,.3.406c-.068.114-.2.258-.418.533-8.434,10.187-21.241,36.457-36.072,73.973a.28.28,0,0,1-.116.142.3.3,0,0,1-.195.03Z" transform="translate(-1555.239 -293.94)" fill="#786ce6"/>
        <path id="Path_15640" data-name="Path 15640" d="M1847.4,497.481c-1,1.143-5.695,3-6.015,2.721s.874-5.188,1.876-6.332a2.708,2.708,0,0,1,.845-.655,2.755,2.755,0,0,1,2.1-.143,2.8,2.8,0,0,1,.935.534,2.636,2.636,0,0,1,.65.85,2.587,2.587,0,0,1,.283,1.035,2.661,2.661,0,0,1-.136,1.069,2.866,2.866,0,0,1-.535.921Z" transform="translate(-1556.271 -293.781)" fill="#786ce6"/>
        <path id="Path_15641" data-name="Path 15641" d="M1838.149,500.61c.321,1.52-1.059,6.5-1.487,6.59s-3.7-3.91-4.023-5.432a2.816,2.816,0,0,1,5.51-1.158Z" transform="translate(-1556.024 -293.935)" fill="#786ce6"/>
        <path id="Path_15642" data-name="Path 15642" d="M1842.893,510.081c-1.545-.031-6.1-2.489-6.094-2.932s4.645-2.709,6.19-2.692a2.856,2.856,0,0,1,1.1.218,3.011,3.011,0,0,1,.924.623,2.842,2.842,0,0,1,.562,3.115,2.732,2.732,0,0,1-.652.908,2.781,2.781,0,0,1-.941.583,2.834,2.834,0,0,1-1.1.174Z" transform="translate(-1556.143 -294.105)" fill="#786ce6"/>
        <path id="Path_15643" data-name="Path 15643" d="M1822.2,525.721c.806,2.478-.584,11.035-1.283,11.267s-6.88-5.858-7.7-8.336a4.832,4.832,0,0,1-.212-1.829,4.718,4.718,0,0,1,6.841-3.847A4.733,4.733,0,0,1,1822.2,525.721Z" transform="translate(-1555.472 -294.614)" fill="#786ce6"/>
        <path id="Path_15644" data-name="Path 15644" d="M1831.83,540.651c-2.6.231-10.623-3.049-10.691-3.79s7.259-5.383,9.854-5.613a4.721,4.721,0,1,1,.835,9.4Z" transform="translate(-1555.7 -294.86)" fill="#786ce6"/>
        <path id="Path_15645" data-name="Path 15645" d="M1814.367,535.062c1.632,2.742,2.282,13.332,1.5,13.8s-9.785-5.143-11.419-7.88a5.662,5.662,0,0,1-.8-2.138,5.776,5.776,0,0,1,10.719-3.776Z" transform="translate(-1555.206 -294.887)" fill="#786ce6"/>
        <path id="Path_15646" data-name="Path 15646" d="M1828.3,554.7c-3.188-.046-12.546-5.054-12.537-5.963s9.515-5.636,12.711-5.592a5.778,5.778,0,0,1-.174,11.555Z" transform="translate(-1555.549 -295.197)" fill="#786ce6"/>
        <path id="Path_15647" data-name="Path 15647" d="M1808.976,547.635c1.634,2.741,2.275,13.332,1.5,13.8s-9.8-5.143-11.429-7.881a5.823,5.823,0,0,1-.787-2.138,5.613,5.613,0,0,1,.088-2.278,5.833,5.833,0,0,1,.971-2.065,5.609,5.609,0,0,1,1.681-1.531,5.791,5.791,0,0,1,7.978,2.095Z" transform="translate(-1555.052 -295.241)" fill="#786ce6"/>
        <path id="Path_15648" data-name="Path 15648" d="M1822.906,567.272c-3.2-.046-12.545-5.053-12.536-5.96s9.514-5.637,12.7-5.591a5.8,5.8,0,0,1,2.235.446,5.923,5.923,0,0,1,1.885,1.275,5.752,5.752,0,0,1,1.244,1.9,5.757,5.757,0,0,1-1.37,6.326,5.79,5.79,0,0,1-4.159,1.6Z" transform="translate(-1555.396 -295.552)" fill="#786ce6"/>
        <path id="Path_15649" data-name="Path 15649" d="M1798.212,563.142c2.555,1.914,7.2,11.46,6.646,12.188s-11.011-1.028-13.566-2.937a5.778,5.778,0,1,1,6.919-9.256Z" transform="translate(-1554.794 -295.728)" fill="#786ce6"/>
        <path id="Path_15650" data-name="Path 15650" d="M1818,579.749c-3.168.352-13.08-3.443-13.178-4.348s8.747-6.786,11.9-7.138a5.778,5.778,0,1,1,1.284,11.485Z" transform="translate(-1555.24 -295.904)" fill="#786ce6"/>
        <path id="Path_15651" data-name="Path 15651" d="M1833.246,508.434c.331,1.543-1.059,6.608-1.506,6.7s-3.751-3.975-4.081-5.518a2.855,2.855,0,1,1,5.587-1.18Z" transform="translate(-1555.883 -294.154)" fill="#786ce6"/>
        <path id="Path_15652" data-name="Path 15652" d="M1837.851,518.145c-1.574-.031-6.191-2.527-6.181-2.98s4.713-2.766,6.3-2.735a2.839,2.839,0,0,1,1.107.22,2.947,2.947,0,0,1,.943.633,2.843,2.843,0,0,1,.611.947,2.75,2.75,0,0,1,.2,1.113,2.9,2.9,0,0,1-.243,1.105,2.832,2.832,0,0,1-.661.923,2.864,2.864,0,0,1-2.079.777Z" transform="translate(-1555.997 -294.33)" fill="#786ce6"/>
        <path id="Path_15653" data-name="Path 15653" d="M1827.748,515.616c.643,2.147-.747,9.475-1.36,9.658s-5.781-5.188-6.423-7.338a4.06,4.06,0,1,1,7.783-2.315Z" transform="translate(-1555.661 -294.338)" fill="#786ce6"/>
        <path id="Path_15654" data-name="Path 15654" d="M1835.325,529.5c-2.245-.044-8.8-3.6-8.786-4.234s6.705-3.931,8.94-3.887a4.061,4.061,0,0,1-.155,8.12Z" transform="translate(-1555.852 -294.583)" fill="#786ce6"/>
      </g>
      <path id="Path_15655" data-name="Path 15655" d="M1140.32,284.845l-.975.894a1.217,1.217,0,0,1-1.709-.041l-17.351-19.175a1.16,1.16,0,0,1,.121-1.663l.974-.894a1.217,1.217,0,0,1,1.709.041l17.352,19.134A1.211,1.211,0,0,1,1140.32,284.845Z" transform="translate(-1109.417 -185.314)" fill="#183658"/>
      <path id="Path_15656" data-name="Path 15656" d="M1200.415,271.016c-2.32-1.909-20.247,6.013-20.043,8.734.25,2.763-12.515,29.372-12.515,29.372l-22.03-17.631c-.2-.65-2.282-7.474-2.4-8.691-.121-1.3-3.817-3.534-5.571-3.21s1.467,2.519,1.709,2.925c.574,1.1-1.625,1.5-1.625,1.5s-6.379-3.494-6.5-5.566-1.465-6.378-2.8-5.485c-.7.447-.7,3.535-.492,5-.408-1.662-.975-3.494-1.541-3.7-1.02-.325-1.55.976-1.346,1.626s1.83,7.637,2.359,8.45c.491.772,10.769,9.059,12.235,10.887,0,0,28.492,32.662,30.525,33.516,1.791.731,8.132-10.522,14.11-18C1190.5,303.272,1207.693,276.907,1200.415,271.016Z" transform="translate(-1110.69 -187.044)" fill="#d29e8b"/>
      <path id="Path_15657" data-name="Path 15657" d="M1300.079,585.43s3.9,3.819,4.02,5.242c.083,1.421.371,16.452-1.262,17.875-1.579,1.422-6.295,2.4-4.791,3.981,1.135,1.178,9.916.934,15.728.609,1.708-.082,3.824-13.69,4.511-15.681.977-2.885,3.334-9.425,2.48-11.456-.446-.975-2.517-3.007-5.4-4.917-3.045-1.99-6.015-6.418-6.015-6.418Z" transform="translate(-1152.836 -261.284)" fill="#d29e8b"/>
      <path id="Path_15658" data-name="Path 15658" d="M1242.389,600.616s3.492,9.913,3.492,9.953c.249,1.587,1.307,5.441,1.307,6.907,0,5.366-24.146-4.55-18.743-6.947a5.733,5.733,0,0,0,2.192-3.779c.25-2.8-2.026-6.337-2.026-6.337Z" transform="translate(-1135.716 -267.573)" fill="#d29e8b"/>
      <path id="Path_15659" data-name="Path 15659" d="M1194.925,356.151s-1.746,17.794-1.746,18.078c0,28.762-5.69,84.987-4.595,90.431,2.645,13.2,31.054,80.519,31.054,80.519L1235,543.351l-20-80.6,7.36-32.459,10.4-64.147Z" transform="translate(-1126.137 -207.911)" fill="#282358"/>
      <path id="Path_15660" data-name="Path 15660" d="M1249.993,372.687l2.925,16.859,7.844,69.428,30.041,67.844s-4.224,9.871-10.445,11.253l-47.8-69.672-29.679-89.131,1.059-19.784Z" transform="translate(-1129.662 -208.725)" fill="#322c6b"/>
      <path id="Path_15661" data-name="Path 15661" d="M1188.9,285.036l21.3,2.192s.975-17.51.975-25.837c0-10.116-.854-23.2-2.07-22.913-3.415.772-8.048,2.681-10.769,6.459C1188.818,258.021,1188.9,285.036,1188.9,285.036Z" transform="translate(-1126.25 -179.167)" fill="#786ce6"/>
      <path id="Path_15662" data-name="Path 15662" d="M1199.935,259.336c-.446,3.087-8.615,87.062-8.615,87.062,38.777,18.769,60.157,3.331,60.157,3.331s-1.263-58.948.241-66.991c1.02-5.321,2.283-40.584-1.178-41.6a86.086,86.086,0,0,0-14.956-3.169c-4.716-.487-22.922-.772-26.217.325A42.776,42.776,0,0,0,1199.935,259.336Z" transform="translate(-1126.841 -178.939)" fill="#786ce6"/>
      <path id="Path_15663" data-name="Path 15663" d="M1314.6,583.05s-9.024,25.469-12.56,26.691c-.938.325-5.449,1.137-6.3,3.169a9.074,9.074,0,0,0,0,2.6h18.818s2.4-11.212,3.333-16.169c0,0,4.965-12.066,4.436-13.163C1321.752,585.122,1314.6,583.05,1314.6,583.05Z" transform="translate(-1152.324 -263.332)" fill="#1d1934"/>
      <path id="Path_15664" data-name="Path 15664" d="M1242.525,622.464l-2.76-8.775s-5.812,2.478-8.7,2.073a86.323,86.323,0,0,1-8.578-2.073c-11.585,3.819-21.1,5.688-19.346,8.775Z" transform="translate(-1129.677 -270.815)" fill="#1d1934"/>
      <path id="Path_15665" data-name="Path 15665" d="M1184.142,340.422a3.925,3.925,0,0,1-.567-.447c.688-8.206.567-16.209-1.995-18.894.083-.122.612-1.341,1.224-2.559,2.963,2.315,4.39,8.45,3.862,18.44a18.871,18.871,0,0,1-.408,2.072C1185.321,339.968,1184.55,340.582,1184.142,340.422Z" transform="translate(-1124.461 -198.72)" fill="#d29e8b"/>
      <path id="Path_15666" data-name="Path 15666" d="M1309.113,353.651a1.239,1.239,0,0,0,0-.529c-.566-5.809-5.366-54.64-6.182-56.713-.725-1.868-22.31-32.825-22.31-32.825l-10.611,14.5,20.769,27.787c.445,1.747,7.965,34.734,7.965,34.734s1.55,6.013,2.237,9.588c-.325.853-.612,1.663-.892,2.356a24.45,24.45,0,0,1-2.236,3.616,23.211,23.211,0,0,0-2.645,4.712c-.2.853-.6,2.6-.854,3.656a28.451,28.451,0,0,0-.566,2.885,5.589,5.589,0,0,1-.687,1.543.926.926,0,0,0,1.094,1.341c.771-.243,1.339-1.218,1.709-1.828,1.013-1.706,1.587-4.875,1.829-4.712s1.134,5.484,1.3,6.093c.121.609,1.217,6.785,1.829,7.922s1.421.934,1.626.244c.2-.61-.651-9.263-.651-9.263s-.12-1.1.372-.771c.483.366,1.254,8.207,1.625,9.384.324,1.138,1.1,1.747,1.746.853.77-1.137-.567-9.466-.567-9.466s-.167-1.058.279-.934,1.02,6.825,1.345,7.393a.874.874,0,0,0,1.625-.162c.484-1.138-.771-8.572-.771-8.572s.084-.609.325-.406c.28.2,1.179,5.89,1.746,6.419a.605.605,0,0,0,.892,0c1.057-.732-.567-6.134-.529-8.816,0-2.681-1.216-5.728-.846-8.9A3.574,3.574,0,0,1,1309.113,353.651Z" transform="translate(-1146.061 -185.301)" fill="#d29e8b"/>
      <path id="Path_15667" data-name="Path 15667" d="M1294.382,278l-18.455,12.431s-10.407-15.519-15.969-21.044c-6.991-6.906,2.554-28.114,7.028-26.893C1277.106,245.138,1294.382,278,1294.382,278Z" transform="translate(-1142.998 -180.138)" fill="#786ce6"/>
      <path id="Path_15668" data-name="Path 15668" d="M1242.877,213.781l2.758,18.241s-10.073,21.69-16.09,19.825c-5.04-1.587-1.957-20.8-1.957-20.8s2.766-10.319,1.912-15.479C1228.729,210.409,1242.877,213.781,1242.877,213.781Z" transform="translate(-1135.47 -172.872)" fill="#d29e8b"/>
      <path id="Path_15669" data-name="Path 15669" d="M1243.372,178.158c.407-.162,3.211,20.759-2.109,26.527s-15.735,7.638-19.43,3.087c-4.111-5-3.906-27.5,4.392-33.393C1234.47,168.446,1243.372,178.158,1243.372,178.158Z" transform="translate(-1133.654 -163.043)" fill="#d29e8b"/>
      <path id="Path_15670" data-name="Path 15670" d="M1230.3,160.12a22.812,22.812,0,0,1,12.069,6.907c2.925.325,6.87,1.95,10.935,8.734,5.042,8.328,1.3,17.591-4.55,22.1-5.857,4.55-5.773,9.749-5.773,9.749l-.937-2.721a14.839,14.839,0,0,1-.733-6.378,11.931,11.931,0,0,1,.937-3.819c1.421-3.047-3.007-5.038-4.27-7.557-.975-1.95-1.012-6.378-2.516-9.587l-1.791-2.434s-4.15-3.25-8.207-2.316C1221.475,173.729,1222.08,158.454,1230.3,160.12Z" transform="translate(-1134.596 -159.993)" fill="#184655"/>
      <path id="Path_15671" data-name="Path 15671" d="M1243.28,199.423c-.045,2.56,1.1,4.631,2.6,4.672,1.459.041,2.683-2.032,2.721-4.59s-1.1-4.631-2.6-4.672C1244.534,194.792,1243.317,196.864,1243.28,199.423Z" transform="translate(-1139.533 -168.508)" fill="#d29e8b"/>
      <path id="Path_15672" data-name="Path 15672" d="M1229.219,208.569l-8.049-.407a3.551,3.551,0,0,0,3.574,3.372C1229.015,211.861,1229.219,208.569,1229.219,208.569Z" transform="translate(-1134.129 -171.763)" fill="#fff"/>
      <circle id="Ellipse_506" data-name="Ellipse 506" cx="18.138" cy="18.138" r="18.138" transform="translate(0 23.428)" fill="#fff"/>
      <circle id="Ellipse_507" data-name="Ellipse 507" cx="17.76" cy="17.76" r="17.76" transform="translate(0.379 23.806)" fill="none" stroke="rgba(41,45,52,0.1)" stroke-width="1"/>
      <path id="Path_15673" data-name="Path 15673" d="M1131.336,204.756a.755.755,0,1,0-1.511,0v.756h-4.536v-.756a.756.756,0,1,0-1.511,0v.756h-1.512a2.268,2.268,0,0,0-2.267,2.267v10.58a2.268,2.268,0,0,0,2.267,2.267h10.581a2.268,2.268,0,0,0,2.268-2.267v-10.58a2.268,2.268,0,0,0-2.268-2.267h-1.511Zm2.267,5.29v-2.267a.756.756,0,0,0-.756-.756h-1.511v.756a.755.755,0,1,1-1.511,0v-.756h-4.536v.756a.756.756,0,1,1-1.511,0v-.756h-1.512a.755.755,0,0,0-.755.756v2.267Zm-12.092,1.511H1133.6v6.8a.756.756,0,0,1-.756.756h-10.581a.755.755,0,0,1-.755-.756Z" transform="translate(-1109.42 -170.747)" fill="#786ce6" fill-rule="evenodd"/>
      <circle id="Ellipse_508" data-name="Ellipse 508" cx="18.138" cy="18.138" r="18.138" transform="translate(324.214 9.069)" fill="#fff"/>
      <circle id="Ellipse_509" data-name="Ellipse 509" cx="17.76" cy="17.76" r="17.76" transform="translate(324.593 9.447)" fill="none" stroke="rgba(41,45,52,0.1)" stroke-width="1"/>
      <path id="Path_15674" data-name="Path 15674" d="M1563.6,193.424a6.294,6.294,0,0,1-.679,2.872,6.419,6.419,0,0,1-5.743,3.552,6.342,6.342,0,0,1-2.872-.68L1550,200.6l1.435-4.308a6.324,6.324,0,0,1-.68-2.872,6.427,6.427,0,0,1,3.552-5.744,6.343,6.343,0,0,1,2.872-.68h.377a6.406,6.406,0,0,1,6.046,6.046Z" transform="translate(-1214.45 -166.595)" fill="none" stroke="#786ce6" stroke-linecap="round" stroke-linejoin="round" stroke-width="2"/>
      <circle id="Ellipse_510" data-name="Ellipse 510" cx="18.138" cy="18.138" r="18.138" transform="translate(160.975 2.267)" fill="#fff"/>
      <circle id="Ellipse_511" data-name="Ellipse 511" cx="17.76" cy="17.76" r="17.76" transform="translate(161.35 2.645)" fill="none" stroke="rgba(41,45,52,0.1)" stroke-width="1"/>
      <path id="Path_15675" data-name="Path 15675" d="M1336.28,178.284a6.046,6.046,0,0,1,10.323,4.275c0,2.343-1.527,4.61-3.2,6.376a21.78,21.78,0,0,1-2.26,2.066c-.227.183-.431.335-.59.453-.158-.119-.363-.272-.59-.453a21.68,21.68,0,0,1-2.26-2.066c-1.669-1.766-3.2-4.033-3.2-6.376a6.048,6.048,0,0,1,1.768-4.275Zm3.855,14.729a7,7,0,0,0,.423-.629l-.416.629a.744.744,0,0,0,.832,0l-.416-.629a7,7,0,0,0,.423.629h0v0L1341,193c.015-.01.03-.024.061-.043l.227-.162c.2-.14.469-.345.8-.6a24.112,24.112,0,0,0,2.419-2.208c1.729-1.827,3.6-4.467,3.6-7.416a7.557,7.557,0,1,0-15.115,0c0,2.947,1.875,5.592,3.6,7.416a24.037,24.037,0,0,0,2.419,2.208c.332.262.6.467.8.6l.226.162c.03.019.046.033.06.043l.024.011v0Zm-1.089-10.453a1.511,1.511,0,1,1,1.511,1.511A1.511,1.511,0,0,1,1339.046,182.559Zm1.511-3.023a3.023,3.023,0,1,0,3.023,3.023A3.023,3.023,0,0,0,1340.558,179.536Z" transform="translate(-1161.448 -163.665)" fill="#786ce6" fill-rule="evenodd"/>
    </g>
  </g>
</svg>
