<svg xmlns="http://www.w3.org/2000/svg" xmlns:xlink="http://www.w3.org/1999/xlink" width="492.557" height="193.248" viewBox="0 0 492.557 193.248">
  <defs>
    <linearGradient id="linear-gradient" x1="0.5" y1="0.097" x2="0.5" y2="1.26" gradientUnits="objectBoundingBox">
      <stop offset="0" stop-color="#f0f7ff"/>
      <stop offset="1" stop-color="#c4e6ff"/>
    </linearGradient>
    <filter id="Path_24" x="82.41" y="41.126" width="67.82" height="31.226" filterUnits="userSpaceOnUse">
      <feOffset input="SourceAlpha"/>
      <feGaussianBlur stdDeviation="2.5" result="blur"/>
      <feFlood flood-color="#786ce6" flood-opacity="0.459"/>
      <feComposite operator="in" in2="blur"/>
      <feComposite in="SourceGraphic"/>
    </filter>
  </defs>
  <g id="Group_5884" data-name="Group 5884" transform="translate(1482 4418)">
    <g id="Group_5883" data-name="Group 5883" transform="translate(-1521.08 -4668.861)">
      <path id="Path_16552" data-name="Path 16552" d="M85.111,465.573a2.774,2.774,0,0,1,.36-3.775,5.989,5.989,0,0,1,3.918-1.342,23.624,23.624,0,0,1,6.557.8q-2.523-1.935-4.9-4.039-1.573-1.387-3.088-2.843a16.082,16.082,0,0,1-8.388,4.2,3.8,3.8,0,0,1-3.4-.667,2.785,2.785,0,0,1,.362-3.775,5.953,5.953,0,0,1,3.9-1.346,23.993,23.993,0,0,1,6.768.85,82.184,82.184,0,0,1-8.5-9.738,16.082,16.082,0,0,1-8.831,2.74,3.8,3.8,0,0,1-3.25-1.2,2.785,2.785,0,0,1,.956-3.67,5.949,5.949,0,0,1,4.063-.711,23.389,23.389,0,0,1,6.323,1.82,36.855,36.855,0,0,1-6.146-12.2c-.023-.092-.042-.185-.064-.277a16.08,16.08,0,0,1-9.226,1.5,3.8,3.8,0,0,1-3.046-1.648,2.786,2.786,0,0,1,1.47-3.5,5.946,5.946,0,0,1,4.122-.123,24.893,24.893,0,0,1,6.5,3c-1.133-5.144-1.322-10.52-2.631-15.617a16.076,16.076,0,0,1-9.372,1.57,3.8,3.8,0,0,1-3.046-1.649,2.785,2.785,0,0,1,1.47-3.5,5.949,5.949,0,0,1,4.122-.124,25.45,25.45,0,0,1,6.672,3.1,27.837,27.837,0,0,0-1.306-3.74,21.377,21.377,0,0,0-4.613-6.611,16.073,16.073,0,0,1-8.815,4.081,3.8,3.8,0,0,1-3.368-.809,2.786,2.786,0,0,1,.52-3.756,5.951,5.951,0,0,1,3.951-1.181,25.737,25.737,0,0,1,7.344,1.308,27.949,27.949,0,0,0-11.344-6.44,16.089,16.089,0,0,1-8.331,2.958,3.8,3.8,0,0,1-3.31-1.021,2.785,2.785,0,0,1,.758-3.716,5.948,5.948,0,0,1,4.019-.927,23.166,23.166,0,0,1,6.314,1.444.568.568,0,0,1,.264.009,29.128,29.128,0,0,1,9.8,4.768q.972.718,1.895,1.511a16.086,16.086,0,0,1-1.729-8.431,3.8,3.8,0,0,1,1.446-3.147,2.785,2.785,0,0,1,3.584,1.238,5.952,5.952,0,0,1,.393,4.106,26.127,26.127,0,0,1-2.768,7.068,21.506,21.506,0,0,1,3.3,3.862,24.368,24.368,0,0,1,3.022,6.9,16.083,16.083,0,0,1,2.308-8.564,3.8,3.8,0,0,1,2.723-2.141,2.786,2.786,0,0,1,2.624,2.738,5.951,5.951,0,0,1-1.524,3.832,26.8,26.8,0,0,1-5.862,5.151c1,4.025,1.359,8.262,2.008,12.313.2,1.275.443,2.535.748,3.776a16.073,16.073,0,0,1,2.262-9.337,3.8,3.8,0,0,1,2.72-2.144,2.785,2.785,0,0,1,2.628,2.734,5.949,5.949,0,0,1-1.519,3.834,27.406,27.406,0,0,1-6,5.266,25.474,25.474,0,0,0,1.317,3.879,43.337,43.337,0,0,0,3.688,6.61q.558.838,1.145,1.657a16.087,16.087,0,0,1,.985-8.683,3.8,3.8,0,0,1,2.361-2.534,2.786,2.786,0,0,1,3.014,2.3,5.951,5.951,0,0,1-.916,4.021,25.911,25.911,0,0,1-4.793,5.791,79.7,79.7,0,0,0,8.337,9.495,16.085,16.085,0,0,1-1.118-9.04,3.8,3.8,0,0,1,1.741-2.994,2.785,2.785,0,0,1,3.449,1.575,5.95,5.95,0,0,1,0,4.124,26.55,26.55,0,0,1-3.5,6.886q.6.582,1.213,1.154a91.361,91.361,0,0,0,7.019,5.941,16.085,16.085,0,0,1-1.022-8.82,3.8,3.8,0,0,1,1.74-2.995,2.786,2.786,0,0,1,3.45,1.575,5.95,5.95,0,0,1,0,4.124,25.891,25.891,0,0,1-3.385,6.7,71.244,71.244,0,0,0,8.834,5.635c.641.344.065,1.315-.576.972a71.64,71.64,0,0,1-8.915-5.7,16.158,16.158,0,0,1-8.448,4.21A3.841,3.841,0,0,1,85.111,465.573Z" transform="translate(0 -84.281)" fill="#8bc984"/>
      <path id="Path_16553" data-name="Path 16553" d="M396.287,431.54a2.774,2.774,0,0,1,3.717-.753,5.988,5.988,0,0,1,2.422,3.359,23.608,23.608,0,0,1,1.141,6.506q1.119-2.976,2.44-5.865.869-1.908,1.823-3.781a16.08,16.08,0,0,1-6.456-6.8,3.8,3.8,0,0,1-.35-3.446,2.786,2.786,0,0,1,3.717-.751,5.951,5.951,0,0,1,2.42,3.339,23.993,23.993,0,0,1,1.154,6.722,82.154,82.154,0,0,1,6.847-10.964,16.081,16.081,0,0,1-5.188-7.654,3.8,3.8,0,0,1,.2-3.458,2.785,2.785,0,0,1,3.789-.151,5.948,5.948,0,0,1,1.861,3.681,23.4,23.4,0,0,1,.1,6.579,36.861,36.861,0,0,1,9.887-9.426c.082-.049.165-.094.247-.142a16.078,16.078,0,0,1-4.112-8.394,3.8,3.8,0,0,1,.692-3.393,2.785,2.785,0,0,1,3.772.391,5.95,5.95,0,0,1,1.316,3.908,24.871,24.871,0,0,1-.983,7.095c4.593-2.579,9.682-4.322,14.179-7.055a16.071,16.071,0,0,1-4.226-8.511,3.8,3.8,0,0,1,.692-3.393,2.785,2.785,0,0,1,3.772.391,5.95,5.95,0,0,1,1.316,3.908,25.434,25.434,0,0,1-1.031,7.286,27.9,27.9,0,0,0,3.2-2.337,21.391,21.391,0,0,0,4.985-6.335,16.069,16.069,0,0,1-6.467-7.249,3.8,3.8,0,0,1-.2-3.458,2.786,2.786,0,0,1,3.745-.594,5.954,5.954,0,0,1,2.279,3.438,25.729,25.729,0,0,1,.882,7.407,27.948,27.948,0,0,0,2.866-12.726,16.091,16.091,0,0,1-5.251-7.112,3.8,3.8,0,0,1,.016-3.463,2.785,2.785,0,0,1,3.775-.354,5.948,5.948,0,0,1,2.055,3.576,23.15,23.15,0,0,1,.453,6.461.565.565,0,0,1,.069.255,29.133,29.133,0,0,1-1.715,10.758q-.4,1.138-.895,2.252a16.09,16.09,0,0,1,7.564-4.1,3.8,3.8,0,0,1,3.432.469,2.785,2.785,0,0,1-.143,3.789,5.952,5.952,0,0,1-3.815,1.569,26.127,26.127,0,0,1-7.567-.594,21.526,21.526,0,0,1-2.736,4.278,24.38,24.38,0,0,1-5.726,4.9,16.086,16.086,0,0,1,8.866-.281,3.8,3.8,0,0,1,2.839,1.983,2.786,2.786,0,0,1-1.857,3.307,5.954,5.954,0,0,1-4.11-.345,26.8,26.8,0,0,1-6.631-4.112c-3.562,2.124-7.511,3.7-11.2,5.5-1.161.566-2.3,1.161-3.4,1.813a16.073,16.073,0,0,1,9.591-.549,3.8,3.8,0,0,1,2.842,1.98,2.786,2.786,0,0,1-1.853,3.309,5.95,5.95,0,0,1-4.11-.339,27.382,27.382,0,0,1-6.783-4.215,25.436,25.436,0,0,0-3.329,2.387,43.309,43.309,0,0,0-5.253,5.449q-.64.778-1.253,1.576a16.091,16.091,0,0,1,8.595-1.581,3.8,3.8,0,0,1,3.111,1.523,2.786,2.786,0,0,1-1.326,3.553,5.948,5.948,0,0,1-4.114.292,25.907,25.907,0,0,1-6.934-2.9,79.716,79.716,0,0,0-6.662,10.736,16.082,16.082,0,0,1,8.325-3.7,3.8,3.8,0,0,1,3.371.795,2.786,2.786,0,0,1-.5,3.758,5.949,5.949,0,0,1-3.947,1.2,26.548,26.548,0,0,1-7.607-1.351q-.381.746-.751,1.5a91.455,91.455,0,0,0-3.646,8.443,16.085,16.085,0,0,1,8.142-3.541,3.8,3.8,0,0,1,3.371.795,2.786,2.786,0,0,1-.5,3.758,5.951,5.951,0,0,1-3.947,1.2,25.9,25.9,0,0,1-7.4-1.291,71.258,71.258,0,0,0-2.824,10.091c-.142.714-1.24.444-1.1-.268a71.675,71.675,0,0,1,2.862-10.187,16.16,16.16,0,0,1-6.483-6.859A3.839,3.839,0,0,1,396.287,431.54Z" transform="translate(-217.064 -70.884)" fill="#8bc984" opacity="0.6"/>
      <path id="Path_16554" data-name="Path 16554" d="M719.6,549.73a2.774,2.774,0,0,1,2.133-3.135,5.988,5.988,0,0,1,4.08.71,23.619,23.619,0,0,1,5.362,3.857q-1.279-2.911-2.352-5.9-.712-1.973-1.337-3.979a16.081,16.081,0,0,1-9.374-.357,3.8,3.8,0,0,1-2.658-2.221,2.785,2.785,0,0,1,2.135-3.134,5.949,5.949,0,0,1,4.065.7,23.992,23.992,0,0,1,5.523,4,82.234,82.234,0,0,1-2.763-12.628,16.077,16.077,0,0,1-9.059-1.851,3.8,3.8,0,0,1-2.272-2.614,2.785,2.785,0,0,1,2.6-2.756,5.952,5.952,0,0,1,3.9,1.333,23.393,23.393,0,0,1,4.666,4.64,36.856,36.856,0,0,1,.488-13.652c.024-.092.053-.183.077-.274a16.08,16.08,0,0,1-8.807-3.132,3.8,3.8,0,0,1-1.876-2.911,2.785,2.785,0,0,1,2.972-2.356,5.948,5.948,0,0,1,3.672,1.877,24.879,24.879,0,0,1,4.254,5.763c1.484-5.055,3.907-9.857,5.214-14.954a16.071,16.071,0,0,1-8.969-3.137,3.8,3.8,0,0,1-1.876-2.911,2.785,2.785,0,0,1,2.972-2.356,5.947,5.947,0,0,1,3.672,1.876,25.437,25.437,0,0,1,4.353,5.933,27.847,27.847,0,0,0,.656-3.907,21.374,21.374,0,0,0-.859-8.015,16.071,16.071,0,0,1-9.691-.668,3.8,3.8,0,0,1-2.562-2.33,2.786,2.786,0,0,1,2.264-3.042,5.953,5.953,0,0,1,4.032.868,25.736,25.736,0,0,1,5.806,4.683,27.95,27.95,0,0,0-6.841-11.107,16.088,16.088,0,0,1-8.726-1.419,3.8,3.8,0,0,1-2.409-2.489,2.786,2.786,0,0,1,2.454-2.892,5.952,5.952,0,0,1,3.969,1.123,23.17,23.17,0,0,1,4.838,4.306.564.564,0,0,1,.227.134,29.136,29.136,0,0,1,6.29,8.9q.505,1.1.933,2.237a16.087,16.087,0,0,1,2.544-8.222,3.8,3.8,0,0,1,2.783-2.062,2.785,2.785,0,0,1,2.545,2.811,5.949,5.949,0,0,1-1.632,3.788,26.121,26.121,0,0,1-5.829,4.862,21.556,21.556,0,0,1,1.032,4.973,24.372,24.372,0,0,1-.675,7.5,16.085,16.085,0,0,1,6.146-6.4,3.8,3.8,0,0,1,3.417-.565,2.786,2.786,0,0,1,.982,3.663,5.951,5.951,0,0,1-3.181,2.625,26.794,26.794,0,0,1-7.618,1.691c-1.064,4.008-2.787,7.9-4.17,11.759-.435,1.216-.832,2.435-1.162,3.67a16.072,16.072,0,0,1,6.478-7.094,3.8,3.8,0,0,1,3.416-.569,2.785,2.785,0,0,1,.987,3.661,5.95,5.95,0,0,1-3.178,2.629,27.388,27.388,0,0,1-7.8,1.724,25.419,25.419,0,0,0-.714,4.034,43.327,43.327,0,0,0,.049,7.569c.057.669.127,1.337.205,2a16.087,16.087,0,0,1,5.044-7.136,3.8,3.8,0,0,1,3.289-1.084,2.785,2.785,0,0,1,1.534,3.468,5.949,5.949,0,0,1-2.739,3.083,25.9,25.9,0,0,1-6.99,2.767,79.711,79.711,0,0,0,2.735,12.337,16.084,16.084,0,0,1,3.373-8.461,3.8,3.8,0,0,1,2.967-1.786,2.786,2.786,0,0,1,2.265,3.041,5.95,5.95,0,0,1-1.987,3.614,26.563,26.563,0,0,1-6.387,4.348q.248.8.508,1.6a91.4,91.4,0,0,0,3.29,8.587,16.087,16.087,0,0,1,3.351-8.222,3.8,3.8,0,0,1,2.967-1.787A2.786,2.786,0,0,1,740.9,544a5.951,5.951,0,0,1-1.987,3.614,25.889,25.889,0,0,1-6.194,4.244,71.325,71.325,0,0,0,5.029,9.193c.4.61-.576,1.184-.973.575a71.677,71.677,0,0,1-5.07-9.287,16.16,16.16,0,0,1-9.431-.378A3.839,3.839,0,0,1,719.6,549.73Z" transform="translate(-409.273 -130.717)" fill="#8bc984" opacity="0.6"/>
      <path id="Path_16555" data-name="Path 16555" d="M1115.138,582.371a2.775,2.775,0,0,1,3.775-.363,5.99,5.99,0,0,1,2.061,3.592,23.623,23.623,0,0,1,.46,6.589q1.422-2.844,3.035-5.58,1.063-1.809,2.206-3.571a16.082,16.082,0,0,1-5.716-7.438,3.8,3.8,0,0,1,.01-3.463,2.785,2.785,0,0,1,3.775-.361,5.952,5.952,0,0,1,2.061,3.572,23.985,23.985,0,0,1,.45,6.806,82.209,82.209,0,0,1,7.948-10.2,16.079,16.079,0,0,1-4.366-8.151,3.8,3.8,0,0,1,.558-3.418,2.785,2.785,0,0,1,3.784.242,5.952,5.952,0,0,1,1.469,3.854,23.4,23.4,0,0,1-.587,6.554,36.853,36.853,0,0,1,10.812-8.349c.086-.04.174-.076.26-.116a16.08,16.08,0,0,1-3.22-8.775,3.8,3.8,0,0,1,1.041-3.3,2.785,2.785,0,0,1,3.711.78,5.95,5.95,0,0,1,.9,4.024,24.894,24.894,0,0,1-1.714,6.954c4.836-2.089,10.078-3.295,14.834-5.546a16.075,16.075,0,0,1-3.32-8.9,3.8,3.8,0,0,1,1.041-3.3,2.785,2.785,0,0,1,3.711.78,5.948,5.948,0,0,1,.9,4.024,25.431,25.431,0,0,1-1.781,7.14,27.788,27.788,0,0,0,3.424-1.992,21.381,21.381,0,0,0,5.616-5.783,16.069,16.069,0,0,1-5.679-7.881,3.8,3.8,0,0,1,.155-3.46,2.786,2.786,0,0,1,3.787-.2,5.95,5.95,0,0,1,1.909,3.655,25.716,25.716,0,0,1,.109,7.459,27.951,27.951,0,0,0,4.171-12.359,16.088,16.088,0,0,1-4.485-7.619,3.8,3.8,0,0,1,.375-3.443,2.785,2.785,0,0,1,3.792.039,5.947,5.947,0,0,1,1.673,3.77,23.148,23.148,0,0,1-.22,6.473.569.569,0,0,1,.042.261,29.134,29.134,0,0,1-2.823,10.522q-.52,1.09-1.124,2.147a16.09,16.09,0,0,1,7.949-3.3,3.8,3.8,0,0,1,3.364.822,2.785,2.785,0,0,1-.535,3.754,5.95,5.95,0,0,1-3.956,1.165,26.125,26.125,0,0,1-7.465-1.375,21.562,21.562,0,0,1-3.165,3.971,24.369,24.369,0,0,1-6.2,4.277,16.082,16.082,0,0,1,8.847.641,3.8,3.8,0,0,1,2.618,2.267,2.786,2.786,0,0,1-2.19,3.1,5.949,5.949,0,0,1-4.052-.77,26.789,26.789,0,0,1-6.169-4.778c-3.763,1.743-7.854,2.9-11.709,4.308-1.213.443-2.405.916-3.565,1.451a16.075,16.075,0,0,1,9.6.449,3.8,3.8,0,0,1,2.621,2.264,2.786,2.786,0,0,1-2.186,3.1,5.948,5.948,0,0,1-4.053-.764,27.4,27.4,0,0,1-6.309-4.9,25.457,25.457,0,0,0-3.559,2.029,43.367,43.367,0,0,0-5.79,4.875q-.717.707-1.409,1.438a16.088,16.088,0,0,1,8.712-.681,3.8,3.8,0,0,1,2.936,1.837,2.785,2.785,0,0,1-1.687,3.4,5.95,5.95,0,0,1-4.122-.137,25.9,25.9,0,0,1-6.6-3.607,79.674,79.674,0,0,0-7.74,9.987,16.083,16.083,0,0,1,8.663-2.812,3.8,3.8,0,0,1,3.271,1.14,2.786,2.786,0,0,1-.892,3.686,5.949,5.949,0,0,1-4.05.781,26.56,26.56,0,0,1-7.425-2.133q-.457.7-.9,1.41a91.465,91.465,0,0,0-4.5,8.019,16.086,16.086,0,0,1,8.466-2.677,3.8,3.8,0,0,1,3.27,1.14,2.785,2.785,0,0,1-.892,3.686,5.949,5.949,0,0,1-4.05.781,25.889,25.889,0,0,1-7.223-2.052,71.309,71.309,0,0,0-3.856,9.743c-.216.7-1.279.313-1.064-.38a71.693,71.693,0,0,1,3.9-9.835,16.158,16.158,0,0,1-5.736-7.5A3.838,3.838,0,0,1,1115.138,582.371Z" transform="translate(-654.159 -166.17)" fill="#8bc984" opacity="0.6"/>
      <g id="Group_5720" data-name="Group 5720" transform="translate(72.191 285.453)">
        <g id="Group_5715" data-name="Group 5715" transform="translate(1.829 0)" opacity="0.6">
          <g id="Group_5714" data-name="Group 5714">
            <path id="Path_16556" data-name="Path 16556" d="M162.63,378.742c2.413,8.284,13.275,12.588,16.2,20.953,1.491,4.878-1.242,8.8-2.9,12.785-2.352,7.431-4.554,15.905-3,24.676.973,4.037,3.275,8.069,3.563,12.042a45.9,45.9,0,0,1-11.343-4.65c-.061-.1-.121-.209-.179-.313-2.253-4.1-3.47-8.864-2.235-13.48,1.124-4.2,3.965-8.113,3.611-12.623-.194-2.467-1.417-4.679-2.558-6.819a18.044,18.044,0,0,1-2.4-6.932c-.372-4.21.852-8.813-1.057-12.782-1.168-2.42-3.4-3.98-5.347-5.73a12.035,12.035,0,0,1-2.77-3.363,12.439,12.439,0,0,1-1.137-3.565c-.429-2.434-.413-4.919-.8-7.358a18.611,18.611,0,0,0-2.645-6.918c-2.887-4.638-7.212-8.076-11.079-11.844-3.5-3.41-6.956-7.4-8.187-12.249-.042-.165-.081-.331-.116-.5a4.906,4.906,0,0,1,2.271-.931c7.912-.241,11.468,11.54,17.566,15.967,7.454,4.388,14.243,4.914,13.976,15.337C162.06,373.184,161.768,375.926,162.63,378.742Z" transform="translate(-128.25 -339.144)" fill="#8bc984"/>
          </g>
        </g>
        <g id="Group_5717" data-name="Group 5717" transform="translate(0 0.935)">
          <g id="Group_5716" data-name="Group 5716">
            <path id="Path_16557" data-name="Path 16557" d="M133.714,354.275c3.867,3.768,8.192,7.206,11.079,11.844a18.61,18.61,0,0,1,2.645,6.917c.389,2.438.373,4.924.8,7.358a12.44,12.44,0,0,0,1.137,3.565,12.035,12.035,0,0,0,2.77,3.363c1.942,1.75,4.179,3.31,5.347,5.73,1.909,3.969.685,8.571,1.057,12.782a18.043,18.043,0,0,0,2.4,6.932c1.141,2.14,2.364,4.352,2.558,6.819.354,4.509-2.487,8.419-3.611,12.623-1.235,4.616-.019,9.384,2.235,13.48.058.1.118.211.179.313-.2-.109-.389-.221-.582-.337-8.812-5.187-16.338-13.444-13.055-22.754,2.642-4.116,5.223-7.251-.226-12.477-8.024-9.615-19.592-16.814-14.627-28.841,1.837-5.5,7.072-12.861,2.314-19.594-2.251-2.406-5.361-3.548-7.667-5.884-4.381-3.85-6.559-11.344-3.353-14.329a2.529,2.529,0,0,1,.3-.254c.034.166.074.332.116.5C126.759,346.871,130.217,350.865,133.714,354.275Z" transform="translate(-123.582 -341.529)" fill="#8bc984"/>
          </g>
        </g>
        <g id="Group_5719" data-name="Group 5719" transform="translate(1.53 0.935)">
          <g id="Group_5718" data-name="Group 5718">
            <path id="Path_16558" data-name="Path 16558" d="M136.088,354.275c3.867,3.768,8.192,7.206,11.079,11.844a18.61,18.61,0,0,1,2.645,6.917c.389,2.438.373,4.924.8,7.358a12.44,12.44,0,0,0,1.137,3.565,12.035,12.035,0,0,0,2.77,3.363c1.942,1.75,4.179,3.31,5.347,5.73,1.909,3.969.685,8.571,1.057,12.782a18.044,18.044,0,0,0,2.4,6.932c1.141,2.14,2.364,4.352,2.558,6.819.354,4.509-2.487,8.419-3.611,12.623-1.235,4.616-.019,9.384,2.235,13.48.058.1.118.211.179.313-.2-.109-.389-.221-.582-.337a25.534,25.534,0,0,1-1.409-3.079,18.722,18.722,0,0,1-1.26-6.2,17.377,17.377,0,0,1,1.25-6.515c.812-2.144,1.848-4.213,2.444-6.433a10.958,10.958,0,0,0-.536-7.4c-1.013-2.367-2.5-4.51-3.342-6.959a18.382,18.382,0,0,1-.728-6.392,36.294,36.294,0,0,0-.126-6.769,10.893,10.893,0,0,0-3.97-6.514c-1.971-1.732-4.1-3.335-5.211-5.792a20.818,20.818,0,0,1-1.353-6.945,24.122,24.122,0,0,0-1.5-7.542,25.134,25.134,0,0,0-4.6-6.914c-5.566-6.217-14.405-11.851-16.278-20.432a2.529,2.529,0,0,1,.3-.254c.034.166.074.332.116.5C129.133,346.871,132.591,350.865,136.088,354.275Z" transform="translate(-127.486 -341.529)" fill="#fff"/>
          </g>
        </g>
      </g>
      <g id="Group_5727" data-name="Group 5727" transform="translate(46.002 366.834)">
        <g id="Group_5722" data-name="Group 5722" transform="translate(0)">
          <g id="Group_5721" data-name="Group 5721">
            <path id="Path_16559" data-name="Path 16559" d="M128.015,580.913l-.376,16.848c-1.5-1.241-3.144-2.339-4.726-3.455a32.768,32.768,0,0,1-4.447-3.6,17.643,17.643,0,0,1-3.25-4.7,27.186,27.186,0,0,0-2.762-4.9,12.924,12.924,0,0,0-3.341-2.9c-2.6-1.636-5.537-2.632-8.178-4.191a13.86,13.86,0,0,1-3.58-2.892,20.354,20.354,0,0,1-2.835-4.795,43.032,43.032,0,0,0-2.5-4.969,16.519,16.519,0,0,0-3.076-3.592,21.528,21.528,0,0,0-8.322-4.414c-7.431-2.141-15.236-.652-22.568,1.168-.433.108-.866.217-1.3.329-.312-4.4,6.23-7.456,10.261-7.958,2.757-.342,5.49.761,8.264.842,14.06.422,23.486-3.812,29.09,12.719.626,1.851,1.143,3.817,2.425,5.291C112.651,571.568,128.466,568.793,128.015,580.913Z" transform="translate(-56.746 -546.833)" fill="#8bc984" opacity="0.6"/>
          </g>
        </g>
        <g id="Group_5724" data-name="Group 5724" transform="translate(0.051 5.795)">
          <g id="Group_5723" data-name="Group 5723">
            <path id="Path_16560" data-name="Path 16560" d="M115.143,623.5c-11.634,3.447-22.6-7.136-14.444-19.445,5.531-6.261-.848-10.761-6.691-12.609-2.9-.921-6.489-1.29-7.894-3.99-2.359-6.089,5.843-13.221-6.691-17.023-7.072-2.149-20.81,3.355-22.528-6.1-.007-.044-.016-.092-.02-.137,6.965-1.775,14.25-3.442,21.416-2.066a23.156,23.156,0,0,1,8.859,3.6,17.376,17.376,0,0,1,3.472,3.167,20.818,20.818,0,0,1,2.694,4.459c.787,1.672,1.493,3.39,2.44,4.983A13.159,13.159,0,0,0,98.906,582c2.32,1.83,5.116,2.89,7.742,4.191a21.065,21.065,0,0,1,3.822,2.332,12.643,12.643,0,0,1,3.159,3.911c.889,1.643,1.584,3.388,2.6,4.96a17.764,17.764,0,0,0,3.642,3.974c2.5,2.087,5.348,3.72,7.835,5.82A16.813,16.813,0,0,1,115.143,623.5Z" transform="translate(-56.876 -561.621)" fill="#8bc984"/>
          </g>
        </g>
        <g id="Group_5726" data-name="Group 5726" transform="translate(0.011 5.471)">
          <g id="Group_5725" data-name="Group 5725">
            <path id="Path_16561" data-name="Path 16561" d="M127.656,606.253l-.011.435c-2.487-2.1-5.338-3.733-7.835-5.82a17.763,17.763,0,0,1-3.642-3.974c-1.016-1.572-1.711-3.317-2.6-4.96a12.643,12.643,0,0,0-3.159-3.911,21.068,21.068,0,0,0-3.822-2.332c-2.626-1.3-5.422-2.36-7.742-4.191a13.159,13.159,0,0,1-3.15-3.662c-.947-1.593-1.653-3.31-2.44-4.983A20.816,20.816,0,0,0,90.56,568.4a17.377,17.377,0,0,0-3.472-3.167,23.156,23.156,0,0,0-8.859-3.6c-7.166-1.376-14.451.291-21.416,2.066-.018-.116-.033-.229-.04-.344.436-.112.869-.221,1.3-.329,7.332-1.82,15.137-3.309,22.568-1.168a21.527,21.527,0,0,1,8.322,4.414,16.519,16.519,0,0,1,3.076,3.592,43.03,43.03,0,0,1,2.5,4.969,20.356,20.356,0,0,0,2.835,4.795,13.86,13.86,0,0,0,3.58,2.892c2.641,1.559,5.577,2.555,8.178,4.191a12.924,12.924,0,0,1,3.341,2.9,27.187,27.187,0,0,1,2.762,4.9,17.642,17.642,0,0,0,3.25,4.7,32.773,32.773,0,0,0,4.447,3.6C124.511,603.914,126.152,605.011,127.656,606.253Z" transform="translate(-56.773 -560.796)" fill="#fff"/>
          </g>
        </g>
      </g>
      <g id="Group_5733" data-name="Group 5733" transform="translate(112.589 271.846)">
        <path id="Path_16562" data-name="Path 16562" d="M234.977,476.932l-5.425-2.609a5.068,5.068,0,0,1-2.872-4.567V311.781a5.088,5.088,0,0,1,2.882-4.584l4.916-2.366Z" transform="translate(-226.68 -304.669)" fill="#2f3d69"/>
        <path id="Path_16563" data-name="Path 16563" d="M312.723,331.185V460.568c0,3.085-1.824,5.966-4.1,6.438l-58.647,12.122-2.365.49c-3.192.658-5.813-1.82-5.813-5.546V317.916c0-3.725,2.621-6.211,5.813-5.564l38.022,7.735,22.99,4.675a4.759,4.759,0,0,1,2.921,2.255A7.937,7.937,0,0,1,312.723,331.185Z" transform="translate(-235.876 -309.18)" fill="url(#linear-gradient)"/>
        <path id="Path_16564" data-name="Path 16564" d="M311.546,339.183,241.8,408.928V376.086l43.834-43.834,22.99,4.675A4.759,4.759,0,0,1,311.546,339.183Z" transform="translate(-235.876 -321.345)" fill="#6d6e71" style="mix-blend-mode: screen;isolation: isolate"/>
        <path id="Path_16565" data-name="Path 16565" d="M312.723,517.458v23.725l-62.745,62.745-2.365.49c-3.192.658-5.813-1.821-5.813-5.546V588.38Z" transform="translate(-235.876 -433.98)" fill="#6d6e71" style="mix-blend-mode: screen;isolation: isolate"/>
        <path id="Path_16566" data-name="Path 16566" d="M312.723,366.639v13.624L241.8,451.186V437.562Z" transform="translate(-235.876 -342.258)" fill="#6d6e71" style="mix-blend-mode: screen;isolation: isolate"/>
        <g id="Group_5728" data-name="Group 5728" transform="translate(4.793)">
          <path id="Path_16567" data-name="Path 16567" d="M308.007,317.946l-63.964-13.435c-2.819-.592-5.131,1.643-5.131,5V471.578c0,3.36,2.312,5.6,5.131,5.007l63.964-13.435c1.983-.417,3.571-3,3.571-5.769V323.712C311.579,320.94,309.99,318.363,308.007,317.946Zm2.67,133.422c0,2.538-1.62,4.9-3.639,5.289L245.482,468.4c-2.836.541-5.164-1.494-5.164-4.553V313.893c0-3.06,2.329-5.078,5.167-4.514l26.8,5.33a.833.833,0,0,1,.6.793c.131,3.628,2.762,7.037,5.883,7.6,3.073.553,5.578-1.836,5.7-5.315.013-.36.256-.6.561-.542l22,4.376c2.02.4,3.641,2.783,3.641,5.322Z" transform="translate(-238.912 -304.416)"/>
        </g>
        <g id="Group_5732" data-name="Group 5732" transform="translate(41.335 8.744)">
          <g id="Group_5729" data-name="Group 5729">
            <path id="Path_16568" data-name="Path 16568" d="M332.17,330.29c0-2.311,1.492-3.878,3.316-3.5,1.807.373,3.259,2.514,3.259,4.785s-1.452,3.846-3.259,3.513C333.662,334.751,332.17,332.6,332.17,330.29Z" transform="translate(-332.17 -326.732)" fill="#fff"/>
          </g>
          <g id="Group_5730" data-name="Group 5730" transform="translate(0.859 1.084)">
            <path id="Path_16569" data-name="Path 16569" d="M334.361,332.14c0-1.713,1.1-2.876,2.458-2.6a3.578,3.578,0,0,1,2.425,3.554c0,1.69-1.082,2.858-2.425,2.608A3.562,3.562,0,0,1,334.361,332.14Z" transform="translate(-334.361 -329.498)" fill="#5a6b9c"/>
          </g>
          <g id="Group_5731" data-name="Group 5731" transform="translate(2.026 1.829)">
            <path id="Path_16570" data-name="Path 16570" d="M337.341,332.148c0-.485.312-.815.7-.737a1.021,1.021,0,0,1,.694,1.014c0,.482-.31.813-.694.737A1.019,1.019,0,0,1,337.341,332.148Z" transform="translate(-337.341 -331.399)" fill="#fff"/>
          </g>
        </g>
      </g>
      <g id="Group_5860" data-name="Group 5860" transform="translate(144.031 265.438)">
        <path id="Path_16571" data-name="Path 16571" d="M546.117,513.8c-.7-1.411,2.085-.626,1.787-2.543s-6.881-1.237-6.881-1.237l-1.461,4.518c3.5,2.391,8.283,2.987,9.207,2.063S546.82,515.211,546.117,513.8Z" transform="translate(-448.405 -422.977)" fill="#ffc0b0"/>
        <path id="Path_16572" data-name="Path 16572" d="M556.919,499.812l-2.636-2.428s-1.668,1.847-3.652,4.036c-1.236,1.365-3.461,1.528-4.108,2.652-.929,1.61-.553,5.329,1.906,5.69,3.3.485.626-3.426,1.639-3.575s.268,1.8,1.415,2.011c1.032.188.721-1.493.909-2.279C552.9,503.789,555.839,500.974,556.919,499.812Z" transform="translate(-452.356 -415.364)" fill="#ffccbf"/>
        <path id="Path_16573" data-name="Path 16573" d="M990.154,509.98c-.7-1.411,2.085-.625,1.787-2.543s-6.881-1.237-6.881-1.237l-1.461,4.517c3.5,2.391,8.283,2.987,9.207,2.063S990.857,511.391,990.154,509.98Z" transform="translate(-718.452 -420.654)" fill="#ffc0b0"/>
        <path id="Path_16574" data-name="Path 16574" d="M1000.429,495.991l-2.636-2.428s-1.668,1.847-3.652,4.037c-1.237,1.365-3.461,1.528-4.109,2.651-.928,1.61-1.792,5.036,1.907,5.69,3.284.581.626-3.426,1.639-3.575s.268,1.8,1.415,2.011c1.032.188.721-1.493.909-2.279C996.41,499.968,999.349,497.153,1000.429,495.991Z" transform="translate(-721.875 -413.04)" fill="#ffccbf"/>
        <g id="Group_5780" data-name="Group 5780" transform="translate(178.926 35.043)">
          <path id="Path_16575" data-name="Path 16575" d="M877.476,444.427s13.109,11.259,18.6,14.542c4.932,2.948,22.981,9.673,22.981,9.673l1.461-4.517-21.463-12.094L884.111,436.9Z" transform="translate(-832.838 -413.622)" fill="#ffc0b0"/>
          <path id="Path_16576" data-name="Path 16576" d="M898.868,445.621c.078,3.224-3.079,7.006-5.506,9.1l-11.033-9.229,3.424-10.836C890.574,437.3,894.522,441.257,898.868,445.621Z" transform="translate(-835.789 -412.256)" fill="#7dc9ff"/>
          <g id="Group_5734" data-name="Group 5734" transform="translate(37.708 11.695)">
            <path id="Path_16577" data-name="Path 16577" d="M859.79,415.675s1.767-1.657,1.341-6.52c-.353-4.038,5.745-.07,5.745-.07s-.771,4.374.794,7-3.838,2.54-3.838,2.54S860.345,418.347,859.79,415.675Z" transform="translate(-859.79 -407.343)" fill="#fcccbb"/>
          </g>
          <g id="Group_5738" data-name="Group 5738" transform="translate(33.133)">
            <g id="Group_5735" data-name="Group 5735">
              <path id="Path_16578" data-name="Path 16578" d="M852.823,391.176a1.855,1.855,0,0,1-1.786-1.493A1.935,1.935,0,0,1,849,387.009a2.185,2.185,0,0,1-.172-3.308s-1.17-3.039,1.958-2.916c0,0-.53-3.418,2.522-2.515,0,0,2.261-1.907,3.447.261,0,0,3.087-.593,3.12,1.917,0,0,2.05.462,1.056,2.816C860.1,385.229,852.823,391.176,852.823,391.176Z" transform="translate(-848.114 -377.495)" fill="#233059"/>
            </g>
            <g id="Group_5737" data-name="Group 5737" transform="translate(2.255 5.365)">
              <g id="Group_5736" data-name="Group 5736">
                <path id="Path_16579" data-name="Path 16579" d="M856.324,399.5s2.712,3.447,5.912,3.363c4.887-.128,3.156-10.545,2.037-11.46s-4.21,1.436-6.673.227c0,0,1.021,4.556-1.477,2.5-2.722-2.245-3.06,2.1-.569,3.207C855.556,397.337,855.715,397.9,856.324,399.5Z" transform="translate(-853.87 -391.188)" fill="#ffccbf"/>
              </g>
            </g>
          </g>
          <g id="Group_5739" data-name="Group 5739" transform="translate(31.641 53.641)">
            <path id="Path_16580" data-name="Path 16580" d="M860.369,514.39c7.575,12.507,19.326,21.073,22.6,37.607,1.455,7.352,1.557,27.448-1.612,36.893-.946,2.82-3.624,1.937-5.028,1.156-1.783-12.454-4.8-20.667-3.488-34.247s-39.322-12.372-25.76-41.1C847.081,514.7,855.959,515.077,860.369,514.39Z" transform="translate(-844.306 -514.39)" fill="#ffccbf"/>
          </g>
          <g id="Group_5740" data-name="Group 5740" transform="translate(32.288 53.641)">
            <path id="Path_16581" data-name="Path 16581" d="M861.374,514.39c7.575,12.507,22.044,24.689,24.6,37.086,1.516,7.34-1.618,33.473-1.618,33.473-.863,1.317-7.537,1.5-8.961.194-1.782-12.454-2.108-16.36-1.831-30,.047-2.328-36.691-17.6-25.482-40.445C848.085,514.7,856.963,515.077,861.374,514.39Z" transform="translate(-845.958 -514.39)" fill="#233059"/>
          </g>
          <g id="Group_5741" data-name="Group 5741" transform="translate(5.047 53.609)">
            <path id="Path_16582" data-name="Path 16582" d="M818.711,514.308c-.553,14.309,2.28,34.625-9.43,47.093-3.946,4.2-22.172,9.2-28.959,15.281-2.989.013-3.585-1.259-3.887-3.242,5.589-8.619,13.514-13.738,22.561-17.574,6.224-2.639,4.333-33.85,6.823-41.366C810.275,514.419,813.874,514.538,818.711,514.308Z" transform="translate(-776.435 -514.308)" fill="#ffccbf"/>
          </g>
          <g id="Group_5742" data-name="Group 5742" transform="translate(6.922 52.593)">
            <path id="Path_16583" data-name="Path 16583" d="M822.48,512.453c-.553,14.309.86,35.939-7.244,45.443-3.74,4.386-29.672,16.661-29.672,16.661a7.409,7.409,0,0,1-4.342-6.03c4.543-5.356,13.768-13.165,22.565-19.741,1.6-5.283-2.88-30.429,4.943-35.863C812.391,510.381,817.642,512.684,822.48,512.453Z" transform="translate(-781.222 -511.717)" fill="#2f3d69"/>
          </g>
          <g id="Group_5746" data-name="Group 5746" transform="translate(63.241 128.141)">
            <g id="Group_5743" data-name="Group 5743">
              <path id="Path_16584" data-name="Path 16584" d="M939.271,711.316a5.363,5.363,0,0,1-1.016.648c-2.293,1.157-6.518,1.016-9.518,1.1-1.756.051-2.815-.231-3.349-1.307-.579-1.158-.545-3.248-.11-6.855a4.424,4.424,0,0,0,4.269.215,4.537,4.537,0,0,0,.855-.6,9.12,9.12,0,0,0,2.555,2.894,17.042,17.042,0,0,1,5.479.272h0a2.323,2.323,0,0,1,1.227.761A1.923,1.923,0,0,1,939.271,711.316Z" transform="translate(-924.952 -704.521)" fill="#233059"/>
            </g>
            <g id="Group_5744" data-name="Group 5744" transform="translate(4.593)">
              <path id="Path_16585" data-name="Path 16585" d="M945.566,707.687c-.575.152-4.5.983-5.744.619s-3.149-3.189-3.149-3.189a4.538,4.538,0,0,0,.857-.6,9.136,9.136,0,0,0,2.553,2.894A17.06,17.06,0,0,1,945.566,707.687Z" transform="translate(-936.674 -704.521)" fill="#525e82"/>
            </g>
            <g id="Group_5745" data-name="Group 5745" transform="translate(0.436 6.795)">
              <path id="Path_16586" data-name="Path 16586" d="M939.947,721.863a5.357,5.357,0,0,1-1.016.649c-2.293,1.157-6.518,1.016-9.518,1.1-1.756.051-2.815-.231-3.349-1.307A70.451,70.451,0,0,0,939.947,721.863Z" transform="translate(-926.064 -721.863)" fill="#525e82"/>
            </g>
          </g>
          <g id="Group_5750" data-name="Group 5750" transform="translate(0 112.344)">
            <g id="Group_5747" data-name="Group 5747">
              <path id="Path_16587" data-name="Path 16587" d="M773.112,679a5.362,5.362,0,0,1-1.154-.348c-2.372-.986-5.017-4.283-7.034-6.5-1.183-1.3-1.659-2.286-1.19-3.393.5-1.194,2.109-2.529,5.129-4.549a4.423,4.423,0,0,0,2.619,3.379,4.533,4.533,0,0,0,1.009.26,9.12,9.12,0,0,0-.531,3.824A17.034,17.034,0,0,1,775.322,676l0,0a2.325,2.325,0,0,1,.222,1.426A1.922,1.922,0,0,1,773.112,679Z" transform="translate(-763.555 -664.205)" fill="#2f3d69"/>
            </g>
            <g id="Group_5748" data-name="Group 5748" transform="translate(7.388 3.377)">
              <path id="Path_16588" data-name="Path 16588" d="M786.789,681.245c-.49-.337-3.679-2.776-4.211-3.954s.368-4.466.368-4.466a4.548,4.548,0,0,0,1.01.262,9.141,9.141,0,0,0-.532,3.822A17.061,17.061,0,0,1,786.789,681.245Z" transform="translate(-782.41 -672.824)" fill="#525e82"/>
            </g>
            <g id="Group_5749" data-name="Group 5749" transform="translate(0 4.549)">
              <path id="Path_16589" data-name="Path 16589" d="M773.112,686.059a5.359,5.359,0,0,1-1.154-.348c-2.372-.986-5.017-4.283-7.034-6.5-1.183-1.3-1.659-2.286-1.19-3.393A70.444,70.444,0,0,0,773.112,686.059Z" transform="translate(-763.555 -675.814)" fill="#525e82"/>
            </g>
          </g>
          <g id="Group_5751" data-name="Group 5751" transform="translate(30.372 20.025)">
            <path id="Path_16590" data-name="Path 16590" d="M865.29,439.1c-.714,9.269-3.633,23.381-3.633,23.381.8,5.309-17.369,7.111-20.591,2.2,0,0,2.107-10.805,1.185-18.087,0,0-.855-14.933-.879-15.383A49.4,49.4,0,0,1,848.4,428.6s7.075,3.981,7.886.415C856.286,429.015,865.909,431.061,865.29,439.1Z" transform="translate(-841.067 -428.6)" fill="#4693ea"/>
          </g>
          <g id="Group_5774" data-name="Group 5774" transform="translate(18.43 34.999)">
            <g id="Group_5752" data-name="Group 5752" transform="translate(1.864 4.68)">
              <path id="Path_16591" data-name="Path 16591" d="M840.142,478.759l-.958,9.019-.294,2.772-.739,6.964H817.34l-.739-6.964-.294-2.772-.958-9.019Z" transform="translate(-815.349 -478.759)" fill="#e86173"/>
            </g>
            <g id="Group_5753" data-name="Group 5753" transform="translate(1.836 4.68)">
              <path id="Path_16592" data-name="Path 16592" d="M840.07,478.759l-.4,3.744H825.936a7.287,7.287,0,0,0-7.246,8.056l.1.963.294,2.772.342,3.221h-2.16l-.74-6.964-.294-2.773-.958-9.019Z" transform="translate(-815.277 -478.759)" fill="#cf4255"/>
            </g>
            <g id="Group_5754" data-name="Group 5754" transform="translate(12.875 4.65)">
              <rect id="Rectangle_4582" data-name="Rectangle 4582" width="2.772" height="18.785" fill="#ff899a"/>
            </g>
            <g id="Group_5755" data-name="Group 5755" transform="translate(2.822 13.699)">
              <path id="Path_16593" data-name="Path 16593" d="M840.671,501.776l-.294,2.772H818.088l-.294-2.772Z" transform="translate(-817.793 -501.776)" fill="#ff899a"/>
            </g>
            <g id="Group_5773" data-name="Group 5773">
              <g id="Group_5756" data-name="Group 5756" transform="translate(0 1.523)">
                <path id="Rectangle_4583" data-name="Rectangle 4583" d="M2.948,0H25.223A2.947,2.947,0,0,1,28.17,2.947V4.08a0,0,0,0,1,0,0H0a0,0,0,0,1,0,0V2.948A2.948,2.948,0,0,1,2.948,0Z" fill="#e86173"/>
              </g>
              <g id="Group_5772" data-name="Group 5772" transform="translate(8.134)">
                <g id="Group_5757" data-name="Group 5757" transform="translate(6.138 2.58)">
                  <path id="Path_16594" data-name="Path 16594" d="M848.343,473.4l4.988,7.42-2.472-.269-.42,2.025-3.425-8.267Z" transform="translate(-847.015 -473.4)" fill="#ffbc47"/>
                </g>
                <g id="Group_5758" data-name="Group 5758" transform="translate(0.681 2.59)">
                  <path id="Path_16595" data-name="Path 16595" d="M838,473.425l-4.909,7.472,2.469-.3.441,2.021,3.337-8.3Z" transform="translate(-833.089 -473.425)" fill="#ffbc47"/>
                </g>
                <g id="Group_5770" data-name="Group 5770">
                  <g id="Group_5760" data-name="Group 5760" transform="translate(0 0.042)">
                    <g id="Group_5759" data-name="Group 5759">
                      <path id="Path_16596" data-name="Path 16596" d="M837.639,469.137s-2.8-3.245-5.206-1.882c-1.67.945-1.322,4.895.458,5.073,2.259.226,4.751-1.712,4.751-1.712Z" transform="translate(-831.351 -466.921)" fill="#ffbc47"/>
                    </g>
                  </g>
                  <g id="Group_5762" data-name="Group 5762" transform="translate(6.28)">
                    <g id="Group_5761" data-name="Group 5761">
                      <path id="Path_16597" data-name="Path 16597" d="M847.377,469.072s2.762-3.275,5.186-1.937c1.679.927,1.373,4.881-.4,5.078-2.257.25-4.77-1.662-4.77-1.662Z" transform="translate(-847.377 -466.815)" fill="#ffbc47"/>
                    </g>
                  </g>
                  <g id="Group_5769" data-name="Group 5769" transform="translate(0.623 1.419)">
                    <g id="Group_5764" data-name="Group 5764" transform="translate(1.335)">
                      <g id="Group_5763" data-name="Group 5763">
                        <path id="Path_16598" data-name="Path 16598" d="M838.738,471.544a25.514,25.514,0,0,0,3.875-.02,5.733,5.733,0,0,0,2.379-1.088,6.118,6.118,0,0,1-2.374.991,5.649,5.649,0,0,1-1.755.026l-.188-.029c-.061.011-.123.021-.188.031a5.649,5.649,0,0,1-1.755-.008,6.108,6.108,0,0,1-2.383-.966A5.726,5.726,0,0,0,838.738,471.544Z" transform="translate(-836.348 -470.436)" fill="#ffab19"/>
                      </g>
                    </g>
                    <g id="Group_5766" data-name="Group 5766" transform="translate(1.355 1.939)">
                      <g id="Group_5765" data-name="Group 5765">
                        <path id="Path_16599" data-name="Path 16599" d="M842.653,475.5a25.373,25.373,0,0,0-3.875.02,5.731,5.731,0,0,0-2.379,1.088,6.116,6.116,0,0,1,2.373-.991,5.661,5.661,0,0,1,1.755-.026c.065.009.128.018.188.029.06-.011.123-.022.188-.031a5.672,5.672,0,0,1,1.755.007,6.122,6.122,0,0,1,2.383.965A5.735,5.735,0,0,0,842.653,475.5Z" transform="translate(-836.4 -475.385)" fill="#ffab19"/>
                      </g>
                    </g>
                    <g id="Group_5768" data-name="Group 5768" transform="translate(0 1.017)">
                      <g id="Group_5767" data-name="Group 5767">
                        <path id="Path_16600" data-name="Path 16600" d="M838.611,473.779a16.369,16.369,0,0,0,5.662-.747,15.8,15.8,0,0,1-5.44.521l-.224-.019-.224.022a15.824,15.824,0,0,1-5.445-.463,16.362,16.362,0,0,0,5.67.687Z" transform="translate(-832.941 -473.032)" fill="#ffab19"/>
                      </g>
                    </g>
                  </g>
                </g>
                <g id="Group_5771" data-name="Group 5771" transform="translate(5.043 1.698)">
                  <path id="Path_16601" data-name="Path 16601" d="M846.719,472.389a1.248,1.248,0,1,1-1.255-1.242A1.248,1.248,0,0,1,846.719,472.389Z" transform="translate(-844.222 -471.147)" fill="#ffab19"/>
                </g>
              </g>
            </g>
          </g>
          <g id="Group_5779" data-name="Group 5779" transform="translate(16.124 21.47)">
            <g id="Group_5777" data-name="Group 5777" transform="translate(0 0.041)">
              <g id="Group_5775" data-name="Group 5775" transform="translate(13.792 32.245)">
                <path id="Path_16602" data-name="Path 16602" d="M842.373,514.686a14.536,14.536,0,0,0,2.475,1.2c1.328.593,1.348,3.3-.806,4.247-1.941.851-2.924-1.616-3.943-3.182C839.31,515.744,841.07,514.9,842.373,514.686Z" transform="translate(-839.902 -514.686)" fill="#ffccbf"/>
              </g>
              <g id="Group_5776" data-name="Group 5776">
                <path id="Path_16603" data-name="Path 16603" d="M824.487,440.988c-3.413,3.086-12.82,7.483-12.82,7.483s6.582,12.261,9.259,16.175c.183,1.514-.768,2.092-2.224,2.345-5.346-4.824-12.535-10.375-13.9-18.163-.845-4.816,4.028-8.292,8.287-11.811v.007a31.794,31.794,0,0,1,9.243-4.63C824.876,434.921,826.924,438.783,824.487,440.988Z" transform="translate(-804.705 -432.394)" fill="#ffccbf"/>
              </g>
            </g>
            <g id="Group_5778" data-name="Group 5778" transform="translate(5.893)">
              <path id="Path_16604" data-name="Path 16604" d="M834.707,440.162c-1.712,2.306-8.754,5.655-8.754,5.655-4.065-1.112-6.152-7.278-6.209-7.612.49-.365,6.933-4.48,11.734-5.875l.155-.041C835.806,433.527,835.914,438.537,834.707,440.162Z" transform="translate(-819.744 -432.289)" fill="#7dc9ff"/>
            </g>
          </g>
        </g>
        <g id="Group_5802" data-name="Group 5802" transform="translate(270.963 27.87)">
          <g id="Group_5790" data-name="Group 5790" transform="translate(0 53.675)">
            <g id="Group_5781" data-name="Group 5781" transform="translate(40.372 0.484)">
              <path id="Path_16605" data-name="Path 16605" d="M1104.51,577.669c.115,1.505-1.569,3.082-1.661,4.63,6.4,1.368,12.857,2.482,19.311,3.612-.918-4.365-5.6-4.871-9.6-5.9a2.959,2.959,0,0,1-2.2-2.939c.587-25.467,10.748-54.683,4.892-79.573-2.015-.045-2.16.557-4.526.46s-6.415-.379-9.132-.547C1100.789,521.121,1104.351,575.589,1104.51,577.669Z" transform="translate(-1101.473 -497.407)" fill="#ffcbc7"/>
            </g>
            <g id="Group_5784" data-name="Group 5784" transform="translate(40.372 0.484)">
              <g id="Group_5782" data-name="Group 5782" transform="translate(10.735 0.084)">
                <path id="Path_16606" data-name="Path 16606" d="M1129.853,498.086a8.065,8.065,0,0,0,2.126-.152c-.024-.1-.045-.206-.069-.308a14.376,14.376,0,0,0-3.041.415C1129.22,498.057,1129.55,498.073,1129.853,498.086Z" transform="translate(-1128.869 -497.623)" fill="#fabab4"/>
              </g>
              <g id="Group_5783" data-name="Group 5783">
                <path id="Path_16607" data-name="Path 16607" d="M1105.317,582.3c.091-1.547,1.776-3.124,1.661-4.629-.158-2.076-3.7-56.309-2.924-80.1-.879-.057-1.721-.112-2.464-.158-.8,23.714,2.76,78.182,2.919,80.262.115,1.505-1.569,3.082-1.661,4.629,6.4,1.368,12.857,2.482,19.311,3.612-.033-.156-.071-.306-.113-.452C1116.454,584.479,1110.865,583.485,1105.317,582.3Z" transform="translate(-1101.473 -497.407)" fill="#ffc0bd"/>
              </g>
            </g>
            <g id="Group_5785" data-name="Group 5785" transform="translate(1.303 0.406)">
              <path id="Path_16608" data-name="Path 16608" d="M1006.322,553.584c-1.436-.5-3.109,1.06-4.555.693,1.3,5.93,3.206,9.573,5.921,15.025,1.331-2.719,1.07-5.676,1.239-8.608a2.443,2.443,0,0,1,2.21-2.3c29.652-2.865,43.537-32.986,39.128-60.563-3.8-.118-7.609-.448-11.4-.627C1028.8,511.689,1036.516,546.984,1006.322,553.584Z" transform="translate(-1001.767 -497.208)" fill="#ffcbc7"/>
            </g>
            <g id="Group_5786" data-name="Group 5786" transform="translate(1.303 0.406)">
              <path id="Path_16609" data-name="Path 16609" d="M1002.587,555.932c1.446.367,3.119-1.193,4.555-.694,30.193-6.6,22.483-41.894,32.543-56.375,3.6.169,7.206.473,10.817.605-.073-.545-.15-1.09-.237-1.633-3.8-.118-7.609-.448-11.4-.627-10.06,14.482-2.35,49.776-32.543,56.376-1.436-.5-3.109,1.061-4.555.693,1.181,5.4,2.873,8.911,5.218,13.614A48.6,48.6,0,0,1,1002.587,555.932Z" transform="translate(-1001.767 -497.208)" fill="#ffc0bd"/>
            </g>
            <g id="Group_5787" data-name="Group 5787" transform="translate(41.644 80.985)">
              <path id="Path_16610" data-name="Path 16610" d="M1118.9,706.064c1.584.772,7.7,1.855,6.438,4.852s-16.681.029-19.393-1.548-.2-4.692.62-6.517c2.437,4.868,9.577,7.488,14.314,5.454C1122.662,707.54,1119.211,706.381,1118.9,706.064Z" transform="translate(-1104.719 -702.851)" fill="#2f3d69"/>
            </g>
            <g id="Group_5788" data-name="Group 5788" transform="translate(0 56.302)">
              <path id="Path_16611" data-name="Path 16611" d="M1006.72,651.962c-.08,1.092.95,6.927-1.733,6.375s-7.505-13.474-6.378-16.23c1.288-3.147,4.608-2.206,5.647-1.786-3.849,2.681-1.826,10.952,1.192,12.988C1006.5,654.019,1006.745,652.463,1006.72,651.962Z" transform="translate(-998.441 -639.857)" fill="#2f3d69"/>
            </g>
            <g id="Group_5789" data-name="Group 5789" transform="translate(19.434)">
              <path id="Path_16612" data-name="Path 16612" d="M1048.039,535.325s3.615,3.994,7.013,3.168c0,0,3.764,5.7,9.676,1.764a11.892,11.892,0,0,0,13.435,0c5.907,3.939,9.677-1.764,9.677-1.764,3.4.827,7.012-3.168,7.012-3.168-3.244-15.267-10.256-28.307-11.956-39.154l-16.273.538C1061.593,501.715,1058.373,522.609,1048.039,535.325Z" transform="translate(-1048.039 -496.171)" fill="#2f3d69"/>
            </g>
          </g>
          <g id="Group_5791" data-name="Group 5791" transform="translate(46.448 4.303)">
            <path id="Path_16613" data-name="Path 16613" d="M1117.259,370.169c1.977,2.1,2.808,5.842,1.167,8.381-1.292,2.651-1.266,5.752-1.012,8.648a13.4,13.4,0,0,1,.667-8.828C1119.7,375.936,1118.97,372.363,1117.259,370.169Z" transform="translate(-1116.981 -370.169)" fill="#2f3d69"/>
          </g>
          <g id="Group_5792" data-name="Group 5792" transform="translate(65.949)">
            <path id="Path_16614" data-name="Path 16614" d="M1166.748,366.047c.028-.024.53-.285.654-1.778.037-.444-.662-3,.229-3.427.674-.325,1.118,2.007,1.286,1.963,1.426-.373,2.166-4.432,3.717-3.469,3.471,2.153-.009,3.823-1.688,5.929a11.44,11.44,0,0,0-.331,2.254Z" transform="translate(-1166.748 -359.188)" fill="#ffcbc7"/>
          </g>
          <g id="Group_5793" data-name="Group 5793" transform="translate(28.96 2.159)">
            <path id="Path_16615" data-name="Path 16615" d="M1090.738,374.976c1.351-2.871,1.807-7.809-2.792-9.461-3.345-1.2-6.158-1.251-9.2,1.045s-4.222,7.341-3.578,10.956c.773,4.333-4.35,8.092-2.351,11.608,2.686,4.723,16.162.676,20.782-.025C1090.571,384.161,1087.612,381.62,1090.738,374.976Z" transform="translate(-1072.35 -364.699)" fill="#2f3d69"/>
          </g>
          <g id="Group_5794" data-name="Group 5794" transform="translate(43.121 6.334)">
            <path id="Path_16616" data-name="Path 16616" d="M1135.667,376.5s-2.824,14.757-4.05,17.694a7.334,7.334,0,0,1-.981,1.274c-3.112,3.288-10.035,5.7-14.555,7.275a5.375,5.375,0,0,1-6.6-2.436,6.5,6.5,0,0,1-.778-5.042c1.407-5,14.47-3.379,16.841-4.909l5.3-14.933A8.448,8.448,0,0,1,1135.667,376.5Z" transform="translate(-1108.489 -375.354)" fill="#db688d"/>
          </g>
          <path id="Path_16617" data-name="Path 16617" d="M1132.171,426.679c-3.112,3.288-10.035,5.7-14.555,7.275a5.375,5.375,0,0,1-6.6-2.436l7-4.194s2.628,3.2,5.132,2.5C1124.736,429.381,1129.17,427.777,1132.171,426.679Z" transform="translate(-1066.903 -400.234)" fill="#d4485a"/>
          <g id="Group_5795" data-name="Group 5795" transform="translate(32.312 22.144)">
            <path id="Path_16618" data-name="Path 16618" d="M1103.7,448.825a.584.584,0,0,1-.213.325c-3.789,2.921-12.162.272-17.449-.122a.884.884,0,0,1-.815-.938c.415-5.873-2.526-12.082-3.773-17.854a15.309,15.309,0,0,1,.112-8.484c.8-2.238,4.285-3.816,6.72-5.788,1.641-.037,3.358-.538,4.919-.048,8.2,2.579,9.577,10.728,9.818,18.648.117,3.88-.038,7.706.2,10.792.059.757.139,1.471.256,2.132.005.011.005.027.01.037.016.091.032.181.048.272.048.245.1.485.165.714A.627.627,0,0,1,1103.7,448.825Z" transform="translate(-1080.904 -415.701)" fill="#db688d"/>
          </g>
          <path id="Path_16619" data-name="Path 16619" d="M1104.537,470.953a.584.584,0,0,1-.213.325c-3.789,2.921-12.162.272-17.449-.122a.884.884,0,0,1-.815-.938c.415-5.873-2.527-12.082-3.773-17.854l5.99-.277s-2.356,6.539.741,10.361c2.377,2.936,8.022,5.422,15.04,5.036.059.757.139,1.471.256,2.132.005.011.005.027.011.037.016.091.032.181.048.272.048.245.1.485.165.714A.63.63,0,0,1,1104.537,470.953Z" transform="translate(-1049.433 -415.685)" fill="#d4485a"/>
          <g id="Group_5796" data-name="Group 5796" transform="translate(38.843 15.192)">
            <path id="Path_16620" data-name="Path 16620" d="M1098.18,406.234c-.228-.121-.434-.235-.609-.334a52.6,52.6,0,0,0,.625-6.719c.019-.511.028-.935.026-1.223.891.744,2.532,1.118,3.183,2.111s1.145,4.667,1.193,4.875C1103.467,408.619,1100.068,407.225,1098.18,406.234Z" transform="translate(-1097.571 -397.959)" fill="#ffcbc7"/>
          </g>
          <g id="Group_5797" data-name="Group 5797" transform="translate(38.843 16.414)">
            <path id="Path_16621" data-name="Path 16621" d="M1102.061,404.229s-1.782-.2-2.734-.242c-1.148-.053-1.143,3.237-1.147,4.145-.228-.121-.434-.235-.609-.334a52.6,52.6,0,0,0,.625-6.719C1099.7,402.3,1102.061,404.229,1102.061,404.229Z" transform="translate(-1097.571 -401.079)" fill="#fabab4"/>
          </g>
          <g id="Group_5798" data-name="Group 5798" transform="translate(36.67 7.728)">
            <path id="Path_16622" data-name="Path 16622" d="M1101.9,390.334c2.369-1.06,1.784-8.924-.184-11.424-2.009,2.561-5.588,2.506-8.472,1.6.241.647.144,2.77.642,3.592a1.015,1.015,0,0,0-1.83.851c.264,1.386,1.13,1.7,2.348,2.119A5.54,5.54,0,0,0,1101.9,390.334Z" transform="translate(-1092.026 -378.91)" fill="#ffcbc7"/>
          </g>
          <g id="Group_5799" data-name="Group 5799" transform="translate(39.335 8.028)">
            <path id="Path_16623" data-name="Path 16623" d="M1105.5,379.783a3.912,3.912,0,0,1-2.6,3.66,1.679,1.679,0,0,0-.688-2.037,3.669,3.669,0,0,1-.824,2.561c-.937.909-2.475,2.439-1.495,4.746l-.734-.73-.332-5.808,3.846-2.5Z" transform="translate(-1098.827 -379.676)" fill="#fabab4"/>
          </g>
          <g id="Group_5800" data-name="Group 5800" transform="translate(35.958 5.71)">
            <path id="Path_16624" data-name="Path 16624" d="M1102.011,379.343a4.97,4.97,0,0,0-1.749-3.157,5.127,5.127,0,0,1-2.662,3.212,2.525,2.525,0,0,0-.628-1.589,5.847,5.847,0,0,1-2.093,3.157c-1.627,1.271-.11,4.208.476,4.857a5.618,5.618,0,0,1-2.677-5.078s-2.421-2.072-2.462-2.176.166-2.467.166-2.467,5.657-1.471,5.668-1.534,2.307-.808,2.307-.808l1.766.166,1.326.476Z" transform="translate(-1090.21 -373.762)" fill="#2f3d69"/>
          </g>
          <g id="Group_5801" data-name="Group 5801" transform="translate(28.473 2.3)">
            <path id="Path_16625" data-name="Path 16625" d="M1084.223,365.751c-1.063-1.091-2.879-.456-4.124-.016a8.939,8.939,0,0,0-5.358,11.468c.442,1.512,1.448,1.477.41,3.148-1.256,1.8-3.017,3.255-3.583,5.44-.629,2.019.048,4.817,2.445,5.16-2.5-.211-3.324-3.125-2.715-5.23a12.011,12.011,0,0,1,2.882-4.711,4.1,4.1,0,0,0,1.061-2c-.12-.21-.321-.4-.432-.63a9.011,9.011,0,0,1,3.244-11.8C1079.751,365.595,1082.53,364.2,1084.223,365.751Z" transform="translate(-1071.106 -365.059)" fill="#2f3d69"/>
          </g>
          <path id="Path_16626" data-name="Path 16626" d="M1035.7,424.575s-13.054,8.024-18.052,12.02c-4.487,3.588-16.434,17.547-16.434,17.547l4.1,3.724,16.548-14.533,18.639-8.157Z" transform="translate(-1000.129 -398.954)" fill="#db688d"/>
        </g>
        <g id="Group_5835" data-name="Group 5835" transform="translate(98.992 29.767)">
          <g id="Group_5804" data-name="Group 5804" transform="translate(30.593 56.122)">
            <g id="Group_5803" data-name="Group 5803">
              <path id="Path_16627" data-name="Path 16627" d="M646.9,550.8a86.283,86.283,0,0,0-1.2,10.118,91.058,91.058,0,0,0,.957,21.5l3.773-.231s3.282-15.615,5.041-26.287c.453-2.708.8-5.121.964-6.932.973-10.336-4.179-38.793-4.51-40.635l-.014-.071,0-.026-12.122-.982C633.839,528.214,641.563,532.523,646.9,550.8Z" transform="translate(-637.634 -507.257)" fill="#f9cbcb"/>
            </g>
          </g>
          <g id="Group_5807" data-name="Group 5807" transform="translate(13.162 54.809)">
            <g id="Group_5806" data-name="Group 5806">
              <g id="Group_5805" data-name="Group 5805">
                <path id="Path_16628" data-name="Path 16628" d="M598.214,579.037c.357-1.634,5.575-13.846,10.511-20.967,1.179-1.7,2.28-3.184,3.207-4.272,6.617-7.77,13.094-49.095,13.092-49.1s-9.842-.8-9.837-.8c-8.495,8.86-7.585,22.1-8.877,34.978a30.431,30.431,0,0,1-3.972,12.318c-.428.728-.829,1.471-1.215,2.233-2.7,5.314-5.313,12.79-7.975,24.763Z" transform="translate(-593.147 -503.907)" fill="#f9cbcb"/>
              </g>
            </g>
          </g>
          <g id="Group_5809" data-name="Group 5809" transform="translate(20.71 55.046)">
            <g id="Group_5808" data-name="Group 5808">
              <path id="Path_16629" data-name="Path 16629" d="M646.113,542.442a1.136,1.136,0,0,1-1.279,1.148c-11.76-1.5-19.282,2.427-28.623.924q-.805-.129-1.632-.313a2.29,2.29,0,0,1-1.771-2.084c-1.014-15.167-.224-28.843,3.959-37.606h21.876S645.874,529.079,646.113,542.442Z" transform="translate(-612.411 -504.512)" fill="#2f3d69"/>
            </g>
          </g>
          <g id="Group_5811" data-name="Group 5811" transform="translate(20.71 55.046)">
            <g id="Group_5810" data-name="Group 5810">
              <path id="Path_16630" data-name="Path 16630" d="M616.156,529.94c.007,7.492.037,12.073.056,14.574q-.805-.129-1.632-.313a2.29,2.29,0,0,1-1.771-2.084c-1.014-15.167-.224-28.843,3.959-37.606H617.8l1.178,1.163A114.364,114.364,0,0,0,616.156,529.94Z" transform="translate(-612.411 -504.512)" fill="#212f59"/>
            </g>
          </g>
          <g id="Group_5813" data-name="Group 5813" transform="translate(18.232)">
            <g id="Group_5812" data-name="Group 5812">
              <path id="Path_16631" data-name="Path 16631" d="M630.443,369.3a4.889,4.889,0,0,0-6.769-5,16.234,16.234,0,0,0-4.817,2.707c-2.344,1.7-4.85,3.622-5.545,6.43-.806,3.255,1.081,6.815-.044,9.974-.808,2.266-2.948,3.722-4.677,5.395s-3.189,4.216-2.165,6.393c1.166,2.48,4.8,2.885,6.145,5.274.846,1.5.552,3.414,1.225,5a4.371,4.371,0,0,0,8.2-.4c.354-1.133.238-2.374.613-3.5.576-1.733,2.179-2.875,3.407-4.227a10.62,10.62,0,0,0,1.513-12.247,14.61,14.61,0,0,0,1.514-11.4A7.927,7.927,0,0,0,630.443,369.3Z" transform="translate(-606.087 -364.029)" fill="#2f3d69"/>
            </g>
          </g>
          <g id="Group_5815" data-name="Group 5815" transform="translate(56.052 17.555)">
            <g id="Group_5814" data-name="Group 5814" transform="translate(0 0)">
              <rect id="Rectangle_4584" data-name="Rectangle 4584" width="6.492" height="13.781" transform="translate(6.112 15.163) rotate(-160.317)" fill="#2f3d69"/>
            </g>
          </g>
          <g id="Group_5817" data-name="Group 5817" transform="translate(46.386 23.215)">
            <g id="Group_5816" data-name="Group 5816">
              <path id="Path_16632" data-name="Path 16632" d="M679.053,441.3s.429,8.757,5,9.137c3.838.326,8.241-14.4,11.269-18.28,2.915-3.735,4.572-6.753,2.586-7.938-5.243-3.13-5.535,2.206-5.737,6.287l-6.139,9.485-8.1-15.549Z" transform="translate(-677.939 -423.275)" fill="#f9cbcb"/>
            </g>
          </g>
          <g id="Group_5820" data-name="Group 5820" transform="translate(0 18.268)">
            <g id="Group_5819" data-name="Group 5819">
              <g id="Group_5818" data-name="Group 5818">
                <path id="Path_16633" data-name="Path 16633" d="M623.485,424.733c-1.685,4.751-7.656,18.224-11.476,18.224a1.77,1.77,0,0,1-.673-.144c-1.582-.656-3.1-3.5-4.246-6.242a57.557,57.557,0,0,1-1.956-5.591l-.011-.034c-.426,4.211,1.2,17.056,1.708,16.872a37.963,37.963,0,0,1-18.644,1.093l-.046-.012a40.974,40.974,0,0,1-4.13-.966c.115-.167.225-.334.328-.512.04-.057.074-.121.109-.178.08-.127.155-.253.224-.385a18.671,18.671,0,0,0,.938-2.014c.161-.414.316-.834.46-1.271a.338.338,0,0,0,.035-.109c.069-.207.132-.414.2-.627l.034-.121c1.61-5.43,1.829-12.08.495-14.318a.328.328,0,0,1-.058.063c-1.191,1.219-19.984,18.874-23.689,22.314-.736.685-3.572-3.279-3.526-3.348,2.353-3.377,22.521-30.436,26.657-33.514a18.818,18.818,0,0,1,7.542-3.262l4.4.081c.023,0,7.07,2.451,9.026,6.6,1.754,3.728,6.736,14.709,6.736,14.709a.165.165,0,0,0,.294.029l5.775-9.946A40.543,40.543,0,0,1,623.485,424.733Z" transform="translate(-559.558 -410.651)" fill="#f4c043"/>
              </g>
            </g>
          </g>
          <g id="Group_5822" data-name="Group 5822" transform="translate(34.202 14.16)">
            <g id="Group_5821" data-name="Group 5821">
              <path id="Path_16634" data-name="Path 16634" d="M646.844,404.281c.12.19.243.367.367.526,1.2,1.541,2.517,1.6,4.032-.433-.1-.477-.349-2.107-.53-3.135-.066-.406-.123-.719-.154-.83l-3.259-.243Z" transform="translate(-646.844 -400.166)" fill="#f9cbcb"/>
            </g>
          </g>
          <g id="Group_5824" data-name="Group 5824" transform="translate(34.202 14.16)">
            <g id="Group_5823" data-name="Group 5823">
              <path id="Path_16635" data-name="Path 16635" d="M646.844,404.281c.12.19.243.367.367.526.1-.914.433-2.61,1.44-2.627a2.726,2.726,0,0,0,2.062-.941c-.066-.406-.123-.719-.154-.83l-3.259-.243Z" transform="translate(-646.844 -400.166)" fill="#f1babb"/>
            </g>
          </g>
          <g id="Group_5826" data-name="Group 5826" transform="translate(24.454 33.311)">
            <g id="Group_5825" data-name="Group 5825">
              <path id="Path_16636" data-name="Path 16636" d="M624.786,471.942l-2.819-.661c.115-.167.225-.339.328-.512a1.479,1.479,0,0,0,.109-.178c.08-.127.155-.253.224-.385a15.327,15.327,0,0,0,.938-2.014c.172-.414.322-.84.46-1.271a.34.34,0,0,0,.035-.109c.069-.207.132-.42.2-.627l.034-.121c1.61-5.43,1.829-12.08.495-14.318a.33.33,0,0,1-.058.063l.771-2.767C627.685,453.281,629.238,461.777,624.786,471.942Z" transform="translate(-621.967 -449.041)" fill="#eba62f"/>
            </g>
          </g>
          <g id="Group_5828" data-name="Group 5828" transform="translate(45.567 30.667)">
            <g id="Group_5827" data-name="Group 5827">
              <path id="Path_16637" data-name="Path 16637" d="M682.061,462.059c-1.584-.656-3.1-3.5-4.246-6.244l-1.957-5.591-.011-.034a16.626,16.626,0,0,0,.242-7.9C678.187,445.882,677.488,458.368,682.061,462.059Z" transform="translate(-675.848 -442.294)" fill="#eba62f"/>
            </g>
          </g>
          <g id="Group_5830" data-name="Group 5830" transform="translate(9.472 124.894)">
            <g id="Group_5829" data-name="Group 5829">
              <path id="Path_16638" data-name="Path 16638" d="M588.4,682.77l-1.911,2.442-2.756,5.232.922.71,3.8-3.614-.406,3.872a3.193,3.193,0,0,0,.861,2.8c2.049,1.857,6.4,4.991,7.606,3.64,1.243-1.388-2.977-4.418-3.063-6.953-.082-2.455-.063-5.578-.063-5.578Z" transform="translate(-583.731 -682.77)" fill="#2f3d69"/>
            </g>
          </g>
          <g id="Group_5832" data-name="Group 5832" transform="translate(38.645 130.848)">
            <g id="Group_5831" data-name="Group 5831">
              <path id="Path_16639" data-name="Path 16639" d="M659.1,698.081l-.913,3.033.639,5.124,1.015.048.918-4.487,1.643,2.976a2.788,2.788,0,0,0,2.013,1.573c2.395.307,7.073.38,7.265-1.191.2-1.615-4.338-1.677-5.665-3.451-1.285-1.717-3.088-3.742-3.088-3.742Z" transform="translate(-658.182 -697.964)" fill="#2f3d69"/>
            </g>
          </g>
          <g id="Group_5834" data-name="Group 5834" transform="translate(30.956 4.312)">
            <g id="Group_5833" data-name="Group 5833">
              <path id="Path_16640" data-name="Path 16640" d="M647.555,384.877c-4.8,4.09-7.507-3.333-7.507-3.333s-2.135-.983-1.292-2.933c.746-1.727,2.607.4,2.607.4,2.534,0,4.548-2.2,5.6-3.654a.77.77,0,0,1,1.359.2,15.167,15.167,0,0,1,.865,5.842A5.055,5.055,0,0,1,647.555,384.877Z" transform="translate(-638.559 -375.033)" fill="#f9cbcb"/>
            </g>
          </g>
        </g>
        <g id="Group_5856" data-name="Group 5856" transform="translate(0 30.893)">
          <path id="Path_16641" data-name="Path 16641" d="M437.684,444.445s12.169,12.269,17.383,15.98c4.681,3.332,22.537,10.062,22.537,10.062a7.949,7.949,0,0,0,1.461-4.517l-19.088-11.02L444.9,437.47Z" transform="translate(-386.447 -409.82)" fill="#ffc0b0"/>
          <path id="Path_16642" data-name="Path 16642" d="M458.5,440.551c-.179,3.221-3.627,6.738-6.214,8.628L442.028,439.1l.8-14.647C447.417,427.476,454.52,435.854,458.5,440.551Z" transform="translate(-389.089 -401.903)" fill="#f78a99"/>
          <g id="Group_5836" data-name="Group 5836" transform="translate(40.009)">
            <path id="Path_16643" data-name="Path 16643" d="M414.933,367.127a8.49,8.49,0,0,0-3.293,1.485,2.136,2.136,0,0,1-.513-.929c-.086-.364-.479.684-.108,1.344l-.947-.218.541.721a5.752,5.752,0,0,0-1.413,2.458c-1.148,4.527,3.876,8.689,3.876,8.689l8.494-8.876C424,369.09,419.982,366.051,414.933,367.127Z" transform="translate(-409.03 -366.905)" fill="#2f3d69"/>
          </g>
          <g id="Group_5837" data-name="Group 5837" transform="translate(6.874 61.299)">
            <path id="Path_16644" data-name="Path 16644" d="M360.789,523.344c-.621,6.362-5.933,28.6-5.933,28.6s-21.808,8.855-29.68,11.731c-1.253,2.156-.867,3.9,1.295,5.417,9.272-1.448,24.159-3.428,32.649-7.8,10.979-5.657,17.265-25.174,18.781-36.9C372.135,523.941,366.54,523.575,360.789,523.344Z" transform="translate(-324.465 -523.344)" fill="#ffccbf"/>
          </g>
          <g id="Group_5838" data-name="Group 5838" transform="translate(37.407 60.946)">
            <path id="Path_16645" data-name="Path 16645" d="M402.389,522.444c1.909,11.45-5.427,13.915,11.842,20.186,5.278,1.916,12.787,12.331,12.787,12.331s2.989,19.249,4.175,34.322c.26,3.3,5.072,3.463,5.735.929,3.166-12.1,2.462-38.7,2.462-38.7s-16.52-24.323-25.633-27.872C413.758,523.641,409.754,524.829,402.389,522.444Z" transform="translate(-402.389 -522.444)" fill="#ffccbf"/>
          </g>
          <g id="Group_5839" data-name="Group 5839" transform="translate(29.566 58.749)">
            <path id="Path_16646" data-name="Path 16646" d="M382.378,550.874c.046,3.587,2.318,6.961,5.209,10.275,3.015-1.3,9.16-2.963,11.082-4.707,7.193-6.524,13.841-28.615,14.421-36.067-5.95-.373-17.215-7.015-17.851-1.087-.778,7.248-6.731,28.287-6.731,28.287S383.313,550.129,382.378,550.874Z" transform="translate(-382.378 -516.837)" fill="#212f59"/>
          </g>
          <g id="Group_5840" data-name="Group 5840" transform="translate(36.18 60.637)">
            <path id="Path_16647" data-name="Path 16647" d="M400.485,521.964c-2.155,6.3-1.956,15.4,4.573,18.3,6.572,2.918,18.92,15.46,18.92,15.46s1.32,7.275,2.3,10.385a19.729,19.729,0,0,0,12.022,0c.13-4.531.243-10.76-.478-14.614-1.376-7.357-18.657-25.739-24.894-28.845C409.205,520.794,404.679,522.134,400.485,521.964Z" transform="translate(-399.258 -521.654)" fill="#2f3d69"/>
          </g>
          <g id="Group_5841" data-name="Group 5841" transform="translate(42.321 13.027)">
            <path id="Path_16648" data-name="Path 16648" d="M419.657,411.679c-2.354-.9-4.71-3.577-4.727-4.613a11.923,11.923,0,0,1,1.626-.206v-6.709h5.332l.573,4.427.363,2.841C428.56,411.281,425,413.727,419.657,411.679Z" transform="translate(-414.93 -400.151)" fill="#ffccbf"/>
          </g>
          <g id="Group_5845" data-name="Group 5845" transform="translate(64.907 127.058)">
            <g id="Group_5842" data-name="Group 5842">
              <path id="Path_16649" data-name="Path 16649" d="M488.248,701.549a6.1,6.1,0,0,1-1.281.487c-2.821.757-7.492-.379-10.851-.982-1.967-.35-3.081-.91-3.427-2.231-.377-1.423.146-3.742,1.466-7.657a5.031,5.031,0,0,0,4.7,1.228,5.184,5.184,0,0,0,1.089-.466,10.37,10.37,0,0,0,2.174,3.814,19.372,19.372,0,0,1,6.037,1.572h.005a2.641,2.641,0,0,1,1.19,1.131A2.186,2.186,0,0,1,488.248,701.549Z" transform="translate(-472.57 -691.166)" fill="#2f3d69"/>
            </g>
            <g id="Group_5843" data-name="Group 5843" transform="translate(6.286 0.763)">
              <path id="Path_16650" data-name="Path 16650" d="M497.918,698.5c-.675.036-5.242.051-6.538-.642s-2.767-4.28-2.767-4.28a5.151,5.151,0,0,0,1.091-.465,10.4,10.4,0,0,0,2.173,3.814A19.388,19.388,0,0,1,497.918,698.5Z" transform="translate(-488.613 -693.112)" fill="#525e82"/>
            </g>
            <g id="Group_5844" data-name="Group 5844" transform="translate(0.119 7.657)">
              <path id="Path_16651" data-name="Path 16651" d="M488.433,713.433a6.1,6.1,0,0,1-1.281.487c-2.821.757-7.492-.379-10.851-.982-1.967-.35-3.081-.91-3.427-2.231A80.065,80.065,0,0,0,488.433,713.433Z" transform="translate(-472.874 -710.707)" fill="#525e82"/>
            </g>
          </g>
          <g id="Group_5849" data-name="Group 5849" transform="translate(0 101.512)">
            <g id="Group_5846" data-name="Group 5846">
              <path id="Path_16652" data-name="Path 16652" d="M313.705,643.442a6.1,6.1,0,0,1-1.1-.813c-2.165-1.961-3.74-6.5-5.053-9.653-.771-1.843-.9-3.083.02-4.089.993-1.088,3.225-1.9,7.231-2.916a5.031,5.031,0,0,0,1.516,4.62,5.172,5.172,0,0,0,.981.663,10.369,10.369,0,0,0-2.028,3.894,19.372,19.372,0,0,1,1.948,5.927l0,.005a2.64,2.64,0,0,1-.307,1.612A2.186,2.186,0,0,1,313.705,643.442Z" transform="translate(-306.923 -625.971)" fill="#212f59"/>
            </g>
            <g id="Group_5847" data-name="Group 5847" transform="translate(7.288 4.617)">
              <path id="Path_16653" data-name="Path 16653" d="M328.528,648.242c-.4-.548-2.882-4.378-3-5.844s2.1-4.644,2.1-4.644a5.153,5.153,0,0,0,.982.666,10.391,10.391,0,0,0-2.029,3.892A19.4,19.4,0,0,1,328.528,648.242Z" transform="translate(-325.522 -637.754)" fill="#525e82"/>
            </g>
            <g id="Group_5848" data-name="Group 5848" transform="translate(0 2.916)">
              <path id="Path_16654" data-name="Path 16654" d="M313.705,647.967a6.093,6.093,0,0,1-1.1-.813c-2.165-1.961-3.74-6.5-5.053-9.653-.771-1.843-.9-3.083.02-4.089A80.1,80.1,0,0,0,313.705,647.967Z" transform="translate(-306.923 -633.412)" fill="#525e82"/>
            </g>
          </g>
          <g id="Group_5850" data-name="Group 5850" transform="translate(30.839 19.939)">
            <path id="Path_16655" data-name="Path 16655" d="M415.534,462.05s-1.54-.895-10.232,3.821c-9.572,5.193-16.447-2.372-15.5-5.544a49.22,49.22,0,0,0-4.175-37.629,31.129,31.129,0,0,1,6.71-3.47c1.292-.534,4.774-1.436,4.774-1.436,2.923,4.167,13.091,6.09,7.893.357.638.012,3.2,1.836,4.136,2.838C419.44,432.035,416.375,458.38,415.534,462.05Z" transform="translate(-385.626 -417.791)" fill="#db688d"/>
          </g>
          <g id="Group_5851" data-name="Group 5851" transform="translate(43.947 12.043)">
            <path id="Path_16656" data-name="Path 16656" d="M424.985,403.051c-5.612.37-5.905-3.809-5.905-3.809v-1.6l5.332.984Z" transform="translate(-419.08 -397.64)" fill="#ffc9cb"/>
          </g>
          <g id="Group_5852" data-name="Group 5852" transform="translate(41.749 4.563)">
            <path id="Path_16657" data-name="Path 16657" d="M415.655,386.222s1.675,4.585,6.5,3.244c4.085-1.135,1.946-10.379,1.418-10.731-1.162-.775-4.092,1.228-6.412-.02,0,0,.818,4.409-1.506,2.343-2.533-2.251-3.011,1.9-.66,3.057C414.995,384.115,415.127,384.662,415.655,386.222Z" transform="translate(-413.469 -378.551)" fill="#ffccbf"/>
          </g>
          <g id="Group_5854" data-name="Group 5854" transform="translate(16.728 24.473)">
            <g id="Group_5853" data-name="Group 5853">
              <path id="Path_16658" data-name="Path 16658" d="M358.795,474.507l-1.061-2.111s1.492,6.525,4.124,6.188c2.973-.381,2.126-2.135,1.136-3.526-2.18-3.064.605-.38,1.174-.371.687.011-1.125-3.766-3.38-4.048l-2.677-20.122a96.73,96.73,0,0,1,12.415-11.937c2.392-1.823-1.609-10.534-4.321-9.046-5.524,3.029-13.45,11.989-16.108,15.936C347.845,448.81,353.915,465.127,358.795,474.507Z" transform="translate(-349.613 -429.362)" fill="#ffccbf"/>
            </g>
          </g>
          <g id="Group_5855" data-name="Group 5855" transform="translate(23.289 23.343)">
            <path id="Path_16659" data-name="Path 16659" d="M366.358,435.47c.334,1.7,2.039,7.528,6.985,9.234,0,0,5-4.34,8.5-6.744,3.441-2.361,2.11-12.146-5.554-11.445A29.361,29.361,0,0,0,366.358,435.47Z" transform="translate(-366.358 -426.478)" fill="#f78a99"/>
          </g>
        </g>
        <g id="Group_5859" data-name="Group 5859" transform="translate(327.483 0)">
          <g id="Group_5857" data-name="Group 5857">
            <circle id="Ellipse_636" data-name="Ellipse 636" cx="4.794" cy="4.794" r="4.794" transform="translate(18.147 9.657) rotate(-26.589)" fill="#2d77c1"/>
            <path id="Path_16660" data-name="Path 16660" d="M1144.327,337.119l5.139,8.692a5.17,5.17,0,0,1-5.139-8.692Z" transform="translate(-1142.687 -317.897)" fill="#f4c043"/>
            <path id="Path_16661" data-name="Path 16661" d="M1145.037,337.96l2.505,4.238a1.612,1.612,0,0,1-1.885,2.358l-.032-.011a5.18,5.18,0,0,0,5.27,1.266l-5.139-8.692A5.153,5.153,0,0,0,1145.037,337.96Z" transform="translate(-1144.116 -317.897)" fill="#eba62f"/>
            <path id="Path_16662" data-name="Path 16662" d="M1154.855,336.1a5.171,5.171,0,0,1-1.818,7.083,5.087,5.087,0,0,1-1.024.464l-5.139-8.692a5.1,5.1,0,0,1,.9-.674A5.169,5.169,0,0,1,1154.855,336.1Z" transform="translate(-1145.233 -315.732)" fill="#ffbc47"/>
            <path id="Path_16663" data-name="Path 16663" d="M1179.113,311c-5.968-1.681-16.072,2.207-23.1,4.655l-4.912-8.309c5.462-4.782,13.451-11.335,15.213-18Z" transform="translate(-1147.804 -288.847)" fill="#f4c043"/>
            <path id="Path_16664" data-name="Path 16664" d="M1169.134,293.066h0a12.116,12.116,0,0,1-6.7,17.694c-1.4.453-2.775.927-4.092,1.388l2.074,3.508c7.028-2.448,17.131-6.336,23.1-4.655l-12.8-21.649A15.351,15.351,0,0,1,1169.134,293.066Z" transform="translate(-1152.208 -288.847)" fill="#eba62f"/>
            <path id="Path_16665" data-name="Path 16665" d="M1152.289,322.889l6.477,10.956a.544.544,0,0,1-.193.746l-6.3,3.725a.544.544,0,0,1-.746-.19l-6.477-10.956a.546.546,0,0,1,.193-.746l6.3-3.725A.546.546,0,0,1,1152.289,322.889Z" transform="translate(-1144.077 -309.081)" fill="#4693ea"/>
            <path id="Path_16666" data-name="Path 16666" d="M1176.976,365.015l-4.054,2.4a1.024,1.024,0,0,1-1.47-.5l-3.885-9.584,3.157-1.867,6.525,8.023A1.024,1.024,0,0,1,1176.976,365.015Z" transform="translate(-1157.818 -329.053)" fill="#4693ea"/>
            <path id="Path_16667" data-name="Path 16667" d="M1180.271,363.487l-6.525-8.023-1.211.716,4.244,6.888a1.024,1.024,0,0,1-.273,1.527l-2.4,1.418.366.9a1.024,1.024,0,0,0,1.47.5l4.054-2.4A1.024,1.024,0,0,0,1180.271,363.487Z" transform="translate(-1160.839 -329.053)" fill="#2d77c1"/>
            <rect id="Rectangle_4585" data-name="Rectangle 4585" width="0.993" height="25.149" transform="translate(18.51 0.505) rotate(-30.591)" fill="#4693ea"/>
            <rect id="Rectangle_4586" data-name="Rectangle 4586" width="5.584" height="0.538" rx="0.269" transform="matrix(0.861, -0.509, 0.509, 0.861, 2.75, 18.321)" fill="#2d77c1"/>
            <rect id="Rectangle_4587" data-name="Rectangle 4587" width="5.584" height="0.538" rx="0.269" transform="matrix(0.861, -0.509, 0.509, 0.861, 3.712, 19.949)" fill="#2d77c1"/>
            <rect id="Rectangle_4588" data-name="Rectangle 4588" width="5.584" height="0.538" rx="0.269" transform="matrix(0.861, -0.509, 0.509, 0.861, 4.675, 21.577)" fill="#2d77c1"/>
            <rect id="Rectangle_4589" data-name="Rectangle 4589" width="5.584" height="0.538" rx="0.269" transform="matrix(0.861, -0.509, 0.509, 0.861, 5.638, 23.205)" fill="#2d77c1"/>
            <rect id="Rectangle_4590" data-name="Rectangle 4590" width="5.584" height="0.538" rx="0.269" transform="matrix(0.861, -0.509, 0.509, 0.861, 6.6, 24.834)" fill="#2d77c1"/>
            <rect id="Rectangle_4591" data-name="Rectangle 4591" width="5.584" height="0.538" rx="0.269" transform="matrix(0.861, -0.509, 0.509, 0.861, 7.563, 26.462)" fill="#2d77c1"/>
          </g>
          <g id="Group_5858" data-name="Group 5858" transform="translate(27.671 3.534)">
            <path id="Path_16668" data-name="Path 16668" d="M1214.222,297.1a.22.22,0,0,0-.285.107,14.324,14.324,0,0,0-.616,1.424.215.215,0,0,0,.392.178,14.178,14.178,0,0,1,.617-1.425A.217.217,0,0,0,1214.222,297.1Z" transform="translate(-1213.305 -297.08)" fill="#4693ea"/>
            <path id="Path_16669" data-name="Path 16669" d="M1222.25,300.363l-3.34,2.561c-.219.168.034.517.255.348l3.34-2.561C1222.724,300.542,1222.471,300.194,1222.25,300.363Z" transform="translate(-1216.662 -299.049)" fill="#4693ea"/>
            <path id="Path_16670" data-name="Path 16670" d="M1223.96,313.285l-1.551.3a.215.215,0,1,0,.095.42l1.551-.3a.215.215,0,0,0-.095-.42Z" transform="translate(-1218.74 -306.933)" fill="#4693ea"/>
          </g>
        </g>
      </g>
      <g id="Group_5866" data-name="Group 5866" transform="translate(376.895 292.397)">
        <g id="Group_5861" data-name="Group 5861" transform="translate(0 4.15)">
          <path id="Path_16671" data-name="Path 16671" d="M907.935,367.458a6.26,6.26,0,0,0-5.333,9.536c-.8.592-1.113,1.922-1.392,3.307a8.321,8.321,0,0,1,3.951-.973,6.26,6.26,0,1,0,2.775-11.871Z" transform="translate(-901.21 -367.458)" fill="#c9e0ff"/>
        </g>
        <g id="Group_5862" data-name="Group 5862" transform="translate(7.199)">
          <path id="Path_16672" data-name="Path 16672" d="M931.861,369.709c-1.329-.855-2.653-1.431-3.951-.973a6.216,6.216,0,0,1-2.054.607,7.06,7.06,0,0,0-6.274-9.109,6.26,6.26,0,1,1,10.887,6.168C931.408,366.962,931.74,368.216,931.861,369.709Z" transform="translate(-919.582 -356.866)" fill="#c9e0ff"/>
        </g>
        <g id="Group_5863" data-name="Group 5863" transform="translate(3.472 9.624)">
          <path id="Path_16673" data-name="Path 16673" d="M910.07,382.124a.7.7,0,1,1,.7.7A.7.7,0,0,1,910.07,382.124Z" transform="translate(-910.07 -381.428)" fill="#fff"/>
        </g>
        <g id="Group_5864" data-name="Group 5864" transform="translate(5.796 9.624)">
          <path id="Path_16674" data-name="Path 16674" d="M916,382.124a.7.7,0,1,1,.7.7A.7.7,0,0,1,916,382.124Z" transform="translate(-916.003 -381.428)" fill="#fff"/>
        </g>
        <g id="Group_5865" data-name="Group 5865" transform="translate(8.122 9.624)">
          <path id="Path_16675" data-name="Path 16675" d="M921.937,382.124a.7.7,0,1,1,.7.7A.7.7,0,0,1,921.937,382.124Z" transform="translate(-921.937 -381.428)" fill="#fff"/>
        </g>
      </g>
      <g id="Group_5867" data-name="Group 5867" transform="translate(208.508 276.472)">
        <path id="Path_16676" data-name="Path 16676" d="M482.043,331.636c0-2.538-1.472-3.958-4.363-5.091V320.53a6.906,6.906,0,0,1,3.041.823l.622-1.839a7.8,7.8,0,0,0-3.664-.853v-2.438h-1.842v2.61a4.685,4.685,0,0,0-4,4.567c0,2.28,1.512,3.715,4,4.717v6.676a8,8,0,0,1-3.793-1.136l-.57,1.892a9,9,0,0,0,4.363,1.112V339.1h1.842V336.5C480.614,335.936,482.043,333.917,482.043,331.636Zm-7.927-8.5a2.512,2.512,0,0,1,1.721-2.354v4.925A2.77,2.77,0,0,1,474.116,323.14Zm3.564,11.422v-5.669c1.455.756,2.058,1.615,2.058,2.925A2.783,2.783,0,0,1,477.68,334.562Z" transform="translate(-471.474 -316.223)" fill="#c9e0ff"/>
      </g>
      <g id="Group_5868" data-name="Group 5868" transform="translate(427.722 271.856)">
        <path id="Path_16677" data-name="Path 16677" d="M1030.926,308.737a4.912,4.912,0,0,1,.5-2.164,3.484,3.484,0,0,1,1.517-1.579,5.007,5.007,0,0,1,2.415-.552,4.4,4.4,0,0,1,3.235,1.171,4.731,4.731,0,0,1,0,6.258,4.4,4.4,0,0,1-3.235,1.171,5.007,5.007,0,0,1-2.415-.552,3.484,3.484,0,0,1-1.517-1.579A4.935,4.935,0,0,1,1030.926,308.737Zm3.135.022a3.518,3.518,0,0,0,.446,2.008.971.971,0,0,0,.848.413.942.942,0,0,0,.837-.413,4.744,4.744,0,0,0,0-4.016.951.951,0,0,0-.837-.4.98.98,0,0,0-.848.4A3.518,3.518,0,0,0,1034.061,308.758Zm10.75-4.316h2.358l-9.448,17.469h-2.332Zm-2.093,13.14a4.94,4.94,0,0,1,.491-2.17,3.476,3.476,0,0,1,1.517-1.578,4.969,4.969,0,0,1,2.409-.558,4.4,4.4,0,0,1,3.246,1.177,4.732,4.732,0,0,1,0,6.258,4.4,4.4,0,0,1-3.246,1.177,4.969,4.969,0,0,1-2.409-.558,3.475,3.475,0,0,1-1.517-1.579A4.936,4.936,0,0,1,1042.717,317.582Zm3.134.023a3.514,3.514,0,0,0,.447,2.008.95.95,0,0,0,.836.4.981.981,0,0,0,.848-.4,3.517,3.517,0,0,0,.446-2.008,3.576,3.576,0,0,0-.446-2.02.981.981,0,0,0-.848-.4.942.942,0,0,0-.836.413A3.514,3.514,0,0,0,1045.851,317.605Z" transform="translate(-1030.926 -304.442)" fill="#c9e0ff"/>
      </g>
      <g id="Group_5869" data-name="Group 5869" transform="translate(39.08 345.421)">
        <path id="Path_16678" data-name="Path 16678" d="M42.516,499.058a3.436,3.436,0,1,1,3.435-3.436A3.439,3.439,0,0,1,42.516,499.058Zm0-5.812a2.377,2.377,0,1,0,2.377,2.377A2.38,2.38,0,0,0,42.516,493.246Z" transform="translate(-39.08 -492.187)" fill="#8fa5cc"/>
      </g>
      <g id="Group_5870" data-name="Group 5870" transform="translate(289.909 277.155)">
        <path id="Path_16679" data-name="Path 16679" d="M682.652,324.836a3.435,3.435,0,1,1,3.435-3.435A3.439,3.439,0,0,1,682.652,324.836Zm0-5.813a2.377,2.377,0,1,0,2.377,2.377A2.38,2.38,0,0,0,682.652,319.023Z" transform="translate(-679.216 -317.965)" fill="#8fa5cc"/>
      </g>
      <g id="Group_5876" data-name="Group 5876" transform="translate(104.528 250.861)">
        <g id="Group_5875" data-name="Group 5875" transform="translate(0 0)">
          <g id="Group_5874" data-name="Group 5874">
            <g id="Group_5873" data-name="Group 5873">
              <g id="Group_5872" data-name="Group 5872">
                <g id="Group_5871" data-name="Group 5871">
                  <path id="Path_16680" data-name="Path 16680" d="M206.118,251.954a1.249,1.249,0,0,1,1.715-1l4.025,1.661a1.248,1.248,0,0,1,.285,2.142l-3.451,2.655a1.248,1.248,0,0,1-2-.824l-.574-4.316A1.255,1.255,0,0,1,206.118,251.954Zm5.526,1.851a.287.287,0,0,0,0-.069.26.26,0,0,0-.161-.209l-4.025-1.661a.264.264,0,0,0-.362.279l.574,4.316a.264.264,0,0,0,.423.174l3.451-2.656A.253.253,0,0,0,211.644,253.805Z" transform="translate(-206.109 -250.861)" fill="#de6f72"/>
                </g>
              </g>
            </g>
          </g>
        </g>
      </g>
      <g id="Group_5882" data-name="Group 5882" transform="translate(497.628 354.515)">
        <g id="Group_5881" data-name="Group 5881">
          <g id="Group_5880" data-name="Group 5880">
            <g id="Group_5879" data-name="Group 5879">
              <g id="Group_5878" data-name="Group 5878">
                <g id="Group_5877" data-name="Group 5877">
                  <path id="Path_16681" data-name="Path 16681" d="M1209.342,516.49a1.249,1.249,0,0,1,1.715-1l4.025,1.661a1.248,1.248,0,0,1,.285,2.142l-3.451,2.656a1.248,1.248,0,0,1-2-.824l-.575-4.316A1.282,1.282,0,0,1,1209.342,516.49Zm5.526,1.851a.287.287,0,0,0,0-.069.26.26,0,0,0-.161-.209l-4.025-1.661a.264.264,0,0,0-.362.279l.574,4.317a.264.264,0,0,0,.423.175l3.451-2.656A.254.254,0,0,0,1214.868,518.341Z" transform="translate(-1209.333 -515.396)" fill="#de6f72"/>
                </g>
              </g>
            </g>
          </g>
        </g>
      </g>
    </g>
    <g transform="matrix(1, 0, 0, 1, -1482, -4418)" filter="url(#Path_24)">
      <path id="Path_24-2" data-name="Path 24" d="M10.108,18.9l-.294.281-.339.322a5.883,5.883,0,0,1-1.168-1.878,7.508,7.508,0,0,1-.51-2.369,7.421,7.421,0,0,1,.3-2.53A6.762,6.762,0,0,1,9.361,10.36a6.334,6.334,0,0,1,2.027-1.649,5.97,5.97,0,0,1,4.818-.272,6.424,6.424,0,0,1,2.208,1.4l.093.091.091.093.089.095.088.1a7.235,7.235,0,0,1,1.431,2.5,7.49,7.49,0,0,1,.37,2.7,7.37,7.37,0,0,1-.585,2.568,6.3,6.3,0,0,1-1.437,2.087l-.345-.506L18.03,19.3a5.62,5.62,0,0,0,.785-1.009,5.928,5.928,0,0,0,.546-1.163,6.179,6.179,0,0,0,.291-1.269,6.318,6.318,0,0,0,.019-1.328,6.235,6.235,0,0,0-.183-1.125,6.146,6.146,0,0,0-.379-1.057,5.965,5.965,0,0,0-.561-.96,5.714,5.714,0,0,0-.729-.833A5.505,5.505,0,0,0,15.93,9.356a5.113,5.113,0,0,0-4.127.224,5.423,5.423,0,0,0-1.738,1.408,5.943,5.943,0,0,0-1.029,1.859A6.363,6.363,0,0,0,8.7,14.927a6.456,6.456,0,0,0,.358,2.088,6.172,6.172,0,0,0,1.05,1.879Zm-.3-4.454a5.1,5.1,0,0,1,.463-1.857,4.724,4.724,0,0,1,1.051-1.458,4.326,4.326,0,0,1,1.484-.915,4.118,4.118,0,0,1,1.762-.23,4.255,4.255,0,0,1,1.715.53,4.658,4.658,0,0,1,1.356,1.157,5.065,5.065,0,0,1,.865,1.615,5.242,5.242,0,0,1,.242,1.908,5.1,5.1,0,0,1-.457,1.85A4.729,4.729,0,0,1,17.245,18.5a4.33,4.33,0,0,1-1.477.92,4.119,4.119,0,0,1-1.761.239h-.013a4.246,4.246,0,0,1-1.716-.524,4.649,4.649,0,0,1-1.361-1.155,5.057,5.057,0,0,1-.869-1.619,5.235,5.235,0,0,1-.241-1.914Zm4.719-3.574a3.376,3.376,0,0,0-1.444.19,3.547,3.547,0,0,0-1.215.751,3.873,3.873,0,0,0-.86,1.2,4.179,4.179,0,0,0-.378,1.522,4.3,4.3,0,0,0,.2,1.571,4.15,4.15,0,0,0,.715,1.328,3.815,3.815,0,0,0,1.119.946,3.485,3.485,0,0,0,1.41.427,3.376,3.376,0,0,0,1.44-.2,3.549,3.549,0,0,0,1.209-.751,3.874,3.874,0,0,0,.855-1.19,4.178,4.178,0,0,0,.378-1.512,4.306,4.306,0,0,0-.2-1.567,4.161,4.161,0,0,0-.71-1.328,3.827,3.827,0,0,0-1.113-.951,3.5,3.5,0,0,0-1.408-.436ZM39.149,14.96a1.23,1.23,0,0,0-.4.029,1.249,1.249,0,0,0-.13.039,1.21,1.21,0,0,0-.121.051,1.236,1.236,0,0,0-.115.064,1.264,1.264,0,0,0-.109.076,1.3,1.3,0,0,0-.1.088q-.049.047-.093.1t-.084.108q-.04.056-.075.116t-.065.124a1.521,1.521,0,0,0-.1.276,1.574,1.574,0,0,0-.044.29,1.616,1.616,0,0,0,.185.846,1.529,1.529,0,0,0,.152.233,1.455,1.455,0,0,0,.189.2,1.378,1.378,0,0,0,.221.156,1.286,1.286,0,0,0,.124.063,1.24,1.24,0,0,0,.128.049,1.216,1.216,0,0,0,.132.034,1.214,1.214,0,0,0,.674-.054,1.286,1.286,0,0,0,.121-.052q.059-.029.115-.064t.109-.076q.053-.041.1-.087a1.437,1.437,0,0,0,.256-.335,1.55,1.55,0,0,0,.153-.395,1.636,1.636,0,0,0-.029-.862q-.021-.068-.048-.134t-.059-.128q-.032-.063-.07-.122t-.08-.114q-.043-.055-.09-.1a1.365,1.365,0,0,0-.1-.094,1.345,1.345,0,0,0-.107-.083,1.3,1.3,0,0,0-.114-.071,1.323,1.323,0,0,0-.125-.062,1.3,1.3,0,0,0-.13-.047,1.273,1.273,0,0,0-.134-.033,1.253,1.253,0,0,0-.136-.018Zm.043-.727a1.832,1.832,0,0,1,.2.028,1.859,1.859,0,0,1,.2.05,1.9,1.9,0,0,1,.192.072,1.94,1.94,0,0,1,.185.093,2.045,2.045,0,0,1,.332.233,2.162,2.162,0,0,1,.283.295,2.271,2.271,0,0,1,.228.348,2.364,2.364,0,0,1,.165.392q.034.1.058.212t.037.217q.014.109.017.22t0,.221l-.123,2.109-.67-.058.027-.471q-.072.06-.148.112t-.156.1q-.08.045-.163.082t-.17.066a1.832,1.832,0,0,1-.369.081,1.825,1.825,0,0,1-.377,0,1.786,1.786,0,0,1-.2-.027,1.813,1.813,0,0,1-.2-.049,1.852,1.852,0,0,1-.191-.071,1.891,1.891,0,0,1-.184-.093q-.086-.05-.168-.108t-.158-.124q-.077-.066-.147-.139t-.136-.154q-.065-.081-.122-.168t-.107-.18q-.049-.092-.09-.19t-.073-.2a2.421,2.421,0,0,1-.043-1.3,2.312,2.312,0,0,1,.144-.412,2.227,2.227,0,0,1,.209-.358,2.112,2.112,0,0,1,.265-.3,2,2,0,0,1,.313-.243,1.914,1.914,0,0,1,.353-.174,1.764,1.764,0,0,1,.788-.1ZM26.2,13.091a1.842,1.842,0,0,1,.2.028,1.873,1.873,0,0,1,.2.051,1.91,1.91,0,0,1,.194.073,1.949,1.949,0,0,1,.187.094q.088.05.172.108t.161.125q.078.066.15.141t.138.155a2.269,2.269,0,0,1,.236.36,2.351,2.351,0,0,1,.165.4,2.413,2.413,0,0,1,.1.865l-.126,2.125-.672-.058.126-2.125q0-.074,0-.149t-.011-.148q-.009-.074-.024-.146t-.038-.143q-.022-.069-.049-.135t-.06-.129q-.033-.063-.071-.123t-.081-.115q-.043-.055-.091-.106t-.1-.1a1.354,1.354,0,0,0-.108-.084,1.321,1.321,0,0,0-.116-.072,1.349,1.349,0,0,0-.127-.062,1.322,1.322,0,0,0-.132-.048,1.29,1.29,0,0,0-.136-.033,1.272,1.272,0,0,0-.138-.018,1.25,1.25,0,0,0-.54.068,1.234,1.234,0,0,0-.123.051,1.27,1.27,0,0,0-.117.064,1.3,1.3,0,0,0-.111.077,1.326,1.326,0,0,0-.1.089q-.05.048-.095.1t-.086.109q-.041.057-.076.117t-.066.125q-.031.066-.056.135t-.043.141q-.018.071-.029.145t-.015.148l-.127,2.128-.667-.057.127-2.129a2.372,2.372,0,0,1,.065-.434,2.3,2.3,0,0,1,.141-.406,2.2,2.2,0,0,1,.211-.366,2.093,2.093,0,0,1,.277-.316q.075-.069.154-.129t.165-.113q.085-.052.174-.1A1.97,1.97,0,0,1,25.4,13.2a1.8,1.8,0,0,1,.8-.1Zm4.729,1.153a1.241,1.241,0,0,0-.4.028,1.27,1.27,0,0,0-.368.151,1.352,1.352,0,0,0-.311.261,1.461,1.461,0,0,0-.231.357,1.569,1.569,0,0,0-.1.277,1.621,1.621,0,0,0-.044.291,1.649,1.649,0,0,0,.071.587q.021.069.049.134t.061.128q.033.062.072.121t.083.113q.045.055.093.1t.1.095q.052.045.108.084t.115.073a1.3,1.3,0,0,0,.256.112,1.256,1.256,0,0,0,.268.053,1.234,1.234,0,0,0,.537-.073q.062-.023.122-.053t.117-.065q.057-.035.111-.076t.1-.087a1.337,1.337,0,0,0,.1-.1q.045-.051.085-.107T32,16.54q.035-.06.064-.124a1.576,1.576,0,0,0,.141-.568,1.633,1.633,0,0,0-.067-.567,1.565,1.565,0,0,0-.256-.5,1.416,1.416,0,0,0-.426-.371,1.337,1.337,0,0,0-.126-.063A1.307,1.307,0,0,0,31.2,14.3a1.28,1.28,0,0,0-.134-.034,1.258,1.258,0,0,0-.137-.019Zm.043-.73a1.828,1.828,0,0,1,.2.028,1.861,1.861,0,0,1,.2.051,1.9,1.9,0,0,1,.193.072,1.948,1.948,0,0,1,.186.094q.088.05.171.108t.16.124q.078.066.149.14t.137.155a2.26,2.26,0,0,1,.235.359,2.349,2.349,0,0,1,.164.4,2.411,2.411,0,0,1,.1.862q-.006.111-.022.22t-.043.216q-.027.106-.063.209t-.083.2q-.044.1-.1.185t-.112.173q-.06.083-.127.16t-.141.146q-.074.069-.154.129t-.164.113q-.084.052-.173.1a1.955,1.955,0,0,1-.181.077,1.825,1.825,0,0,1-.395.1,1.949,1.949,0,0,1-.608-.019,1.839,1.839,0,0,1-.2-.05,1.867,1.867,0,0,1-.192-.072,1.9,1.9,0,0,1-.185-.094q-.087-.05-.17-.108t-.16-.124q-.077-.066-.149-.14t-.137-.154q-.065-.081-.123-.169t-.107-.18q-.05-.093-.091-.191t-.074-.2q-.034-.106-.058-.214T28.826,16q-.014-.11-.017-.221t0-.222a2.379,2.379,0,0,1,.065-.432,2.3,2.3,0,0,1,.14-.4,2.2,2.2,0,0,1,.21-.366,2.086,2.086,0,0,1,.275-.315q.074-.069.153-.129t.164-.113q.084-.052.173-.1a1.961,1.961,0,0,1,.181-.077,1.8,1.8,0,0,1,.195-.06,1.782,1.782,0,0,1,.6-.044Zm4.23,4.722,1.914-4.084-.719-.064-.174.374-.176.378-.178.383-.18.388-.18.389-.18.386-.179.384-.178.381L33.914,13.87l-.722-.064,1.42,4.38Zm8.183-2.762a1.236,1.236,0,0,1,.129-.039,1.214,1.214,0,0,1,.4-.029,1.241,1.241,0,0,1,.135.018,1.266,1.266,0,0,1,.133.033,1.289,1.289,0,0,1,.13.047,1.333,1.333,0,0,1,.125.061,1.3,1.3,0,0,1,.113.071,1.324,1.324,0,0,1,.106.083q.051.044.1.094t.09.1q.042.055.08.114t.07.121q.032.062.059.128t.048.134a1.626,1.626,0,0,1,.031.86,1.54,1.54,0,0,1-.152.394,1.423,1.423,0,0,1-.256.333q-.049.046-.1.087t-.108.076a1.3,1.3,0,0,1-.115.064,1.274,1.274,0,0,1-.12.052,1.2,1.2,0,0,1-.265.066,1.361,1.361,0,0,1-.406-.014,1.209,1.209,0,0,1-.131-.033,1.242,1.242,0,0,1-.128-.048,1.272,1.272,0,0,1-.123-.062,1.379,1.379,0,0,1-.22-.156,1.458,1.458,0,0,1-.188-.2,1.537,1.537,0,0,1-.151-.232,1.6,1.6,0,0,1-.185-.843,1.569,1.569,0,0,1,.044-.289,1.515,1.515,0,0,1,.1-.275q.03-.064.064-.124t.074-.116q.04-.056.084-.108t.093-.1a1.282,1.282,0,0,1,.1-.088,1.256,1.256,0,0,1,.108-.076,1.224,1.224,0,0,1,.115-.064A1.2,1.2,0,0,1,43.384,15.474Zm1.34-.55a1.914,1.914,0,0,0-.183-.093,1.86,1.86,0,0,0-.19-.072,1.826,1.826,0,0,0-.2-.05,1.8,1.8,0,0,0-.2-.028,1.751,1.751,0,0,0-.594.045,1.777,1.777,0,0,0-.192.06,1.931,1.931,0,0,0-.178.077q-.087.043-.17.095t-.161.112q-.078.06-.151.128a2.066,2.066,0,0,0-.271.313,2.187,2.187,0,0,0-.207.363,2.3,2.3,0,0,0-.138.4,2.383,2.383,0,0,0-.063.429q-.007.11,0,.22t.017.219q.014.109.038.216t.058.211a2.4,2.4,0,0,0,.165.388,2.309,2.309,0,0,0,.226.345,2.193,2.193,0,0,0,.28.293,2.072,2.072,0,0,0,.327.233,1.887,1.887,0,0,0,.183.092,1.835,1.835,0,0,0,.19.071,1.8,1.8,0,0,0,.195.049,1.768,1.768,0,0,0,.2.027.775.775,0,0,1,.088.012.792.792,0,0,1,.086.022.806.806,0,0,1,.084.031.829.829,0,0,1,.081.041.933.933,0,0,1,.144.1.99.99,0,0,1,.123.131,1.037,1.037,0,0,1,.1.153,1.08,1.08,0,0,1,.073.171q.015.046.026.093t.017.095q.006.048.007.1t0,.1a.889.889,0,0,1-.01.1.876.876,0,0,1-.02.094.863.863,0,0,1-.03.091.834.834,0,0,1-.04.086q-.023.042-.05.081t-.056.076q-.03.036-.063.069t-.068.063c-.025.021-.051.041-.078.059a.963.963,0,0,1-.17.092.931.931,0,0,1-.091.032q-.049.015-.1.025t-.1.016q-.05.005-.1.006t-.1,0l-.042.716a1.566,1.566,0,0,0,.657-.08q.075-.026.148-.059t.142-.073q.07-.04.136-.086t.129-.1a1.524,1.524,0,0,0,.115-.109,1.563,1.563,0,0,0,.1-.121q.049-.063.092-.132t.08-.142a1.575,1.575,0,0,0,.066-.152,1.638,1.638,0,0,0,.05-.159,1.66,1.66,0,0,0,.034-.164q.013-.083.018-.168a1.774,1.774,0,0,0-.051-.542,1.753,1.753,0,0,0-.054-.174q-.03-.082-.066-.162t-.078-.154q-.042-.075-.09-.146t-.1-.137a1.907,1.907,0,0,0,.433-.312,2.058,2.058,0,0,0,.336-.421,2.211,2.211,0,0,0,.224-.5,2.327,2.327,0,0,0,.1-.563,2.414,2.414,0,0,0-.1-.856,2.346,2.346,0,0,0-.162-.395,2.251,2.251,0,0,0-.231-.357q-.064-.081-.135-.154t-.147-.14q-.077-.066-.158-.124t-.168-.107Zm5.041,2.112q-.012-.06-.027-.118T49.7,16.8q-.019-.057-.042-.113t-.049-.109q-.026-.053-.056-.1t-.063-.1q-.033-.047-.07-.092t-.077-.085q-.04-.041-.084-.078t-.089-.07q-.046-.033-.094-.062t-.1-.054a1.285,1.285,0,0,0-.217-.083,1.243,1.243,0,0,0-.225-.041,1.222,1.222,0,0,0-.452.045q-.053.016-.1.036c-.034.014-.067.029-.1.045s-.065.035-.1.054-.062.04-.092.063-.059.046-.087.071-.055.051-.081.079-.051.056-.075.086-.047.06-.069.092-.043.065-.062.1-.038.069-.054.1-.032.072-.046.109-.027.075-.038.113ZM48.328,19.47a1.787,1.787,0,0,1-.2-.027,1.811,1.811,0,0,1-.195-.049,1.843,1.843,0,0,1-.19-.071,1.893,1.893,0,0,1-.183-.092A2.055,2.055,0,0,1,47.235,19a2.174,2.174,0,0,1-.28-.292,2.293,2.293,0,0,1-.226-.344,2.39,2.39,0,0,1-.165-.388q-.034-.1-.058-.211t-.037-.215q-.014-.109-.017-.218t0-.219a2.38,2.38,0,0,1,.063-.428,2.293,2.293,0,0,1,.137-.4,2.182,2.182,0,0,1,.206-.362,2.056,2.056,0,0,1,.27-.312q.073-.068.152-.128t.162-.112a1.938,1.938,0,0,1,.17-.094,1.906,1.906,0,0,1,.178-.076,1.817,1.817,0,0,1,.785-.1,1.85,1.85,0,0,1,.391.078,1.926,1.926,0,0,1,.374.163,2,2,0,0,1,.326.23,2.118,2.118,0,0,1,.278.292,2.23,2.23,0,0,1,.222.345,2.328,2.328,0,0,1,.16.388q.033.1.057.212t.037.217q.014.109.017.22t0,.221l-.007.126q0,.017,0,.04c0,.015,0,.032-.006.051s-.005.04-.008.062l-.011.073-3.261-.284q.009.061.024.12t.033.117q.019.058.042.114t.051.11q.027.053.058.1t.065.1q.034.047.071.092t.077.086q.04.042.083.08t.089.072q.046.034.094.063t.1.054q.053.026.107.046t.109.036q.055.015.112.025t.113.014a.715.715,0,0,0,.284-.036.734.734,0,0,0,.09-.037q.05-.024.1-.052t.094-.059q.046-.031.09-.066t.085-.073l.429.544q-.065.061-.134.115t-.142.1q-.073.048-.149.09t-.155.077a1.294,1.294,0,0,1-.152.057,1.271,1.271,0,0,1-.478.051Zm5.16-3.783a1.467,1.467,0,0,0-.3-.153,1.4,1.4,0,0,0-.317-.077,1.361,1.361,0,0,0-.643.077,1.45,1.45,0,0,0-.267.133,1.52,1.52,0,0,0-.236.185,1.607,1.607,0,0,0-.2.231,1.709,1.709,0,0,0-.158.272q-.035.074-.063.152t-.048.158q-.02.08-.032.163t-.017.167l-.15,2.607.647.056.15-2.608q0-.048.009-.1t.018-.094q.011-.046.027-.091t.035-.087q.019-.041.042-.079t.048-.074q.026-.036.054-.069t.06-.063a.864.864,0,0,1,.141-.109.822.822,0,0,1,.156-.075.792.792,0,0,1,.339-.043.768.768,0,0,1,.087.012.781.781,0,0,1,.085.022.8.8,0,0,1,.083.031.82.82,0,0,1,.08.041q.037.022.073.048t.069.054q.033.029.064.061t.059.067q.028.035.053.072t.047.077q.022.04.04.082t.033.086q.015.046.025.093t.016.095q.006.048.007.1t0,.1l-.149,2.605.645.056.149-2.6q0-.048.009-.1t.018-.093q.011-.046.027-.091t.035-.087q.019-.041.042-.079t.048-.074q.026-.036.054-.069t.06-.063a.857.857,0,0,1,.14-.108.818.818,0,0,1,.156-.075.789.789,0,0,1,.339-.043.761.761,0,0,1,.087.012.781.781,0,0,1,.085.022.791.791,0,0,1,.083.031.814.814,0,0,1,.08.041.912.912,0,0,1,.14.1.96.96,0,0,1,.12.127,1.012,1.012,0,0,1,.1.149,1.059,1.059,0,0,1,.072.168q.015.046.025.092t.016.094q.006.048.007.1t0,.1l-.149,2.6.651.056.149-2.6q.005-.084,0-.167t-.013-.167q-.011-.083-.029-.164t-.044-.161a1.823,1.823,0,0,0-.125-.3,1.753,1.753,0,0,0-.171-.263,1.666,1.666,0,0,0-.212-.224,1.567,1.567,0,0,0-.248-.178,1.419,1.419,0,0,0-.138-.071,1.378,1.378,0,0,0-.143-.055,1.353,1.353,0,0,0-.148-.038,1.324,1.324,0,0,0-.15-.021,1.3,1.3,0,0,0-.52.052,1.324,1.324,0,0,0-.165.064,1.571,1.571,0,0,0-.153.083,1.608,1.608,0,0,0-.144.1,1.653,1.653,0,0,0-.133.116,1.717,1.717,0,0,0-.122.131,1.779,1.779,0,0,0-.1-.152,1.721,1.721,0,0,0-.118-.139,1.677,1.677,0,0,0-.131-.124,1.623,1.623,0,0,0-.142-.108Zm4.9,2.759a.941.941,0,0,1-.1-.013.957.957,0,0,1-.1-.024.984.984,0,0,1-.1-.035A1.013,1.013,0,0,1,58,18.329q-.044-.024-.086-.053t-.082-.061q-.04-.033-.077-.069t-.071-.076q-.034-.04-.064-.083T57.56,17.9q-.027-.046-.049-.095t-.041-.1q-.019-.053-.033-.108t-.023-.11q-.009-.056-.012-.112t0-.113q0-.033,0-.065t0-.065q0-.032.006-.065T57.415,17q0-.055.015-.109t.025-.107q.015-.052.035-.1t.044-.1q.024-.048.052-.092t.059-.086q.031-.041.066-.08t.073-.073q.038-.034.079-.065a1,1,0,0,1,.084-.056q.043-.026.088-.047a.978.978,0,0,1,.092-.038.951.951,0,0,1,.1-.029.935.935,0,0,1,.3-.02l1.448.128-.041.719-1.448-.128a.351.351,0,0,0-.15.017.364.364,0,0,0-.07.032.381.381,0,0,0-.063.047.42.42,0,0,0-.056.06.448.448,0,0,0-.044.07.482.482,0,0,0-.032.078.5.5,0,0,0-.018.085q-.005.021-.008.043t0,.044q0,.022,0,.044t0,.044a.51.51,0,0,0,.009.085.5.5,0,0,0,.023.081.479.479,0,0,0,.036.075.461.461,0,0,0,.048.067.415.415,0,0,0,.057.058.389.389,0,0,0,.065.044.371.371,0,0,0,.071.03.357.357,0,0,0,.076.014l.521.046a.935.935,0,0,1,.1.014.955.955,0,0,1,.1.025.971.971,0,0,1,.1.036,1.008,1.008,0,0,1,.094.047q.045.025.087.054t.082.063q.039.033.076.071t.07.079q.033.041.062.084t.055.09q.026.046.048.094t.041.1q.019.053.033.107t.023.11q.009.056.012.112t0,.113l-.013.234a1.132,1.132,0,0,1-.011.115,1.113,1.113,0,0,1-.023.112,1.1,1.1,0,0,1-.034.109,1.088,1.088,0,0,1-.044.1q-.024.049-.052.094t-.059.089q-.031.043-.065.083T59.564,20a.99.99,0,0,1-.078.069.949.949,0,0,1-.084.06.933.933,0,0,1-.09.05.908.908,0,0,1-.094.039.985.985,0,0,1-.1.03.966.966,0,0,1-.315.022l-1.489-.128.041-.711,1.489.129a.341.341,0,0,0,.141-.015.352.352,0,0,0,.066-.029.369.369,0,0,0,.06-.043.489.489,0,0,0,.053-.051.514.514,0,0,0,.045-.059.537.537,0,0,0,.037-.065.549.549,0,0,0,.028-.071l0-.034s0,0,0-.007v-.007l0-.007,0-.007,0-.007,0-.007v-.007s0,0,0-.007l.009-.158a.524.524,0,0,0-.025-.177.513.513,0,0,0-.034-.082.482.482,0,0,0-.048-.074.428.428,0,0,0-.059-.062.4.4,0,0,0-.068-.047.381.381,0,0,0-.075-.031.365.365,0,0,0-.08-.014Z" transform="translate(82.41 41.13)" fill="#786ce5"/>
    </g>
  </g>
</svg>
