<svg width="100" height="31" viewBox="0 0 100 31" fill="none" xmlns="http://www.w3.org/2000/svg">
<path d="M9.91801 27.8412L94.298 25.2955C96.298 25.2353 97.898 24.3583 97.998 23.2598L99.49 8.20471C99.607 7.02927 97.984 6.02019 95.846 5.93742L7.124 2.50054C4.736 2.40858 2.75499 3.50377 2.93299 4.8113L5.79099 25.8473C5.94599 27.0202 7.78201 27.9055 9.91801 27.8412Z" fill="#F18020"/>
<path d="M89.9 27.6129L5.70598 25.0622C3.70598 25.0012 2.10601 24.1242 1.99801 23.0265L0.506002 7.9706C0.390002 6.79515 2.01301 5.78608 4.15301 5.70331L92.688 2.27563C95.078 2.18366 97.062 3.27885 96.888 4.58555L94.04 25.6207C93.873 26.7911 92.038 27.6773 89.9 27.6129Z" fill="#F5C143" stroke="#292D34"/>
<path d="M67.737 1.32008C67.737 1.58116 67.6444 1.83639 67.4709 2.05347C67.2974 2.27056 67.0508 2.43975 66.7623 2.53967C66.4738 2.63958 66.1562 2.66572 65.85 2.61479C65.5437 2.56385 65.2623 2.43813 65.0415 2.25351C64.8207 2.0689 64.6703 1.83368 64.6094 1.57761C64.5484 1.32154 64.5797 1.05612 64.6992 0.814905C64.8187 0.573693 65.0211 0.367525 65.2808 0.222473C65.5404 0.0774211 65.8457 0 66.158 0C66.5768 0 66.9784 0.139079 67.2745 0.386642C67.5707 0.634204 67.737 0.969971 67.737 1.32008Z" fill="#292D34"/>
<path d="M71.794 1.0166C71.7942 1.2179 71.723 1.41473 71.5893 1.58217C71.4557 1.74962 71.2656 1.88016 71.0432 1.95727C70.8208 2.03438 70.576 2.0546 70.3399 2.01537C70.1037 1.97613 69.8867 1.87922 69.7165 1.73687C69.5462 1.59453 69.4303 1.41317 69.3833 1.21572C69.3364 1.01828 69.3606 0.813642 69.4529 0.627695C69.5451 0.441749 69.7012 0.282855 69.9015 0.171121C70.1018 0.0593876 70.3372 -0.000164997 70.578 3.4335e-07C70.9005 3.4335e-07 71.2098 0.107106 71.4379 0.297755C71.6659 0.488405 71.794 0.746982 71.794 1.0166Z" fill="#292D34"/>
<path d="M99.207 27.5285C99.207 27.7894 99.1145 28.0445 98.9411 28.2614C98.7677 28.4784 98.5212 28.6475 98.2329 28.7473C97.9445 28.8472 97.6272 28.8733 97.3211 28.8224C97.015 28.7715 96.7339 28.6458 96.5132 28.4613C96.2925 28.2768 96.1422 28.0418 96.0813 27.7859C96.0204 27.53 96.0517 27.2647 96.1711 27.0236C96.2905 26.7826 96.4928 26.5765 96.7523 26.4316C97.0118 26.2866 97.3169 26.2093 97.629 26.2093C98.0475 26.2093 98.4489 26.3482 98.7448 26.5957C99.0407 26.8431 99.207 27.1786 99.207 27.5285Z" fill="#292D34"/>
<path d="M70.254 29.2724C70.254 29.533 70.1616 29.7878 69.9884 30.0044C69.8152 30.2211 69.5691 30.39 69.2811 30.4897C68.9932 30.5894 68.6763 30.6155 68.3706 30.5647C68.0648 30.5138 67.784 30.3884 67.5636 30.2041C67.3432 30.0198 67.1931 29.7851 67.1323 29.5295C67.0715 29.2739 67.1027 29.009 67.222 28.7682C67.3413 28.5275 67.5433 28.3217 67.8024 28.1769C68.0616 28.0321 68.3663 27.9549 68.678 27.9549C69.096 27.9549 69.4969 28.0937 69.7924 28.3408C70.088 28.5879 70.254 28.923 70.254 29.2724Z" fill="#292D34"/>
<path d="M22.0451 14.6645C21.9855 14.1607 21.7435 13.7696 21.3193 13.4912C20.895 13.2128 20.3747 13.0736 19.7582 13.0736C19.3075 13.0736 18.913 13.1465 18.575 13.2923C18.2402 13.4381 17.9784 13.6387 17.7895 13.8939C17.6039 14.1491 17.511 14.4391 17.511 14.7639C17.511 15.0357 17.5757 15.2693 17.7049 15.4649C17.8375 15.6571 18.0066 15.8179 18.212 15.9471C18.4175 16.0731 18.633 16.1775 18.8584 16.2604C19.0837 16.3399 19.2909 16.4045 19.4798 16.4542L20.5139 16.7327C20.779 16.8023 21.074 16.8984 21.3988 17.021C21.727 17.1436 22.0402 17.311 22.3385 17.5231C22.6401 17.7319 22.8887 18.0004 23.0842 18.3285C23.2798 18.6567 23.3775 19.0594 23.3775 19.5366C23.3775 20.0868 23.2334 20.584 22.945 21.0281C22.66 21.4722 22.2423 21.8252 21.6922 22.0871C21.1453 22.3489 20.4807 22.4798 19.6985 22.4798C18.9694 22.4798 18.338 22.3622 17.8044 22.1268C17.2741 21.8915 16.8565 21.5634 16.5515 21.1425C16.2499 20.7215 16.0792 20.2327 16.0395 19.6758H17.3122C17.3453 20.0603 17.4746 20.3785 17.7 20.6304C17.9287 20.879 18.217 21.0646 18.565 21.1872C18.9164 21.3065 19.2942 21.3662 19.6985 21.3662C20.1692 21.3662 20.5918 21.2899 20.9663 21.1375C21.3408 20.9817 21.6375 20.7663 21.8562 20.4912C22.075 20.2128 22.1843 19.888 22.1843 19.5167C22.1843 19.1787 22.0899 18.9036 21.901 18.6915C21.712 18.4793 21.4635 18.307 21.1552 18.1744C20.847 18.0418 20.5139 17.9258 20.1559 17.8264L18.9031 17.4684C18.1076 17.2398 17.4779 16.9133 17.0139 16.489C16.5499 16.0648 16.3179 15.5096 16.3179 14.8236C16.3179 14.2535 16.472 13.7563 16.7802 13.3321C17.0918 12.9045 17.5094 12.5731 18.0331 12.3378C18.5601 12.0991 19.1484 11.9798 19.798 11.9798C20.4542 11.9798 21.0376 12.0975 21.548 12.3328C22.0584 12.5648 22.4628 12.883 22.761 13.2873C23.0627 13.6917 23.2217 14.1507 23.2383 14.6645H22.0451ZM25.8223 22.3008H24.5297L28.2683 12.119H29.5411L33.2797 22.3008H31.9871L28.9445 13.7298H28.8649L25.8223 22.3008ZM26.2996 18.3236H31.5098V19.4173H26.2996V18.3236ZM34.3262 12.119L37.3489 20.69H37.4683L40.491 12.119H41.7836L38.045 22.3008H36.7722L33.0336 12.119H34.3262ZM43.3695 22.3008V12.119H49.5144V13.2128H44.6025V16.6531H49.1962V17.7469H44.6025V21.2071H49.594V22.3008H43.3695ZM63.7481 12.119V22.3008H62.5549L57.0066 14.3065H56.9072V22.3008H55.6742V12.119H56.8674L62.4356 20.1332H62.535V12.119H63.7481ZM74.8061 17.2099C74.8061 18.2838 74.6123 19.2118 74.2245 19.994C73.8367 20.7762 73.3047 21.3794 72.6286 21.8037C71.9525 22.2279 71.1802 22.44 70.3118 22.44C69.4435 22.44 68.6712 22.2279 67.9951 21.8037C67.3189 21.3794 66.787 20.7762 66.3992 19.994C66.0114 19.2118 65.8175 18.2838 65.8175 17.2099C65.8175 16.1361 66.0114 15.208 66.3992 14.4258C66.787 13.6436 67.3189 13.0404 67.9951 12.6162C68.6712 12.1919 69.4435 11.9798 70.3118 11.9798C71.1802 11.9798 71.9525 12.1919 72.6286 12.6162C73.3047 13.0404 73.8367 13.6436 74.2245 14.4258C74.6123 15.208 74.8061 16.1361 74.8061 17.2099ZM73.613 17.2099C73.613 16.3283 73.4655 15.5842 73.1705 14.9777C72.8788 14.3711 72.4828 13.9121 71.9823 13.6006C71.4851 13.289 70.9283 13.1332 70.3118 13.1332C69.6954 13.1332 69.1369 13.289 68.6364 13.6006C68.1392 13.9121 67.7432 14.3711 67.4482 14.9777C67.1565 15.5842 67.0107 16.3283 67.0107 17.2099C67.0107 18.0916 67.1565 18.8356 67.4482 19.4422C67.7432 20.0487 68.1392 20.5077 68.6364 20.8193C69.1369 21.1309 69.6954 21.2866 70.3118 21.2866C70.9283 21.2866 71.4851 21.1309 71.9823 20.8193C72.4828 20.5077 72.8788 20.0487 73.1705 19.4422C73.4655 18.8356 73.613 18.0916 73.613 17.2099ZM78.7287 22.3008L75.9446 12.119H77.1975L79.3253 20.4116H79.4248L81.5924 12.119H82.9844L85.152 20.4116H85.2515L87.3793 12.119H88.6321L85.8481 22.3008H84.5753L82.3282 14.1872H82.2486L80.0015 22.3008H78.7287Z" fill="#292D34"/>
</svg>
