<svg xmlns="http://www.w3.org/2000/svg" width="70" height="70" viewBox="0 0 70 70">
  <g id="Group_7680" data-name="Group 7680" transform="translate(-1251 -1446)">
    <circle id="Ellipse_60" data-name="Ellipse 60" cx="35" cy="35" r="35" transform="translate(1251 1446)" fill="#ff4955" opacity="0.2"/>
    <path id="Path_18290" data-name="Path 18290" d="M33.381,2H5.487A3.5,3.5,0,0,0,2,5.487V36.868l6.974-6.974H33.381a3.5,3.5,0,0,0,3.487-3.487V5.487A3.5,3.5,0,0,0,33.381,2Zm0,24.407H8.974L5.487,29.894V5.487H33.381ZM10.717,14.2H14.2v3.487H10.717Zm6.974,0h3.487v3.487H17.691Zm6.974,0h3.487v3.487H24.664Z" transform="translate(1267 1462)" fill="#ff4955"/>
  </g>
</svg>
