<svg xmlns="http://www.w3.org/2000/svg" xmlns:xlink="http://www.w3.org/1999/xlink" width="780.366" height="669.912" viewBox="0 0 780.366 669.912">
  <defs>
    <clipPath id="clip-path">
      <path id="Path_13646" data-name="Path 13646" d="M262.08,468.432c0,10.434,81.131,18.873,181.22,18.873s181.22-8.457,181.22-18.873C624.521,458,565.2,201.01,465.113,201.01S262.08,458,262.08,468.432Z" transform="translate(-262.08 -201.01)"/>
    </clipPath>
    <linearGradient id="linear-gradient" x1="0.615" y1="0.023" x2="0.415" y2="0.948" gradientUnits="objectBoundingBox">
      <stop offset="0" stop-color="#dc688e"/>
      <stop offset="0.023" stop-color="#ed516f"/>
      <stop offset="1" stop-color="#d44751"/>
    </linearGradient>
    <linearGradient id="linear-gradient-2" x1="0.5" y1="0.47" x2="0.5" y2="-0.012" gradientUnits="objectBoundingBox">
      <stop offset="0.043" stop-color="#f0f5f7"/>
      <stop offset="0.483" stop-color="#edf3f6"/>
      <stop offset="0.811" stop-color="#e4ebf2"/>
      <stop offset="1" stop-color="#dae3ef"/>
    </linearGradient>
    <linearGradient id="linear-gradient-3" x1="0.5" y1="-7.519" x2="0.5" y2="-8.002" gradientUnits="objectBoundingBox">
      <stop offset="0.043" stop-color="#f0f5f7"/>
      <stop offset="0.478" stop-color="#edf2f6"/>
      <stop offset="0.813" stop-color="#e3ebf2"/>
      <stop offset="1" stop-color="#dae3ef"/>
    </linearGradient>
    <linearGradient id="linear-gradient-4" y1="0.5" x2="1" y2="0.5" gradientUnits="objectBoundingBox">
      <stop offset="0.023" stop-color="#ed516f"/>
      <stop offset="1" stop-color="#d44751"/>
    </linearGradient>
    <linearGradient id="linear-gradient-5" x1="0" y1="0.5" x2="1" y2="0.5" xlink:href="#linear-gradient-4"/>
    <linearGradient id="linear-gradient-6" x1="0.076" y1="2.837" x2="0.64" y2="-0.273" xlink:href="#linear-gradient-3"/>
    <linearGradient id="linear-gradient-7" x1="3.793" y1="1.723" x2="4.692" y2="1.723" gradientUnits="objectBoundingBox">
      <stop offset="0.043" stop-color="#7973fd"/>
      <stop offset="0.254" stop-color="#a4a4fd"/>
      <stop offset="0.535" stop-color="#7973fd"/>
      <stop offset="1" stop-color="#a4a4fd"/>
    </linearGradient>
    <linearGradient id="linear-gradient-8" x1="-0.06" y1="0.666" x2="0.039" y2="0.666" gradientUnits="objectBoundingBox">
      <stop offset="0.043" stop-color="#7973fd"/>
      <stop offset="0.254" stop-color="#a4a4fd"/>
      <stop offset="1" stop-color="#7973fd"/>
    </linearGradient>
    <linearGradient id="linear-gradient-9" x1="-0.091" y1="-3.017" x2="0.93" y2="-3.017" gradientUnits="objectBoundingBox">
      <stop offset="0.033" stop-color="#214f95"/>
      <stop offset="1" stop-color="#0e408c"/>
    </linearGradient>
    <linearGradient id="linear-gradient-10" x1="-0.001" y1="0.5" x2="1" y2="0.5" xlink:href="#linear-gradient-8"/>
    <linearGradient id="linear-gradient-11" x1="0.78" y1="0.606" x2="0.316" y2="0.45" xlink:href="#linear-gradient-9"/>
  </defs>
  <g id="Group_5818" data-name="Group 5818" transform="translate(9324 21051.912)">
    <line id="Line_156" data-name="Line 156" x1="1.358" y1="1.358" transform="translate(-8605.443 -20842.605)" fill="none"/>
    <line id="Line_157" data-name="Line 157" x1="1.513" y1="1.495" transform="translate(-8614.296 -20843.379)" fill="none"/>
    <path id="Path_13642" data-name="Path 13642" d="M500.753,547.584c-.172.344-.361.688-.55,1.031H126.486a54.213,54.213,0,0,1-12.324-32.521q-.18-5.028-.5-10.055c-2.011-30.613-8.182-60.986-19.458-89.553-10.794-27.33-34.068-51.807-30.871-82.832,4.366-47.974,55.244-56.706,87.147-80.838a83.464,83.464,0,0,0,10.244-10.554,154.584,154.584,0,0,0,15.985-24.906c10.176-30.527,18.89-62.5,42.147-85.754,20.351-20.351,52.34-20.351,75.012-4.486a113.306,113.306,0,0,1,16.811,13.906c68.256,67.5,33.363,110.73,138.025,108.461,65.953-1.444,38.125,103.923,32.848,141.033-3.73,26.23-8.732,53.3-3.644,79.687,2.527,13.081,7.958,24.442,14.61,35.838.12.206.241.43.361.636C500.22,519.1,507.972,533.283,500.753,547.584Z" transform="translate(-9311.241 -20990.518)" fill="#dae3ef"/>
    <g id="Group_3854" data-name="Group 3854" transform="translate(-8906.074 -20728.197)">
      <g id="Group_3853" data-name="Group 3853" clip-path="url(#clip-path)">
        <g id="Group_3852" data-name="Group 3852" transform="translate(97.046 37.105)">
          <g id="Group_3851" data-name="Group 3851">
            <path id="Path_13643" data-name="Path 13643" d="M446.871,439.232c-50.105,32.108-43.384,70.2-59.782,67.053a9.126,9.126,0,0,1-2.286-.7c-11.877-5.346,1.152-32.538-27.21-81.8-17.928-31.18-52.7-87.92-33.38-106.243,16.553-15.659,36.818,35.237,61.5,14.765,17.945-14.885-29.255-36.079-15.573-53.285,15.143-19.045,36.337,19.114,46.96-.791,10.588-19.87-3.146-56.155,17.034-55.623a7.829,7.829,0,0,1,.911.069c19.165,1.409,17.154,31.335,14.868,50.879-2.32,19.853-4.332,25.714,1.822,25.921,6.154.224,29.788-18.392,37.626-.98,7.821,17.429-37.643,39.586-41.339,64.87-3.7,25.319,33.827-7.632,36.2,17.447C485.58,395.246,471.778,423.315,446.871,439.232Z" transform="translate(-318.539 -222.597)" fill="#c4d5e8"/>
            <path id="Path_13644" data-name="Path 13644" d="M450.461,371.086l-55.244,26.78,11.448-66.159.034.069,38.9-31.816L407.627,326.1,421,248.84l-10.038,44.845-26.23-16.845L410.016,297.9l-15.281,68.411L337.48,333.065,393.842,370.3l-18.959,86.236,8.147,1.616L394.375,402.7Z" transform="translate(-304.923 -203.731)" fill="#dae3ef"/>
          </g>
        </g>
        <path id="Path_13645" data-name="Path 13645" d="M456.029,324.91c6.308-4.9,34.051-27.433,21.881-35.752-10.846-7.408-19.114,19.75-22.07,31.352-.963-14.163-4.761-21.95-5.552-23.411,2.7-10.846,8.7-39.861-4.761-39.225-13.6.653-2.578,29.255,1.8,39.465a1.5,1.5,0,0,0,.155,1.048c.069.1,4.3,7.752,5.277,22.672-5-10.279-18.787-35.8-28.619-26.78-10.9,10,21.658,26.746,28.791,30.235a110.786,110.786,0,0,1-1.186,19.062c-.344,2.355-.791,4.864-1.324,7.494-4.727-9.488-19.492-36.681-29.5-27.21-10.588,10.038,21.211,25.972,28.963,29.633a182.457,182.457,0,0,1-10.262,31.335c-4.177-8.56-19.544-37.884-29.874-28.121-10.726,10.124,21.881,26.35,29.169,29.788a261.872,261.872,0,0,1-13.39,26.539c-3.249-8.835-15.642-39.757-26.935-31.06-11.705,9.007,19.165,28.447,26.041,32.59-4.332,7.46-9.282,15.3-14.971,23.531-2.527-8.2-13.562-41.184-25.525-32.9-12.324,8.56,18.719,30.063,24.717,34.068-5.174,7.443-10.932,15.178-17.343,23.222-2.578-8.337-13.579-41.081-25.491-32.83-12.238,8.491,18.272,29.754,24.563,33.965-4.194,5.225-8.646,10.554-13.39,16.037a1.534,1.534,0,0,0-.034,1.977.986.986,0,0,0,.189.189,1.529,1.529,0,0,0,2.166-.155c4.761-5.483,9.213-10.829,13.407-16.054,6.428,2.045,42.473,12.874,42.37-2.217-.086-14.473-32.951-2.441-41.253.842,6.532-8.2,12.376-16.054,17.618-23.634,9.093,2.785,41.047,11.551,40.943-2.664-.086-13.442-28.413-4.022-39.122.017q7.658-11.241,13.6-21.5c8.216-.361,43.5-2.681,38.434-16.45-4.589-12.462-27.519,5.414-36.457,13.012a263.92,263.92,0,0,0,12.634-25.285c8.337-1.633,42.439-9.162,35.426-21.95-6.257-11.413-25.646,8.646-33.673,17.756a183.778,183.778,0,0,0,9.385-29.324c8.182-3.816,38.606-19.011,28.877-29.616-8.422-9.179-21.658,12.5-27.691,23.824.292-1.65.567-3.266.791-4.8A110.011,110.011,0,0,0,456.029,324.91Z" transform="translate(-189.415 -160.139)" fill="url(#linear-gradient)"/>
      </g>
    </g>
    <g id="Group_3855" data-name="Group 3855" transform="translate(-9078.168 -20953.49)">
      <path id="Path_13647" data-name="Path 13647" d="M534.68,114.751v57.273H161.96V114.751A44.807,44.807,0,0,1,206.771,69.94H489.886A44.8,44.8,0,0,1,534.68,114.751Z" transform="translate(-161.96 -69.94)" fill="url(#linear-gradient-2)"/>
      <path id="Path_13648" data-name="Path 13648" d="M416.282,114.751v70.525H326.66V114.751A44.807,44.807,0,0,1,371.471,69.94h0A44.807,44.807,0,0,1,416.282,114.751Z" transform="translate(-43.562 -69.94)" fill="#dae3ef"/>
    </g>
    <g id="Group_3856" data-name="Group 3856" transform="translate(-9078.168 -20557.238)">
      <path id="Path_13649" data-name="Path 13649" d="M534.68,365.453V308.18H161.96v57.273a44.807,44.807,0,0,0,44.811,44.811H489.886A44.8,44.8,0,0,0,534.68,365.453Z" transform="translate(-161.96 -294.927)" fill="url(#linear-gradient-3)"/>
      <path id="Path_13650" data-name="Path 13650" d="M416.282,371V300.47H326.66V371a44.807,44.807,0,0,0,44.811,44.811h0A44.807,44.807,0,0,0,416.282,371Z" transform="translate(-43.562 -300.47)" fill="#dae3ef"/>
    </g>
    <rect id="Rectangle_3749" data-name="Rectangle 3749" width="283.132" height="401.769" transform="translate(-9078.168 -20906.961)" fill="#f0f5f7"/>
    <rect id="Rectangle_3750" data-name="Rectangle 3750" width="193.768" height="4.417" transform="translate(-9006.302 -20826.379)" fill="#c3d3dd"/>
    <rect id="Rectangle_3751" data-name="Rectangle 3751" width="250.182" height="4.417" transform="translate(-9062.715 -20808.486)" fill="#c3d3dd"/>
    <rect id="Rectangle_3752" data-name="Rectangle 3752" width="250.182" height="4.417" transform="translate(-9062.715 -20790.592)" fill="#c3d3dd"/>
    <rect id="Rectangle_3753" data-name="Rectangle 3753" width="250.182" height="4.417" transform="translate(-9062.715 -20772.699)" fill="#c3d3dd"/>
    <rect id="Rectangle_3754" data-name="Rectangle 3754" width="250.182" height="4.417" transform="translate(-9062.715 -20754.805)" fill="#c3d3dd"/>
    <rect id="Rectangle_3755" data-name="Rectangle 3755" width="250.182" height="4.417" transform="translate(-9062.715 -20736.912)" fill="#c3d3dd"/>
    <rect id="Rectangle_3756" data-name="Rectangle 3756" width="250.182" height="4.417" transform="translate(-9062.715 -20719.018)" fill="#c3d3dd"/>
    <rect id="Rectangle_3757" data-name="Rectangle 3757" width="250.182" height="4.417" transform="translate(-9062.715 -20701.125)" fill="#c3d3dd"/>
    <rect id="Rectangle_3758" data-name="Rectangle 3758" width="221.975" height="4.417" transform="translate(-9062.715 -20683.23)" fill="#c3d3dd"/>
    <rect id="Rectangle_3759" data-name="Rectangle 3759" width="250.182" height="4.417" transform="translate(-9062.715 -20665.338)" fill="#c3d3dd"/>
    <rect id="Rectangle_3760" data-name="Rectangle 3760" width="250.182" height="4.417" transform="translate(-9062.715 -20647.445)" fill="#c3d3dd"/>
    <rect id="Rectangle_3761" data-name="Rectangle 3761" width="250.182" height="4.417" transform="translate(-9062.715 -20629.568)" fill="#c3d3dd"/>
    <rect id="Rectangle_3762" data-name="Rectangle 3762" width="250.182" height="4.417" transform="translate(-9062.715 -20611.674)" fill="#c3d3dd"/>
    <rect id="Rectangle_3763" data-name="Rectangle 3763" width="250.182" height="4.417" transform="translate(-9062.715 -20593.781)" fill="#c3d3dd"/>
    <rect id="Rectangle_3764" data-name="Rectangle 3764" width="61.02" height="4.417" transform="translate(-8873.554 -20527.004)" fill="#c3d3dd"/>
    <path id="Path_13664" data-name="Path 13664" d="M286.758,312.684a5.889,5.889,0,0,1,.069-4.675,3.566,3.566,0,0,1,4-1.908c1.874.584,2.647,2.836,2.75,4.8s-.137,4.056.791,5.775a5.629,5.629,0,0,0,1.581,1.788,4.547,4.547,0,0,0,2.424,1.014,5.066,5.066,0,0,0,3.816-1.925,12.167,12.167,0,0,0,2.922-5.363,24.971,24.971,0,0,0,.533-4.521l.619-11.448c-1.427,3.524-1.478,7.426-1.5,11.224-.052,5.208-.069,10.537,1.564,15.487.172.516.447,1.117.98,1.238a1.5,1.5,0,0,0,1.272-.567,9.817,9.817,0,0,0,2.355-6.411c.12-2.32-.138-4.675.155-6.979a25,25,0,0,0,.808,9.093,8.8,8.8,0,0,0,3.953-9.557,30.945,30.945,0,0,0,1.667,8.663.616.616,0,0,0,1.031.43,6.515,6.515,0,0,0,2.9-4.847,27.69,27.69,0,0,0-.12-5.844,82.111,82.111,0,0,1,.447-12.5q-.258,14.619-.034,29.238-15.264-.541-30.544-.241a9.034,9.034,0,0,0-2.956.4" transform="translate(-9150.737 -20861.174)" fill="none" stroke="#849bad" stroke-linecap="round" stroke-linejoin="round" stroke-miterlimit="10" stroke-width="0.25"/>
    <g id="Group_3861" data-name="Group 3861" transform="translate(-9043.566 -20555.967)" opacity="0.3">
      <g id="Group_3860" data-name="Group 3860" transform="translate(2.32 2.32)">
        <path id="Path_13665" data-name="Path 13665" d="M205.029,345.738a21.589,21.589,0,1,1,21.589-21.589A21.615,21.615,0,0,1,205.029,345.738Zm0-37.523a15.951,15.951,0,1,0,15.951,15.951A15.959,15.959,0,0,0,205.029,308.215Z" transform="translate(-183.44 -302.56)" fill="url(#linear-gradient-4)"/>
      </g>
      <circle id="Ellipse_467" data-name="Ellipse 467" cx="23.909" cy="23.909" r="23.909" fill="none" stroke="#707070" stroke-miterlimit="10" stroke-width="0.25"/>
      <circle id="Ellipse_468" data-name="Ellipse 468" cx="12.135" cy="12.135" r="12.135" transform="translate(11.774 11.774)" fill="url(#linear-gradient-5)"/>
    </g>
    <ellipse id="Ellipse_469" data-name="Ellipse 469" cx="98.233" cy="15.676" rx="98.233" ry="15.676" transform="translate(-9268.945 -20413.352)" fill="url(#linear-gradient-6)"/>
    <g id="Group_3874" data-name="Group 3874" transform="translate(-9324 -20832.715)">
      <g id="Group_3873" data-name="Group 3873">
        <path id="Path_13666" data-name="Path 13666" d="M72.587,202.969a9,9,0,0,0-.722,8.766c5.638,13.407,26.092,61,32.384,61.071,7.322.069-19.148-70.3-22.947-71.127C78.448,201.044,75.079,199.531,72.587,202.969Z" transform="translate(18.531 -96.646)" fill="#f2bc97"/>
        <path id="Path_13667" data-name="Path 13667" d="M121.673,182.008a7.255,7.255,0,0,0-7.752-.138c-10.88,6.171-47.028,27.416-43.075,35.787,4.641,9.832,35.581-10.932,43.78-18.083C121.466,193.61,127.156,185.91,121.673,182.008Z" transform="translate(18.157 -111.008)" fill="#f2bc97"/>
        <path id="Path_13668" data-name="Path 13668" d="M109.056,179,79.01,200.073,90.9,218.448l21.28-16.071Z" transform="translate(24.243 -112.315)" fill="#f5c143"/>
        <g id="Group_3863" data-name="Group 3863" transform="translate(59.684 88.128)">
          <g id="Group_3862" data-name="Group 3862" transform="translate(20.914)">
            <path id="Path_13669" data-name="Path 13669" d="M181.527,236.381l10.519.516-115.8-44.948a6.97,6.97,0,0,0-9.007,3.971l-1.409,3.644,3.111,1.2,1.409-3.644a3.609,3.609,0,0,1,4.693-2.063Z" transform="translate(-65.83 -191.475)" fill="url(#linear-gradient-7)"/>
          </g>
          <path id="Path_13670" data-name="Path 13670" d="M62.5,223.975,345.376,333.793,367,341.3,377.725,313.7,356.7,304.641,73.812,194.805a3.022,3.022,0,0,0-3.9,1.719l-9.144,23.531A3.035,3.035,0,0,0,62.5,223.975Z" transform="translate(-48.703 -189.227)" fill="url(#linear-gradient-8)"/>
          <path id="Path_13671" data-name="Path 13671" d="M53.727,212.348l6.841-17.618a.957.957,0,0,1,1.255-.55l12.256,4.761-7.546,19.44L54.277,213.62A1,1,0,0,1,53.727,212.348Z" transform="translate(-53.663 -189.582)" fill="url(#linear-gradient-9)"/>
          <path id="Path_13672" data-name="Path 13672" d="M267.87,284.089l7.322,1.22-6.24-4.039Z" transform="translate(100.325 -126.924)" fill="url(#linear-gradient-10)"/>
          <path id="Path_13673" data-name="Path 13673" d="M238.81,291.26l49.8,5.672L290,293.357,249.415,263.93Z" transform="translate(79.434 -139.389)" fill="#f5c143"/>
        </g>
        <g id="Group_3864" data-name="Group 3864" transform="translate(122.939 161.109)">
          <path id="Path_13674" data-name="Path 13674" d="M92.245,234.838c-4.418,2.372.55,9.523,2.32,11.912,2.9,3.867,9.23,6.205,10.777,5.088,1.564-1.117-5.569-9.54-5.432-10.107.138-.55,4,3.214,5.363,2.011s-3.111-6.841-5.775-8.388C96.852,233.807,95.013,233.36,92.245,234.838Z" transform="translate(-90.463 -233.934)" fill="#f2bc97"/>
        </g>
        <path id="Path_13675" data-name="Path 13675" d="M122.04,309.133c-23.755-12.307-9.832,96.979-1.152,124.223s10.709-2.527,10.743-47.681C131.666,340.536,131.391,313.963,122.04,309.133Z" transform="translate(45.704 -19.458)" fill="#f2bc97"/>
        <path id="Path_13676" data-name="Path 13676" d="M116.346,387.8l-3.7-17.928,16.415-.344-.963,20.9Z" transform="translate(48.425 24.652)" fill="#f2bc97"/>
        <path id="Path_13677" data-name="Path 13677" d="M134.843,306.9C127.194,277.56,45.6,352.022,29.2,375.5s10.262,8.7,48.369-16.587C115.66,333.612,137.851,318.435,134.843,306.9Z" transform="translate(-15.107 -25.219)" fill="#f2bc97"/>
        <path id="Path_13678" data-name="Path 13678" d="M106.144,302.162c1.53,40.668,9.694,73.379,18.237,73.052s14.215-33.552,12.685-74.221-9.694-73.379-18.237-73.052S104.614,261.493,106.144,302.162Z" transform="translate(43.569 -77.134)" fill="#f2bc97"/>
        <ellipse id="Ellipse_470" data-name="Ellipse 470" cx="73.688" cy="15.47" rx="73.688" ry="15.47" transform="translate(95.464 274.74) rotate(-78.439)" fill="#f2bc97"/>
        <path id="Path_13679" data-name="Path 13679" d="M132.993,185.872a7.468,7.468,0,0,1,6.377,4.641c5.071,11.568,25.3,57.926,17,62.137-9.763,4.967-26.058-37.815-28.361-48.524C126.1,195.223,126.169,185.614,132.993,185.872Z" transform="translate(58.695 -107.378)" fill="#f2bc97"/>
        <path id="Path_13680" data-name="Path 13680" d="M147.909,206.01l8.285,21.984,16.364,17.842-15.917,4.692s-9.849-9.2-12.135-12.513c-2.3-3.317-11.585-22.345-11.585-22.345Z" transform="translate(62.997 -92.898)" fill="#f2bc97"/>
        <g id="Group_3865" data-name="Group 3865" transform="translate(209.351 136.587)">
          <path id="Path_13681" data-name="Path 13681" d="M141,224.365a9.537,9.537,0,0,0,2.7,8.938c10.794,11.052,49.589,50.157,55.829,47.767,7.254-2.785-46.341-62.051-50.432-61.4C146.037,220.171,142.135,220,141,224.365Z" transform="translate(-140.736 -219.667)" fill="#f2bc97"/>
          <path id="Path_13682" data-name="Path 13682" d="M177.109,263.606a32.368,32.368,0,0,1-3.764-3.335c-2.458-2.544-4.486-5.81-2.028-8.182,2.389-2.32,4.383-2.406,7.546-1.581,3.163.808,9.385,5.294,8.337,6.91-1.048,1.633-6.068-1.1-6.05-.481a.519.519,0,0,0,.12.189c1.083,1.2,9.523,7.047,8.354,8.577C188.333,267.285,181.182,266.735,177.109,263.606Z" transform="translate(-119.554 -197.837)" fill="#f2bc97"/>
        </g>
        <line id="Line_158" data-name="Line 158" x1="2.286" y2="17.945" transform="translate(172.523 52.092)" fill="#f2bc97"/>
        <path id="Path_13683" data-name="Path 13683" d="M125.32,173.824,117.6,165.9l-3.472,22.225s6.91,6.772,7.116,6.05,2.406-6.05,2.406-6.05" transform="translate(49.489 -121.732)" fill="#f2bc97"/>
        <g id="Group_3866" data-name="Group 3866" transform="translate(120.115 62.042)">
          <path id="Path_13684" data-name="Path 13684" d="M159.208,210.713v.034a22,22,0,0,1-.344,2.269c-.12.567-.223,1.134-.344,1.736-.034.258-.12.481-.155.756-.069.378-.189.722-.258,1.049a3.533,3.533,0,0,1-.12.5,52.8,52.8,0,0,1-1.891,6.033c-.567,1.513-1.134,2.9-1.7,4.332a64.918,64.918,0,0,0-4.641,16.432c-2.3,14.851-3.352,22.38-3.352,22.38s-28.155,3.61-57.582-7.649c0,0,.155-.533.378-1.513,1.358-5.689,6.068-26.8,4.589-43.866-.155-1.616-.344-3.2-.6-4.71-3.421-20.351,8.371-35.684,30.905-31.507,9.987,1.839,16.278,3.249,20.506,4.778,5.277,1.925,7.391,4.039,9.729,7.494C157.592,194.057,160.428,200.778,159.208,210.713Z" transform="translate(-88.82 -176.299)" fill="#f5c143"/>
        </g>
        <path id="Path_13685" data-name="Path 13685" d="M132.821,200.964a3.534,3.534,0,0,1-.12.5,52.807,52.807,0,0,1-1.891,6.033c-.567,1.513-1.134,2.9-1.7,4.332a47.367,47.367,0,0,0-5.088-13.837Z" transform="translate(56.599 -98.663)" fill="#d8d0bc" opacity="0.5"/>
        <g id="Group_3867" data-name="Group 3867" transform="translate(120.527 94.755)" opacity="0.5">
          <path id="Path_13686" data-name="Path 13686" d="M89.06,243.407c1.358-5.689,6.068-26.8,4.589-43.866l6.927-4.211S95.007,228.865,89.06,243.407Z" transform="translate(-89.06 -195.33)" fill="#d8d0bc"/>
        </g>
        <path id="Path_13687" data-name="Path 13687" d="M144.863,159.447,116.57,147.14l2.458,43.419s4.813,4.882,14.817-3.146c10-8.044,11.018-27.966,11.018-27.966" transform="translate(51.243 -135.218)" fill="#f2bc97"/>
        <path id="Path_13688" data-name="Path 13688" d="M137.575,143.515s-12.582-1.461-18.873,7.288c-6.308,8.749-4.057,26.453-13.906,29.341-.98.292-2.08.567-3.249.859-11.568,2.9-1.736,9.626-12.84,14.353-9.9,4.211-9.282,10.485-7.443,21.984.653,4.074,1.031,18.547,17.567,17.773,10.279-.481,21.28-2.372,29.943-8.285,5-3.421,8.44-8.594,10.691-14.146,2.235-5.518,2.527-11.895,6.085-16.845,3.2-4.417,9.712-5.964,11.637-11.4,1.22-3.438-3.592-7.769,1.53-11.723,5.105-3.953,13.252-6.5,13.321-9.832s.653-13.51-12.84-19.973C145.671,136.484,137.575,143.515,137.575,143.515Z" transform="translate(25.081 -140.204)" fill="url(#linear-gradient-11)"/>
        <g id="Group_3868" data-name="Group 3868" transform="translate(175.084 67.287)">
          <path id="Path_13689" data-name="Path 13689" d="M158.632,225.347,140.24,237.671l-13.974-26.3L120.8,179.35l.842.241s15.556,4.383,22.466,11.912C150.176,198.12,158.632,225.347,158.632,225.347Z" transform="translate(-120.8 -179.35)" fill="#f5c143"/>
        </g>
        <g id="Group_3870" data-name="Group 3870" transform="translate(163.997 412.453)">
          <g id="Group_3869" data-name="Group 3869">
            <path id="Path_13690" data-name="Path 13690" d="M127.534,380.9s4.16,5.414,13.3,12.5,11.568,5.6,11.757,8.216-38.245,0-38.245,0l.773-21.452S127.534,380.349,127.534,380.9Z" transform="translate(-114.35 -380.16)" fill="#292d34"/>
          </g>
        </g>
        <g id="Group_3872" data-name="Group 3872" transform="translate(0 347.618)">
          <g id="Group_3871" data-name="Group 3871">
            <path id="Path_13691" data-name="Path 13691" d="M43.056,352s-1.1,6.738,0,18.254c1.083,11.516,3.833,12.273,2.063,14.181-1.77,1.925-26.178-27.88-26.178-27.88L35.115,342.44S43.468,351.6,43.056,352Z" transform="translate(-18.94 -342.44)" fill="#292d34"/>
          </g>
        </g>
      </g>
      <path id="Path_13692" data-name="Path 13692" d="M183,236.117s6.669,38.675,5.861,97.34c-.791,58.665-5.38,139.28-5.38,139.28s-17.24.945-17.361.258c-14.439-86.476-5.586-106.226-5.586-106.226l-14.095-68.583S138.186,349.941,131,362.712s-79.412,62.515-79.412,62.515l-13.7-19.561c25.542-28.069,67.981-55.88,67.981-55.88S95.627,260.663,123.026,226.87" transform="translate(-5.317 -77.902)" fill="#292d34"/>
      <path id="Path_13693" data-name="Path 13693" d="M147.621,238.066c-23.1.052-49.933-4.933-60.521-7.872a35.28,35.28,0,0,1,3.008-6.033l57.17,7.1C147.26,231.259,147.4,233.734,147.621,238.066Z" transform="translate(30.058 -79.85)" fill="#072f56"/>
    </g>
    <g id="Group_3877" data-name="Group 3877" transform="translate(-8724.286 -20786.123)">
      <g id="Group_3875" data-name="Group 3875">
        <path id="Path_13694" data-name="Path 13694" d="M410.777,186.768l-8.766,37.746L367.84,216.59l11.431-49.28,22.638,5.243Z" transform="translate(-367.84 -167.31)" fill="#dae3ef"/>
        <path id="Path_13695" data-name="Path 13695" d="M386.11,181.894l11.534,2.681-8.869-14.215Z" transform="translate(-354.706 -165.117)" fill="#e9eef4"/>
      </g>
      <g id="Group_3876" data-name="Group 3876" transform="translate(7.714 19.037)">
        <rect id="Rectangle_3765" data-name="Rectangle 3765" width="27.846" height="1.427" transform="translate(2.984 0) rotate(13.062)" fill="#f9fbfc"/>
        <rect id="Rectangle_3766" data-name="Rectangle 3766" width="27.846" height="1.427" transform="translate(1.664 5.726) rotate(13.062)" fill="#f9fbfc"/>
        <rect id="Rectangle_3767" data-name="Rectangle 3767" width="27.846" height="1.427" transform="translate(0.322 11.464) rotate(13.062)" fill="#f9fbfc"/>
      </g>
    </g>
    <g id="Group_3880" data-name="Group 3880" transform="translate(-9190.272 -20945.994)">
      <g id="Group_3878" data-name="Group 3878" transform="translate(0 0)">
        <path id="Path_13696" data-name="Path 13696" d="M139.66,93.758l-8.749,37.764L96.74,123.58,108.17,74.3l22.638,5.26Z" transform="translate(-96.74 -74.3)" fill="#dae3ef"/>
        <path id="Path_13697" data-name="Path 13697" d="M115,88.876l11.534,2.681-8.852-14.2Z" transform="translate(-83.613 -72.1)" fill="#e9eef4"/>
      </g>
      <g id="Group_3879" data-name="Group 3879" transform="translate(7.732 19.029)">
        <rect id="Rectangle_3768" data-name="Rectangle 3768" width="27.846" height="1.427" transform="translate(2.988 0) rotate(13.062)" fill="#f9fbfc"/>
        <rect id="Rectangle_3769" data-name="Rectangle 3769" width="27.846" height="1.427" transform="translate(1.647 5.739) rotate(13.062)" fill="#f9fbfc"/>
        <rect id="Rectangle_3770" data-name="Rectangle 3770" width="27.846" height="1.427" transform="translate(0.322 11.481) rotate(13.062)" fill="#f9fbfc"/>
      </g>
    </g>
    <g id="Group_3883" data-name="Group 3883" transform="translate(-8919.859 -21051.912)">
      <g id="Group_3881" data-name="Group 3881">
        <path id="Path_13698" data-name="Path 13698" d="M297.7,18.094l22.809,40.5L283.848,79.252,254.06,26.362,278.348,12.68Z" transform="translate(-254.06 -12.68)" fill="#dae3ef"/>
        <path id="Path_13699" data-name="Path 13699" d="M275.169,25.056l12.376-6.961L268.19,12.68Z" transform="translate(-243.902 -12.68)" fill="#e9eef4"/>
      </g>
      <g id="Group_3882" data-name="Group 3882" transform="translate(14.798 14.685)">
        <rect id="Rectangle_3771" data-name="Rectangle 3771" width="33.398" height="1.719" transform="translate(0 16.392) rotate(-29.392)" fill="#f9fbfc"/>
        <rect id="Rectangle_3772" data-name="Rectangle 3772" width="33.398" height="1.719" transform="translate(3.471 22.545) rotate(-29.392)" fill="#f9fbfc"/>
        <rect id="Rectangle_3773" data-name="Rectangle 3773" width="33.398" height="1.719" transform="translate(6.926 28.703) rotate(-29.392)" fill="#f9fbfc"/>
      </g>
    </g>
    <g id="Group_3885" data-name="Group 3885" transform="translate(-8866.953 -20805.855)">
      <path id="Path_13700" data-name="Path 13700" d="M352.524,309.508l-.67-.43c-63.5-26.642-64.922-121.06-64.956-125.065l-.017-2.51,65.575-23.119,1.152-.4,66.675,23.5-.017,2.51c-.034,4.022-1.478,98.783-65.334,125.22l-.653.275h-1.753Z" transform="translate(-283.374 -154.277)" fill="#7a76fd"/>
      <g id="Group_3884" data-name="Group 3884">
        <path id="Path_13701" data-name="Path 13701" d="M355.039,163.273l63.151,22.259s-.739,96.154-63.151,122.005h-.017a.8.8,0,0,0-.172-.086c-62.257-25.955-62.962-121.919-62.962-121.919l62.962-22.208.189-.052m.069-7.443-2.286.773-.189.069-.052.017-.052.017-62.962,22.208-4.727,1.667.034,5.019a214.25,214.25,0,0,0,8.422,53.147c10.966,37.523,31.129,63.426,58.356,74.994l1.272.842h3.507l1.306-.533c27.553-11.413,47.974-37.437,59.043-75.218a215.882,215.882,0,0,0,8.457-53.233l.034-5.019-4.727-1.667-63.151-22.259-2.286-.825Z" transform="translate(-284.84 -155.83)" fill="#f9fbfc"/>
      </g>
    </g>
    <g id="Group_3886" data-name="Group 3886" transform="translate(-8859.905 -20798.361)" opacity="0.2">
      <path id="Path_13702" data-name="Path 13702" d="M351.9,160.19V304.317C289.645,278.362,288.94,182.4,288.94,182.4Z" transform="translate(-288.94 -160.19)" fill="#7a76fd"/>
    </g>
    <g id="Group_3887" data-name="Group 3887" transform="translate(-8832.644 -20756.086)">
      <path id="Path_13703" data-name="Path 13703" d="M335.138,237.271l-28.4-23.6a5.383,5.383,0,0,1,6.875-8.285L334.571,222.8l37.523-36.492a5.385,5.385,0,0,1,7.511,7.718Z" transform="translate(-304.8 -184.785)" fill="#fefefe"/>
    </g>
    <path id="Path_15988" data-name="Path 15988" d="M8.242.455H4.821V-12.831H.44v-2.847H12.623v2.847H8.242ZM19.7-12.113a6.2,6.2,0,0,1,2.946.657,4.558,4.558,0,0,1,1.909,1.9,6.339,6.339,0,0,1,.673,3.046v1.633H17.274A3.232,3.232,0,0,0,18.13-2.64a2.982,2.982,0,0,0,2.224.811,9.011,9.011,0,0,0,2.163-.243A11.006,11.006,0,0,0,24.535-2.8V-.2a8.032,8.032,0,0,1-1.915.662A11.985,11.985,0,0,1,20.2.676a7.515,7.515,0,0,1-3.283-.684,5.069,5.069,0,0,1-2.24-2.086,6.967,6.967,0,0,1-.811-3.531,7.893,7.893,0,0,1,.734-3.6,4.964,4.964,0,0,1,2.047-2.163A6.238,6.238,0,0,1,19.7-12.113Zm.022,2.395A2.238,2.238,0,0,0,18.1-9.09a2.976,2.976,0,0,0-.745,1.975h4.723A3.389,3.389,0,0,0,21.8-8.45a2.121,2.121,0,0,0-.772-.927A2.311,2.311,0,0,0,19.724-9.719Zm14.9-2.395q.254,0,.59.028a4.554,4.554,0,0,1,.546.072L35.51-8.858a2.182,2.182,0,0,0-.469-.083q-.3-.028-.524-.028a4.821,4.821,0,0,0-1.263.166,3.149,3.149,0,0,0-1.1.535,2.557,2.557,0,0,0-.767.971,3.462,3.462,0,0,0-.281,1.473V.455H27.741V-11.882H30.29l.5,2.075h.166a5.218,5.218,0,0,1,.91-1.153A4.372,4.372,0,0,1,33.11-11.8,3.662,3.662,0,0,1,34.627-12.113Zm17.639,0a4.3,4.3,0,0,1,3.173,1.076,4.724,4.724,0,0,1,1.076,3.448V.455H53.138V-6.75a3.6,3.6,0,0,0-.452-2,1.57,1.57,0,0,0-1.4-.673,2.025,2.025,0,0,0-1.9.955,5.431,5.431,0,0,0-.563,2.731V.455H45.458V-6.75a4.729,4.729,0,0,0-.2-1.479,1.749,1.749,0,0,0-.607-.894,1.734,1.734,0,0,0-1.048-.3,2.159,2.159,0,0,0-1.473.469,2.612,2.612,0,0,0-.761,1.379,9.363,9.363,0,0,0-.226,2.224v5.8H37.778V-11.882h2.571L40.8-10.3h.188a3.248,3.248,0,0,1,.943-1.037,4.027,4.027,0,0,1,1.252-.585,5.235,5.235,0,0,1,1.39-.188,5.4,5.4,0,0,1,2.3.441A3.131,3.131,0,0,1,48.327-10.3h.3a3.223,3.223,0,0,1,1.561-1.379A5.255,5.255,0,0,1,52.266-12.113ZM68.35-3.208a3.683,3.683,0,0,1-.59,2.124A3.61,3.61,0,0,1,66,.229a8.222,8.222,0,0,1-2.913.447A12.718,12.718,0,0,1,60.874.511a9.114,9.114,0,0,1-1.859-.552V-2.822a13.051,13.051,0,0,0,2.157.745,8.378,8.378,0,0,0,2.025.292A2.562,2.562,0,0,0,64.6-2.077a.893.893,0,0,0,.425-.767.96.96,0,0,0-.171-.557,2.243,2.243,0,0,0-.734-.563,19.38,19.38,0,0,0-1.766-.822,11.439,11.439,0,0,1-1.9-.982,3.245,3.245,0,0,1-1.1-1.175,3.678,3.678,0,0,1-.359-1.727,2.874,2.874,0,0,1,1.33-2.577,6.443,6.443,0,0,1,3.559-.866,10.073,10.073,0,0,1,2.19.232,10.707,10.707,0,0,1,2.146.739L67.2-8.715a17.5,17.5,0,0,0-1.727-.651,5.494,5.494,0,0,0-1.65-.254,2.453,2.453,0,0,0-1.115.2.646.646,0,0,0-.375.607.8.8,0,0,0,.193.53,2.451,2.451,0,0,0,.75.513q.557.281,1.639.723a13.128,13.128,0,0,1,1.821.9A3.464,3.464,0,0,1,67.931-4.99,3.39,3.39,0,0,1,68.35-3.208Zm13.1-8.927a5.883,5.883,0,0,1,3.807,1.081A4,4,0,0,1,86.58-7.766V.455H84.23l-.651-1.677H83.49A6.252,6.252,0,0,1,82.409-.14,3.71,3.71,0,0,1,81.14.477a6.613,6.613,0,0,1-1.744.2A4.438,4.438,0,0,1,77.438.257a3.1,3.1,0,0,1-1.363-1.286,4.382,4.382,0,0,1-.5-2.2,3.251,3.251,0,0,1,1.379-2.9A7.969,7.969,0,0,1,81.1-7.159l2.141-.066v-.541a1.815,1.815,0,0,0-.508-1.423,2.049,2.049,0,0,0-1.412-.452,6.172,6.172,0,0,0-1.755.254,13.6,13.6,0,0,0-1.721.64l-1.115-2.273a9.551,9.551,0,0,1,2.2-.817A10.585,10.585,0,0,1,81.449-12.135Zm1.788,6.875-1.3.044a3.731,3.731,0,0,0-2.268.585,1.779,1.779,0,0,0-.635,1.423,1.261,1.261,0,0,0,.452,1.1,1.976,1.976,0,0,0,1.181.326,2.705,2.705,0,0,0,1.826-.64,2.27,2.27,0,0,0,.745-1.821Zm13.59-6.853A4.588,4.588,0,0,1,100-11.037a4.413,4.413,0,0,1,1.2,3.448V.455H97.841V-6.75a3.434,3.434,0,0,0-.48-2,1.723,1.723,0,0,0-1.506-.673,2.173,2.173,0,0,0-2.108,1.048,6.523,6.523,0,0,0-.563,3.024v5.8H89.819V-11.882H92.39l.452,1.578h.188a3.376,3.376,0,0,1,.988-1.037,4.24,4.24,0,0,1,1.313-.585A5.928,5.928,0,0,1,96.826-12.113ZM108.352.676a4.109,4.109,0,0,1-3.36-1.617,7.463,7.463,0,0,1-1.3-4.751,7.5,7.5,0,0,1,1.313-4.795,4.2,4.2,0,0,1,3.432-1.628,4.576,4.576,0,0,1,1.556.243,3.838,3.838,0,0,1,1.164.651,4.351,4.351,0,0,1,.833.916h.11q-.066-.353-.16-1.043a10.512,10.512,0,0,1-.094-1.418v-3.95h3.377V.455h-2.582l-.651-1.6h-.143a4.106,4.106,0,0,1-.8.921,3.657,3.657,0,0,1-1.142.657A4.517,4.517,0,0,1,108.352.676Zm1.181-2.681a2.2,2.2,0,0,0,1.948-.822,4.546,4.546,0,0,0,.6-2.477v-.364a5.577,5.577,0,0,0-.552-2.753,2.165,2.165,0,0,0-2.052-.955,1.977,1.977,0,0,0-1.744.96,5.061,5.061,0,0,0-.629,2.77,4.8,4.8,0,0,0,.635,2.726A2.055,2.055,0,0,0,109.533-2.005Zm21.75-11.057a3.813,3.813,0,0,0-1.738.381,3.457,3.457,0,0,0-1.269,1.1,5.207,5.207,0,0,0-.778,1.732,9.061,9.061,0,0,0-.265,2.284,8.842,8.842,0,0,0,.425,2.919,3.672,3.672,0,0,0,1.319,1.843,3.894,3.894,0,0,0,2.306.635,9.008,9.008,0,0,0,1.97-.221,18.931,18.931,0,0,0,2.146-.629V-.152a10.638,10.638,0,0,1-2.108.635,12.782,12.782,0,0,1-2.328.193,7.455,7.455,0,0,1-4.1-1.032,6.138,6.138,0,0,1-2.378-2.891,11.259,11.259,0,0,1-.772-4.342,10.773,10.773,0,0,1,.5-3.355,7.6,7.6,0,0,1,1.457-2.637,6.434,6.434,0,0,1,2.373-1.721,8.153,8.153,0,0,1,3.244-.607,9.867,9.867,0,0,1,2.411.3,12.188,12.188,0,0,1,2.312.833l-1.1,2.781a18.266,18.266,0,0,0-1.821-.75A5.432,5.432,0,0,0,131.283-13.062Zm18.268,7.327A8.327,8.327,0,0,1,149.138-3a5.437,5.437,0,0,1-1.2,2.014,5.084,5.084,0,0,1-1.9,1.241,7.026,7.026,0,0,1-2.5.419,6.585,6.585,0,0,1-2.389-.419,5.224,5.224,0,0,1-1.887-1.241A5.6,5.6,0,0,1,138.026-3a7.941,7.941,0,0,1-.436-2.737,7.565,7.565,0,0,1,.728-3.476,5,5,0,0,1,2.075-2.163,6.575,6.575,0,0,1,3.211-.739,6.259,6.259,0,0,1,3.073.739,5.243,5.243,0,0,1,2.108,2.163A7.246,7.246,0,0,1,149.552-5.735Zm-8.53,0a6.775,6.775,0,0,0,.265,2.041,2.414,2.414,0,0,0,.828,1.247,2.394,2.394,0,0,0,1.468.419,2.35,2.35,0,0,0,1.451-.419,2.4,2.4,0,0,0,.817-1.247,6.91,6.91,0,0,0,.259-2.041,6.787,6.787,0,0,0-.259-2.036,2.321,2.321,0,0,0-.822-1.219A2.441,2.441,0,0,0,143.56-9.4a2.146,2.146,0,0,0-1.937.916A5.058,5.058,0,0,0,141.022-5.735Zm18.092-6.378a4.588,4.588,0,0,1,3.178,1.076,4.413,4.413,0,0,1,1.2,3.448V.455h-3.366V-6.75a3.434,3.434,0,0,0-.48-2,1.723,1.723,0,0,0-1.506-.673,2.173,2.173,0,0,0-2.108,1.048,6.523,6.523,0,0,0-.563,3.024v5.8h-3.366V-11.882h2.571l.452,1.578h.188a3.376,3.376,0,0,1,.988-1.037,4.24,4.24,0,0,1,1.313-.585A5.928,5.928,0,0,1,159.113-12.113ZM170.64.676a4.109,4.109,0,0,1-3.36-1.617,7.463,7.463,0,0,1-1.3-4.751,7.5,7.5,0,0,1,1.313-4.795,4.2,4.2,0,0,1,3.432-1.628,4.576,4.576,0,0,1,1.556.243,3.838,3.838,0,0,1,1.164.651,4.352,4.352,0,0,1,.833.916h.11q-.066-.353-.16-1.043a10.513,10.513,0,0,1-.094-1.418v-3.95h3.377V.455h-2.582l-.651-1.6h-.143a4.106,4.106,0,0,1-.8.921A3.657,3.657,0,0,1,172.2.433,4.517,4.517,0,0,1,170.64.676Zm1.181-2.681a2.2,2.2,0,0,0,1.948-.822,4.546,4.546,0,0,0,.6-2.477v-.364a5.577,5.577,0,0,0-.552-2.753,2.165,2.165,0,0,0-2.052-.955,1.977,1.977,0,0,0-1.744.96,5.061,5.061,0,0,0-.629,2.77,4.8,4.8,0,0,0,.635,2.726A2.055,2.055,0,0,0,171.82-2.005Zm12.354-9.876V.455h-3.366V-11.882ZM182.5-16.715a2.336,2.336,0,0,1,1.291.348,1.424,1.424,0,0,1,.541,1.3,1.441,1.441,0,0,1-.541,1.3,2.282,2.282,0,0,1-1.291.359,2.275,2.275,0,0,1-1.3-.359,1.447,1.447,0,0,1-.535-1.3,1.43,1.43,0,0,1,.535-1.3A2.329,2.329,0,0,1,182.5-16.715Zm10.18,14.709a5.209,5.209,0,0,0,1.076-.11,10.633,10.633,0,0,0,1.043-.276v2.5a6.346,6.346,0,0,1-1.341.4,8.929,8.929,0,0,1-1.749.16,5.194,5.194,0,0,1-1.981-.359,2.762,2.762,0,0,1-1.379-1.247,5.073,5.073,0,0,1-.5-2.477V-9.355h-1.611v-1.423l1.854-1.126.971-2.6h2.152v2.626h3.454v2.527h-3.454v5.948a1.317,1.317,0,0,0,.4,1.054A1.573,1.573,0,0,0,192.677-2.005Zm7.752-9.876V.455h-3.366V-11.882Zm-1.677-4.833a2.336,2.336,0,0,1,1.291.348,1.424,1.424,0,0,1,.541,1.3,1.441,1.441,0,0,1-.541,1.3,2.282,2.282,0,0,1-1.291.359,2.275,2.275,0,0,1-1.3-.359,1.447,1.447,0,0,1-.535-1.3,1.43,1.43,0,0,1,.535-1.3A2.329,2.329,0,0,1,198.752-16.715Zm16.194,10.98A8.327,8.327,0,0,1,214.532-3a5.437,5.437,0,0,1-1.2,2.014,5.084,5.084,0,0,1-1.9,1.241,7.026,7.026,0,0,1-2.5.419,6.585,6.585,0,0,1-2.389-.419,5.224,5.224,0,0,1-1.887-1.241A5.6,5.6,0,0,1,203.42-3a7.941,7.941,0,0,1-.436-2.737,7.565,7.565,0,0,1,.728-3.476,5,5,0,0,1,2.075-2.163A6.575,6.575,0,0,1,209-12.113a6.259,6.259,0,0,1,3.073.739,5.243,5.243,0,0,1,2.108,2.163A7.246,7.246,0,0,1,214.945-5.735Zm-8.53,0a6.775,6.775,0,0,0,.265,2.041,2.414,2.414,0,0,0,.828,1.247,2.394,2.394,0,0,0,1.468.419,2.35,2.35,0,0,0,1.451-.419,2.4,2.4,0,0,0,.817-1.247,6.91,6.91,0,0,0,.259-2.041,6.786,6.786,0,0,0-.259-2.036,2.321,2.321,0,0,0-.822-1.219,2.441,2.441,0,0,0-1.468-.408,2.146,2.146,0,0,0-1.937.916A5.058,5.058,0,0,0,206.416-5.735Zm18.092-6.378a4.588,4.588,0,0,1,3.178,1.076,4.413,4.413,0,0,1,1.2,3.448V.455h-3.366V-6.75a3.434,3.434,0,0,0-.48-2,1.723,1.723,0,0,0-1.506-.673,2.173,2.173,0,0,0-2.108,1.048,6.523,6.523,0,0,0-.563,3.024v5.8H217.5V-11.882h2.571l.452,1.578h.188a3.376,3.376,0,0,1,.988-1.037,4.24,4.24,0,0,1,1.313-.585A5.928,5.928,0,0,1,224.507-12.113Zm16.227,8.905a3.683,3.683,0,0,1-.59,2.124,3.61,3.61,0,0,1-1.76,1.313,8.222,8.222,0,0,1-2.913.447,12.718,12.718,0,0,1-2.212-.166A9.114,9.114,0,0,1,231.4-.041V-2.822a13.051,13.051,0,0,0,2.157.745,8.378,8.378,0,0,0,2.025.292,2.562,2.562,0,0,0,1.407-.292.893.893,0,0,0,.425-.767.96.96,0,0,0-.171-.557,2.243,2.243,0,0,0-.734-.563,19.381,19.381,0,0,0-1.766-.822,11.439,11.439,0,0,1-1.9-.982,3.244,3.244,0,0,1-1.1-1.175,3.678,3.678,0,0,1-.359-1.727,2.874,2.874,0,0,1,1.33-2.577,6.443,6.443,0,0,1,3.559-.866,10.073,10.073,0,0,1,2.19.232,10.707,10.707,0,0,1,2.146.739l-1.015,2.428a17.5,17.5,0,0,0-1.727-.651,5.494,5.494,0,0,0-1.65-.254,2.453,2.453,0,0,0-1.115.2.646.646,0,0,0-.375.607.8.8,0,0,0,.193.53,2.45,2.45,0,0,0,.75.513q.557.281,1.639.723a13.127,13.127,0,0,1,1.821.9,3.464,3.464,0,0,1,1.192,1.159A3.39,3.39,0,0,1,240.734-3.208Z" transform="translate(-9056.44 -20857.285)" fill="#849bad"/>
  </g>
</svg>
