<svg xmlns="http://www.w3.org/2000/svg" viewBox="0 0 30 30"><defs><style>.cls-1,.cls-2{fill:#8b959e;}.cls-1{opacity:0;}</style></defs><g id="Layer_2" data-name="Layer 2"><g id="Capa_1" data-name="Capa 1"><rect class="cls-1" width="30" height="30"/><path class="cls-2" d="M3.53,22.2A13.38,13.38,0,0,0,24.12,10.32a9.7,9.7,0,0,0,2.35-2.43,9.88,9.88,0,0,1-2.71.74A4.74,4.74,0,0,0,25.83,6a9.56,9.56,0,0,1-3,1.14,4.7,4.7,0,0,0-8,4.29,13.37,13.37,0,0,1-9.7-4.92,4.71,4.71,0,0,0,1.46,6.28,4.64,4.64,0,0,1-2.13-.58,4.7,4.7,0,0,0,3.77,4.67A4.71,4.71,0,0,1,6.11,17a4.7,4.7,0,0,0,4.39,3.27A9.44,9.44,0,0,1,3.53,22.2Z"/></g></g></svg>