<svg xmlns="http://www.w3.org/2000/svg" xmlns:xlink="http://www.w3.org/1999/xlink" width="1098" height="308" viewBox="0 0 1098 308">
  <defs>
    <clipPath id="clip-path">
      <rect id="Rectangle_6209" data-name="Rectangle 6209" width="1098" height="308" transform="translate(0 275)" fill="#fff" stroke="#707070" stroke-width="1"/>
    </clipPath>
  </defs>
  <g id="Mask_Group_41" data-name="Mask Group 41" transform="translate(0 -275)" clip-path="url(#clip-path)">
    <path id="Path_15573" data-name="Path 15573" d="M1453.2,540.428v-.21h-42.164V381.8c0-12.563,14.479-19.376,24.268-11.711,2.555,2.129,4.269,3.406,4.269,3.406V484H1453.2V325.158h11.282a22.441,22.441,0,0,1,22.565,22.571V462.07l9.369,9.37V376.687h24.068V507l5.751,6.54V380.088c0-11.925,13.627-18.312,22.564-10.86a.274.274,0,0,1,.21.105.3.3,0,0,0,.221.1,13.511,13.511,0,0,1,5.32,10.859v103.7h16.182V349.432h30.66V484h21.5V406.071h45.57V480.6h12.355V383.288l33.215-33.218-1.062,190.358s-48.336,1.7-48.336,0Zm267.217-192.7v192.7h47.274v.639h116.05v-.639h9.578c0,1.351,30.4.559,42.984.173,7.571.413,47.452.093,66.515-.173h24.006V417.356c0-13.84-14.479-14.48-14.479-14.48-11.713,0-12.985,12.989-12.985,12.989v60.9h-12.986V428.215h-10.651V384.14h-40.67v24.486l-25.551,25.55v46.419h-8.517V417.356c0-13.84-14.479-14.48-14.479-14.48-11.713,0-12.985,12.989-12.985,12.989V484h-14.059V453.767a13.51,13.51,0,0,0-5.32-10.859.27.27,0,0,1-.21-.105.3.3,0,0,0-.221-.105,13.929,13.929,0,0,0-22.785,10.859v55.787h-41.165l-2.05-2.342V399.257h-24.068V471.44l-9.369-60.259V370.3a22.446,22.446,0,0,0-22.564-22.571Zm-623.03,192.7c0,1.347,30.2.565,42.858.178,7.781.407,47.557.087,66.526-.178h116.322l-.178-.21h31.912v.21h19.589v-.21h31.081V380.732h-14.048c-11.5,0-20.871,82.83-20.871,94.327v46.206H1359.08V484h-17.675v-37.05s-1.7-1.277-4.258-3.407c-9.8-7.665-24.278-.852-24.278,11.711V528.8L1293.711,507V450.147h-24.068V471.44l-9.368-9.37V421.189a22.44,22.44,0,0,0-22.563-22.571h-11.293v8.168a18.326,18.326,0,0,0-10-3.909c-11.714,0-13,12.989-13,12.989v60.9h-13.2V428.215h-10.651V384.14H1138.9v24.7l-25.328,25.34V480.6h-8.517V417.356c0-13.84-14.489-14.48-14.489-14.48-11.7,0-12.985,12.989-12.985,12.989V484h-14.048V453.767a14.243,14.243,0,0,0-5.33-11.073l-.421-.21A14.054,14.054,0,0,0,1035,453.553v77.72a9.091,9.091,0,0,0,9.159,9.155h53.224Zm1182.4-86.235v26.4h14.478V434.177l25.771-25.76v-9.8h11.282a22.44,22.44,0,0,1,22.564,22.571V462.07l9.368,9.37V450.147h24.067V507l29.378,33.429H2326.41c-.336.013-48.336,1.7-48.336,0v-.21h-.21v.852h-116.05v-.639h-2.555v-.21h-31.912l.189.21h-96.67V398.618h11.282a22.45,22.45,0,0,1,22.574,22.571V462.07l9.369,9.37V450.147h24.057V507l19.168,21.8V455.257c0-12.563,14.479-19.376,24.268-11.711,2.555,2.129,4.259,3.407,4.259,3.407V484h17.676v4.258h81.341v-13.2a20.9,20.9,0,0,1,20.872-20.866Z" transform="translate(-1074.41 41.342)" fill="#ececec" fill-rule="evenodd"/>
    <g id="Group_11307" data-name="Group 11307" transform="translate(160 274.789)">
      <path id="Path_15571" data-name="Path 15571" d="M1146.5,255.34a.481.481,0,0,0,.424.533l4.3.5a.481.481,0,1,0,.116-.956l-3.829-.442.452-3.822a.484.484,0,1,0-.962-.111Zm.78.433c.24-.192.48-.385.73-.577l-.6-.757c-.241.192-.491.385-.732.577Zm2.211-1.726c.5-.385,1-.77,1.511-1.154l-.578-.769c-.509.385-1.019.769-1.519,1.161Zm3.059-2.315c.52-.385,1.048-.769,1.578-1.163l-.568-.777-1.586,1.168Zm3.164-2.308,1.53-1.088-.557-.786-1.53,1.092Zm3.088-2.176c.52-.363,1.049-.726,1.577-1.09l-.538-.795q-.807.548-1.588,1.095Zm3.184-2.181c.549-.364,1.088-.727,1.635-1.091l-.529-.8c-.548.365-1.1.73-1.634,1.095Zm3.241-2.147,1.588-1.026-.52-.809c-.529.343-1.068.687-1.588,1.03Zm3.193-2.052c.539-.341,1.087-.683,1.635-1.024l-.509-.815c-.549.342-1.1.685-1.636,1.027Zm3.281-2.048,1.673-1.021-.5-.823L1171.2,238Zm3.328-2.014c.539-.322,1.077-.644,1.626-.962l-.491-.829c-.549.322-1.087.645-1.636.968Zm3.27-1.924c.548-.32,1.106-.641,1.665-.962l-.482-.834c-.557.32-1.115.642-1.663.962Zm3.347-1.918q.852-.481,1.7-.955l-.472-.841-1.7.962Zm3.4-1.9c.558-.3,1.107-.6,1.664-.906l-.461-.846c-.559.3-1.107.605-1.665.908Zm3.338-1.808c.568-.3,1.125-.6,1.693-.9l-.442-.851q-.852.449-1.7.9Zm3.4-1.793c.577-.3,1.144-.594,1.722-.891l-.432-.856c-.587.3-1.155.594-1.733.892Zm3.463-1.776c.577-.289,1.144-.577,1.721-.866l-.432-.866c-.578.289-1.146.577-1.722.866Zm3.424-1.706c.568-.28,1.144-.559,1.712-.838l-.414-.866c-.577.28-1.154.56-1.722.841Zm3.443-1.671c.587-.276,1.163-.552,1.75-.827l-.414-.866c-.586.276-1.163.553-1.75.83Zm3.5-1.649c.6-.272,1.182-.544,1.769-.816l-.395-.875c-.6.272-1.182.545-1.78.819Zm3.52-1.609c.577-.261,1.154-.52,1.74-.778l-.395-.879c-.586.259-1.164.519-1.74.78Zm3.491-1.551c.578-.257,1.174-.513,1.761-.769l-.385-.883-1.76.769Zm3.531-1.526,1.788-.753-.375-.888q-.9.376-1.789.756Zm3.578-1.5q.894-.367,1.788-.73l-.365-.891q-.894.364-1.789.731Zm3.548-1.443,1.779-.706-.346-.9q-.9.352-1.789.708Zm3.568-1.4c.6-.232,1.2-.463,1.8-.692l-.337-.9c-.605.23-1.2.461-1.808.693Zm3.607-1.375q.907-.34,1.818-.673l-.327-.9c-.616.224-1.221.45-1.827.678Zm3.645-1.346q.894-.324,1.788-.645l-.316-.906c-.606.215-1.2.43-1.8.647Zm3.6-1.282c.6-.212,1.2-.421,1.808-.63l-.307-.909q-.923.313-1.818.631Zm3.626-1.251c.615-.206,1.222-.41,1.837-.613l-.307-.913c-.616.2-1.222.409-1.838.615Zm3.673-1.218q.925-.3,1.847-.6l-.3-.917q-.923.3-1.847.6Zm3.675-1.175c.606-.192,1.212-.379,1.828-.567l-.288-.919c-.605.188-1.222.378-1.828.568Zm3.655-1.125q.923-.277,1.847-.549l-.279-.922q-.924.272-1.846.551Zm3.693-1.09c.616-.179,1.231-.356,1.856-.531l-.259-.925c-.626.176-1.241.353-1.866.532Zm3.723-1.058c.615-.172,1.241-.343,1.866-.512l-.25-.929-1.876.514Zm3.713-1.006c.615-.163,1.231-.325,1.856-.486l-.25-.931-1.856.487Zm3.712-.962c.616-.157,1.241-.312,1.867-.465l-.231-.934q-.939.231-1.875.467Zm3.732-.92c.625-.15,1.25-.3,1.885-.445l-.222-.937c-.625.147-1.26.3-1.885.446Zm3.771-.881q.936-.213,1.876-.423l-.2-.939c-.634.139-1.26.281-1.895.424Zm3.751-.832q.938-.2,1.875-.4l-.2-.942q-.937.2-1.875.4Zm3.751-.786c.635-.128,1.26-.253,1.885-.377l-.183-.943c-.634.124-1.26.25-1.894.378Zm3.78-.744c.635-.12,1.26-.238,1.9-.355l-.174-.946q-.953.176-1.9.357Zm3.8-.7c.634-.113,1.27-.223,1.894-.332l-.154-.947c-.644.109-1.279.219-1.914.332Zm3.789-.649c.626-.1,1.262-.207,1.9-.307l-.154-.95c-.635.1-1.27.2-1.9.308Zm3.79-.6q.953-.144,1.9-.284l-.145-.951q-.953.139-1.9.284Zm3.809-.556c.636-.088,1.27-.175,1.915-.26l-.126-.954c-.644.086-1.278.172-1.923.262Zm3.828-.508c.634-.081,1.269-.16,1.914-.236l-.115-.955c-.644.077-1.278.156-1.923.236Zm3.818-.458q.953-.109,1.9-.21l-.106-.956c-.635.068-1.269.138-1.914.211Zm3.819-.407c.634-.064,1.269-.126,1.913-.186l-.1-.957c-.635.06-1.279.121-1.914.186Zm3.827-.358c.645-.056,1.281-.109,1.924-.161l-.076-.962q-.967.076-1.934.161Zm3.848-.308c.635-.046,1.279-.1,1.924-.134l-.067-.962c-.644.042-1.289.088-1.924.135Zm3.838-.254c.634-.038,1.27-.074,1.914-.108l-.047-.962c-.645.035-1.29.07-1.924.108Zm3.828-.2c.644-.03,1.279-.057,1.923-.082l-.038-.962c-.644.025-1.289.052-1.923.082Zm3.846-.149c.645-.02,1.279-.039,1.924-.055l-.019-.962q-.968.024-1.933.055Zm3.857-.1c.645-.012,1.279-.021,1.924-.028l-.01-.962q-.967.011-1.933.028Zm3.848-.041h1.913v-.962H1339.5Zm3.838.014c.634.007,1.279.017,1.923.028l.009-.962c-.645-.011-1.279-.02-1.924-.028Zm3.847.07c.635.016,1.279.036,1.924.057l.029-.962q-.963-.032-1.934-.057Zm3.848.127q.96.038,1.933.085l.039-.962q-.962-.048-1.933-.085Zm3.846.184c.635.036,1.271.073,1.915.113l.058-.962c-.644-.04-1.28-.079-1.923-.113Zm3.829.24c.635.045,1.279.1,1.914.142l.077-.962c-.645-.05-1.279-.1-1.924-.142Zm3.828.3c.644.055,1.279.112,1.923.171l.087-.962c-.645-.061-1.279-.118-1.923-.173Zm3.838.359c.645.064,1.279.132,1.924.2l.105-.956q-.961-.1-1.933-.2Zm3.829.419q.952.111,1.9.23l.125-.954c-.645-.08-1.279-.157-1.914-.231Zm3.808.475q.953.127,1.9.262l.135-.953c-.636-.089-1.279-.177-1.914-.262Zm3.809.538,1.895.289.154-.95-1.914-.289Zm3.8.6q.952.157,1.9.323l.163-.948q-.952-.166-1.9-.325Zm3.808.662q.938.172,1.876.351l.182-.945c-.634-.119-1.26-.238-1.895-.352Zm3.761.718,1.875.385.192-.943c-.624-.13-1.259-.259-1.884-.385Zm3.752.781c.634.136,1.259.273,1.885.414l.212-.939c-.636-.141-1.26-.28-1.885-.415Zm3.76.845q.938.219,1.877.447l.231-.935c-.626-.152-1.261-.3-1.885-.449Zm3.762.911c.615.156,1.23.314,1.856.475l.24-.931c-.625-.162-1.24-.321-1.866-.481Zm3.7.962q.924.25,1.847.506l.259-.926c-.625-.172-1.24-.341-1.856-.508Zm3.693,1.028q.924.266,1.847.539l.27-.922c-.615-.183-1.232-.363-1.856-.541Zm3.685,1.094q.923.283,1.846.577l.288-.918-1.847-.577Zm3.693,1.161c.606.2,1.221.4,1.828.605l.307-.913q-.922-.307-1.846-.607Zm3.636,1.217c.606.207,1.2.416,1.808.628l.317-.907c-.606-.214-1.2-.423-1.808-.631Zm3.606,1.273c.606.217,1.2.438,1.809.662l.336-.9q-.909-.337-1.818-.664Zm3.608,1.34c.6.23,1.2.462,1.8.7l.346-.9c-.6-.236-1.2-.469-1.8-.7Zm3.6,1.409q.9.361,1.789.73l.366-.89c-.6-.247-1.2-.491-1.8-.733Zm3.568,1.472c.587.246,1.165.5,1.752.747l.384-.883q-.88-.38-1.76-.751Zm3.5,1.513c.586.258,1.163.519,1.75.781l.4-.876c-.587-.265-1.174-.526-1.75-.785Zm3.492,1.58c.586.269,1.164.541,1.75.816l.4-.866c-.578-.276-1.164-.549-1.75-.819Zm3.492,1.649q.866.421,1.732.85l.432-.866c-.586-.288-1.164-.577-1.75-.854Zm3.472,1.718c.568.289,1.144.577,1.712.875l.442-.854c-.577-.3-1.145-.59-1.721-.88Zm3.395,1.754c.567.3,1.126.594,1.683.9l.462-.847c-.567-.3-1.125-.6-1.692-.9Zm3.367,1.809c.558.307,1.125.616,1.683.929l.462-.839c-.558-.315-1.116-.625-1.683-.934Zm3.356,1.877,1.674.962.48-.831c-.557-.326-1.115-.648-1.682-.968Zm3.338,1.945q.837.5,1.674,1l.491-.823q-.838-.5-1.674-1Zm3.318,2.007q.809.5,1.617,1l.509-.815q-.807-.506-1.616-1.006Zm3.223,2.02c.538.342,1.067.688,1.606,1.035l.519-.806c-.529-.349-1.067-.7-1.606-1.039Zm3.2,2.087c.538.353,1.067.709,1.605,1.069l.54-.8c-.54-.361-1.078-.719-1.607-1.073Zm3.193,2.154c.539.364,1.068.732,1.6,1.1l.548-.788c-.529-.372-1.058-.742-1.6-1.107Zm3.184,2.222c.528.377,1.059.756,1.587,1.137l.567-.779-1.6-1.142Zm3.127,2.259c.509.374,1.018.751,1.519,1.13l.577-.769q-.765-.571-1.529-1.134Zm3.049,2.277c.5.385,1.01.769,1.509,1.162l.587-.761c-.5-.392-1.01-.781-1.52-1.168Zm3.03,2.34c.5.4,1,.795,1.509,1.2l.6-.752c-.511-.4-1.011-.8-1.52-1.2Zm3.01,2.4q.749.611,1.5,1.228l.615-.743c-.5-.414-1.01-.824-1.511-1.233Zm3,2.473q.751.626,1.5,1.261l.615-.732q-.751-.638-1.5-1.267Zm2.934,2.492c.481.412.953.826,1.433,1.243l.635-.723q-.722-.627-1.443-1.25Zm2.856,2.5c.472.422.953.846,1.424,1.274l.645-.714c-.482-.429-.953-.856-1.434-1.28Zm2.838,2.565q.707.649,1.414,1.306l.653-.7q-.707-.66-1.414-1.311Zm2.827,2.629c.472.443.942.89,1.4,1.338l.674-.694-1.414-1.347Zm2.809,2.693c.472.454.933.911,1.405,1.371l.673-.685c-.471-.461-.933-.919-1.4-1.375Zm2.751,2.712c.442.444.894.892,1.337,1.342l.682-.673c-.442-.451-.894-.9-1.336-1.347Zm2.663,2.693c.443.454.885.912,1.318,1.371l.7-.666c-.443-.461-.885-.919-1.337-1.375Zm2.646,2.758c.432.465.875.931,1.308,1.4l.711-.656q-.663-.707-1.327-1.406Zm2.626,2.817c.432.475.876.952,1.307,1.432l.713-.647c-.433-.481-.875-.962-1.318-1.436Zm2.616,2.879q.649.727,1.3,1.462l.722-.637c-.433-.492-.876-.98-1.308-1.467Zm2.587,2.934c.415.472.818.945,1.231,1.422l.731-.627q-.619-.716-1.24-1.427Zm2.462,2.858c.4.481.818.962,1.222,1.451l.74-.619c-.413-.488-.817-.972-1.23-1.455Zm2.444,2.916q.6.736,1.212,1.478l.75-.608c-.414-.5-.817-.992-1.22-1.484Zm2.424,2.972q.607.75,1.212,1.507l.75-.6q-.606-.759-1.212-1.512Zm2.414,3.03c.4.51.8,1.021,1.2,1.539l.76-.59c-.4-.517-.808-1.03-1.2-1.539Zm2.394,3.087c.4.519.8,1.042,1.194,1.566l.769-.577c-.394-.525-.8-1.048-1.192-1.57Zm2.328,3.078q.565.753,1.126,1.513l.779-.571c-.375-.508-.76-1.014-1.135-1.518Zm2.252,3.039c.366.512.741,1.024,1.116,1.539l.778-.562q-.563-.776-1.125-1.545Zm2.222,3.093c.375.52.741,1.042,1.116,1.567l.779-.553c-.365-.526-.74-1.05-1.106-1.572Zm2.222,3.147q.549.793,1.1,1.593l.79-.544q-.549-.8-1.1-1.6Zm2.193,3.2q.549.806,1.1,1.621l.8-.536q-.55-.817-1.1-1.625Zm2.183,3.255c.357.544.722,1.091,1.077,1.635l.808-.527c-.365-.55-.722-1.1-1.087-1.645Zm2.106,3.213c.337.526.673,1.058,1.019,1.585l.809-.519c-.347-.532-.683-1.058-1.02-1.589Zm2.03,3.183q.5.8,1.01,1.609l.818-.51q-.506-.81-1.01-1.614Zm2.019,3.232q.5.814,1.01,1.635l.817-.5q-.5-.822-1.01-1.635Zm2.01,3.282c.328.551.664,1.1.992,1.659l.827-.492c-.328-.557-.664-1.112-1-1.664Zm1.991,3.332q.491.838.981,1.684l.837-.481c-.326-.565-.664-1.127-.991-1.689Zm1.973,3.382q.489.851.981,1.71l.836-.481q-.491-.86-.981-1.714Zm1.923,3.371c.308.544.615,1.091.913,1.635l.847-.468-.924-1.643Zm1.838,3.289c.3.552.606,1.106.913,1.662l.837-.461c-.3-.558-.606-1.113-.914-1.666Zm1.818,3.335c.3.56.605,1.121.9,1.685l.847-.453c-.3-.566-.605-1.128-.9-1.689Zm1.808,3.381q.447.851.9,1.708l.855-.445c-.3-.577-.606-1.144-.9-1.712ZM1569,343.35c.3.577.6,1.154.885,1.731l.857-.439c-.289-.577-.588-1.154-.886-1.731Zm1.769,3.473c.3.583.6,1.168.885,1.754l.866-.43c-.3-.588-.6-1.174-.885-1.758Zm1.76,3.52c.289.577.578,1.154.856,1.731l.865-.423c-.289-.577-.568-1.154-.856-1.731Zm1.673,3.417c.279.564.549,1.13.818,1.7l.875-.415c-.279-.569-.549-1.136-.828-1.7Zm1.635,3.406q.4.857.809,1.719l.874-.409c-.27-.577-.538-1.154-.818-1.722Zm1.615,3.448q.405.866.809,1.739l.875-.4q-.4-.875-.807-1.743Zm1.607,3.489c.26.586.529,1.173.8,1.761l.875-.394c-.269-.59-.529-1.178-.8-1.764Zm1.588,3.533c.259.592.529,1.187.788,1.782l.885-.385c-.27-.6-.529-1.192-.8-1.786Zm1.577,3.576q.39.9.78,1.8l.885-.385c-.26-.6-.529-1.206-.789-1.807Zm1.558,3.618c.125.3.26.606.385.91l.885-.375c-.125-.3-.26-.609-.385-.912Z" transform="translate(-1107.548 -161.081)" fill="#786ce6" opacity="0.4"/>
      <path id="Path_15572" data-name="Path 15572" d="M1552.971,245.5a.48.48,0,0,0-.471.487l.057,4.328a.481.481,0,0,0,.481.475.487.487,0,0,0,.481-.488l-.049-3.847,3.848-.049a.481.481,0,1,0-.02-.962Zm-.327.825q.347.339.693.673l.672-.688-.694-.673Zm2.058,2.02c.45.443.9.885,1.357,1.325l.672-.685c-.451-.441-.894-.883-1.355-1.327Zm2.723,2.678c.451.449.9.9,1.347,1.347l.682-.681q-.673-.673-1.357-1.347Zm2.693,2.693c.453.455.9.908,1.346,1.359l.683-.673c-.442-.452-.893-.906-1.346-1.362Zm2.674,2.706c.452.46.9.919,1.346,1.375l.683-.673c-.443-.457-.885-.917-1.337-1.377Zm2.664,2.74c.442.462.885.921,1.317,1.379l.7-.664-1.327-1.394Zm2.634,2.763,1.3,1.387.7-.656q-.65-.693-1.3-1.391Zm2.6,2.789c.434.468.858.934,1.28,1.4l.711-.646c-.423-.467-.846-.935-1.277-1.4Zm2.559,2.823c.424.474.846.946,1.26,1.42l.722-.636c-.414-.474-.838-.949-1.26-1.424Zm2.522,2.859c.412.481.826.962,1.23,1.443l.741-.623c-.414-.481-.827-.962-1.25-1.448Zm2.461,2.9q.619.733,1.211,1.467l.751-.61c-.4-.491-.807-.982-1.222-1.474Zm2.414,2.947,1.183,1.491.749-.593c-.384-.5-.787-1-1.183-1.5Zm2.347,3,1.153,1.517.769-.577c-.384-.51-.769-1.018-1.163-1.526Zm2.278,3.046c.375.513.751,1.027,1.117,1.544l.788-.559q-.563-.779-1.125-1.552Zm2.213,3.1c.365.521.722,1.045,1.077,1.57l.8-.539c-.365-.529-.721-1.058-1.086-1.579Zm2.137,3.153c.345.529.691,1.058,1.028,1.6l.809-.518q-.507-.806-1.039-1.606Zm2.048,3.206c.327.537.664,1.077.99,1.621l.828-.5c-.337-.546-.664-1.091-1-1.635Zm1.962,3.258q.475.818.953,1.645l.836-.475c-.318-.556-.635-1.107-.962-1.656Zm1.885,3.309c.308.551.606,1.107.9,1.667l.846-.454c-.3-.564-.606-1.123-.914-1.678Zm1.8,3.356q.435.838.866,1.687l.856-.433q-.432-.855-.866-1.7Zm1.714,3.4c.277.565.547,1.133.817,1.706l.875-.413c-.278-.577-.548-1.148-.825-1.716Zm1.634,3.437q.39.857.779,1.731l.875-.393c-.26-.584-.52-1.163-.788-1.737Zm1.548,3.472c.251.577.5,1.16.75,1.751l.885-.373q-.375-.887-.751-1.76Zm1.482,3.5c.239.587.47,1.179.711,1.776l.894-.356q-.36-.9-.722-1.784Zm1.4,3.537c.231.592.462,1.189.684,1.791l.9-.34q-.344-.906-.692-1.8Zm1.347,3.565c.211.593.432,1.191.645,1.794l.9-.324c-.211-.6-.432-1.205-.643-1.8Zm1.279,3.6c.213.592.414,1.19.616,1.792l.914-.31c-.2-.6-.414-1.2-.617-1.8Zm1.232,3.613c.192.595.4,1.195.586,1.8l.914-.3c-.193-.606-.4-1.208-.588-1.8Zm1.164,3.613q.289.909.576,1.833l.914-.284c-.183-.619-.375-1.232-.567-1.839Zm1.125,3.639q.274.91.549,1.835l.923-.273q-.274-.928-.549-1.84Zm1.087,3.666c.172.6.347,1.209.519,1.821l.923-.262q-.259-.92-.519-1.828Zm1.039,3.67c.173.607.337,1.218.509,1.833l.923-.253c-.162-.618-.335-1.23-.5-1.838Zm1,3.665q.244.923.491,1.859l.932-.244q-.245-.94-.49-1.863Zm.972,3.7c.154.608.318,1.22.471,1.838l.933-.237c-.154-.618-.317-1.232-.471-1.842Zm.942,3.7q.231.918.463,1.848l.933-.23q-.231-.932-.463-1.852Zm.905,3.688c.154.617.3,1.24.452,1.866l.932-.223c-.153-.627-.3-1.251-.452-1.869Zm.893,3.73c.145.609.28,1.221.424,1.839l.943-.217q-.216-.926-.433-1.841Zm.857,3.7c.144.625.288,1.25.424,1.889l.941-.213q-.216-.95-.431-1.891Zm.837,3.722c.134.615.279,1.234.412,1.857l.943-.207c-.144-.624-.278-1.243-.414-1.86Zm.828,3.738q.1.474.2.95l.943-.2c-.068-.317-.135-.635-.212-.95Z" transform="translate(-1123.046 -163.262)" fill="#786ce6" opacity="0.4"/>
      <path id="Path_15574" data-name="Path 15574" d="M1524.057,256.54s-1.625-14.177-.924-14.875,4.877-8.368,5.338-8.135c.7.233.933,2.092.933,3.487s-1.856,12.318-1.856,12.318Z" transform="translate(-1121.917 -162.807)" fill="#f8c3b0"/>
      <path id="Path_15575" data-name="Path 15575" d="M1461.123,598.953s30.683-212.9-2.79-269.842c-6.039-10.226-61.123-107.844-66.7-92.5-5.348,15.34,8.6,362.346,8.6,362.346h15.111s13.475-194.537,18.593-202.672c5.115-8.368,12.32,202.672,12.32,202.672Z" transform="translate(-1116.858 -162.862)" fill="#1d1934"/>
      <path id="Path_15576" data-name="Path 15576" d="M1479.211,371.26s-58.565,5.114-88.555,0c0,0-3.713-114.816,1.164-135.04,3.02-13.015,76.7-18.826,80.187,5.114C1475.029,261.325,1479.211,371.26,1479.211,371.26Z" transform="translate(-1116.816 -162.478)" fill="#4fbd88"/>
      <path id="Path_15577" data-name="Path 15577" d="M1471.266,188.426c-4.183,9.3-12.312,32.538-31.6,28.587s-2.559-48.111,9.532-50.668C1458.715,164.486,1476.615,176.572,1471.266,188.426Z" transform="translate(-1118.402 -160.234)" fill="#f8c3b0"/>
      <path id="Path_15578" data-name="Path 15578" d="M1450.876,613.4a65.4,65.4,0,0,0,0,6.74c.231.465,25.336,5.114,28.355,4.416s.471-4.649-1.154-5.579-14.419-5.578-14.419-5.578Z" transform="translate(-1119.161 -177.308)" fill="#1d1934"/>
      <path id="Path_15579" data-name="Path 15579" d="M1413.939,613.4a65.438,65.438,0,0,1,0,6.74c-.23.465-25.333,5.114-28.354,4.416s-.462-4.649,1.164-5.579,14.407-5.578,14.407-5.578Z" transform="translate(-1116.621 -177.308)" fill="#1d1934"/>
      <path id="Path_15580" data-name="Path 15580" d="M1522.65,261.454s.7-8.134,2.1-10.459c1.164-2.324,3.954-5.346,6.743-4.183s.462,7.2.462,7.2l-4.415,7.9Z" transform="translate(-1121.906 -163.304)" fill="#f8c3b0"/>
      <path id="Path_15581" data-name="Path 15581" d="M1522.65,261.058s13.254-10.923,13.946-12.085c.933-.93,7.435-12.784,7.435-12.784s2.79,1.395,2.328,3.487c-.692,2.092-13.715,29.285-13.715,29.285Z" transform="translate(-1121.906 -162.908)" fill="#f8c3b0"/>
      <path id="Path_15582" data-name="Path 15582" d="M1533.005,257.6l-13.255-4.183,13.024-22.545,13.013,2.789Z" transform="translate(-1121.793 -162.705)" fill="#1d1934"/>
      <path id="Path_15583" data-name="Path 15583" d="M1482.13,186.161s-6.041,7.438-16.5,1.626c-10.224-5.81-19.757-9.064-21.844-8.6s-5.116,12.784-6.039,13.017l-6.511,3.951s-5.117-12.086.932-23.01c5.81-10.924,15.8-13.248,17.89-10.46,0,0,12.783.233,20.228,9.53A167.03,167.03,0,0,0,1482.13,186.161Z" transform="translate(-1118.339 -160.061)" fill="#1d1934"/>
      <path id="Path_15584" data-name="Path 15584" d="M1471.8,235.706s24.4,42.766,25.335,42.533,22.776-19.059,22.776-19.059l12.783,9.761s-26.258,41.6-33.232,42.534-42.541-35.793-42.541-35.793Z" transform="translate(-1119.397 -162.89)" fill="#4fbd88"/>
      <path id="Path_15585" data-name="Path 15585" d="M1536.43,252.516s1.856-16.967,3.712-18.361c1.625-1.395,6.511-2.324,6.973-2.557.471,0,.7,5.81,0,7.9C1545.952,241.592,1536.43,252.516,1536.43,252.516Z" transform="translate(-1122.432 -162.733)" fill="#f8c3b0"/>
      <path id="Path_15586" data-name="Path 15586" d="M1435.716,195.5s.462-10.692-2.559-7.9c-3.019,2.557-1.857,11.854-1.857,11.854Z" transform="translate(-1118.41 -161.036)" fill="#f8c3b0"/>
      <path id="Path_15587" data-name="Path 15587" d="M1445.336,215.633l-2.789,9.064,6.28.7s-4.655,12.086-16.965,9.762-10.466-10.923-10.466-10.923l6.049.464,5.571-15.572Z" transform="translate(-1118.036 -161.875)" fill="#f8c3b0"/>
      <path id="Path_15588" data-name="Path 15588" d="M1390.626,236.672s-15.112,17.432-29.75,69.262,31.374,101.1,31.374,101.1,1.4-10.691-.692-27.194c-2.559-19.525-8.6-45.555-8.138-50.668.7-9.3,22.316-33.237,22.316-33.237Z" transform="translate(-1115.62 -162.927)" fill="#4fbd88"/>
      <path id="Path_15589" data-name="Path 15589" d="M1382.98,399.473l9.532-13.947s6.272,9.762,5.578,13.947-4.415,23.475-4.415,23.475Z" transform="translate(-1116.574 -168.61)" fill="#f8c3b0"/>
      <g id="Group_11306" data-name="Group 11306" transform="translate(425.123 37.56)">
        <path id="Path_15590" data-name="Path 15590" d="M1678.349,554.936a2.558,2.558,0,0,0,2.481-3.167l-9.82-40.118a2.557,2.557,0,1,0-4.963,1.232L1675.868,553a2.579,2.579,0,0,0,.913,1.394A2.539,2.539,0,0,0,1678.349,554.936Z" transform="translate(-1552.5 -296.464)" fill="#0b0755"/>
        <path id="Path_15591" data-name="Path 15591" d="M1735.6,554.217a2.615,2.615,0,0,0,.615-.073,2.55,2.55,0,0,0,1.577-1.159,2.507,2.507,0,0,0,.337-.937,2.644,2.644,0,0,0-.038-1L1723.85,492.84a2.562,2.562,0,0,0-4.974,1.231l14.245,58.212a2.582,2.582,0,0,0,.914,1.392A2.533,2.533,0,0,0,1735.6,554.217Z" transform="translate(-1554.516 -295.746)" fill="#0b0755"/>
        <path id="Path_15592" data-name="Path 15592" d="M1708.091,338.341c-98.117,0-79.265,100.905-110.177,99.172s-45.263,71.148,67.193,71.148S1798.4,338.341,1708.091,338.341Z" transform="translate(-1549.058 -289.922)" fill="#f7c366"/>
        <path id="Path_15593" data-name="Path 15593" d="M1569.03,534.033s.25,17.341.115,17.591,1.259,2.42,1.259,2.42l5.474.977,4.991-2.3s-.442-16.12.087-18.659S1569.03,534.033,1569.03,534.033Z" transform="translate(-1548.799 -297.35)" fill="#fb9391"/>
        <path id="Path_15594" data-name="Path 15594" d="M1580.066,553.454s-6.3,2.206-11.694-1.442c0,0-20.987,7.87-20.353,13.85,0,0-.884,1.783,8.214,1.4s23.238-.794,23.613-1S1582,567.012,1580.066,553.454Z" transform="translate(-1547.995 -298.079)" fill="#0b0755"/>
        <path id="Path_15595" data-name="Path 15595" d="M1624.1,534.033s.251,17.341.115,17.591,1.261,2.42,1.261,2.42l5.471.977,4.993-2.3s-.443-16.12.077-18.659S1624.1,534.033,1624.1,534.033Z" transform="translate(-1550.902 -297.35)" fill="#fb9391"/>
        <path id="Path_15596" data-name="Path 15596" d="M1635.137,553.454s-6.31,2.206-11.7-1.442c0,0-20.988,7.87-20.352,13.85,0,0-.9,1.783,8.213,1.4s23.228-.794,23.614-1S1637.061,567.012,1635.137,553.454Z" transform="translate(-1550.1 -298.079)" fill="#0b0755"/>
        <path id="Path_15597" data-name="Path 15597" d="M1676.616,323.644s-1.636-1.975-2.664-.986c-2.6,2.525.558,5.056,2.529,5.482Z" transform="translate(-1552.769 -289.312)" fill="#ea6868"/>
        <path id="Path_15598" data-name="Path 15598" d="M1675.2,314.8c-.039-.222-.066-.444-.1-.673a17.48,17.48,0,1,1,34.02,3.4c-1.154,4.243-2.193,7.877-3.366,10.933a24.947,24.947,0,0,0-.655,15.834l1.174,4.107c-10.052,6.863-15.5,2.116-15.5,2.116l-1.049-7.643a1.933,1.933,0,0,0-2.021-1.667C1674.365,341.8,1675.875,320.766,1675.2,314.8Z" transform="translate(-1552.845 -288.257)" fill="#fb9391"/>
        <path id="Path_15599" data-name="Path 15599" d="M1694.86,322.945a1.644,1.644,0,0,1,3.2-.682,1.7,1.7,0,0,1,.009.957,1.662,1.662,0,0,1-.529.8,1.642,1.642,0,0,1-2.077.015A1.667,1.667,0,0,1,1694.86,322.945Z" transform="translate(-1553.603 -289.264)" fill="#050521"/>
        <path id="Path_15600" data-name="Path 15600" d="M1679.589,321.608a1.69,1.69,0,0,1,.164-.943,1.709,1.709,0,0,1,.663-.69,1.671,1.671,0,0,1,.943-.2,1.639,1.639,0,0,1,.885.355,1.6,1.6,0,0,1,.538.791,1.64,1.64,0,1,1-3.193.689Z" transform="translate(-1553.02 -289.213)" fill="#050521"/>
        <path id="Path_15601" data-name="Path 15601" d="M1700.317,319.595a.963.963,0,0,0,.482-.192.9.9,0,0,0,.24-.278.948.948,0,0,0,.106-.722,1.058,1.058,0,0,0-.163-.335,5.129,5.129,0,0,0-7.108-.859.938.938,0,0,0-.414.6.9.9,0,0,0,.134.718.937.937,0,0,0,.6.415.963.963,0,0,0,.722-.132c2.809-1.816,4.473.321,4.549.411a.948.948,0,0,0,.374.3A.972.972,0,0,0,1700.317,319.595Z" transform="translate(-1553.548 -289.075)" fill="#050521"/>
        <path id="Path_15602" data-name="Path 15602" d="M1684.267,318.71a.96.96,0,0,0,.654-1.527,5.114,5.114,0,0,0-7.1-.866.931.931,0,0,0-.413.6.967.967,0,0,0-.01.372.917.917,0,0,0,.134.346,1.079,1.079,0,0,0,.261.267.986.986,0,0,0,.345.147.923.923,0,0,0,.367,0,.87.87,0,0,0,.345-.136c2.808-1.816,4.483.321,4.55.411a.917.917,0,0,0,.385.3A.963.963,0,0,0,1684.267,318.71Z" transform="translate(-1552.935 -289.041)" fill="#050521"/>
        <path id="Path_15603" data-name="Path 15603" d="M1712.6,311.859l-3.415,12.272-3.232-.28L1702.39,308.9Z" transform="translate(-1553.891 -288.798)" fill="#050521"/>
        <path id="Path_15604" data-name="Path 15604" d="M1705.532,324.026a2.591,2.591,0,0,1,1.23-1.375c1.145-.617,3.2-1.38,4.82-.087,2.375,1.9-1.3,8.029-5.849,5.688C1705.713,328.252,1704.368,327.172,1705.532,324.026Z" transform="translate(-1553.991 -289.293)" fill="#fb9391"/>
        <path id="Path_15605" data-name="Path 15605" d="M1686.835,329.748a3.251,3.251,0,0,0,2.934-.411.345.345,0,0,0,.077-.085.251.251,0,0,0,.04-.11.243.243,0,0,0-.011-.114.36.36,0,0,0-.144-.179.23.23,0,0,0-.106-.037.267.267,0,0,0-.116.009.291.291,0,0,0-.106.057,2.653,2.653,0,0,1-3.193-.1,1.079,1.079,0,0,1-.452-.509c-.039-.14.173-.463.452-.845a8.266,8.266,0,0,0,1.788-5.377.265.265,0,0,0-.087-.2.269.269,0,0,0-.191-.084.276.276,0,0,0-.2.084.268.268,0,0,0-.086.2,7.635,7.635,0,0,1-1.674,5.052c-.347.472-.626.845-.558,1.268a1.443,1.443,0,0,0,.673.883A3.751,3.751,0,0,0,1686.835,329.748Z" transform="translate(-1553.234 -289.289)" fill="#ea6868"/>
        <path id="Path_15606" data-name="Path 15606" d="M1693.588,332.382s-6.511,1.539-10.907.054c0,0,1.6,4.957,5.482,4.928S1693.588,332.382,1693.588,332.382Z" transform="translate(-1553.14 -289.694)" fill="#fff"/>
        <path id="Path_15607" data-name="Path 15607" d="M1677.209,308.222s-2.3,2.029-1.751,12.641c0,0-2.145-11.66-.981-13.1S1677.209,308.222,1677.209,308.222Z" transform="translate(-1552.811 -288.734)" fill="#0b0755"/>
        <path id="Path_15608" data-name="Path 15608" d="M1712.071,307.107a18.247,18.247,0,0,0-2.76-7.18,4.838,4.838,0,0,0,3.568-.489c.982-.747.952-2.678-.25-2.929-.7-.143-1.375.337-2.088.411-1.616.222-2.79-1.5-3.308-3.047s-.982-3.372-2.473-4.07a2.679,2.679,0,0,0-1.5-.23,8.746,8.746,0,0,0,.779,5.6,22.9,22.9,0,0,0-7.079-5.751c-2.117-1.1-4.607-1.88-6.867-1.122-.472,1.84,2.577,2.712,2.971,4.568a41.065,41.065,0,0,0-12.446-1.125,8.138,8.138,0,0,0-3.135.662,3.178,3.178,0,0,0-1.876,2.463,2.351,2.351,0,0,0,.174,1.021,2.466,2.466,0,0,0,.567.866,2.565,2.565,0,0,0,.876.56,2.5,2.5,0,0,0,1.02.162,26.49,26.49,0,0,0-5.886,3.41,8.876,8.876,0,0,0-3.348,5.75,8.85,8.85,0,0,0,4.368-1.109c-.915.854-1.7,2.144-1.233,3.286a2.543,2.543,0,0,0,.925,1.013,2.493,2.493,0,0,0,1.307.385,7.381,7.381,0,0,0,2.713-.517l13.349-4.328a15.4,15.4,0,0,0-3.617,6.7,20.919,20.919,0,0,0,11.033-4.825,21.014,21.014,0,0,0,1.924,5.483,1.519,1.519,0,0,0,.568.7c.893.481,1.635-.854,2.433-1.483.99-.77,2.463-.436,3.549.164,1.895,1.036,3.212,2.547,4.674.289A8.258,8.258,0,0,0,1712.071,307.107Z" transform="translate(-1552.617 -288)" fill="#050521"/>
        <path id="Path_15609" data-name="Path 15609" d="M1590.792,444.026s-20.3,1.644-26.815,27.519c-3.79,15.036-2.309,64-2.309,64L1588,539.674s-2.355-54.715,18.045-71.579c0,0-4.135,11.114,10.811,74.34H1636.4l6.511-64.765s46,1.531,59.787-9.965,15.2-25.259,15.2-25.259l-65-9.857Z" transform="translate(-1548.507 -293.52)" fill="#786ce6"/>
        <path id="Path_15610" data-name="Path 15610" d="M1709.984,352.658s-1.28-9.836-3.328-9.322-20.18,3.811-21.968,3.436,0,8.314,0,8.314-20.419,1.859-25.527,10.546-17,41.671-21.342,44.485-12.918,10.629-12.918,10.629l35.328,19.87,33.463-1.569s24.21,14.51,43.128,3.212,15.582-70.566-2.3-81.043S1709.984,352.658,1709.984,352.658Z" transform="translate(-1550.931 -290.112)" fill="#fff5f1"/>
        <path id="Path_15611" data-name="Path 15611" d="M1651.509,433.074a.383.383,0,0,0,.107,0c10.186-4.453,15.649-48.466,15.88-50.317a.312.312,0,0,0-.01-.1.175.175,0,0,0-.047-.089.162.162,0,0,0-.077-.064.236.236,0,0,0-.087-.031.282.282,0,0,0-.105.006.276.276,0,0,0-.087.044.268.268,0,0,0-.066.076.169.169,0,0,0-.03.1c-.058.456-5.656,45.59-15.581,49.906a.284.284,0,0,0-.116.118.206.206,0,0,0-.019.168.223.223,0,0,0,.086.146.233.233,0,0,0,.153.06Z" transform="translate(-1551.939 -291.607)" fill="#0b0755"/>
        <path id="Path_15612" data-name="Path 15612" d="M1696.1,441.119a.285.285,0,0,0,.144-.043.25.25,0,0,0,.087-.113.224.224,0,0,0,0-.192.238.238,0,0,0-.125-.142l-7.377-3.221,1.03-12.847c2.212-.411,22.939-4.468,32.856-5.627a.238.238,0,0,0,.163-.083.258.258,0,0,0,.067-.168c0-.988.366-24.318-1.173-27.78a.281.281,0,0,0-.144-.13.249.249,0,0,0-.192.007.289.289,0,0,0-.135.139.264.264,0,0,0,.009.192c1.405,3.184,1.155,24.89,1.126,27.343-10.521,1.231-32.615,5.6-32.856,5.642a.268.268,0,0,0-.211.231l-1.057,13.221a.281.281,0,0,0,.029.152.3.3,0,0,0,.126.107l7.54,3.286A.2.2,0,0,0,1696.1,441.119Z" transform="translate(-1553.353 -291.923)" fill="#0b0755"/>
        <path id="Path_15613" data-name="Path 15613" d="M1607.81,468.743a.227.227,0,0,0,.154-.061.326.326,0,0,0,.1-.15c.038-.226,4.693-22.709,41.484-25.37a.312.312,0,0,0,.1-.026.23.23,0,0,0,.077-.06.289.289,0,0,0,.048-.087.17.17,0,0,0,.009-.1.359.359,0,0,0-.019-.1.27.27,0,0,0-.057-.083.273.273,0,0,0-.1-.049.213.213,0,0,0-.1-.008c-19.429,1.4-29.8,8.325-35.078,13.882-5.752,6.043-6.877,11.846-6.886,11.912v.1a.3.3,0,0,0,.038.09.249.249,0,0,0,.077.07.22.22,0,0,0,.086.037Z" transform="translate(-1550.27 -293.904)" fill="#0b0755"/>
        <path id="Path_15614" data-name="Path 15614" d="M1681.69,427.562l-1.365.04c-4.193.132-16.736.564-18.188,1.076-1.751.616,3.52,11.567,3.52,11.567s15.072.821,19.92-2.411S1681.69,427.562,1681.69,427.562Z" transform="translate(-1552.34 -293.328)" fill="#f78181"/>
        <path id="Path_15615" data-name="Path 15615" d="M1667.515,440.732s-8.416,3.807-9.157,2.982,6.57-5.076,6.57-5.076Z" transform="translate(-1552.208 -293.751)" fill="#f78181"/>
        <path id="Path_15616" data-name="Path 15616" d="M1664.957,437.906s-12.445,5.122-13.388,3.4,12.83-6.162,12.83-6.162Z" transform="translate(-1551.948 -293.617)" fill="#f78181"/>
        <path id="Path_15617" data-name="Path 15617" d="M1663.228,434.766s-12.85,4.017-13.639,2.218,13.331-5.019,13.331-5.019Z" transform="translate(-1551.873 -293.496)" fill="#f78181"/>
        <path id="Path_15618" data-name="Path 15618" d="M1662.593,431.4s-12,3.917-12.754,2.116,12.446-4.929,12.446-4.929Z" transform="translate(-1551.883 -293.367)" fill="#f78181"/>
        <path id="Path_15619" data-name="Path 15619" d="M1679.49,427.89l9.473-1.187-.865,10.707-4.876,1.094Z" transform="translate(-1553.017 -293.295)" fill="#f78181"/>
        <path id="Path_15620" data-name="Path 15620" d="M1567.97,393.482l69.328-.1,21.8,50.688-69.319.1Z" transform="translate(-1548.759 -292.023)" fill="#050521"/>
        <path id="Path_15621" data-name="Path 15621" d="M1648.579,445.976l46.408-.065v-3.069l-46.417.066Z" transform="translate(-1551.836 -293.911)" fill="#050521"/>
        <path id="Path_15622" data-name="Path 15622" d="M1611.138,418.891a2.958,2.958,0,0,0-.5-1.7,3.053,3.053,0,1,0-4.261,4.21,3.1,3.1,0,0,0,1.692.523A3.052,3.052,0,0,0,1611.138,418.891Z" transform="translate(-1550.176 -292.879)" fill="#fff"/>
        <path id="Path_15623" data-name="Path 15623" d="M1780.99,560.632h-.058a.246.246,0,0,1-.094-.042.253.253,0,0,1-.068-.073.314.314,0,0,1-.039-.1.42.42,0,0,1,.009-.1c8.215-36.357,16.189-62.173,22.469-72.7.1-.158.192-.321.279-.489a.252.252,0,0,1,.145-.137.249.249,0,0,1,.193,0,.27.27,0,0,1,.133.341,5.829,5.829,0,0,1-.307.545c-6.252,10.484-14.206,36.248-22.411,72.55a.278.278,0,0,1-.086.144A.261.261,0,0,1,1780.99,560.632Z" transform="translate(-1556.881 -295.596)" fill="#bdb2f0"/>
        <path id="Path_15624" data-name="Path 15624" d="M1808.823,485.229c-.75,1.185-4.771,3.544-5.108,3.331s.068-4.857.818-6.039a2.537,2.537,0,0,1,3.606-.969,2.591,2.591,0,0,1,.751.725,2.686,2.686,0,0,1,.394.962,2.375,2.375,0,0,1-.029,1.041A2.632,2.632,0,0,1,1808.823,485.229Z" transform="translate(-1557.753 -295.374)" fill="#bdb2f0"/>
        <path id="Path_15625" data-name="Path 15625" d="M1800.721,489.461c.509,1.341-.038,6.076-.423,6.221s-3.924-3.054-4.435-4.384a2.6,2.6,0,0,1,4.859-1.837Z" transform="translate(-1557.453 -295.627)" fill="#bdb2f0"/>
        <path id="Path_15626" data-name="Path 15626" d="M1806.434,497.458c-1.414.193-5.9-1.405-5.963-1.809s3.847-3.14,5.271-3.334a2.539,2.539,0,0,1,1.02.044,2.6,2.6,0,0,1,.932.438,2.506,2.506,0,0,1,.684.763,2.358,2.358,0,0,1,.337.971,2.637,2.637,0,0,1-.058,1.024,2.764,2.764,0,0,1-.461.919,2.648,2.648,0,0,1-.779.673A2.566,2.566,0,0,1,1806.434,497.458Z" transform="translate(-1557.635 -295.799)" fill="#bdb2f0"/>
        <path id="Path_15627" data-name="Path 15627" d="M1789.593,514.859c1.1,2.145,1.039,10.143.423,10.456s-7.1-4.37-8.184-6.515a4.353,4.353,0,1,1,7.761-3.943Z" transform="translate(-1556.906 -296.57)" fill="#bdb2f0"/>
        <path id="Path_15628" data-name="Path 15628" d="M1800.59,527.149c-2.337.577-10.117-1.274-10.281-1.942s5.858-5.938,8.185-6.515a4.356,4.356,0,1,1,2.1,8.457Z" transform="translate(-1557.247 -296.802)" fill="#bdb2f0"/>
        <path id="Path_15629" data-name="Path 15629" d="M1783.715,524.587c1.875,2.268,3.963,11.83,3.309,12.369s-9.657-3.308-11.533-5.568a5.332,5.332,0,1,1,8.215-6.8Z" transform="translate(-1556.635 -296.958)" fill="#bdb2f0"/>
        <path id="Path_15630" data-name="Path 15630" d="M1799.322,540.565c-2.914.41-12.157-2.828-12.272-3.655s7.877-6.487,10.791-6.9a5.33,5.33,0,1,1,1.481,10.556Z" transform="translate(-1557.122 -297.237)" fill="#bdb2f0"/>
        <path id="Path_15631" data-name="Path 15631" d="M1780.545,536.94c1.875,2.267,3.964,11.83,3.309,12.368s-9.657-3.309-11.533-5.568a5.332,5.332,0,0,1,8.215-6.8Z" transform="translate(-1556.513 -297.43)" fill="#bdb2f0"/>
        <path id="Path_15632" data-name="Path 15632" d="M1796.152,552.918c-2.913.409-12.157-2.828-12.272-3.655s7.877-6.489,10.792-6.9a5.32,5.32,0,0,1,3.991.99,5.324,5.324,0,0,1,2.1,3.537,5.391,5.391,0,0,1-1.039,3.979,5.463,5.463,0,0,1-1.578,1.383A5.332,5.332,0,0,1,1796.152,552.918Z" transform="translate(-1557 -297.708)" fill="#bdb2f0"/>
        <path id="Path_15633" data-name="Path 15633" d="M1772.869,552.775c2.6,1.382,8.174,9.415,7.78,10.179s-10.186.623-12.783-.764a5.348,5.348,0,0,1-2.625-3.147,5.443,5.443,0,0,1-.222-2.079,5.26,5.26,0,0,1,.607-2,5.331,5.331,0,0,1,7.244-2.188Z" transform="translate(-1556.281 -298.083)" fill="#bdb2f0"/>
        <path id="Path_15634" data-name="Path 15634" d="M1793.429,565.113c-2.847.763-12.416-1.289-12.639-2.1s7-7.42,9.849-8.192a5.337,5.337,0,0,1,2.8,10.3Z" transform="translate(-1556.882 -298.179)" fill="#bdb2f0"/>
        <path id="Path_15635" data-name="Path 15635" d="M1797.328,497.373c.509,1.364-.039,6.174-.423,6.321s-3.993-3.091-4.5-4.453a2.633,2.633,0,1,1,4.924-1.868Z" transform="translate(-1557.32 -295.928)" fill="#bdb2f0"/>
        <path id="Path_15636" data-name="Path 15636" d="M1802.949,505.607c-1.443.192-6-1.43-6.059-1.84s3.914-3.192,5.348-3.388a2.638,2.638,0,0,1,.7,5.228Z" transform="translate(-1557.498 -296.107)" fill="#bdb2f0"/>
        <path id="Path_15637" data-name="Path 15637" d="M1793.267,504.765c.895,1.867.665,8.744.136,9s-6.012-3.914-6.9-5.782a3.628,3.628,0,0,1-.357-1.417,3.539,3.539,0,0,1,.212-1.443,3.752,3.752,0,0,1,6.041-1.521A3.722,3.722,0,0,1,1793.267,504.765Z" transform="translate(-1557.088 -296.193)" fill="#bdb2f0"/>
        <path id="Path_15638" data-name="Path 15638" d="M1802.228,516.388c-2.059.277-8.541-2.035-8.618-2.613s5.559-4.532,7.607-4.809a3.746,3.746,0,0,1,1.012,7.423Z" transform="translate(-1557.373 -296.434)" fill="#bdb2f0"/>
        <path id="Path_15639" data-name="Path 15639" d="M1804.983,572.91l-.048-.015a.267.267,0,0,1-.1-.058.8.8,0,0,1-.057-.089.435.435,0,0,1-.02-.1.192.192,0,0,1,.02-.106c14.687-37.186,27.4-63.239,35.789-73.365.184-.224.318-.385.375-.47a.253.253,0,0,1,.163-.1.274.274,0,0,1,.319.2.3.3,0,0,1-.021.2c-.067.112-.2.255-.414.527-8.348,10.083-21.024,36.083-35.7,73.214a.279.279,0,0,1-.115.14.3.3,0,0,1-.193.03Z" transform="translate(-1557.799 -296.039)" fill="#786ce6"/>
        <path id="Path_15640" data-name="Path 15640" d="M1847.342,497.434c-.992,1.132-5.637,2.972-5.953,2.693s.865-5.135,1.857-6.267a2.679,2.679,0,0,1,.836-.649,2.727,2.727,0,0,1,2.076-.141,2.771,2.771,0,0,1,.925.529,2.6,2.6,0,0,1,.643.841,2.56,2.56,0,0,1,.28,1.024,2.638,2.638,0,0,1-.135,1.058,2.834,2.834,0,0,1-.529.912Z" transform="translate(-1559.196 -295.824)" fill="#786ce6"/>
        <path id="Path_15641" data-name="Path 15641" d="M1838.092,500.588c.319,1.5-1.049,6.433-1.471,6.522s-3.664-3.87-3.982-5.377a2.787,2.787,0,0,1,5.454-1.146Z" transform="translate(-1558.861 -296.033)" fill="#786ce6"/>
        <path id="Path_15642" data-name="Path 15642" d="M1842.831,510.023c-1.529-.031-6.041-2.463-6.031-2.9s4.6-2.682,6.126-2.664a2.826,2.826,0,0,1,1.087.215,2.984,2.984,0,0,1,.915.617,2.812,2.812,0,0,1,.557,3.083,2.706,2.706,0,0,1-.645.9,2.753,2.753,0,0,1-.931.577,2.807,2.807,0,0,1-1.086.172Z" transform="translate(-1559.023 -296.263)" fill="#786ce6"/>
        <path id="Path_15643" data-name="Path 15643" d="M1822.109,525.687c.8,2.453-.578,10.922-1.27,11.152s-6.81-5.8-7.619-8.251a4.78,4.78,0,0,1-.21-1.811,4.671,4.671,0,0,1,3.2-4.082,4.674,4.674,0,0,1,5.9,2.991Z" transform="translate(-1558.114 -296.951)" fill="#786ce6"/>
        <path id="Path_15644" data-name="Path 15644" d="M1831.721,540.555c-2.569.229-10.514-3.018-10.581-3.752s7.185-5.328,9.753-5.555a4.673,4.673,0,1,1,.827,9.307Z" transform="translate(-1558.423 -297.285)" fill="#786ce6"/>
        <path id="Path_15645" data-name="Path 15645" d="M1814.257,535.032c1.615,2.714,2.258,13.2,1.481,13.658s-9.685-5.09-11.3-7.8a5.609,5.609,0,0,1-.79-2.116,5.718,5.718,0,0,1,10.61-3.737Z" transform="translate(-1557.754 -297.321)" fill="#786ce6"/>
        <path id="Path_15646" data-name="Path 15646" d="M1828.168,554.584c-3.155-.046-12.417-5-12.408-5.9s9.417-5.578,12.58-5.535a5.719,5.719,0,0,1-.172,11.437Z" transform="translate(-1558.219 -297.741)" fill="#786ce6"/>
        <path id="Path_15647" data-name="Path 15647" d="M1808.865,547.6c1.618,2.713,2.252,13.2,1.483,13.658s-9.695-5.09-11.312-7.8a5.765,5.765,0,0,1-.779-2.116,5.558,5.558,0,0,1,.087-2.254,5.776,5.776,0,0,1,.962-2.044,5.546,5.546,0,0,1,1.664-1.515,5.731,5.731,0,0,1,7.9,2.073Z" transform="translate(-1557.546 -297.801)" fill="#786ce6"/>
        <path id="Path_15648" data-name="Path 15648" d="M1822.777,567.154c-3.163-.046-12.416-5-12.407-5.9s9.416-5.579,12.572-5.534a5.743,5.743,0,0,1,2.212.442,5.857,5.857,0,0,1,1.865,1.262,5.686,5.686,0,0,1,1.231,1.884,5.7,5.7,0,0,1-1.355,6.261,5.732,5.732,0,0,1-4.117,1.583Z" transform="translate(-1558.012 -298.221)" fill="#786ce6"/>
        <path id="Path_15649" data-name="Path 15649" d="M1798.118,563.13c2.529,1.894,7.127,11.342,6.578,12.063s-10.9-1.018-13.427-2.906a5.719,5.719,0,1,1,6.849-9.161Z" transform="translate(-1557.197 -298.46)" fill="#786ce6"/>
        <path id="Path_15650" data-name="Path 15650" d="M1817.863,579.631c-3.136.349-12.946-3.408-13.043-4.3s8.657-6.716,11.782-7.065a5.719,5.719,0,1,1,1.27,11.368Z" transform="translate(-1557.801 -298.698)" fill="#786ce6"/>
        <path id="Path_15651" data-name="Path 15651" d="M1833.188,508.411c.328,1.527-1.048,6.54-1.49,6.629s-3.713-3.934-4.04-5.461a2.826,2.826,0,1,1,5.53-1.168Z" transform="translate(-1558.67 -296.329)" fill="#786ce6"/>
        <path id="Path_15652" data-name="Path 15652" d="M1837.788,518.087c-1.558-.03-6.127-2.5-6.117-2.949s4.665-2.738,6.233-2.707a2.808,2.808,0,0,1,1.1.217,2.923,2.923,0,0,1,.933.627,2.816,2.816,0,0,1,.6.938,2.715,2.715,0,0,1,.2,1.1,2.858,2.858,0,0,1-.241,1.094,2.8,2.8,0,0,1-.654.914,2.833,2.833,0,0,1-2.058.769Z" transform="translate(-1558.825 -296.568)" fill="#786ce6"/>
        <path id="Path_15653" data-name="Path 15653" d="M1827.667,515.586c.636,2.125-.74,9.378-1.346,9.559s-5.722-5.135-6.357-7.263a4.018,4.018,0,1,1,7.7-2.291Z" transform="translate(-1558.371 -296.578)" fill="#786ce6"/>
        <path id="Path_15654" data-name="Path 15654" d="M1835.235,529.412c-2.222-.044-8.706-3.564-8.7-4.19s6.637-3.891,8.849-3.847a4.019,4.019,0,0,1-.153,8.037Z" transform="translate(-1558.629 -296.909)" fill="#786ce6"/>
      </g>
      <path id="Path_15655" data-name="Path 15655" d="M1145.864,290.629l-1.241,1.138a1.548,1.548,0,0,1-2.174-.052l-22.083-24.4a1.476,1.476,0,0,1,.154-2.116l1.24-1.138a1.549,1.549,0,0,1,2.174.052l22.083,24.351A1.541,1.541,0,0,1,1145.864,290.629Z" transform="translate(-1106.534 -163.956)" fill="#183658"/>
      <path id="Path_15656" data-name="Path 15656" d="M1220.922,271.1c-2.953-2.43-25.768,7.652-25.508,11.116.318,3.517-15.927,37.381-15.927,37.381l-28.037-22.439c-.26-.827-2.9-9.512-3.058-11.061-.154-1.654-4.857-4.5-7.09-4.085s1.867,3.206,2.175,3.723c.731,1.4-2.068,1.913-2.068,1.913s-8.119-4.446-8.273-7.084-1.864-8.117-3.567-6.98c-.885.569-.885,4.5-.626,6.36-.519-2.116-1.241-4.446-1.962-4.705-1.3-.413-1.973,1.242-1.713,2.069s2.329,9.72,3,10.754c.625.982,13.705,11.529,15.571,13.856,0,0,36.261,41.569,38.848,42.655,2.279.93,10.349-13.391,17.957-22.9C1208.3,312.148,1230.183,278.594,1220.922,271.1Z" transform="translate(-1106.731 -164.227)" fill="#d29e8b"/>
      <path id="Path_15657" data-name="Path 15657" d="M1300.713,588.365s4.962,4.86,5.116,6.671c.106,1.809.472,20.939-1.607,22.749-2.009,1.809-8.011,3.05-6.1,5.067,1.444,1.5,12.621,1.189,20.016.775,2.173-.1,4.866-17.424,5.741-19.957,1.243-3.671,4.243-12,3.156-14.58-.568-1.241-3.2-3.827-6.878-6.258-3.876-2.533-7.656-8.168-7.656-8.168Z" transform="translate(-1113.32 -175.83)" fill="#d29e8b"/>
      <path id="Path_15658" data-name="Path 15658" d="M1246.406,600.671s4.444,12.616,4.444,12.666c.317,2.02,1.663,6.925,1.663,8.79,0,6.829-30.731-5.791-23.853-8.841a7.3,7.3,0,0,0,2.79-4.809c.318-3.567-2.578-8.065-2.578-8.065Z" transform="translate(-1110.646 -176.813)" fill="#d29e8b"/>
      <path id="Path_15659" data-name="Path 15659" d="M1196.693,356.151s-2.222,22.646-2.222,23.008c0,36.605-7.242,108.162-5.848,115.09,3.366,16.8,39.522,102.475,39.522,102.475L1247.7,594.4l-25.449-102.581,9.368-41.311,13.234-81.639Z" transform="translate(-1109.147 -167.488)" fill="#282358"/>
      <path id="Path_15660" data-name="Path 15660" d="M1262.84,376.287l3.723,21.456,9.983,88.36,38.232,86.344s-5.376,12.563-13.293,14.321l-60.834-88.67L1202.88,384.662l1.348-25.178Z" transform="translate(-1109.697 -167.616)" fill="#322c6b"/>
      <path id="Path_15661" data-name="Path 15661" d="M1188.9,297.733l27.1,2.789s1.24-22.284,1.24-32.883c0-12.874-1.086-29.522-2.635-29.161-4.347.982-10.243,3.413-13.705,8.221C1188.795,263.351,1188.9,297.733,1188.9,297.733Z" transform="translate(-1109.167 -162.996)" fill="#786ce6"/>
      <path id="Path_15662" data-name="Path 15662" d="M1202.285,265.28c-.568,3.929-10.964,110.8-10.964,110.8,49.351,23.887,76.561,4.24,76.561,4.24s-1.607-75.022.307-85.258c1.3-6.772,2.905-51.65-1.5-52.943a109.549,109.549,0,0,0-19.035-4.033c-6-.62-29.172-.983-33.366.414A54.439,54.439,0,0,0,1202.285,265.28Z" transform="translate(-1109.259 -162.96)" fill="#786ce6"/>
      <path id="Path_15663" data-name="Path 15663" d="M1319.772,583.05s-11.484,32.414-15.985,33.969c-1.194.414-6.935,1.447-8.021,4.033a11.546,11.546,0,0,0,0,3.308h23.949s3.058-14.269,4.241-20.577c0,0,6.319-15.356,5.645-16.752C1328.871,585.687,1319.772,583.05,1319.772,583.05Z" transform="translate(-1113.242 -176.15)" fill="#1d1934"/>
      <path id="Path_15664" data-name="Path 15664" d="M1253.321,624.857l-3.512-11.168s-7.4,3.154-11.07,2.638a109.838,109.838,0,0,1-10.917-2.638c-14.745,4.861-26.854,7.239-24.622,11.168Z" transform="translate(-1109.702 -177.319)" fill="#1d1934"/>
      <path id="Path_15665" data-name="Path 15665" d="M1184.841,346.394a4.981,4.981,0,0,1-.722-.569c.876-10.443.722-20.629-2.539-24.046.1-.155.779-1.706,1.558-3.257,3.771,2.947,5.588,10.754,4.915,23.469a24.042,24.042,0,0,1-.519,2.637C1186.341,345.817,1185.359,346.6,1184.841,346.394Z" transform="translate(-1108.886 -166.052)" fill="#d29e8b"/>
      <path id="Path_15666" data-name="Path 15666" d="M1319.776,378.21a1.573,1.573,0,0,0,0-.673c-.721-7.394-6.829-69.54-7.867-72.177-.923-2.378-28.394-41.776-28.394-41.776l-13.5,18.458,26.432,35.364c.567,2.224,10.137,44.205,10.137,44.205s1.972,7.652,2.847,12.2c-.414,1.085-.779,2.116-1.136,3a31.128,31.128,0,0,1-2.846,4.6,29.542,29.542,0,0,0-3.366,6c-.251,1.086-.769,3.309-1.087,4.653a36.148,36.148,0,0,0-.721,3.671,7.11,7.11,0,0,1-.875,1.964,1.178,1.178,0,0,0,1.393,1.706c.982-.31,1.7-1.551,2.175-2.327,1.289-2.172,2.019-6.2,2.327-6s1.443,6.98,1.654,7.755c.154.776,1.548,8.635,2.327,10.082s1.808,1.189,2.069.311c.26-.776-.829-11.789-.829-11.789s-.153-1.4.474-.982c.615.465,1.6,10.444,2.068,11.943.413,1.449,1.394,2.224,2.222,1.086.98-1.448-.722-12.047-.722-12.047s-.212-1.346.355-1.189,1.3,8.686,1.713,9.41a1.112,1.112,0,0,0,2.068-.207c.616-1.448-.982-10.909-.982-10.909s.107-.775.414-.517c.357.258,1.5,7.5,2.222,8.169a.77.77,0,0,0,1.136,0c1.346-.931-.722-7.807-.673-11.22,0-3.412-1.548-7.29-1.077-11.323A4.559,4.559,0,0,1,1319.776,378.21Z" transform="translate(-1112.262 -163.954)" fill="#d29e8b"/>
      <path id="Path_15667" data-name="Path 15667" d="M1304.445,287.7l-23.487,15.821s-13.245-19.75-20.323-26.782c-8.9-8.789,3.251-35.78,8.944-34.226C1282.458,245.872,1304.445,287.7,1304.445,287.7Z" transform="translate(-1111.782 -163.147)" fill="#786ce6"/>
      <path id="Path_15668" data-name="Path 15668" d="M1247.3,214.077l3.51,23.214s-12.82,27.6-20.477,25.231c-6.414-2.02-2.491-26.471-2.491-26.471s3.521-13.133,2.434-19.7C1229.3,209.785,1247.3,214.077,1247.3,214.077Z" transform="translate(-1110.606 -162.012)" fill="#d29e8b"/>
      <path id="Path_15669" data-name="Path 15669" d="M1249.96,179.712c.519-.207,4.087,26.419-2.684,33.76s-20.026,9.72-24.729,3.929c-5.232-6.36-4.972-35,5.589-42.5C1238.63,167.352,1249.96,179.712,1249.96,179.712Z" transform="translate(-1110.323 -160.475)" fill="#d29e8b"/>
      <path id="Path_15670" data-name="Path 15670" d="M1232.266,160.155a29.033,29.033,0,0,1,15.359,8.79c3.722.413,8.743,2.482,13.917,11.116,6.417,10.6,1.655,22.387-5.79,28.126-7.454,5.791-7.348,12.407-7.348,12.407l-1.193-3.463a18.879,18.879,0,0,1-.933-8.117,15.176,15.176,0,0,1,1.192-4.86c1.808-3.878-3.828-6.411-5.434-9.618-1.241-2.482-1.288-8.117-3.2-12.2l-2.28-3.1s-5.281-4.136-10.445-2.947C1221.04,177.475,1221.81,158.035,1232.266,160.155Z" transform="translate(-1110.47 -159.993)" fill="#184655"/>
      <path id="Path_15671" data-name="Path 15671" d="M1243.28,200.675c-.058,3.258,1.394,5.894,3.308,5.946,1.857.052,3.414-2.585,3.463-5.842s-1.394-5.894-3.308-5.946C1244.877,194.781,1243.328,197.418,1243.28,200.675Z" transform="translate(-1111.243 -161.33)" fill="#d29e8b"/>
      <path id="Path_15672" data-name="Path 15672" d="M1231.414,208.68l-10.244-.518a4.519,4.519,0,0,0,4.549,4.292C1231.155,212.869,1231.414,208.68,1231.414,208.68Z" transform="translate(-1110.395 -161.838)" fill="#fff"/>
      <circle id="Ellipse_506" data-name="Ellipse 506" cx="23.084" cy="23.084" r="23.084" transform="translate(0 29.817)" fill="#fff"/>
      <circle id="Ellipse_507" data-name="Ellipse 507" cx="22.603" cy="22.603" r="22.603" transform="translate(0.482 30.298)" fill="none" stroke="rgba(41,45,52,0.1)" stroke-width="1"/>
      <path id="Path_15673" data-name="Path 15673" d="M1134.428,204.962a.961.961,0,1,0-1.923,0v.962h-5.772v-.962a.962.962,0,1,0-1.923,0v.962h-1.924a2.886,2.886,0,0,0-2.885,2.885v13.466a2.886,2.886,0,0,0,2.885,2.886h13.466a2.886,2.886,0,0,0,2.886-2.886V208.809a2.886,2.886,0,0,0-2.886-2.885h-1.923Zm2.885,6.733v-2.886a.962.962,0,0,0-.962-.962h-1.923v.962a.961.961,0,1,1-1.923,0v-.962h-5.772v.962a.962.962,0,1,1-1.923,0v-.962h-1.924a.961.961,0,0,0-.961.962v2.886Zm-15.389,1.924h15.389v8.656a.962.962,0,0,1-.962.962h-13.466a.961.961,0,0,1-.961-.962Z" transform="translate(-1106.535 -161.68)" fill="#786ce6" fill-rule="evenodd"/>
      <circle id="Ellipse_508" data-name="Ellipse 508" cx="23.084" cy="23.084" r="23.084" transform="translate(412.622 11.542)" fill="#fff"/>
      <circle id="Ellipse_509" data-name="Ellipse 509" cx="22.603" cy="22.603" r="22.603" transform="translate(413.104 12.023)" fill="none" stroke="rgba(41,45,52,0.1)" stroke-width="1"/>
      <path id="Path_15674" data-name="Path 15674" d="M1567.311,195.176a8.014,8.014,0,0,1-.865,3.655,8.17,8.17,0,0,1-7.309,4.521,8.072,8.072,0,0,1-3.656-.866L1550,204.313l1.826-5.482a8.048,8.048,0,0,1-.866-3.655,8.18,8.18,0,0,1,4.521-7.31,8.074,8.074,0,0,1,3.656-.866h.479a8.153,8.153,0,0,1,7.695,7.694Z" transform="translate(-1122.951 -161.03)" fill="none" stroke="#786ce6" stroke-linecap="round" stroke-linejoin="round" stroke-width="2"/>
      <circle id="Ellipse_510" data-name="Ellipse 510" cx="23.084" cy="23.084" r="23.084" transform="translate(204.87 2.886)" fill="#fff"/>
      <circle id="Ellipse_511" data-name="Ellipse 511" cx="22.603" cy="22.603" r="22.603" transform="translate(205.348 3.366)" fill="none" stroke="rgba(41,45,52,0.1)" stroke-width="1"/>
      <path id="Path_15675" data-name="Path 15675" d="M1337.174,179.177a7.695,7.695,0,0,1,13.138,5.441c0,2.982-1.943,5.867-4.068,8.115a27.745,27.745,0,0,1-2.875,2.63c-.289.233-.549.427-.75.577-.2-.152-.463-.346-.75-.577a27.575,27.575,0,0,1-2.876-2.63c-2.125-2.248-4.068-5.133-4.068-8.115a7.694,7.694,0,0,1,2.25-5.441Zm4.906,18.745a8.932,8.932,0,0,0,.538-.8l-.53.8a.947.947,0,0,0,1.059,0l-.529-.8a8.877,8.877,0,0,0,.538.8h0v0l.03-.014c.019-.012.038-.031.077-.055l.288-.206c.25-.179.6-.439,1.019-.769a30.69,30.69,0,0,0,3.079-2.81c2.2-2.325,4.587-5.685,4.587-9.439a9.618,9.618,0,1,0-19.236,0c0,3.751,2.386,7.117,4.588,9.439a30.586,30.586,0,0,0,3.078,2.81c.422.334.769.594,1.02.769l.287.206c.039.024.058.042.077.055l.03.014v0Zm-1.386-13.3a1.924,1.924,0,1,1,1.924,1.924A1.924,1.924,0,0,1,1340.695,184.618Zm1.924-3.847a3.847,3.847,0,1,0,3.847,3.847A3.847,3.847,0,0,0,1342.619,180.771Z" transform="translate(-1114.669 -160.573)" fill="#786ce6" fill-rule="evenodd"/>
    </g>
  </g>
</svg>
